<?xml version="1.0" encoding="UTF-8" standalone="no"?>
<!DOCTYPE svg PUBLIC "-//W3C//DTD SVG 1.1//EN"
 "http://www.w3.org/Graphics/SVG/1.1/DTD/svg11.dtd">
<!-- Generated by graphviz version 2.43.0 (0)
 -->
<!-- Title: com.teragrep.cfe_16.bo.HECRecordImpl.toSyslogMessage Pages: 1 -->
<svg width="654pt" height="418pt"
 viewBox="0.00 0.00 654.00 417.50" xmlns="http://www.w3.org/2000/svg" xmlns:xlink="http://www.w3.org/1999/xlink">
<g id="graph0" class="graph" transform="scale(1 1) rotate(0) translate(4 413.5)">
<title>com.teragrep.cfe_16.bo.HECRecordImpl.toSyslogMessage</title>
<!-- Node1 -->
<g id="Node000001" class="node">
<title>Node1</title>
<g id="a_Node000001"><a xlink:title=" ">
<polygon fill="#999999" stroke="#666666" points="189,-97 0,-97 0,-67 189,-67 189,-97"/>
<text text-anchor="start" x="8" y="-85" font-family="Helvetica,sans-Serif" font-size="10.00">com.teragrep.cfe_16.bo.HECRecord</text>
<text text-anchor="middle" x="94.5" y="-74" font-family="Helvetica,sans-Serif" font-size="10.00">Impl.toSyslogMessage</text>
</a>
</g>
</g>
<!-- Node2 -->
<g id="Node000002" class="node">
<title>Node2</title>
<g id="a_Node000002"><a xlink:href="classcom_1_1teragrep_1_1cfe__16_1_1bo_1_1HeaderInfo.html#a75b003348c0432bd23b5d10615237da1" target="_top" xlink:title=" ">
<polygon fill="white" stroke="#666666" points="404.5,-243 234.5,-243 234.5,-213 404.5,-213 404.5,-243"/>
<text text-anchor="start" x="242.5" y="-231" font-family="Helvetica,sans-Serif" font-size="10.00">com.teragrep.cfe_16.bo.Header</text>
<text text-anchor="middle" x="319.5" y="-220" font-family="Helvetica,sans-Serif" font-size="10.00">Info.asSDElement</text>
</a>
</g>
</g>
<!-- Node1&#45;&gt;Node2 -->
<g id="edge1_Node000001_Node000002" class="edge">
<title>Node1&#45;&gt;Node2</title>
<g id="a_edge1_Node000001_Node000002"><a xlink:title=" ">
<path fill="none" stroke="#63b8ff" d="M118.52,-97.07C158.59,-123.3 241.18,-177.38 286.68,-207.17"/>
<polygon fill="#63b8ff" stroke="#63b8ff" points="284.98,-210.24 295.27,-212.79 288.82,-204.38 284.98,-210.24"/>
</a>
</g>
</g>
<!-- Node10 -->
<g id="Node000010" class="node">
<title>Node10</title>
<g id="a_Node000010"><a xlink:href="classcom_1_1teragrep_1_1cfe__16_1_1bo_1_1HECRecordImpl.html#a764bbd429e4904118592b16636ec3040" target="_top" xlink:title=" ">
<polygon fill="white" stroke="#666666" points="414,-121 225,-121 225,-91 414,-91 414,-121"/>
<text text-anchor="start" x="233" y="-109" font-family="Helvetica,sans-Serif" font-size="10.00">com.teragrep.cfe_16.bo.HECRecord</text>
<text text-anchor="middle" x="319.5" y="-98" font-family="Helvetica,sans-Serif" font-size="10.00">Impl.event</text>
</a>
</g>
</g>
<!-- Node1&#45;&gt;Node10 -->
<g id="edge12_Node000001_Node000010" class="edge">
<title>Node1&#45;&gt;Node10</title>
<g id="a_edge12_Node000001_Node000010"><a xlink:title=" ">
<path fill="none" stroke="#63b8ff" d="M189.1,-92.07C197.58,-92.99 206.21,-93.91 214.77,-94.84"/>
<polygon fill="#63b8ff" stroke="#63b8ff" points="214.46,-98.32 224.78,-95.91 215.21,-91.36 214.46,-98.32"/>
</a>
</g>
</g>
<!-- Node11 -->
<g id="Node000011" class="node">
<title>Node11</title>
<g id="a_Node000011"><a xlink:href="classcom_1_1teragrep_1_1cfe__16_1_1bo_1_1HECRecordImpl.html#a3b14a495b0bfbe1c588cfcdf7f26c351" target="_top" xlink:title=" ">
<polygon fill="white" stroke="#666666" points="414,-73 225,-73 225,-43 414,-43 414,-73"/>
<text text-anchor="start" x="233" y="-61" font-family="Helvetica,sans-Serif" font-size="10.00">com.teragrep.cfe_16.bo.HECRecord</text>
<text text-anchor="middle" x="319.5" y="-50" font-family="Helvetica,sans-Serif" font-size="10.00">Impl.structuredDataParams</text>
</a>
</g>
</g>
<!-- Node1&#45;&gt;Node11 -->
<g id="edge13_Node000001_Node000011" class="edge">
<title>Node1&#45;&gt;Node11</title>
<g id="a_edge13_Node000001_Node000011"><a xlink:title=" ">
<path fill="none" stroke="#63b8ff" d="M189.1,-71.93C197.58,-71.01 206.21,-70.09 214.77,-69.16"/>
<polygon fill="#63b8ff" stroke="#63b8ff" points="215.21,-72.64 224.78,-68.09 214.46,-65.68 215.21,-72.64"/>
</a>
</g>
</g>
<!-- Node12 -->
<g id="Node000012" class="node">
<title>Node12</title>
<g id="a_Node000012"><a xlink:href="classcom_1_1teragrep_1_1cfe__16_1_1bo_1_1HECRecordImpl.html#a0d836324399398560ad89b2125f38014" target="_top" xlink:title=" ">
<polygon fill="white" stroke="#666666" points="642.5,-30 453.5,-30 453.5,0 642.5,0 642.5,-30"/>
<text text-anchor="start" x="461.5" y="-18" font-family="Helvetica,sans-Serif" font-size="10.00">com.teragrep.cfe_16.bo.HECRecord</text>
<text text-anchor="middle" x="548" y="-7" font-family="Helvetica,sans-Serif" font-size="10.00">Impl.time</text>
</a>
</g>
</g>
<!-- Node1&#45;&gt;Node12 -->
<g id="edge15_Node000001_Node000012" class="edge">
<title>Node1&#45;&gt;Node12</title>
<g id="a_edge15_Node000001_Node000012"><a xlink:title=" ">
<path fill="none" stroke="#63b8ff" d="M127.97,-66.9C153.69,-55.69 190.86,-41.17 225,-34 296.92,-18.9 379.72,-14.29 443.34,-13.38"/>
<polygon fill="#63b8ff" stroke="#63b8ff" points="443.43,-16.88 453.39,-13.26 443.35,-9.88 443.43,-16.88"/>
</a>
</g>
</g>
<!-- Node3 -->
<g id="Node000003" class="node">
<title>Node3</title>
<g id="a_Node000003"><a xlink:href="interfacecom_1_1teragrep_1_1cfe__16_1_1Stubable.html#a8e854db1814eeb807cd9049776c33923" target="_top" xlink:title=" ">
<polygon fill="white" stroke="#666666" points="646,-409.5 450,-409.5 450,-390.5 646,-390.5 646,-409.5"/>
<text text-anchor="middle" x="548" y="-397.5" font-family="Helvetica,sans-Serif" font-size="10.00">com.teragrep.cfe_16.Stubable.isStub</text>
</a>
</g>
</g>
<!-- Node2&#45;&gt;Node3 -->
<g id="edge2_Node000002_Node000003" class="edge">
<title>Node2&#45;&gt;Node3</title>
<g id="a_edge2_Node000002_Node000003"><a xlink:title=" ">
<path fill="none" stroke="#63b8ff" d="M328.54,-243.1C346.06,-274.4 390.88,-346.29 450,-381 453.7,-383.17 457.61,-385.11 461.65,-386.82"/>
<polygon fill="#63b8ff" stroke="#63b8ff" points="460.67,-390.19 471.26,-390.44 463.13,-383.64 460.67,-390.19"/>
</a>
</g>
</g>
<!-- Node4 -->
<g id="Node000004" class="node">
<title>Node4</title>
<g id="a_Node000004"><a xlink:href="interfacecom_1_1teragrep_1_1cfe__16_1_1bo_1_1XForwardedFor.html#a113b5e3c48eba97ef47b0dbcb64ef592" target="_top" xlink:title=" ">
<polygon fill="white" stroke="#666666" points="644.5,-372 451.5,-372 451.5,-342 644.5,-342 644.5,-372"/>
<text text-anchor="start" x="459.5" y="-360" font-family="Helvetica,sans-Serif" font-size="10.00">com.teragrep.cfe_16.bo.XForwarded</text>
<text text-anchor="middle" x="548" y="-349" font-family="Helvetica,sans-Serif" font-size="10.00">For.value</text>
</a>
</g>
</g>
<!-- Node2&#45;&gt;Node4 -->
<g id="edge3_Node000002_Node000004" class="edge">
<title>Node2&#45;&gt;Node4</title>
<g id="a_edge3_Node000002_Node000004"><a xlink:title=" ">
<path fill="none" stroke="#63b8ff" d="M334.89,-243.36C357.28,-266.36 402.84,-309.52 450,-333 454,-334.99 458.17,-336.82 462.44,-338.51"/>
<polygon fill="#63b8ff" stroke="#63b8ff" points="461.33,-341.83 471.93,-341.97 463.73,-335.25 461.33,-341.83"/>
</a>
</g>
</g>
<!-- Node5 -->
<g id="Node000005" class="node">
<title>Node5</title>
<g id="a_Node000005"><a xlink:href="interfacecom_1_1teragrep_1_1cfe__16_1_1bo_1_1XForwardedHost.html#af36e894a4b77acf609737e584479e182" target="_top" xlink:title=" ">
<polygon fill="white" stroke="#666666" points="644.5,-324 451.5,-324 451.5,-294 644.5,-294 644.5,-324"/>
<text text-anchor="start" x="459.5" y="-312" font-family="Helvetica,sans-Serif" font-size="10.00">com.teragrep.cfe_16.bo.XForwarded</text>
<text text-anchor="middle" x="548" y="-301" font-family="Helvetica,sans-Serif" font-size="10.00">Host.value</text>
</a>
</g>
</g>
<!-- Node2&#45;&gt;Node5 -->
<g id="edge4_Node000002_Node000005" class="edge">
<title>Node2&#45;&gt;Node5</title>
<g id="a_edge4_Node000002_Node000005"><a xlink:title=" ">
<path fill="none" stroke="#63b8ff" d="M350.78,-243.11C376.66,-255.58 415.13,-273.11 450,-285 456.4,-287.18 463.1,-289.26 469.86,-291.2"/>
<polygon fill="#63b8ff" stroke="#63b8ff" points="469.2,-294.65 479.77,-293.96 471.08,-287.91 469.2,-294.65"/>
</a>
</g>
</g>
<!-- Node6 -->
<g id="Node000006" class="node">
<title>Node6</title>
<g id="a_Node000006"><a xlink:href="interfacecom_1_1teragrep_1_1cfe__16_1_1bo_1_1XForwardedProto.html#a43d7fb30c973c1c89906b9ac3b928e06" target="_top" xlink:title=" ">
<polygon fill="white" stroke="#666666" points="644.5,-276 451.5,-276 451.5,-246 644.5,-246 644.5,-276"/>
<text text-anchor="start" x="459.5" y="-264" font-family="Helvetica,sans-Serif" font-size="10.00">com.teragrep.cfe_16.bo.XForwarded</text>
<text text-anchor="middle" x="548" y="-253" font-family="Helvetica,sans-Serif" font-size="10.00">Proto.value</text>
</a>
</g>
</g>
<!-- Node2&#45;&gt;Node6 -->
<g id="edge5_Node000002_Node000006" class="edge">
<title>Node2&#45;&gt;Node6</title>
<g id="a_edge5_Node000002_Node000006"><a xlink:title=" ">
<path fill="none" stroke="#63b8ff" d="M404.52,-240.24C416.42,-241.98 428.78,-243.78 441.03,-245.56"/>
<polygon fill="#63b8ff" stroke="#63b8ff" points="440.88,-249.08 451.28,-247.05 441.89,-242.15 440.88,-249.08"/>
</a>
</g>
</g>
<!-- Node7 -->
<g id="Node000007" class="node">
<title>Node7</title>
<g id="a_Node000007"><a xlink:href="classcom_1_1teragrep_1_1cfe__16_1_1bo_1_1HeaderInfo.html#ad8923eda4b1a0fe860d17ad929d0e441" target="_top" xlink:title=" ">
<polygon fill="white" stroke="#666666" points="633,-210 463,-210 463,-180 633,-180 633,-210"/>
<text text-anchor="start" x="471" y="-198" font-family="Helvetica,sans-Serif" font-size="10.00">com.teragrep.cfe_16.bo.Header</text>
<text text-anchor="middle" x="548" y="-187" font-family="Helvetica,sans-Serif" font-size="10.00">Info.xForwardedFor</text>
</a>
</g>
</g>
<!-- Node2&#45;&gt;Node7 -->
<g id="edge6_Node000002_Node000007" class="edge">
<title>Node2&#45;&gt;Node7</title>
<g id="a_edge6_Node000002_Node000007"><a xlink:title=" ">
<path fill="none" stroke="#63b8ff" d="M404.52,-215.76C420.26,-213.47 436.81,-211.05 452.84,-208.72"/>
<polygon fill="#63b8ff" stroke="#63b8ff" points="453.35,-212.18 462.74,-207.28 452.34,-205.25 453.35,-212.18"/>
</a>
</g>
</g>
<!-- Node8 -->
<g id="Node000008" class="node">
<title>Node8</title>
<g id="a_Node000008"><a xlink:href="classcom_1_1teragrep_1_1cfe__16_1_1bo_1_1HeaderInfo.html#a6140b9deaef2be853bab04cbd2757adf" target="_top" xlink:title=" ">
<polygon fill="white" stroke="#666666" points="633,-144 463,-144 463,-114 633,-114 633,-144"/>
<text text-anchor="start" x="471" y="-132" font-family="Helvetica,sans-Serif" font-size="10.00">com.teragrep.cfe_16.bo.Header</text>
<text text-anchor="middle" x="548" y="-121" font-family="Helvetica,sans-Serif" font-size="10.00">Info.xForwardedHost</text>
</a>
</g>
</g>
<!-- Node2&#45;&gt;Node8 -->
<g id="edge8_Node000002_Node000008" class="edge">
<title>Node2&#45;&gt;Node8</title>
<g id="a_edge8_Node000002_Node000008"><a xlink:title=" ">
<path fill="none" stroke="#63b8ff" d="M354.56,-212.94C380.66,-201.42 417.58,-185.15 450,-171 467.15,-163.51 486.03,-155.32 502.54,-148.18"/>
<polygon fill="#63b8ff" stroke="#63b8ff" points="504.17,-151.29 511.96,-144.11 501.39,-144.87 504.17,-151.29"/>
</a>
</g>
</g>
<!-- Node9 -->
<g id="Node000009" class="node">
<title>Node9</title>
<g id="a_Node000009"><a xlink:href="classcom_1_1teragrep_1_1cfe__16_1_1bo_1_1HeaderInfo.html#a047f093c1dfb35af9698976facc84233" target="_top" xlink:title=" ">
<polygon fill="white" stroke="#666666" points="633,-78 463,-78 463,-48 633,-48 633,-78"/>
<text text-anchor="start" x="471" y="-66" font-family="Helvetica,sans-Serif" font-size="10.00">com.teragrep.cfe_16.bo.Header</text>
<text text-anchor="middle" x="548" y="-55" font-family="Helvetica,sans-Serif" font-size="10.00">Info.xForwardedProto</text>
</a>
</g>
</g>
<!-- Node2&#45;&gt;Node9 -->
<g id="edge10_Node000002_Node000009" class="edge">
<title>Node2&#45;&gt;Node9</title>
<g id="a_edge10_Node000002_Node000009"><a xlink:title=" ">
<path fill="none" stroke="#63b8ff" d="M333.11,-212.98C354.83,-187.87 401.63,-136.98 450,-105 463.44,-96.12 479.06,-88.39 493.8,-82.07"/>
<polygon fill="#63b8ff" stroke="#63b8ff" points="495.42,-85.18 503.32,-78.12 492.74,-78.71 495.42,-85.18"/>
</a>
</g>
</g>
<!-- Node7&#45;&gt;Node7 -->
<g id="edge7_Node000007_Node000007" class="edge">
<title>Node7&#45;&gt;Node7</title>
<g id="a_edge7_Node000007_Node000007"><a xlink:title=" ">
<path fill="none" stroke="#63b8ff" d="M507.92,-210.28C499.02,-219.41 512.38,-228 548,-228 569.15,-228 582.46,-224.97 587.91,-220.6"/>
<polygon fill="#63b8ff" stroke="#63b8ff" points="591.41,-220.33 588.08,-210.28 584.41,-220.22 591.41,-220.33"/>
</a>
</g>
</g>
<!-- Node8&#45;&gt;Node8 -->
<g id="edge9_Node000008_Node000008" class="edge">
<title>Node8&#45;&gt;Node8</title>
<g id="a_edge9_Node000008_Node000008"><a xlink:title=" ">
<path fill="none" stroke="#63b8ff" d="M507.92,-144.28C499.02,-153.41 512.38,-162 548,-162 569.15,-162 582.46,-158.97 587.91,-154.6"/>
<polygon fill="#63b8ff" stroke="#63b8ff" points="591.41,-154.33 588.08,-144.28 584.41,-154.22 591.41,-154.33"/>
</a>
</g>
</g>
<!-- Node9&#45;&gt;Node9 -->
<g id="edge11_Node000009_Node000009" class="edge">
<title>Node9&#45;&gt;Node9</title>
<g id="a_edge11_Node000009_Node000009"><a xlink:title=" ">
<path fill="none" stroke="#63b8ff" d="M507.92,-78.28C499.02,-87.41 512.38,-96 548,-96 569.15,-96 582.46,-92.97 587.91,-88.6"/>
<polygon fill="#63b8ff" stroke="#63b8ff" points="591.41,-88.33 588.08,-78.28 584.41,-88.22 591.41,-88.33"/>
</a>
</g>
</g>
<!-- Node11&#45;&gt;Node12 -->
<g id="edge14_Node000011_Node000012" class="edge">
<title>Node11&#45;&gt;Node12</title>
<g id="a_edge14_Node000011_Node000012"><a xlink:title=" ">
<path fill="none" stroke="#63b8ff" d="M399.72,-42.96C418.51,-39.39 438.68,-35.56 457.89,-31.92"/>
<polygon fill="#63b8ff" stroke="#63b8ff" points="458.65,-35.33 467.83,-30.03 457.35,-28.46 458.65,-35.33"/>
</a>
</g>
</g>
</g>
</svg>
