<?xml version="1.0" encoding="UTF-8" standalone="no"?>
<!DOCTYPE svg PUBLIC "-//W3C//DTD SVG 1.1//EN"
 "http://www.w3.org/Graphics/SVG/1.1/DTD/svg11.dtd">
<!-- Generated by graphviz version 2.43.0 (0)
 -->
<!-- Title: com.teragrep.cfe_16.connection.RelpConnection.doSend Pages: 1 -->
<svg width="396pt" height="86pt"
 viewBox="0.00 0.00 396.00 86.00" xmlns="http://www.w3.org/2000/svg" xmlns:xlink="http://www.w3.org/1999/xlink">
<g id="graph0" class="graph" transform="scale(1 1) rotate(0) translate(4 82)">
<title>com.teragrep.cfe_16.connection.RelpConnection.doSend</title>
<!-- Node1 -->
<g id="Node000001" class="node">
<title>Node1</title>
<g id="a_Node000001"><a xlink:title=" ">
<polygon fill="#999999" stroke="#666666" points="388,-54 212,-54 212,-24 388,-24 388,-54"/>
<text text-anchor="start" x="220" y="-42" font-family="Helvetica,sans-Serif" font-size="10.00">com.teragrep.cfe_16.connection.</text>
<text text-anchor="middle" x="300" y="-31" font-family="Helvetica,sans-Serif" font-size="10.00">RelpConnection.doSend</text>
</a>
</g>
</g>
<!-- Node2 -->
<g id="Node000002" class="node">
<title>Node2</title>
<g id="a_Node000002"><a xlink:href="classcom_1_1teragrep_1_1cfe__16_1_1connection_1_1RelpConnection.html#ae696335cf9ac0460dd40d45b549657d8" target="_top" xlink:title=" ">
<polygon fill="white" stroke="#666666" points="176,-78 0,-78 0,-48 176,-48 176,-78"/>
<text text-anchor="start" x="8" y="-66" font-family="Helvetica,sans-Serif" font-size="10.00">com.teragrep.cfe_16.connection.</text>
<text text-anchor="middle" x="88" y="-55" font-family="Helvetica,sans-Serif" font-size="10.00">RelpConnection.sendMessage</text>
</a>
</g>
</g>
<!-- Node1&#45;&gt;Node2 -->
<g id="edge1_Node000001_Node000002" class="edge">
<title>Node1&#45;&gt;Node2</title>
<g id="a_edge1_Node000001_Node000002"><a xlink:title=" ">
<path fill="none" stroke="#63b8ff" d="M201.82,-50.11C193.31,-51.08 184.73,-52.06 176.3,-53.02"/>
<polygon fill="#63b8ff" stroke="#63b8ff" points="202.23,-53.58 211.77,-48.97 201.43,-46.63 202.23,-53.58"/>
</a>
</g>
</g>
<!-- Node3 -->
<g id="Node000003" class="node">
<title>Node3</title>
<g id="a_Node000003"><a xlink:href="classcom_1_1teragrep_1_1cfe__16_1_1connection_1_1RelpConnection.html#a415962d080953863a7949fc8346e02fa" target="_top" xlink:title="Sends a batch of syslog messages.">
<polygon fill="white" stroke="#666666" points="176,-30 0,-30 0,0 176,0 176,-30"/>
<text text-anchor="start" x="8" y="-18" font-family="Helvetica,sans-Serif" font-size="10.00">com.teragrep.cfe_16.connection.</text>
<text text-anchor="middle" x="88" y="-7" font-family="Helvetica,sans-Serif" font-size="10.00">RelpConnection.sendMessages</text>
</a>
</g>
</g>
<!-- Node1&#45;&gt;Node3 -->
<g id="edge2_Node000001_Node000003" class="edge">
<title>Node1&#45;&gt;Node3</title>
<g id="a_edge2_Node000001_Node000003"><a xlink:title=" ">
<path fill="none" stroke="#63b8ff" d="M201.82,-27.89C193.31,-26.92 184.73,-25.94 176.3,-24.98"/>
<polygon fill="#63b8ff" stroke="#63b8ff" points="201.43,-31.37 211.77,-29.03 202.23,-24.42 201.43,-31.37"/>
</a>
</g>
</g>
</g>
</svg>
