<?xml version="1.0" encoding="UTF-8" standalone="no"?>
<!DOCTYPE svg PUBLIC "-//W3C//DTD SVG 1.1//EN"
 "http://www.w3.org/Graphics/SVG/1.1/DTD/svg11.dtd">
<!-- Generated by graphviz version 2.43.0 (0)
 -->
<!-- Title: com.teragrep.cfe_16.Acknowledgements.initializeContext Pages: 1 -->
<svg width="531pt" height="182pt"
 viewBox="0.00 0.00 531.00 182.00" xmlns="http://www.w3.org/2000/svg" xmlns:xlink="http://www.w3.org/1999/xlink">
<g id="graph0" class="graph" transform="scale(1 1) rotate(0) translate(4 178)">
<title>com.teragrep.cfe_16.Acknowledgements.initializeContext</title>
<!-- Node1 -->
<g id="Node000001" class="node">
<title>Node1</title>
<g id="a_Node000001"><a xlink:title="This method has to be called first before calling any other Ack related methods.">
<polygon fill="#999999" stroke="#666666" points="523,-102 262,-102 262,-72 523,-72 523,-102"/>
<text text-anchor="start" x="270" y="-90" font-family="Helvetica,sans-Serif" font-size="10.00">com.teragrep.cfe_16.Acknowledgements.initialize</text>
<text text-anchor="middle" x="392.5" y="-79" font-family="Helvetica,sans-Serif" font-size="10.00">Context</text>
</a>
</g>
</g>
<!-- Node2 -->
<g id="Node000002" class="node">
<title>Node2</title>
<g id="a_Node000002"><a xlink:href="classcom_1_1teragrep_1_1cfe__16_1_1it_1_1AcknowledgementsIT.html#ad7d230669d75e6c83a2d4364e6ce1a10" target="_top" xlink:title=" ">
<polygon fill="white" stroke="#666666" points="226,-174 0,-174 0,-144 226,-144 226,-174"/>
<text text-anchor="start" x="8" y="-162" font-family="Helvetica,sans-Serif" font-size="10.00">com.teragrep.cfe_16.it.Acknowledgements</text>
<text text-anchor="middle" x="113" y="-151" font-family="Helvetica,sans-Serif" font-size="10.00">IT.acknowledgeTest</text>
</a>
</g>
</g>
<!-- Node1&#45;&gt;Node2 -->
<g id="edge1_Node000001_Node000002" class="edge">
<title>Node1&#45;&gt;Node2</title>
<g id="a_edge1_Node000001_Node000002"><a xlink:title=" ">
<path fill="none" stroke="#63b8ff" d="M332.93,-105.09C301.39,-114.55 261.73,-126 226,-135 213.66,-138.11 200.49,-141.16 187.67,-143.99"/>
<polygon fill="#63b8ff" stroke="#63b8ff" points="334.3,-108.33 342.87,-102.09 332.28,-101.63 334.3,-108.33"/>
</a>
</g>
</g>
<!-- Node3 -->
<g id="Node000003" class="node">
<title>Node3</title>
<g id="a_Node000003"><a xlink:href="classcom_1_1teragrep_1_1cfe__16_1_1it_1_1AcknowledgementsIT.html#a145cd25807c91ed7c62729cf106b5bbc" target="_top" xlink:title=" ">
<polygon fill="white" stroke="#666666" points="226,-126 0,-126 0,-96 226,-96 226,-126"/>
<text text-anchor="start" x="8" y="-114" font-family="Helvetica,sans-Serif" font-size="10.00">com.teragrep.cfe_16.it.Acknowledgements</text>
<text text-anchor="middle" x="113" y="-103" font-family="Helvetica,sans-Serif" font-size="10.00">IT.deleteAckTest</text>
</a>
</g>
</g>
<!-- Node1&#45;&gt;Node3 -->
<g id="edge2_Node000001_Node000003" class="edge">
<title>Node1&#45;&gt;Node3</title>
<g id="a_edge2_Node000001_Node000003"><a xlink:title=" ">
<path fill="none" stroke="#63b8ff" d="M251.68,-99.09C243.14,-99.83 234.62,-100.57 226.23,-101.29"/>
<polygon fill="#63b8ff" stroke="#63b8ff" points="252.03,-102.58 261.69,-98.23 251.42,-95.6 252.03,-102.58"/>
</a>
</g>
</g>
<!-- Node4 -->
<g id="Node000004" class="node">
<title>Node4</title>
<g id="a_Node000004"><a xlink:href="classcom_1_1teragrep_1_1cfe__16_1_1it_1_1AcknowledgementsIT.html#adf6b572a31548b5d7c7e9780f8f79bac" target="_top" xlink:title=" ">
<polygon fill="white" stroke="#666666" points="226,-78 0,-78 0,-48 226,-48 226,-78"/>
<text text-anchor="start" x="8" y="-66" font-family="Helvetica,sans-Serif" font-size="10.00">com.teragrep.cfe_16.it.Acknowledgements</text>
<text text-anchor="middle" x="113" y="-55" font-family="Helvetica,sans-Serif" font-size="10.00">IT.getRequestedAckStatusesTest</text>
</a>
</g>
</g>
<!-- Node1&#45;&gt;Node4 -->
<g id="edge3_Node000001_Node000004" class="edge">
<title>Node1&#45;&gt;Node4</title>
<g id="a_edge3_Node000001_Node000004"><a xlink:title=" ">
<path fill="none" stroke="#63b8ff" d="M251.68,-74.91C243.14,-74.17 234.62,-73.43 226.23,-72.71"/>
<polygon fill="#63b8ff" stroke="#63b8ff" points="251.42,-78.4 261.69,-75.77 252.03,-71.42 251.42,-78.4"/>
</a>
</g>
</g>
<!-- Node5 -->
<g id="Node000005" class="node">
<title>Node5</title>
<g id="a_Node000005"><a xlink:href="classcom_1_1teragrep_1_1cfe__16_1_1service_1_1HECServiceImpl.html#a9ed9a0d5772181625f00edce5a2c611d" target="_top" xlink:title="Returns the JSON object as a response of given HTTP event request.">
<polygon fill="white" stroke="#666666" points="192,-30 34,-30 34,0 192,0 192,-30"/>
<text text-anchor="start" x="42" y="-18" font-family="Helvetica,sans-Serif" font-size="10.00">com.teragrep.cfe_16.service.</text>
<text text-anchor="middle" x="113" y="-7" font-family="Helvetica,sans-Serif" font-size="10.00">HECServiceImpl.sendEvents</text>
</a>
</g>
</g>
<!-- Node1&#45;&gt;Node5 -->
<g id="edge4_Node000001_Node000005" class="edge">
<title>Node1&#45;&gt;Node5</title>
<g id="a_edge4_Node000001_Node000005"><a xlink:title=" ">
<path fill="none" stroke="#63b8ff" d="M332.93,-68.91C301.39,-59.45 261.73,-48 226,-39 213.66,-35.89 200.49,-32.84 187.67,-30.01"/>
<polygon fill="#63b8ff" stroke="#63b8ff" points="332.28,-72.37 342.87,-71.91 334.3,-65.67 332.28,-72.37"/>
</a>
</g>
</g>
</g>
</svg>
