<?xml version="1.0" encoding="UTF-8" standalone="no"?>
<!DOCTYPE svg PUBLIC "-//W3C//DTD SVG 1.1//EN"
 "http://www.w3.org/Graphics/SVG/1.1/DTD/svg11.dtd">
<!-- Generated by graphviz version 2.43.0 (0)
 -->
<!-- Title: com.teragrep.cfe_16.bo.HeaderInfo.asSDElement Pages: 1 -->
<svg width="410pt" height="370pt"
 viewBox="0.00 0.00 410.00 369.50" xmlns="http://www.w3.org/2000/svg" xmlns:xlink="http://www.w3.org/1999/xlink">
<g id="graph0" class="graph" transform="scale(1 1) rotate(0) translate(4 365.5)">
<title>com.teragrep.cfe_16.bo.HeaderInfo.asSDElement</title>
<!-- Node1 -->
<g id="Node000001" class="node">
<title>Node1</title>
<g id="a_Node000001"><a xlink:title=" ">
<polygon fill="#999999" stroke="#666666" points="170,-228 0,-228 0,-198 170,-198 170,-228"/>
<text text-anchor="start" x="8" y="-216" font-family="Helvetica,sans-Serif" font-size="10.00">com.teragrep.cfe_16.bo.Header</text>
<text text-anchor="middle" x="85" y="-205" font-family="Helvetica,sans-Serif" font-size="10.00">Info.asSDElement</text>
</a>
</g>
</g>
<!-- Node2 -->
<g id="Node000002" class="node">
<title>Node2</title>
<g id="a_Node000002"><a xlink:href="interfacecom_1_1teragrep_1_1cfe__16_1_1Stubable.html#a8e854db1814eeb807cd9049776c33923" target="_top" xlink:title=" ">
<polygon fill="white" stroke="#666666" points="402,-361.5 206,-361.5 206,-342.5 402,-342.5 402,-361.5"/>
<text text-anchor="middle" x="304" y="-349.5" font-family="Helvetica,sans-Serif" font-size="10.00">com.teragrep.cfe_16.Stubable.isStub</text>
</a>
</g>
</g>
<!-- Node1&#45;&gt;Node2 -->
<g id="edge1_Node000001_Node000002" class="edge">
<title>Node1&#45;&gt;Node2</title>
<g id="a_edge1_Node000001_Node000002"><a xlink:title=" ">
<path fill="none" stroke="#63b8ff" d="M96.55,-228.39C115.31,-254.45 157.11,-306.96 206,-333 210.48,-335.38 215.21,-337.47 220.09,-339.3"/>
<polygon fill="#63b8ff" stroke="#63b8ff" points="219.01,-342.63 229.6,-342.5 221.24,-335.99 219.01,-342.63"/>
</a>
</g>
</g>
<!-- Node3 -->
<g id="Node000003" class="node">
<title>Node3</title>
<g id="a_Node000003"><a xlink:href="interfacecom_1_1teragrep_1_1cfe__16_1_1bo_1_1XForwardedFor.html#a113b5e3c48eba97ef47b0dbcb64ef592" target="_top" xlink:title=" ">
<polygon fill="white" stroke="#666666" points="400.5,-324 207.5,-324 207.5,-294 400.5,-294 400.5,-324"/>
<text text-anchor="start" x="215.5" y="-312" font-family="Helvetica,sans-Serif" font-size="10.00">com.teragrep.cfe_16.bo.XForwarded</text>
<text text-anchor="middle" x="304" y="-301" font-family="Helvetica,sans-Serif" font-size="10.00">For.value</text>
</a>
</g>
</g>
<!-- Node1&#45;&gt;Node3 -->
<g id="edge2_Node000001_Node000003" class="edge">
<title>Node1&#45;&gt;Node3</title>
<g id="a_edge2_Node000001_Node000003"><a xlink:title=" ">
<path fill="none" stroke="#63b8ff" d="M106.66,-228.03C129.81,-244.22 168.95,-269.7 206,-285 211.11,-287.11 216.45,-289.07 221.89,-290.88"/>
<polygon fill="#63b8ff" stroke="#63b8ff" points="221.16,-294.31 231.75,-293.97 223.26,-287.64 221.16,-294.31"/>
</a>
</g>
</g>
<!-- Node4 -->
<g id="Node000004" class="node">
<title>Node4</title>
<g id="a_Node000004"><a xlink:href="interfacecom_1_1teragrep_1_1cfe__16_1_1bo_1_1XForwardedHost.html#af36e894a4b77acf609737e584479e182" target="_top" xlink:title=" ">
<polygon fill="white" stroke="#666666" points="400.5,-276 207.5,-276 207.5,-246 400.5,-246 400.5,-276"/>
<text text-anchor="start" x="215.5" y="-264" font-family="Helvetica,sans-Serif" font-size="10.00">com.teragrep.cfe_16.bo.XForwarded</text>
<text text-anchor="middle" x="304" y="-253" font-family="Helvetica,sans-Serif" font-size="10.00">Host.value</text>
</a>
</g>
</g>
<!-- Node1&#45;&gt;Node4 -->
<g id="edge3_Node000001_Node000004" class="edge">
<title>Node1&#45;&gt;Node4</title>
<g id="a_edge3_Node000001_Node000004"><a xlink:title=" ">
<path fill="none" stroke="#63b8ff" d="M154.06,-228.06C176.69,-233.06 202.04,-238.67 225.34,-243.82"/>
<polygon fill="#63b8ff" stroke="#63b8ff" points="224.66,-247.26 235.18,-246 226.17,-240.42 224.66,-247.26"/>
</a>
</g>
</g>
<!-- Node5 -->
<g id="Node000005" class="node">
<title>Node5</title>
<g id="a_Node000005"><a xlink:href="interfacecom_1_1teragrep_1_1cfe__16_1_1bo_1_1XForwardedProto.html#a43d7fb30c973c1c89906b9ac3b928e06" target="_top" xlink:title=" ">
<polygon fill="white" stroke="#666666" points="400.5,-228 207.5,-228 207.5,-198 400.5,-198 400.5,-228"/>
<text text-anchor="start" x="215.5" y="-216" font-family="Helvetica,sans-Serif" font-size="10.00">com.teragrep.cfe_16.bo.XForwarded</text>
<text text-anchor="middle" x="304" y="-205" font-family="Helvetica,sans-Serif" font-size="10.00">Proto.value</text>
</a>
</g>
</g>
<!-- Node1&#45;&gt;Node5 -->
<g id="edge4_Node000001_Node000005" class="edge">
<title>Node1&#45;&gt;Node5</title>
<g id="a_edge4_Node000001_Node000005"><a xlink:title=" ">
<path fill="none" stroke="#63b8ff" d="M170.21,-213C179.04,-213 188.09,-213 197.12,-213"/>
<polygon fill="#63b8ff" stroke="#63b8ff" points="197.3,-216.5 207.3,-213 197.3,-209.5 197.3,-216.5"/>
</a>
</g>
</g>
<!-- Node6 -->
<g id="Node000006" class="node">
<title>Node6</title>
<g id="a_Node000006"><a xlink:href="classcom_1_1teragrep_1_1cfe__16_1_1bo_1_1HeaderInfo.html#ad8923eda4b1a0fe860d17ad929d0e441" target="_top" xlink:title=" ">
<polygon fill="white" stroke="#666666" points="389,-162 219,-162 219,-132 389,-132 389,-162"/>
<text text-anchor="start" x="227" y="-150" font-family="Helvetica,sans-Serif" font-size="10.00">com.teragrep.cfe_16.bo.Header</text>
<text text-anchor="middle" x="304" y="-139" font-family="Helvetica,sans-Serif" font-size="10.00">Info.xForwardedFor</text>
</a>
</g>
</g>
<!-- Node1&#45;&gt;Node6 -->
<g id="edge5_Node000001_Node000006" class="edge">
<title>Node1&#45;&gt;Node6</title>
<g id="a_edge5_Node000001_Node000006"><a xlink:title=" ">
<path fill="none" stroke="#63b8ff" d="M135.51,-197.94C167.62,-188.18 209.62,-175.4 243.54,-165.09"/>
<polygon fill="#63b8ff" stroke="#63b8ff" points="244.78,-168.37 253.33,-162.11 242.74,-161.67 244.78,-168.37"/>
</a>
</g>
</g>
<!-- Node7 -->
<g id="Node000007" class="node">
<title>Node7</title>
<g id="a_Node000007"><a xlink:href="classcom_1_1teragrep_1_1cfe__16_1_1bo_1_1HeaderInfo.html#a6140b9deaef2be853bab04cbd2757adf" target="_top" xlink:title=" ">
<polygon fill="white" stroke="#666666" points="389,-96 219,-96 219,-66 389,-66 389,-96"/>
<text text-anchor="start" x="227" y="-84" font-family="Helvetica,sans-Serif" font-size="10.00">com.teragrep.cfe_16.bo.Header</text>
<text text-anchor="middle" x="304" y="-73" font-family="Helvetica,sans-Serif" font-size="10.00">Info.xForwardedHost</text>
</a>
</g>
</g>
<!-- Node1&#45;&gt;Node7 -->
<g id="edge7_Node000001_Node000007" class="edge">
<title>Node1&#45;&gt;Node7</title>
<g id="a_edge7_Node000001_Node000007"><a xlink:title=" ">
<path fill="none" stroke="#63b8ff" d="M103.38,-197.89C125.93,-178.77 167.04,-145.62 206,-123 220.72,-114.45 237.51,-106.59 252.93,-100.03"/>
<polygon fill="#63b8ff" stroke="#63b8ff" points="254.44,-103.19 262.33,-96.12 251.75,-96.73 254.44,-103.19"/>
</a>
</g>
</g>
<!-- Node8 -->
<g id="Node000008" class="node">
<title>Node8</title>
<g id="a_Node000008"><a xlink:href="classcom_1_1teragrep_1_1cfe__16_1_1bo_1_1HeaderInfo.html#a047f093c1dfb35af9698976facc84233" target="_top" xlink:title=" ">
<polygon fill="white" stroke="#666666" points="389,-30 219,-30 219,0 389,0 389,-30"/>
<text text-anchor="start" x="227" y="-18" font-family="Helvetica,sans-Serif" font-size="10.00">com.teragrep.cfe_16.bo.Header</text>
<text text-anchor="middle" x="304" y="-7" font-family="Helvetica,sans-Serif" font-size="10.00">Info.xForwardedProto</text>
</a>
</g>
</g>
<!-- Node1&#45;&gt;Node8 -->
<g id="edge9_Node000001_Node000008" class="edge">
<title>Node1&#45;&gt;Node8</title>
<g id="a_edge9_Node000001_Node000008"><a xlink:title=" ">
<path fill="none" stroke="#63b8ff" d="M94.24,-197.62C111.33,-167.03 153.44,-97.95 206,-57 217.88,-47.74 232.11,-40.11 245.96,-34"/>
<polygon fill="#63b8ff" stroke="#63b8ff" points="247.59,-37.11 255.46,-30.02 244.89,-30.66 247.59,-37.11"/>
</a>
</g>
</g>
<!-- Node6&#45;&gt;Node6 -->
<g id="edge6_Node000006_Node000006" class="edge">
<title>Node6&#45;&gt;Node6</title>
<g id="a_edge6_Node000006_Node000006"><a xlink:title=" ">
<path fill="none" stroke="#63b8ff" d="M265.68,-162.28C257.16,-171.41 269.94,-180 304,-180 324.22,-180 336.94,-176.97 342.16,-172.6"/>
<polygon fill="#63b8ff" stroke="#63b8ff" points="345.66,-172.33 342.32,-162.28 338.66,-172.22 345.66,-172.33"/>
</a>
</g>
</g>
<!-- Node7&#45;&gt;Node7 -->
<g id="edge8_Node000007_Node000007" class="edge">
<title>Node7&#45;&gt;Node7</title>
<g id="a_edge8_Node000007_Node000007"><a xlink:title=" ">
<path fill="none" stroke="#63b8ff" d="M265.68,-96.28C257.16,-105.41 269.94,-114 304,-114 324.22,-114 336.94,-110.97 342.16,-106.6"/>
<polygon fill="#63b8ff" stroke="#63b8ff" points="345.66,-106.33 342.32,-96.28 338.66,-106.22 345.66,-106.33"/>
</a>
</g>
</g>
<!-- Node8&#45;&gt;Node8 -->
<g id="edge10_Node000008_Node000008" class="edge">
<title>Node8&#45;&gt;Node8</title>
<g id="a_edge10_Node000008_Node000008"><a xlink:title=" ">
<path fill="none" stroke="#63b8ff" d="M265.68,-30.28C257.16,-39.41 269.94,-48 304,-48 324.22,-48 336.94,-44.97 342.16,-40.6"/>
<polygon fill="#63b8ff" stroke="#63b8ff" points="345.66,-40.33 342.32,-30.28 338.66,-40.22 345.66,-40.33"/>
</a>
</g>
</g>
</g>
</svg>
