<?xml version="1.0" encoding="UTF-8" standalone="no"?>
<!DOCTYPE svg PUBLIC "-//W3C//DTD SVG 1.1//EN"
 "http://www.w3.org/Graphics/SVG/1.1/DTD/svg11.dtd">
<!-- Generated by graphviz version 2.43.0 (0)
 -->
<!-- Title: com.teragrep.cfe_16.event.time.HECTimeImpl.isParsed Pages: 1 -->
<svg width="371pt" height="86pt"
 viewBox="0.00 0.00 371.00 86.00" xmlns="http://www.w3.org/2000/svg" xmlns:xlink="http://www.w3.org/1999/xlink">
<g id="graph0" class="graph" transform="scale(1 1) rotate(0) translate(4 82)">
<title>com.teragrep.cfe_16.event.time.HECTimeImpl.isParsed</title>
<!-- Node1 -->
<g id="Node000001" class="node">
<title>Node1</title>
<g id="a_Node000001"><a xlink:title=" ">
<polygon fill="#999999" stroke="#666666" points="176,-54 0,-54 0,-24 176,-24 176,-54"/>
<text text-anchor="start" x="8" y="-42" font-family="Helvetica,sans-Serif" font-size="10.00">com.teragrep.cfe_16.event.time.</text>
<text text-anchor="middle" x="88" y="-31" font-family="Helvetica,sans-Serif" font-size="10.00">HECTimeImpl.isParsed</text>
</a>
</g>
</g>
<!-- Node2 -->
<g id="Node000002" class="node">
<title>Node2</title>
<g id="a_Node000002"><a xlink:href="interfacecom_1_1teragrep_1_1cfe__16_1_1event_1_1JsonEvent.html#a288d2f741c18567688e748e97d63e702" target="_top" xlink:title=" ">
<polygon fill="white" stroke="#666666" points="363,-78 212,-78 212,-48 363,-48 363,-78"/>
<text text-anchor="start" x="220" y="-66" font-family="Helvetica,sans-Serif" font-size="10.00">com.teragrep.cfe_16.event.</text>
<text text-anchor="middle" x="287.5" y="-55" font-family="Helvetica,sans-Serif" font-size="10.00">JsonEvent.asTimeJsonNode</text>
</a>
</g>
</g>
<!-- Node1&#45;&gt;Node2 -->
<g id="edge1_Node000001_Node000002" class="edge">
<title>Node1&#45;&gt;Node2</title>
<g id="a_edge1_Node000001_Node000002"><a xlink:title=" ">
<path fill="none" stroke="#63b8ff" d="M176.2,-49.6C184.65,-50.62 193.21,-51.66 201.64,-52.69"/>
<polygon fill="#63b8ff" stroke="#63b8ff" points="201.48,-56.19 211.83,-53.93 202.32,-49.25 201.48,-56.19"/>
</a>
</g>
</g>
<!-- Node3 -->
<g id="Node000003" class="node">
<title>Node3</title>
<g id="a_Node000003"><a xlink:href="interfacecom_1_1teragrep_1_1cfe__16_1_1event_1_1JsonEvent.html#a439225059ec04496519dc5820e11428d" target="_top" xlink:title=" ">
<polygon fill="white" stroke="#666666" points="363,-30 212,-30 212,0 363,0 363,-30"/>
<text text-anchor="start" x="220" y="-18" font-family="Helvetica,sans-Serif" font-size="10.00">com.teragrep.cfe_16.event.</text>
<text text-anchor="middle" x="287.5" y="-7" font-family="Helvetica,sans-Serif" font-size="10.00">JsonEvent.hasTime</text>
</a>
</g>
</g>
<!-- Node1&#45;&gt;Node3 -->
<g id="edge2_Node000001_Node000003" class="edge">
<title>Node1&#45;&gt;Node3</title>
<g id="a_edge2_Node000001_Node000003"><a xlink:title=" ">
<path fill="none" stroke="#63b8ff" d="M176.2,-28.4C184.65,-27.38 193.21,-26.34 201.64,-25.31"/>
<polygon fill="#63b8ff" stroke="#63b8ff" points="202.32,-28.75 211.83,-24.07 201.48,-21.81 202.32,-28.75"/>
</a>
</g>
</g>
</g>
</svg>
