<?xml version="1.0" encoding="UTF-8" standalone="no"?>
<!DOCTYPE svg PUBLIC "-//W3C//DTD SVG 1.1//EN"
 "http://www.w3.org/Graphics/SVG/1.1/DTD/svg11.dtd">
<!-- Generated by graphviz version 2.43.0 (0)
 -->
<!-- Title: com.teragrep.cfe_16.event.EventMessage Pages: 1 -->
<svg width="545pt" height="86pt"
 viewBox="0.00 0.00 545.00 86.00" xmlns="http://www.w3.org/2000/svg" xmlns:xlink="http://www.w3.org/1999/xlink">
<g id="graph0" class="graph" transform="scale(1 1) rotate(0) translate(4 82)">
<title>com.teragrep.cfe_16.event.EventMessage</title>
<!-- Node1 -->
<g id="Node000001" class="node">
<title>Node1</title>
<g id="a_Node000001"><a xlink:title="Interface for objects that work with the Event (message)">
<polygon fill="#999999" stroke="#666666" points="350,-54 199,-54 199,-24 350,-24 350,-54"/>
<text text-anchor="start" x="207" y="-42" font-family="Helvetica,sans-Serif" font-size="10.00">com.teragrep.cfe_16.event.</text>
<text text-anchor="middle" x="274.5" y="-31" font-family="Helvetica,sans-Serif" font-size="10.00">EventMessage</text>
</a>
</g>
</g>
<!-- Node3 -->
<g id="Node000003" class="node">
<title>Node3</title>
<g id="a_Node000003"><a xlink:href="classcom_1_1teragrep_1_1cfe__16_1_1event_1_1EventMessageImpl.html" target="_top" xlink:title=" ">
<polygon fill="white" stroke="#666666" points="537,-78 386,-78 386,-48 537,-48 537,-78"/>
<text text-anchor="start" x="394" y="-66" font-family="Helvetica,sans-Serif" font-size="10.00">com.teragrep.cfe_16.event.</text>
<text text-anchor="middle" x="461.5" y="-55" font-family="Helvetica,sans-Serif" font-size="10.00">EventMessageImpl</text>
</a>
</g>
</g>
<!-- Node1&#45;&gt;Node3 -->
<g id="edge2_Node000001_Node000003" class="edge">
<title>Node1&#45;&gt;Node3</title>
<g id="a_edge2_Node000001_Node000003"><a xlink:title=" ">
<path fill="none" stroke="#63b8ff" d="M360.19,-49.99C368.74,-51.1 377.38,-52.22 385.81,-53.31"/>
<polygon fill="#63b8ff" stroke="#63b8ff" points="360.58,-46.51 350.21,-48.69 359.68,-53.45 360.58,-46.51"/>
</a>
</g>
</g>
<!-- Node4 -->
<g id="Node000004" class="node">
<title>Node4</title>
<g id="a_Node000004"><a xlink:href="classcom_1_1teragrep_1_1cfe__16_1_1event_1_1EventMessageStub.html" target="_top" xlink:title=" ">
<polygon fill="white" stroke="#666666" points="537,-30 386,-30 386,0 537,0 537,-30"/>
<text text-anchor="start" x="394" y="-18" font-family="Helvetica,sans-Serif" font-size="10.00">com.teragrep.cfe_16.event.</text>
<text text-anchor="middle" x="461.5" y="-7" font-family="Helvetica,sans-Serif" font-size="10.00">EventMessageStub</text>
</a>
</g>
</g>
<!-- Node1&#45;&gt;Node4 -->
<g id="edge3_Node000001_Node000004" class="edge">
<title>Node1&#45;&gt;Node4</title>
<g id="a_edge3_Node000001_Node000004"><a xlink:title=" ">
<path fill="none" stroke="#63b8ff" d="M360.19,-28.01C368.74,-26.9 377.38,-25.78 385.81,-24.69"/>
<polygon fill="#63b8ff" stroke="#63b8ff" points="359.68,-24.55 350.21,-29.31 360.58,-31.49 359.68,-24.55"/>
</a>
</g>
</g>
<!-- Node2 -->
<g id="Node000002" class="node">
<title>Node2</title>
<g id="a_Node000002"><a xlink:href="interfacecom_1_1teragrep_1_1cfe__16_1_1Stubable.html" target="_top" xlink:title=" ">
<polygon fill="white" stroke="#666666" points="163,-48.5 0,-48.5 0,-29.5 163,-29.5 163,-48.5"/>
<text text-anchor="middle" x="81.5" y="-36.5" font-family="Helvetica,sans-Serif" font-size="10.00">com.teragrep.cfe_16.Stubable</text>
</a>
</g>
</g>
<!-- Node2&#45;&gt;Node1 -->
<g id="edge1_Node000001_Node000002" class="edge">
<title>Node2&#45;&gt;Node1</title>
<g id="a_edge1_Node000001_Node000002"><a xlink:title=" ">
<path fill="none" stroke="#63b8ff" d="M173.25,-39C181.82,-39 190.44,-39 198.84,-39"/>
<polygon fill="#63b8ff" stroke="#63b8ff" points="173.22,-35.5 163.22,-39 173.22,-42.5 173.22,-35.5"/>
</a>
</g>
</g>
</g>
</svg>
