<?xml version="1.0" encoding="UTF-8" standalone="no"?>
<!DOCTYPE svg PUBLIC "-//W3C//DTD SVG 1.1//EN"
 "http://www.w3.org/Graphics/SVG/1.1/DTD/svg11.dtd">
<!-- Generated by graphviz version 2.43.0 (0)
 -->
<!-- Title: com.teragrep.cfe_16.SessionManagerTests Pages: 1 -->
<svg width="226pt" height="182pt"
 viewBox="0.00 0.00 226.00 182.00" xmlns="http://www.w3.org/2000/svg" xmlns:xlink="http://www.w3.org/1999/xlink">
<g id="graph0" class="graph" transform="scale(1 1) rotate(0) translate(4 178)">
<title>com.teragrep.cfe_16.SessionManagerTests</title>
<!-- Node1 -->
<g id="Node000001" class="node">
<title>Node1</title>
<g id="a_Node000001"><a xlink:title=" ">
<polygon fill="#999999" stroke="#666666" points="169,-30 11,-30 11,0 169,0 169,-30"/>
<text text-anchor="start" x="19" y="-18" font-family="Helvetica,sans-Serif" font-size="10.00">com.teragrep.cfe_16.Session</text>
<text text-anchor="middle" x="90" y="-7" font-family="Helvetica,sans-Serif" font-size="10.00">ManagerTests</text>
</a>
</g>
</g>
<!-- Node2 -->
<g id="Node000002" class="node">
<title>Node2</title>
<g id="a_Node000002"><a xlink:href="classcom_1_1teragrep_1_1cfe__16_1_1SessionManager.html" target="_top" xlink:title=" ">
<polygon fill="white" stroke="#666666" points="169,-107 11,-107 11,-77 169,-77 169,-107"/>
<text text-anchor="start" x="19" y="-95" font-family="Helvetica,sans-Serif" font-size="10.00">com.teragrep.cfe_16.Session</text>
<text text-anchor="middle" x="90" y="-84" font-family="Helvetica,sans-Serif" font-size="10.00">Manager</text>
</a>
</g>
</g>
<!-- Node2&#45;&gt;Node1 -->
<g id="edge1_Node000001_Node000002" class="edge">
<title>Node2&#45;&gt;Node1</title>
<g id="a_edge1_Node000001_Node000002"><a xlink:title=" ">
<path fill="none" stroke="#9a32cd" stroke-dasharray="5,2" d="M90,-66.54C90,-54.45 90,-40.29 90,-30.04"/>
<polygon fill="#9a32cd" stroke="#9a32cd" points="86.5,-66.89 90,-76.89 93.5,-66.89 86.5,-66.89"/>
</a>
</g>
<text text-anchor="middle" x="131.5" y="-51" font-family="Helvetica,sans-Serif" font-size="10.00" fill="grey"> sessionManager</text>
</g>
<!-- Node3 -->
<g id="Node000003" class="node">
<title>Node3</title>
<g id="a_Node000003"><a xlink:title=" ">
<polygon fill="white" stroke="#666666" points="62,-168.5 0,-168.5 0,-149.5 62,-149.5 62,-168.5"/>
<text text-anchor="middle" x="31" y="-156.5" font-family="Helvetica,sans-Serif" font-size="10.00">Runnable</text>
</a>
</g>
</g>
<!-- Node3&#45;&gt;Node2 -->
<g id="edge2_Node000002_Node000003" class="edge">
<title>Node3&#45;&gt;Node2</title>
<g id="a_edge2_Node000002_Node000003"><a xlink:title=" ">
<path fill="none" stroke="#63b8ff" d="M45.7,-141.8C55.39,-131.13 67.94,-117.3 77.21,-107.09"/>
<polygon fill="#63b8ff" stroke="#63b8ff" points="43.09,-139.48 38.96,-149.23 48.27,-144.18 43.09,-139.48"/>
</a>
</g>
</g>
<!-- Node4 -->
<g id="Node000004" class="node">
<title>Node4</title>
<g id="a_Node000004"><a xlink:href="interfacecom_1_1teragrep_1_1cfe__16_1_1LifeCycle.html" target="_top" xlink:title="An interface that own resources like threads for doing graceful shutdown.">
<polygon fill="white" stroke="#666666" points="218,-174 80,-174 80,-144 218,-144 218,-174"/>
<text text-anchor="start" x="88" y="-162" font-family="Helvetica,sans-Serif" font-size="10.00">com.teragrep.cfe_16.Life</text>
<text text-anchor="middle" x="149" y="-151" font-family="Helvetica,sans-Serif" font-size="10.00">Cycle</text>
</a>
</g>
</g>
<!-- Node4&#45;&gt;Node2 -->
<g id="edge3_Node000002_Node000004" class="edge">
<title>Node4&#45;&gt;Node2</title>
<g id="a_edge3_Node000002_Node000004"><a xlink:title=" ">
<path fill="none" stroke="#63b8ff" d="M129.25,-136.24C120.52,-126.62 110.5,-115.59 102.78,-107.08"/>
<polygon fill="#63b8ff" stroke="#63b8ff" points="126.89,-138.84 136.2,-143.9 132.07,-134.14 126.89,-138.84"/>
</a>
</g>
</g>
</g>
</svg>
