<?xml version="1.0" encoding="UTF-8" standalone="no"?>
<!DOCTYPE svg PUBLIC "-//W3C//DTD SVG 1.1//EN"
 "http://www.w3.org/Graphics/SVG/1.1/DTD/svg11.dtd">
<!-- Generated by graphviz version 2.43.0 (0)
 -->
<!-- Title: com.teragrep.cfe_16.server.TestServer Pages: 1 -->
<svg width="176pt" height="93pt"
 viewBox="0.00 0.00 175.50 93.00" xmlns="http://www.w3.org/2000/svg" xmlns:xlink="http://www.w3.org/1999/xlink">
<g id="graph0" class="graph" transform="scale(1 1) rotate(0) translate(4 89)">
<title>com.teragrep.cfe_16.server.TestServer</title>
<!-- Node1 -->
<g id="Node000001" class="node">
<title>Node1</title>
<g id="a_Node000001"><a xlink:title=" ">
<polygon fill="#999999" stroke="#666666" points="153.5,-30 0.5,-30 0.5,0 153.5,0 153.5,-30"/>
<text text-anchor="start" x="8.5" y="-18" font-family="Helvetica,sans-Serif" font-size="10.00">com.teragrep.cfe_16.server.</text>
<text text-anchor="middle" x="77" y="-7" font-family="Helvetica,sans-Serif" font-size="10.00">TestServer</text>
</a>
</g>
</g>
<!-- Node2 -->
<g id="Node000002" class="node">
<title>Node2</title>
<g id="a_Node000002"><a xlink:title=" ">
<polygon fill="white" stroke="#666666" points="62,-85 0,-85 0,-66 62,-66 62,-85"/>
<text text-anchor="middle" x="31" y="-73" font-family="Helvetica,sans-Serif" font-size="10.00">Runnable</text>
</a>
</g>
</g>
<!-- Node2&#45;&gt;Node1 -->
<g id="edge1_Node000001_Node000002" class="edge">
<title>Node2&#45;&gt;Node1</title>
<g id="a_edge1_Node000001_Node000002"><a xlink:title=" ">
<path fill="none" stroke="#63b8ff" d="M44.07,-57.88C50.96,-49.11 59.33,-38.48 65.9,-30.11"/>
<polygon fill="#63b8ff" stroke="#63b8ff" points="41.22,-55.84 37.79,-65.87 46.72,-60.17 41.22,-55.84"/>
</a>
</g>
</g>
<!-- Node3 -->
<g id="Node000003" class="node">
<title>Node3</title>
<g id="a_Node000003"><a xlink:title=" ">
<polygon fill="white" stroke="#666666" points="167.5,-85 80.5,-85 80.5,-66 167.5,-66 167.5,-85"/>
<text text-anchor="middle" x="124" y="-73" font-family="Helvetica,sans-Serif" font-size="10.00">AutoCloseable</text>
</a>
</g>
</g>
<!-- Node3&#45;&gt;Node1 -->
<g id="edge2_Node000001_Node000003" class="edge">
<title>Node3&#45;&gt;Node1</title>
<g id="a_edge2_Node000001_Node000003"><a xlink:title=" ">
<path fill="none" stroke="#63b8ff" d="M110.65,-57.88C103.61,-49.11 95.06,-38.48 88.34,-30.11"/>
<polygon fill="#63b8ff" stroke="#63b8ff" points="108.07,-60.26 117.06,-65.87 113.53,-55.88 108.07,-60.26"/>
</a>
</g>
</g>
</g>
</svg>
