<?xml version="1.0" encoding="UTF-8" standalone="no"?>
<!DOCTYPE svg PUBLIC "-//W3C//DTD SVG 1.1//EN"
 "http://www.w3.org/Graphics/SVG/1.1/DTD/svg11.dtd">
<!-- Generated by graphviz version 2.43.0 (0)
 -->
<!-- Title: com.teragrep.cfe_16.event.time.HECTimeImplWithFallback Pages: 1 -->
<svg width="184pt" height="182pt"
 viewBox="0.00 0.00 184.00 182.00" xmlns="http://www.w3.org/2000/svg" xmlns:xlink="http://www.w3.org/1999/xlink">
<g id="graph0" class="graph" transform="scale(1 1) rotate(0) translate(4 178)">
<title>com.teragrep.cfe_16.event.time.HECTimeImplWithFallback</title>
<!-- Node1 -->
<g id="Node000001" class="node">
<title>Node1</title>
<g id="a_Node000001"><a xlink:title=" ">
<polygon fill="#999999" stroke="#666666" points="176,-30 0,-30 0,0 176,0 176,-30"/>
<text text-anchor="start" x="8" y="-18" font-family="Helvetica,sans-Serif" font-size="10.00">com.teragrep.cfe_16.event.time.</text>
<text text-anchor="middle" x="88" y="-7" font-family="Helvetica,sans-Serif" font-size="10.00">HECTimeImplWithFallback</text>
</a>
</g>
</g>
<!-- Node2 -->
<g id="Node000002" class="node">
<title>Node2</title>
<g id="a_Node000002"><a xlink:href="interfacecom_1_1teragrep_1_1cfe__16_1_1event_1_1time_1_1HECTime.html" target="_top" xlink:title=" ">
<polygon fill="white" stroke="#666666" points="176,-118 0,-118 0,-88 176,-88 176,-118"/>
<text text-anchor="start" x="8" y="-106" font-family="Helvetica,sans-Serif" font-size="10.00">com.teragrep.cfe_16.event.time.</text>
<text text-anchor="middle" x="88" y="-95" font-family="Helvetica,sans-Serif" font-size="10.00">HECTime</text>
</a>
</g>
</g>
<!-- Node2&#45;&gt;Node1 -->
<g id="edge1_Node000001_Node000002" class="edge">
<title>Node2&#45;&gt;Node1</title>
<g id="a_edge1_Node000001_Node000002"><a xlink:title=" ">
<path fill="none" stroke="#63b8ff" d="M86.34,-77.96C86.2,-75.28 86.08,-72.58 86,-70 85.69,-60.23 85.69,-57.77 86,-48 86.18,-42.1 86.56,-35.6 86.93,-30.01"/>
<polygon fill="#63b8ff" stroke="#63b8ff" points="82.84,-78.22 86.93,-87.99 89.83,-77.8 82.84,-78.22"/>
</a>
</g>
</g>
<!-- Node2&#45;&gt;Node1 -->
<g id="edge3_Node000001_Node000002" class="edge">
<title>Node2&#45;&gt;Node1</title>
<g id="a_edge3_Node000001_Node000002"><a xlink:title=" ">
<path fill="none" stroke="#9a32cd" stroke-dasharray="5,2" d="M88,-77.49C88,-62.2 88,-43.05 88,-30.22"/>
<polygon fill="#9a32cd" stroke="#9a32cd" points="84.5,-77.8 88,-87.8 91.5,-77.8 84.5,-77.8"/>
</a>
</g>
<text text-anchor="middle" x="120" y="-62" font-family="Helvetica,sans-Serif" font-size="10.00" fill="grey"> currentTime</text>
<text text-anchor="middle" x="120" y="-51" font-family="Helvetica,sans-Serif" font-size="10.00" fill="grey">fallbackTime</text>
</g>
<!-- Node3 -->
<g id="Node000003" class="node">
<title>Node3</title>
<g id="a_Node000003"><a xlink:href="interfacecom_1_1teragrep_1_1cfe__16_1_1Stubable.html" target="_top" xlink:title=" ">
<polygon fill="white" stroke="#666666" points="169.5,-174 6.5,-174 6.5,-155 169.5,-155 169.5,-174"/>
<text text-anchor="middle" x="88" y="-162" font-family="Helvetica,sans-Serif" font-size="10.00">com.teragrep.cfe_16.Stubable</text>
</a>
</g>
</g>
<!-- Node3&#45;&gt;Node2 -->
<g id="edge2_Node000002_Node000003" class="edge">
<title>Node3&#45;&gt;Node2</title>
<g id="a_edge2_Node000002_Node000003"><a xlink:title=" ">
<path fill="none" stroke="#63b8ff" d="M88,-144.73C88,-136.09 88,-126 88,-118.02"/>
<polygon fill="#63b8ff" stroke="#63b8ff" points="84.5,-144.98 88,-154.98 91.5,-144.98 84.5,-144.98"/>
</a>
</g>
</g>
</g>
</svg>
