<?xml version="1.0" encoding="UTF-8" standalone="no"?>
<!DOCTYPE svg PUBLIC "-//W3C//DTD SVG 1.1//EN"
 "http://www.w3.org/Graphics/SVG/1.1/DTD/svg11.dtd">
<!-- Generated by graphviz version 2.43.0 (0)
 -->
<!-- Title: com.teragrep.cfe_16.bo.HECRecordImpl Pages: 1 -->
<svg width="1477pt" height="171pt"
 viewBox="0.00 0.00 1477.00 170.50" xmlns="http://www.w3.org/2000/svg" xmlns:xlink="http://www.w3.org/1999/xlink">
<g id="graph0" class="graph" transform="scale(1 1) rotate(0) translate(4 166.5)">
<title>com.teragrep.cfe_16.bo.HECRecordImpl</title>
<!-- Node1 -->
<g id="Node000001" class="node">
<title>Node1</title>
<g id="a_Node000001"><a xlink:title=" ">
<polygon fill="#999999" stroke="#666666" points="1469,-142.5 1258,-142.5 1258,-123.5 1469,-123.5 1469,-142.5"/>
<text text-anchor="middle" x="1363.5" y="-130.5" font-family="Helvetica,sans-Serif" font-size="10.00">com.teragrep.cfe_16.bo.HECRecordImpl</text>
</a>
</g>
</g>
<!-- Node2 -->
<g id="Node000002" class="node">
<title>Node2</title>
<g id="a_Node000002"><a xlink:href="interfacecom_1_1teragrep_1_1cfe__16_1_1bo_1_1HECRecord.html" target="_top" xlink:title=" ">
<polygon fill="white" stroke="#666666" points="622,-162.5 433,-162.5 433,-143.5 622,-143.5 622,-162.5"/>
<text text-anchor="middle" x="527.5" y="-150.5" font-family="Helvetica,sans-Serif" font-size="10.00">com.teragrep.cfe_16.bo.HECRecord</text>
</a>
</g>
</g>
<!-- Node2&#45;&gt;Node1 -->
<g id="edge1_Node000001_Node000002" class="edge">
<title>Node2&#45;&gt;Node1</title>
<g id="a_edge1_Node000001_Node000002"><a xlink:title=" ">
<path fill="none" stroke="#63b8ff" d="M632.47,-150.51C792.52,-146.67 1097.5,-139.35 1257.92,-135.51"/>
<polygon fill="#63b8ff" stroke="#63b8ff" points="632.06,-147.02 622.15,-150.75 632.23,-154.01 632.06,-147.02"/>
</a>
</g>
</g>
<!-- Node3 -->
<g id="Node000003" class="node">
<title>Node3</title>
<g id="a_Node000003"><a xlink:href="interfacecom_1_1teragrep_1_1cfe__16_1_1Stubable.html" target="_top" xlink:title=" ">
<polygon fill="white" stroke="#666666" points="163,-100.5 0,-100.5 0,-81.5 163,-81.5 163,-100.5"/>
<text text-anchor="middle" x="81.5" y="-88.5" font-family="Helvetica,sans-Serif" font-size="10.00">com.teragrep.cfe_16.Stubable</text>
</a>
</g>
</g>
<!-- Node3&#45;&gt;Node2 -->
<g id="edge2_Node000002_Node000003" class="edge">
<title>Node3&#45;&gt;Node2</title>
<g id="a_edge2_Node000002_Node000003"><a xlink:title=" ">
<path fill="none" stroke="#63b8ff" d="M116.98,-104.15C140.12,-112.4 171.46,-122.49 200,-128 277.59,-142.98 367.18,-149.06 432.86,-151.5"/>
<polygon fill="#63b8ff" stroke="#63b8ff" points="117.88,-100.76 107.28,-100.63 115.49,-107.33 117.88,-100.76"/>
</a>
</g>
</g>
<!-- Node6 -->
<g id="Node000006" class="node">
<title>Node6</title>
<g id="a_Node000006"><a xlink:href="interfacecom_1_1teragrep_1_1cfe__16_1_1bo_1_1XForwardedFor.html" target="_top" xlink:title=" ">
<polygon fill="white" stroke="#666666" points="411.5,-118.5 203.5,-118.5 203.5,-99.5 411.5,-99.5 411.5,-118.5"/>
<text text-anchor="middle" x="307.5" y="-106.5" font-family="Helvetica,sans-Serif" font-size="10.00">com.teragrep.cfe_16.bo.XForwardedFor</text>
</a>
</g>
</g>
<!-- Node3&#45;&gt;Node6 -->
<g id="edge6_Node000006_Node000003" class="edge">
<title>Node3&#45;&gt;Node6</title>
<g id="a_edge6_Node000006_Node000003"><a xlink:title=" ">
<path fill="none" stroke="#63b8ff" d="M173.25,-98.29C183.13,-99.09 193.24,-99.9 203.25,-100.7"/>
<polygon fill="#63b8ff" stroke="#63b8ff" points="173.3,-94.79 163.05,-97.47 172.74,-101.76 173.3,-94.79"/>
</a>
</g>
</g>
<!-- Node8 -->
<g id="Node000008" class="node">
<title>Node8</title>
<g id="a_Node000008"><a xlink:href="interfacecom_1_1teragrep_1_1cfe__16_1_1bo_1_1XForwardedHost.html" target="_top" xlink:title=" ">
<polygon fill="white" stroke="#666666" points="415,-78.5 200,-78.5 200,-59.5 415,-59.5 415,-78.5"/>
<text text-anchor="middle" x="307.5" y="-66.5" font-family="Helvetica,sans-Serif" font-size="10.00">com.teragrep.cfe_16.bo.XForwardedHost</text>
</a>
</g>
</g>
<!-- Node3&#45;&gt;Node8 -->
<g id="edge9_Node000008_Node000003" class="edge">
<title>Node3&#45;&gt;Node8</title>
<g id="a_edge9_Node000008_Node000003"><a xlink:title=" ">
<path fill="none" stroke="#63b8ff" d="M173.04,-82.11C185.03,-80.93 197.37,-79.72 209.47,-78.53"/>
<polygon fill="#63b8ff" stroke="#63b8ff" points="172.66,-78.63 163.05,-83.09 173.35,-85.59 172.66,-78.63"/>
</a>
</g>
</g>
<!-- Node10 -->
<g id="Node000010" class="node">
<title>Node10</title>
<g id="a_Node000010"><a xlink:href="interfacecom_1_1teragrep_1_1cfe__16_1_1bo_1_1XForwardedProto.html" target="_top" xlink:title=" ">
<polygon fill="white" stroke="#666666" points="404,-37 211,-37 211,-7 404,-7 404,-37"/>
<text text-anchor="start" x="219" y="-25" font-family="Helvetica,sans-Serif" font-size="10.00">com.teragrep.cfe_16.bo.XForwarded</text>
<text text-anchor="middle" x="307.5" y="-14" font-family="Helvetica,sans-Serif" font-size="10.00">Proto</text>
</a>
</g>
</g>
<!-- Node3&#45;&gt;Node10 -->
<g id="edge12_Node000010_Node000003" class="edge">
<title>Node3&#45;&gt;Node10</title>
<g id="a_edge12_Node000010_Node000003"><a xlink:title=" ">
<path fill="none" stroke="#63b8ff" d="M118.69,-78.03C141.82,-69.9 172.54,-59.4 200,-51 215.76,-46.18 232.95,-41.32 248.83,-37"/>
<polygon fill="#63b8ff" stroke="#63b8ff" points="117.21,-74.84 108.95,-81.47 119.54,-81.44 117.21,-74.84"/>
</a>
</g>
</g>
<!-- Node4 -->
<g id="Node000004" class="node">
<title>Node4</title>
<g id="a_Node000004"><a xlink:href="classcom_1_1teragrep_1_1cfe__16_1_1bo_1_1HeaderInfo.html" target="_top" xlink:title=" ">
<polygon fill="white" stroke="#666666" points="1166,-93.5 977,-93.5 977,-74.5 1166,-74.5 1166,-93.5"/>
<text text-anchor="middle" x="1071.5" y="-81.5" font-family="Helvetica,sans-Serif" font-size="10.00">com.teragrep.cfe_16.bo.HeaderInfo</text>
</a>
</g>
</g>
<!-- Node4&#45;&gt;Node1 -->
<g id="edge3_Node000001_Node000004" class="edge">
<title>Node4&#45;&gt;Node1</title>
<g id="a_edge3_Node000001_Node000004"><a xlink:title=" ">
<path fill="none" stroke="#9a32cd" stroke-dasharray="5,2" d="M1138.92,-95.22C1189.38,-103.75 1258.03,-115.35 1305.9,-123.44"/>
<polygon fill="#9a32cd" stroke="#9a32cd" points="1139.2,-91.72 1128.76,-93.51 1138.04,-98.62 1139.2,-91.72"/>
</a>
</g>
<text text-anchor="middle" x="1212" y="-114" font-family="Helvetica,sans-Serif" font-size="10.00" fill="grey"> headerInfo</text>
</g>
<!-- Node5 -->
<g id="Node000005" class="node">
<title>Node5</title>
<g id="a_Node000005"><a xlink:href="classcom_1_1teragrep_1_1cfe__16_1_1bo_1_1XForwardedForStub.html" target="_top" xlink:title=" ">
<polygon fill="white" stroke="#666666" points="833,-126 640,-126 640,-96 833,-96 833,-126"/>
<text text-anchor="start" x="648" y="-114" font-family="Helvetica,sans-Serif" font-size="10.00">com.teragrep.cfe_16.bo.XForwarded</text>
<text text-anchor="middle" x="736.5" y="-103" font-family="Helvetica,sans-Serif" font-size="10.00">ForStub</text>
</a>
</g>
</g>
<!-- Node5&#45;&gt;Node4 -->
<g id="edge4_Node000004_Node000005" class="edge">
<title>Node5&#45;&gt;Node4</title>
<g id="a_edge4_Node000004_Node000005"><a xlink:title=" ">
<path fill="none" stroke="#9a32cd" stroke-dasharray="5,2" d="M843.54,-102.4C886.32,-98.93 935.28,-94.96 976.74,-91.6"/>
<polygon fill="#9a32cd" stroke="#9a32cd" points="843.06,-98.93 833.37,-103.23 843.62,-105.91 843.06,-98.93"/>
</a>
</g>
<text text-anchor="middle" x="905" y="-104" font-family="Helvetica,sans-Serif" font-size="10.00" fill="grey"> xForwardedForStub</text>
</g>
<!-- Node6&#45;&gt;Node5 -->
<g id="edge5_Node000005_Node000006" class="edge">
<title>Node6&#45;&gt;Node5</title>
<g id="a_edge5_Node000005_Node000006"><a xlink:title=" ">
<path fill="none" stroke="#63b8ff" d="M421.92,-109.53C489.9,-109.85 575.37,-110.25 639.91,-110.55"/>
<polygon fill="#63b8ff" stroke="#63b8ff" points="421.61,-106.03 411.59,-109.48 421.58,-113.03 421.61,-106.03"/>
</a>
</g>
</g>
<!-- Node7 -->
<g id="Node000007" class="node">
<title>Node7</title>
<g id="a_Node000007"><a xlink:href="classcom_1_1teragrep_1_1cfe__16_1_1bo_1_1XForwardedHostStub.html" target="_top" xlink:title=" ">
<polygon fill="white" stroke="#666666" points="833,-78 640,-78 640,-48 833,-48 833,-78"/>
<text text-anchor="start" x="648" y="-66" font-family="Helvetica,sans-Serif" font-size="10.00">com.teragrep.cfe_16.bo.XForwarded</text>
<text text-anchor="middle" x="736.5" y="-55" font-family="Helvetica,sans-Serif" font-size="10.00">HostStub</text>
</a>
</g>
</g>
<!-- Node7&#45;&gt;Node4 -->
<g id="edge7_Node000004_Node000007" class="edge">
<title>Node7&#45;&gt;Node4</title>
<g id="a_edge7_Node000004_Node000007"><a xlink:title=" ">
<path fill="none" stroke="#9a32cd" stroke-dasharray="5,2" d="M843.47,-65.1C880.1,-66.29 921.39,-68.13 959,-71 970.95,-71.91 983.59,-73.13 995.91,-74.47"/>
<polygon fill="#9a32cd" stroke="#9a32cd" points="843.37,-61.6 833.26,-64.79 843.15,-68.6 843.37,-61.6"/>
</a>
</g>
<text text-anchor="middle" x="905" y="-74" font-family="Helvetica,sans-Serif" font-size="10.00" fill="grey"> xForwardedHostStub</text>
</g>
<!-- Node8&#45;&gt;Node7 -->
<g id="edge8_Node000007_Node000008" class="edge">
<title>Node8&#45;&gt;Node7</title>
<g id="a_edge8_Node000007_Node000008"><a xlink:title=" ">
<path fill="none" stroke="#63b8ff" d="M425.38,-67.36C492.7,-66.41 576.26,-65.24 639.67,-64.35"/>
<polygon fill="#63b8ff" stroke="#63b8ff" points="425.1,-63.86 415.15,-67.5 425.2,-70.86 425.1,-63.86"/>
</a>
</g>
</g>
<!-- Node9 -->
<g id="Node000009" class="node">
<title>Node9</title>
<g id="a_Node000009"><a xlink:href="classcom_1_1teragrep_1_1cfe__16_1_1bo_1_1XForwardedProtoStub.html" target="_top" xlink:title=" ">
<polygon fill="white" stroke="#666666" points="833,-30 640,-30 640,0 833,0 833,-30"/>
<text text-anchor="start" x="648" y="-18" font-family="Helvetica,sans-Serif" font-size="10.00">com.teragrep.cfe_16.bo.XForwarded</text>
<text text-anchor="middle" x="736.5" y="-7" font-family="Helvetica,sans-Serif" font-size="10.00">ProtoStub</text>
</a>
</g>
</g>
<!-- Node9&#45;&gt;Node4 -->
<g id="edge10_Node000004_Node000009" class="edge">
<title>Node9&#45;&gt;Node4</title>
<g id="a_edge10_Node000004_Node000009"><a xlink:title=" ">
<path fill="none" stroke="#9a32cd" stroke-dasharray="5,2" d="M843.43,-28.67C880.23,-34.23 921.63,-41.39 959,-50 987.99,-56.68 1020.45,-66.9 1042.84,-74.39"/>
<polygon fill="#9a32cd" stroke="#9a32cd" points="843.59,-25.16 833.18,-27.15 842.56,-32.08 843.59,-25.16"/>
</a>
</g>
<text text-anchor="middle" x="905" y="-53" font-family="Helvetica,sans-Serif" font-size="10.00" fill="grey"> xForwardedProtoStub</text>
</g>
<!-- Node10&#45;&gt;Node9 -->
<g id="edge11_Node000009_Node000010" class="edge">
<title>Node10&#45;&gt;Node9</title>
<g id="a_edge11_Node000009_Node000010"><a xlink:title=" ">
<path fill="none" stroke="#63b8ff" d="M414.11,-20.27C483.24,-19.14 572.85,-17.67 639.88,-16.57"/>
<polygon fill="#63b8ff" stroke="#63b8ff" points="414,-16.77 404.06,-20.43 414.12,-23.77 414,-16.77"/>
</a>
</g>
</g>
</g>
</svg>
