<?xml version="1.0" encoding="UTF-8" standalone="no"?>
<!DOCTYPE svg PUBLIC "-//W3C//DTD SVG 1.1//EN"
 "http://www.w3.org/Graphics/SVG/1.1/DTD/svg11.dtd">
<!-- Generated by graphviz version 2.43.0 (0)
 -->
<!-- Title: com.teragrep.cfe_16.it.AcknowledgementsIT.getRequestedAckStatusesTest Pages: 1 -->
<svg width="809pt" height="161pt"
 viewBox="0.00 0.00 809.00 160.50" xmlns="http://www.w3.org/2000/svg" xmlns:xlink="http://www.w3.org/1999/xlink">
<g id="graph0" class="graph" transform="scale(1 1) rotate(0) translate(4 156.5)">
<title>com.teragrep.cfe_16.it.AcknowledgementsIT.getRequestedAckStatusesTest</title>
<!-- Node1 -->
<g id="Node000001" class="node">
<title>Node1</title>
<g id="a_Node000001"><a xlink:title=" ">
<polygon fill="#999999" stroke="#666666" points="226,-99 0,-99 0,-69 226,-69 226,-99"/>
<text text-anchor="start" x="8" y="-87" font-family="Helvetica,sans-Serif" font-size="10.00">com.teragrep.cfe_16.it.Acknowledgements</text>
<text text-anchor="middle" x="113" y="-76" font-family="Helvetica,sans-Serif" font-size="10.00">IT.getRequestedAckStatusesTest</text>
</a>
</g>
</g>
<!-- Node2 -->
<g id="Node000002" class="node">
<title>Node2</title>
<g id="a_Node000002"><a xlink:href="classcom_1_1teragrep_1_1cfe__16_1_1Acknowledgements.html#a8c6f0dff735fde04e0bc670136eb57d2" target="_top" xlink:title=" ">
<polygon fill="white" stroke="#666666" points="546,-152.5 262,-152.5 262,-133.5 546,-133.5 546,-152.5"/>
<text text-anchor="middle" x="404" y="-140.5" font-family="Helvetica,sans-Serif" font-size="10.00">com.teragrep.cfe_16.Acknowledgements.acknowledge</text>
</a>
</g>
</g>
<!-- Node1&#45;&gt;Node2 -->
<g id="edge1_Node000001_Node000002" class="edge">
<title>Node1&#45;&gt;Node2</title>
<g id="a_edge1_Node000001_Node000002"><a xlink:title=" ">
<path fill="none" stroke="#63b8ff" d="M161.57,-99.05C190.39,-107.7 228.02,-118.16 262,-125 275.24,-127.66 289.26,-130.01 303.12,-132.06"/>
<polygon fill="#63b8ff" stroke="#63b8ff" points="302.78,-135.54 313.18,-133.49 303.77,-128.61 302.78,-135.54"/>
</a>
</g>
</g>
<!-- Node4 -->
<g id="Node000004" class="node">
<title>Node4</title>
<g id="a_Node000004"><a xlink:href="classcom_1_1teragrep_1_1cfe__16_1_1Acknowledgements.html#a954c7b6f37e4bcd616879315307d85bb" target="_top" xlink:title="Adds a new Ack object for given channel.">
<polygon fill="white" stroke="#666666" points="531.5,-115.5 276.5,-115.5 276.5,-96.5 531.5,-96.5 531.5,-115.5"/>
<text text-anchor="middle" x="404" y="-103.5" font-family="Helvetica,sans-Serif" font-size="10.00">com.teragrep.cfe_16.Acknowledgements.addAck</text>
</a>
</g>
</g>
<!-- Node1&#45;&gt;Node4 -->
<g id="edge3_Node000001_Node000004" class="edge">
<title>Node1&#45;&gt;Node4</title>
<g id="a_edge3_Node000001_Node000004"><a xlink:title=" ">
<path fill="none" stroke="#63b8ff" d="M226.15,-92.54C239.81,-93.58 253.88,-94.65 267.83,-95.71"/>
<polygon fill="#63b8ff" stroke="#63b8ff" points="267.72,-99.21 277.96,-96.48 268.25,-92.23 267.72,-99.21"/>
</a>
</g>
</g>
<!-- Node5 -->
<g id="Node000005" class="node">
<title>Node5</title>
<g id="a_Node000005"><a xlink:href="classcom_1_1teragrep_1_1cfe__16_1_1Acknowledgements.html#a991efdd07c7cbf8d24b5da93e342b55c" target="_top" xlink:title="Returns the Ack statuses of requested Ack id:s as a JSON node.">
<polygon fill="white" stroke="#666666" points="521.5,-78 286.5,-78 286.5,-48 521.5,-48 521.5,-78"/>
<text text-anchor="start" x="294.5" y="-66" font-family="Helvetica,sans-Serif" font-size="10.00">com.teragrep.cfe_16.Acknowledgements.get</text>
<text text-anchor="middle" x="404" y="-55" font-family="Helvetica,sans-Serif" font-size="10.00">RequestedAckStatuses</text>
</a>
</g>
</g>
<!-- Node1&#45;&gt;Node5 -->
<g id="edge4_Node000001_Node000005" class="edge">
<title>Node1&#45;&gt;Node5</title>
<g id="a_edge4_Node000001_Node000005"><a xlink:title=" ">
<path fill="none" stroke="#63b8ff" d="M226.15,-75.85C242.44,-74.67 259.31,-73.44 275.87,-72.24"/>
<polygon fill="#63b8ff" stroke="#63b8ff" points="276.42,-75.71 286.14,-71.49 275.91,-68.73 276.42,-75.71"/>
</a>
</g>
</g>
<!-- Node6 -->
<g id="Node000006" class="node">
<title>Node6</title>
<g id="a_Node000006"><a xlink:href="classcom_1_1teragrep_1_1cfe__16_1_1Acknowledgements.html#a06622ee4fcccb291cf0c97cb55189d83" target="_top" xlink:title="This method has to be called first before calling any other Ack related methods.">
<polygon fill="white" stroke="#666666" points="534.5,-30 273.5,-30 273.5,0 534.5,0 534.5,-30"/>
<text text-anchor="start" x="281.5" y="-18" font-family="Helvetica,sans-Serif" font-size="10.00">com.teragrep.cfe_16.Acknowledgements.initialize</text>
<text text-anchor="middle" x="404" y="-7" font-family="Helvetica,sans-Serif" font-size="10.00">Context</text>
</a>
</g>
</g>
<!-- Node1&#45;&gt;Node6 -->
<g id="edge6_Node000001_Node000006" class="edge">
<title>Node1&#45;&gt;Node6</title>
<g id="a_edge6_Node000001_Node000006"><a xlink:title=" ">
<path fill="none" stroke="#63b8ff" d="M158.29,-68.93C187.49,-59.39 226.71,-47.33 262,-39 272.55,-36.51 283.59,-34.17 294.67,-32"/>
<polygon fill="#63b8ff" stroke="#63b8ff" points="295.66,-35.38 304.83,-30.06 294.35,-28.5 295.66,-35.38"/>
</a>
</g>
</g>
<!-- Node3 -->
<g id="Node000003" class="node">
<title>Node3</title>
<g id="a_Node000003"><a xlink:href="classcom_1_1teragrep_1_1cfe__16_1_1Acknowledgements_1_1State.html#ad9d95fec84a00a574b21981fc673f10a" target="_top" xlink:title=" ">
<polygon fill="white" stroke="#666666" points="801,-118 582,-118 582,-88 801,-88 801,-118"/>
<text text-anchor="start" x="590" y="-106" font-family="Helvetica,sans-Serif" font-size="10.00">com.teragrep.cfe_16.Acknowledgements.</text>
<text text-anchor="middle" x="691.5" y="-95" font-family="Helvetica,sans-Serif" font-size="10.00">State.getAckMap</text>
</a>
</g>
</g>
<!-- Node2&#45;&gt;Node3 -->
<g id="edge2_Node000002_Node000003" class="edge">
<title>Node2&#45;&gt;Node3</title>
<g id="a_edge2_Node000002_Node000003"><a xlink:title=" ">
<path fill="none" stroke="#63b8ff" d="M482.25,-133.48C502.97,-130.83 525.35,-127.89 546,-125 558.2,-123.29 570.96,-121.44 583.64,-119.57"/>
<polygon fill="#63b8ff" stroke="#63b8ff" points="584.4,-122.99 593.78,-118.06 583.37,-116.07 584.4,-122.99"/>
</a>
</g>
</g>
<!-- Node5&#45;&gt;Node3 -->
<g id="edge5_Node000005_Node000003" class="edge">
<title>Node5&#45;&gt;Node3</title>
<g id="a_edge5_Node000005_Node000003"><a xlink:title=" ">
<path fill="none" stroke="#63b8ff" d="M512.12,-78.01C532.02,-80.8 552.9,-83.72 573.09,-86.55"/>
<polygon fill="#63b8ff" stroke="#63b8ff" points="572.86,-90.05 583.25,-87.97 573.84,-83.12 572.86,-90.05"/>
</a>
</g>
</g>
</g>
</svg>
