<?xml version="1.0" encoding="UTF-8" standalone="no"?>
<!DOCTYPE svg PUBLIC "-//W3C//DTD SVG 1.1//EN"
 "http://www.w3.org/Graphics/SVG/1.1/DTD/svg11.dtd">
<!-- Generated by graphviz version 2.43.0 (0)
 -->
<!-- Title: com.teragrep.cfe_16.it.AcknowledgementsIT.getCurrentAckValueAndIncrementTest Pages: 1 -->
<svg width="1072pt" height="316pt"
 viewBox="0.00 0.00 1072.00 316.00" xmlns="http://www.w3.org/2000/svg" xmlns:xlink="http://www.w3.org/1999/xlink">
<g id="graph0" class="graph" transform="scale(1 1) rotate(0) translate(4 312)">
<title>com.teragrep.cfe_16.it.AcknowledgementsIT.getCurrentAckValueAndIncrementTest</title>
<!-- Node1 -->
<g id="Node000001" class="node">
<title>Node1</title>
<g id="a_Node000001"><a xlink:title=" ">
<polygon fill="#999999" stroke="#666666" points="226,-214 0,-214 0,-184 226,-184 226,-214"/>
<text text-anchor="start" x="8" y="-202" font-family="Helvetica,sans-Serif" font-size="10.00">com.teragrep.cfe_16.it.Acknowledgements</text>
<text text-anchor="middle" x="113" y="-191" font-family="Helvetica,sans-Serif" font-size="10.00">IT.getCurrentAckValueAndIncrementTest</text>
</a>
</g>
</g>
<!-- Node2 -->
<g id="Node000002" class="node">
<title>Node2</title>
<g id="a_Node000002"><a xlink:href="classcom_1_1teragrep_1_1cfe__16_1_1Acknowledgements.html#a0a81fc7b69c7638df2b4e6fff3744514" target="_top" xlink:title="Returns the current Ack value for given token and channel.">
<polygon fill="white" stroke="#666666" points="514,-260 279,-260 279,-230 514,-230 514,-260"/>
<text text-anchor="start" x="287" y="-248" font-family="Helvetica,sans-Serif" font-size="10.00">com.teragrep.cfe_16.Acknowledgements.get</text>
<text text-anchor="middle" x="396.5" y="-237" font-family="Helvetica,sans-Serif" font-size="10.00">CurrentAckValue</text>
</a>
</g>
</g>
<!-- Node1&#45;&gt;Node2 -->
<g id="edge1_Node000001_Node000002" class="edge">
<title>Node1&#45;&gt;Node2</title>
<g id="a_edge1_Node000001_Node000002"><a xlink:title=" ">
<path fill="none" stroke="#63b8ff" d="M206.17,-214.06C234.14,-218.63 265.03,-223.68 293.6,-228.35"/>
<polygon fill="#63b8ff" stroke="#63b8ff" points="293.17,-231.82 303.6,-229.98 294.3,-224.92 293.17,-231.82"/>
</a>
</g>
</g>
<!-- Node5 -->
<g id="Node000005" class="node">
<title>Node5</title>
<g id="a_Node000005"><a xlink:href="classcom_1_1teragrep_1_1cfe__16_1_1Acknowledgements.html#a5307dc12a64ca957ae24430d09b372e1" target="_top" xlink:title=" ">
<polygon fill="white" stroke="#666666" points="531,-169 262,-169 262,-139 531,-139 531,-169"/>
<text text-anchor="start" x="270" y="-157" font-family="Helvetica,sans-Serif" font-size="10.00">com.teragrep.cfe_16.Acknowledgements.increment</text>
<text text-anchor="middle" x="396.5" y="-146" font-family="Helvetica,sans-Serif" font-size="10.00">AckValue</text>
</a>
</g>
</g>
<!-- Node1&#45;&gt;Node5 -->
<g id="edge4_Node000001_Node000005" class="edge">
<title>Node1&#45;&gt;Node5</title>
<g id="a_edge4_Node000001_Node000005"><a xlink:title=" ">
<path fill="none" stroke="#63b8ff" d="M208.13,-183.95C234.89,-179.67 264.19,-174.99 291.5,-170.63"/>
<polygon fill="#63b8ff" stroke="#63b8ff" points="292.14,-174.07 301.46,-169.03 291.03,-167.16 292.14,-174.07"/>
</a>
</g>
</g>
<!-- Node3 -->
<g id="Node000003" class="node">
<title>Node3</title>
<g id="a_Node000003"><a xlink:href="classcom_1_1teragrep_1_1cfe__16_1_1Acknowledgements_1_1State.html#aa1809213ec400ce2fccaff6cab3e244b" target="_top" xlink:title=" ">
<polygon fill="white" stroke="#666666" points="797.5,-260 578.5,-260 578.5,-230 797.5,-230 797.5,-260"/>
<text text-anchor="start" x="586.5" y="-248" font-family="Helvetica,sans-Serif" font-size="10.00">com.teragrep.cfe_16.Acknowledgements.</text>
<text text-anchor="middle" x="688" y="-237" font-family="Helvetica,sans-Serif" font-size="10.00">State.getCurrentAckValue</text>
</a>
</g>
</g>
<!-- Node2&#45;&gt;Node3 -->
<g id="edge2_Node000002_Node000003" class="edge">
<title>Node2&#45;&gt;Node3</title>
<g id="a_edge2_Node000002_Node000003"><a xlink:title=" ">
<path fill="none" stroke="#63b8ff" d="M514.42,-245C531.99,-245 550.14,-245 567.77,-245"/>
<polygon fill="#63b8ff" stroke="#63b8ff" points="568.08,-248.5 578.08,-245 568.08,-241.5 568.08,-248.5"/>
</a>
</g>
</g>
<!-- Node4 -->
<g id="Node000004" class="node">
<title>Node4</title>
<g id="a_Node000004"><a xlink:href="classcom_1_1teragrep_1_1cfe__16_1_1Acknowledgements.html#a0287e001c86209cd70554675e6dbf9eb" target="_top" xlink:title="A private Accessor for the State object indexed by the given auth token and channel.">
<polygon fill="white" stroke="#666666" points="805.5,-308 570.5,-308 570.5,-278 805.5,-278 805.5,-308"/>
<text text-anchor="start" x="578.5" y="-296" font-family="Helvetica,sans-Serif" font-size="10.00">com.teragrep.cfe_16.Acknowledgements.get</text>
<text text-anchor="middle" x="688" y="-285" font-family="Helvetica,sans-Serif" font-size="10.00">OrCreateState</text>
</a>
</g>
</g>
<!-- Node2&#45;&gt;Node4 -->
<g id="edge3_Node000002_Node000004" class="edge">
<title>Node2&#45;&gt;Node4</title>
<g id="a_edge3_Node000002_Node000004"><a xlink:title=" ">
<path fill="none" stroke="#63b8ff" d="M488.31,-260.06C519.43,-265.22 554.43,-271.02 586.29,-276.3"/>
<polygon fill="#63b8ff" stroke="#63b8ff" points="586.08,-279.81 596.52,-278 587.22,-272.91 586.08,-279.81"/>
</a>
</g>
</g>
<!-- Node5&#45;&gt;Node3 -->
<g id="edge9_Node000005_Node000003" class="edge">
<title>Node5&#45;&gt;Node3</title>
<g id="a_edge9_Node000005_Node000003"><a xlink:title=" ">
<path fill="none" stroke="#63b8ff" d="M430.33,-169.02C464.03,-183.94 518.29,-206.63 567,-221 575.06,-223.38 583.48,-225.59 591.98,-227.64"/>
<polygon fill="#63b8ff" stroke="#63b8ff" points="591.43,-231.1 601.96,-229.96 593.02,-224.29 591.43,-231.1"/>
</a>
</g>
</g>
<!-- Node6 -->
<g id="Node000006" class="node">
<title>Node6</title>
<g id="a_Node000006"><a xlink:href="classcom_1_1teragrep_1_1cfe__16_1_1Acknowledgements.html#a7a9570efce9732f5f674e9ea85017439" target="_top" xlink:title=" ">
<polygon fill="white" stroke="#666666" points="809,-212 567,-212 567,-182 809,-182 809,-212"/>
<text text-anchor="start" x="575" y="-200" font-family="Helvetica,sans-Serif" font-size="10.00">com.teragrep.cfe_16.Acknowledgements.acks</text>
<text text-anchor="middle" x="688" y="-189" font-family="Helvetica,sans-Serif" font-size="10.00">Available</text>
</a>
</g>
</g>
<!-- Node5&#45;&gt;Node6 -->
<g id="edge5_Node000005_Node000006" class="edge">
<title>Node5&#45;&gt;Node6</title>
<g id="a_edge5_Node000005_Node000006"><a xlink:title=" ">
<path fill="none" stroke="#63b8ff" d="M498.75,-169.04C523.66,-172.74 550.45,-176.72 575.8,-180.48"/>
<polygon fill="#63b8ff" stroke="#63b8ff" points="575.4,-183.96 585.8,-181.97 576.43,-177.04 575.4,-183.96"/>
</a>
</g>
</g>
<!-- Node7 -->
<g id="Node000007" class="node">
<title>Node7</title>
<g id="a_Node000007"><a xlink:href="classcom_1_1teragrep_1_1cfe__16_1_1Acknowledgements_1_1State.html#ad9d95fec84a00a574b21981fc673f10a" target="_top" xlink:title=" ">
<polygon fill="white" stroke="#666666" points="1064,-190 845,-190 845,-160 1064,-160 1064,-190"/>
<text text-anchor="start" x="853" y="-178" font-family="Helvetica,sans-Serif" font-size="10.00">com.teragrep.cfe_16.Acknowledgements.</text>
<text text-anchor="middle" x="954.5" y="-167" font-family="Helvetica,sans-Serif" font-size="10.00">State.getAckMap</text>
</a>
</g>
</g>
<!-- Node5&#45;&gt;Node7 -->
<g id="edge7_Node000005_Node000007" class="edge">
<title>Node5&#45;&gt;Node7</title>
<g id="a_edge7_Node000005_Node000007"><a xlink:title=" ">
<path fill="none" stroke="#63b8ff" d="M531.03,-159.04C623.53,-162.54 745.59,-167.15 834.71,-170.51"/>
<polygon fill="#63b8ff" stroke="#63b8ff" points="834.74,-174.02 844.86,-170.9 835,-167.02 834.74,-174.02"/>
</a>
</g>
</g>
<!-- Node8 -->
<g id="Node000008" class="node">
<title>Node8</title>
<g id="a_Node000008"><a xlink:href="classcom_1_1teragrep_1_1cfe__16_1_1Acknowledgements_1_1State.html#a7d72966efb4505634712c4c64c96440c" target="_top" xlink:title=" ">
<polygon fill="white" stroke="#666666" points="797.5,-126 578.5,-126 578.5,-96 797.5,-96 797.5,-126"/>
<text text-anchor="start" x="586.5" y="-114" font-family="Helvetica,sans-Serif" font-size="10.00">com.teragrep.cfe_16.Acknowledgements.</text>
<text text-anchor="middle" x="688" y="-103" font-family="Helvetica,sans-Serif" font-size="10.00">State.getAckToCompare</text>
</a>
</g>
</g>
<!-- Node5&#45;&gt;Node8 -->
<g id="edge8_Node000005_Node000008" class="edge">
<title>Node5&#45;&gt;Node8</title>
<g id="a_edge8_Node000005_Node000008"><a xlink:title=" ">
<path fill="none" stroke="#63b8ff" d="M498.75,-138.96C523.66,-135.26 550.45,-131.28 575.8,-127.52"/>
<polygon fill="#63b8ff" stroke="#63b8ff" points="576.43,-130.96 585.8,-126.03 575.4,-124.04 576.43,-130.96"/>
</a>
</g>
</g>
<!-- Node9 -->
<g id="Node000009" class="node">
<title>Node9</title>
<g id="a_Node000009"><a xlink:href="classcom_1_1teragrep_1_1cfe__16_1_1Acknowledgements_1_1State.html#ab460c6226ddd97252506f01f11cf9f3d" target="_top" xlink:title=" ">
<polygon fill="white" stroke="#666666" points="797.5,-78 578.5,-78 578.5,-48 797.5,-48 797.5,-78"/>
<text text-anchor="start" x="586.5" y="-66" font-family="Helvetica,sans-Serif" font-size="10.00">com.teragrep.cfe_16.Acknowledgements.</text>
<text text-anchor="middle" x="688" y="-55" font-family="Helvetica,sans-Serif" font-size="10.00">State.setAckToCompare</text>
</a>
</g>
</g>
<!-- Node5&#45;&gt;Node9 -->
<g id="edge10_Node000005_Node000009" class="edge">
<title>Node5&#45;&gt;Node9</title>
<g id="a_edge10_Node000005_Node000009"><a xlink:title=" ">
<path fill="none" stroke="#63b8ff" d="M430.33,-138.98C464.03,-124.06 518.29,-101.37 567,-87 575.06,-84.62 583.48,-82.41 591.98,-80.36"/>
<polygon fill="#63b8ff" stroke="#63b8ff" points="593.02,-83.71 601.96,-78.04 591.43,-76.9 593.02,-83.71"/>
</a>
</g>
</g>
<!-- Node10 -->
<g id="Node000010" class="node">
<title>Node10</title>
<g id="a_Node000010"><a xlink:href="classcom_1_1teragrep_1_1cfe__16_1_1Acknowledgements_1_1State.html#a2ce209b2faca53446cccd40bc4de2726" target="_top" xlink:title=" ">
<polygon fill="white" stroke="#666666" points="797.5,-30 578.5,-30 578.5,0 797.5,0 797.5,-30"/>
<text text-anchor="start" x="586.5" y="-18" font-family="Helvetica,sans-Serif" font-size="10.00">com.teragrep.cfe_16.Acknowledgements.</text>
<text text-anchor="middle" x="688" y="-7" font-family="Helvetica,sans-Serif" font-size="10.00">State.setCurrentAckValue</text>
</a>
</g>
</g>
<!-- Node5&#45;&gt;Node10 -->
<g id="edge11_Node000005_Node000010" class="edge">
<title>Node5&#45;&gt;Node10</title>
<g id="a_edge11_Node000005_Node000010"><a xlink:title=" ">
<path fill="none" stroke="#63b8ff" d="M414.91,-138.64C444.16,-113.69 506,-64.56 567,-39 572.14,-36.84 577.49,-34.88 582.96,-33.09"/>
<polygon fill="#63b8ff" stroke="#63b8ff" points="584.35,-36.32 592.88,-30.05 582.3,-29.63 584.35,-36.32"/>
</a>
</g>
</g>
<!-- Node6&#45;&gt;Node7 -->
<g id="edge6_Node000006_Node000007" class="edge">
<title>Node6&#45;&gt;Node7</title>
<g id="a_edge6_Node000006_Node000007"><a xlink:title=" ">
<path fill="none" stroke="#63b8ff" d="M809.25,-187C817.69,-186.3 826.2,-185.59 834.63,-184.89"/>
<polygon fill="#63b8ff" stroke="#63b8ff" points="835.2,-188.35 844.87,-184.03 834.62,-181.38 835.2,-188.35"/>
</a>
</g>
</g>
</g>
</svg>
