<?xml version="1.0" encoding="UTF-8" standalone="no"?>
<!DOCTYPE svg PUBLIC "-//W3C//DTD SVG 1.1//EN"
 "http://www.w3.org/Graphics/SVG/1.1/DTD/svg11.dtd">
<!-- Generated by graphviz version 2.43.0 (0)
 -->
<!-- Title: com.teragrep.cfe_16.service.HECServiceImpl Pages: 1 -->
<svg width="692pt" height="172pt"
 viewBox="0.00 0.00 692.00 172.00" xmlns="http://www.w3.org/2000/svg" xmlns:xlink="http://www.w3.org/1999/xlink">
<g id="graph0" class="graph" transform="scale(1 1) rotate(0) translate(4 168)">
<title>com.teragrep.cfe_16.service.HECServiceImpl</title>
<!-- Node1 -->
<g id="Node000001" class="node">
<title>Node1</title>
<g id="a_Node000001"><a xlink:title="Implementation of the REST Service back end.">
<polygon fill="#999999" stroke="#666666" points="684,-101 526,-101 526,-71 684,-71 684,-101"/>
<text text-anchor="start" x="534" y="-89" font-family="Helvetica,sans-Serif" font-size="10.00">com.teragrep.cfe_16.service.</text>
<text text-anchor="middle" x="605" y="-78" font-family="Helvetica,sans-Serif" font-size="10.00">HECServiceImpl</text>
</a>
</g>
</g>
<!-- Node2 -->
<g id="Node000002" class="node">
<title>Node2</title>
<g id="a_Node000002"><a xlink:href="interfacecom_1_1teragrep_1_1cfe__16_1_1service_1_1HECService.html" target="_top" xlink:title="An interface that specified the REST back end API.">
<polygon fill="white" stroke="#666666" points="362,-164 204,-164 204,-134 362,-134 362,-164"/>
<text text-anchor="start" x="212" y="-152" font-family="Helvetica,sans-Serif" font-size="10.00">com.teragrep.cfe_16.service.</text>
<text text-anchor="middle" x="283" y="-141" font-family="Helvetica,sans-Serif" font-size="10.00">HECService</text>
</a>
</g>
</g>
<!-- Node2&#45;&gt;Node1 -->
<g id="edge1_Node000001_Node000002" class="edge">
<title>Node2&#45;&gt;Node1</title>
<g id="a_edge1_Node000001_Node000002"><a xlink:title=" ">
<path fill="none" stroke="#63b8ff" d="M372.18,-136.54C413.59,-130.15 463.52,-121.67 508,-112 522.34,-108.88 537.74,-104.97 551.92,-101.13"/>
<polygon fill="#63b8ff" stroke="#63b8ff" points="371.47,-133.1 362.12,-138.07 372.53,-140.02 371.47,-133.1"/>
</a>
</g>
</g>
<!-- Node3 -->
<g id="Node000003" class="node">
<title>Node3</title>
<g id="a_Node000003"><a xlink:href="classcom_1_1teragrep_1_1cfe__16_1_1Acknowledgements.html" target="_top" xlink:title=" ">
<polygon fill="white" stroke="#666666" points="391,-115.5 175,-115.5 175,-96.5 391,-96.5 391,-115.5"/>
<text text-anchor="middle" x="283" y="-103.5" font-family="Helvetica,sans-Serif" font-size="10.00">com.teragrep.cfe_16.Acknowledgements</text>
</a>
</g>
</g>
<!-- Node3&#45;&gt;Node1 -->
<g id="edge2_Node000001_Node000003" class="edge">
<title>Node3&#45;&gt;Node1</title>
<g id="a_edge2_Node000001_Node000003"><a xlink:title=" ">
<path fill="none" stroke="#9a32cd" stroke-dasharray="5,2" d="M401.19,-98.68C442.75,-96.08 488.46,-93.22 525.96,-90.88"/>
<polygon fill="#9a32cd" stroke="#9a32cd" points="400.76,-95.2 391,-99.31 401.2,-102.18 400.76,-95.2"/>
</a>
</g>
<text text-anchor="middle" x="458.5" y="-100" font-family="Helvetica,sans-Serif" font-size="10.00" fill="grey"> acknowledgements</text>
</g>
<!-- Node4 -->
<g id="Node000004" class="node">
<title>Node4</title>
<g id="a_Node000004"><a xlink:title=" ">
<polygon fill="white" stroke="#666666" points="100,-116.5 38,-116.5 38,-97.5 100,-97.5 100,-116.5"/>
<text text-anchor="middle" x="69" y="-104.5" font-family="Helvetica,sans-Serif" font-size="10.00">Runnable</text>
</a>
</g>
</g>
<!-- Node4&#45;&gt;Node3 -->
<g id="edge3_Node000003_Node000004" class="edge">
<title>Node4&#45;&gt;Node3</title>
<g id="a_edge3_Node000003_Node000004"><a xlink:title=" ">
<path fill="none" stroke="#63b8ff" d="M110.35,-107.57C124.75,-107.74 141.1,-107.91 156,-108 162.13,-108.04 168.42,-108.04 174.77,-108.02"/>
<polygon fill="#63b8ff" stroke="#63b8ff" points="110.29,-104.07 100.25,-107.44 110.2,-111.06 110.29,-104.07"/>
</a>
</g>
</g>
<!-- Node6 -->
<g id="Node000006" class="node">
<title>Node6</title>
<g id="a_Node000006"><a xlink:href="classcom_1_1teragrep_1_1cfe__16_1_1SessionManager.html" target="_top" xlink:title=" ">
<polygon fill="white" stroke="#666666" points="362,-78 204,-78 204,-48 362,-48 362,-78"/>
<text text-anchor="start" x="212" y="-66" font-family="Helvetica,sans-Serif" font-size="10.00">com.teragrep.cfe_16.Session</text>
<text text-anchor="middle" x="283" y="-55" font-family="Helvetica,sans-Serif" font-size="10.00">Manager</text>
</a>
</g>
</g>
<!-- Node4&#45;&gt;Node6 -->
<g id="edge6_Node000006_Node000004" class="edge">
<title>Node4&#45;&gt;Node6</title>
<g id="a_edge6_Node000006_Node000004"><a xlink:title=" ">
<path fill="none" stroke="#63b8ff" d="M110.21,-98.66C138.21,-92.84 176.35,-84.93 209.58,-78.03"/>
<polygon fill="#63b8ff" stroke="#63b8ff" points="109.45,-95.24 100.37,-100.7 110.88,-102.09 109.45,-95.24"/>
</a>
</g>
</g>
<!-- Node5 -->
<g id="Node000005" class="node">
<title>Node5</title>
<g id="a_Node000005"><a xlink:href="interfacecom_1_1teragrep_1_1cfe__16_1_1LifeCycle.html" target="_top" xlink:title="An interface that own resources like threads for doing graceful shutdown.">
<polygon fill="white" stroke="#666666" points="138,-76 0,-76 0,-46 138,-46 138,-76"/>
<text text-anchor="start" x="8" y="-64" font-family="Helvetica,sans-Serif" font-size="10.00">com.teragrep.cfe_16.Life</text>
<text text-anchor="middle" x="69" y="-53" font-family="Helvetica,sans-Serif" font-size="10.00">Cycle</text>
</a>
</g>
</g>
<!-- Node5&#45;&gt;Node3 -->
<g id="edge4_Node000003_Node000005" class="edge">
<title>Node5&#45;&gt;Node3</title>
<g id="a_edge4_Node000003_Node000005"><a xlink:title=" ">
<path fill="none" stroke="#63b8ff" d="M137.47,-78.41C149.91,-81.42 162.82,-84.41 175,-87 190.87,-90.37 208.16,-93.62 224.11,-96.45"/>
<polygon fill="#63b8ff" stroke="#63b8ff" points="138.15,-74.98 127.61,-76 136.49,-81.78 138.15,-74.98"/>
</a>
</g>
</g>
<!-- Node5&#45;&gt;Node6 -->
<g id="edge7_Node000006_Node000005" class="edge">
<title>Node5&#45;&gt;Node6</title>
<g id="a_edge7_Node000006_Node000005"><a xlink:title=" ">
<path fill="none" stroke="#63b8ff" d="M148.66,-60.94C151.48,-60.96 154.26,-60.98 157,-61 172.19,-61.12 188.42,-61.33 203.99,-61.56"/>
<polygon fill="#63b8ff" stroke="#63b8ff" points="148.4,-57.44 138.39,-60.9 148.37,-64.44 148.4,-57.44"/>
</a>
</g>
</g>
<!-- Node6&#45;&gt;Node1 -->
<g id="edge5_Node000001_Node000006" class="edge">
<title>Node6&#45;&gt;Node1</title>
<g id="a_edge5_Node000001_Node000006"><a xlink:title=" ">
<path fill="none" stroke="#9a32cd" stroke-dasharray="5,2" d="M372.08,-67.87C413.37,-70.32 463.23,-73.5 508,-77 513.84,-77.46 519.88,-77.96 525.95,-78.48"/>
<polygon fill="#9a32cd" stroke="#9a32cd" points="372.24,-64.37 362.05,-67.28 371.83,-71.36 372.24,-64.37"/>
</a>
</g>
<text text-anchor="middle" x="458.5" y="-80" font-family="Helvetica,sans-Serif" font-size="10.00" fill="grey"> sessionManager</text>
</g>
<!-- Node7 -->
<g id="Node000007" class="node">
<title>Node7</title>
<g id="a_Node000007"><a xlink:href="classcom_1_1teragrep_1_1cfe__16_1_1TokenManager.html" target="_top" xlink:title=" ">
<polygon fill="white" stroke="#666666" points="357,-30 209,-30 209,0 357,0 357,-30"/>
<text text-anchor="start" x="217" y="-18" font-family="Helvetica,sans-Serif" font-size="10.00">com.teragrep.cfe_16.Token</text>
<text text-anchor="middle" x="283" y="-7" font-family="Helvetica,sans-Serif" font-size="10.00">Manager</text>
</a>
</g>
</g>
<!-- Node7&#45;&gt;Node1 -->
<g id="edge8_Node000001_Node000007" class="edge">
<title>Node7&#45;&gt;Node1</title>
<g id="a_edge8_Node000001_Node000007"><a xlink:title=" ">
<path fill="none" stroke="#9a32cd" stroke-dasharray="5,2" d="M367.12,-27.73C409.54,-34.86 461.81,-44.6 508,-56 525.12,-60.23 543.68,-65.79 559.87,-70.97"/>
<polygon fill="#9a32cd" stroke="#9a32cd" points="367.55,-24.26 357.11,-26.07 366.4,-31.16 367.55,-24.26"/>
</a>
</g>
<text text-anchor="middle" x="458.5" y="-59" font-family="Helvetica,sans-Serif" font-size="10.00" fill="grey"> tokenManager</text>
</g>
</g>
</svg>
