<?xml version="1.0" encoding="UTF-8" standalone="no"?>
<!DOCTYPE svg PUBLIC "-//W3C//DTD SVG 1.1//EN"
 "http://www.w3.org/Graphics/SVG/1.1/DTD/svg11.dtd">
<!-- Generated by graphviz version 2.43.0 (0)
 -->
<!-- Title: Graphical Class Hierarchy Pages: 1 -->
<svg width="363pt" height="278pt"
 viewBox="0.00 0.00 363.00 278.00" xmlns="http://www.w3.org/2000/svg" xmlns:xlink="http://www.w3.org/1999/xlink">
<g id="graph0" class="graph" transform="scale(1 1) rotate(0) translate(4 274)">
<title>Graphical Class Hierarchy</title>
<!-- Node0 -->
<g id="Node000000" class="node">
<title>Node0</title>
<g id="a_Node000000"><a xlink:title=" ">
<polygon fill="#e0e0e0" stroke="#999999" points="106,-144.5 0,-144.5 0,-125.5 106,-125.5 106,-144.5"/>
<text text-anchor="middle" x="53" y="-132.5" font-family="Helvetica,sans-Serif" font-size="10.00">RuntimeException</text>
</a>
</g>
</g>
<!-- Node1 -->
<g id="Node000001" class="node">
<title>Node1</title>
<g id="a_Node000001"><a xlink:href="classcom_1_1teragrep_1_1cfe__16_1_1exceptionhandling_1_1AuthenticationTokenMissingException.html" target="_top" xlink:title=" ">
<polygon fill="white" stroke="#666666" points="355,-270 142,-270 142,-240 355,-240 355,-270"/>
<text text-anchor="start" x="150" y="-258" font-family="Helvetica,sans-Serif" font-size="10.00">com.teragrep.cfe_16.exceptionhandling.</text>
<text text-anchor="middle" x="248.5" y="-247" font-family="Helvetica,sans-Serif" font-size="10.00">AuthenticationTokenMissingException</text>
</a>
</g>
</g>
<!-- Node0&#45;&gt;Node1 -->
<g id="edge30_Node000000_Node000001" class="edge">
<title>Node0&#45;&gt;Node1</title>
<g id="a_edge30_Node000000_Node000001"><a xlink:title=" ">
<path fill="none" stroke="#63b8ff" d="M65.47,-153.11C80.37,-175.06 108.47,-211.52 142,-231 147.93,-234.44 154.31,-237.39 160.9,-239.92"/>
<polygon fill="#63b8ff" stroke="#63b8ff" points="68.35,-151.1 59.92,-144.68 62.5,-154.96 68.35,-151.1"/>
</a>
</g>
</g>
<!-- Node2 -->
<g id="Node000002" class="node">
<title>Node2</title>
<g id="a_Node000002"><a xlink:href="classcom_1_1teragrep_1_1cfe__16_1_1exceptionhandling_1_1ChannelNotFoundException.html" target="_top" xlink:title=" ">
<polygon fill="white" stroke="#666666" points="355,-222 142,-222 142,-192 355,-192 355,-222"/>
<text text-anchor="start" x="150" y="-210" font-family="Helvetica,sans-Serif" font-size="10.00">com.teragrep.cfe_16.exceptionhandling.</text>
<text text-anchor="middle" x="248.5" y="-199" font-family="Helvetica,sans-Serif" font-size="10.00">ChannelNotFoundException</text>
</a>
</g>
</g>
<!-- Node0&#45;&gt;Node2 -->
<g id="edge31_Node000000_Node000002" class="edge">
<title>Node0&#45;&gt;Node2</title>
<g id="a_edge31_Node000000_Node000002"><a xlink:title=" ">
<path fill="none" stroke="#63b8ff" d="M77.46,-150.12C94.72,-160.66 119.06,-174.33 142,-183 150.96,-186.39 160.54,-189.38 170.13,-192"/>
<polygon fill="#63b8ff" stroke="#63b8ff" points="79,-146.96 68.66,-144.64 75.3,-152.9 79,-146.96"/>
</a>
</g>
</g>
<!-- Node3 -->
<g id="Node000003" class="node">
<title>Node3</title>
<g id="a_Node000003"><a xlink:href="classcom_1_1teragrep_1_1cfe__16_1_1exceptionhandling_1_1ChannelNotProvidedException.html" target="_top" xlink:title=" ">
<polygon fill="white" stroke="#666666" points="355,-174 142,-174 142,-144 355,-144 355,-174"/>
<text text-anchor="start" x="150" y="-162" font-family="Helvetica,sans-Serif" font-size="10.00">com.teragrep.cfe_16.exceptionhandling.</text>
<text text-anchor="middle" x="248.5" y="-151" font-family="Helvetica,sans-Serif" font-size="10.00">ChannelNotProvidedException</text>
</a>
</g>
</g>
<!-- Node0&#45;&gt;Node3 -->
<g id="edge32_Node000000_Node000003" class="edge">
<title>Node0&#45;&gt;Node3</title>
<g id="a_edge32_Node000000_Node000003"><a xlink:title=" ">
<path fill="none" stroke="#63b8ff" d="M116.05,-142.7C124.38,-143.73 133.1,-144.81 141.93,-145.91"/>
<polygon fill="#63b8ff" stroke="#63b8ff" points="116.46,-139.22 106.11,-141.46 115.6,-146.17 116.46,-139.22"/>
</a>
</g>
</g>
<!-- Node4 -->
<g id="Node000004" class="node">
<title>Node4</title>
<g id="a_Node000004"><a xlink:href="classcom_1_1teragrep_1_1cfe__16_1_1exceptionhandling_1_1InternalServerErrorException.html" target="_top" xlink:title=" ">
<polygon fill="white" stroke="#666666" points="355,-126 142,-126 142,-96 355,-96 355,-126"/>
<text text-anchor="start" x="150" y="-114" font-family="Helvetica,sans-Serif" font-size="10.00">com.teragrep.cfe_16.exceptionhandling.</text>
<text text-anchor="middle" x="248.5" y="-103" font-family="Helvetica,sans-Serif" font-size="10.00">InternalServerErrorException</text>
</a>
</g>
</g>
<!-- Node0&#45;&gt;Node4 -->
<g id="edge33_Node000000_Node000004" class="edge">
<title>Node0&#45;&gt;Node4</title>
<g id="a_edge33_Node000000_Node000004"><a xlink:title=" ">
<path fill="none" stroke="#63b8ff" d="M116.05,-127.3C124.38,-126.27 133.1,-125.19 141.93,-124.09"/>
<polygon fill="#63b8ff" stroke="#63b8ff" points="115.6,-123.83 106.11,-128.54 116.46,-130.78 115.6,-123.83"/>
</a>
</g>
</g>
<!-- Node5 -->
<g id="Node000005" class="node">
<title>Node5</title>
<g id="a_Node000005"><a xlink:href="classcom_1_1teragrep_1_1cfe__16_1_1exceptionhandling_1_1ServerIsBusyException.html" target="_top" xlink:title=" ">
<polygon fill="white" stroke="#666666" points="355,-78 142,-78 142,-48 355,-48 355,-78"/>
<text text-anchor="start" x="150" y="-66" font-family="Helvetica,sans-Serif" font-size="10.00">com.teragrep.cfe_16.exceptionhandling.</text>
<text text-anchor="middle" x="248.5" y="-55" font-family="Helvetica,sans-Serif" font-size="10.00">ServerIsBusyException</text>
</a>
</g>
</g>
<!-- Node0&#45;&gt;Node5 -->
<g id="edge34_Node000000_Node000005" class="edge">
<title>Node0&#45;&gt;Node5</title>
<g id="a_edge34_Node000000_Node000005"><a xlink:title=" ">
<path fill="none" stroke="#63b8ff" d="M77.46,-119.88C94.72,-109.34 119.06,-95.67 142,-87 150.96,-83.61 160.54,-80.62 170.13,-78"/>
<polygon fill="#63b8ff" stroke="#63b8ff" points="75.3,-117.1 68.66,-125.36 79,-123.04 75.3,-117.1"/>
</a>
</g>
</g>
<!-- Node6 -->
<g id="Node000006" class="node">
<title>Node6</title>
<g id="a_Node000006"><a xlink:href="classcom_1_1teragrep_1_1cfe__16_1_1exceptionhandling_1_1SessionNotFoundException.html" target="_top" xlink:title=" ">
<polygon fill="white" stroke="#666666" points="355,-30 142,-30 142,0 355,0 355,-30"/>
<text text-anchor="start" x="150" y="-18" font-family="Helvetica,sans-Serif" font-size="10.00">com.teragrep.cfe_16.exceptionhandling.</text>
<text text-anchor="middle" x="248.5" y="-7" font-family="Helvetica,sans-Serif" font-size="10.00">SessionNotFoundException</text>
</a>
</g>
</g>
<!-- Node0&#45;&gt;Node6 -->
<g id="edge35_Node000000_Node000006" class="edge">
<title>Node0&#45;&gt;Node6</title>
<g id="a_edge35_Node000000_Node000006"><a xlink:title=" ">
<path fill="none" stroke="#63b8ff" d="M65.47,-116.89C80.37,-94.94 108.47,-58.48 142,-39 147.93,-35.56 154.31,-32.61 160.9,-30.08"/>
<polygon fill="#63b8ff" stroke="#63b8ff" points="62.5,-115.04 59.92,-125.32 68.35,-118.9 62.5,-115.04"/>
</a>
</g>
</g>
</g>
</svg>
