<?xml version="1.0" encoding="UTF-8" standalone="no"?>
<!DOCTYPE svg PUBLIC "-//W3C//DTD SVG 1.1//EN"
 "http://www.w3.org/Graphics/SVG/1.1/DTD/svg11.dtd">
<!-- Generated by graphviz version 2.43.0 (0)
 -->
<!-- Title: Graphical Class Hierarchy Pages: 1 -->
<svg width="669pt" height="593pt"
 viewBox="0.00 0.00 669.00 592.50" xmlns="http://www.w3.org/2000/svg" xmlns:xlink="http://www.w3.org/1999/xlink">
<g id="graph0" class="graph" transform="scale(1 1) rotate(0) translate(4 588.5)">
<title>Graphical Class Hierarchy</title>
<!-- Node0 -->
<g id="Node000000" class="node">
<title>Node0</title>
<g id="a_Node000000"><a xlink:href="interfacecom_1_1teragrep_1_1cfe__16_1_1Stubable.html" target="_top" xlink:title=" ">
<polygon fill="white" stroke="#666666" points="163,-336.5 0,-336.5 0,-317.5 163,-317.5 163,-336.5"/>
<text text-anchor="middle" x="81.5" y="-324.5" font-family="Helvetica,sans-Serif" font-size="10.00">com.teragrep.cfe_16.Stubable</text>
</a>
</g>
</g>
<!-- Node1 -->
<g id="Node000001" class="node">
<title>Node1</title>
<g id="a_Node000001"><a xlink:href="interfacecom_1_1teragrep_1_1cfe__16_1_1bo_1_1HECRecord.html" target="_top" xlink:title=" ">
<polygon fill="white" stroke="#666666" points="401,-547.5 212,-547.5 212,-528.5 401,-528.5 401,-547.5"/>
<text text-anchor="middle" x="306.5" y="-535.5" font-family="Helvetica,sans-Serif" font-size="10.00">com.teragrep.cfe_16.bo.HECRecord</text>
</a>
</g>
</g>
<!-- Node0&#45;&gt;Node1 -->
<g id="edge19_Node000000_Node000001" class="edge">
<title>Node0&#45;&gt;Node1</title>
<g id="a_edge19_Node000000_Node000001"><a xlink:title=" ">
<path fill="none" stroke="#63b8ff" d="M94.99,-344.92C114.94,-372.79 156.14,-427.35 199,-466 227.67,-491.86 266.23,-515.65 288.22,-528.36"/>
<polygon fill="#63b8ff" stroke="#63b8ff" points="97.7,-342.69 89.06,-336.55 91.98,-346.73 97.7,-342.69"/>
</a>
</g>
</g>
<!-- Node4 -->
<g id="Node000004" class="node">
<title>Node4</title>
<g id="a_Node000004"><a xlink:href="interfacecom_1_1teragrep_1_1cfe__16_1_1bo_1_1XForwardedFor.html" target="_top" xlink:title=" ">
<polygon fill="white" stroke="#666666" points="410.5,-456.5 202.5,-456.5 202.5,-437.5 410.5,-437.5 410.5,-456.5"/>
<text text-anchor="middle" x="306.5" y="-444.5" font-family="Helvetica,sans-Serif" font-size="10.00">com.teragrep.cfe_16.bo.XForwardedFor</text>
</a>
</g>
</g>
<!-- Node0&#45;&gt;Node4 -->
<g id="edge22_Node000000_Node000004" class="edge">
<title>Node0&#45;&gt;Node4</title>
<g id="a_edge22_Node000000_Node000004"><a xlink:title=" ">
<path fill="none" stroke="#63b8ff" d="M109.18,-341.36C155.22,-366.13 248.4,-416.27 287.54,-437.34"/>
<polygon fill="#63b8ff" stroke="#63b8ff" points="110.84,-338.27 100.37,-336.62 107.52,-344.44 110.84,-338.27"/>
</a>
</g>
</g>
<!-- Node7 -->
<g id="Node000007" class="node">
<title>Node7</title>
<g id="a_Node000007"><a xlink:href="interfacecom_1_1teragrep_1_1cfe__16_1_1bo_1_1XForwardedHost.html" target="_top" xlink:title=" ">
<polygon fill="white" stroke="#666666" points="414,-360.5 199,-360.5 199,-341.5 414,-341.5 414,-360.5"/>
<text text-anchor="middle" x="306.5" y="-348.5" font-family="Helvetica,sans-Serif" font-size="10.00">com.teragrep.cfe_16.bo.XForwardedHost</text>
</a>
</g>
</g>
<!-- Node0&#45;&gt;Node7 -->
<g id="edge25_Node000000_Node000007" class="edge">
<title>Node0&#45;&gt;Node7</title>
<g id="a_edge25_Node000000_Node000007"><a xlink:title=" ">
<path fill="none" stroke="#63b8ff" d="M173.01,-336.74C187.59,-338.31 202.66,-339.93 217.18,-341.5"/>
<polygon fill="#63b8ff" stroke="#63b8ff" points="173.33,-333.25 163.01,-335.66 172.58,-340.21 173.33,-333.25"/>
</a>
</g>
</g>
<!-- Node10 -->
<g id="Node000010" class="node">
<title>Node10</title>
<g id="a_Node000010"><a xlink:href="interfacecom_1_1teragrep_1_1cfe__16_1_1bo_1_1XForwardedProto.html" target="_top" xlink:title=" ">
<polygon fill="white" stroke="#666666" points="403,-318 210,-318 210,-288 403,-288 403,-318"/>
<text text-anchor="start" x="218" y="-306" font-family="Helvetica,sans-Serif" font-size="10.00">com.teragrep.cfe_16.bo.XForwarded</text>
<text text-anchor="middle" x="306.5" y="-295" font-family="Helvetica,sans-Serif" font-size="10.00">Proto</text>
</a>
</g>
</g>
<!-- Node0&#45;&gt;Node10 -->
<g id="edge28_Node000000_Node000010" class="edge">
<title>Node0&#45;&gt;Node10</title>
<g id="a_edge28_Node000000_Node000010"><a xlink:title=" ">
<path fill="none" stroke="#63b8ff" d="M173.1,-317.25C185.23,-315.94 197.71,-314.6 209.92,-313.29"/>
<polygon fill="#63b8ff" stroke="#63b8ff" points="172.58,-313.79 163.01,-318.34 173.33,-320.75 172.58,-313.79"/>
</a>
</g>
</g>
<!-- Node13 -->
<g id="Node000013" class="node">
<title>Node13</title>
<g id="a_Node000013"><a xlink:href="interfacecom_1_1teragrep_1_1cfe__16_1_1event_1_1EventMessage.html" target="_top" xlink:title="Interface for objects that work with the Event (message)">
<polygon fill="white" stroke="#666666" points="382,-222 231,-222 231,-192 382,-192 382,-222"/>
<text text-anchor="start" x="239" y="-210" font-family="Helvetica,sans-Serif" font-size="10.00">com.teragrep.cfe_16.event.</text>
<text text-anchor="middle" x="306.5" y="-199" font-family="Helvetica,sans-Serif" font-size="10.00">EventMessage</text>
</a>
</g>
</g>
<!-- Node0&#45;&gt;Node13 -->
<g id="edge31_Node000000_Node000013" class="edge">
<title>Node0&#45;&gt;Node13</title>
<g id="a_edge31_Node000000_Node000013"><a xlink:title=" ">
<path fill="none" stroke="#63b8ff" d="M109.3,-312.58C151.85,-289.68 234.42,-245.25 277.62,-222"/>
<polygon fill="#63b8ff" stroke="#63b8ff" points="107.52,-309.56 100.37,-317.38 110.84,-315.73 107.52,-309.56"/>
</a>
</g>
</g>
<!-- Node16 -->
<g id="Node000016" class="node">
<title>Node16</title>
<g id="a_Node000016"><a xlink:href="interfacecom_1_1teragrep_1_1cfe__16_1_1event_1_1time_1_1HECTime.html" target="_top" xlink:title=" ">
<polygon fill="white" stroke="#666666" points="394.5,-102 218.5,-102 218.5,-72 394.5,-72 394.5,-102"/>
<text text-anchor="start" x="226.5" y="-90" font-family="Helvetica,sans-Serif" font-size="10.00">com.teragrep.cfe_16.event.time.</text>
<text text-anchor="middle" x="306.5" y="-79" font-family="Helvetica,sans-Serif" font-size="10.00">HECTime</text>
</a>
</g>
</g>
<!-- Node0&#45;&gt;Node16 -->
<g id="edge34_Node000000_Node000016" class="edge">
<title>Node0&#45;&gt;Node16</title>
<g id="a_edge34_Node000000_Node000016"><a xlink:title=" ">
<path fill="none" stroke="#63b8ff" d="M95.54,-309.1C116.25,-281.11 158.45,-225.77 199,-183 227.94,-152.47 265.09,-120.41 286.99,-102.15"/>
<polygon fill="#63b8ff" stroke="#63b8ff" points="92.48,-307.35 89.38,-317.48 98.12,-311.5 92.48,-307.35"/>
</a>
</g>
</g>
<!-- Node2 -->
<g id="Node000002" class="node">
<title>Node2</title>
<g id="a_Node000002"><a xlink:href="classcom_1_1teragrep_1_1cfe__16_1_1bo_1_1HECRecordImpl.html" target="_top" xlink:title=" ">
<polygon fill="white" stroke="#666666" points="661,-584.5 450,-584.5 450,-565.5 661,-565.5 661,-584.5"/>
<text text-anchor="middle" x="555.5" y="-572.5" font-family="Helvetica,sans-Serif" font-size="10.00">com.teragrep.cfe_16.bo.HECRecordImpl</text>
</a>
</g>
</g>
<!-- Node1&#45;&gt;Node2 -->
<g id="edge20_Node000001_Node000002" class="edge">
<title>Node1&#45;&gt;Node2</title>
<g id="a_edge20_Node000001_Node000002"><a xlink:title=" ">
<path fill="none" stroke="#63b8ff" d="M381.22,-549.04C416.05,-554.26 457.21,-560.43 490.68,-565.44"/>
<polygon fill="#63b8ff" stroke="#63b8ff" points="381.52,-545.55 371.11,-547.53 380.48,-552.47 381.52,-545.55"/>
</a>
</g>
</g>
<!-- Node3 -->
<g id="Node000003" class="node">
<title>Node3</title>
<g id="a_Node000003"><a xlink:href="classcom_1_1teragrep_1_1cfe__16_1_1bo_1_1HECRecordStub.html" target="_top" xlink:title=" ">
<polygon fill="white" stroke="#666666" points="661,-547.5 450,-547.5 450,-528.5 661,-528.5 661,-547.5"/>
<text text-anchor="middle" x="555.5" y="-535.5" font-family="Helvetica,sans-Serif" font-size="10.00">com.teragrep.cfe_16.bo.HECRecordStub</text>
</a>
</g>
</g>
<!-- Node1&#45;&gt;Node3 -->
<g id="edge21_Node000001_Node000003" class="edge">
<title>Node1&#45;&gt;Node3</title>
<g id="a_edge21_Node000001_Node000003"><a xlink:title=" ">
<path fill="none" stroke="#63b8ff" d="M411.33,-538C424.02,-538 436.98,-538 449.68,-538"/>
<polygon fill="#63b8ff" stroke="#63b8ff" points="411.23,-534.5 401.23,-538 411.23,-541.5 411.23,-534.5"/>
</a>
</g>
</g>
<!-- Node5 -->
<g id="Node000005" class="node">
<title>Node5</title>
<g id="a_Node000005"><a xlink:href="classcom_1_1teragrep_1_1cfe__16_1_1bo_1_1XForwardedForImpl.html" target="_top" xlink:title=" ">
<polygon fill="white" stroke="#666666" points="652,-510 459,-510 459,-480 652,-480 652,-510"/>
<text text-anchor="start" x="467" y="-498" font-family="Helvetica,sans-Serif" font-size="10.00">com.teragrep.cfe_16.bo.XForwarded</text>
<text text-anchor="middle" x="555.5" y="-487" font-family="Helvetica,sans-Serif" font-size="10.00">ForImpl</text>
</a>
</g>
</g>
<!-- Node4&#45;&gt;Node5 -->
<g id="edge23_Node000004_Node000005" class="edge">
<title>Node4&#45;&gt;Node5</title>
<g id="a_edge23_Node000004_Node000005"><a xlink:title=" ">
<path fill="none" stroke="#63b8ff" d="M366.6,-458.48C399.77,-464.93 441.56,-473.05 477.29,-480"/>
<polygon fill="#63b8ff" stroke="#63b8ff" points="367.08,-455.01 356.59,-456.54 365.74,-461.88 367.08,-455.01"/>
</a>
</g>
</g>
<!-- Node6 -->
<g id="Node000006" class="node">
<title>Node6</title>
<g id="a_Node000006"><a xlink:href="classcom_1_1teragrep_1_1cfe__16_1_1bo_1_1XForwardedForStub.html" target="_top" xlink:title=" ">
<polygon fill="white" stroke="#666666" points="652,-462 459,-462 459,-432 652,-432 652,-462"/>
<text text-anchor="start" x="467" y="-450" font-family="Helvetica,sans-Serif" font-size="10.00">com.teragrep.cfe_16.bo.XForwarded</text>
<text text-anchor="middle" x="555.5" y="-439" font-family="Helvetica,sans-Serif" font-size="10.00">ForStub</text>
</a>
</g>
</g>
<!-- Node4&#45;&gt;Node6 -->
<g id="edge24_Node000004_Node000006" class="edge">
<title>Node4&#45;&gt;Node6</title>
<g id="a_edge24_Node000004_Node000006"><a xlink:title=" ">
<path fill="none" stroke="#63b8ff" d="M420.91,-447C433.54,-447 446.31,-447 458.69,-447"/>
<polygon fill="#63b8ff" stroke="#63b8ff" points="420.82,-443.5 410.82,-447 420.82,-450.5 420.82,-443.5"/>
</a>
</g>
</g>
<!-- Node8 -->
<g id="Node000008" class="node">
<title>Node8</title>
<g id="a_Node000008"><a xlink:href="classcom_1_1teragrep_1_1cfe__16_1_1bo_1_1XForwardedHostImpl.html" target="_top" xlink:title=" ">
<polygon fill="white" stroke="#666666" points="652,-414 459,-414 459,-384 652,-384 652,-414"/>
<text text-anchor="start" x="467" y="-402" font-family="Helvetica,sans-Serif" font-size="10.00">com.teragrep.cfe_16.bo.XForwarded</text>
<text text-anchor="middle" x="555.5" y="-391" font-family="Helvetica,sans-Serif" font-size="10.00">HostImpl</text>
</a>
</g>
</g>
<!-- Node7&#45;&gt;Node8 -->
<g id="edge26_Node000007_Node000008" class="edge">
<title>Node7&#45;&gt;Node8</title>
<g id="a_edge26_Node000007_Node000008"><a xlink:title=" ">
<path fill="none" stroke="#63b8ff" d="M366.6,-362.48C399.77,-368.93 441.56,-377.05 477.29,-384"/>
<polygon fill="#63b8ff" stroke="#63b8ff" points="367.08,-359.01 356.59,-360.54 365.74,-365.88 367.08,-359.01"/>
</a>
</g>
</g>
<!-- Node9 -->
<g id="Node000009" class="node">
<title>Node9</title>
<g id="a_Node000009"><a xlink:href="classcom_1_1teragrep_1_1cfe__16_1_1bo_1_1XForwardedHostStub.html" target="_top" xlink:title=" ">
<polygon fill="white" stroke="#666666" points="652,-366 459,-366 459,-336 652,-336 652,-366"/>
<text text-anchor="start" x="467" y="-354" font-family="Helvetica,sans-Serif" font-size="10.00">com.teragrep.cfe_16.bo.XForwarded</text>
<text text-anchor="middle" x="555.5" y="-343" font-family="Helvetica,sans-Serif" font-size="10.00">HostStub</text>
</a>
</g>
</g>
<!-- Node7&#45;&gt;Node9 -->
<g id="edge27_Node000007_Node000009" class="edge">
<title>Node7&#45;&gt;Node9</title>
<g id="a_edge27_Node000007_Node000009"><a xlink:title=" ">
<path fill="none" stroke="#63b8ff" d="M424.2,-351C435.8,-351 447.47,-351 458.81,-351"/>
<polygon fill="#63b8ff" stroke="#63b8ff" points="424.04,-347.5 414.04,-351 424.04,-354.5 424.04,-347.5"/>
</a>
</g>
</g>
<!-- Node11 -->
<g id="Node000011" class="node">
<title>Node11</title>
<g id="a_Node000011"><a xlink:href="classcom_1_1teragrep_1_1cfe__16_1_1bo_1_1XForwardedProtoImpl.html" target="_top" xlink:title=" ">
<polygon fill="white" stroke="#666666" points="652,-318 459,-318 459,-288 652,-288 652,-318"/>
<text text-anchor="start" x="467" y="-306" font-family="Helvetica,sans-Serif" font-size="10.00">com.teragrep.cfe_16.bo.XForwarded</text>
<text text-anchor="middle" x="555.5" y="-295" font-family="Helvetica,sans-Serif" font-size="10.00">ProtoImpl</text>
</a>
</g>
</g>
<!-- Node10&#45;&gt;Node11 -->
<g id="edge29_Node000010_Node000011" class="edge">
<title>Node10&#45;&gt;Node11</title>
<g id="a_edge29_Node000010_Node000011"><a xlink:title=" ">
<path fill="none" stroke="#63b8ff" d="M413.65,-303C428.62,-303 443.94,-303 458.7,-303"/>
<polygon fill="#63b8ff" stroke="#63b8ff" points="413.35,-299.5 403.35,-303 413.35,-306.5 413.35,-299.5"/>
</a>
</g>
</g>
<!-- Node12 -->
<g id="Node000012" class="node">
<title>Node12</title>
<g id="a_Node000012"><a xlink:href="classcom_1_1teragrep_1_1cfe__16_1_1bo_1_1XForwardedProtoStub.html" target="_top" xlink:title=" ">
<polygon fill="white" stroke="#666666" points="652,-270 459,-270 459,-240 652,-240 652,-270"/>
<text text-anchor="start" x="467" y="-258" font-family="Helvetica,sans-Serif" font-size="10.00">com.teragrep.cfe_16.bo.XForwarded</text>
<text text-anchor="middle" x="555.5" y="-247" font-family="Helvetica,sans-Serif" font-size="10.00">ProtoStub</text>
</a>
</g>
</g>
<!-- Node10&#45;&gt;Node12 -->
<g id="edge30_Node000010_Node000012" class="edge">
<title>Node10&#45;&gt;Node12</title>
<g id="a_edge30_Node000010_Node000012"><a xlink:title=" ">
<path fill="none" stroke="#63b8ff" d="M395.12,-285.97C421.94,-280.76 451.23,-275.07 477.3,-270"/>
<polygon fill="#63b8ff" stroke="#63b8ff" points="394.12,-282.6 384.97,-287.94 395.46,-289.47 394.12,-282.6"/>
</a>
</g>
</g>
<!-- Node14 -->
<g id="Node000014" class="node">
<title>Node14</title>
<g id="a_Node000014"><a xlink:href="classcom_1_1teragrep_1_1cfe__16_1_1event_1_1EventMessageImpl.html" target="_top" xlink:title=" ">
<polygon fill="white" stroke="#666666" points="631,-222 480,-222 480,-192 631,-192 631,-222"/>
<text text-anchor="start" x="488" y="-210" font-family="Helvetica,sans-Serif" font-size="10.00">com.teragrep.cfe_16.event.</text>
<text text-anchor="middle" x="555.5" y="-199" font-family="Helvetica,sans-Serif" font-size="10.00">EventMessageImpl</text>
</a>
</g>
</g>
<!-- Node13&#45;&gt;Node14 -->
<g id="edge32_Node000013_Node000014" class="edge">
<title>Node13&#45;&gt;Node14</title>
<g id="a_edge32_Node000013_Node000014"><a xlink:title=" ">
<path fill="none" stroke="#63b8ff" d="M392.6,-207C421.01,-207 452.43,-207 479.98,-207"/>
<polygon fill="#63b8ff" stroke="#63b8ff" points="392.28,-203.5 382.28,-207 392.28,-210.5 392.28,-203.5"/>
</a>
</g>
</g>
<!-- Node15 -->
<g id="Node000015" class="node">
<title>Node15</title>
<g id="a_Node000015"><a xlink:href="classcom_1_1teragrep_1_1cfe__16_1_1event_1_1EventMessageStub.html" target="_top" xlink:title=" ">
<polygon fill="white" stroke="#666666" points="631,-174 480,-174 480,-144 631,-144 631,-174"/>
<text text-anchor="start" x="488" y="-162" font-family="Helvetica,sans-Serif" font-size="10.00">com.teragrep.cfe_16.event.</text>
<text text-anchor="middle" x="555.5" y="-151" font-family="Helvetica,sans-Serif" font-size="10.00">EventMessageStub</text>
</a>
</g>
</g>
<!-- Node13&#45;&gt;Node15 -->
<g id="edge33_Node000013_Node000015" class="edge">
<title>Node13&#45;&gt;Node15</title>
<g id="a_edge33_Node000013_Node000015"><a xlink:title=" ">
<path fill="none" stroke="#63b8ff" d="M392.22,-190.54C420.73,-185 452.31,-178.86 479.98,-173.48"/>
<polygon fill="#63b8ff" stroke="#63b8ff" points="391.43,-187.12 382.28,-192.47 392.76,-194 391.43,-187.12"/>
</a>
</g>
</g>
<!-- Node17 -->
<g id="Node000017" class="node">
<title>Node17</title>
<g id="a_Node000017"><a xlink:href="classcom_1_1teragrep_1_1cfe__16_1_1event_1_1time_1_1HECTimeImpl.html" target="_top" xlink:title=" ">
<polygon fill="white" stroke="#666666" points="643.5,-126 467.5,-126 467.5,-96 643.5,-96 643.5,-126"/>
<text text-anchor="start" x="475.5" y="-114" font-family="Helvetica,sans-Serif" font-size="10.00">com.teragrep.cfe_16.event.time.</text>
<text text-anchor="middle" x="555.5" y="-103" font-family="Helvetica,sans-Serif" font-size="10.00">HECTimeImpl</text>
</a>
</g>
</g>
<!-- Node16&#45;&gt;Node17 -->
<g id="edge35_Node000016_Node000017" class="edge">
<title>Node16&#45;&gt;Node17</title>
<g id="a_edge35_Node000016_Node000017"><a xlink:title=" ">
<path fill="none" stroke="#63b8ff" d="M404.65,-96.44C425.35,-98.45 447.08,-100.56 467.37,-102.53"/>
<polygon fill="#63b8ff" stroke="#63b8ff" points="404.87,-92.95 394.58,-95.46 404.2,-99.91 404.87,-92.95"/>
</a>
</g>
</g>
<!-- Node18 -->
<g id="Node000018" class="node">
<title>Node18</title>
<g id="a_Node000018"><a xlink:href="classcom_1_1teragrep_1_1cfe__16_1_1event_1_1time_1_1HECTimeImplWithFallback.html" target="_top" xlink:title=" ">
<polygon fill="white" stroke="#666666" points="643.5,-78 467.5,-78 467.5,-48 643.5,-48 643.5,-78"/>
<text text-anchor="start" x="475.5" y="-66" font-family="Helvetica,sans-Serif" font-size="10.00">com.teragrep.cfe_16.event.time.</text>
<text text-anchor="middle" x="555.5" y="-55" font-family="Helvetica,sans-Serif" font-size="10.00">HECTimeImplWithFallback</text>
</a>
</g>
</g>
<!-- Node16&#45;&gt;Node18 -->
<g id="edge36_Node000016_Node000018" class="edge">
<title>Node16&#45;&gt;Node18</title>
<g id="a_edge36_Node000016_Node000018"><a xlink:title=" ">
<path fill="none" stroke="#63b8ff" d="M404.65,-77.56C425.35,-75.55 447.08,-73.44 467.37,-71.47"/>
<polygon fill="#63b8ff" stroke="#63b8ff" points="404.2,-74.09 394.58,-78.54 404.87,-81.05 404.2,-74.09"/>
</a>
</g>
</g>
<!-- Node19 -->
<g id="Node000019" class="node">
<title>Node19</title>
<g id="a_Node000019"><a xlink:href="classcom_1_1teragrep_1_1cfe__16_1_1event_1_1time_1_1HECTimeStub.html" target="_top" xlink:title=" ">
<polygon fill="white" stroke="#666666" points="643.5,-30 467.5,-30 467.5,0 643.5,0 643.5,-30"/>
<text text-anchor="start" x="475.5" y="-18" font-family="Helvetica,sans-Serif" font-size="10.00">com.teragrep.cfe_16.event.time.</text>
<text text-anchor="middle" x="555.5" y="-7" font-family="Helvetica,sans-Serif" font-size="10.00">HECTimeStub</text>
</a>
</g>
</g>
<!-- Node16&#45;&gt;Node19 -->
<g id="edge37_Node000016_Node000019" class="edge">
<title>Node16&#45;&gt;Node19</title>
<g id="a_edge37_Node000016_Node000019"><a xlink:title=" ">
<path fill="none" stroke="#63b8ff" d="M358.26,-68.54C385.3,-59.05 419.24,-47.69 450,-39 461.11,-35.86 472.96,-32.84 484.55,-30.05"/>
<polygon fill="#63b8ff" stroke="#63b8ff" points="356.89,-65.31 348.63,-71.94 359.22,-71.91 356.89,-65.31"/>
</a>
</g>
</g>
</g>
</svg>
