<?xml version="1.0" encoding="UTF-8" standalone="no"?>
<!DOCTYPE svg PUBLIC "-//W3C//DTD SVG 1.1//EN"
 "http://www.w3.org/Graphics/SVG/1.1/DTD/svg11.dtd">
<!-- Generated by graphviz version 2.43.0 (0)
 -->
<!-- Title: Graphical Class Hierarchy Pages: 1 -->
<svg width="398pt" height="172pt"
 viewBox="0.00 0.00 398.00 172.00" xmlns="http://www.w3.org/2000/svg" xmlns:xlink="http://www.w3.org/1999/xlink">
<g id="graph0" class="graph" transform="scale(1 1) rotate(0) translate(4 168)">
<title>Graphical Class Hierarchy</title>
<!-- Node0 -->
<g id="Node000000" class="node">
<title>Node0</title>
<g id="a_Node000000"><a xlink:title=" ">
<polygon fill="#e0e0e0" stroke="#999999" points="112.5,-158.5 25.5,-158.5 25.5,-139.5 112.5,-139.5 112.5,-158.5"/>
<text text-anchor="middle" x="69" y="-146.5" font-family="Helvetica,sans-Serif" font-size="10.00">AutoCloseable</text>
</a>
</g>
</g>
<!-- Node1 -->
<g id="Node000001" class="node">
<title>Node1</title>
<g id="a_Node000001"><a xlink:href="classcom_1_1teragrep_1_1cfe__16_1_1server_1_1TestServer.html" target="_top" xlink:title=" ">
<polygon fill="white" stroke="#666666" points="358.5,-164 205.5,-164 205.5,-134 358.5,-134 358.5,-164"/>
<text text-anchor="start" x="213.5" y="-152" font-family="Helvetica,sans-Serif" font-size="10.00">com.teragrep.cfe_16.server.</text>
<text text-anchor="middle" x="282" y="-141" font-family="Helvetica,sans-Serif" font-size="10.00">TestServer</text>
</a>
</g>
</g>
<!-- Node0&#45;&gt;Node1 -->
<g id="edge7_Node000000_Node000001" class="edge">
<title>Node0&#45;&gt;Node1</title>
<g id="a_edge7_Node000000_Node000001"><a xlink:title=" ">
<path fill="none" stroke="#63b8ff" d="M122.71,-149C147.73,-149 178.08,-149 205.49,-149"/>
<polygon fill="#63b8ff" stroke="#63b8ff" points="122.7,-145.5 112.7,-149 122.7,-152.5 122.7,-145.5"/>
</a>
</g>
</g>
<!-- Node4 -->
<g id="Node000004" class="node">
<title>Node4</title>
<g id="a_Node000004"><a xlink:href="interfacecom_1_1teragrep_1_1cfe__16_1_1LifeCycle.html" target="_top" xlink:title="An interface that own resources like threads for doing graceful shutdown.">
<polygon fill="white" stroke="#666666" points="138,-41 0,-41 0,-11 138,-11 138,-41"/>
<text text-anchor="start" x="8" y="-29" font-family="Helvetica,sans-Serif" font-size="10.00">com.teragrep.cfe_16.Life</text>
<text text-anchor="middle" x="69" y="-18" font-family="Helvetica,sans-Serif" font-size="10.00">Cycle</text>
</a>
</g>
</g>
<!-- Node3 -->
<g id="Node000003" class="node">
<title>Node3</title>
<g id="a_Node000003"><a xlink:href="classcom_1_1teragrep_1_1cfe__16_1_1Acknowledgements.html" target="_top" xlink:title=" ">
<polygon fill="white" stroke="#666666" points="390,-67.5 174,-67.5 174,-48.5 390,-48.5 390,-67.5"/>
<text text-anchor="middle" x="282" y="-55.5" font-family="Helvetica,sans-Serif" font-size="10.00">com.teragrep.cfe_16.Acknowledgements</text>
</a>
</g>
</g>
<!-- Node4&#45;&gt;Node3 -->
<g id="edge8_Node000004_Node000003" class="edge">
<title>Node4&#45;&gt;Node3</title>
<g id="a_edge8_Node000004_Node000003"><a xlink:title=" ">
<path fill="none" stroke="#63b8ff" d="M148.28,-37.87C171.28,-41.36 196.12,-45.13 218.03,-48.45"/>
<polygon fill="#63b8ff" stroke="#63b8ff" points="148.63,-34.38 138.21,-36.35 147.58,-41.31 148.63,-34.38"/>
</a>
</g>
</g>
<!-- Node5 -->
<g id="Node000005" class="node">
<title>Node5</title>
<g id="a_Node000005"><a xlink:href="classcom_1_1teragrep_1_1cfe__16_1_1SessionManager.html" target="_top" xlink:title=" ">
<polygon fill="white" stroke="#666666" points="361,-30 203,-30 203,0 361,0 361,-30"/>
<text text-anchor="start" x="211" y="-18" font-family="Helvetica,sans-Serif" font-size="10.00">com.teragrep.cfe_16.Session</text>
<text text-anchor="middle" x="282" y="-7" font-family="Helvetica,sans-Serif" font-size="10.00">Manager</text>
</a>
</g>
</g>
<!-- Node4&#45;&gt;Node5 -->
<g id="edge9_Node000004_Node000005" class="edge">
<title>Node4&#45;&gt;Node5</title>
<g id="a_edge9_Node000004_Node000005"><a xlink:title=" ">
<path fill="none" stroke="#63b8ff" d="M148.51,-21.91C166.23,-20.98 185.04,-20 202.76,-19.08"/>
<polygon fill="#63b8ff" stroke="#63b8ff" points="148.02,-18.43 138.21,-22.44 148.38,-25.42 148.02,-18.43"/>
</a>
</g>
</g>
<!-- Node2 -->
<g id="Node000002" class="node">
<title>Node2</title>
<g id="a_Node000002"><a xlink:title=" ">
<polygon fill="#e0e0e0" stroke="#999999" points="100,-89.5 38,-89.5 38,-70.5 100,-70.5 100,-89.5"/>
<text text-anchor="middle" x="69" y="-77.5" font-family="Helvetica,sans-Serif" font-size="10.00">Runnable</text>
</a>
</g>
</g>
<!-- Node2&#45;&gt;Node1 -->
<g id="edge13_Node000002_Node000001" class="edge">
<title>Node2&#45;&gt;Node1</title>
<g id="a_edge13_Node000002_Node000001"><a xlink:title=" ">
<path fill="none" stroke="#63b8ff" d="M98.26,-93.95C118.87,-103.69 147.67,-116.44 174,-125 184.14,-128.3 194.96,-131.3 205.68,-133.98"/>
<polygon fill="#63b8ff" stroke="#63b8ff" points="99.66,-90.74 89.13,-89.57 96.64,-97.05 99.66,-90.74"/>
</a>
</g>
</g>
<!-- Node2&#45;&gt;Node3 -->
<g id="edge10_Node000002_Node000003" class="edge">
<title>Node2&#45;&gt;Node3</title>
<g id="a_edge10_Node000002_Node000003"><a xlink:title=" ">
<path fill="none" stroke="#63b8ff" d="M110.41,-75.79C132.93,-73.44 161.94,-70.41 189.63,-67.53"/>
<polygon fill="#63b8ff" stroke="#63b8ff" points="109.81,-72.33 100.23,-76.85 110.54,-79.29 109.81,-72.33"/>
</a>
</g>
</g>
<!-- Node2&#45;&gt;Node5 -->
<g id="edge11_Node000002_Node000005" class="edge">
<title>Node2&#45;&gt;Node5</title>
<g id="a_edge11_Node000002_Node000005"><a xlink:title=" ">
<path fill="none" stroke="#63b8ff" d="M100.99,-66.32C121.43,-57.66 148.97,-46.69 174,-39 184.56,-35.76 195.82,-32.75 206.93,-30.04"/>
<polygon fill="#63b8ff" stroke="#63b8ff" points="99.37,-63.21 91.56,-70.36 102.13,-69.64 99.37,-63.21"/>
</a>
</g>
</g>
<!-- Node6 -->
<g id="Node000006" class="node">
<title>Node6</title>
<g id="a_Node000006"><a xlink:href="classcom_1_1teragrep_1_1cfe__16_1_1TestClient.html" target="_top" xlink:title="A multithreaded load test client for the cfe_16 server.">
<polygon fill="white" stroke="#666666" points="352,-116 212,-116 212,-86 352,-86 352,-116"/>
<text text-anchor="start" x="220" y="-104" font-family="Helvetica,sans-Serif" font-size="10.00">com.teragrep.cfe_16.Test</text>
<text text-anchor="middle" x="282" y="-93" font-family="Helvetica,sans-Serif" font-size="10.00">Client</text>
</a>
</g>
</g>
<!-- Node2&#45;&gt;Node6 -->
<g id="edge12_Node000002_Node000006" class="edge">
<title>Node2&#45;&gt;Node6</title>
<g id="a_edge12_Node000002_Node000006"><a xlink:title=" ">
<path fill="none" stroke="#63b8ff" d="M110.26,-84.01C138.87,-86.85 178.01,-90.75 211.6,-94.09"/>
<polygon fill="#63b8ff" stroke="#63b8ff" points="110.53,-80.52 100.23,-83.01 109.84,-87.48 110.53,-80.52"/>
</a>
</g>
</g>
</g>
</svg>
