<?xml version="1.0" encoding="UTF-8" standalone="no"?>
<!DOCTYPE svg PUBLIC "-//W3C//DTD SVG 1.1//EN"
 "http://www.w3.org/Graphics/SVG/1.1/DTD/svg11.dtd">
<!-- Generated by graphviz version 2.43.0 (0)
 -->
<!-- Title: com.teragrep.cfe_16.event.time.HECTime Pages: 1 -->
<svg width="595pt" height="134pt"
 viewBox="0.00 0.00 595.00 134.00" xmlns="http://www.w3.org/2000/svg" xmlns:xlink="http://www.w3.org/1999/xlink">
<g id="graph0" class="graph" transform="scale(1 1) rotate(0) translate(4 130)">
<title>com.teragrep.cfe_16.event.time.HECTime</title>
<!-- Node1 -->
<g id="Node000001" class="node">
<title>Node1</title>
<g id="a_Node000001"><a xlink:title=" ">
<polygon fill="#999999" stroke="#666666" points="375,-78 199,-78 199,-48 375,-48 375,-78"/>
<text text-anchor="start" x="207" y="-66" font-family="Helvetica,sans-Serif" font-size="10.00">com.teragrep.cfe_16.event.time.</text>
<text text-anchor="middle" x="287" y="-55" font-family="Helvetica,sans-Serif" font-size="10.00">HECTime</text>
</a>
</g>
</g>
<!-- Node3 -->
<g id="Node000003" class="node">
<title>Node3</title>
<g id="a_Node000003"><a xlink:href="classcom_1_1teragrep_1_1cfe__16_1_1event_1_1time_1_1HECTimeImpl.html" target="_top" xlink:title=" ">
<polygon fill="white" stroke="#666666" points="587,-126 411,-126 411,-96 587,-96 587,-126"/>
<text text-anchor="start" x="419" y="-114" font-family="Helvetica,sans-Serif" font-size="10.00">com.teragrep.cfe_16.event.time.</text>
<text text-anchor="middle" x="499" y="-103" font-family="Helvetica,sans-Serif" font-size="10.00">HECTimeImpl</text>
</a>
</g>
</g>
<!-- Node1&#45;&gt;Node3 -->
<g id="edge2_Node000001_Node000003" class="edge">
<title>Node1&#45;&gt;Node3</title>
<g id="a_edge2_Node000001_Node000003"><a xlink:title=" ">
<path fill="none" stroke="#63b8ff" d="M363.7,-80.3C386.17,-85.44 410.59,-91.02 432.36,-96"/>
<polygon fill="#63b8ff" stroke="#63b8ff" points="364.4,-76.87 353.87,-78.06 362.84,-83.7 364.4,-76.87"/>
</a>
</g>
</g>
<!-- Node4 -->
<g id="Node000004" class="node">
<title>Node4</title>
<g id="a_Node000004"><a xlink:href="classcom_1_1teragrep_1_1cfe__16_1_1event_1_1time_1_1HECTimeImplWithFallback.html" target="_top" xlink:title=" ">
<polygon fill="white" stroke="#666666" points="587,-78 411,-78 411,-48 587,-48 587,-78"/>
<text text-anchor="start" x="419" y="-66" font-family="Helvetica,sans-Serif" font-size="10.00">com.teragrep.cfe_16.event.time.</text>
<text text-anchor="middle" x="499" y="-55" font-family="Helvetica,sans-Serif" font-size="10.00">HECTimeImplWithFallback</text>
</a>
</g>
</g>
<!-- Node1&#45;&gt;Node4 -->
<g id="edge3_Node000001_Node000004" class="edge">
<title>Node1&#45;&gt;Node4</title>
<g id="a_edge3_Node000001_Node000004"><a xlink:title=" ">
<path fill="none" stroke="#63b8ff" d="M385.46,-63C393.88,-63 402.37,-63 410.7,-63"/>
<polygon fill="#63b8ff" stroke="#63b8ff" points="385.23,-59.5 375.23,-63 385.23,-66.5 385.23,-59.5"/>
</a>
</g>
</g>
<!-- Node5 -->
<g id="Node000005" class="node">
<title>Node5</title>
<g id="a_Node000005"><a xlink:href="classcom_1_1teragrep_1_1cfe__16_1_1event_1_1time_1_1HECTimeStub.html" target="_top" xlink:title=" ">
<polygon fill="white" stroke="#666666" points="587,-30 411,-30 411,0 587,0 587,-30"/>
<text text-anchor="start" x="419" y="-18" font-family="Helvetica,sans-Serif" font-size="10.00">com.teragrep.cfe_16.event.time.</text>
<text text-anchor="middle" x="499" y="-7" font-family="Helvetica,sans-Serif" font-size="10.00">HECTimeStub</text>
</a>
</g>
</g>
<!-- Node1&#45;&gt;Node5 -->
<g id="edge4_Node000001_Node000005" class="edge">
<title>Node1&#45;&gt;Node5</title>
<g id="a_edge4_Node000001_Node000005"><a xlink:title=" ">
<path fill="none" stroke="#63b8ff" d="M363.7,-45.7C386.17,-40.56 410.59,-34.98 432.36,-30"/>
<polygon fill="#63b8ff" stroke="#63b8ff" points="362.84,-42.3 353.87,-47.94 364.4,-49.13 362.84,-42.3"/>
</a>
</g>
</g>
<!-- Node2 -->
<g id="Node000002" class="node">
<title>Node2</title>
<g id="a_Node000002"><a xlink:href="interfacecom_1_1teragrep_1_1cfe__16_1_1Stubable.html" target="_top" xlink:title=" ">
<polygon fill="white" stroke="#666666" points="163,-72.5 0,-72.5 0,-53.5 163,-53.5 163,-72.5"/>
<text text-anchor="middle" x="81.5" y="-60.5" font-family="Helvetica,sans-Serif" font-size="10.00">com.teragrep.cfe_16.Stubable</text>
</a>
</g>
</g>
<!-- Node2&#45;&gt;Node1 -->
<g id="edge1_Node000001_Node000002" class="edge">
<title>Node2&#45;&gt;Node1</title>
<g id="a_edge1_Node000001_Node000002"><a xlink:title=" ">
<path fill="none" stroke="#63b8ff" d="M173.41,-63C181.81,-63 190.31,-63 198.68,-63"/>
<polygon fill="#63b8ff" stroke="#63b8ff" points="173.22,-59.5 163.22,-63 173.22,-66.5 173.22,-59.5"/>
</a>
</g>
</g>
</g>
</svg>
