<?xml version="1.0" encoding="UTF-8" standalone="no"?>
<!DOCTYPE svg PUBLIC "-//W3C//DTD SVG 1.1//EN"
 "http://www.w3.org/Graphics/SVG/1.1/DTD/svg11.dtd">
<!-- Generated by graphviz version 2.43.0 (0)
 -->
<!-- Title: com.teragrep.cfe_16.bo.HECRecord Pages: 1 -->
<svg width="448pt" height="137pt"
 viewBox="0.00 0.00 448.00 137.00" xmlns="http://www.w3.org/2000/svg" xmlns:xlink="http://www.w3.org/1999/xlink">
<g id="graph0" class="graph" transform="scale(1 1) rotate(0) translate(4 133)">
<title>com.teragrep.cfe_16.bo.HECRecord</title>
<!-- Node1 -->
<g id="Node000001" class="node">
<title>Node1</title>
<g id="a_Node000001"><a xlink:title=" ">
<polygon fill="#999999" stroke="#666666" points="314,-74 125,-74 125,-55 314,-55 314,-74"/>
<text text-anchor="middle" x="219.5" y="-62" font-family="Helvetica,sans-Serif" font-size="10.00">com.teragrep.cfe_16.bo.HECRecord</text>
</a>
</g>
</g>
<!-- Node3 -->
<g id="Node000003" class="node">
<title>Node3</title>
<g id="a_Node000003"><a xlink:href="classcom_1_1teragrep_1_1cfe__16_1_1bo_1_1HECRecordImpl.html" target="_top" xlink:title=" ">
<polygon fill="white" stroke="#666666" points="211,-19 0,-19 0,0 211,0 211,-19"/>
<text text-anchor="middle" x="105.5" y="-7" font-family="Helvetica,sans-Serif" font-size="10.00">com.teragrep.cfe_16.bo.HECRecordImpl</text>
</a>
</g>
</g>
<!-- Node1&#45;&gt;Node3 -->
<g id="edge2_Node000001_Node000003" class="edge">
<title>Node1&#45;&gt;Node3</title>
<g id="a_edge2_Node000001_Node000003"><a xlink:title=" ">
<path fill="none" stroke="#63b8ff" d="M192.11,-50.77C171.08,-40.99 142.61,-27.75 124.15,-19.17"/>
<polygon fill="#63b8ff" stroke="#63b8ff" points="190.64,-53.94 201.18,-54.98 193.59,-47.6 190.64,-53.94"/>
</a>
</g>
</g>
<!-- Node4 -->
<g id="Node000004" class="node">
<title>Node4</title>
<g id="a_Node000004"><a xlink:href="classcom_1_1teragrep_1_1cfe__16_1_1bo_1_1HECRecordStub.html" target="_top" xlink:title=" ">
<polygon fill="white" stroke="#666666" points="440,-19 229,-19 229,0 440,0 440,-19"/>
<text text-anchor="middle" x="334.5" y="-7" font-family="Helvetica,sans-Serif" font-size="10.00">com.teragrep.cfe_16.bo.HECRecordStub</text>
</a>
</g>
</g>
<!-- Node1&#45;&gt;Node4 -->
<g id="edge3_Node000001_Node000004" class="edge">
<title>Node1&#45;&gt;Node4</title>
<g id="a_edge3_Node000001_Node000004"><a xlink:title=" ">
<path fill="none" stroke="#63b8ff" d="M247.13,-50.77C268.34,-40.99 297.06,-27.75 315.69,-19.17"/>
<polygon fill="#63b8ff" stroke="#63b8ff" points="245.59,-47.62 237.98,-54.98 248.52,-53.98 245.59,-47.62"/>
</a>
</g>
</g>
<!-- Node2 -->
<g id="Node000002" class="node">
<title>Node2</title>
<g id="a_Node000002"><a xlink:href="interfacecom_1_1teragrep_1_1cfe__16_1_1Stubable.html" target="_top" xlink:title=" ">
<polygon fill="white" stroke="#666666" points="301,-129 138,-129 138,-110 301,-110 301,-129"/>
<text text-anchor="middle" x="219.5" y="-117" font-family="Helvetica,sans-Serif" font-size="10.00">com.teragrep.cfe_16.Stubable</text>
</a>
</g>
</g>
<!-- Node2&#45;&gt;Node1 -->
<g id="edge1_Node000001_Node000002" class="edge">
<title>Node2&#45;&gt;Node1</title>
<g id="a_edge1_Node000001_Node000002"><a xlink:title=" ">
<path fill="none" stroke="#63b8ff" d="M219.5,-99.66C219.5,-90.93 219.5,-80.99 219.5,-74.09"/>
<polygon fill="#63b8ff" stroke="#63b8ff" points="216,-99.75 219.5,-109.75 223,-99.75 216,-99.75"/>
</a>
</g>
</g>
</g>
</svg>
