<?xml version="1.0" encoding="UTF-8" standalone="no"?>
<!DOCTYPE svg PUBLIC "-//W3C//DTD SVG 1.1//EN"
 "http://www.w3.org/Graphics/SVG/1.1/DTD/svg11.dtd">
<!-- Generated by graphviz version 2.43.0 (0)
 -->
<!-- Title: com.teragrep.cfe_16.Acknowledgements.getCurrentAckValue Pages: 1 -->
<svg width="514pt" height="86pt"
 viewBox="0.00 0.00 514.00 86.00" xmlns="http://www.w3.org/2000/svg" xmlns:xlink="http://www.w3.org/1999/xlink">
<g id="graph0" class="graph" transform="scale(1 1) rotate(0) translate(4 82)">
<title>com.teragrep.cfe_16.Acknowledgements.getCurrentAckValue</title>
<!-- Node1 -->
<g id="Node000001" class="node">
<title>Node1</title>
<g id="a_Node000001"><a xlink:title="Returns the current Ack value for given token and channel.">
<polygon fill="#999999" stroke="#666666" points="235,-54 0,-54 0,-24 235,-24 235,-54"/>
<text text-anchor="start" x="8" y="-42" font-family="Helvetica,sans-Serif" font-size="10.00">com.teragrep.cfe_16.Acknowledgements.get</text>
<text text-anchor="middle" x="117.5" y="-31" font-family="Helvetica,sans-Serif" font-size="10.00">CurrentAckValue</text>
</a>
</g>
</g>
<!-- Node2 -->
<g id="Node000002" class="node">
<title>Node2</title>
<g id="a_Node000002"><a xlink:href="classcom_1_1teragrep_1_1cfe__16_1_1Acknowledgements_1_1State.html#aa1809213ec400ce2fccaff6cab3e244b" target="_top" xlink:title=" ">
<polygon fill="white" stroke="#666666" points="498,-78 279,-78 279,-48 498,-48 498,-78"/>
<text text-anchor="start" x="287" y="-66" font-family="Helvetica,sans-Serif" font-size="10.00">com.teragrep.cfe_16.Acknowledgements.</text>
<text text-anchor="middle" x="388.5" y="-55" font-family="Helvetica,sans-Serif" font-size="10.00">State.getCurrentAckValue</text>
</a>
</g>
</g>
<!-- Node1&#45;&gt;Node2 -->
<g id="edge1_Node000001_Node000002" class="edge">
<title>Node1&#45;&gt;Node2</title>
<g id="a_edge1_Node000001_Node000002"><a xlink:title=" ">
<path fill="none" stroke="#63b8ff" d="M235.31,-49.42C246.39,-50.41 257.62,-51.41 268.71,-52.4"/>
<polygon fill="#63b8ff" stroke="#63b8ff" points="268.58,-55.9 278.85,-53.31 269.2,-48.93 268.58,-55.9"/>
</a>
</g>
</g>
<!-- Node3 -->
<g id="Node000003" class="node">
<title>Node3</title>
<g id="a_Node000003"><a xlink:href="classcom_1_1teragrep_1_1cfe__16_1_1Acknowledgements.html#a0287e001c86209cd70554675e6dbf9eb" target="_top" xlink:title="A private Accessor for the State object indexed by the given auth token and channel.">
<polygon fill="white" stroke="#666666" points="506,-30 271,-30 271,0 506,0 506,-30"/>
<text text-anchor="start" x="279" y="-18" font-family="Helvetica,sans-Serif" font-size="10.00">com.teragrep.cfe_16.Acknowledgements.get</text>
<text text-anchor="middle" x="388.5" y="-7" font-family="Helvetica,sans-Serif" font-size="10.00">OrCreateState</text>
</a>
</g>
</g>
<!-- Node1&#45;&gt;Node3 -->
<g id="edge2_Node000001_Node000003" class="edge">
<title>Node1&#45;&gt;Node3</title>
<g id="a_edge2_Node000001_Node000003"><a xlink:title=" ">
<path fill="none" stroke="#63b8ff" d="M235.31,-28.58C243.77,-27.82 252.33,-27.06 260.84,-26.3"/>
<polygon fill="#63b8ff" stroke="#63b8ff" points="261.15,-29.79 270.8,-25.41 260.53,-22.81 261.15,-29.79"/>
</a>
</g>
</g>
</g>
</svg>
