<?xml version="1.0" encoding="UTF-8" standalone="no"?>
<!DOCTYPE svg PUBLIC "-//W3C//DTD SVG 1.1//EN"
 "http://www.w3.org/Graphics/SVG/1.1/DTD/svg11.dtd">
<!-- Generated by graphviz version 2.43.0 (0)
 -->
<!-- Title: com.teragrep.cfe_16.Acknowledgements.State.getAckMap Pages: 1 -->
<svg width="1114pt" height="401pt"
 viewBox="0.00 0.00 1114.00 400.50" xmlns="http://www.w3.org/2000/svg" xmlns:xlink="http://www.w3.org/1999/xlink">
<g id="graph0" class="graph" transform="scale(1 1) rotate(0) translate(4 396.5)">
<title>com.teragrep.cfe_16.Acknowledgements.State.getAckMap</title>
<!-- Node1 -->
<g id="Node000001" class="node">
<title>Node1</title>
<g id="a_Node000001"><a xlink:title=" ">
<polygon fill="#999999" stroke="#666666" points="1106,-211.5 887,-211.5 887,-181.5 1106,-181.5 1106,-211.5"/>
<text text-anchor="start" x="895" y="-199.5" font-family="Helvetica,sans-Serif" font-size="10.00">com.teragrep.cfe_16.Acknowledgements.</text>
<text text-anchor="middle" x="996.5" y="-188.5" font-family="Helvetica,sans-Serif" font-size="10.00">State.getAckMap</text>
</a>
</g>
</g>
<!-- Node2 -->
<g id="Node000002" class="node">
<title>Node2</title>
<g id="a_Node000002"><a xlink:href="classcom_1_1teragrep_1_1cfe__16_1_1Acknowledgements.html#a8c6f0dff735fde04e0bc670136eb57d2" target="_top" xlink:title=" ">
<polygon fill="white" stroke="#666666" points="851,-249 567,-249 567,-230 851,-230 851,-249"/>
<text text-anchor="middle" x="709" y="-237" font-family="Helvetica,sans-Serif" font-size="10.00">com.teragrep.cfe_16.Acknowledgements.acknowledge</text>
</a>
</g>
</g>
<!-- Node1&#45;&gt;Node2 -->
<g id="edge1_Node000001_Node000002" class="edge">
<title>Node1&#45;&gt;Node2</title>
<g id="a_edge1_Node000001_Node000002"><a xlink:title=" ">
<path fill="none" stroke="#63b8ff" d="M897.53,-213.19C881.98,-215.72 866.06,-218.24 851,-220.5 829.26,-223.77 805.6,-227.06 783.97,-229.97"/>
<polygon fill="#63b8ff" stroke="#63b8ff" points="898.39,-216.59 907.69,-211.53 897.26,-209.69 898.39,-216.59"/>
</a>
</g>
</g>
<!-- Node6 -->
<g id="Node000006" class="node">
<title>Node6</title>
<g id="a_Node000006"><a xlink:href="classcom_1_1teragrep_1_1cfe__16_1_1Acknowledgements.html#a7a9570efce9732f5f674e9ea85017439" target="_top" xlink:title=" ">
<polygon fill="white" stroke="#666666" points="830,-335.5 588,-335.5 588,-305.5 830,-305.5 830,-335.5"/>
<text text-anchor="start" x="596" y="-323.5" font-family="Helvetica,sans-Serif" font-size="10.00">com.teragrep.cfe_16.Acknowledgements.acks</text>
<text text-anchor="middle" x="709" y="-312.5" font-family="Helvetica,sans-Serif" font-size="10.00">Available</text>
</a>
</g>
</g>
<!-- Node1&#45;&gt;Node6 -->
<g id="edge5_Node000001_Node000006" class="edge">
<title>Node1&#45;&gt;Node6</title>
<g id="a_edge5_Node000001_Node000006"><a xlink:title=" ">
<path fill="none" stroke="#63b8ff" d="M969.65,-217.91C941.99,-239.72 896,-272.88 851,-291.5 837.37,-297.14 822.54,-301.71 807.78,-305.42"/>
<polygon fill="#63b8ff" stroke="#63b8ff" points="972,-220.52 977.62,-211.54 967.63,-215.05 972,-220.52"/>
</a>
</g>
</g>
<!-- Node7 -->
<g id="Node000007" class="node">
<title>Node7</title>
<g id="a_Node000007"><a xlink:href="classcom_1_1teragrep_1_1cfe__16_1_1Acknowledgements.html#a5307dc12a64ca957ae24430d09b372e1" target="_top" xlink:title=" ">
<polygon fill="white" stroke="#666666" points="531,-297.5 262,-297.5 262,-267.5 531,-267.5 531,-297.5"/>
<text text-anchor="start" x="270" y="-285.5" font-family="Helvetica,sans-Serif" font-size="10.00">com.teragrep.cfe_16.Acknowledgements.increment</text>
<text text-anchor="middle" x="396.5" y="-274.5" font-family="Helvetica,sans-Serif" font-size="10.00">AckValue</text>
</a>
</g>
</g>
<!-- Node1&#45;&gt;Node7 -->
<g id="edge20_Node000001_Node000007" class="edge">
<title>Node1&#45;&gt;Node7</title>
<g id="a_edge20_Node000001_Node000007"><a xlink:title=" ">
<path fill="none" stroke="#63b8ff" d="M959.36,-216.26C930.84,-230.79 889.57,-249.5 851,-258.5 745.42,-283.12 622.43,-288.22 531.19,-287.66"/>
<polygon fill="#63b8ff" stroke="#63b8ff" points="961.25,-219.22 968.52,-211.52 958.03,-213.01 961.25,-219.22"/>
</a>
</g>
</g>
<!-- Node11 -->
<g id="Node000011" class="node">
<title>Node11</title>
<g id="a_Node000011"><a xlink:href="classcom_1_1teragrep_1_1cfe__16_1_1Acknowledgements.html#a225a9f18c21826dc1bbc4ce0a82550ed" target="_top" xlink:title=" ">
<polygon fill="white" stroke="#666666" points="834,-163.5 584,-163.5 584,-133.5 834,-133.5 834,-163.5"/>
<text text-anchor="start" x="592" y="-151.5" font-family="Helvetica,sans-Serif" font-size="10.00">com.teragrep.cfe_16.Acknowledgements.delete</text>
<text text-anchor="middle" x="709" y="-140.5" font-family="Helvetica,sans-Serif" font-size="10.00">AckFromList</text>
</a>
</g>
</g>
<!-- Node1&#45;&gt;Node11 -->
<g id="edge12_Node000001_Node000011" class="edge">
<title>Node1&#45;&gt;Node11</title>
<g id="a_edge12_Node000001_Node000011"><a xlink:title=" ">
<path fill="none" stroke="#63b8ff" d="M895.86,-179.75C864.42,-174.46 829.9,-168.66 799.23,-163.5"/>
<polygon fill="#63b8ff" stroke="#63b8ff" points="895.51,-183.24 905.95,-181.44 896.67,-176.33 895.51,-183.24"/>
</a>
</g>
</g>
<!-- Node13 -->
<g id="Node000013" class="node">
<title>Node13</title>
<g id="a_Node000013"><a xlink:href="classcom_1_1teragrep_1_1cfe__16_1_1Acknowledgements.html#a524b6158e1c70b00480d167b944f14ad" target="_top" xlink:title="Returns the unmodifiable set of Acks for a channel.">
<polygon fill="white" stroke="#666666" points="826.5,-115.5 591.5,-115.5 591.5,-85.5 826.5,-85.5 826.5,-115.5"/>
<text text-anchor="start" x="599.5" y="-103.5" font-family="Helvetica,sans-Serif" font-size="10.00">com.teragrep.cfe_16.Acknowledgements.get</text>
<text text-anchor="middle" x="709" y="-92.5" font-family="Helvetica,sans-Serif" font-size="10.00">AckList</text>
</a>
</g>
</g>
<!-- Node1&#45;&gt;Node13 -->
<g id="edge14_Node000001_Node000013" class="edge">
<title>Node1&#45;&gt;Node13</title>
<g id="a_edge14_Node000001_Node000013"><a xlink:title=" ">
<path fill="none" stroke="#63b8ff" d="M962.13,-176.33C933.59,-159.96 890.91,-137.52 851,-124.5 840.5,-121.07 829.38,-118.11 818.19,-115.56"/>
<polygon fill="#63b8ff" stroke="#63b8ff" points="960.47,-179.41 970.88,-181.41 963.99,-173.36 960.47,-179.41"/>
</a>
</g>
</g>
<!-- Node14 -->
<g id="Node000014" class="node">
<title>Node14</title>
<g id="a_Node000014"><a xlink:href="classcom_1_1teragrep_1_1cfe__16_1_1Acknowledgements.html#a5287a2c95003a939f0314bc423d401cf" target="_top" xlink:title="Returns the size of the Ack set of given channel.">
<polygon fill="white" stroke="#666666" points="826.5,-67.5 591.5,-67.5 591.5,-37.5 826.5,-37.5 826.5,-67.5"/>
<text text-anchor="start" x="599.5" y="-55.5" font-family="Helvetica,sans-Serif" font-size="10.00">com.teragrep.cfe_16.Acknowledgements.get</text>
<text text-anchor="middle" x="709" y="-44.5" font-family="Helvetica,sans-Serif" font-size="10.00">AckListSize</text>
</a>
</g>
</g>
<!-- Node1&#45;&gt;Node14 -->
<g id="edge16_Node000001_Node000014" class="edge">
<title>Node1&#45;&gt;Node14</title>
<g id="a_edge16_Node000001_Node000014"><a xlink:title=" ">
<path fill="none" stroke="#63b8ff" d="M975.51,-173.79C949.69,-146.05 901.97,-99.93 851,-76.5 843.22,-72.92 834.97,-69.87 826.53,-67.27"/>
<polygon fill="#63b8ff" stroke="#63b8ff" points="973.16,-176.42 982.5,-181.43 978.33,-171.69 973.16,-176.42"/>
</a>
</g>
</g>
<!-- Node15 -->
<g id="Node000015" class="node">
<title>Node15</title>
<g id="a_Node000015"><a xlink:href="classcom_1_1teragrep_1_1cfe__16_1_1Acknowledgements.html#a991efdd07c7cbf8d24b5da93e342b55c" target="_top" xlink:title="Returns the Ack statuses of requested Ack id:s as a JSON node.">
<polygon fill="white" stroke="#666666" points="826.5,-211.5 591.5,-211.5 591.5,-181.5 826.5,-181.5 826.5,-211.5"/>
<text text-anchor="start" x="599.5" y="-199.5" font-family="Helvetica,sans-Serif" font-size="10.00">com.teragrep.cfe_16.Acknowledgements.get</text>
<text text-anchor="middle" x="709" y="-188.5" font-family="Helvetica,sans-Serif" font-size="10.00">RequestedAckStatuses</text>
</a>
</g>
</g>
<!-- Node1&#45;&gt;Node15 -->
<g id="edge18_Node000001_Node000015" class="edge">
<title>Node1&#45;&gt;Node15</title>
<g id="a_edge18_Node000001_Node000015"><a xlink:title=" ">
<path fill="none" stroke="#63b8ff" d="M876.52,-196.5C859.99,-196.5 843.02,-196.5 826.53,-196.5"/>
<polygon fill="#63b8ff" stroke="#63b8ff" points="876.75,-200 886.75,-196.5 876.75,-193 876.75,-200"/>
</a>
</g>
</g>
<!-- Node16 -->
<g id="Node000016" class="node">
<title>Node16</title>
<g id="a_Node000016"><a xlink:href="classcom_1_1teragrep_1_1cfe__16_1_1Acknowledgements.html#a9544ac800392336cc3fa19b72234d014" target="_top" xlink:title="Checks if the Ack with a given id is acknowledged.">
<polygon fill="white" stroke="#666666" points="510,-390.5 283,-390.5 283,-360.5 510,-360.5 510,-390.5"/>
<text text-anchor="start" x="291" y="-378.5" font-family="Helvetica,sans-Serif" font-size="10.00">com.teragrep.cfe_16.Acknowledgements.is</text>
<text text-anchor="middle" x="396.5" y="-367.5" font-family="Helvetica,sans-Serif" font-size="10.00">AckAcknowledged</text>
</a>
</g>
</g>
<!-- Node1&#45;&gt;Node16 -->
<g id="edge21_Node000001_Node000016" class="edge">
<title>Node1&#45;&gt;Node16</title>
<g id="a_edge21_Node000001_Node000016"><a xlink:title=" ">
<path fill="none" stroke="#63b8ff" d="M980.69,-220.24C957.72,-254.65 909.95,-317.26 851,-344.5 743.18,-394.31 605.4,-396.27 510.14,-389.43"/>
<polygon fill="#63b8ff" stroke="#63b8ff" points="983.71,-222.02 986.25,-211.73 977.85,-218.19 983.71,-222.02"/>
</a>
</g>
</g>
<!-- Node17 -->
<g id="Node000017" class="node">
<title>Node17</title>
<g id="a_Node000017"><a xlink:href="classcom_1_1teragrep_1_1cfe__16_1_1Acknowledgements.html#a2d2acb3e9942fdb720439eaad8fa1f5c" target="_top" xlink:title=" ">
<polygon fill="white" stroke="#666666" points="826.5,-19 591.5,-19 591.5,0 826.5,0 826.5,-19"/>
<text text-anchor="middle" x="709" y="-7" font-family="Helvetica,sans-Serif" font-size="10.00">com.teragrep.cfe_16.Acknowledgements.run</text>
</a>
</g>
</g>
<!-- Node1&#45;&gt;Node17 -->
<g id="edge23_Node000001_Node000017" class="edge">
<title>Node1&#45;&gt;Node17</title>
<g id="a_edge23_Node000001_Node000017"><a xlink:title=" ">
<path fill="none" stroke="#63b8ff" d="M982.7,-172.63C961.08,-134.94 913.5,-62.42 851,-28.5 843.4,-24.38 835.25,-21.03 826.83,-18.31"/>
<polygon fill="#63b8ff" stroke="#63b8ff" points="979.68,-174.41 987.63,-181.42 985.79,-170.99 979.68,-174.41"/>
</a>
</g>
</g>
<!-- Node3 -->
<g id="Node000003" class="node">
<title>Node3</title>
<g id="a_Node000003"><a xlink:href="classcom_1_1teragrep_1_1cfe__16_1_1it_1_1AcknowledgementsIT.html#ad7d230669d75e6c83a2d4364e6ce1a10" target="_top" xlink:title=" ">
<polygon fill="white" stroke="#666666" points="226,-392.5 0,-392.5 0,-362.5 226,-362.5 226,-392.5"/>
<text text-anchor="start" x="8" y="-380.5" font-family="Helvetica,sans-Serif" font-size="10.00">com.teragrep.cfe_16.it.Acknowledgements</text>
<text text-anchor="middle" x="113" y="-369.5" font-family="Helvetica,sans-Serif" font-size="10.00">IT.acknowledgeTest</text>
</a>
</g>
</g>
<!-- Node2&#45;&gt;Node3 -->
<g id="edge2_Node000002_Node000003" class="edge">
<title>Node2&#45;&gt;Node3</title>
<g id="a_edge2_Node000002_Node000003"><a xlink:title=" ">
<path fill="none" stroke="#63b8ff" d="M677.34,-253.22C642.52,-268.3 583.69,-292.27 531,-306.5 413.98,-338.11 381.47,-331.01 262,-351.5 241.56,-355.01 219.54,-358.84 198.9,-362.46"/>
<polygon fill="#63b8ff" stroke="#63b8ff" points="679.16,-256.24 686.92,-249.03 676.36,-249.83 679.16,-256.24"/>
</a>
</g>
</g>
<!-- Node4 -->
<g id="Node000004" class="node">
<title>Node4</title>
<g id="a_Node000004"><a xlink:href="classcom_1_1teragrep_1_1cfe__16_1_1it_1_1AcknowledgementsIT.html#adf6b572a31548b5d7c7e9780f8f79bac" target="_top" xlink:title=" ">
<polygon fill="white" stroke="#666666" points="509.5,-211.5 283.5,-211.5 283.5,-181.5 509.5,-181.5 509.5,-211.5"/>
<text text-anchor="start" x="291.5" y="-199.5" font-family="Helvetica,sans-Serif" font-size="10.00">com.teragrep.cfe_16.it.Acknowledgements</text>
<text text-anchor="middle" x="396.5" y="-188.5" font-family="Helvetica,sans-Serif" font-size="10.00">IT.getRequestedAckStatusesTest</text>
</a>
</g>
</g>
<!-- Node2&#45;&gt;Node4 -->
<g id="edge3_Node000002_Node000004" class="edge">
<title>Node2&#45;&gt;Node4</title>
<g id="a_edge3_Node000002_Node000004"><a xlink:title=" ">
<path fill="none" stroke="#63b8ff" d="M626.55,-228.62C607.04,-225.99 586.27,-223.16 567,-220.5 546.24,-217.63 524.07,-214.52 502.82,-211.52"/>
<polygon fill="#63b8ff" stroke="#63b8ff" points="626.24,-232.11 636.62,-229.98 627.18,-225.17 626.24,-232.11"/>
</a>
</g>
</g>
<!-- Node5 -->
<g id="Node000005" class="node">
<title>Node5</title>
<g id="a_Node000005"><a xlink:href="classcom_1_1teragrep_1_1cfe__16_1_1service_1_1HECServiceImpl.html#a9ed9a0d5772181625f00edce5a2c611d" target="_top" xlink:title="Returns the JSON object as a response of given HTTP event request.">
<polygon fill="white" stroke="#666666" points="192,-200.5 34,-200.5 34,-170.5 192,-170.5 192,-200.5"/>
<text text-anchor="start" x="42" y="-188.5" font-family="Helvetica,sans-Serif" font-size="10.00">com.teragrep.cfe_16.service.</text>
<text text-anchor="middle" x="113" y="-177.5" font-family="Helvetica,sans-Serif" font-size="10.00">HECServiceImpl.sendEvents</text>
</a>
</g>
</g>
<!-- Node2&#45;&gt;Node5 -->
<g id="edge4_Node000002_Node000005" class="edge">
<title>Node2&#45;&gt;Node5</title>
<g id="a_edge4_Node000002_Node000005"><a xlink:title=" ">
<path fill="none" stroke="#63b8ff" d="M556.73,-242.54C469.91,-241.93 359.18,-237.14 262,-220.5 245.51,-217.68 242.19,-213.7 226,-209.5 213.97,-206.38 201.14,-203.35 188.61,-200.56"/>
<polygon fill="#63b8ff" stroke="#63b8ff" points="556.9,-246.05 566.92,-242.6 556.94,-239.05 556.9,-246.05"/>
</a>
</g>
</g>
<!-- Node6&#45;&gt;Node7 -->
<g id="edge6_Node000006_Node000007" class="edge">
<title>Node6&#45;&gt;Node7</title>
<g id="a_edge6_Node000006_Node000007"><a xlink:title=" ">
<path fill="none" stroke="#63b8ff" d="M578.01,-304.59C558.9,-302.25 539.27,-299.85 520.3,-297.53"/>
<polygon fill="#63b8ff" stroke="#63b8ff" points="577.6,-308.07 587.95,-305.81 578.45,-301.12 577.6,-308.07"/>
</a>
</g>
</g>
<!-- Node7&#45;&gt;Node3 -->
<g id="edge7_Node000007_Node000003" class="edge">
<title>Node7&#45;&gt;Node3</title>
<g id="a_edge7_Node000007_Node000003"><a xlink:title=" ">
<path fill="none" stroke="#63b8ff" d="M298.05,-300.57C285.49,-304.83 273.14,-310.06 262,-316.5 242.14,-327.98 246.08,-342.4 226,-353.5 219.74,-356.96 213.02,-359.93 206.1,-362.47"/>
<polygon fill="#63b8ff" stroke="#63b8ff" points="299.21,-303.88 307.68,-297.51 297.09,-297.21 299.21,-303.88"/>
</a>
</g>
</g>
<!-- Node7&#45;&gt;Node5 -->
<g id="edge11_Node000007_Node000005" class="edge">
<title>Node7&#45;&gt;Node5</title>
<g id="a_edge11_Node000007_Node000005"><a xlink:title=" ">
<path fill="none" stroke="#63b8ff" d="M282.35,-263.75C275.25,-260.81 268.4,-257.42 262,-253.5 240.45,-240.3 247.57,-222.67 226,-209.5 215.73,-203.23 204.06,-198.59 192.22,-195.14"/>
<polygon fill="#63b8ff" stroke="#63b8ff" points="281.57,-267.19 292.16,-267.47 284.06,-260.65 281.57,-267.19"/>
</a>
</g>
</g>
<!-- Node8 -->
<g id="Node000008" class="node">
<title>Node8</title>
<g id="a_Node000008"><a xlink:href="classcom_1_1teragrep_1_1cfe__16_1_1it_1_1AcknowledgementsIT.html#a28a8273d6b136df113665a5032aa8ca3" target="_top" xlink:title=" ">
<polygon fill="white" stroke="#666666" points="226,-344.5 0,-344.5 0,-314.5 226,-314.5 226,-344.5"/>
<text text-anchor="start" x="8" y="-332.5" font-family="Helvetica,sans-Serif" font-size="10.00">com.teragrep.cfe_16.it.Acknowledgements</text>
<text text-anchor="middle" x="113" y="-321.5" font-family="Helvetica,sans-Serif" font-size="10.00">IT.getCurrentAckValueAndIncrementTest</text>
</a>
</g>
</g>
<!-- Node7&#45;&gt;Node8 -->
<g id="edge8_Node000007_Node000008" class="edge">
<title>Node7&#45;&gt;Node8</title>
<g id="a_edge8_Node000007_Node000008"><a xlink:title=" ">
<path fill="none" stroke="#63b8ff" d="M295.63,-299.17C265.75,-304.16 233.16,-309.6 203.95,-314.48"/>
<polygon fill="#63b8ff" stroke="#63b8ff" points="296.37,-302.6 305.66,-297.5 295.22,-295.7 296.37,-302.6"/>
</a>
</g>
</g>
<!-- Node9 -->
<g id="Node000009" class="node">
<title>Node9</title>
<g id="a_Node000009"><a xlink:href="classcom_1_1teragrep_1_1cfe__16_1_1it_1_1AcknowledgementsIT.html#afc4e73cfb46d7fbc19edc8d2c177e6bf" target="_top" xlink:title=" ">
<polygon fill="white" stroke="#666666" points="226,-296.5 0,-296.5 0,-266.5 226,-266.5 226,-296.5"/>
<text text-anchor="start" x="8" y="-284.5" font-family="Helvetica,sans-Serif" font-size="10.00">com.teragrep.cfe_16.it.Acknowledgements</text>
<text text-anchor="middle" x="113" y="-273.5" font-family="Helvetica,sans-Serif" font-size="10.00">IT.getCurrentAckValueTest</text>
</a>
</g>
</g>
<!-- Node7&#45;&gt;Node9 -->
<g id="edge9_Node000007_Node000009" class="edge">
<title>Node7&#45;&gt;Node9</title>
<g id="a_edge9_Node000007_Node000009"><a xlink:title=" ">
<path fill="none" stroke="#63b8ff" d="M251.69,-281.99C243.12,-281.96 234.57,-281.93 226.15,-281.9"/>
<polygon fill="#63b8ff" stroke="#63b8ff" points="251.75,-285.49 261.76,-282.02 251.77,-278.49 251.75,-285.49"/>
</a>
</g>
</g>
<!-- Node10 -->
<g id="Node000010" class="node">
<title>Node10</title>
<g id="a_Node000010"><a xlink:href="classcom_1_1teragrep_1_1cfe__16_1_1it_1_1AcknowledgementsIT.html#a91fed96b6fad0dfd378ba9b0fa7fe5ed" target="_top" xlink:title=" ">
<polygon fill="white" stroke="#666666" points="226,-248.5 0,-248.5 0,-218.5 226,-218.5 226,-248.5"/>
<text text-anchor="start" x="8" y="-236.5" font-family="Helvetica,sans-Serif" font-size="10.00">com.teragrep.cfe_16.it.Acknowledgements</text>
<text text-anchor="middle" x="113" y="-225.5" font-family="Helvetica,sans-Serif" font-size="10.00">IT.maxAckValueTest</text>
</a>
</g>
</g>
<!-- Node7&#45;&gt;Node10 -->
<g id="edge10_Node000007_Node000010" class="edge">
<title>Node7&#45;&gt;Node10</title>
<g id="a_edge10_Node000007_Node000010"><a xlink:title=" ">
<path fill="none" stroke="#63b8ff" d="M299.27,-265.75C267.13,-260.16 231.54,-253.96 200.21,-248.51"/>
<polygon fill="#63b8ff" stroke="#63b8ff" points="298.68,-269.2 309.13,-267.47 299.88,-262.3 298.68,-269.2"/>
</a>
</g>
</g>
<!-- Node12 -->
<g id="Node000012" class="node">
<title>Node12</title>
<g id="a_Node000012"><a xlink:href="classcom_1_1teragrep_1_1cfe__16_1_1it_1_1AcknowledgementsIT.html#a145cd25807c91ed7c62729cf106b5bbc" target="_top" xlink:title=" ">
<polygon fill="white" stroke="#666666" points="509.5,-115.5 283.5,-115.5 283.5,-85.5 509.5,-85.5 509.5,-115.5"/>
<text text-anchor="start" x="291.5" y="-103.5" font-family="Helvetica,sans-Serif" font-size="10.00">com.teragrep.cfe_16.it.Acknowledgements</text>
<text text-anchor="middle" x="396.5" y="-92.5" font-family="Helvetica,sans-Serif" font-size="10.00">IT.deleteAckTest</text>
</a>
</g>
</g>
<!-- Node11&#45;&gt;Node12 -->
<g id="edge13_Node000011_Node000012" class="edge">
<title>Node11&#45;&gt;Node12</title>
<g id="a_edge13_Node000011_Node000012"><a xlink:title=" ">
<path fill="none" stroke="#63b8ff" d="M600.52,-131.88C566.09,-126.56 528.19,-120.7 494.55,-115.5"/>
<polygon fill="#63b8ff" stroke="#63b8ff" points="600.19,-135.38 610.61,-133.44 601.26,-128.46 600.19,-135.38"/>
</a>
</g>
</g>
<!-- Node13&#45;&gt;Node12 -->
<g id="edge15_Node000013_Node000012" class="edge">
<title>Node13&#45;&gt;Node12</title>
<g id="a_edge15_Node000013_Node000012"><a xlink:title=" ">
<path fill="none" stroke="#63b8ff" d="M581.36,-100.5C557.56,-100.5 532.83,-100.5 509.51,-100.5"/>
<polygon fill="#63b8ff" stroke="#63b8ff" points="581.5,-104 591.5,-100.5 581.5,-97 581.5,-104"/>
</a>
</g>
</g>
<!-- Node14&#45;&gt;Node12 -->
<g id="edge17_Node000014_Node000012" class="edge">
<title>Node14&#45;&gt;Node12</title>
<g id="a_edge17_Node000014_Node000012"><a xlink:title=" ">
<path fill="none" stroke="#63b8ff" d="M600.52,-69.12C566.09,-74.44 528.19,-80.3 494.55,-85.5"/>
<polygon fill="#63b8ff" stroke="#63b8ff" points="601.26,-72.54 610.61,-67.56 600.19,-65.62 601.26,-72.54"/>
</a>
</g>
</g>
<!-- Node15&#45;&gt;Node4 -->
<g id="edge19_Node000015_Node000004" class="edge">
<title>Node15&#45;&gt;Node4</title>
<g id="a_edge19_Node000015_Node000004"><a xlink:title=" ">
<path fill="none" stroke="#63b8ff" d="M581.36,-196.5C557.56,-196.5 532.83,-196.5 509.51,-196.5"/>
<polygon fill="#63b8ff" stroke="#63b8ff" points="581.5,-200 591.5,-196.5 581.5,-193 581.5,-200"/>
</a>
</g>
</g>
<!-- Node16&#45;&gt;Node3 -->
<g id="edge22_Node000016_Node000003" class="edge">
<title>Node16&#45;&gt;Node3</title>
<g id="a_edge22_Node000016_Node000003"><a xlink:title=" ">
<path fill="none" stroke="#63b8ff" d="M272.59,-376.37C257.25,-376.48 241.62,-376.59 226.44,-376.7"/>
<polygon fill="#63b8ff" stroke="#63b8ff" points="272.65,-379.87 282.63,-376.3 272.6,-372.87 272.65,-379.87"/>
</a>
</g>
</g>
</g>
</svg>
