<?xml version="1.0" encoding="UTF-8" standalone="no"?>
<!DOCTYPE svg PUBLIC "-//W3C//DTD SVG 1.1//EN"
 "http://www.w3.org/Graphics/SVG/1.1/DTD/svg11.dtd">
<!-- Generated by graphviz version 2.43.0 (0)
 -->
<!-- Title: com.teragrep.cfe_16.Acknowledgements.initializeContext Pages: 1 -->
<svg width="764pt" height="182pt"
 viewBox="0.00 0.00 764.00 182.00" xmlns="http://www.w3.org/2000/svg" xmlns:xlink="http://www.w3.org/1999/xlink">
<g id="graph0" class="graph" transform="scale(1 1) rotate(0) translate(4 178)">
<title>com.teragrep.cfe_16.Acknowledgements.initializeContext</title>
<!-- Node1 -->
<g id="Node000001" class="node">
<title>Node1</title>
<g id="a_Node000001"><a xlink:title="This method has to be called first before calling any other Ack related methods.">
<polygon fill="#999999" stroke="#666666" points="756,-102 495,-102 495,-72 756,-72 756,-102"/>
<text text-anchor="start" x="503" y="-90" font-family="Helvetica,sans-Serif" font-size="10.00">com.teragrep.cfe_16.Acknowledgements.initialize</text>
<text text-anchor="middle" x="625.5" y="-79" font-family="Helvetica,sans-Serif" font-size="10.00">Context</text>
</a>
</g>
</g>
<!-- Node2 -->
<g id="Node000002" class="node">
<title>Node2</title>
<g id="a_Node000002"><a xlink:href="classcom_1_1teragrep_1_1cfe__16_1_1it_1_1AcknowledgementsIT.html#ad7d230669d75e6c83a2d4364e6ce1a10" target="_top" xlink:title=" ">
<polygon fill="white" stroke="#666666" points="459,-174 233,-174 233,-144 459,-144 459,-174"/>
<text text-anchor="start" x="241" y="-162" font-family="Helvetica,sans-Serif" font-size="10.00">com.teragrep.cfe_16.it.Acknowledgements</text>
<text text-anchor="middle" x="346" y="-151" font-family="Helvetica,sans-Serif" font-size="10.00">IT.acknowledgeTest</text>
</a>
</g>
</g>
<!-- Node1&#45;&gt;Node2 -->
<g id="edge1_Node000001_Node000002" class="edge">
<title>Node1&#45;&gt;Node2</title>
<g id="a_edge1_Node000001_Node000002"><a xlink:title=" ">
<path fill="none" stroke="#63b8ff" d="M565.93,-105.09C534.39,-114.55 494.73,-126 459,-135 446.66,-138.11 433.49,-141.16 420.67,-143.99"/>
<polygon fill="#63b8ff" stroke="#63b8ff" points="567.3,-108.33 575.87,-102.09 565.28,-101.63 567.3,-108.33"/>
</a>
</g>
</g>
<!-- Node3 -->
<g id="Node000003" class="node">
<title>Node3</title>
<g id="a_Node000003"><a xlink:href="classcom_1_1teragrep_1_1cfe__16_1_1EventManager.html#a7b24737679da20559ee1da24b25eed93" target="_top" xlink:title=" ">
<polygon fill="white" stroke="#666666" points="420,-126 272,-126 272,-96 420,-96 420,-126"/>
<text text-anchor="start" x="280" y="-114" font-family="Helvetica,sans-Serif" font-size="10.00">com.teragrep.cfe_16.Event</text>
<text text-anchor="middle" x="346" y="-103" font-family="Helvetica,sans-Serif" font-size="10.00">Manager.convertData</text>
</a>
</g>
</g>
<!-- Node1&#45;&gt;Node3 -->
<g id="edge2_Node000001_Node000003" class="edge">
<title>Node1&#45;&gt;Node3</title>
<g id="a_edge2_Node000001_Node000003"><a xlink:title=" ">
<path fill="none" stroke="#63b8ff" d="M484.5,-99.11C462.32,-101.03 440.18,-102.94 420.35,-104.66"/>
<polygon fill="#63b8ff" stroke="#63b8ff" points="485.03,-102.58 494.69,-98.23 484.42,-95.6 485.03,-102.58"/>
</a>
</g>
</g>
<!-- Node6 -->
<g id="Node000006" class="node">
<title>Node6</title>
<g id="a_Node000006"><a xlink:href="classcom_1_1teragrep_1_1cfe__16_1_1it_1_1AcknowledgementsIT.html#a145cd25807c91ed7c62729cf106b5bbc" target="_top" xlink:title=" ">
<polygon fill="white" stroke="#666666" points="459,-78 233,-78 233,-48 459,-48 459,-78"/>
<text text-anchor="start" x="241" y="-66" font-family="Helvetica,sans-Serif" font-size="10.00">com.teragrep.cfe_16.it.Acknowledgements</text>
<text text-anchor="middle" x="346" y="-55" font-family="Helvetica,sans-Serif" font-size="10.00">IT.deleteAckTest</text>
</a>
</g>
</g>
<!-- Node1&#45;&gt;Node6 -->
<g id="edge5_Node000001_Node000006" class="edge">
<title>Node1&#45;&gt;Node6</title>
<g id="a_edge5_Node000001_Node000006"><a xlink:title=" ">
<path fill="none" stroke="#63b8ff" d="M484.68,-74.91C476.14,-74.17 467.62,-73.43 459.23,-72.71"/>
<polygon fill="#63b8ff" stroke="#63b8ff" points="484.42,-78.4 494.69,-75.77 485.03,-71.42 484.42,-78.4"/>
</a>
</g>
</g>
<!-- Node7 -->
<g id="Node000007" class="node">
<title>Node7</title>
<g id="a_Node000007"><a xlink:href="classcom_1_1teragrep_1_1cfe__16_1_1it_1_1AcknowledgementsIT.html#adf6b572a31548b5d7c7e9780f8f79bac" target="_top" xlink:title=" ">
<polygon fill="white" stroke="#666666" points="459,-30 233,-30 233,0 459,0 459,-30"/>
<text text-anchor="start" x="241" y="-18" font-family="Helvetica,sans-Serif" font-size="10.00">com.teragrep.cfe_16.it.Acknowledgements</text>
<text text-anchor="middle" x="346" y="-7" font-family="Helvetica,sans-Serif" font-size="10.00">IT.getRequestedAckStatusesTest</text>
</a>
</g>
</g>
<!-- Node1&#45;&gt;Node7 -->
<g id="edge6_Node000001_Node000007" class="edge">
<title>Node1&#45;&gt;Node7</title>
<g id="a_edge6_Node000001_Node000007"><a xlink:title=" ">
<path fill="none" stroke="#63b8ff" d="M565.93,-68.91C534.39,-59.45 494.73,-48 459,-39 446.66,-35.89 433.49,-32.84 420.67,-30.01"/>
<polygon fill="#63b8ff" stroke="#63b8ff" points="565.28,-72.37 575.87,-71.91 567.3,-65.67 565.28,-72.37"/>
</a>
</g>
</g>
<!-- Node4 -->
<g id="Node000004" class="node">
<title>Node4</title>
<g id="a_Node000004"><a xlink:href="classcom_1_1teragrep_1_1cfe__16_1_1it_1_1ServiceAndEventManagerIT.html#a181af6902da37bde7ba1e56614540437" target="_top" xlink:title=" ">
<polygon fill="white" stroke="#666666" points="197,-153 0,-153 0,-123 197,-123 197,-153"/>
<text text-anchor="start" x="8" y="-141" font-family="Helvetica,sans-Serif" font-size="10.00">com.teragrep.cfe_16.it.Service</text>
<text text-anchor="middle" x="98.5" y="-130" font-family="Helvetica,sans-Serif" font-size="10.00">AndEventManagerIT.convertDataTest</text>
</a>
</g>
</g>
<!-- Node3&#45;&gt;Node4 -->
<g id="edge3_Node000003_Node000004" class="edge">
<title>Node3&#45;&gt;Node4</title>
<g id="a_edge3_Node000003_Node000004"><a xlink:title=" ">
<path fill="none" stroke="#63b8ff" d="M261.68,-120.16C241.03,-122.43 218.71,-124.89 197.43,-127.23"/>
<polygon fill="#63b8ff" stroke="#63b8ff" points="262.12,-123.64 271.67,-119.06 261.35,-116.68 262.12,-123.64"/>
</a>
</g>
</g>
<!-- Node5 -->
<g id="Node000005" class="node">
<title>Node5</title>
<g id="a_Node000005"><a xlink:href="classcom_1_1teragrep_1_1cfe__16_1_1it_1_1ServiceAndEventManagerIT.html#a5339949b5816661f5d3adaf45fa90319" target="_top" xlink:title=" ">
<polygon fill="white" stroke="#666666" points="196,-104.5 1,-104.5 1,-63.5 196,-63.5 196,-104.5"/>
<text text-anchor="start" x="9" y="-92.5" font-family="Helvetica,sans-Serif" font-size="10.00">com.teragrep.cfe_16.it.Service</text>
<text text-anchor="start" x="9" y="-81.5" font-family="Helvetica,sans-Serif" font-size="10.00">AndEventManagerIT.sendingMultiple</text>
<text text-anchor="middle" x="98.5" y="-70.5" font-family="Helvetica,sans-Serif" font-size="10.00">EventsTest</text>
</a>
</g>
</g>
<!-- Node3&#45;&gt;Node5 -->
<g id="edge4_Node000003_Node000005" class="edge">
<title>Node3&#45;&gt;Node5</title>
<g id="a_edge4_Node000003_Node000005"><a xlink:title=" ">
<path fill="none" stroke="#63b8ff" d="M261.5,-101.82C240.46,-99.5 217.7,-97 196.08,-94.62"/>
<polygon fill="#63b8ff" stroke="#63b8ff" points="261.35,-105.32 271.67,-102.94 262.12,-98.36 261.35,-105.32"/>
</a>
</g>
</g>
</g>
</svg>
