<?xml version="1.0" encoding="UTF-8" standalone="no"?>
<!DOCTYPE svg PUBLIC "-//W3C//DTD SVG 1.1//EN"
 "http://www.w3.org/Graphics/SVG/1.1/DTD/svg11.dtd">
<!-- Generated by graphviz version 2.43.0 (0)
 -->
<!-- Title: com.teragrep.cfe_16.EventManager.verifyJsonData Pages: 1 -->
<svg width="565pt" height="86pt"
 viewBox="0.00 0.00 565.00 86.00" xmlns="http://www.w3.org/2000/svg" xmlns:xlink="http://www.w3.org/1999/xlink">
<g id="graph0" class="graph" transform="scale(1 1) rotate(0) translate(4 82)">
<title>com.teragrep.cfe_16.EventManager.verifyJsonData</title>
<!-- Node1 -->
<g id="Node000001" class="node">
<title>Node1</title>
<g id="a_Node000001"><a xlink:title=" ">
<polygon fill="#999999" stroke="#666666" points="148,-54 0,-54 0,-24 148,-24 148,-54"/>
<text text-anchor="start" x="8" y="-42" font-family="Helvetica,sans-Serif" font-size="10.00">com.teragrep.cfe_16.Event</text>
<text text-anchor="middle" x="74" y="-31" font-family="Helvetica,sans-Serif" font-size="10.00">Manager.verifyJsonData</text>
</a>
</g>
</g>
<!-- Node2 -->
<g id="Node000002" class="node">
<title>Node2</title>
<g id="a_Node000002"><a xlink:href="classcom_1_1teragrep_1_1cfe__16_1_1EventManager.html#a499862d588b74185c5a5cafcdc0c407e" target="_top" xlink:title=" ">
<polygon fill="white" stroke="#666666" points="332,-54 184,-54 184,-24 332,-24 332,-54"/>
<text text-anchor="start" x="192" y="-42" font-family="Helvetica,sans-Serif" font-size="10.00">com.teragrep.cfe_16.Event</text>
<text text-anchor="middle" x="258" y="-31" font-family="Helvetica,sans-Serif" font-size="10.00">Manager.handleTime</text>
</a>
</g>
</g>
<!-- Node1&#45;&gt;Node2 -->
<g id="edge1_Node000001_Node000002" class="edge">
<title>Node1&#45;&gt;Node2</title>
<g id="a_edge1_Node000001_Node000002"><a xlink:title=" ">
<path fill="none" stroke="#63b8ff" d="M148.24,-39C156.6,-39 165.16,-39 173.64,-39"/>
<polygon fill="#63b8ff" stroke="#63b8ff" points="173.91,-42.5 183.91,-39 173.91,-35.5 173.91,-42.5"/>
</a>
</g>
</g>
<!-- Node3 -->
<g id="Node000003" class="node">
<title>Node3</title>
<g id="a_Node000003"><a xlink:href="classcom_1_1teragrep_1_1cfe__16_1_1EventManager.html#a74cf4d32251dd8b36aee7d8b3578f62b" target="_top" xlink:title=" ">
<polygon fill="white" stroke="#666666" points="557,-78 368,-78 368,-48 557,-48 557,-78"/>
<text text-anchor="start" x="376" y="-66" font-family="Helvetica,sans-Serif" font-size="10.00">com.teragrep.cfe_16.Event</text>
<text text-anchor="middle" x="462.5" y="-55" font-family="Helvetica,sans-Serif" font-size="10.00">Manager.convertTimeToEpochMillis</text>
</a>
</g>
</g>
<!-- Node2&#45;&gt;Node3 -->
<g id="edge2_Node000002_Node000003" class="edge">
<title>Node2&#45;&gt;Node3</title>
<g id="a_edge2_Node000002_Node000003"><a xlink:title=" ">
<path fill="none" stroke="#63b8ff" d="M332.11,-47.66C340.41,-48.65 348.99,-49.67 357.6,-50.69"/>
<polygon fill="#63b8ff" stroke="#63b8ff" points="357.35,-54.18 367.7,-51.88 358.18,-47.23 357.35,-54.18"/>
</a>
</g>
</g>
<!-- Node4 -->
<g id="Node000004" class="node">
<title>Node4</title>
<g id="a_Node000004"><a xlink:href="classcom_1_1teragrep_1_1cfe__16_1_1EventManager.html#a159ac4f3aa69ac663e34efa51c9147d6" target="_top" xlink:title=" ">
<polygon fill="white" stroke="#666666" points="536.5,-30 388.5,-30 388.5,0 536.5,0 536.5,-30"/>
<text text-anchor="start" x="396.5" y="-18" font-family="Helvetica,sans-Serif" font-size="10.00">com.teragrep.cfe_16.Event</text>
<text text-anchor="middle" x="462.5" y="-7" font-family="Helvetica,sans-Serif" font-size="10.00">Manager.removeDecimal</text>
</a>
</g>
</g>
<!-- Node2&#45;&gt;Node4 -->
<g id="edge3_Node000002_Node000004" class="edge">
<title>Node2&#45;&gt;Node4</title>
<g id="a_edge3_Node000002_Node000004"><a xlink:title=" ">
<path fill="none" stroke="#63b8ff" d="M332.11,-30.34C347.07,-28.56 362.92,-26.68 378.21,-24.87"/>
<polygon fill="#63b8ff" stroke="#63b8ff" points="378.64,-28.34 388.16,-23.69 377.82,-21.39 378.64,-28.34"/>
</a>
</g>
</g>
</g>
</svg>
