<?xml version="1.0" encoding="UTF-8" standalone="no"?>
<!DOCTYPE svg PUBLIC "-//W3C//DTD SVG 1.1//EN"
 "http://www.w3.org/Graphics/SVG/1.1/DTD/svg11.dtd">
<!-- Generated by graphviz version 2.43.0 (0)
 -->
<!-- Title: com.teragrep.cfe_16.connection.RelpConnection.connect Pages: 1 -->
<svg width="608pt" height="110pt"
 viewBox="0.00 0.00 608.00 110.00" xmlns="http://www.w3.org/2000/svg" xmlns:xlink="http://www.w3.org/1999/xlink">
<g id="graph0" class="graph" transform="scale(1 1) rotate(0) translate(4 106)">
<title>com.teragrep.cfe_16.connection.RelpConnection.connect</title>
<!-- Node1 -->
<g id="Node000001" class="node">
<title>Node1</title>
<g id="a_Node000001"><a xlink:title=" ">
<polygon fill="#999999" stroke="#666666" points="600,-54 424,-54 424,-24 600,-24 600,-54"/>
<text text-anchor="start" x="432" y="-42" font-family="Helvetica,sans-Serif" font-size="10.00">com.teragrep.cfe_16.connection.</text>
<text text-anchor="middle" x="512" y="-31" font-family="Helvetica,sans-Serif" font-size="10.00">RelpConnection.connect</text>
</a>
</g>
</g>
<!-- Node2 -->
<g id="Node000002" class="node">
<title>Node2</title>
<g id="a_Node000002"><a xlink:href="classcom_1_1teragrep_1_1cfe__16_1_1connection_1_1RelpConnection.html#acd59610739f567d2c0a2d02f118d931f" target="_top" xlink:title=" ">
<polygon fill="white" stroke="#666666" points="388,-78 212,-78 212,-48 388,-48 388,-78"/>
<text text-anchor="start" x="220" y="-66" font-family="Helvetica,sans-Serif" font-size="10.00">com.teragrep.cfe_16.connection.</text>
<text text-anchor="middle" x="300" y="-55" font-family="Helvetica,sans-Serif" font-size="10.00">RelpConnection.doSend</text>
</a>
</g>
</g>
<!-- Node1&#45;&gt;Node2 -->
<g id="edge1_Node000001_Node000002" class="edge">
<title>Node1&#45;&gt;Node2</title>
<g id="a_edge1_Node000001_Node000002"><a xlink:title=" ">
<path fill="none" stroke="#63b8ff" d="M413.82,-50.11C405.31,-51.08 396.73,-52.06 388.3,-53.02"/>
<polygon fill="#63b8ff" stroke="#63b8ff" points="414.23,-53.58 423.77,-48.97 413.43,-46.63 414.23,-53.58"/>
</a>
</g>
</g>
<!-- Node5 -->
<g id="Node000005" class="node">
<title>Node5</title>
<g id="a_Node000005"><a xlink:href="classcom_1_1teragrep_1_1cfe__16_1_1connection_1_1RelpConnection.html#a8c26803a913b8943d0e08ef9442b8955" target="_top" xlink:title=" ">
<polygon fill="white" stroke="#666666" points="388,-30 212,-30 212,0 388,0 388,-30"/>
<text text-anchor="start" x="220" y="-18" font-family="Helvetica,sans-Serif" font-size="10.00">com.teragrep.cfe_16.connection.</text>
<text text-anchor="middle" x="300" y="-7" font-family="Helvetica,sans-Serif" font-size="10.00">RelpConnection.RelpConnection</text>
</a>
</g>
</g>
<!-- Node1&#45;&gt;Node5 -->
<g id="edge4_Node000001_Node000005" class="edge">
<title>Node1&#45;&gt;Node5</title>
<g id="a_edge4_Node000001_Node000005"><a xlink:title=" ">
<path fill="none" stroke="#63b8ff" d="M413.82,-27.89C405.31,-26.92 396.73,-25.94 388.3,-24.98"/>
<polygon fill="#63b8ff" stroke="#63b8ff" points="413.43,-31.37 423.77,-29.03 414.23,-24.42 413.43,-31.37"/>
</a>
</g>
</g>
<!-- Node3 -->
<g id="Node000003" class="node">
<title>Node3</title>
<g id="a_Node000003"><a xlink:href="classcom_1_1teragrep_1_1cfe__16_1_1connection_1_1RelpConnection.html#ae696335cf9ac0460dd40d45b549657d8" target="_top" xlink:title=" ">
<polygon fill="white" stroke="#666666" points="176,-102 0,-102 0,-72 176,-72 176,-102"/>
<text text-anchor="start" x="8" y="-90" font-family="Helvetica,sans-Serif" font-size="10.00">com.teragrep.cfe_16.connection.</text>
<text text-anchor="middle" x="88" y="-79" font-family="Helvetica,sans-Serif" font-size="10.00">RelpConnection.sendMessage</text>
</a>
</g>
</g>
<!-- Node2&#45;&gt;Node3 -->
<g id="edge2_Node000002_Node000003" class="edge">
<title>Node2&#45;&gt;Node3</title>
<g id="a_edge2_Node000002_Node000003"><a xlink:title=" ">
<path fill="none" stroke="#63b8ff" d="M201.82,-74.11C193.31,-75.08 184.73,-76.06 176.3,-77.02"/>
<polygon fill="#63b8ff" stroke="#63b8ff" points="202.23,-77.58 211.77,-72.97 201.43,-70.63 202.23,-77.58"/>
</a>
</g>
</g>
<!-- Node4 -->
<g id="Node000004" class="node">
<title>Node4</title>
<g id="a_Node000004"><a xlink:href="classcom_1_1teragrep_1_1cfe__16_1_1connection_1_1RelpConnection.html#a415962d080953863a7949fc8346e02fa" target="_top" xlink:title="Sends a batch of syslog messages.">
<polygon fill="white" stroke="#666666" points="176,-54 0,-54 0,-24 176,-24 176,-54"/>
<text text-anchor="start" x="8" y="-42" font-family="Helvetica,sans-Serif" font-size="10.00">com.teragrep.cfe_16.connection.</text>
<text text-anchor="middle" x="88" y="-31" font-family="Helvetica,sans-Serif" font-size="10.00">RelpConnection.sendMessages</text>
</a>
</g>
</g>
<!-- Node2&#45;&gt;Node4 -->
<g id="edge3_Node000002_Node000004" class="edge">
<title>Node2&#45;&gt;Node4</title>
<g id="a_edge3_Node000002_Node000004"><a xlink:title=" ">
<path fill="none" stroke="#63b8ff" d="M201.82,-51.89C193.31,-50.92 184.73,-49.94 176.3,-48.98"/>
<polygon fill="#63b8ff" stroke="#63b8ff" points="201.43,-55.37 211.77,-53.03 202.23,-48.42 201.43,-55.37"/>
</a>
</g>
</g>
</g>
</svg>
