<?xml version="1.0" encoding="UTF-8" standalone="no"?>
<!DOCTYPE svg PUBLIC "-//W3C//DTD SVG 1.1//EN"
 "http://www.w3.org/Graphics/SVG/1.1/DTD/svg11.dtd">
<!-- Generated by graphviz version 2.43.0 (0)
 -->
<!-- Title: com.teragrep.cfe_16.SessionManagerTests.createSessionAndGetItWithAuthTokenTest Pages: 1 -->
<svg width="393pt" height="86pt"
 viewBox="0.00 0.00 393.00 86.00" xmlns="http://www.w3.org/2000/svg" xmlns:xlink="http://www.w3.org/1999/xlink">
<g id="graph0" class="graph" transform="scale(1 1) rotate(0) translate(4 82)">
<title>com.teragrep.cfe_16.SessionManagerTests.createSessionAndGetItWithAuthTokenTest</title>
<!-- Node1 -->
<g id="Node000001" class="node">
<title>Node1</title>
<g id="a_Node000001"><a xlink:title=" ">
<polygon fill="#999999" stroke="#666666" points="191,-59.5 0,-59.5 0,-18.5 191,-18.5 191,-59.5"/>
<text text-anchor="start" x="8" y="-47.5" font-family="Helvetica,sans-Serif" font-size="10.00">com.teragrep.cfe_16.Session</text>
<text text-anchor="start" x="8" y="-36.5" font-family="Helvetica,sans-Serif" font-size="10.00">ManagerTests.createSessionAndGet</text>
<text text-anchor="middle" x="95.5" y="-25.5" font-family="Helvetica,sans-Serif" font-size="10.00">ItWithAuthTokenTest</text>
</a>
</g>
</g>
<!-- Node2 -->
<g id="Node000002" class="node">
<title>Node2</title>
<g id="a_Node000002"><a xlink:href="classcom_1_1teragrep_1_1cfe__16_1_1SessionManager.html#aff9c055d9f24965718ca66391189e21d" target="_top" xlink:title=" ">
<polygon fill="white" stroke="#666666" points="385,-78 227,-78 227,-48 385,-48 385,-78"/>
<text text-anchor="start" x="235" y="-66" font-family="Helvetica,sans-Serif" font-size="10.00">com.teragrep.cfe_16.Session</text>
<text text-anchor="middle" x="306" y="-55" font-family="Helvetica,sans-Serif" font-size="10.00">Manager.createSession</text>
</a>
</g>
</g>
<!-- Node1&#45;&gt;Node2 -->
<g id="edge1_Node000001_Node000002" class="edge">
<title>Node1&#45;&gt;Node2</title>
<g id="a_edge1_Node000001_Node000002"><a xlink:title=" ">
<path fill="none" stroke="#63b8ff" d="M191.29,-49.91C199.78,-50.89 208.36,-51.88 216.79,-52.85"/>
<polygon fill="#63b8ff" stroke="#63b8ff" points="216.65,-56.35 226.98,-54.02 217.45,-49.4 216.65,-56.35"/>
</a>
</g>
</g>
<!-- Node3 -->
<g id="Node000003" class="node">
<title>Node3</title>
<g id="a_Node000003"><a xlink:href="classcom_1_1teragrep_1_1cfe__16_1_1SessionManager.html#a0018f26ecfa7a7c748e7a93522990422" target="_top" xlink:title=" ">
<polygon fill="white" stroke="#666666" points="385,-30 227,-30 227,0 385,0 385,-30"/>
<text text-anchor="start" x="235" y="-18" font-family="Helvetica,sans-Serif" font-size="10.00">com.teragrep.cfe_16.Session</text>
<text text-anchor="middle" x="306" y="-7" font-family="Helvetica,sans-Serif" font-size="10.00">Manager.getSession</text>
</a>
</g>
</g>
<!-- Node1&#45;&gt;Node3 -->
<g id="edge2_Node000001_Node000003" class="edge">
<title>Node1&#45;&gt;Node3</title>
<g id="a_edge2_Node000001_Node000003"><a xlink:title=" ">
<path fill="none" stroke="#63b8ff" d="M191.29,-28.09C199.78,-27.11 208.36,-26.12 216.79,-25.15"/>
<polygon fill="#63b8ff" stroke="#63b8ff" points="217.45,-28.6 226.98,-23.98 216.65,-21.65 217.45,-28.6"/>
</a>
</g>
</g>
</g>
</svg>
