<?xml version="1.0" encoding="UTF-8" standalone="no"?>
<!DOCTYPE svg PUBLIC "-//W3C//DTD SVG 1.1//EN"
 "http://www.w3.org/Graphics/SVG/1.1/DTD/svg11.dtd">
<!-- Generated by graphviz version 2.43.0 (0)
 -->
<!-- Title: com.teragrep.cfe_16.SessionManager.createSession Pages: 1 -->
<svg width="393pt" height="108pt"
 viewBox="0.00 0.00 393.00 108.00" xmlns="http://www.w3.org/2000/svg" xmlns:xlink="http://www.w3.org/1999/xlink">
<g id="graph0" class="graph" transform="scale(1 1) rotate(0) translate(4 104)">
<title>com.teragrep.cfe_16.SessionManager.createSession</title>
<!-- Node1 -->
<g id="Node000001" class="node">
<title>Node1</title>
<g id="a_Node000001"><a xlink:title=" ">
<polygon fill="#999999" stroke="#666666" points="385,-64.5 227,-64.5 227,-34.5 385,-34.5 385,-64.5"/>
<text text-anchor="start" x="235" y="-52.5" font-family="Helvetica,sans-Serif" font-size="10.00">com.teragrep.cfe_16.Session</text>
<text text-anchor="middle" x="306" y="-41.5" font-family="Helvetica,sans-Serif" font-size="10.00">Manager.createSession</text>
</a>
</g>
</g>
<!-- Node2 -->
<g id="Node000002" class="node">
<title>Node2</title>
<g id="a_Node000002"><a xlink:href="classcom_1_1teragrep_1_1cfe__16_1_1SessionManagerTests.html#aadb2d153115ff33cc20758d903bc845b" target="_top" xlink:title=" ">
<polygon fill="white" stroke="#666666" points="191,-100 0,-100 0,-59 191,-59 191,-100"/>
<text text-anchor="start" x="8" y="-88" font-family="Helvetica,sans-Serif" font-size="10.00">com.teragrep.cfe_16.Session</text>
<text text-anchor="start" x="8" y="-77" font-family="Helvetica,sans-Serif" font-size="10.00">ManagerTests.createSessionAndGet</text>
<text text-anchor="middle" x="95.5" y="-66" font-family="Helvetica,sans-Serif" font-size="10.00">ItWithAuthTokenTest</text>
</a>
</g>
</g>
<!-- Node1&#45;&gt;Node2 -->
<g id="edge1_Node000001_Node000002" class="edge">
<title>Node1&#45;&gt;Node2</title>
<g id="a_edge1_Node000001_Node000002"><a xlink:title=" ">
<path fill="none" stroke="#63b8ff" d="M216.65,-62.21C208.28,-63.42 199.78,-64.64 191.36,-65.85"/>
<polygon fill="#63b8ff" stroke="#63b8ff" points="217.37,-65.64 226.77,-60.76 216.37,-58.72 217.37,-65.64"/>
</a>
</g>
</g>
<!-- Node3 -->
<g id="Node000003" class="node">
<title>Node3</title>
<g id="a_Node000003"><a xlink:href="classcom_1_1teragrep_1_1cfe__16_1_1SessionManagerTests.html#a69a1ba2c78d1eaa5a0bf912ff73655fa" target="_top" xlink:title=" ">
<polygon fill="white" stroke="#666666" points="190.5,-41 0.5,-41 0.5,0 190.5,0 190.5,-41"/>
<text text-anchor="start" x="8.5" y="-29" font-family="Helvetica,sans-Serif" font-size="10.00">com.teragrep.cfe_16.Session</text>
<text text-anchor="start" x="8.5" y="-18" font-family="Helvetica,sans-Serif" font-size="10.00">ManagerTests.sessionCreaationAnd</text>
<text text-anchor="middle" x="95.5" y="-7" font-family="Helvetica,sans-Serif" font-size="10.00">DeletionTests</text>
</a>
</g>
</g>
<!-- Node1&#45;&gt;Node3 -->
<g id="edge2_Node000001_Node000003" class="edge">
<title>Node1&#45;&gt;Node3</title>
<g id="a_edge2_Node000001_Node000003"><a xlink:title=" ">
<path fill="none" stroke="#63b8ff" d="M216.73,-37.22C208.1,-36.02 199.33,-34.8 190.64,-33.59"/>
<polygon fill="#63b8ff" stroke="#63b8ff" points="216.38,-40.71 226.77,-38.62 217.35,-33.77 216.38,-40.71"/>
</a>
</g>
</g>
</g>
</svg>
