<?xml version="1.0" encoding="UTF-8" standalone="no"?>
<!DOCTYPE svg PUBLIC "-//W3C//DTD SVG 1.1//EN"
 "http://www.w3.org/Graphics/SVG/1.1/DTD/svg11.dtd">
<!-- Generated by graphviz version 2.43.0 (0)
 -->
<!-- Title: com.teragrep.cfe_16.Converter.httpToSyslog Pages: 1 -->
<svg width="635pt" height="113pt"
 viewBox="0.00 0.00 635.00 113.00" xmlns="http://www.w3.org/2000/svg" xmlns:xlink="http://www.w3.org/1999/xlink">
<g id="graph0" class="graph" transform="scale(1 1) rotate(0) translate(4 109)">
<title>com.teragrep.cfe_16.Converter.httpToSyslog</title>
<!-- Node1 -->
<g id="Node000001" class="node">
<title>Node1</title>
<g id="a_Node000001"><a xlink:title=" ">
<polygon fill="#999999" stroke="#666666" points="627,-54 437,-54 437,-24 627,-24 627,-54"/>
<text text-anchor="start" x="445" y="-42" font-family="Helvetica,sans-Serif" font-size="10.00">com.teragrep.cfe_16.Converter.http</text>
<text text-anchor="middle" x="532" y="-31" font-family="Helvetica,sans-Serif" font-size="10.00">ToSyslog</text>
</a>
</g>
</g>
<!-- Node2 -->
<g id="Node000002" class="node">
<title>Node2</title>
<g id="a_Node000002"><a xlink:href="classcom_1_1teragrep_1_1cfe__16_1_1EventManager.html#a7b24737679da20559ee1da24b25eed93" target="_top" xlink:title=" ">
<polygon fill="white" stroke="#666666" points="391,-78 243,-78 243,-48 391,-48 391,-78"/>
<text text-anchor="start" x="251" y="-66" font-family="Helvetica,sans-Serif" font-size="10.00">com.teragrep.cfe_16.Event</text>
<text text-anchor="middle" x="317" y="-55" font-family="Helvetica,sans-Serif" font-size="10.00">Manager.convertData</text>
</a>
</g>
</g>
<!-- Node1&#45;&gt;Node2 -->
<g id="edge1_Node000001_Node000002" class="edge">
<title>Node1&#45;&gt;Node2</title>
<g id="a_edge1_Node000001_Node000002"><a xlink:title=" ">
<path fill="none" stroke="#63b8ff" d="M426.83,-50.74C414.74,-52.1 402.61,-53.47 391.07,-54.77"/>
<polygon fill="#63b8ff" stroke="#63b8ff" points="427.41,-54.19 436.96,-49.6 426.63,-47.24 427.41,-54.19"/>
</a>
</g>
</g>
<!-- Node5 -->
<g id="Node000005" class="node">
<title>Node5</title>
<g id="a_Node000005"><a xlink:href="classcom_1_1teragrep_1_1cfe__16_1_1ConverterTests.html#a2918b5432a3d000c39a805847ba1c5de" target="_top" xlink:title=" ">
<polygon fill="white" stroke="#666666" points="401,-30 233,-30 233,0 401,0 401,-30"/>
<text text-anchor="start" x="241" y="-18" font-family="Helvetica,sans-Serif" font-size="10.00">com.teragrep.cfe_16.Converter</text>
<text text-anchor="middle" x="317" y="-7" font-family="Helvetica,sans-Serif" font-size="10.00">Tests.initialize</text>
</a>
</g>
</g>
<!-- Node1&#45;&gt;Node5 -->
<g id="edge4_Node000001_Node000005" class="edge">
<title>Node1&#45;&gt;Node5</title>
<g id="a_edge4_Node000001_Node000005"><a xlink:title=" ">
<path fill="none" stroke="#63b8ff" d="M426.86,-27.27C418.24,-26.29 409.59,-25.32 401.16,-24.37"/>
<polygon fill="#63b8ff" stroke="#63b8ff" points="426.63,-30.76 436.96,-28.4 427.41,-23.81 426.63,-30.76"/>
</a>
</g>
</g>
<!-- Node3 -->
<g id="Node000003" class="node">
<title>Node3</title>
<g id="a_Node000003"><a xlink:href="classcom_1_1teragrep_1_1cfe__16_1_1it_1_1ServiceAndEventManagerIT.html#a181af6902da37bde7ba1e56614540437" target="_top" xlink:title=" ">
<polygon fill="white" stroke="#666666" points="197,-105 0,-105 0,-75 197,-75 197,-105"/>
<text text-anchor="start" x="8" y="-93" font-family="Helvetica,sans-Serif" font-size="10.00">com.teragrep.cfe_16.it.Service</text>
<text text-anchor="middle" x="98.5" y="-82" font-family="Helvetica,sans-Serif" font-size="10.00">AndEventManagerIT.convertDataTest</text>
</a>
</g>
</g>
<!-- Node2&#45;&gt;Node3 -->
<g id="edge2_Node000002_Node000003" class="edge">
<title>Node2&#45;&gt;Node3</title>
<g id="a_edge2_Node000002_Node000003"><a xlink:title=" ">
<path fill="none" stroke="#63b8ff" d="M232.65,-73.39C221.07,-74.84 209.1,-76.33 197.29,-77.8"/>
<polygon fill="#63b8ff" stroke="#63b8ff" points="233.21,-76.85 242.7,-72.14 232.35,-69.91 233.21,-76.85"/>
</a>
</g>
</g>
<!-- Node4 -->
<g id="Node000004" class="node">
<title>Node4</title>
<g id="a_Node000004"><a xlink:href="classcom_1_1teragrep_1_1cfe__16_1_1it_1_1ServiceAndEventManagerIT.html#a5339949b5816661f5d3adaf45fa90319" target="_top" xlink:title=" ">
<polygon fill="white" stroke="#666666" points="196,-56.5 1,-56.5 1,-15.5 196,-15.5 196,-56.5"/>
<text text-anchor="start" x="9" y="-44.5" font-family="Helvetica,sans-Serif" font-size="10.00">com.teragrep.cfe_16.it.Service</text>
<text text-anchor="start" x="9" y="-33.5" font-family="Helvetica,sans-Serif" font-size="10.00">AndEventManagerIT.sendingMultiple</text>
<text text-anchor="middle" x="98.5" y="-22.5" font-family="Helvetica,sans-Serif" font-size="10.00">EventsTest</text>
</a>
</g>
</g>
<!-- Node2&#45;&gt;Node4 -->
<g id="edge3_Node000002_Node000004" class="edge">
<title>Node2&#45;&gt;Node4</title>
<g id="a_edge3_Node000002_Node000004"><a xlink:title=" ">
<path fill="none" stroke="#63b8ff" d="M232.75,-52.62C220.77,-51.12 208.35,-49.58 196.13,-48.05"/>
<polygon fill="#63b8ff" stroke="#63b8ff" points="232.35,-56.09 242.7,-53.86 233.21,-49.15 232.35,-56.09"/>
</a>
</g>
</g>
</g>
</svg>
