<?xml version="1.0" encoding="UTF-8" standalone="no"?>
<!DOCTYPE svg PUBLIC "-//W3C//DTD SVG 1.1//EN"
 "http://www.w3.org/Graphics/SVG/1.1/DTD/svg11.dtd">
<!-- Generated by graphviz version 2.43.0 (0)
 -->
<!-- Title: com.teragrep.cfe_16.ConverterTests.initialize Pages: 1 -->
<svg width="623pt" height="134pt"
 viewBox="0.00 0.00 623.00 134.00" xmlns="http://www.w3.org/2000/svg" xmlns:xlink="http://www.w3.org/1999/xlink">
<g id="graph0" class="graph" transform="scale(1 1) rotate(0) translate(4 130)">
<title>com.teragrep.cfe_16.ConverterTests.initialize</title>
<!-- Node1 -->
<g id="Node000001" class="node">
<title>Node1</title>
<g id="a_Node000001"><a xlink:title=" ">
<polygon fill="#999999" stroke="#666666" points="168,-78 0,-78 0,-48 168,-48 168,-78"/>
<text text-anchor="start" x="8" y="-66" font-family="Helvetica,sans-Serif" font-size="10.00">com.teragrep.cfe_16.Converter</text>
<text text-anchor="middle" x="84" y="-55" font-family="Helvetica,sans-Serif" font-size="10.00">Tests.initialize</text>
</a>
</g>
</g>
<!-- Node2 -->
<g id="Node000002" class="node">
<title>Node2</title>
<g id="a_Node000002"><a xlink:href="classcom_1_1teragrep_1_1cfe__16_1_1Converter.html#a602a68046d2d394249793b6d74b62050" target="_top" xlink:title=" ">
<polygon fill="white" stroke="#666666" points="394,-78 204,-78 204,-48 394,-48 394,-78"/>
<text text-anchor="start" x="212" y="-66" font-family="Helvetica,sans-Serif" font-size="10.00">com.teragrep.cfe_16.Converter.http</text>
<text text-anchor="middle" x="299" y="-55" font-family="Helvetica,sans-Serif" font-size="10.00">ToSyslog</text>
</a>
</g>
</g>
<!-- Node1&#45;&gt;Node2 -->
<g id="edge1_Node000001_Node000002" class="edge">
<title>Node1&#45;&gt;Node2</title>
<g id="a_edge1_Node000001_Node000002"><a xlink:title=" ">
<path fill="none" stroke="#63b8ff" d="M168.27,-63C176.65,-63 185.24,-63 193.81,-63"/>
<polygon fill="#63b8ff" stroke="#63b8ff" points="193.85,-66.5 203.85,-63 193.85,-59.5 193.85,-66.5"/>
</a>
</g>
</g>
<!-- Node3 -->
<g id="Node000003" class="node">
<title>Node3</title>
<g id="a_Node000003"><a xlink:href="classcom_1_1teragrep_1_1cfe__16_1_1Converter.html#ad3945e06829eabba7dec42281559bffb" target="_top" xlink:title=" ">
<polygon fill="white" stroke="#666666" points="615,-126 430,-126 430,-96 615,-96 615,-126"/>
<text text-anchor="start" x="438" y="-114" font-family="Helvetica,sans-Serif" font-size="10.00">com.teragrep.cfe_16.Converter.set</text>
<text text-anchor="middle" x="522.5" y="-103" font-family="Helvetica,sans-Serif" font-size="10.00">EventFacility</text>
</a>
</g>
</g>
<!-- Node2&#45;&gt;Node3 -->
<g id="edge2_Node000002_Node000003" class="edge">
<title>Node2&#45;&gt;Node3</title>
<g id="a_edge2_Node000002_Node000003"><a xlink:title=" ">
<path fill="none" stroke="#63b8ff" d="M369.48,-78.06C392.57,-83.06 418.45,-88.67 442.22,-93.82"/>
<polygon fill="#63b8ff" stroke="#63b8ff" points="441.76,-97.3 452.27,-96 443.24,-90.46 441.76,-97.3"/>
</a>
</g>
</g>
<!-- Node4 -->
<g id="Node000004" class="node">
<title>Node4</title>
<g id="a_Node000004"><a xlink:href="classcom_1_1teragrep_1_1cfe__16_1_1Converter.html#a99439ed8fa2f982deedfa6168ecbeba8" target="_top" xlink:title=" ">
<polygon fill="white" stroke="#666666" points="615,-78 430,-78 430,-48 615,-48 615,-78"/>
<text text-anchor="start" x="438" y="-66" font-family="Helvetica,sans-Serif" font-size="10.00">com.teragrep.cfe_16.Converter.set</text>
<text text-anchor="middle" x="522.5" y="-55" font-family="Helvetica,sans-Serif" font-size="10.00">EventSeverity</text>
</a>
</g>
</g>
<!-- Node2&#45;&gt;Node4 -->
<g id="edge3_Node000002_Node000004" class="edge">
<title>Node2&#45;&gt;Node4</title>
<g id="a_edge3_Node000002_Node000004"><a xlink:title=" ">
<path fill="none" stroke="#63b8ff" d="M394.26,-63C402.63,-63 411.13,-63 419.56,-63"/>
<polygon fill="#63b8ff" stroke="#63b8ff" points="419.8,-66.5 429.8,-63 419.8,-59.5 419.8,-66.5"/>
</a>
</g>
</g>
<!-- Node5 -->
<g id="Node000005" class="node">
<title>Node5</title>
<g id="a_Node000005"><a xlink:href="classcom_1_1teragrep_1_1cfe__16_1_1Converter.html#a18a7c850c23a15fd3ab357f011ec5866" target="_top" xlink:title=" ">
<polygon fill="white" stroke="#666666" points="615,-30 430,-30 430,0 615,0 615,-30"/>
<text text-anchor="start" x="438" y="-18" font-family="Helvetica,sans-Serif" font-size="10.00">com.teragrep.cfe_16.Converter.set</text>
<text text-anchor="middle" x="522.5" y="-7" font-family="Helvetica,sans-Serif" font-size="10.00">StructuredDataParams</text>
</a>
</g>
</g>
<!-- Node2&#45;&gt;Node5 -->
<g id="edge4_Node000002_Node000005" class="edge">
<title>Node2&#45;&gt;Node5</title>
<g id="a_edge4_Node000002_Node000005"><a xlink:title=" ">
<path fill="none" stroke="#63b8ff" d="M369.48,-47.94C392.57,-42.94 418.45,-37.33 442.22,-32.18"/>
<polygon fill="#63b8ff" stroke="#63b8ff" points="443.24,-35.54 452.27,-30 441.76,-28.7 443.24,-35.54"/>
</a>
</g>
</g>
</g>
</svg>
