<?xml version="1.0" encoding="UTF-8" standalone="no"?>
<!DOCTYPE svg PUBLIC "-//W3C//DTD SVG 1.1//EN"
 "http://www.w3.org/Graphics/SVG/1.1/DTD/svg11.dtd">
<!-- Generated by graphviz version 2.43.0 (0)
 -->
<!-- Title: com.teragrep.cfe_16.Acknowledgements.getCurrentAckValue Pages: 1 -->
<svg width="505pt" height="182pt"
 viewBox="0.00 0.00 505.00 182.00" xmlns="http://www.w3.org/2000/svg" xmlns:xlink="http://www.w3.org/1999/xlink">
<g id="graph0" class="graph" transform="scale(1 1) rotate(0) translate(4 178)">
<title>com.teragrep.cfe_16.Acknowledgements.getCurrentAckValue</title>
<!-- Node1 -->
<g id="Node000001" class="node">
<title>Node1</title>
<g id="a_Node000001"><a xlink:title="Returns the current Ack value for given token and channel.">
<polygon fill="#999999" stroke="#666666" points="497,-102 262,-102 262,-72 497,-72 497,-102"/>
<text text-anchor="start" x="270" y="-90" font-family="Helvetica,sans-Serif" font-size="10.00">com.teragrep.cfe_16.Acknowledgements.get</text>
<text text-anchor="middle" x="379.5" y="-79" font-family="Helvetica,sans-Serif" font-size="10.00">CurrentAckValue</text>
</a>
</g>
</g>
<!-- Node2 -->
<g id="Node000002" class="node">
<title>Node2</title>
<g id="a_Node000002"><a xlink:href="classcom_1_1teragrep_1_1cfe__16_1_1it_1_1AcknowledgementsIT.html#a28a8273d6b136df113665a5032aa8ca3" target="_top" xlink:title=" ">
<polygon fill="white" stroke="#666666" points="226,-174 0,-174 0,-144 226,-144 226,-174"/>
<text text-anchor="start" x="8" y="-162" font-family="Helvetica,sans-Serif" font-size="10.00">com.teragrep.cfe_16.it.Acknowledgements</text>
<text text-anchor="middle" x="113" y="-151" font-family="Helvetica,sans-Serif" font-size="10.00">IT.getCurrentAckValueAndIncrementTest</text>
</a>
</g>
</g>
<!-- Node1&#45;&gt;Node2 -->
<g id="edge1_Node000001_Node000002" class="edge">
<title>Node1&#45;&gt;Node2</title>
<g id="a_edge1_Node000001_Node000002"><a xlink:title=" ">
<path fill="none" stroke="#63b8ff" d="M324.89,-105.23C295.82,-114.77 259.15,-126.25 226,-135 214.08,-138.15 201.36,-141.18 188.94,-143.96"/>
<polygon fill="#63b8ff" stroke="#63b8ff" points="326.05,-108.53 334.44,-102.07 323.85,-101.89 326.05,-108.53"/>
</a>
</g>
</g>
<!-- Node3 -->
<g id="Node000003" class="node">
<title>Node3</title>
<g id="a_Node000003"><a xlink:href="classcom_1_1teragrep_1_1cfe__16_1_1it_1_1AcknowledgementsIT.html#afc4e73cfb46d7fbc19edc8d2c177e6bf" target="_top" xlink:title=" ">
<polygon fill="white" stroke="#666666" points="226,-126 0,-126 0,-96 226,-96 226,-126"/>
<text text-anchor="start" x="8" y="-114" font-family="Helvetica,sans-Serif" font-size="10.00">com.teragrep.cfe_16.it.Acknowledgements</text>
<text text-anchor="middle" x="113" y="-103" font-family="Helvetica,sans-Serif" font-size="10.00">IT.getCurrentAckValueTest</text>
</a>
</g>
</g>
<!-- Node1&#45;&gt;Node3 -->
<g id="edge2_Node000001_Node000003" class="edge">
<title>Node1&#45;&gt;Node3</title>
<g id="a_edge2_Node000001_Node000003"><a xlink:title=" ">
<path fill="none" stroke="#63b8ff" d="M251.48,-98.53C243.07,-99.29 234.64,-100.05 226.31,-100.81"/>
<polygon fill="#63b8ff" stroke="#63b8ff" points="252.07,-101.99 261.72,-97.6 251.44,-95.01 252.07,-101.99"/>
</a>
</g>
</g>
<!-- Node4 -->
<g id="Node000004" class="node">
<title>Node4</title>
<g id="a_Node000004"><a xlink:href="classcom_1_1teragrep_1_1cfe__16_1_1it_1_1AcknowledgementsIT.html#a91fed96b6fad0dfd378ba9b0fa7fe5ed" target="_top" xlink:title=" ">
<polygon fill="white" stroke="#666666" points="226,-78 0,-78 0,-48 226,-48 226,-78"/>
<text text-anchor="start" x="8" y="-66" font-family="Helvetica,sans-Serif" font-size="10.00">com.teragrep.cfe_16.it.Acknowledgements</text>
<text text-anchor="middle" x="113" y="-55" font-family="Helvetica,sans-Serif" font-size="10.00">IT.maxAckValueTest</text>
</a>
</g>
</g>
<!-- Node1&#45;&gt;Node4 -->
<g id="edge3_Node000001_Node000004" class="edge">
<title>Node1&#45;&gt;Node4</title>
<g id="a_edge3_Node000001_Node000004"><a xlink:title=" ">
<path fill="none" stroke="#63b8ff" d="M251.48,-75.47C243.07,-74.71 234.64,-73.95 226.31,-73.19"/>
<polygon fill="#63b8ff" stroke="#63b8ff" points="251.44,-78.99 261.72,-76.4 252.07,-72.01 251.44,-78.99"/>
</a>
</g>
</g>
<!-- Node5 -->
<g id="Node000005" class="node">
<title>Node5</title>
<g id="a_Node000005"><a xlink:href="classcom_1_1teragrep_1_1cfe__16_1_1service_1_1HECServiceImpl.html#a9ed9a0d5772181625f00edce5a2c611d" target="_top" xlink:title="Returns the JSON object as a response of given HTTP event request.">
<polygon fill="white" stroke="#666666" points="192,-30 34,-30 34,0 192,0 192,-30"/>
<text text-anchor="start" x="42" y="-18" font-family="Helvetica,sans-Serif" font-size="10.00">com.teragrep.cfe_16.service.</text>
<text text-anchor="middle" x="113" y="-7" font-family="Helvetica,sans-Serif" font-size="10.00">HECServiceImpl.sendEvents</text>
</a>
</g>
</g>
<!-- Node1&#45;&gt;Node5 -->
<g id="edge4_Node000001_Node000005" class="edge">
<title>Node1&#45;&gt;Node5</title>
<g id="a_edge4_Node000001_Node000005"><a xlink:title=" ">
<path fill="none" stroke="#63b8ff" d="M324.89,-68.77C295.82,-59.23 259.15,-47.75 226,-39 214.08,-35.85 201.36,-32.82 188.94,-30.04"/>
<polygon fill="#63b8ff" stroke="#63b8ff" points="323.85,-72.11 334.44,-71.93 326.05,-65.47 323.85,-72.11"/>
</a>
</g>
</g>
</g>
</svg>
