<?xml version="1.0" encoding="UTF-8" standalone="no"?>
<!DOCTYPE svg PUBLIC "-//W3C//DTD SVG 1.1//EN"
 "http://www.w3.org/Graphics/SVG/1.1/DTD/svg11.dtd">
<!-- Generated by graphviz version 2.43.0 (0)
 -->
<!-- Title: com.teragrep.cfe_16.MultiValueMapRequest.asCleanedJsonString Pages: 1 -->
<svg width="439pt" height="146pt"
 viewBox="0.00 0.00 439.00 145.50" xmlns="http://www.w3.org/2000/svg" xmlns:xlink="http://www.w3.org/1999/xlink">
<g id="graph0" class="graph" transform="scale(1 1) rotate(0) translate(4 141.5)">
<title>com.teragrep.cfe_16.MultiValueMapRequest.asCleanedJsonString</title>
<!-- Node1 -->
<g id="Node000001" class="node">
<title>Node1</title>
<g id="a_Node000001"><a xlink:title=" ">
<polygon fill="#999999" stroke="#666666" points="431,-89.5 224,-89.5 224,-59.5 431,-59.5 431,-89.5"/>
<text text-anchor="start" x="232" y="-77.5" font-family="Helvetica,sans-Serif" font-size="10.00">com.teragrep.cfe_16.Multi</text>
<text text-anchor="middle" x="327.5" y="-66.5" font-family="Helvetica,sans-Serif" font-size="10.00">ValueMapRequest.asCleanedJsonString</text>
</a>
</g>
</g>
<!-- Node2 -->
<g id="Node000002" class="node">
<title>Node2</title>
<g id="a_Node000002"><a xlink:href="classcom_1_1teragrep_1_1cfe__16_1_1rest_1_1HECRestController.html#afe9f1fa4d7c10a6a882ed85b254a18c9" target="_top" xlink:title=" ">
<polygon fill="white" stroke="#666666" points="168,-137.5 20,-137.5 20,-107.5 168,-107.5 168,-137.5"/>
<text text-anchor="start" x="28" y="-125.5" font-family="Helvetica,sans-Serif" font-size="10.00">com.teragrep.cfe_16.rest.</text>
<text text-anchor="middle" x="94" y="-114.5" font-family="Helvetica,sans-Serif" font-size="10.00">HECRestController.getAcks</text>
</a>
</g>
</g>
<!-- Node1&#45;&gt;Node2 -->
<g id="edge1_Node000001_Node000002" class="edge">
<title>Node1&#45;&gt;Node2</title>
<g id="a_edge1_Node000001_Node000002"><a xlink:title=" ">
<path fill="none" stroke="#63b8ff" d="M244.05,-91.6C219,-96.79 191.68,-102.45 167.36,-107.5"/>
<polygon fill="#63b8ff" stroke="#63b8ff" points="244.81,-95.01 253.89,-89.56 243.38,-88.16 244.81,-95.01"/>
</a>
</g>
</g>
<!-- Node3 -->
<g id="Node000003" class="node">
<title>Node3</title>
<g id="a_Node000003"><a xlink:href="classcom_1_1teragrep_1_1cfe__16_1_1rest_1_1HECRestController.html#aaf71f14ccb39fb2c9a2e39612095eb6c" target="_top" xlink:title=" ">
<polygon fill="white" stroke="#666666" points="176.5,-89.5 11.5,-89.5 11.5,-59.5 176.5,-59.5 176.5,-89.5"/>
<text text-anchor="start" x="19.5" y="-77.5" font-family="Helvetica,sans-Serif" font-size="10.00">com.teragrep.cfe_16.rest.</text>
<text text-anchor="middle" x="94" y="-66.5" font-family="Helvetica,sans-Serif" font-size="10.00">HECRestController.sendEvents</text>
</a>
</g>
</g>
<!-- Node1&#45;&gt;Node3 -->
<g id="edge2_Node000001_Node000003" class="edge">
<title>Node1&#45;&gt;Node3</title>
<g id="a_edge2_Node000001_Node000003"><a xlink:title=" ">
<path fill="none" stroke="#63b8ff" d="M213.89,-74.5C201.32,-74.5 188.7,-74.5 176.63,-74.5"/>
<polygon fill="#63b8ff" stroke="#63b8ff" points="213.95,-78 223.95,-74.5 213.95,-71 213.95,-78"/>
</a>
</g>
</g>
<!-- Node4 -->
<g id="Node000004" class="node">
<title>Node4</title>
<g id="a_Node000004"><a xlink:href="classcom_1_1teragrep_1_1cfe__16_1_1rest_1_1HECRestController.html#a771db1c7e49b665c724d06dbaef62642" target="_top" xlink:title=" ">
<polygon fill="white" stroke="#666666" points="188,-41 0,-41 0,0 188,0 188,-41"/>
<text text-anchor="start" x="8" y="-29" font-family="Helvetica,sans-Serif" font-size="10.00">com.teragrep.cfe_16.rest.</text>
<text text-anchor="start" x="8" y="-18" font-family="Helvetica,sans-Serif" font-size="10.00">HECRestController.sendEventsWith</text>
<text text-anchor="middle" x="94" y="-7" font-family="Helvetica,sans-Serif" font-size="10.00">FormatOption</text>
</a>
</g>
</g>
<!-- Node1&#45;&gt;Node4 -->
<g id="edge3_Node000001_Node000004" class="edge">
<title>Node1&#45;&gt;Node4</title>
<g id="a_edge3_Node000001_Node000004"><a xlink:title=" ">
<path fill="none" stroke="#63b8ff" d="M252.07,-57.14C230.05,-52 205.72,-46.33 182.93,-41.01"/>
<polygon fill="#63b8ff" stroke="#63b8ff" points="251.48,-60.59 262.01,-59.46 253.07,-53.78 251.48,-60.59"/>
</a>
</g>
</g>
</g>
</svg>
