<?xml version="1.0" encoding="UTF-8" standalone="no"?>
<!DOCTYPE svg PUBLIC "-//W3C//DTD SVG 1.1//EN"
 "http://www.w3.org/Graphics/SVG/1.1/DTD/svg11.dtd">
<!-- Generated by graphviz version 2.43.0 (0)
 -->
<!-- Title: com.teragrep.cfe_16.Acknowledgements.addAck Pages: 1 -->
<svg width="758pt" height="182pt"
 viewBox="0.00 0.00 758.00 182.00" xmlns="http://www.w3.org/2000/svg" xmlns:xlink="http://www.w3.org/1999/xlink">
<g id="graph0" class="graph" transform="scale(1 1) rotate(0) translate(4 178)">
<title>com.teragrep.cfe_16.Acknowledgements.addAck</title>
<!-- Node1 -->
<g id="Node000001" class="node">
<title>Node1</title>
<g id="a_Node000001"><a xlink:title="Adds a new Ack object for given channel.">
<polygon fill="#999999" stroke="#666666" points="750,-96.5 495,-96.5 495,-77.5 750,-77.5 750,-96.5"/>
<text text-anchor="middle" x="622.5" y="-84.5" font-family="Helvetica,sans-Serif" font-size="10.00">com.teragrep.cfe_16.Acknowledgements.addAck</text>
</a>
</g>
</g>
<!-- Node2 -->
<g id="Node000002" class="node">
<title>Node2</title>
<g id="a_Node000002"><a xlink:href="classcom_1_1teragrep_1_1cfe__16_1_1it_1_1AcknowledgementsIT.html#ad7d230669d75e6c83a2d4364e6ce1a10" target="_top" xlink:title=" ">
<polygon fill="white" stroke="#666666" points="459,-174 233,-174 233,-144 459,-144 459,-174"/>
<text text-anchor="start" x="241" y="-162" font-family="Helvetica,sans-Serif" font-size="10.00">com.teragrep.cfe_16.it.Acknowledgements</text>
<text text-anchor="middle" x="346" y="-151" font-family="Helvetica,sans-Serif" font-size="10.00">IT.acknowledgeTest</text>
</a>
</g>
</g>
<!-- Node1&#45;&gt;Node2 -->
<g id="edge1_Node000001_Node000002" class="edge">
<title>Node1&#45;&gt;Node2</title>
<g id="a_edge1_Node000001_Node000002"><a xlink:title=" ">
<path fill="none" stroke="#63b8ff" d="M582.08,-99.56C549.32,-109.78 501.37,-124.22 459,-135 446.76,-138.11 433.7,-141.16 420.99,-143.98"/>
<polygon fill="#63b8ff" stroke="#63b8ff" points="583.24,-102.86 591.74,-96.53 581.15,-96.18 583.24,-102.86"/>
</a>
</g>
</g>
<!-- Node3 -->
<g id="Node000003" class="node">
<title>Node3</title>
<g id="a_Node000003"><a xlink:href="classcom_1_1teragrep_1_1cfe__16_1_1EventManager.html#a7b24737679da20559ee1da24b25eed93" target="_top" xlink:title=" ">
<polygon fill="white" stroke="#666666" points="420,-126 272,-126 272,-96 420,-96 420,-126"/>
<text text-anchor="start" x="280" y="-114" font-family="Helvetica,sans-Serif" font-size="10.00">com.teragrep.cfe_16.Event</text>
<text text-anchor="middle" x="346" y="-103" font-family="Helvetica,sans-Serif" font-size="10.00">Manager.convertData</text>
</a>
</g>
</g>
<!-- Node1&#45;&gt;Node3 -->
<g id="edge2_Node000001_Node000003" class="edge">
<title>Node1&#45;&gt;Node3</title>
<g id="a_edge2_Node000001_Node000003"><a xlink:title=" ">
<path fill="none" stroke="#63b8ff" d="M502.39,-97.41C474.47,-99.86 445.53,-102.39 420.31,-104.59"/>
<polygon fill="#63b8ff" stroke="#63b8ff" points="502.96,-100.88 512.62,-96.52 502.35,-93.9 502.96,-100.88"/>
</a>
</g>
</g>
<!-- Node6 -->
<g id="Node000006" class="node">
<title>Node6</title>
<g id="a_Node000006"><a xlink:href="classcom_1_1teragrep_1_1cfe__16_1_1it_1_1AcknowledgementsIT.html#a145cd25807c91ed7c62729cf106b5bbc" target="_top" xlink:title=" ">
<polygon fill="white" stroke="#666666" points="459,-78 233,-78 233,-48 459,-48 459,-78"/>
<text text-anchor="start" x="241" y="-66" font-family="Helvetica,sans-Serif" font-size="10.00">com.teragrep.cfe_16.it.Acknowledgements</text>
<text text-anchor="middle" x="346" y="-55" font-family="Helvetica,sans-Serif" font-size="10.00">IT.deleteAckTest</text>
</a>
</g>
</g>
<!-- Node1&#45;&gt;Node6 -->
<g id="edge5_Node000001_Node000006" class="edge">
<title>Node1&#45;&gt;Node6</title>
<g id="a_edge5_Node000001_Node000006"><a xlink:title=" ">
<path fill="none" stroke="#63b8ff" d="M502.29,-76.58C488.03,-75.33 473.51,-74.06 459.35,-72.82"/>
<polygon fill="#63b8ff" stroke="#63b8ff" points="502.35,-80.1 512.62,-77.48 502.96,-73.12 502.35,-80.1"/>
</a>
</g>
</g>
<!-- Node7 -->
<g id="Node000007" class="node">
<title>Node7</title>
<g id="a_Node000007"><a xlink:href="classcom_1_1teragrep_1_1cfe__16_1_1it_1_1AcknowledgementsIT.html#adf6b572a31548b5d7c7e9780f8f79bac" target="_top" xlink:title=" ">
<polygon fill="white" stroke="#666666" points="459,-30 233,-30 233,0 459,0 459,-30"/>
<text text-anchor="start" x="241" y="-18" font-family="Helvetica,sans-Serif" font-size="10.00">com.teragrep.cfe_16.it.Acknowledgements</text>
<text text-anchor="middle" x="346" y="-7" font-family="Helvetica,sans-Serif" font-size="10.00">IT.getRequestedAckStatusesTest</text>
</a>
</g>
</g>
<!-- Node1&#45;&gt;Node7 -->
<g id="edge6_Node000001_Node000007" class="edge">
<title>Node1&#45;&gt;Node7</title>
<g id="a_edge6_Node000001_Node000007"><a xlink:title=" ">
<path fill="none" stroke="#63b8ff" d="M582.08,-74.44C549.32,-64.22 501.37,-49.78 459,-39 446.76,-35.89 433.7,-32.84 420.99,-30.02"/>
<polygon fill="#63b8ff" stroke="#63b8ff" points="581.15,-77.82 591.74,-77.47 583.24,-71.14 581.15,-77.82"/>
</a>
</g>
</g>
<!-- Node4 -->
<g id="Node000004" class="node">
<title>Node4</title>
<g id="a_Node000004"><a xlink:href="classcom_1_1teragrep_1_1cfe__16_1_1it_1_1ServiceAndEventManagerIT.html#a181af6902da37bde7ba1e56614540437" target="_top" xlink:title=" ">
<polygon fill="white" stroke="#666666" points="197,-153 0,-153 0,-123 197,-123 197,-153"/>
<text text-anchor="start" x="8" y="-141" font-family="Helvetica,sans-Serif" font-size="10.00">com.teragrep.cfe_16.it.Service</text>
<text text-anchor="middle" x="98.5" y="-130" font-family="Helvetica,sans-Serif" font-size="10.00">AndEventManagerIT.convertDataTest</text>
</a>
</g>
</g>
<!-- Node3&#45;&gt;Node4 -->
<g id="edge3_Node000003_Node000004" class="edge">
<title>Node3&#45;&gt;Node4</title>
<g id="a_edge3_Node000003_Node000004"><a xlink:title=" ">
<path fill="none" stroke="#63b8ff" d="M261.68,-120.16C241.03,-122.43 218.71,-124.89 197.43,-127.23"/>
<polygon fill="#63b8ff" stroke="#63b8ff" points="262.12,-123.64 271.67,-119.06 261.35,-116.68 262.12,-123.64"/>
</a>
</g>
</g>
<!-- Node5 -->
<g id="Node000005" class="node">
<title>Node5</title>
<g id="a_Node000005"><a xlink:href="classcom_1_1teragrep_1_1cfe__16_1_1it_1_1ServiceAndEventManagerIT.html#a5339949b5816661f5d3adaf45fa90319" target="_top" xlink:title=" ">
<polygon fill="white" stroke="#666666" points="196,-104.5 1,-104.5 1,-63.5 196,-63.5 196,-104.5"/>
<text text-anchor="start" x="9" y="-92.5" font-family="Helvetica,sans-Serif" font-size="10.00">com.teragrep.cfe_16.it.Service</text>
<text text-anchor="start" x="9" y="-81.5" font-family="Helvetica,sans-Serif" font-size="10.00">AndEventManagerIT.sendingMultiple</text>
<text text-anchor="middle" x="98.5" y="-70.5" font-family="Helvetica,sans-Serif" font-size="10.00">EventsTest</text>
</a>
</g>
</g>
<!-- Node3&#45;&gt;Node5 -->
<g id="edge4_Node000003_Node000005" class="edge">
<title>Node3&#45;&gt;Node5</title>
<g id="a_edge4_Node000003_Node000005"><a xlink:title=" ">
<path fill="none" stroke="#63b8ff" d="M261.5,-101.82C240.46,-99.5 217.7,-97 196.08,-94.62"/>
<polygon fill="#63b8ff" stroke="#63b8ff" points="261.35,-105.32 271.67,-102.94 262.12,-98.36 261.35,-105.32"/>
</a>
</g>
</g>
</g>
</svg>
