<?xml version="1.0" encoding="UTF-8" standalone="no"?>
<!DOCTYPE svg PUBLIC "-//W3C//DTD SVG 1.1//EN"
 "http://www.w3.org/Graphics/SVG/1.1/DTD/svg11.dtd">
<!-- Generated by graphviz version 2.43.0 (0)
 -->
<!-- Title: com.teragrep.cfe_16.connection.RelpConnection Pages: 1 -->
<svg width="870pt" height="80pt"
 viewBox="0.00 0.00 870.00 79.58" xmlns="http://www.w3.org/2000/svg" xmlns:xlink="http://www.w3.org/1999/xlink">
<g id="graph0" class="graph" transform="scale(1 1) rotate(0) translate(4 75.58)">
<title>com.teragrep.cfe_16.connection.RelpConnection</title>
<!-- Node1 -->
<g id="Node000001" class="node">
<title>Node1</title>
<g id="a_Node000001"><a xlink:title=" ">
<polygon fill="#999999" stroke="#666666" points="862,-66 686,-66 686,-36 862,-36 862,-66"/>
<text text-anchor="start" x="694" y="-54" font-family="Helvetica,sans-Serif" font-size="10.00">com.teragrep.cfe_16.connection.</text>
<text text-anchor="middle" x="774" y="-43" font-family="Helvetica,sans-Serif" font-size="10.00">RelpConnection</text>
</a>
</g>
</g>
<!-- Node2 -->
<g id="Node000002" class="node">
<title>Node2</title>
<g id="a_Node000002"><a xlink:href="classcom_1_1teragrep_1_1cfe__16_1_1connection_1_1AbstractConnection.html" target="_top" xlink:title="An abstract connection class for sending batch messages.">
<polygon fill="white" stroke="#666666" points="380,-66 204,-66 204,-36 380,-36 380,-66"/>
<text text-anchor="start" x="212" y="-54" font-family="Helvetica,sans-Serif" font-size="10.00">com.teragrep.cfe_16.connection.</text>
<text text-anchor="middle" x="292" y="-43" font-family="Helvetica,sans-Serif" font-size="10.00">AbstractConnection</text>
</a>
</g>
</g>
<!-- Node2&#45;&gt;Node1 -->
<g id="edge1_Node000001_Node000002" class="edge">
<title>Node2&#45;&gt;Node1</title>
<g id="a_edge1_Node000001_Node000002"><a xlink:title=" ">
<path fill="none" stroke="#63b8ff" d="M390.37,-65.62C399.36,-66.59 408.34,-67.41 417,-68 495.04,-73.32 514.86,-71.68 593,-68 623.26,-66.57 656.28,-63.81 685.68,-60.91"/>
<polygon fill="#63b8ff" stroke="#63b8ff" points="390.57,-62.12 380.24,-64.48 389.78,-69.08 390.57,-62.12"/>
</a>
</g>
</g>
<!-- Node4 -->
<g id="Node000004" class="node">
<title>Node4</title>
<g id="a_Node000004"><a xlink:href="classcom_1_1teragrep_1_1cfe__16_1_1connection_1_1RelpConnection.html" target="_top" xlink:title=" ">
<polygon fill="white" stroke="#666666" points="593,-30 417,-30 417,0 593,0 593,-30"/>
<text text-anchor="start" x="425" y="-18" font-family="Helvetica,sans-Serif" font-size="10.00">com.teragrep.cfe_16.connection.</text>
<text text-anchor="middle" x="505" y="-7" font-family="Helvetica,sans-Serif" font-size="10.00">RelpConnection</text>
</a>
</g>
</g>
<!-- Node2&#45;&gt;Node4 -->
<g id="edge4_Node000004_Node000002" class="edge">
<title>Node2&#45;&gt;Node4</title>
<g id="a_edge4_Node000004_Node000002"><a xlink:title=" ">
<path fill="none" stroke="#63b8ff" d="M390.07,-34.44C398.99,-32.92 407.99,-31.38 416.82,-29.87"/>
<polygon fill="#63b8ff" stroke="#63b8ff" points="389.31,-31.02 380.04,-36.15 390.49,-37.92 389.31,-31.02"/>
</a>
</g>
</g>
<!-- Node3 -->
<g id="Node000003" class="node">
<title>Node3</title>
<g id="a_Node000003"><a xlink:title=" ">
<polygon fill="white" stroke="#666666" points="167,-60.5 0,-60.5 0,-41.5 167,-41.5 167,-60.5"/>
<text text-anchor="middle" x="83.5" y="-48.5" font-family="Helvetica,sans-Serif" font-size="10.00">AbstractSyslogMessageSender</text>
</a>
</g>
</g>
<!-- Node3&#45;&gt;Node2 -->
<g id="edge2_Node000002_Node000003" class="edge">
<title>Node3&#45;&gt;Node2</title>
<g id="a_edge2_Node000002_Node000003"><a xlink:title=" ">
<path fill="none" stroke="#63b8ff" d="M177.03,-51C185.97,-51 195.01,-51 203.89,-51"/>
<polygon fill="#63b8ff" stroke="#63b8ff" points="177,-47.5 167,-51 177,-54.5 177,-47.5"/>
</a>
</g>
</g>
<!-- Node4&#45;&gt;Node1 -->
<g id="edge3_Node000001_Node000004" class="edge">
<title>Node4&#45;&gt;Node1</title>
<g id="a_edge3_Node000001_Node000004"><a xlink:title=" ">
<path fill="none" stroke="#9a32cd" stroke-dasharray="5,2" d="M603.27,-28.11C630.2,-31.75 659.27,-35.67 685.61,-39.22"/>
<polygon fill="#9a32cd" stroke="#9a32cd" points="603.43,-24.61 593.06,-26.74 602.5,-31.54 603.43,-24.61"/>
</a>
</g>
<text text-anchor="middle" x="639.5" y="-40" font-family="Helvetica,sans-Serif" font-size="10.00" fill="grey"> connection</text>
</g>
<!-- Node4&#45;&gt;Node4 -->
<g id="edge5_Node000004_Node000004" class="edge">
<title>Node4&#45;&gt;Node4</title>
<g id="a_edge5_Node000004_Node000004"><a xlink:title=" ">
<path fill="none" stroke="#9a32cd" stroke-dasharray="5,2" d="M486.45,-40.6C488.98,-44.97 495.17,-48 505,-48 521.56,-48 527.77,-39.41 523.63,-30.28"/>
<polygon fill="#9a32cd" stroke="#9a32cd" points="489.94,-40.25 486.37,-30.28 482.94,-40.3 489.94,-40.25"/>
</a>
</g>
<text text-anchor="middle" x="505" y="-51" font-family="Helvetica,sans-Serif" font-size="10.00" fill="grey"> connection</text>
</g>
</g>
</svg>
