<?xml version="1.0" encoding="UTF-8" standalone="no"?>
<!DOCTYPE svg PUBLIC "-//W3C//DTD SVG 1.1//EN"
 "http://www.w3.org/Graphics/SVG/1.1/DTD/svg11.dtd">
<!-- Generated by graphviz version 2.43.0 (0)
 -->
<!-- Title: com.teragrep.cfe_16.RequestBodyCleaner.removeEqualsArrayFromEnd Pages: 1 -->
<svg width="685pt" height="205pt"
 viewBox="0.00 0.00 685.00 204.50" xmlns="http://www.w3.org/2000/svg" xmlns:xlink="http://www.w3.org/1999/xlink">
<g id="graph0" class="graph" transform="scale(1 1) rotate(0) translate(4 200.5)">
<title>com.teragrep.cfe_16.RequestBodyCleaner.removeEqualsArrayFromEnd</title>
<!-- Node1 -->
<g id="Node000001" class="node">
<title>Node1</title>
<g id="a_Node000001"><a xlink:title=" ">
<polygon fill="#999999" stroke="#666666" points="677,-121.5 457,-121.5 457,-91.5 677,-91.5 677,-121.5"/>
<text text-anchor="start" x="465" y="-109.5" font-family="Helvetica,sans-Serif" font-size="10.00">com.teragrep.cfe_16.Request</text>
<text text-anchor="middle" x="567" y="-98.5" font-family="Helvetica,sans-Serif" font-size="10.00">BodyCleaner.removeEqualsArrayFromEnd</text>
</a>
</g>
</g>
<!-- Node2 -->
<g id="Node000002" class="node">
<title>Node2</title>
<g id="a_Node000002"><a xlink:href="classcom_1_1teragrep_1_1cfe__16_1_1RequestBodyCleaner.html#a8c50916e2c909c0572f6ede5759bb716" target="_top" xlink:title=" ">
<polygon fill="white" stroke="#666666" points="421,-121.5 231,-121.5 231,-91.5 421,-91.5 421,-121.5"/>
<text text-anchor="start" x="239" y="-109.5" font-family="Helvetica,sans-Serif" font-size="10.00">com.teragrep.cfe_16.Request</text>
<text text-anchor="middle" x="326" y="-98.5" font-family="Helvetica,sans-Serif" font-size="10.00">BodyCleaner.cleanAckRequestBody</text>
</a>
</g>
</g>
<!-- Node1&#45;&gt;Node2 -->
<g id="edge1_Node000001_Node000002" class="edge">
<title>Node1&#45;&gt;Node2</title>
<g id="a_edge1_Node000001_Node000002"><a xlink:title=" ">
<path fill="none" stroke="#63b8ff" d="M446.89,-106.5C438.28,-106.5 429.66,-106.5 421.22,-106.5"/>
<polygon fill="#63b8ff" stroke="#63b8ff" points="446.99,-110 456.99,-106.5 446.99,-103 446.99,-110"/>
</a>
</g>
</g>
<!-- Node3 -->
<g id="Node000003" class="node">
<title>Node3</title>
<g id="a_Node000003"><a xlink:href="classcom_1_1teragrep_1_1cfe__16_1_1rest_1_1HECRestController.html#ab3a1550df5cf518d9a8b27734513309e" target="_top" xlink:title=" ">
<polygon fill="white" stroke="#666666" points="171.5,-196.5 23.5,-196.5 23.5,-166.5 171.5,-166.5 171.5,-196.5"/>
<text text-anchor="start" x="31.5" y="-184.5" font-family="Helvetica,sans-Serif" font-size="10.00">com.teragrep.cfe_16.rest.</text>
<text text-anchor="middle" x="97.5" y="-173.5" font-family="Helvetica,sans-Serif" font-size="10.00">HECRestController.getAcks</text>
</a>
</g>
</g>
<!-- Node2&#45;&gt;Node3 -->
<g id="edge2_Node000002_Node000003" class="edge">
<title>Node2&#45;&gt;Node3</title>
<g id="a_edge2_Node000002_Node000003"><a xlink:title=" ">
<path fill="none" stroke="#63b8ff" d="M280.61,-125.57C255.72,-135.84 223.95,-148.26 195,-157.5 185.05,-160.67 174.41,-163.69 163.97,-166.44"/>
<polygon fill="#63b8ff" stroke="#63b8ff" points="282.25,-128.68 290.13,-121.61 279.56,-122.22 282.25,-128.68"/>
</a>
</g>
</g>
<!-- Node4 -->
<g id="Node000004" class="node">
<title>Node4</title>
<g id="a_Node000004"><a xlink:href="classcom_1_1teragrep_1_1cfe__16_1_1rest_1_1HECRestController.html#a309ac038f1b969d5346341ebfaa95983" target="_top" xlink:title=" ">
<polygon fill="white" stroke="#666666" points="180,-148.5 15,-148.5 15,-118.5 180,-118.5 180,-148.5"/>
<text text-anchor="start" x="23" y="-136.5" font-family="Helvetica,sans-Serif" font-size="10.00">com.teragrep.cfe_16.rest.</text>
<text text-anchor="middle" x="97.5" y="-125.5" font-family="Helvetica,sans-Serif" font-size="10.00">HECRestController.sendEvents</text>
</a>
</g>
</g>
<!-- Node2&#45;&gt;Node4 -->
<g id="edge3_Node000002_Node000004" class="edge">
<title>Node2&#45;&gt;Node4</title>
<g id="a_edge3_Node000002_Node000004"><a xlink:title=" ">
<path fill="none" stroke="#63b8ff" d="M220.96,-118.9C207.23,-120.54 193.31,-122.2 180.03,-123.78"/>
<polygon fill="#63b8ff" stroke="#63b8ff" points="221.4,-122.38 230.91,-117.72 220.57,-115.42 221.4,-122.38"/>
</a>
</g>
</g>
<!-- Node5 -->
<g id="Node000005" class="node">
<title>Node5</title>
<g id="a_Node000005"><a xlink:href="classcom_1_1teragrep_1_1cfe__16_1_1rest_1_1HECRestController.html#acb0b709548fabd630cc5ac27d5719fda" target="_top" xlink:title=" ">
<polygon fill="white" stroke="#666666" points="191.5,-100 3.5,-100 3.5,-59 191.5,-59 191.5,-100"/>
<text text-anchor="start" x="11.5" y="-88" font-family="Helvetica,sans-Serif" font-size="10.00">com.teragrep.cfe_16.rest.</text>
<text text-anchor="start" x="11.5" y="-77" font-family="Helvetica,sans-Serif" font-size="10.00">HECRestController.sendEventsWith</text>
<text text-anchor="middle" x="97.5" y="-66" font-family="Helvetica,sans-Serif" font-size="10.00">FormatOption</text>
</a>
</g>
</g>
<!-- Node2&#45;&gt;Node5 -->
<g id="edge4_Node000002_Node000005" class="edge">
<title>Node2&#45;&gt;Node5</title>
<g id="a_edge4_Node000002_Node000005"><a xlink:title=" ">
<path fill="none" stroke="#63b8ff" d="M220.8,-94.08C211.05,-92.92 201.21,-91.74 191.57,-90.59"/>
<polygon fill="#63b8ff" stroke="#63b8ff" points="220.57,-97.58 230.91,-95.28 221.4,-90.62 220.57,-97.58"/>
</a>
</g>
</g>
<!-- Node6 -->
<g id="Node000006" class="node">
<title>Node6</title>
<g id="a_Node000006"><a xlink:href="classcom_1_1teragrep_1_1cfe__16_1_1CleanRequestBodyTests.html#a32110ff3439f760eede8ecc476977c80" target="_top" xlink:title=" ">
<polygon fill="white" stroke="#666666" points="195,-41 0,-41 0,0 195,0 195,-41"/>
<text text-anchor="start" x="8" y="-29" font-family="Helvetica,sans-Serif" font-size="10.00">com.teragrep.cfe_16.Clean</text>
<text text-anchor="start" x="8" y="-18" font-family="Helvetica,sans-Serif" font-size="10.00">RequestBodyTests.testCleanRequest</text>
<text text-anchor="middle" x="97.5" y="-7" font-family="Helvetica,sans-Serif" font-size="10.00">BodyNormal</text>
</a>
</g>
</g>
<!-- Node2&#45;&gt;Node6 -->
<g id="edge5_Node000002_Node000006" class="edge">
<title>Node2&#45;&gt;Node6</title>
<g id="a_edge5_Node000002_Node000006"><a xlink:title=" ">
<path fill="none" stroke="#63b8ff" d="M283.24,-87.18C257.97,-75.82 224.94,-61.57 195,-50.5 186.2,-47.25 176.86,-44.04 167.59,-41.01"/>
<polygon fill="#63b8ff" stroke="#63b8ff" points="281.97,-90.45 292.53,-91.38 284.86,-84.07 281.97,-90.45"/>
</a>
</g>
</g>
</g>
</svg>
