<?xml version="1.0" encoding="UTF-8" standalone="no"?>
<!DOCTYPE svg PUBLIC "-//W3C//DTD SVG 1.1//EN"
 "http://www.w3.org/Graphics/SVG/1.1/DTD/svg11.dtd">
<!-- Generated by graphviz version 2.43.0 (0)
 -->
<!-- Title: com.teragrep.cfe_16.connection.RelpConnection Pages: 1 -->
<svg width="359pt" height="171pt"
 viewBox="0.00 0.00 359.00 171.00" xmlns="http://www.w3.org/2000/svg" xmlns:xlink="http://www.w3.org/1999/xlink">
<g id="graph0" class="graph" transform="scale(1 1) rotate(0) translate(4 167)">
<title>com.teragrep.cfe_16.connection.RelpConnection</title>
<!-- Node1 -->
<g id="Node000001" class="node">
<title>Node1</title>
<g id="a_Node000001"><a xlink:title=" ">
<polygon fill="#999999" stroke="#666666" points="176,-30 0,-30 0,0 176,0 176,-30"/>
<text text-anchor="start" x="8" y="-18" font-family="Helvetica,sans-Serif" font-size="10.00">com.teragrep.cfe_16.connection.</text>
<text text-anchor="middle" x="88" y="-7" font-family="Helvetica,sans-Serif" font-size="10.00">RelpConnection</text>
</a>
</g>
</g>
<!-- Node2 -->
<g id="Node000002" class="node">
<title>Node2</title>
<g id="a_Node000002"><a xlink:title=" ">
<polygon fill="white" stroke="#666666" points="116.5,-163 51.5,-163 51.5,-144 116.5,-144 116.5,-163"/>
<text text-anchor="middle" x="84" y="-151" font-family="Helvetica,sans-Serif" font-size="10.00">Closeable</text>
</a>
</g>
</g>
<!-- Node2&#45;&gt;Node1 -->
<g id="edge1_Node000001_Node000002" class="edge">
<title>Node2&#45;&gt;Node1</title>
<g id="a_edge1_Node000001_Node000002"><a xlink:title=" ">
<path fill="none" stroke="#63b8ff" d="M84.55,-133.65C85.37,-105.91 86.87,-54.7 87.59,-30.02"/>
<polygon fill="#63b8ff" stroke="#63b8ff" points="81.04,-133.86 84.25,-143.96 88.04,-134.07 81.04,-133.86"/>
</a>
</g>
</g>
<!-- Node3 -->
<g id="Node000003" class="node">
<title>Node3</title>
<g id="a_Node000003"><a xlink:href="classcom_1_1teragrep_1_1cfe__16_1_1connection_1_1RelpConnection.html" target="_top" xlink:title=" ">
<polygon fill="white" stroke="#666666" points="276,-107 100,-107 100,-77 276,-77 276,-107"/>
<text text-anchor="start" x="108" y="-95" font-family="Helvetica,sans-Serif" font-size="10.00">com.teragrep.cfe_16.connection.</text>
<text text-anchor="middle" x="188" y="-84" font-family="Helvetica,sans-Serif" font-size="10.00">RelpConnection</text>
</a>
</g>
</g>
<!-- Node2&#45;&gt;Node3 -->
<g id="edge3_Node000003_Node000002" class="edge">
<title>Node2&#45;&gt;Node3</title>
<g id="a_edge3_Node000003_Node000002"><a xlink:title=" ">
<path fill="none" stroke="#63b8ff" d="M107.99,-138.78C124.63,-129.25 146.73,-116.61 163.49,-107.02"/>
<polygon fill="#63b8ff" stroke="#63b8ff" points="105.84,-135.97 98.9,-143.98 109.32,-142.05 105.84,-135.97"/>
</a>
</g>
</g>
<!-- Node3&#45;&gt;Node1 -->
<g id="edge2_Node000001_Node000003" class="edge">
<title>Node3&#45;&gt;Node1</title>
<g id="a_edge2_Node000001_Node000003"><a xlink:title=" ">
<path fill="none" stroke="#9a32cd" stroke-dasharray="5,2" d="M161.17,-70.88C143.97,-57.98 122.07,-41.55 106.72,-30.04"/>
<polygon fill="#9a32cd" stroke="#9a32cd" points="159.09,-73.69 169.19,-76.89 163.29,-68.09 159.09,-73.69"/>
</a>
</g>
<text text-anchor="middle" x="171.5" y="-51" font-family="Helvetica,sans-Serif" font-size="10.00" fill="grey"> connection</text>
</g>
<!-- Node3&#45;&gt;Node3 -->
<g id="edge4_Node000003_Node000003" class="edge">
<title>Node3&#45;&gt;Node3</title>
<g id="a_edge4_Node000003_Node000003"><a xlink:title=" ">
<path fill="none" stroke="#9a32cd" stroke-dasharray="5,2" d="M286.17,-95.88C291.1,-94.91 294,-93.62 294,-92 294,-89.47 286.93,-87.74 276.13,-86.81"/>
<polygon fill="#9a32cd" stroke="#9a32cd" points="285.6,-92.42 276.13,-97.19 286.5,-99.37 285.6,-92.42"/>
</a>
</g>
<text text-anchor="middle" x="322.5" y="-89.5" font-family="Helvetica,sans-Serif" font-size="10.00" fill="grey"> connection</text>
</g>
</g>
</svg>
