<?xml version="1.0" encoding="UTF-8" standalone="no"?>
<!DOCTYPE svg PUBLIC "-//W3C//DTD SVG 1.1//EN"
 "http://www.w3.org/Graphics/SVG/1.1/DTD/svg11.dtd">
<!-- Generated by graphviz version 2.43.0 (0)
 -->
<!-- Title: com.teragrep.cfe_16.it.AcknowledgementsIT.acknowledgeTest Pages: 1 -->
<svg width="1087pt" height="326pt"
 viewBox="0.00 0.00 1087.00 326.18" xmlns="http://www.w3.org/2000/svg" xmlns:xlink="http://www.w3.org/1999/xlink">
<g id="graph0" class="graph" transform="scale(1 1) rotate(0) translate(4 322.18)">
<title>com.teragrep.cfe_16.it.AcknowledgementsIT.acknowledgeTest</title>
<!-- Node1 -->
<g id="Node000001" class="node">
<title>Node1</title>
<g id="a_Node000001"><a xlink:title=" ">
<polygon fill="#999999" stroke="#666666" points="226,-193.8 0,-193.8 0,-163.8 226,-163.8 226,-193.8"/>
<text text-anchor="start" x="8" y="-181.8" font-family="Helvetica,sans-Serif" font-size="10.00">com.teragrep.cfe_16.it.Acknowledgements</text>
<text text-anchor="middle" x="113" y="-170.8" font-family="Helvetica,sans-Serif" font-size="10.00">IT.acknowledgeTest</text>
</a>
</g>
</g>
<!-- Node2 -->
<g id="Node000002" class="node">
<title>Node2</title>
<g id="a_Node000002"><a xlink:href="classcom_1_1teragrep_1_1cfe__16_1_1Acknowledgements.html#a8c6f0dff735fde04e0bc670136eb57d2" target="_top" xlink:title=" ">
<polygon fill="white" stroke="#666666" points="546,-316.3 262,-316.3 262,-297.3 546,-297.3 546,-316.3"/>
<text text-anchor="middle" x="404" y="-304.3" font-family="Helvetica,sans-Serif" font-size="10.00">com.teragrep.cfe_16.Acknowledgements.acknowledge</text>
</a>
</g>
</g>
<!-- Node1&#45;&gt;Node2 -->
<g id="edge1_Node000001_Node000002" class="edge">
<title>Node1&#45;&gt;Node2</title>
<g id="a_edge1_Node000001_Node000002"><a xlink:title=" ">
<path fill="none" stroke="#63b8ff" d="M148,-193.86C204.73,-218.98 317.8,-269.07 372.27,-293.19"/>
<polygon fill="#63b8ff" stroke="#63b8ff" points="370.86,-296.4 381.43,-297.24 373.7,-289.99 370.86,-296.4"/>
</a>
</g>
</g>
<!-- Node4 -->
<g id="Node000004" class="node">
<title>Node4</title>
<g id="a_Node000004"><a xlink:href="classcom_1_1teragrep_1_1cfe__16_1_1Acknowledgements.html#a954c7b6f37e4bcd616879315307d85bb" target="_top" xlink:title="Adds a new Ack object for given channel.">
<polygon fill="white" stroke="#666666" points="531.5,-231.3 276.5,-231.3 276.5,-212.3 531.5,-212.3 531.5,-231.3"/>
<text text-anchor="middle" x="404" y="-219.3" font-family="Helvetica,sans-Serif" font-size="10.00">com.teragrep.cfe_16.Acknowledgements.addAck</text>
</a>
</g>
</g>
<!-- Node1&#45;&gt;Node4 -->
<g id="edge3_Node000001_Node000004" class="edge">
<title>Node1&#45;&gt;Node4</title>
<g id="a_edge3_Node000001_Node000004"><a xlink:title=" ">
<path fill="none" stroke="#63b8ff" d="M204.34,-193.84C223.37,-196.9 243.33,-200.03 262,-202.8 280.54,-205.55 300.47,-208.34 319.34,-210.9"/>
<polygon fill="#63b8ff" stroke="#63b8ff" points="319.02,-214.39 329.4,-212.26 319.96,-207.46 319.02,-214.39"/>
</a>
</g>
</g>
<!-- Node5 -->
<g id="Node000005" class="node">
<title>Node5</title>
<g id="a_Node000005"><a xlink:href="classcom_1_1teragrep_1_1cfe__16_1_1Acknowledgements.html#a5307dc12a64ca957ae24430d09b372e1" target="_top" xlink:title=" ">
<polygon fill="white" stroke="#666666" points="538.5,-193.8 269.5,-193.8 269.5,-163.8 538.5,-163.8 538.5,-193.8"/>
<text text-anchor="start" x="277.5" y="-181.8" font-family="Helvetica,sans-Serif" font-size="10.00">com.teragrep.cfe_16.Acknowledgements.increment</text>
<text text-anchor="middle" x="404" y="-170.8" font-family="Helvetica,sans-Serif" font-size="10.00">AckValue</text>
</a>
</g>
</g>
<!-- Node1&#45;&gt;Node5 -->
<g id="edge4_Node000001_Node000005" class="edge">
<title>Node1&#45;&gt;Node5</title>
<g id="a_edge4_Node000001_Node000005"><a xlink:title=" ">
<path fill="none" stroke="#63b8ff" d="M226.15,-178.8C236.96,-178.8 248.03,-178.8 259.09,-178.8"/>
<polygon fill="#63b8ff" stroke="#63b8ff" points="259.24,-182.3 269.24,-178.8 259.24,-175.3 259.24,-182.3"/>
</a>
</g>
</g>
<!-- Node11 -->
<g id="Node000011" class="node">
<title>Node11</title>
<g id="a_Node000011"><a xlink:href="classcom_1_1teragrep_1_1cfe__16_1_1Acknowledgements.html#a06622ee4fcccb291cf0c97cb55189d83" target="_top" xlink:title="This method has to be called first before calling any other Ack related methods.">
<polygon fill="white" stroke="#666666" points="534.5,-145.8 273.5,-145.8 273.5,-115.8 534.5,-115.8 534.5,-145.8"/>
<text text-anchor="start" x="281.5" y="-133.8" font-family="Helvetica,sans-Serif" font-size="10.00">com.teragrep.cfe_16.Acknowledgements.initialize</text>
<text text-anchor="middle" x="404" y="-122.8" font-family="Helvetica,sans-Serif" font-size="10.00">Context</text>
</a>
</g>
</g>
<!-- Node1&#45;&gt;Node11 -->
<g id="edge12_Node000001_Node000011" class="edge">
<title>Node1&#45;&gt;Node11</title>
<g id="a_edge12_Node000001_Node000011"><a xlink:title=" ">
<path fill="none" stroke="#63b8ff" d="M204.65,-163.74C235.72,-158.58 270.66,-152.78 302.47,-147.5"/>
<polygon fill="#63b8ff" stroke="#63b8ff" points="303.38,-150.89 312.67,-145.8 302.23,-143.99 303.38,-150.89"/>
</a>
</g>
</g>
<!-- Node12 -->
<g id="Node000012" class="node">
<title>Node12</title>
<g id="a_Node000012"><a xlink:href="classcom_1_1teragrep_1_1cfe__16_1_1Acknowledgements.html#a9544ac800392336cc3fa19b72234d014" target="_top" xlink:title="Checks if the Ack with a given id is acknowledged.">
<polygon fill="white" stroke="#666666" points="517.5,-76.8 290.5,-76.8 290.5,-46.8 517.5,-46.8 517.5,-76.8"/>
<text text-anchor="start" x="298.5" y="-64.8" font-family="Helvetica,sans-Serif" font-size="10.00">com.teragrep.cfe_16.Acknowledgements.is</text>
<text text-anchor="middle" x="404" y="-53.8" font-family="Helvetica,sans-Serif" font-size="10.00">AckAcknowledged</text>
</a>
</g>
</g>
<!-- Node1&#45;&gt;Node12 -->
<g id="edge13_Node000001_Node000012" class="edge">
<title>Node1&#45;&gt;Node12</title>
<g id="a_edge13_Node000001_Node000012"><a xlink:title=" ">
<path fill="none" stroke="#63b8ff" d="M141.83,-163.77C171.18,-148.27 219.03,-124.01 262,-106.8 287.17,-96.72 315.53,-87.31 340.19,-79.72"/>
<polygon fill="#63b8ff" stroke="#63b8ff" points="341.25,-83.06 349.8,-76.8 339.22,-76.36 341.25,-83.06"/>
</a>
</g>
</g>
<!-- Node3 -->
<g id="Node000003" class="node">
<title>Node3</title>
<g id="a_Node000003"><a xlink:href="classcom_1_1teragrep_1_1cfe__16_1_1Acknowledgements_1_1State.html#ad9d95fec84a00a574b21981fc673f10a" target="_top" xlink:title=" ">
<polygon fill="white" stroke="#666666" points="1079,-286.8 860,-286.8 860,-256.8 1079,-256.8 1079,-286.8"/>
<text text-anchor="start" x="868" y="-274.8" font-family="Helvetica,sans-Serif" font-size="10.00">com.teragrep.cfe_16.Acknowledgements.</text>
<text text-anchor="middle" x="969.5" y="-263.8" font-family="Helvetica,sans-Serif" font-size="10.00">State.getAckMap</text>
</a>
</g>
</g>
<!-- Node2&#45;&gt;Node3 -->
<g id="edge2_Node000002_Node000003" class="edge">
<title>Node2&#45;&gt;Node3</title>
<g id="a_edge2_Node000002_Node000003"><a xlink:title=" ">
<path fill="none" stroke="#63b8ff" d="M546.14,-315.84C627.65,-318.89 731.94,-319.09 824,-307.8 853.01,-304.24 884.58,-296.8 910.79,-289.61"/>
<polygon fill="#63b8ff" stroke="#63b8ff" points="911.87,-292.94 920.56,-286.87 909.98,-286.2 911.87,-292.94"/>
</a>
</g>
</g>
<!-- Node5&#45;&gt;Node3 -->
<g id="edge7_Node000005_Node000003" class="edge">
<title>Node5&#45;&gt;Node3</title>
<g id="a_edge7_Node000005_Node000003"><a xlink:title=" ">
<path fill="none" stroke="#63b8ff" d="M529.7,-193.92C535.43,-196.75 540.91,-200.02 546,-203.8 574.41,-224.89 551.85,-256.28 582,-274.8 625.35,-301.43 752.95,-295.46 849.78,-286.16"/>
<polygon fill="#63b8ff" stroke="#63b8ff" points="850.33,-289.63 859.94,-285.17 849.65,-282.66 850.33,-289.63"/>
</a>
</g>
</g>
<!-- Node6 -->
<g id="Node000006" class="node">
<title>Node6</title>
<g id="a_Node000006"><a xlink:href="classcom_1_1teragrep_1_1cfe__16_1_1Acknowledgements.html#a7a9570efce9732f5f674e9ea85017439" target="_top" xlink:title=" ">
<polygon fill="white" stroke="#666666" points="824,-265.8 582,-265.8 582,-235.8 824,-235.8 824,-265.8"/>
<text text-anchor="start" x="590" y="-253.8" font-family="Helvetica,sans-Serif" font-size="10.00">com.teragrep.cfe_16.Acknowledgements.acks</text>
<text text-anchor="middle" x="703" y="-242.8" font-family="Helvetica,sans-Serif" font-size="10.00">Available</text>
</a>
</g>
</g>
<!-- Node5&#45;&gt;Node6 -->
<g id="edge5_Node000005_Node000006" class="edge">
<title>Node5&#45;&gt;Node6</title>
<g id="a_edge5_Node000005_Node000006"><a xlink:title=" ">
<path fill="none" stroke="#63b8ff" d="M514.72,-193.85C525.45,-196.63 536.04,-199.91 546,-203.8 563.69,-210.7 564.39,-219.71 582,-226.8 587.49,-229.01 593.21,-231.03 599.04,-232.86"/>
<polygon fill="#63b8ff" stroke="#63b8ff" points="598.36,-236.31 608.94,-235.78 600.34,-229.6 598.36,-236.31"/>
</a>
</g>
</g>
<!-- Node7 -->
<g id="Node000007" class="node">
<title>Node7</title>
<g id="a_Node000007"><a xlink:href="classcom_1_1teragrep_1_1cfe__16_1_1Acknowledgements_1_1State.html#a7d72966efb4505634712c4c64c96440c" target="_top" xlink:title=" ">
<polygon fill="white" stroke="#666666" points="812.5,-217.8 593.5,-217.8 593.5,-187.8 812.5,-187.8 812.5,-217.8"/>
<text text-anchor="start" x="601.5" y="-205.8" font-family="Helvetica,sans-Serif" font-size="10.00">com.teragrep.cfe_16.Acknowledgements.</text>
<text text-anchor="middle" x="703" y="-194.8" font-family="Helvetica,sans-Serif" font-size="10.00">State.getAckToCompare</text>
</a>
</g>
</g>
<!-- Node5&#45;&gt;Node7 -->
<g id="edge8_Node000005_Node000007" class="edge">
<title>Node5&#45;&gt;Node7</title>
<g id="a_edge8_Node000005_Node000007"><a xlink:title=" ">
<path fill="none" stroke="#63b8ff" d="M538.73,-189.61C553.62,-190.81 568.7,-192.03 583.38,-193.21"/>
<polygon fill="#63b8ff" stroke="#63b8ff" points="583.22,-196.71 593.47,-194.03 583.79,-189.74 583.22,-196.71"/>
</a>
</g>
</g>
<!-- Node8 -->
<g id="Node000008" class="node">
<title>Node8</title>
<g id="a_Node000008"><a xlink:href="classcom_1_1teragrep_1_1cfe__16_1_1Acknowledgements_1_1State.html#aa1809213ec400ce2fccaff6cab3e244b" target="_top" xlink:title=" ">
<polygon fill="white" stroke="#666666" points="812.5,-169.8 593.5,-169.8 593.5,-139.8 812.5,-139.8 812.5,-169.8"/>
<text text-anchor="start" x="601.5" y="-157.8" font-family="Helvetica,sans-Serif" font-size="10.00">com.teragrep.cfe_16.Acknowledgements.</text>
<text text-anchor="middle" x="703" y="-146.8" font-family="Helvetica,sans-Serif" font-size="10.00">State.getCurrentAckValue</text>
</a>
</g>
</g>
<!-- Node5&#45;&gt;Node8 -->
<g id="edge9_Node000005_Node000008" class="edge">
<title>Node5&#45;&gt;Node8</title>
<g id="a_edge9_Node000005_Node000008"><a xlink:title=" ">
<path fill="none" stroke="#63b8ff" d="M538.73,-167.99C553.62,-166.79 568.7,-165.57 583.38,-164.39"/>
<polygon fill="#63b8ff" stroke="#63b8ff" points="583.79,-167.86 593.47,-163.57 583.22,-160.89 583.79,-167.86"/>
</a>
</g>
</g>
<!-- Node9 -->
<g id="Node000009" class="node">
<title>Node9</title>
<g id="a_Node000009"><a xlink:href="classcom_1_1teragrep_1_1cfe__16_1_1Acknowledgements_1_1State.html#ab460c6226ddd97252506f01f11cf9f3d" target="_top" xlink:title=" ">
<polygon fill="white" stroke="#666666" points="812.5,-121.8 593.5,-121.8 593.5,-91.8 812.5,-91.8 812.5,-121.8"/>
<text text-anchor="start" x="601.5" y="-109.8" font-family="Helvetica,sans-Serif" font-size="10.00">com.teragrep.cfe_16.Acknowledgements.</text>
<text text-anchor="middle" x="703" y="-98.8" font-family="Helvetica,sans-Serif" font-size="10.00">State.setAckToCompare</text>
</a>
</g>
</g>
<!-- Node5&#45;&gt;Node9 -->
<g id="edge10_Node000005_Node000009" class="edge">
<title>Node5&#45;&gt;Node9</title>
<g id="a_edge10_Node000005_Node000009"><a xlink:title=" ">
<path fill="none" stroke="#63b8ff" d="M518.9,-163.71C528.2,-161.19 537.35,-158.24 546,-154.8 563.87,-147.7 564.23,-138.16 582,-130.8 587.34,-128.59 592.91,-126.57 598.59,-124.74"/>
<polygon fill="#63b8ff" stroke="#63b8ff" points="599.67,-128.07 608.23,-121.83 597.65,-121.37 599.67,-128.07"/>
</a>
</g>
</g>
<!-- Node10 -->
<g id="Node000010" class="node">
<title>Node10</title>
<g id="a_Node000010"><a xlink:href="classcom_1_1teragrep_1_1cfe__16_1_1Acknowledgements_1_1State.html#a2ce209b2faca53446cccd40bc4de2726" target="_top" xlink:title=" ">
<polygon fill="white" stroke="#666666" points="812.5,-73.8 593.5,-73.8 593.5,-43.8 812.5,-43.8 812.5,-73.8"/>
<text text-anchor="start" x="601.5" y="-61.8" font-family="Helvetica,sans-Serif" font-size="10.00">com.teragrep.cfe_16.Acknowledgements.</text>
<text text-anchor="middle" x="703" y="-50.8" font-family="Helvetica,sans-Serif" font-size="10.00">State.setCurrentAckValue</text>
</a>
</g>
</g>
<!-- Node5&#45;&gt;Node10 -->
<g id="edge11_Node000005_Node000010" class="edge">
<title>Node5&#45;&gt;Node10</title>
<g id="a_edge11_Node000005_Node000010"><a xlink:title=" ">
<path fill="none" stroke="#63b8ff" d="M531.39,-163.8C536.51,-161.18 541.41,-158.2 546,-154.8 574.74,-133.5 553.57,-104.52 582,-82.8 583.82,-81.41 585.69,-80.1 587.62,-78.85"/>
<polygon fill="#63b8ff" stroke="#63b8ff" points="589.44,-81.85 596.38,-73.84 585.96,-75.77 589.44,-81.85"/>
</a>
</g>
</g>
<!-- Node6&#45;&gt;Node3 -->
<g id="edge6_Node000006_Node000003" class="edge">
<title>Node6&#45;&gt;Node3</title>
<g id="a_edge6_Node000006_Node000003"><a xlink:title=" ">
<path fill="none" stroke="#63b8ff" d="M824.25,-260.35C832.69,-261.02 841.2,-261.69 849.63,-262.36"/>
<polygon fill="#63b8ff" stroke="#63b8ff" points="849.63,-265.87 859.87,-263.18 850.18,-258.9 849.63,-265.87"/>
</a>
</g>
</g>
<!-- Node12&#45;&gt;Node3 -->
<g id="edge14_Node000012_Node000003" class="edge">
<title>Node12&#45;&gt;Node3</title>
<g id="a_edge14_Node000012_Node000003"><a xlink:title=" ">
<path fill="none" stroke="#63b8ff" d="M442.14,-46.74C519.08,-18.11 699.11,35.33 824,-34.8 906.58,-81.17 947.53,-196.01 962.1,-246.87"/>
<polygon fill="#63b8ff" stroke="#63b8ff" points="958.78,-248 964.81,-256.71 965.52,-246.14 958.78,-248"/>
</a>
</g>
</g>
</g>
</svg>
