<?xml version="1.0" encoding="UTF-8" standalone="no"?>
<!DOCTYPE svg PUBLIC "-//W3C//DTD SVG 1.1//EN"
 "http://www.w3.org/Graphics/SVG/1.1/DTD/svg11.dtd">
<!-- Generated by graphviz version 2.43.0 (0)
 -->
<!-- Title: com.teragrep.cfe_16.bo.HeaderInfo.asSDElement Pages: 1 -->
<svg width="410pt" height="172pt"
 viewBox="0.00 0.00 410.00 171.50" xmlns="http://www.w3.org/2000/svg" xmlns:xlink="http://www.w3.org/1999/xlink">
<g id="graph0" class="graph" transform="scale(1 1) rotate(0) translate(4 167.5)">
<title>com.teragrep.cfe_16.bo.HeaderInfo.asSDElement</title>
<!-- Node1 -->
<g id="Node000001" class="node">
<title>Node1</title>
<g id="a_Node000001"><a xlink:title=" ">
<polygon fill="#999999" stroke="#666666" points="170,-102 0,-102 0,-72 170,-72 170,-102"/>
<text text-anchor="start" x="8" y="-90" font-family="Helvetica,sans-Serif" font-size="10.00">com.teragrep.cfe_16.bo.Header</text>
<text text-anchor="middle" x="85" y="-79" font-family="Helvetica,sans-Serif" font-size="10.00">Info.asSDElement</text>
</a>
</g>
</g>
<!-- Node2 -->
<g id="Node000002" class="node">
<title>Node2</title>
<g id="a_Node000002"><a xlink:href="interfacecom_1_1teragrep_1_1cfe__16_1_1Stubable.html#a8e854db1814eeb807cd9049776c33923" target="_top" xlink:title=" ">
<polygon fill="white" stroke="#666666" points="402,-163.5 206,-163.5 206,-144.5 402,-144.5 402,-163.5"/>
<text text-anchor="middle" x="304" y="-151.5" font-family="Helvetica,sans-Serif" font-size="10.00">com.teragrep.cfe_16.Stubable.isStub</text>
</a>
</g>
</g>
<!-- Node1&#45;&gt;Node2 -->
<g id="edge1_Node000001_Node000002" class="edge">
<title>Node1&#45;&gt;Node2</title>
<g id="a_edge1_Node000001_Node000002"><a xlink:title=" ">
<path fill="none" stroke="#63b8ff" d="M118.77,-102.05C142.57,-112.49 175.76,-126.08 206,-135 215.22,-137.72 225.06,-140.16 234.79,-142.31"/>
<polygon fill="#63b8ff" stroke="#63b8ff" points="234.36,-145.8 244.87,-144.45 235.81,-138.95 234.36,-145.8"/>
</a>
</g>
</g>
<!-- Node3 -->
<g id="Node000003" class="node">
<title>Node3</title>
<g id="a_Node000003"><a xlink:href="interfacecom_1_1teragrep_1_1cfe__16_1_1bo_1_1XForwardedFor.html#a113b5e3c48eba97ef47b0dbcb64ef592" target="_top" xlink:title=" ">
<polygon fill="white" stroke="#666666" points="400.5,-126 207.5,-126 207.5,-96 400.5,-96 400.5,-126"/>
<text text-anchor="start" x="215.5" y="-114" font-family="Helvetica,sans-Serif" font-size="10.00">com.teragrep.cfe_16.bo.XForwarded</text>
<text text-anchor="middle" x="304" y="-103" font-family="Helvetica,sans-Serif" font-size="10.00">For.value</text>
</a>
</g>
</g>
<!-- Node1&#45;&gt;Node3 -->
<g id="edge2_Node000001_Node000003" class="edge">
<title>Node1&#45;&gt;Node3</title>
<g id="a_edge2_Node000001_Node000003"><a xlink:title=" ">
<path fill="none" stroke="#63b8ff" d="M170.21,-96.31C179.04,-97.29 188.09,-98.29 197.12,-99.29"/>
<polygon fill="#63b8ff" stroke="#63b8ff" points="196.97,-102.79 207.3,-100.42 197.74,-95.84 196.97,-102.79"/>
</a>
</g>
</g>
<!-- Node4 -->
<g id="Node000004" class="node">
<title>Node4</title>
<g id="a_Node000004"><a xlink:href="interfacecom_1_1teragrep_1_1cfe__16_1_1bo_1_1XForwardedHost.html#af36e894a4b77acf609737e584479e182" target="_top" xlink:title=" ">
<polygon fill="white" stroke="#666666" points="400.5,-78 207.5,-78 207.5,-48 400.5,-48 400.5,-78"/>
<text text-anchor="start" x="215.5" y="-66" font-family="Helvetica,sans-Serif" font-size="10.00">com.teragrep.cfe_16.bo.XForwarded</text>
<text text-anchor="middle" x="304" y="-55" font-family="Helvetica,sans-Serif" font-size="10.00">Host.value</text>
</a>
</g>
</g>
<!-- Node1&#45;&gt;Node4 -->
<g id="edge3_Node000001_Node000004" class="edge">
<title>Node1&#45;&gt;Node4</title>
<g id="a_edge3_Node000001_Node000004"><a xlink:title=" ">
<path fill="none" stroke="#63b8ff" d="M170.21,-77.69C179.04,-76.71 188.09,-75.71 197.12,-74.71"/>
<polygon fill="#63b8ff" stroke="#63b8ff" points="197.74,-78.16 207.3,-73.58 196.97,-71.21 197.74,-78.16"/>
</a>
</g>
</g>
<!-- Node5 -->
<g id="Node000005" class="node">
<title>Node5</title>
<g id="a_Node000005"><a xlink:href="interfacecom_1_1teragrep_1_1cfe__16_1_1bo_1_1XForwardedProto.html#a43d7fb30c973c1c89906b9ac3b928e06" target="_top" xlink:title=" ">
<polygon fill="white" stroke="#666666" points="400.5,-30 207.5,-30 207.5,0 400.5,0 400.5,-30"/>
<text text-anchor="start" x="215.5" y="-18" font-family="Helvetica,sans-Serif" font-size="10.00">com.teragrep.cfe_16.bo.XForwarded</text>
<text text-anchor="middle" x="304" y="-7" font-family="Helvetica,sans-Serif" font-size="10.00">Proto.value</text>
</a>
</g>
</g>
<!-- Node1&#45;&gt;Node5 -->
<g id="edge4_Node000001_Node000005" class="edge">
<title>Node1&#45;&gt;Node5</title>
<g id="a_edge4_Node000001_Node000005"><a xlink:title=" ">
<path fill="none" stroke="#63b8ff" d="M119.94,-71.97C143.72,-61.79 176.42,-48.53 206,-39 212.81,-36.81 219.95,-34.7 227.12,-32.7"/>
<polygon fill="#63b8ff" stroke="#63b8ff" points="228.17,-36.04 236.91,-30.05 226.34,-29.29 228.17,-36.04"/>
</a>
</g>
</g>
</g>
</svg>
