<?xml version="1.0" encoding="UTF-8" standalone="no"?>
<!DOCTYPE svg PUBLIC "-//W3C//DTD SVG 1.1//EN"
 "http://www.w3.org/Graphics/SVG/1.1/DTD/svg11.dtd">
<!-- Generated by graphviz version 2.43.0 (0)
 -->
<!-- Title: com.teragrep.cfe_16.EventManager.convertData Pages: 1 -->
<svg width="607pt" height="230pt"
 viewBox="0.00 0.00 607.00 230.00" xmlns="http://www.w3.org/2000/svg" xmlns:xlink="http://www.w3.org/1999/xlink">
<g id="graph0" class="graph" transform="scale(1 1) rotate(0) translate(4 226)">
<title>com.teragrep.cfe_16.EventManager.convertData</title>
<!-- Node1 -->
<g id="Node000001" class="node">
<title>Node1</title>
<g id="a_Node000001"><a xlink:title=" ">
<polygon fill="#999999" stroke="#666666" points="148,-174 0,-174 0,-144 148,-144 148,-174"/>
<text text-anchor="start" x="8" y="-162" font-family="Helvetica,sans-Serif" font-size="10.00">com.teragrep.cfe_16.Event</text>
<text text-anchor="middle" x="74" y="-151" font-family="Helvetica,sans-Serif" font-size="10.00">Manager.convertData</text>
</a>
</g>
</g>
<!-- Node2 -->
<g id="Node000002" class="node">
<title>Node2</title>
<g id="a_Node000002"><a xlink:href="classcom_1_1teragrep_1_1cfe__16_1_1EventManager.html#a952ab8d08a4ca2207f87d1aa04abce7a" target="_top" xlink:title=" ">
<polygon fill="white" stroke="#666666" points="353,-222 205,-222 205,-192 353,-192 353,-222"/>
<text text-anchor="start" x="213" y="-210" font-family="Helvetica,sans-Serif" font-size="10.00">com.teragrep.cfe_16.Event</text>
<text text-anchor="middle" x="279" y="-199" font-family="Helvetica,sans-Serif" font-size="10.00">Manager.assignMetaData</text>
</a>
</g>
</g>
<!-- Node1&#45;&gt;Node2 -->
<g id="edge1_Node000001_Node000002" class="edge">
<title>Node1&#45;&gt;Node2</title>
<g id="a_edge1_Node000001_Node000002"><a xlink:title=" ">
<path fill="none" stroke="#63b8ff" d="M138.67,-174.06C159.65,-179.01 183.13,-184.57 204.76,-189.68"/>
<polygon fill="#63b8ff" stroke="#63b8ff" points="204.02,-193.1 214.55,-192 205.63,-186.29 204.02,-193.1"/>
</a>
</g>
</g>
<!-- Node3 -->
<g id="Node000003" class="node">
<title>Node3</title>
<g id="a_Node000003"><a xlink:href="classcom_1_1teragrep_1_1cfe__16_1_1EventManager.html#a499862d588b74185c5a5cafcdc0c407e" target="_top" xlink:title=" ">
<polygon fill="white" stroke="#666666" points="353,-174 205,-174 205,-144 353,-144 353,-174"/>
<text text-anchor="start" x="213" y="-162" font-family="Helvetica,sans-Serif" font-size="10.00">com.teragrep.cfe_16.Event</text>
<text text-anchor="middle" x="279" y="-151" font-family="Helvetica,sans-Serif" font-size="10.00">Manager.handleTime</text>
</a>
</g>
</g>
<!-- Node1&#45;&gt;Node3 -->
<g id="edge2_Node000001_Node000003" class="edge">
<title>Node1&#45;&gt;Node3</title>
<g id="a_edge2_Node000001_Node000003"><a xlink:title=" ">
<path fill="none" stroke="#63b8ff" d="M148,-159C163.2,-159 179.33,-159 194.86,-159"/>
<polygon fill="#63b8ff" stroke="#63b8ff" points="194.97,-162.5 204.96,-159 194.96,-155.5 194.97,-162.5"/>
</a>
</g>
</g>
<!-- Node6 -->
<g id="Node000006" class="node">
<title>Node6</title>
<g id="a_Node000006"><a xlink:href="classcom_1_1teragrep_1_1cfe__16_1_1Converter.html#a602a68046d2d394249793b6d74b62050" target="_top" xlink:title=" ">
<polygon fill="white" stroke="#666666" points="374,-102 184,-102 184,-72 374,-72 374,-102"/>
<text text-anchor="start" x="192" y="-90" font-family="Helvetica,sans-Serif" font-size="10.00">com.teragrep.cfe_16.Converter.http</text>
<text text-anchor="middle" x="279" y="-79" font-family="Helvetica,sans-Serif" font-size="10.00">ToSyslog</text>
</a>
</g>
</g>
<!-- Node1&#45;&gt;Node6 -->
<g id="edge5_Node000001_Node000006" class="edge">
<title>Node1&#45;&gt;Node6</title>
<g id="a_edge5_Node000001_Node000006"><a xlink:title=" ">
<path fill="none" stroke="#63b8ff" d="M117.56,-143.91C149.09,-132.72 192.24,-117.42 225.85,-105.5"/>
<polygon fill="#63b8ff" stroke="#63b8ff" points="227.25,-108.72 235.5,-102.07 224.91,-102.12 227.25,-108.72"/>
</a>
</g>
</g>
<!-- Node4 -->
<g id="Node000004" class="node">
<title>Node4</title>
<g id="a_Node000004"><a xlink:href="classcom_1_1teragrep_1_1cfe__16_1_1EventManager.html#a74cf4d32251dd8b36aee7d8b3578f62b" target="_top" xlink:title=" ">
<polygon fill="white" stroke="#666666" points="599,-222 410,-222 410,-192 599,-192 599,-222"/>
<text text-anchor="start" x="418" y="-210" font-family="Helvetica,sans-Serif" font-size="10.00">com.teragrep.cfe_16.Event</text>
<text text-anchor="middle" x="504.5" y="-199" font-family="Helvetica,sans-Serif" font-size="10.00">Manager.convertTimeToEpochMillis</text>
</a>
</g>
</g>
<!-- Node3&#45;&gt;Node4 -->
<g id="edge3_Node000003_Node000004" class="edge">
<title>Node3&#45;&gt;Node4</title>
<g id="a_edge3_Node000003_Node000004"><a xlink:title=" ">
<path fill="none" stroke="#63b8ff" d="M350.1,-174.06C373.51,-179.08 399.75,-184.72 423.83,-189.89"/>
<polygon fill="#63b8ff" stroke="#63b8ff" points="423.13,-193.32 433.65,-192 424.6,-186.48 423.13,-193.32"/>
</a>
</g>
</g>
<!-- Node5 -->
<g id="Node000005" class="node">
<title>Node5</title>
<g id="a_Node000005"><a xlink:href="classcom_1_1teragrep_1_1cfe__16_1_1EventManager.html#a159ac4f3aa69ac663e34efa51c9147d6" target="_top" xlink:title=" ">
<polygon fill="white" stroke="#666666" points="578.5,-174 430.5,-174 430.5,-144 578.5,-144 578.5,-174"/>
<text text-anchor="start" x="438.5" y="-162" font-family="Helvetica,sans-Serif" font-size="10.00">com.teragrep.cfe_16.Event</text>
<text text-anchor="middle" x="504.5" y="-151" font-family="Helvetica,sans-Serif" font-size="10.00">Manager.removeDecimal</text>
</a>
</g>
</g>
<!-- Node3&#45;&gt;Node5 -->
<g id="edge4_Node000003_Node000005" class="edge">
<title>Node3&#45;&gt;Node5</title>
<g id="a_edge4_Node000003_Node000005"><a xlink:title=" ">
<path fill="none" stroke="#63b8ff" d="M353.18,-159C374.5,-159 397.96,-159 419.87,-159"/>
<polygon fill="#63b8ff" stroke="#63b8ff" points="420.15,-162.5 430.15,-159 420.15,-155.5 420.15,-162.5"/>
</a>
</g>
</g>
<!-- Node7 -->
<g id="Node000007" class="node">
<title>Node7</title>
<g id="a_Node000007"><a xlink:href="classcom_1_1teragrep_1_1cfe__16_1_1Converter.html#ad3945e06829eabba7dec42281559bffb" target="_top" xlink:title=" ">
<polygon fill="white" stroke="#666666" points="597,-126 412,-126 412,-96 597,-96 597,-126"/>
<text text-anchor="start" x="420" y="-114" font-family="Helvetica,sans-Serif" font-size="10.00">com.teragrep.cfe_16.Converter.set</text>
<text text-anchor="middle" x="504.5" y="-103" font-family="Helvetica,sans-Serif" font-size="10.00">EventFacility</text>
</a>
</g>
</g>
<!-- Node6&#45;&gt;Node7 -->
<g id="edge6_Node000006_Node000007" class="edge">
<title>Node6&#45;&gt;Node7</title>
<g id="a_edge6_Node000006_Node000007"><a xlink:title=" ">
<path fill="none" stroke="#63b8ff" d="M374.14,-97.11C383.34,-98.1 392.7,-99.1 401.97,-100.1"/>
<polygon fill="#63b8ff" stroke="#63b8ff" points="401.66,-103.58 411.97,-101.17 402.4,-96.62 401.66,-103.58"/>
</a>
</g>
</g>
<!-- Node8 -->
<g id="Node000008" class="node">
<title>Node8</title>
<g id="a_Node000008"><a xlink:href="classcom_1_1teragrep_1_1cfe__16_1_1Converter.html#a99439ed8fa2f982deedfa6168ecbeba8" target="_top" xlink:title=" ">
<polygon fill="white" stroke="#666666" points="597,-78 412,-78 412,-48 597,-48 597,-78"/>
<text text-anchor="start" x="420" y="-66" font-family="Helvetica,sans-Serif" font-size="10.00">com.teragrep.cfe_16.Converter.set</text>
<text text-anchor="middle" x="504.5" y="-55" font-family="Helvetica,sans-Serif" font-size="10.00">EventSeverity</text>
</a>
</g>
</g>
<!-- Node6&#45;&gt;Node8 -->
<g id="edge7_Node000006_Node000008" class="edge">
<title>Node6&#45;&gt;Node8</title>
<g id="a_edge7_Node000006_Node000008"><a xlink:title=" ">
<path fill="none" stroke="#63b8ff" d="M374.14,-76.89C383.34,-75.9 392.7,-74.9 401.97,-73.9"/>
<polygon fill="#63b8ff" stroke="#63b8ff" points="402.4,-77.38 411.97,-72.83 401.66,-70.42 402.4,-77.38"/>
</a>
</g>
</g>
<!-- Node9 -->
<g id="Node000009" class="node">
<title>Node9</title>
<g id="a_Node000009"><a xlink:href="classcom_1_1teragrep_1_1cfe__16_1_1Converter.html#a18a7c850c23a15fd3ab357f011ec5866" target="_top" xlink:title=" ">
<polygon fill="white" stroke="#666666" points="597,-30 412,-30 412,0 597,0 597,-30"/>
<text text-anchor="start" x="420" y="-18" font-family="Helvetica,sans-Serif" font-size="10.00">com.teragrep.cfe_16.Converter.set</text>
<text text-anchor="middle" x="504.5" y="-7" font-family="Helvetica,sans-Serif" font-size="10.00">StructuredDataParams</text>
</a>
</g>
</g>
<!-- Node6&#45;&gt;Node9 -->
<g id="edge8_Node000006_Node000009" class="edge">
<title>Node6&#45;&gt;Node9</title>
<g id="a_edge8_Node000006_Node000009"><a xlink:title=" ">
<path fill="none" stroke="#63b8ff" d="M317.76,-71.89C343.52,-61.88 378.54,-48.82 410,-39 416.87,-36.85 424.07,-34.75 431.3,-32.74"/>
<polygon fill="#63b8ff" stroke="#63b8ff" points="432.41,-36.07 441.14,-30.06 430.57,-29.31 432.41,-36.07"/>
</a>
</g>
</g>
</g>
</svg>
