<?xml version="1.0" encoding="UTF-8" standalone="no"?>
<!DOCTYPE svg PUBLIC "-//W3C//DTD SVG 1.1//EN"
 "http://www.w3.org/Graphics/SVG/1.1/DTD/svg11.dtd">
<!-- Generated by graphviz version 2.43.0 (0)
 -->
<!-- Title: com.teragrep.cfe_16.TestClient.main Pages: 1 -->
<svg width="331pt" height="182pt"
 viewBox="0.00 0.00 331.00 182.00" xmlns="http://www.w3.org/2000/svg" xmlns:xlink="http://www.w3.org/1999/xlink">
<g id="graph0" class="graph" transform="scale(1 1) rotate(0) translate(4 178)">
<title>com.teragrep.cfe_16.TestClient.main</title>
<!-- Node1 -->
<g id="Node000001" class="node">
<title>Node1</title>
<g id="a_Node000001"><a xlink:title=" ">
<polygon fill="#999999" stroke="#666666" points="140,-102 0,-102 0,-72 140,-72 140,-102"/>
<text text-anchor="start" x="8" y="-90" font-family="Helvetica,sans-Serif" font-size="10.00">com.teragrep.cfe_16.Test</text>
<text text-anchor="middle" x="70" y="-79" font-family="Helvetica,sans-Serif" font-size="10.00">Client.main</text>
</a>
</g>
</g>
<!-- Node2 -->
<g id="Node000002" class="node">
<title>Node2</title>
<g id="a_Node000002"><a xlink:href="classcom_1_1teragrep_1_1cfe__16_1_1TestClient.html#ae595a251801b177f5e36088d906bfcbe" target="_top" xlink:title=" ">
<polygon fill="white" stroke="#666666" points="319.5,-174 179.5,-174 179.5,-144 319.5,-144 319.5,-174"/>
<text text-anchor="start" x="187.5" y="-162" font-family="Helvetica,sans-Serif" font-size="10.00">com.teragrep.cfe_16.Test</text>
<text text-anchor="middle" x="249.5" y="-151" font-family="Helvetica,sans-Serif" font-size="10.00">Client.createTestClients</text>
</a>
</g>
</g>
<!-- Node1&#45;&gt;Node2 -->
<g id="edge1_Node000001_Node000002" class="edge">
<title>Node1&#45;&gt;Node2</title>
<g id="a_edge1_Node000001_Node000002"><a xlink:title=" ">
<path fill="none" stroke="#63b8ff" d="M101.86,-102.18C122.58,-112.11 150.63,-125.04 176,-135 180.81,-136.89 185.84,-138.76 190.91,-140.58"/>
<polygon fill="#63b8ff" stroke="#63b8ff" points="190.06,-143.99 200.66,-143.98 192.37,-137.38 190.06,-143.99"/>
</a>
</g>
</g>
<!-- Node3 -->
<g id="Node000003" class="node">
<title>Node3</title>
<g id="a_Node000003"><a xlink:href="classcom_1_1teragrep_1_1cfe__16_1_1TestClient.html#a55f624d2bc3d731b5e01c7d343a7549b" target="_top" xlink:title=" ">
<polygon fill="white" stroke="#666666" points="319.5,-126 179.5,-126 179.5,-96 319.5,-96 319.5,-126"/>
<text text-anchor="start" x="187.5" y="-114" font-family="Helvetica,sans-Serif" font-size="10.00">com.teragrep.cfe_16.Test</text>
<text text-anchor="middle" x="249.5" y="-103" font-family="Helvetica,sans-Serif" font-size="10.00">Client.createThreads</text>
</a>
</g>
</g>
<!-- Node1&#45;&gt;Node3 -->
<g id="edge2_Node000001_Node000003" class="edge">
<title>Node1&#45;&gt;Node3</title>
<g id="a_edge2_Node000001_Node000003"><a xlink:title=" ">
<path fill="none" stroke="#63b8ff" d="M140.13,-96.35C149.67,-97.64 159.53,-98.97 169.23,-100.28"/>
<polygon fill="#63b8ff" stroke="#63b8ff" points="168.88,-103.77 179.26,-101.64 169.82,-96.83 168.88,-103.77"/>
</a>
</g>
</g>
<!-- Node4 -->
<g id="Node000004" class="node">
<title>Node4</title>
<g id="a_Node000004"><a xlink:href="classcom_1_1teragrep_1_1cfe__16_1_1TestClient.html#a15e5bb580e85e1ab314020837d86cc30" target="_top" xlink:title=" ">
<polygon fill="white" stroke="#666666" points="319.5,-78 179.5,-78 179.5,-48 319.5,-48 319.5,-78"/>
<text text-anchor="start" x="187.5" y="-66" font-family="Helvetica,sans-Serif" font-size="10.00">com.teragrep.cfe_16.Test</text>
<text text-anchor="middle" x="249.5" y="-55" font-family="Helvetica,sans-Serif" font-size="10.00">Client.startThreads</text>
</a>
</g>
</g>
<!-- Node1&#45;&gt;Node4 -->
<g id="edge3_Node000001_Node000004" class="edge">
<title>Node1&#45;&gt;Node4</title>
<g id="a_edge3_Node000001_Node000004"><a xlink:title=" ">
<path fill="none" stroke="#63b8ff" d="M140.13,-77.65C149.67,-76.36 159.53,-75.03 169.23,-73.72"/>
<polygon fill="#63b8ff" stroke="#63b8ff" points="169.82,-77.17 179.26,-72.36 168.88,-70.23 169.82,-77.17"/>
</a>
</g>
</g>
<!-- Node5 -->
<g id="Node000005" class="node">
<title>Node5</title>
<g id="a_Node000005"><a xlink:href="classcom_1_1teragrep_1_1cfe__16_1_1TestClient.html#ad9274dbeadc51bac08f69d73f08d8d8c" target="_top" xlink:title=" ">
<polygon fill="white" stroke="#666666" points="323,-30 176,-30 176,0 323,0 323,-30"/>
<text text-anchor="start" x="184" y="-18" font-family="Helvetica,sans-Serif" font-size="10.00">com.teragrep.cfe_16.Test</text>
<text text-anchor="middle" x="249.5" y="-7" font-family="Helvetica,sans-Serif" font-size="10.00">Client.waitThreadsToFinish</text>
</a>
</g>
</g>
<!-- Node1&#45;&gt;Node5 -->
<g id="edge4_Node000001_Node000005" class="edge">
<title>Node1&#45;&gt;Node5</title>
<g id="a_edge4_Node000001_Node000005"><a xlink:title=" ">
<path fill="none" stroke="#63b8ff" d="M101.86,-71.82C122.58,-61.89 150.63,-48.96 176,-39 180.81,-37.11 185.84,-35.24 190.91,-33.42"/>
<polygon fill="#63b8ff" stroke="#63b8ff" points="192.37,-36.62 200.66,-30.02 190.06,-30.01 192.37,-36.62"/>
</a>
</g>
</g>
</g>
</svg>
