<?xml version="1.0" encoding="UTF-8" standalone="no"?>
<!DOCTYPE svg PUBLIC "-//W3C//DTD SVG 1.1//EN"
 "http://www.w3.org/Graphics/SVG/1.1/DTD/svg11.dtd">
<!-- Generated by graphviz version 2.43.0 (0)
 -->
<!-- Title: com.teragrep.cfe_16.it.ServiceAndEventManagerIT.sendingMultipleEventsTest Pages: 1 -->
<svg width="1240pt" height="567pt"
 viewBox="0.00 0.00 1240.00 567.26" xmlns="http://www.w3.org/2000/svg" xmlns:xlink="http://www.w3.org/1999/xlink">
<g id="graph0" class="graph" transform="scale(1 1) rotate(0) translate(4 563.26)">
<title>com.teragrep.cfe_16.it.ServiceAndEventManagerIT.sendingMultipleEventsTest</title>
<!-- Node1 -->
<g id="Node000001" class="node">
<title>Node1</title>
<g id="a_Node000001"><a xlink:title=" ">
<polygon fill="#999999" stroke="#666666" points="195,-277.5 0,-277.5 0,-236.5 195,-236.5 195,-277.5"/>
<text text-anchor="start" x="8" y="-265.5" font-family="Helvetica,sans-Serif" font-size="10.00">com.teragrep.cfe_16.it.Service</text>
<text text-anchor="start" x="8" y="-254.5" font-family="Helvetica,sans-Serif" font-size="10.00">AndEventManagerIT.sendingMultiple</text>
<text text-anchor="middle" x="97.5" y="-243.5" font-family="Helvetica,sans-Serif" font-size="10.00">EventsTest</text>
</a>
</g>
</g>
<!-- Node2 -->
<g id="Node000002" class="node">
<title>Node2</title>
<g id="a_Node000002"><a xlink:href="classcom_1_1teragrep_1_1cfe__16_1_1EventManager.html#a7b24737679da20559ee1da24b25eed93" target="_top" xlink:title=" ">
<polygon fill="white" stroke="#666666" points="379,-272 231,-272 231,-242 379,-242 379,-272"/>
<text text-anchor="start" x="239" y="-260" font-family="Helvetica,sans-Serif" font-size="10.00">com.teragrep.cfe_16.Event</text>
<text text-anchor="middle" x="305" y="-249" font-family="Helvetica,sans-Serif" font-size="10.00">Manager.convertData</text>
</a>
</g>
</g>
<!-- Node1&#45;&gt;Node2 -->
<g id="edge1_Node000001_Node000002" class="edge">
<title>Node1&#45;&gt;Node2</title>
<g id="a_edge1_Node000001_Node000002"><a xlink:title=" ">
<path fill="none" stroke="#63b8ff" d="M195.23,-257C203.74,-257 212.31,-257 220.7,-257"/>
<polygon fill="#63b8ff" stroke="#63b8ff" points="220.82,-260.5 230.82,-257 220.82,-253.5 220.82,-260.5"/>
</a>
</g>
</g>
<!-- Node3 -->
<g id="Node000003" class="node">
<title>Node3</title>
<g id="a_Node000003"><a xlink:href="classcom_1_1teragrep_1_1cfe__16_1_1Acknowledgements.html#a8c6f0dff735fde04e0bc670136eb57d2" target="_top" xlink:title=" ">
<polygon fill="white" stroke="#666666" points="699,-537.5 415,-537.5 415,-518.5 699,-518.5 699,-537.5"/>
<text text-anchor="middle" x="557" y="-525.5" font-family="Helvetica,sans-Serif" font-size="10.00">com.teragrep.cfe_16.Acknowledgements.acknowledge</text>
</a>
</g>
</g>
<!-- Node2&#45;&gt;Node3 -->
<g id="edge2_Node000002_Node000003" class="edge">
<title>Node2&#45;&gt;Node3</title>
<g id="a_edge2_Node000002_Node000003"><a xlink:title=" ">
<path fill="none" stroke="#63b8ff" d="M308.82,-272.06C317.24,-312.71 345.98,-425.63 415,-485 432.08,-499.69 454.08,-509.36 475.6,-515.73"/>
<polygon fill="#63b8ff" stroke="#63b8ff" points="474.87,-519.16 485.44,-518.43 476.72,-512.41 474.87,-519.16"/>
</a>
</g>
</g>
<!-- Node5 -->
<g id="Node000005" class="node">
<title>Node5</title>
<g id="a_Node000005"><a xlink:href="classcom_1_1teragrep_1_1cfe__16_1_1Acknowledgements.html#a954c7b6f37e4bcd616879315307d85bb" target="_top" xlink:title="Adds a new Ack object for given channel.">
<polygon fill="white" stroke="#666666" points="684.5,-288.5 429.5,-288.5 429.5,-269.5 684.5,-269.5 684.5,-288.5"/>
<text text-anchor="middle" x="557" y="-276.5" font-family="Helvetica,sans-Serif" font-size="10.00">com.teragrep.cfe_16.Acknowledgements.addAck</text>
</a>
</g>
</g>
<!-- Node2&#45;&gt;Node5 -->
<g id="edge4_Node000002_Node000005" class="edge">
<title>Node2&#45;&gt;Node5</title>
<g id="a_edge4_Node000002_Node000005"><a xlink:title=" ">
<path fill="none" stroke="#63b8ff" d="M379.32,-263.45C397.68,-265.07 417.86,-266.84 437.8,-268.6"/>
<polygon fill="#63b8ff" stroke="#63b8ff" points="437.6,-272.09 447.87,-269.48 438.22,-265.12 437.6,-272.09"/>
</a>
</g>
</g>
<!-- Node6 -->
<g id="Node000006" class="node">
<title>Node6</title>
<g id="a_Node000006"><a xlink:href="classcom_1_1teragrep_1_1cfe__16_1_1EventManager.html#a952ab8d08a4ca2207f87d1aa04abce7a" target="_top" xlink:title=" ">
<polygon fill="white" stroke="#666666" points="631,-251 483,-251 483,-221 631,-221 631,-251"/>
<text text-anchor="start" x="491" y="-239" font-family="Helvetica,sans-Serif" font-size="10.00">com.teragrep.cfe_16.Event</text>
<text text-anchor="middle" x="557" y="-228" font-family="Helvetica,sans-Serif" font-size="10.00">Manager.assignMetaData</text>
</a>
</g>
</g>
<!-- Node2&#45;&gt;Node6 -->
<g id="edge5_Node000002_Node000006" class="edge">
<title>Node2&#45;&gt;Node6</title>
<g id="a_edge5_Node000002_Node000006"><a xlink:title=" ">
<path fill="none" stroke="#63b8ff" d="M379.32,-250.84C408.57,-248.38 442.41,-245.54 472.6,-243.01"/>
<polygon fill="#63b8ff" stroke="#63b8ff" points="473.01,-246.48 482.68,-242.16 472.42,-239.51 473.01,-246.48"/>
</a>
</g>
</g>
<!-- Node7 -->
<g id="Node000007" class="node">
<title>Node7</title>
<g id="a_Node000007"><a xlink:href="classcom_1_1teragrep_1_1cfe__16_1_1Acknowledgements.html#a0a81fc7b69c7638df2b4e6fff3744514" target="_top" xlink:title="Returns the current Ack value for given token and channel.">
<polygon fill="white" stroke="#666666" points="674.5,-476 439.5,-476 439.5,-446 674.5,-446 674.5,-476"/>
<text text-anchor="start" x="447.5" y="-464" font-family="Helvetica,sans-Serif" font-size="10.00">com.teragrep.cfe_16.Acknowledgements.get</text>
<text text-anchor="middle" x="557" y="-453" font-family="Helvetica,sans-Serif" font-size="10.00">CurrentAckValue</text>
</a>
</g>
</g>
<!-- Node2&#45;&gt;Node7 -->
<g id="edge6_Node000002_Node000007" class="edge">
<title>Node2&#45;&gt;Node7</title>
<g id="a_edge6_Node000002_Node000007"><a xlink:title=" ">
<path fill="none" stroke="#63b8ff" d="M323.14,-272.24C344.43,-291.06 381.96,-323.9 415,-351 453.67,-382.72 499.51,-418.08 528.18,-439.94"/>
<polygon fill="#63b8ff" stroke="#63b8ff" points="526.06,-442.73 536.14,-446 530.3,-437.16 526.06,-442.73"/>
</a>
</g>
</g>
<!-- Node10 -->
<g id="Node000010" class="node">
<title>Node10</title>
<g id="a_Node000010"><a xlink:href="classcom_1_1teragrep_1_1cfe__16_1_1Converter.html#a602a68046d2d394249793b6d74b62050" target="_top" xlink:title=" ">
<polygon fill="white" stroke="#666666" points="652,-198 462,-198 462,-168 652,-168 652,-198"/>
<text text-anchor="start" x="470" y="-186" font-family="Helvetica,sans-Serif" font-size="10.00">com.teragrep.cfe_16.Converter.http</text>
<text text-anchor="middle" x="557" y="-175" font-family="Helvetica,sans-Serif" font-size="10.00">ToSyslog</text>
</a>
</g>
</g>
<!-- Node2&#45;&gt;Node10 -->
<g id="edge9_Node000002_Node000010" class="edge">
<title>Node2&#45;&gt;Node10</title>
<g id="a_edge9_Node000002_Node000010"><a xlink:title=" ">
<path fill="none" stroke="#63b8ff" d="M337.85,-241.98C359.28,-232.34 388.38,-220.15 415,-212 429.41,-207.59 444.85,-203.64 460.04,-200.2"/>
<polygon fill="#63b8ff" stroke="#63b8ff" points="460.96,-203.58 469.97,-198 459.45,-196.74 460.96,-203.58"/>
</a>
</g>
</g>
<!-- Node14 -->
<g id="Node000014" class="node">
<title>Node14</title>
<g id="a_Node000014"><a xlink:href="classcom_1_1teragrep_1_1cfe__16_1_1Acknowledgements.html#a5307dc12a64ca957ae24430d09b372e1" target="_top" xlink:title=" ">
<polygon fill="white" stroke="#666666" points="691.5,-342 422.5,-342 422.5,-312 691.5,-312 691.5,-342"/>
<text text-anchor="start" x="430.5" y="-330" font-family="Helvetica,sans-Serif" font-size="10.00">com.teragrep.cfe_16.Acknowledgements.increment</text>
<text text-anchor="middle" x="557" y="-319" font-family="Helvetica,sans-Serif" font-size="10.00">AckValue</text>
</a>
</g>
</g>
<!-- Node2&#45;&gt;Node14 -->
<g id="edge13_Node000002_Node000014" class="edge">
<title>Node2&#45;&gt;Node14</title>
<g id="a_edge13_Node000002_Node000014"><a xlink:title=" ">
<path fill="none" stroke="#63b8ff" d="M341.85,-272.11C362.89,-280.57 390.14,-290.82 415,-298 430.11,-302.37 446.31,-306.34 462.16,-309.85"/>
<polygon fill="#63b8ff" stroke="#63b8ff" points="461.45,-313.27 471.97,-311.97 462.93,-306.43 461.45,-313.27"/>
</a>
</g>
</g>
<!-- Node19 -->
<g id="Node000019" class="node">
<title>Node19</title>
<g id="a_Node000019"><a xlink:href="classcom_1_1teragrep_1_1cfe__16_1_1Acknowledgements.html#a06622ee4fcccb291cf0c97cb55189d83" target="_top" xlink:title="This method has to be called first before calling any other Ack related methods.">
<polygon fill="white" stroke="#666666" points="687.5,-150 426.5,-150 426.5,-120 687.5,-120 687.5,-150"/>
<text text-anchor="start" x="434.5" y="-138" font-family="Helvetica,sans-Serif" font-size="10.00">com.teragrep.cfe_16.Acknowledgements.initialize</text>
<text text-anchor="middle" x="557" y="-127" font-family="Helvetica,sans-Serif" font-size="10.00">Context</text>
</a>
</g>
</g>
<!-- Node2&#45;&gt;Node19 -->
<g id="edge21_Node000002_Node000019" class="edge">
<title>Node2&#45;&gt;Node19</title>
<g id="a_edge21_Node000002_Node000019"><a xlink:title=" ">
<path fill="none" stroke="#63b8ff" d="M317.91,-241.86C336.22,-219.74 373.53,-179.05 415,-159 419.14,-157 423.41,-155.16 427.78,-153.48"/>
<polygon fill="#63b8ff" stroke="#63b8ff" points="429.24,-156.67 437.49,-150.02 426.89,-150.08 429.24,-156.67"/>
</a>
</g>
</g>
<!-- Node20 -->
<g id="Node000020" class="node">
<title>Node20</title>
<g id="a_Node000020"><a xlink:href="classcom_1_1teragrep_1_1cfe__16_1_1EventManager.html#ab74b6ead2721cbcf49f1ffbdafd3f4b6" target="_top" xlink:title=" ">
<polygon fill="white" stroke="#666666" points="631,-78 483,-78 483,-48 631,-48 631,-78"/>
<text text-anchor="start" x="491" y="-66" font-family="Helvetica,sans-Serif" font-size="10.00">com.teragrep.cfe_16.Event</text>
<text text-anchor="middle" x="557" y="-55" font-family="Helvetica,sans-Serif" font-size="10.00">Manager.verifyJsonData</text>
</a>
</g>
</g>
<!-- Node2&#45;&gt;Node20 -->
<g id="edge22_Node000002_Node000020" class="edge">
<title>Node2&#45;&gt;Node20</title>
<g id="a_edge22_Node000002_Node000020"><a xlink:title=" ">
<path fill="none" stroke="#63b8ff" d="M313.35,-241.81C328.36,-212.33 365.37,-147.09 415,-111 432.95,-97.94 454.72,-88.24 475.73,-81.12"/>
<polygon fill="#63b8ff" stroke="#63b8ff" points="476.87,-84.43 485.31,-78.03 474.72,-77.77 476.87,-84.43"/>
</a>
</g>
</g>
<!-- Node4 -->
<g id="Node000004" class="node">
<title>Node4</title>
<g id="a_Node000004"><a xlink:href="classcom_1_1teragrep_1_1cfe__16_1_1Acknowledgements_1_1State.html#ad9d95fec84a00a574b21981fc673f10a" target="_top" xlink:title=" ">
<polygon fill="white" stroke="#666666" points="1232,-433 1013,-433 1013,-403 1232,-403 1232,-433"/>
<text text-anchor="start" x="1021" y="-421" font-family="Helvetica,sans-Serif" font-size="10.00">com.teragrep.cfe_16.Acknowledgements.</text>
<text text-anchor="middle" x="1122.5" y="-410" font-family="Helvetica,sans-Serif" font-size="10.00">State.getAckMap</text>
</a>
</g>
</g>
<!-- Node3&#45;&gt;Node4 -->
<g id="edge3_Node000003_Node000004" class="edge">
<title>Node3&#45;&gt;Node4</title>
<g id="a_edge3_Node000003_Node000004"><a xlink:title=" ">
<path fill="none" stroke="#63b8ff" d="M599.35,-537.54C676.27,-553.35 845.48,-578.95 977,-533 1029.07,-514.81 1076.41,-469.14 1101.86,-441.14"/>
<polygon fill="#63b8ff" stroke="#63b8ff" points="1104.71,-443.2 1108.74,-433.4 1099.48,-438.55 1104.71,-443.2"/>
</a>
</g>
</g>
<!-- Node8 -->
<g id="Node000008" class="node">
<title>Node8</title>
<g id="a_Node000008"><a xlink:href="classcom_1_1teragrep_1_1cfe__16_1_1Acknowledgements_1_1State.html#aa1809213ec400ce2fccaff6cab3e244b" target="_top" xlink:title=" ">
<polygon fill="white" stroke="#666666" points="965.5,-476 746.5,-476 746.5,-446 965.5,-446 965.5,-476"/>
<text text-anchor="start" x="754.5" y="-464" font-family="Helvetica,sans-Serif" font-size="10.00">com.teragrep.cfe_16.Acknowledgements.</text>
<text text-anchor="middle" x="856" y="-453" font-family="Helvetica,sans-Serif" font-size="10.00">State.getCurrentAckValue</text>
</a>
</g>
</g>
<!-- Node7&#45;&gt;Node8 -->
<g id="edge7_Node000007_Node000008" class="edge">
<title>Node7&#45;&gt;Node8</title>
<g id="a_edge7_Node000007_Node000008"><a xlink:title=" ">
<path fill="none" stroke="#63b8ff" d="M674.53,-461C694.69,-461 715.67,-461 735.9,-461"/>
<polygon fill="#63b8ff" stroke="#63b8ff" points="736.08,-464.5 746.08,-461 736.08,-457.5 736.08,-464.5"/>
</a>
</g>
</g>
<!-- Node9 -->
<g id="Node000009" class="node">
<title>Node9</title>
<g id="a_Node000009"><a xlink:href="classcom_1_1teragrep_1_1cfe__16_1_1Acknowledgements.html#a0287e001c86209cd70554675e6dbf9eb" target="_top" xlink:title="A private Accessor for the State object indexed by the given auth token and channel.">
<polygon fill="white" stroke="#666666" points="973.5,-524 738.5,-524 738.5,-494 973.5,-494 973.5,-524"/>
<text text-anchor="start" x="746.5" y="-512" font-family="Helvetica,sans-Serif" font-size="10.00">com.teragrep.cfe_16.Acknowledgements.get</text>
<text text-anchor="middle" x="856" y="-501" font-family="Helvetica,sans-Serif" font-size="10.00">OrCreateState</text>
</a>
</g>
</g>
<!-- Node7&#45;&gt;Node9 -->
<g id="edge8_Node000007_Node000009" class="edge">
<title>Node7&#45;&gt;Node9</title>
<g id="a_edge8_Node000007_Node000009"><a xlink:title=" ">
<path fill="none" stroke="#63b8ff" d="M651.16,-476.06C683.23,-481.24 719.31,-487.07 752.11,-492.37"/>
<polygon fill="#63b8ff" stroke="#63b8ff" points="751.74,-495.86 762.17,-494 752.86,-488.95 751.74,-495.86"/>
</a>
</g>
</g>
<!-- Node11 -->
<g id="Node000011" class="node">
<title>Node11</title>
<g id="a_Node000011"><a xlink:href="classcom_1_1teragrep_1_1cfe__16_1_1Converter.html#ad3945e06829eabba7dec42281559bffb" target="_top" xlink:title=" ">
<polygon fill="white" stroke="#666666" points="948.5,-198 763.5,-198 763.5,-168 948.5,-168 948.5,-198"/>
<text text-anchor="start" x="771.5" y="-186" font-family="Helvetica,sans-Serif" font-size="10.00">com.teragrep.cfe_16.Converter.set</text>
<text text-anchor="middle" x="856" y="-175" font-family="Helvetica,sans-Serif" font-size="10.00">EventFacility</text>
</a>
</g>
</g>
<!-- Node10&#45;&gt;Node11 -->
<g id="edge10_Node000010_Node000011" class="edge">
<title>Node10&#45;&gt;Node11</title>
<g id="a_edge10_Node000010_Node000011"><a xlink:title=" ">
<path fill="none" stroke="#63b8ff" d="M652.38,-183C684.55,-183 720.65,-183 753.37,-183"/>
<polygon fill="#63b8ff" stroke="#63b8ff" points="753.4,-186.5 763.4,-183 753.4,-179.5 753.4,-186.5"/>
</a>
</g>
</g>
<!-- Node12 -->
<g id="Node000012" class="node">
<title>Node12</title>
<g id="a_Node000012"><a xlink:href="classcom_1_1teragrep_1_1cfe__16_1_1Converter.html#a99439ed8fa2f982deedfa6168ecbeba8" target="_top" xlink:title=" ">
<polygon fill="white" stroke="#666666" points="948.5,-150 763.5,-150 763.5,-120 948.5,-120 948.5,-150"/>
<text text-anchor="start" x="771.5" y="-138" font-family="Helvetica,sans-Serif" font-size="10.00">com.teragrep.cfe_16.Converter.set</text>
<text text-anchor="middle" x="856" y="-127" font-family="Helvetica,sans-Serif" font-size="10.00">EventSeverity</text>
</a>
</g>
</g>
<!-- Node10&#45;&gt;Node12 -->
<g id="edge11_Node000010_Node000012" class="edge">
<title>Node10&#45;&gt;Node12</title>
<g id="a_edge11_Node000010_Node000012"><a xlink:title=" ">
<path fill="none" stroke="#63b8ff" d="M651.16,-167.94C683.61,-162.7 720.18,-156.79 753.29,-151.44"/>
<polygon fill="#63b8ff" stroke="#63b8ff" points="754.13,-154.85 763.45,-149.8 753.02,-147.94 754.13,-154.85"/>
</a>
</g>
</g>
<!-- Node13 -->
<g id="Node000013" class="node">
<title>Node13</title>
<g id="a_Node000013"><a xlink:href="classcom_1_1teragrep_1_1cfe__16_1_1Converter.html#a18a7c850c23a15fd3ab357f011ec5866" target="_top" xlink:title=" ">
<polygon fill="white" stroke="#666666" points="948.5,-102 763.5,-102 763.5,-72 948.5,-72 948.5,-102"/>
<text text-anchor="start" x="771.5" y="-90" font-family="Helvetica,sans-Serif" font-size="10.00">com.teragrep.cfe_16.Converter.set</text>
<text text-anchor="middle" x="856" y="-79" font-family="Helvetica,sans-Serif" font-size="10.00">StructuredDataParams</text>
</a>
</g>
</g>
<!-- Node10&#45;&gt;Node13 -->
<g id="edge12_Node000010_Node000013" class="edge">
<title>Node10&#45;&gt;Node13</title>
<g id="a_edge12_Node000010_Node000013"><a xlink:title=" ">
<path fill="none" stroke="#63b8ff" d="M652.23,-177.16C668.62,-173.35 684.9,-167.6 699,-159 721.76,-145.11 712.44,-125.22 735,-111 740.86,-107.31 747.17,-104.17 753.72,-101.5"/>
<polygon fill="#63b8ff" stroke="#63b8ff" points="755.29,-104.65 763.47,-97.91 752.88,-98.08 755.29,-104.65"/>
</a>
</g>
</g>
<!-- Node14&#45;&gt;Node4 -->
<g id="edge16_Node000014_Node000004" class="edge">
<title>Node14&#45;&gt;Node4</title>
<g id="a_edge16_Node000014_Node000004"><a xlink:title=" ">
<path fill="none" stroke="#63b8ff" d="M586.47,-342.1C620.66,-359.39 680.26,-386.89 735,-399 823.2,-418.51 925.38,-422.77 1002.51,-422.41"/>
<polygon fill="#63b8ff" stroke="#63b8ff" points="1002.77,-425.91 1012.75,-422.34 1002.72,-418.91 1002.77,-425.91"/>
</a>
</g>
</g>
<!-- Node14&#45;&gt;Node8 -->
<g id="edge18_Node000014_Node000008" class="edge">
<title>Node14&#45;&gt;Node8</title>
<g id="a_edge18_Node000014_Node000008"><a xlink:title=" ">
<path fill="none" stroke="#63b8ff" d="M578.72,-342.11C610.71,-364.77 674.76,-407.5 735,-432 745.44,-436.25 756.66,-439.97 767.89,-443.21"/>
<polygon fill="#63b8ff" stroke="#63b8ff" points="767.17,-446.65 777.75,-445.93 769.04,-439.9 767.17,-446.65"/>
</a>
</g>
</g>
<!-- Node15 -->
<g id="Node000015" class="node">
<title>Node15</title>
<g id="a_Node000015"><a xlink:href="classcom_1_1teragrep_1_1cfe__16_1_1Acknowledgements.html#a7a9570efce9732f5f674e9ea85017439" target="_top" xlink:title=" ">
<polygon fill="white" stroke="#666666" points="977,-390 735,-390 735,-360 977,-360 977,-390"/>
<text text-anchor="start" x="743" y="-378" font-family="Helvetica,sans-Serif" font-size="10.00">com.teragrep.cfe_16.Acknowledgements.acks</text>
<text text-anchor="middle" x="856" y="-367" font-family="Helvetica,sans-Serif" font-size="10.00">Available</text>
</a>
</g>
</g>
<!-- Node14&#45;&gt;Node15 -->
<g id="edge14_Node000014_Node000015" class="edge">
<title>Node14&#45;&gt;Node15</title>
<g id="a_edge14_Node000014_Node000015"><a xlink:title=" ">
<path fill="none" stroke="#63b8ff" d="M651.16,-342.06C683.23,-347.24 719.31,-353.07 752.11,-358.37"/>
<polygon fill="#63b8ff" stroke="#63b8ff" points="751.74,-361.86 762.17,-360 752.86,-354.95 751.74,-361.86"/>
</a>
</g>
</g>
<!-- Node16 -->
<g id="Node000016" class="node">
<title>Node16</title>
<g id="a_Node000016"><a xlink:href="classcom_1_1teragrep_1_1cfe__16_1_1Acknowledgements_1_1State.html#a7d72966efb4505634712c4c64c96440c" target="_top" xlink:title=" ">
<polygon fill="white" stroke="#666666" points="965.5,-342 746.5,-342 746.5,-312 965.5,-312 965.5,-342"/>
<text text-anchor="start" x="754.5" y="-330" font-family="Helvetica,sans-Serif" font-size="10.00">com.teragrep.cfe_16.Acknowledgements.</text>
<text text-anchor="middle" x="856" y="-319" font-family="Helvetica,sans-Serif" font-size="10.00">State.getAckToCompare</text>
</a>
</g>
</g>
<!-- Node14&#45;&gt;Node16 -->
<g id="edge17_Node000014_Node000016" class="edge">
<title>Node14&#45;&gt;Node16</title>
<g id="a_edge17_Node000014_Node000016"><a xlink:title=" ">
<path fill="none" stroke="#63b8ff" d="M691.73,-327C706.62,-327 721.7,-327 736.38,-327"/>
<polygon fill="#63b8ff" stroke="#63b8ff" points="736.47,-330.5 746.47,-327 736.47,-323.5 736.47,-330.5"/>
</a>
</g>
</g>
<!-- Node17 -->
<g id="Node000017" class="node">
<title>Node17</title>
<g id="a_Node000017"><a xlink:href="classcom_1_1teragrep_1_1cfe__16_1_1Acknowledgements_1_1State.html#ab460c6226ddd97252506f01f11cf9f3d" target="_top" xlink:title=" ">
<polygon fill="white" stroke="#666666" points="965.5,-294 746.5,-294 746.5,-264 965.5,-264 965.5,-294"/>
<text text-anchor="start" x="754.5" y="-282" font-family="Helvetica,sans-Serif" font-size="10.00">com.teragrep.cfe_16.Acknowledgements.</text>
<text text-anchor="middle" x="856" y="-271" font-family="Helvetica,sans-Serif" font-size="10.00">State.setAckToCompare</text>
</a>
</g>
</g>
<!-- Node14&#45;&gt;Node17 -->
<g id="edge19_Node000014_Node000017" class="edge">
<title>Node14&#45;&gt;Node17</title>
<g id="a_edge19_Node000014_Node000017"><a xlink:title=" ">
<path fill="none" stroke="#63b8ff" d="M651.16,-311.94C683.23,-306.76 719.31,-300.93 752.11,-295.63"/>
<polygon fill="#63b8ff" stroke="#63b8ff" points="752.86,-299.05 762.17,-294 751.74,-292.14 752.86,-299.05"/>
</a>
</g>
</g>
<!-- Node18 -->
<g id="Node000018" class="node">
<title>Node18</title>
<g id="a_Node000018"><a xlink:href="classcom_1_1teragrep_1_1cfe__16_1_1Acknowledgements_1_1State.html#a2ce209b2faca53446cccd40bc4de2726" target="_top" xlink:title=" ">
<polygon fill="white" stroke="#666666" points="965.5,-246 746.5,-246 746.5,-216 965.5,-216 965.5,-246"/>
<text text-anchor="start" x="754.5" y="-234" font-family="Helvetica,sans-Serif" font-size="10.00">com.teragrep.cfe_16.Acknowledgements.</text>
<text text-anchor="middle" x="856" y="-223" font-family="Helvetica,sans-Serif" font-size="10.00">State.setCurrentAckValue</text>
</a>
</g>
</g>
<!-- Node14&#45;&gt;Node18 -->
<g id="edge20_Node000014_Node000018" class="edge">
<title>Node14&#45;&gt;Node18</title>
<g id="a_edge20_Node000014_Node000018"><a xlink:title=" ">
<path fill="none" stroke="#63b8ff" d="M668.15,-312C678.96,-308.3 689.45,-303.7 699,-298 720.4,-285.22 713.57,-267.72 735,-255 737.88,-253.29 740.86,-251.7 743.91,-250.23"/>
<polygon fill="#63b8ff" stroke="#63b8ff" points="745.53,-253.34 753.28,-246.12 742.72,-246.93 745.53,-253.34"/>
</a>
</g>
</g>
<!-- Node15&#45;&gt;Node4 -->
<g id="edge15_Node000015_Node000004" class="edge">
<title>Node15&#45;&gt;Node4</title>
<g id="a_edge15_Node000015_Node000004"><a xlink:title=" ">
<path fill="none" stroke="#63b8ff" d="M949.51,-390.04C971.96,-393.69 996.09,-397.61 1018.98,-401.33"/>
<polygon fill="#63b8ff" stroke="#63b8ff" points="1018.61,-404.82 1029.04,-402.97 1019.73,-397.91 1018.61,-404.82"/>
</a>
</g>
</g>
<!-- Node21 -->
<g id="Node000021" class="node">
<title>Node21</title>
<g id="a_Node000021"><a xlink:href="classcom_1_1teragrep_1_1cfe__16_1_1EventManager.html#a499862d588b74185c5a5cafcdc0c407e" target="_top" xlink:title=" ">
<polygon fill="white" stroke="#666666" points="930,-54 782,-54 782,-24 930,-24 930,-54"/>
<text text-anchor="start" x="790" y="-42" font-family="Helvetica,sans-Serif" font-size="10.00">com.teragrep.cfe_16.Event</text>
<text text-anchor="middle" x="856" y="-31" font-family="Helvetica,sans-Serif" font-size="10.00">Manager.handleTime</text>
</a>
</g>
</g>
<!-- Node20&#45;&gt;Node21 -->
<g id="edge23_Node000020_Node000021" class="edge">
<title>Node20&#45;&gt;Node21</title>
<g id="a_edge23_Node000020_Node000021"><a xlink:title=" ">
<path fill="none" stroke="#63b8ff" d="M631.03,-57.1C673.66,-53.65 727.58,-49.3 771.83,-45.72"/>
<polygon fill="#63b8ff" stroke="#63b8ff" points="772.3,-49.19 781.99,-44.9 771.74,-42.22 772.3,-49.19"/>
</a>
</g>
</g>
<!-- Node22 -->
<g id="Node000022" class="node">
<title>Node22</title>
<g id="a_Node000022"><a xlink:href="classcom_1_1teragrep_1_1cfe__16_1_1EventManager.html#a74cf4d32251dd8b36aee7d8b3578f62b" target="_top" xlink:title=" ">
<polygon fill="white" stroke="#666666" points="1217,-78 1028,-78 1028,-48 1217,-48 1217,-78"/>
<text text-anchor="start" x="1036" y="-66" font-family="Helvetica,sans-Serif" font-size="10.00">com.teragrep.cfe_16.Event</text>
<text text-anchor="middle" x="1122.5" y="-55" font-family="Helvetica,sans-Serif" font-size="10.00">Manager.convertTimeToEpochMillis</text>
</a>
</g>
</g>
<!-- Node21&#45;&gt;Node22 -->
<g id="edge24_Node000021_Node000022" class="edge">
<title>Node21&#45;&gt;Node22</title>
<g id="a_edge24_Node000021_Node000022"><a xlink:title=" ">
<path fill="none" stroke="#63b8ff" d="M930.33,-45.65C957.27,-48.1 988.31,-50.91 1017.44,-53.56"/>
<polygon fill="#63b8ff" stroke="#63b8ff" points="1017.38,-57.07 1027.65,-54.48 1018.01,-50.1 1017.38,-57.07"/>
</a>
</g>
</g>
<!-- Node23 -->
<g id="Node000023" class="node">
<title>Node23</title>
<g id="a_Node000023"><a xlink:href="classcom_1_1teragrep_1_1cfe__16_1_1EventManager.html#a159ac4f3aa69ac663e34efa51c9147d6" target="_top" xlink:title=" ">
<polygon fill="white" stroke="#666666" points="1196.5,-30 1048.5,-30 1048.5,0 1196.5,0 1196.5,-30"/>
<text text-anchor="start" x="1056.5" y="-18" font-family="Helvetica,sans-Serif" font-size="10.00">com.teragrep.cfe_16.Event</text>
<text text-anchor="middle" x="1122.5" y="-7" font-family="Helvetica,sans-Serif" font-size="10.00">Manager.removeDecimal</text>
</a>
</g>
</g>
<!-- Node21&#45;&gt;Node23 -->
<g id="edge25_Node000021_Node000023" class="edge">
<title>Node21&#45;&gt;Node23</title>
<g id="a_edge25_Node000021_Node000023"><a xlink:title=" ">
<path fill="none" stroke="#63b8ff" d="M930.33,-32.35C963.86,-29.3 1003.75,-25.68 1038.39,-22.54"/>
<polygon fill="#63b8ff" stroke="#63b8ff" points="1038.85,-26.01 1048.49,-21.62 1038.21,-19.04 1038.85,-26.01"/>
</a>
</g>
</g>
</g>
</svg>
