<?xml version="1.0" encoding="UTF-8" standalone="no"?>
<!DOCTYPE svg PUBLIC "-//W3C//DTD SVG 1.1//EN"
 "http://www.w3.org/Graphics/SVG/1.1/DTD/svg11.dtd">
<!-- Generated by graphviz version 2.43.0 (0)
 -->
<!-- Title: com.teragrep.cfe_16.TokenManager.tokenIsMissing Pages: 1 -->
<svg width="371pt" height="182pt"
 viewBox="0.00 0.00 371.00 182.00" xmlns="http://www.w3.org/2000/svg" xmlns:xlink="http://www.w3.org/1999/xlink">
<g id="graph0" class="graph" transform="scale(1 1) rotate(0) translate(4 178)">
<title>com.teragrep.cfe_16.TokenManager.tokenIsMissing</title>
<!-- Node1 -->
<g id="Node000001" class="node">
<title>Node1</title>
<g id="a_Node000001"><a xlink:title=" ">
<polygon fill="#999999" stroke="#666666" points="363,-102 215,-102 215,-72 363,-72 363,-102"/>
<text text-anchor="start" x="223" y="-90" font-family="Helvetica,sans-Serif" font-size="10.00">com.teragrep.cfe_16.Token</text>
<text text-anchor="middle" x="289" y="-79" font-family="Helvetica,sans-Serif" font-size="10.00">Manager.tokenIsMissing</text>
</a>
</g>
</g>
<!-- Node2 -->
<g id="Node000002" class="node">
<title>Node2</title>
<g id="a_Node000002"><a xlink:href="classcom_1_1teragrep_1_1cfe__16_1_1service_1_1HECServiceImpl.html#ab231e6e42ecf628579fb8404b452695e" target="_top" xlink:title=" ">
<polygon fill="white" stroke="#666666" points="168.5,-174 10.5,-174 10.5,-144 168.5,-144 168.5,-174"/>
<text text-anchor="start" x="18.5" y="-162" font-family="Helvetica,sans-Serif" font-size="10.00">com.teragrep.cfe_16.service.</text>
<text text-anchor="middle" x="89.5" y="-151" font-family="Helvetica,sans-Serif" font-size="10.00">HECServiceImpl.getAcks</text>
</a>
</g>
</g>
<!-- Node1&#45;&gt;Node2 -->
<g id="edge1_Node000001_Node000002" class="edge">
<title>Node1&#45;&gt;Node2</title>
<g id="a_edge1_Node000001_Node000002"><a xlink:title=" ">
<path fill="none" stroke="#63b8ff" d="M247.76,-106.45C227.44,-115.83 202.22,-126.79 179,-135 169.99,-138.18 160.35,-141.19 150.86,-143.94"/>
<polygon fill="#63b8ff" stroke="#63b8ff" points="249.44,-109.53 257.02,-102.13 246.48,-103.19 249.44,-109.53"/>
</a>
</g>
</g>
<!-- Node3 -->
<g id="Node000003" class="node">
<title>Node3</title>
<g id="a_Node000003"><a xlink:href="classcom_1_1teragrep_1_1cfe__16_1_1service_1_1HECServiceImpl.html#ab00b59cd48f6f446c829da2ae5e54fbe" target="_top" xlink:title="Ping.">
<polygon fill="white" stroke="#666666" points="168.5,-126 10.5,-126 10.5,-96 168.5,-96 168.5,-126"/>
<text text-anchor="start" x="18.5" y="-114" font-family="Helvetica,sans-Serif" font-size="10.00">com.teragrep.cfe_16.service.</text>
<text text-anchor="middle" x="89.5" y="-103" font-family="Helvetica,sans-Serif" font-size="10.00">HECServiceImpl.healthCheck</text>
</a>
</g>
</g>
<!-- Node1&#45;&gt;Node3 -->
<g id="edge2_Node000001_Node000003" class="edge">
<title>Node1&#45;&gt;Node3</title>
<g id="a_edge2_Node000001_Node000003"><a xlink:title=" ">
<path fill="none" stroke="#63b8ff" d="M204.76,-97.11C192.78,-98.57 180.49,-100.06 168.61,-101.51"/>
<polygon fill="#63b8ff" stroke="#63b8ff" points="205.23,-100.58 214.74,-95.9 204.39,-93.63 205.23,-100.58"/>
</a>
</g>
</g>
<!-- Node4 -->
<g id="Node000004" class="node">
<title>Node4</title>
<g id="a_Node000004"><a xlink:href="classcom_1_1teragrep_1_1cfe__16_1_1service_1_1HECServiceImpl.html#a20ffffd4e0b55fea04396fd562ccef0c" target="_top" xlink:title="Returns the JSON object as a response of given HTTP event request.">
<polygon fill="white" stroke="#666666" points="168.5,-78 10.5,-78 10.5,-48 168.5,-48 168.5,-78"/>
<text text-anchor="start" x="18.5" y="-66" font-family="Helvetica,sans-Serif" font-size="10.00">com.teragrep.cfe_16.service.</text>
<text text-anchor="middle" x="89.5" y="-55" font-family="Helvetica,sans-Serif" font-size="10.00">HECServiceImpl.sendEvents</text>
</a>
</g>
</g>
<!-- Node1&#45;&gt;Node4 -->
<g id="edge3_Node000001_Node000004" class="edge">
<title>Node1&#45;&gt;Node4</title>
<g id="a_edge3_Node000001_Node000004"><a xlink:title=" ">
<path fill="none" stroke="#63b8ff" d="M204.76,-76.89C192.78,-75.43 180.49,-73.94 168.61,-72.49"/>
<polygon fill="#63b8ff" stroke="#63b8ff" points="204.39,-80.37 214.74,-78.1 205.23,-73.42 204.39,-80.37"/>
</a>
</g>
</g>
<!-- Node5 -->
<g id="Node000005" class="node">
<title>Node5</title>
<g id="a_Node000005"><a xlink:href="classcom_1_1teragrep_1_1cfe__16_1_1TokenManagerTests.html#a788d200f5d81e0ab4e2058d2e4ae999b" target="_top" xlink:title=" ">
<polygon fill="white" stroke="#666666" points="179,-30 0,-30 0,0 179,0 179,-30"/>
<text text-anchor="start" x="8" y="-18" font-family="Helvetica,sans-Serif" font-size="10.00">com.teragrep.cfe_16.Token</text>
<text text-anchor="middle" x="89.5" y="-7" font-family="Helvetica,sans-Serif" font-size="10.00">ManagerTests.tokenCheckingTest</text>
</a>
</g>
</g>
<!-- Node1&#45;&gt;Node5 -->
<g id="edge4_Node000001_Node000005" class="edge">
<title>Node1&#45;&gt;Node5</title>
<g id="a_edge4_Node000001_Node000005"><a xlink:title=" ">
<path fill="none" stroke="#63b8ff" d="M247.76,-67.55C227.44,-58.17 202.22,-47.21 179,-39 169.99,-35.82 160.35,-32.81 150.86,-30.06"/>
<polygon fill="#63b8ff" stroke="#63b8ff" points="246.48,-70.81 257.02,-71.87 249.44,-64.47 246.48,-70.81"/>
</a>
</g>
</g>
</g>
</svg>
