<?xml version="1.0" encoding="UTF-8" standalone="no"?>
<!DOCTYPE svg PUBLIC "-//W3C//DTD SVG 1.1//EN"
 "http://www.w3.org/Graphics/SVG/1.1/DTD/svg11.dtd">
<!-- Generated by graphviz version 2.43.0 (0)
 -->
<!-- Title: com.teragrep.cfe_16.service.HECServiceImpl Pages: 1 -->
<svg width="692pt" height="220pt"
 viewBox="0.00 0.00 692.00 220.00" xmlns="http://www.w3.org/2000/svg" xmlns:xlink="http://www.w3.org/1999/xlink">
<g id="graph0" class="graph" transform="scale(1 1) rotate(0) translate(4 216)">
<title>com.teragrep.cfe_16.service.HECServiceImpl</title>
<!-- Node1 -->
<g id="Node000001" class="node">
<title>Node1</title>
<g id="a_Node000001"><a xlink:title="Implementation of the REST Service back end.">
<polygon fill="#999999" stroke="#666666" points="684,-121 526,-121 526,-91 684,-91 684,-121"/>
<text text-anchor="start" x="534" y="-109" font-family="Helvetica,sans-Serif" font-size="10.00">com.teragrep.cfe_16.service.</text>
<text text-anchor="middle" x="605" y="-98" font-family="Helvetica,sans-Serif" font-size="10.00">HECServiceImpl</text>
</a>
</g>
</g>
<!-- Node2 -->
<g id="Node000002" class="node">
<title>Node2</title>
<g id="a_Node000002"><a xlink:href="interfacecom_1_1teragrep_1_1cfe__16_1_1service_1_1HECService.html" target="_top" xlink:title="An interface that specified the REST back end API.">
<polygon fill="white" stroke="#666666" points="362,-212 204,-212 204,-182 362,-182 362,-212"/>
<text text-anchor="start" x="212" y="-200" font-family="Helvetica,sans-Serif" font-size="10.00">com.teragrep.cfe_16.service.</text>
<text text-anchor="middle" x="283" y="-189" font-family="Helvetica,sans-Serif" font-size="10.00">HECService</text>
</a>
</g>
</g>
<!-- Node2&#45;&gt;Node1 -->
<g id="edge1_Node000001_Node000002" class="edge">
<title>Node2&#45;&gt;Node1</title>
<g id="a_edge1_Node000001_Node000002"><a xlink:title=" ">
<path fill="none" stroke="#63b8ff" d="M372.1,-181.9C413.81,-173.69 464.01,-162.28 508,-148 530.49,-140.7 554.9,-129.98 573.47,-121.2"/>
<polygon fill="#63b8ff" stroke="#63b8ff" points="371.39,-178.47 362.24,-183.81 372.72,-185.34 371.39,-178.47"/>
</a>
</g>
</g>
<!-- Node3 -->
<g id="Node000003" class="node">
<title>Node3</title>
<g id="a_Node000003"><a xlink:href="classcom_1_1teragrep_1_1cfe__16_1_1Acknowledgements.html" target="_top" xlink:title=" ">
<polygon fill="white" stroke="#666666" points="391,-115.5 175,-115.5 175,-96.5 391,-96.5 391,-115.5"/>
<text text-anchor="middle" x="283" y="-103.5" font-family="Helvetica,sans-Serif" font-size="10.00">com.teragrep.cfe_16.Acknowledgements</text>
</a>
</g>
</g>
<!-- Node3&#45;&gt;Node1 -->
<g id="edge2_Node000001_Node000003" class="edge">
<title>Node3&#45;&gt;Node1</title>
<g id="a_edge2_Node000001_Node000003"><a xlink:title=" ">
<path fill="none" stroke="#9a32cd" stroke-dasharray="5,2" d="M401.19,-106C442.75,-106 488.46,-106 525.96,-106"/>
<polygon fill="#9a32cd" stroke="#9a32cd" points="401,-102.5 391,-106 401,-109.5 401,-102.5"/>
</a>
</g>
<text text-anchor="middle" x="458.5" y="-109" font-family="Helvetica,sans-Serif" font-size="10.00" fill="grey"> acknowledgements</text>
</g>
<!-- Node4 -->
<g id="Node000004" class="node">
<title>Node4</title>
<g id="a_Node000004"><a xlink:title=" ">
<polygon fill="white" stroke="#666666" points="100,-159.5 38,-159.5 38,-140.5 100,-140.5 100,-159.5"/>
<text text-anchor="middle" x="69" y="-147.5" font-family="Helvetica,sans-Serif" font-size="10.00">Runnable</text>
</a>
</g>
</g>
<!-- Node4&#45;&gt;Node3 -->
<g id="edge3_Node000003_Node000004" class="edge">
<title>Node4&#45;&gt;Node3</title>
<g id="a_edge3_Node000003_Node000004"><a xlink:title=" ">
<path fill="none" stroke="#63b8ff" d="M110.01,-139.9C129.55,-135.11 153.44,-129.48 175,-125 191.07,-121.66 208.58,-118.4 224.69,-115.55"/>
<polygon fill="#63b8ff" stroke="#63b8ff" points="109.09,-136.52 100.22,-142.31 110.77,-143.32 109.09,-136.52"/>
</a>
</g>
</g>
<!-- Node6 -->
<g id="Node000006" class="node">
<title>Node6</title>
<g id="a_Node000006"><a xlink:href="classcom_1_1teragrep_1_1cfe__16_1_1SessionManager.html" target="_top" xlink:title=" ">
<polygon fill="white" stroke="#666666" points="362,-164 204,-164 204,-134 362,-134 362,-164"/>
<text text-anchor="start" x="212" y="-152" font-family="Helvetica,sans-Serif" font-size="10.00">com.teragrep.cfe_16.Session</text>
<text text-anchor="middle" x="283" y="-141" font-family="Helvetica,sans-Serif" font-size="10.00">Manager</text>
</a>
</g>
</g>
<!-- Node4&#45;&gt;Node6 -->
<g id="edge6_Node000006_Node000004" class="edge">
<title>Node4&#45;&gt;Node6</title>
<g id="a_edge6_Node000006_Node000004"><a xlink:title=" ">
<path fill="none" stroke="#63b8ff" d="M110.35,-150.57C124.75,-150.74 141.1,-150.91 156,-151 171.42,-151.09 187.91,-150.98 203.7,-150.77"/>
<polygon fill="#63b8ff" stroke="#63b8ff" points="110.29,-147.07 100.25,-150.44 110.2,-154.06 110.29,-147.07"/>
</a>
</g>
</g>
<!-- Node5 -->
<g id="Node000005" class="node">
<title>Node5</title>
<g id="a_Node000005"><a xlink:href="interfacecom_1_1teragrep_1_1cfe__16_1_1LifeCycle.html" target="_top" xlink:title="An interface that own resources like threads for doing graceful shutdown.">
<polygon fill="white" stroke="#666666" points="138,-119 0,-119 0,-89 138,-89 138,-119"/>
<text text-anchor="start" x="8" y="-107" font-family="Helvetica,sans-Serif" font-size="10.00">com.teragrep.cfe_16.Life</text>
<text text-anchor="middle" x="69" y="-96" font-family="Helvetica,sans-Serif" font-size="10.00">Cycle</text>
</a>
</g>
</g>
<!-- Node5&#45;&gt;Node3 -->
<g id="edge4_Node000003_Node000005" class="edge">
<title>Node5&#45;&gt;Node3</title>
<g id="a_edge4_Node000003_Node000005"><a xlink:title=" ">
<path fill="none" stroke="#63b8ff" d="M148.66,-103.94C151.48,-103.96 154.26,-103.98 157,-104 162.86,-104.05 168.87,-104.11 174.95,-104.17"/>
<polygon fill="#63b8ff" stroke="#63b8ff" points="148.4,-100.44 138.39,-103.9 148.37,-107.44 148.4,-100.44"/>
</a>
</g>
</g>
<!-- Node5&#45;&gt;Node6 -->
<g id="edge7_Node000006_Node000005" class="edge">
<title>Node5&#45;&gt;Node6</title>
<g id="a_edge7_Node000006_Node000005"><a xlink:title=" ">
<path fill="none" stroke="#63b8ff" d="M148.25,-120.61C168.92,-125 191.09,-129.7 211.33,-134"/>
<polygon fill="#63b8ff" stroke="#63b8ff" points="148.75,-117.14 138.25,-118.49 147.3,-123.99 148.75,-117.14"/>
</a>
</g>
</g>
<!-- Node6&#45;&gt;Node1 -->
<g id="edge5_Node000001_Node000006" class="edge">
<title>Node6&#45;&gt;Node1</title>
<g id="a_edge5_Node000001_Node000006"><a xlink:title=" ">
<path fill="none" stroke="#9a32cd" stroke-dasharray="5,2" d="M372.12,-138.62C413.42,-133.59 463.27,-127.29 508,-121 513.85,-120.18 519.89,-119.3 525.96,-118.4"/>
<polygon fill="#9a32cd" stroke="#9a32cd" points="371.59,-135.16 362.09,-139.83 372.43,-142.1 371.59,-135.16"/>
</a>
</g>
<text text-anchor="middle" x="458.5" y="-136" font-family="Helvetica,sans-Serif" font-size="10.00" fill="grey"> sessionManager</text>
</g>
<!-- Node7 -->
<g id="Node000007" class="node">
<title>Node7</title>
<g id="a_Node000007"><a xlink:href="classcom_1_1teragrep_1_1cfe__16_1_1TokenManager.html" target="_top" xlink:title=" ">
<polygon fill="white" stroke="#666666" points="357,-78 209,-78 209,-48 357,-48 357,-78"/>
<text text-anchor="start" x="217" y="-66" font-family="Helvetica,sans-Serif" font-size="10.00">com.teragrep.cfe_16.Token</text>
<text text-anchor="middle" x="283" y="-55" font-family="Helvetica,sans-Serif" font-size="10.00">Manager</text>
</a>
</g>
</g>
<!-- Node7&#45;&gt;Node1 -->
<g id="edge8_Node000001_Node000007" class="edge">
<title>Node7&#45;&gt;Node1</title>
<g id="a_edge8_Node000001_Node000007"><a xlink:title=" ">
<path fill="none" stroke="#9a32cd" stroke-dasharray="5,2" d="M367.17,-72.78C409.4,-77.9 461.47,-84.46 508,-91 513.85,-91.82 519.89,-92.7 525.96,-93.6"/>
<polygon fill="#9a32cd" stroke="#9a32cd" points="367.56,-69.3 357.22,-71.58 366.72,-76.25 367.56,-69.3"/>
</a>
</g>
<text text-anchor="middle" x="458.5" y="-94" font-family="Helvetica,sans-Serif" font-size="10.00" fill="grey"> tokenManager</text>
</g>
<!-- Node8 -->
<g id="Node000008" class="node">
<title>Node8</title>
<g id="a_Node000008"><a xlink:href="classcom_1_1teragrep_1_1cfe__16_1_1EventManager.html" target="_top" xlink:title=" ">
<polygon fill="white" stroke="#666666" points="357,-30 209,-30 209,0 357,0 357,-30"/>
<text text-anchor="start" x="217" y="-18" font-family="Helvetica,sans-Serif" font-size="10.00">com.teragrep.cfe_16.Event</text>
<text text-anchor="middle" x="283" y="-7" font-family="Helvetica,sans-Serif" font-size="10.00">Manager</text>
</a>
</g>
</g>
<!-- Node8&#45;&gt;Node1 -->
<g id="edge9_Node000001_Node000008" class="edge">
<title>Node8&#45;&gt;Node1</title>
<g id="a_edge9_Node000001_Node000008"><a xlink:title=" ">
<path fill="none" stroke="#9a32cd" stroke-dasharray="5,2" d="M367.22,-28.52C409.88,-36.53 462.33,-48.06 508,-63 531.09,-70.55 556.1,-81.86 574.8,-90.99"/>
<polygon fill="#9a32cd" stroke="#9a32cd" points="367.62,-25.04 357.15,-26.66 366.35,-31.92 367.62,-25.04"/>
</a>
</g>
<text text-anchor="middle" x="458.5" y="-66" font-family="Helvetica,sans-Serif" font-size="10.00" fill="grey"> eventManager</text>
</g>
</g>
</svg>
