<?xml version="1.0" encoding="UTF-8" standalone="no"?>
<!DOCTYPE svg PUBLIC "-//W3C//DTD SVG 1.1//EN"
 "http://www.w3.org/Graphics/SVG/1.1/DTD/svg11.dtd">
<!-- Generated by graphviz version 2.43.0 (0)
 -->
<!-- Title: com.teragrep.cfe_16.bo.HeaderInfo Pages: 1 -->
<svg width="734pt" height="113pt"
 viewBox="0.00 0.00 734.00 112.50" xmlns="http://www.w3.org/2000/svg" xmlns:xlink="http://www.w3.org/1999/xlink">
<g id="graph0" class="graph" transform="scale(1 1) rotate(0) translate(4 108.5)">
<title>com.teragrep.cfe_16.bo.HeaderInfo</title>
<!-- Node1 -->
<g id="Node000001" class="node">
<title>Node1</title>
<g id="a_Node000001"><a xlink:title=" ">
<polygon fill="#999999" stroke="#666666" points="726,-67.5 537,-67.5 537,-48.5 726,-48.5 726,-67.5"/>
<text text-anchor="middle" x="631.5" y="-55.5" font-family="Helvetica,sans-Serif" font-size="10.00">com.teragrep.cfe_16.bo.HeaderInfo</text>
</a>
</g>
</g>
<!-- Node2 -->
<g id="Node000002" class="node">
<title>Node2</title>
<g id="a_Node000002"><a xlink:href="interfacecom_1_1teragrep_1_1cfe__16_1_1bo_1_1XForwardedFor.html" target="_top" xlink:title=" ">
<polygon fill="white" stroke="#666666" points="411.5,-104.5 203.5,-104.5 203.5,-85.5 411.5,-85.5 411.5,-104.5"/>
<text text-anchor="middle" x="307.5" y="-92.5" font-family="Helvetica,sans-Serif" font-size="10.00">com.teragrep.cfe_16.bo.XForwardedFor</text>
</a>
</g>
</g>
<!-- Node2&#45;&gt;Node1 -->
<g id="edge1_Node000001_Node000002" class="edge">
<title>Node2&#45;&gt;Node1</title>
<g id="a_edge1_Node000001_Node000002"><a xlink:title=" ">
<path fill="none" stroke="#9a32cd" stroke-dasharray="5,2" d="M402.6,-84.32C438.97,-80.18 480.92,-75.39 519,-71 528.78,-69.87 539.04,-68.68 549.21,-67.5"/>
<polygon fill="#9a32cd" stroke="#9a32cd" points="402.04,-80.86 392.5,-85.47 402.83,-87.82 402.04,-80.86"/>
</a>
</g>
<text text-anchor="middle" x="476" y="-83" font-family="Helvetica,sans-Serif" font-size="10.00" fill="grey"> xForwardedFor</text>
</g>
<!-- Node3 -->
<g id="Node000003" class="node">
<title>Node3</title>
<g id="a_Node000003"><a xlink:href="interfacecom_1_1teragrep_1_1cfe__16_1_1Stubable.html" target="_top" xlink:title=" ">
<polygon fill="white" stroke="#666666" points="163,-67.5 0,-67.5 0,-48.5 163,-48.5 163,-67.5"/>
<text text-anchor="middle" x="81.5" y="-55.5" font-family="Helvetica,sans-Serif" font-size="10.00">com.teragrep.cfe_16.Stubable</text>
</a>
</g>
</g>
<!-- Node3&#45;&gt;Node2 -->
<g id="edge2_Node000002_Node000003" class="edge">
<title>Node3&#45;&gt;Node2</title>
<g id="a_edge2_Node000002_Node000003"><a xlink:title=" ">
<path fill="none" stroke="#63b8ff" d="M150.17,-69.18C181.58,-74.37 218.53,-80.47 248.62,-85.44"/>
<polygon fill="#63b8ff" stroke="#63b8ff" points="150.62,-65.7 140.19,-67.53 149.48,-72.61 150.62,-65.7"/>
</a>
</g>
</g>
<!-- Node4 -->
<g id="Node000004" class="node">
<title>Node4</title>
<g id="a_Node000004"><a xlink:href="interfacecom_1_1teragrep_1_1cfe__16_1_1bo_1_1XForwardedHost.html" target="_top" xlink:title=" ">
<polygon fill="white" stroke="#666666" points="415,-67.5 200,-67.5 200,-48.5 415,-48.5 415,-67.5"/>
<text text-anchor="middle" x="307.5" y="-55.5" font-family="Helvetica,sans-Serif" font-size="10.00">com.teragrep.cfe_16.bo.XForwardedHost</text>
</a>
</g>
</g>
<!-- Node3&#45;&gt;Node4 -->
<g id="edge4_Node000004_Node000003" class="edge">
<title>Node3&#45;&gt;Node4</title>
<g id="a_edge4_Node000004_Node000003"><a xlink:title=" ">
<path fill="none" stroke="#63b8ff" d="M173.22,-58C181.95,-58 190.87,-58 199.75,-58"/>
<polygon fill="#63b8ff" stroke="#63b8ff" points="173.05,-54.5 163.05,-58 173.05,-61.5 173.05,-54.5"/>
</a>
</g>
</g>
<!-- Node5 -->
<g id="Node000005" class="node">
<title>Node5</title>
<g id="a_Node000005"><a xlink:href="interfacecom_1_1teragrep_1_1cfe__16_1_1bo_1_1XForwardedProto.html" target="_top" xlink:title=" ">
<polygon fill="white" stroke="#666666" points="404,-30 211,-30 211,0 404,0 404,-30"/>
<text text-anchor="start" x="219" y="-18" font-family="Helvetica,sans-Serif" font-size="10.00">com.teragrep.cfe_16.bo.XForwarded</text>
<text text-anchor="middle" x="307.5" y="-7" font-family="Helvetica,sans-Serif" font-size="10.00">Proto</text>
</a>
</g>
</g>
<!-- Node3&#45;&gt;Node5 -->
<g id="edge6_Node000005_Node000003" class="edge">
<title>Node3&#45;&gt;Node5</title>
<g id="a_edge6_Node000005_Node000003"><a xlink:title=" ">
<path fill="none" stroke="#63b8ff" d="M142.09,-46.56C168.54,-41.48 200.02,-35.44 228.33,-30.01"/>
<polygon fill="#63b8ff" stroke="#63b8ff" points="141.37,-43.13 132.21,-48.46 142.69,-50.01 141.37,-43.13"/>
</a>
</g>
</g>
<!-- Node4&#45;&gt;Node1 -->
<g id="edge3_Node000001_Node000004" class="edge">
<title>Node4&#45;&gt;Node1</title>
<g id="a_edge3_Node000001_Node000004"><a xlink:title=" ">
<path fill="none" stroke="#9a32cd" stroke-dasharray="5,2" d="M425.52,-58C462.19,-58 502.16,-58 536.99,-58"/>
<polygon fill="#9a32cd" stroke="#9a32cd" points="425.27,-54.5 415.27,-58 425.27,-61.5 425.27,-54.5"/>
</a>
</g>
<text text-anchor="middle" x="476" y="-61" font-family="Helvetica,sans-Serif" font-size="10.00" fill="grey"> xForwardedHost</text>
</g>
<!-- Node5&#45;&gt;Node1 -->
<g id="edge5_Node000001_Node000005" class="edge">
<title>Node5&#45;&gt;Node1</title>
<g id="a_edge5_Node000001_Node000005"><a xlink:title=" ">
<path fill="none" stroke="#9a32cd" stroke-dasharray="5,2" d="M414.38,-29.05C447.85,-33.5 484.97,-38.45 519,-43 532.16,-44.76 546.2,-46.64 559.72,-48.46"/>
<polygon fill="#9a32cd" stroke="#9a32cd" points="414.5,-25.54 404.12,-27.69 413.58,-32.48 414.5,-25.54"/>
</a>
</g>
<text text-anchor="middle" x="476" y="-46" font-family="Helvetica,sans-Serif" font-size="10.00" fill="grey"> xForwardedProto</text>
</g>
</g>
</svg>
