<?xml version="1.0" encoding="UTF-8" standalone="no"?>
<!DOCTYPE svg PUBLIC "-//W3C//DTD SVG 1.1//EN"
 "http://www.w3.org/Graphics/SVG/1.1/DTD/svg11.dtd">
<!-- Generated by graphviz version 2.43.0 (0)
 -->
<!-- Title: com.teragrep.cfe_16.Converter.httpToSyslog Pages: 1 -->
<svg width="419pt" height="134pt"
 viewBox="0.00 0.00 419.00 134.00" xmlns="http://www.w3.org/2000/svg" xmlns:xlink="http://www.w3.org/1999/xlink">
<g id="graph0" class="graph" transform="scale(1 1) rotate(0) translate(4 130)">
<title>com.teragrep.cfe_16.Converter.httpToSyslog</title>
<!-- Node1 -->
<g id="Node000001" class="node">
<title>Node1</title>
<g id="a_Node000001"><a xlink:title=" ">
<polygon fill="#999999" stroke="#666666" points="190,-78 0,-78 0,-48 190,-48 190,-78"/>
<text text-anchor="start" x="8" y="-66" font-family="Helvetica,sans-Serif" font-size="10.00">com.teragrep.cfe_16.Converter.http</text>
<text text-anchor="middle" x="95" y="-55" font-family="Helvetica,sans-Serif" font-size="10.00">ToSyslog</text>
</a>
</g>
</g>
<!-- Node2 -->
<g id="Node000002" class="node">
<title>Node2</title>
<g id="a_Node000002"><a xlink:href="classcom_1_1teragrep_1_1cfe__16_1_1Converter.html#ad3945e06829eabba7dec42281559bffb" target="_top" xlink:title=" ">
<polygon fill="white" stroke="#666666" points="411,-126 226,-126 226,-96 411,-96 411,-126"/>
<text text-anchor="start" x="234" y="-114" font-family="Helvetica,sans-Serif" font-size="10.00">com.teragrep.cfe_16.Converter.set</text>
<text text-anchor="middle" x="318.5" y="-103" font-family="Helvetica,sans-Serif" font-size="10.00">EventFacility</text>
</a>
</g>
</g>
<!-- Node1&#45;&gt;Node2 -->
<g id="edge1_Node000001_Node000002" class="edge">
<title>Node1&#45;&gt;Node2</title>
<g id="a_edge1_Node000001_Node000002"><a xlink:title=" ">
<path fill="none" stroke="#63b8ff" d="M165.48,-78.06C188.57,-83.06 214.45,-88.67 238.22,-93.82"/>
<polygon fill="#63b8ff" stroke="#63b8ff" points="237.76,-97.3 248.27,-96 239.24,-90.46 237.76,-97.3"/>
</a>
</g>
</g>
<!-- Node3 -->
<g id="Node000003" class="node">
<title>Node3</title>
<g id="a_Node000003"><a xlink:href="classcom_1_1teragrep_1_1cfe__16_1_1Converter.html#a99439ed8fa2f982deedfa6168ecbeba8" target="_top" xlink:title=" ">
<polygon fill="white" stroke="#666666" points="411,-78 226,-78 226,-48 411,-48 411,-78"/>
<text text-anchor="start" x="234" y="-66" font-family="Helvetica,sans-Serif" font-size="10.00">com.teragrep.cfe_16.Converter.set</text>
<text text-anchor="middle" x="318.5" y="-55" font-family="Helvetica,sans-Serif" font-size="10.00">EventSeverity</text>
</a>
</g>
</g>
<!-- Node1&#45;&gt;Node3 -->
<g id="edge2_Node000001_Node000003" class="edge">
<title>Node1&#45;&gt;Node3</title>
<g id="a_edge2_Node000001_Node000003"><a xlink:title=" ">
<path fill="none" stroke="#63b8ff" d="M190.26,-63C198.63,-63 207.13,-63 215.56,-63"/>
<polygon fill="#63b8ff" stroke="#63b8ff" points="215.8,-66.5 225.8,-63 215.8,-59.5 215.8,-66.5"/>
</a>
</g>
</g>
<!-- Node4 -->
<g id="Node000004" class="node">
<title>Node4</title>
<g id="a_Node000004"><a xlink:href="classcom_1_1teragrep_1_1cfe__16_1_1Converter.html#a18a7c850c23a15fd3ab357f011ec5866" target="_top" xlink:title=" ">
<polygon fill="white" stroke="#666666" points="411,-30 226,-30 226,0 411,0 411,-30"/>
<text text-anchor="start" x="234" y="-18" font-family="Helvetica,sans-Serif" font-size="10.00">com.teragrep.cfe_16.Converter.set</text>
<text text-anchor="middle" x="318.5" y="-7" font-family="Helvetica,sans-Serif" font-size="10.00">StructuredDataParams</text>
</a>
</g>
</g>
<!-- Node1&#45;&gt;Node4 -->
<g id="edge3_Node000001_Node000004" class="edge">
<title>Node1&#45;&gt;Node4</title>
<g id="a_edge3_Node000001_Node000004"><a xlink:title=" ">
<path fill="none" stroke="#63b8ff" d="M165.48,-47.94C188.57,-42.94 214.45,-37.33 238.22,-32.18"/>
<polygon fill="#63b8ff" stroke="#63b8ff" points="239.24,-35.54 248.27,-30 237.76,-28.7 239.24,-35.54"/>
</a>
</g>
</g>
</g>
</svg>
