<?xml version="1.0" encoding="UTF-8" standalone="no"?>
<!DOCTYPE svg PUBLIC "-//W3C//DTD SVG 1.1//EN"
 "http://www.w3.org/Graphics/SVG/1.1/DTD/svg11.dtd">
<!-- Generated by graphviz version 2.43.0 (0)
 -->
<!-- Title: com.teragrep.cfe_16.bo.HeaderInfo Pages: 1 -->
<svg width="986pt" height="134pt"
 viewBox="0.00 0.00 986.00 134.00" xmlns="http://www.w3.org/2000/svg" xmlns:xlink="http://www.w3.org/1999/xlink">
<g id="graph0" class="graph" transform="scale(1 1) rotate(0) translate(4 130)">
<title>com.teragrep.cfe_16.bo.HeaderInfo</title>
<!-- Node1 -->
<g id="Node000001" class="node">
<title>Node1</title>
<g id="a_Node000001"><a xlink:title=" ">
<polygon fill="#999999" stroke="#666666" points="978,-72.5 789,-72.5 789,-53.5 978,-53.5 978,-72.5"/>
<text text-anchor="middle" x="883.5" y="-60.5" font-family="Helvetica,sans-Serif" font-size="10.00">com.teragrep.cfe_16.bo.HeaderInfo</text>
</a>
</g>
</g>
<!-- Node2 -->
<g id="Node000002" class="node">
<title>Node2</title>
<g id="a_Node000002"><a xlink:href="classcom_1_1teragrep_1_1cfe__16_1_1bo_1_1XForwardedForStub.html" target="_top" xlink:title=" ">
<polygon fill="white" stroke="#666666" points="645,-126 452,-126 452,-96 645,-96 645,-126"/>
<text text-anchor="start" x="460" y="-114" font-family="Helvetica,sans-Serif" font-size="10.00">com.teragrep.cfe_16.bo.XForwarded</text>
<text text-anchor="middle" x="548.5" y="-103" font-family="Helvetica,sans-Serif" font-size="10.00">ForStub</text>
</a>
</g>
</g>
<!-- Node2&#45;&gt;Node1 -->
<g id="edge1_Node000001_Node000002" class="edge">
<title>Node2&#45;&gt;Node1</title>
<g id="a_edge1_Node000001_Node000002"><a xlink:title=" ">
<path fill="none" stroke="#9a32cd" stroke-dasharray="5,2" d="M655.47,-95.73C708.32,-88.11 770.6,-79.13 816.54,-72.51"/>
<polygon fill="#9a32cd" stroke="#9a32cd" points="654.77,-92.29 645.37,-97.18 655.77,-99.22 654.77,-92.29"/>
</a>
</g>
<text text-anchor="middle" x="717" y="-97" font-family="Helvetica,sans-Serif" font-size="10.00" fill="grey"> xForwardedForStub</text>
</g>
<!-- Node3 -->
<g id="Node000003" class="node">
<title>Node3</title>
<g id="a_Node000003"><a xlink:href="interfacecom_1_1teragrep_1_1cfe__16_1_1bo_1_1XForwardedFor.html" target="_top" xlink:title=" ">
<polygon fill="white" stroke="#666666" points="411.5,-114.5 203.5,-114.5 203.5,-95.5 411.5,-95.5 411.5,-114.5"/>
<text text-anchor="middle" x="307.5" y="-102.5" font-family="Helvetica,sans-Serif" font-size="10.00">com.teragrep.cfe_16.bo.XForwardedFor</text>
</a>
</g>
</g>
<!-- Node3&#45;&gt;Node2 -->
<g id="edge2_Node000002_Node000003" class="edge">
<title>Node3&#45;&gt;Node2</title>
<g id="a_edge2_Node000002_Node000003"><a xlink:title=" ">
<path fill="none" stroke="#63b8ff" d="M421.68,-107.84C431.79,-108.1 441.97,-108.35 451.92,-108.6"/>
<polygon fill="#63b8ff" stroke="#63b8ff" points="421.68,-104.34 411.59,-107.59 421.5,-111.34 421.68,-104.34"/>
</a>
</g>
</g>
<!-- Node4 -->
<g id="Node000004" class="node">
<title>Node4</title>
<g id="a_Node000004"><a xlink:href="interfacecom_1_1teragrep_1_1cfe__16_1_1Stubable.html" target="_top" xlink:title=" ">
<polygon fill="white" stroke="#666666" points="163,-72.5 0,-72.5 0,-53.5 163,-53.5 163,-72.5"/>
<text text-anchor="middle" x="81.5" y="-60.5" font-family="Helvetica,sans-Serif" font-size="10.00">com.teragrep.cfe_16.Stubable</text>
</a>
</g>
</g>
<!-- Node4&#45;&gt;Node3 -->
<g id="edge3_Node000003_Node000004" class="edge">
<title>Node4&#45;&gt;Node3</title>
<g id="a_edge3_Node000003_Node000004"><a xlink:title=" ">
<path fill="none" stroke="#63b8ff" d="M143.46,-74.43C178.57,-81.01 222.2,-89.19 255.48,-95.43"/>
<polygon fill="#63b8ff" stroke="#63b8ff" points="143.8,-70.93 133.33,-72.53 142.51,-77.81 143.8,-70.93"/>
</a>
</g>
</g>
<!-- Node6 -->
<g id="Node000006" class="node">
<title>Node6</title>
<g id="a_Node000006"><a xlink:href="interfacecom_1_1teragrep_1_1cfe__16_1_1bo_1_1XForwardedHost.html" target="_top" xlink:title=" ">
<polygon fill="white" stroke="#666666" points="415,-72.5 200,-72.5 200,-53.5 415,-53.5 415,-72.5"/>
<text text-anchor="middle" x="307.5" y="-60.5" font-family="Helvetica,sans-Serif" font-size="10.00">com.teragrep.cfe_16.bo.XForwardedHost</text>
</a>
</g>
</g>
<!-- Node4&#45;&gt;Node6 -->
<g id="edge6_Node000006_Node000004" class="edge">
<title>Node4&#45;&gt;Node6</title>
<g id="a_edge6_Node000006_Node000004"><a xlink:title=" ">
<path fill="none" stroke="#63b8ff" d="M173.22,-63C181.95,-63 190.87,-63 199.75,-63"/>
<polygon fill="#63b8ff" stroke="#63b8ff" points="173.05,-59.5 163.05,-63 173.05,-66.5 173.05,-59.5"/>
</a>
</g>
</g>
<!-- Node8 -->
<g id="Node000008" class="node">
<title>Node8</title>
<g id="a_Node000008"><a xlink:href="interfacecom_1_1teragrep_1_1cfe__16_1_1bo_1_1XForwardedProto.html" target="_top" xlink:title=" ">
<polygon fill="white" stroke="#666666" points="404,-34 211,-34 211,-4 404,-4 404,-34"/>
<text text-anchor="start" x="219" y="-22" font-family="Helvetica,sans-Serif" font-size="10.00">com.teragrep.cfe_16.bo.XForwarded</text>
<text text-anchor="middle" x="307.5" y="-11" font-family="Helvetica,sans-Serif" font-size="10.00">Proto</text>
</a>
</g>
</g>
<!-- Node4&#45;&gt;Node8 -->
<g id="edge9_Node000008_Node000004" class="edge">
<title>Node4&#45;&gt;Node8</title>
<g id="a_edge9_Node000008_Node000004"><a xlink:title=" ">
<path fill="none" stroke="#63b8ff" d="M141.2,-51.47C168.29,-46.15 200.81,-39.76 229.8,-34.07"/>
<polygon fill="#63b8ff" stroke="#63b8ff" points="140.24,-48.09 131.1,-53.45 141.59,-54.96 140.24,-48.09"/>
</a>
</g>
</g>
<!-- Node5 -->
<g id="Node000005" class="node">
<title>Node5</title>
<g id="a_Node000005"><a xlink:href="classcom_1_1teragrep_1_1cfe__16_1_1bo_1_1XForwardedHostStub.html" target="_top" xlink:title=" ">
<polygon fill="white" stroke="#666666" points="645,-78 452,-78 452,-48 645,-48 645,-78"/>
<text text-anchor="start" x="460" y="-66" font-family="Helvetica,sans-Serif" font-size="10.00">com.teragrep.cfe_16.bo.XForwarded</text>
<text text-anchor="middle" x="548.5" y="-55" font-family="Helvetica,sans-Serif" font-size="10.00">HostStub</text>
</a>
</g>
</g>
<!-- Node5&#45;&gt;Node1 -->
<g id="edge4_Node000001_Node000005" class="edge">
<title>Node5&#45;&gt;Node1</title>
<g id="a_edge4_Node000001_Node000005"><a xlink:title=" ">
<path fill="none" stroke="#9a32cd" stroke-dasharray="5,2" d="M655.54,-63C698.32,-63 747.28,-63 788.74,-63"/>
<polygon fill="#9a32cd" stroke="#9a32cd" points="655.37,-59.5 645.37,-63 655.37,-66.5 655.37,-59.5"/>
</a>
</g>
<text text-anchor="middle" x="717" y="-66" font-family="Helvetica,sans-Serif" font-size="10.00" fill="grey"> xForwardedHostStub</text>
</g>
<!-- Node6&#45;&gt;Node5 -->
<g id="edge5_Node000005_Node000006" class="edge">
<title>Node6&#45;&gt;Node5</title>
<g id="a_edge5_Node000005_Node000006"><a xlink:title=" ">
<path fill="none" stroke="#63b8ff" d="M425.11,-63C434.01,-63 442.94,-63 451.69,-63"/>
<polygon fill="#63b8ff" stroke="#63b8ff" points="425.07,-59.5 415.07,-63 425.07,-66.5 425.07,-59.5"/>
</a>
</g>
</g>
<!-- Node7 -->
<g id="Node000007" class="node">
<title>Node7</title>
<g id="a_Node000007"><a xlink:href="classcom_1_1teragrep_1_1cfe__16_1_1bo_1_1XForwardedProtoStub.html" target="_top" xlink:title=" ">
<polygon fill="white" stroke="#666666" points="645,-30 452,-30 452,0 645,0 645,-30"/>
<text text-anchor="start" x="460" y="-18" font-family="Helvetica,sans-Serif" font-size="10.00">com.teragrep.cfe_16.bo.XForwarded</text>
<text text-anchor="middle" x="548.5" y="-7" font-family="Helvetica,sans-Serif" font-size="10.00">ProtoStub</text>
</a>
</g>
</g>
<!-- Node7&#45;&gt;Node1 -->
<g id="edge7_Node000001_Node000007" class="edge">
<title>Node7&#45;&gt;Node1</title>
<g id="a_edge7_Node000001_Node000007"><a xlink:title=" ">
<path fill="none" stroke="#9a32cd" stroke-dasharray="5,2" d="M655.47,-30.27C708.32,-37.89 770.6,-46.87 816.54,-53.49"/>
<polygon fill="#9a32cd" stroke="#9a32cd" points="655.77,-26.78 645.37,-28.82 654.77,-33.71 655.77,-26.78"/>
</a>
</g>
<text text-anchor="middle" x="717" y="-50" font-family="Helvetica,sans-Serif" font-size="10.00" fill="grey"> xForwardedProtoStub</text>
</g>
<!-- Node8&#45;&gt;Node7 -->
<g id="edge8_Node000007_Node000008" class="edge">
<title>Node8&#45;&gt;Node7</title>
<g id="a_edge8_Node000007_Node000008"><a xlink:title=" ">
<path fill="none" stroke="#63b8ff" d="M414.63,-17.22C426.95,-17.02 439.47,-16.81 451.65,-16.6"/>
<polygon fill="#63b8ff" stroke="#63b8ff" points="414.27,-13.73 404.33,-17.4 414.39,-20.73 414.27,-13.73"/>
</a>
</g>
</g>
</g>
</svg>
