<?xml version="1.0" encoding="UTF-8" standalone="no"?>
<!DOCTYPE svg PUBLIC "-//W3C//DTD SVG 1.1//EN"
 "http://www.w3.org/Graphics/SVG/1.1/DTD/svg11.dtd">
<!-- Generated by graphviz version 2.43.0 (0)
 -->
<!-- Title: com.teragrep.cfe_16.Acknowledgements.State.getAckMap Pages: 1 -->
<svg width="1114pt" height="397pt"
 viewBox="0.00 0.00 1114.00 396.64" xmlns="http://www.w3.org/2000/svg" xmlns:xlink="http://www.w3.org/1999/xlink">
<g id="graph0" class="graph" transform="scale(1 1) rotate(0) translate(4 392.64)">
<title>com.teragrep.cfe_16.Acknowledgements.State.getAckMap</title>
<!-- Node1 -->
<g id="Node000001" class="node">
<title>Node1</title>
<g id="a_Node000001"><a xlink:title=" ">
<polygon fill="#999999" stroke="#666666" points="1106,-201.5 887,-201.5 887,-171.5 1106,-171.5 1106,-201.5"/>
<text text-anchor="start" x="895" y="-189.5" font-family="Helvetica,sans-Serif" font-size="10.00">com.teragrep.cfe_16.Acknowledgements.</text>
<text text-anchor="middle" x="996.5" y="-178.5" font-family="Helvetica,sans-Serif" font-size="10.00">State.getAckMap</text>
</a>
</g>
</g>
<!-- Node2 -->
<g id="Node000002" class="node">
<title>Node2</title>
<g id="a_Node000002"><a xlink:href="classcom_1_1teragrep_1_1cfe__16_1_1Acknowledgements.html#a8c6f0dff735fde04e0bc670136eb57d2" target="_top" xlink:title=" ">
<polygon fill="white" stroke="#666666" points="851,-287 567,-287 567,-268 851,-268 851,-287"/>
<text text-anchor="middle" x="709" y="-275" font-family="Helvetica,sans-Serif" font-size="10.00">com.teragrep.cfe_16.Acknowledgements.acknowledge</text>
</a>
</g>
</g>
<!-- Node1&#45;&gt;Node2 -->
<g id="edge1_Node000001_Node000002" class="edge">
<title>Node1&#45;&gt;Node2</title>
<g id="a_edge1_Node000001_Node000002"><a xlink:title=" ">
<path fill="none" stroke="#63b8ff" d="M962.76,-206.73C934.28,-223.35 891.37,-246.09 851,-258.5 838.25,-262.42 824.61,-265.53 811.01,-268"/>
<polygon fill="#63b8ff" stroke="#63b8ff" points="964.65,-209.68 971.47,-201.57 961.08,-203.65 964.65,-209.68"/>
</a>
</g>
</g>
<!-- Node5 -->
<g id="Node000005" class="node">
<title>Node5</title>
<g id="a_Node000005"><a xlink:href="classcom_1_1teragrep_1_1cfe__16_1_1Acknowledgements.html#a7a9570efce9732f5f674e9ea85017439" target="_top" xlink:title=" ">
<polygon fill="white" stroke="#666666" points="830,-67.5 588,-67.5 588,-37.5 830,-37.5 830,-67.5"/>
<text text-anchor="start" x="596" y="-55.5" font-family="Helvetica,sans-Serif" font-size="10.00">com.teragrep.cfe_16.Acknowledgements.acks</text>
<text text-anchor="middle" x="709" y="-44.5" font-family="Helvetica,sans-Serif" font-size="10.00">Available</text>
</a>
</g>
</g>
<!-- Node1&#45;&gt;Node5 -->
<g id="edge4_Node000001_Node000005" class="edge">
<title>Node1&#45;&gt;Node5</title>
<g id="a_edge4_Node000001_Node000005"><a xlink:title=" ">
<path fill="none" stroke="#63b8ff" d="M971.86,-164.33C944.78,-140.19 898.05,-102.26 851,-81.5 838.2,-75.85 824.25,-71.28 810.27,-67.6"/>
<polygon fill="#63b8ff" stroke="#63b8ff" points="969.85,-167.23 979.62,-171.34 974.55,-162.04 969.85,-167.23"/>
</a>
</g>
</g>
<!-- Node6 -->
<g id="Node000006" class="node">
<title>Node6</title>
<g id="a_Node000006"><a xlink:href="classcom_1_1teragrep_1_1cfe__16_1_1Acknowledgements.html#a5307dc12a64ca957ae24430d09b372e1" target="_top" xlink:title=" ">
<polygon fill="white" stroke="#666666" points="531,-110.5 262,-110.5 262,-80.5 531,-80.5 531,-110.5"/>
<text text-anchor="start" x="270" y="-98.5" font-family="Helvetica,sans-Serif" font-size="10.00">com.teragrep.cfe_16.Acknowledgements.increment</text>
<text text-anchor="middle" x="396.5" y="-87.5" font-family="Helvetica,sans-Serif" font-size="10.00">AckValue</text>
</a>
</g>
</g>
<!-- Node1&#45;&gt;Node6 -->
<g id="edge17_Node000001_Node000006" class="edge">
<title>Node1&#45;&gt;Node6</title>
<g id="a_edge17_Node000001_Node000006"><a xlink:title=" ">
<path fill="none" stroke="#63b8ff" d="M964.04,-165.94C935.75,-148.67 892.39,-125.16 851,-114.5 745.88,-87.43 622.58,-83.99 531.11,-86.59"/>
<polygon fill="#63b8ff" stroke="#63b8ff" points="962.33,-169 972.67,-171.3 966.02,-163.05 962.33,-169"/>
</a>
</g>
</g>
<!-- Node9 -->
<g id="Node000009" class="node">
<title>Node9</title>
<g id="a_Node000009"><a xlink:href="classcom_1_1teragrep_1_1cfe__16_1_1Acknowledgements.html#a225a9f18c21826dc1bbc4ce0a82550ed" target="_top" xlink:title=" ">
<polygon fill="white" stroke="#666666" points="834,-153.5 584,-153.5 584,-123.5 834,-123.5 834,-153.5"/>
<text text-anchor="start" x="592" y="-141.5" font-family="Helvetica,sans-Serif" font-size="10.00">com.teragrep.cfe_16.Acknowledgements.delete</text>
<text text-anchor="middle" x="709" y="-130.5" font-family="Helvetica,sans-Serif" font-size="10.00">AckFromList</text>
</a>
</g>
</g>
<!-- Node1&#45;&gt;Node9 -->
<g id="edge9_Node000001_Node000009" class="edge">
<title>Node1&#45;&gt;Node9</title>
<g id="a_edge9_Node000001_Node000009"><a xlink:title=" ">
<path fill="none" stroke="#63b8ff" d="M895.86,-169.75C864.42,-164.46 829.9,-158.66 799.23,-153.5"/>
<polygon fill="#63b8ff" stroke="#63b8ff" points="895.51,-173.24 905.95,-171.44 896.67,-166.33 895.51,-173.24"/>
</a>
</g>
</g>
<!-- Node11 -->
<g id="Node000011" class="node">
<title>Node11</title>
<g id="a_Node000011"><a xlink:href="classcom_1_1teragrep_1_1cfe__16_1_1Acknowledgements.html#a524b6158e1c70b00480d167b944f14ad" target="_top" xlink:title="Returns the unmodifiable set of Acks for a channel.">
<polygon fill="white" stroke="#666666" points="826.5,-249.5 591.5,-249.5 591.5,-219.5 826.5,-219.5 826.5,-249.5"/>
<text text-anchor="start" x="599.5" y="-237.5" font-family="Helvetica,sans-Serif" font-size="10.00">com.teragrep.cfe_16.Acknowledgements.get</text>
<text text-anchor="middle" x="709" y="-226.5" font-family="Helvetica,sans-Serif" font-size="10.00">AckList</text>
</a>
</g>
</g>
<!-- Node1&#45;&gt;Node11 -->
<g id="edge11_Node000001_Node000011" class="edge">
<title>Node1&#45;&gt;Node11</title>
<g id="a_edge11_Node000001_Node000011"><a xlink:title=" ">
<path fill="none" stroke="#63b8ff" d="M895.86,-203.25C864.42,-208.54 829.9,-214.34 799.23,-219.5"/>
<polygon fill="#63b8ff" stroke="#63b8ff" points="896.67,-206.67 905.95,-201.56 895.51,-199.76 896.67,-206.67"/>
</a>
</g>
</g>
<!-- Node12 -->
<g id="Node000012" class="node">
<title>Node12</title>
<g id="a_Node000012"><a xlink:href="classcom_1_1teragrep_1_1cfe__16_1_1Acknowledgements.html#a5287a2c95003a939f0314bc423d401cf" target="_top" xlink:title="Returns the size of the Ack set of given channel.">
<polygon fill="white" stroke="#666666" points="826.5,-201.5 591.5,-201.5 591.5,-171.5 826.5,-171.5 826.5,-201.5"/>
<text text-anchor="start" x="599.5" y="-189.5" font-family="Helvetica,sans-Serif" font-size="10.00">com.teragrep.cfe_16.Acknowledgements.get</text>
<text text-anchor="middle" x="709" y="-178.5" font-family="Helvetica,sans-Serif" font-size="10.00">AckListSize</text>
</a>
</g>
</g>
<!-- Node1&#45;&gt;Node12 -->
<g id="edge13_Node000001_Node000012" class="edge">
<title>Node1&#45;&gt;Node12</title>
<g id="a_edge13_Node000001_Node000012"><a xlink:title=" ">
<path fill="none" stroke="#63b8ff" d="M876.52,-186.5C859.99,-186.5 843.02,-186.5 826.53,-186.5"/>
<polygon fill="#63b8ff" stroke="#63b8ff" points="876.75,-190 886.75,-186.5 876.75,-183 876.75,-190"/>
</a>
</g>
</g>
<!-- Node13 -->
<g id="Node000013" class="node">
<title>Node13</title>
<g id="a_Node000013"><a xlink:href="classcom_1_1teragrep_1_1cfe__16_1_1Acknowledgements.html#a991efdd07c7cbf8d24b5da93e342b55c" target="_top" xlink:title="Returns the Ack statuses of requested Ack id:s as a JSON node.">
<polygon fill="white" stroke="#666666" points="826.5,-335.5 591.5,-335.5 591.5,-305.5 826.5,-305.5 826.5,-335.5"/>
<text text-anchor="start" x="599.5" y="-323.5" font-family="Helvetica,sans-Serif" font-size="10.00">com.teragrep.cfe_16.Acknowledgements.get</text>
<text text-anchor="middle" x="709" y="-312.5" font-family="Helvetica,sans-Serif" font-size="10.00">RequestedAckStatuses</text>
</a>
</g>
</g>
<!-- Node1&#45;&gt;Node13 -->
<g id="edge15_Node000001_Node000013" class="edge">
<title>Node1&#45;&gt;Node13</title>
<g id="a_edge15_Node000001_Node000013"><a xlink:title=" ">
<path fill="none" stroke="#63b8ff" d="M973.42,-208.91C946.85,-234.44 899.7,-275.36 851,-296.5 843.03,-299.96 834.6,-302.92 825.99,-305.46"/>
<polygon fill="#63b8ff" stroke="#63b8ff" points="975.96,-211.32 980.67,-201.83 971.07,-206.31 975.96,-211.32"/>
</a>
</g>
</g>
<!-- Node14 -->
<g id="Node000014" class="node">
<title>Node14</title>
<g id="a_Node000014"><a xlink:href="classcom_1_1teragrep_1_1cfe__16_1_1Acknowledgements.html#a9544ac800392336cc3fa19b72234d014" target="_top" xlink:title="Checks if the Ack with a given id is acknowledged.">
<polygon fill="white" stroke="#666666" points="510,-378.5 283,-378.5 283,-348.5 510,-348.5 510,-378.5"/>
<text text-anchor="start" x="291" y="-366.5" font-family="Helvetica,sans-Serif" font-size="10.00">com.teragrep.cfe_16.Acknowledgements.is</text>
<text text-anchor="middle" x="396.5" y="-355.5" font-family="Helvetica,sans-Serif" font-size="10.00">AckAcknowledged</text>
</a>
</g>
</g>
<!-- Node1&#45;&gt;Node14 -->
<g id="edge18_Node000001_Node000014" class="edge">
<title>Node1&#45;&gt;Node14</title>
<g id="a_edge18_Node000001_Node000014"><a xlink:title=" ">
<path fill="none" stroke="#63b8ff" d="M982.04,-210.63C960.08,-247.28 912.71,-315.75 851,-344.5 732.24,-399.82 576.47,-391.3 481.85,-378.53"/>
<polygon fill="#63b8ff" stroke="#63b8ff" points="985.29,-212.01 987.31,-201.62 979.24,-208.48 985.29,-212.01"/>
</a>
</g>
</g>
<!-- Node15 -->
<g id="Node000015" class="node">
<title>Node15</title>
<g id="a_Node000015"><a xlink:href="classcom_1_1teragrep_1_1cfe__16_1_1Acknowledgements.html#a2d2acb3e9942fdb720439eaad8fa1f5c" target="_top" xlink:title=" ">
<polygon fill="white" stroke="#666666" points="826.5,-19 591.5,-19 591.5,0 826.5,0 826.5,-19"/>
<text text-anchor="middle" x="709" y="-7" font-family="Helvetica,sans-Serif" font-size="10.00">com.teragrep.cfe_16.Acknowledgements.run</text>
</a>
</g>
</g>
<!-- Node1&#45;&gt;Node15 -->
<g id="edge20_Node000001_Node000015" class="edge">
<title>Node1&#45;&gt;Node15</title>
<g id="a_edge20_Node000001_Node000015"><a xlink:title=" ">
<path fill="none" stroke="#63b8ff" d="M981.19,-162.24C958.56,-126.31 910.87,-59.82 851,-28.5 843.34,-24.49 835.14,-21.23 826.69,-18.57"/>
<polygon fill="#63b8ff" stroke="#63b8ff" points="978.43,-164.42 986.65,-171.1 984.38,-160.75 978.43,-164.42"/>
</a>
</g>
</g>
<!-- Node3 -->
<g id="Node000003" class="node">
<title>Node3</title>
<g id="a_Node000003"><a xlink:href="classcom_1_1teragrep_1_1cfe__16_1_1it_1_1AcknowledgementsIT.html#ad7d230669d75e6c83a2d4364e6ce1a10" target="_top" xlink:title=" ">
<polygon fill="white" stroke="#666666" points="226,-287.5 0,-287.5 0,-257.5 226,-257.5 226,-287.5"/>
<text text-anchor="start" x="8" y="-275.5" font-family="Helvetica,sans-Serif" font-size="10.00">com.teragrep.cfe_16.it.Acknowledgements</text>
<text text-anchor="middle" x="113" y="-264.5" font-family="Helvetica,sans-Serif" font-size="10.00">IT.acknowledgeTest</text>
</a>
</g>
</g>
<!-- Node2&#45;&gt;Node3 -->
<g id="edge2_Node000002_Node000003" class="edge">
<title>Node2&#45;&gt;Node3</title>
<g id="a_edge2_Node000002_Node000003"><a xlink:title=" ">
<path fill="none" stroke="#63b8ff" d="M556.68,-276.23C453.75,-275.36 319.8,-274.23 226.32,-273.45"/>
<polygon fill="#63b8ff" stroke="#63b8ff" points="556.82,-279.73 566.85,-276.31 556.88,-272.73 556.82,-279.73"/>
</a>
</g>
</g>
<!-- Node4 -->
<g id="Node000004" class="node">
<title>Node4</title>
<g id="a_Node000004"><a xlink:href="classcom_1_1teragrep_1_1cfe__16_1_1it_1_1AcknowledgementsIT.html#adf6b572a31548b5d7c7e9780f8f79bac" target="_top" xlink:title=" ">
<polygon fill="white" stroke="#666666" points="509.5,-330.5 283.5,-330.5 283.5,-300.5 509.5,-300.5 509.5,-330.5"/>
<text text-anchor="start" x="291.5" y="-318.5" font-family="Helvetica,sans-Serif" font-size="10.00">com.teragrep.cfe_16.it.Acknowledgements</text>
<text text-anchor="middle" x="396.5" y="-307.5" font-family="Helvetica,sans-Serif" font-size="10.00">IT.getRequestedAckStatusesTest</text>
</a>
</g>
</g>
<!-- Node2&#45;&gt;Node4 -->
<g id="edge3_Node000002_Node000004" class="edge">
<title>Node2&#45;&gt;Node4</title>
<g id="a_edge3_Node000002_Node000004"><a xlink:title=" ">
<path fill="none" stroke="#63b8ff" d="M620.04,-288.26C585.69,-292.47 545.89,-297.34 509.52,-301.79"/>
<polygon fill="#63b8ff" stroke="#63b8ff" points="620.55,-291.73 630.05,-287.04 619.7,-284.78 620.55,-291.73"/>
</a>
</g>
</g>
<!-- Node5&#45;&gt;Node6 -->
<g id="edge5_Node000005_Node000006" class="edge">
<title>Node5&#45;&gt;Node6</title>
<g id="a_edge5_Node000005_Node000006"><a xlink:title=" ">
<path fill="none" stroke="#63b8ff" d="M589.39,-68.93C561.99,-72.72 532.98,-76.74 506.04,-80.47"/>
<polygon fill="#63b8ff" stroke="#63b8ff" points="589.98,-72.38 599.4,-67.54 589.02,-65.44 589.98,-72.38"/>
</a>
</g>
</g>
<!-- Node6&#45;&gt;Node3 -->
<g id="edge6_Node000006_Node000003" class="edge">
<title>Node6&#45;&gt;Node3</title>
<g id="a_edge6_Node000006_Node000003"><a xlink:title=" ">
<path fill="none" stroke="#63b8ff" d="M352.36,-114.81C325.7,-127.31 291.13,-144.55 262,-162.5 212.94,-192.73 159.7,-234.83 132.41,-257.16"/>
<polygon fill="#63b8ff" stroke="#63b8ff" points="353.84,-117.98 361.43,-110.59 350.89,-111.63 353.84,-117.98"/>
</a>
</g>
</g>
<!-- Node7 -->
<g id="Node000007" class="node">
<title>Node7</title>
<g id="a_Node000007"><a xlink:href="classcom_1_1teragrep_1_1cfe__16_1_1it_1_1AcknowledgementsIT.html#a28a8273d6b136df113665a5032aa8ca3" target="_top" xlink:title=" ">
<polygon fill="white" stroke="#666666" points="226,-134.5 0,-134.5 0,-104.5 226,-104.5 226,-134.5"/>
<text text-anchor="start" x="8" y="-122.5" font-family="Helvetica,sans-Serif" font-size="10.00">com.teragrep.cfe_16.it.Acknowledgements</text>
<text text-anchor="middle" x="113" y="-111.5" font-family="Helvetica,sans-Serif" font-size="10.00">IT.getCurrentAckValueAndIncrementTest</text>
</a>
</g>
</g>
<!-- Node6&#45;&gt;Node7 -->
<g id="edge7_Node000006_Node000007" class="edge">
<title>Node6&#45;&gt;Node7</title>
<g id="a_edge7_Node000006_Node000007"><a xlink:title=" ">
<path fill="none" stroke="#63b8ff" d="M251.69,-107.76C243.12,-108.49 234.57,-109.22 226.15,-109.94"/>
<polygon fill="#63b8ff" stroke="#63b8ff" points="252.09,-111.24 261.76,-106.9 251.5,-104.26 252.09,-111.24"/>
</a>
</g>
</g>
<!-- Node8 -->
<g id="Node000008" class="node">
<title>Node8</title>
<g id="a_Node000008"><a xlink:href="classcom_1_1teragrep_1_1cfe__16_1_1it_1_1AcknowledgementsIT.html#afc4e73cfb46d7fbc19edc8d2c177e6bf" target="_top" xlink:title=" ">
<polygon fill="white" stroke="#666666" points="226,-86.5 0,-86.5 0,-56.5 226,-56.5 226,-86.5"/>
<text text-anchor="start" x="8" y="-74.5" font-family="Helvetica,sans-Serif" font-size="10.00">com.teragrep.cfe_16.it.Acknowledgements</text>
<text text-anchor="middle" x="113" y="-63.5" font-family="Helvetica,sans-Serif" font-size="10.00">IT.getCurrentAckValueTest</text>
</a>
</g>
</g>
<!-- Node6&#45;&gt;Node8 -->
<g id="edge8_Node000006_Node000008" class="edge">
<title>Node6&#45;&gt;Node8</title>
<g id="a_edge8_Node000006_Node000008"><a xlink:title=" ">
<path fill="none" stroke="#63b8ff" d="M251.69,-83.24C243.12,-82.51 234.57,-81.78 226.15,-81.06"/>
<polygon fill="#63b8ff" stroke="#63b8ff" points="251.5,-86.74 261.76,-84.1 252.09,-79.76 251.5,-86.74"/>
</a>
</g>
</g>
<!-- Node10 -->
<g id="Node000010" class="node">
<title>Node10</title>
<g id="a_Node000010"><a xlink:href="classcom_1_1teragrep_1_1cfe__16_1_1it_1_1AcknowledgementsIT.html#a145cd25807c91ed7c62729cf106b5bbc" target="_top" xlink:title=" ">
<polygon fill="white" stroke="#666666" points="509.5,-201.5 283.5,-201.5 283.5,-171.5 509.5,-171.5 509.5,-201.5"/>
<text text-anchor="start" x="291.5" y="-189.5" font-family="Helvetica,sans-Serif" font-size="10.00">com.teragrep.cfe_16.it.Acknowledgements</text>
<text text-anchor="middle" x="396.5" y="-178.5" font-family="Helvetica,sans-Serif" font-size="10.00">IT.deleteAckTest</text>
</a>
</g>
</g>
<!-- Node9&#45;&gt;Node10 -->
<g id="edge10_Node000009_Node000010" class="edge">
<title>Node9&#45;&gt;Node10</title>
<g id="a_edge10_Node000009_Node000010"><a xlink:title=" ">
<path fill="none" stroke="#63b8ff" d="M600.52,-155.12C566.09,-160.44 528.19,-166.3 494.55,-171.5"/>
<polygon fill="#63b8ff" stroke="#63b8ff" points="601.26,-158.54 610.61,-153.56 600.19,-151.62 601.26,-158.54"/>
</a>
</g>
</g>
<!-- Node11&#45;&gt;Node10 -->
<g id="edge12_Node000011_Node000010" class="edge">
<title>Node11&#45;&gt;Node10</title>
<g id="a_edge12_Node000011_Node000010"><a xlink:title=" ">
<path fill="none" stroke="#63b8ff" d="M600.52,-217.88C566.09,-212.56 528.19,-206.7 494.55,-201.5"/>
<polygon fill="#63b8ff" stroke="#63b8ff" points="600.19,-221.38 610.61,-219.44 601.26,-214.46 600.19,-221.38"/>
</a>
</g>
</g>
<!-- Node12&#45;&gt;Node10 -->
<g id="edge14_Node000012_Node000010" class="edge">
<title>Node12&#45;&gt;Node10</title>
<g id="a_edge14_Node000012_Node000010"><a xlink:title=" ">
<path fill="none" stroke="#63b8ff" d="M581.36,-186.5C557.56,-186.5 532.83,-186.5 509.51,-186.5"/>
<polygon fill="#63b8ff" stroke="#63b8ff" points="581.5,-190 591.5,-186.5 581.5,-183 581.5,-190"/>
</a>
</g>
</g>
<!-- Node13&#45;&gt;Node4 -->
<g id="edge16_Node000013_Node000004" class="edge">
<title>Node13&#45;&gt;Node4</title>
<g id="a_edge16_Node000013_Node000004"><a xlink:title=" ">
<path fill="none" stroke="#63b8ff" d="M581.36,-318.46C557.56,-318.08 532.83,-317.68 509.51,-317.3"/>
<polygon fill="#63b8ff" stroke="#63b8ff" points="581.44,-321.96 591.5,-318.62 581.56,-314.96 581.44,-321.96"/>
</a>
</g>
</g>
<!-- Node14&#45;&gt;Node3 -->
<g id="edge19_Node000014_Node000003" class="edge">
<title>Node14&#45;&gt;Node3</title>
<g id="a_edge19_Node000014_Node000003"><a xlink:title=" ">
<path fill="none" stroke="#63b8ff" d="M286.3,-346.17C278.02,-344.16 269.84,-341.94 262,-339.5 218.5,-325.97 170.99,-302.85 141.83,-287.62"/>
<polygon fill="#63b8ff" stroke="#63b8ff" points="285.52,-349.58 296.05,-348.44 287.11,-342.77 285.52,-349.58"/>
</a>
</g>
</g>
</g>
</svg>
