<?xml version="1.0" encoding="UTF-8" standalone="no"?>
<!DOCTYPE svg PUBLIC "-//W3C//DTD SVG 1.1//EN"
 "http://www.w3.org/Graphics/SVG/1.1/DTD/svg11.dtd">
<!-- Generated by graphviz version 2.43.0 (0)
 -->
<!-- Title: com.teragrep.cfe_16.Acknowledgements.incrementAckValue Pages: 1 -->
<svg width="810pt" height="268pt"
 viewBox="0.00 0.00 810.00 268.00" xmlns="http://www.w3.org/2000/svg" xmlns:xlink="http://www.w3.org/1999/xlink">
<g id="graph0" class="graph" transform="scale(1 1) rotate(0) translate(4 264)">
<title>com.teragrep.cfe_16.Acknowledgements.incrementAckValue</title>
<!-- Node1 -->
<g id="Node000001" class="node">
<title>Node1</title>
<g id="a_Node000001"><a xlink:title=" ">
<polygon fill="#999999" stroke="#666666" points="269,-150 0,-150 0,-120 269,-120 269,-150"/>
<text text-anchor="start" x="8" y="-138" font-family="Helvetica,sans-Serif" font-size="10.00">com.teragrep.cfe_16.Acknowledgements.increment</text>
<text text-anchor="middle" x="134.5" y="-127" font-family="Helvetica,sans-Serif" font-size="10.00">AckValue</text>
</a>
</g>
</g>
<!-- Node2 -->
<g id="Node000002" class="node">
<title>Node2</title>
<g id="a_Node000002"><a xlink:href="classcom_1_1teragrep_1_1cfe__16_1_1Acknowledgements.html#a7a9570efce9732f5f674e9ea85017439" target="_top" xlink:title=" ">
<polygon fill="white" stroke="#666666" points="547,-260 305,-260 305,-230 547,-230 547,-260"/>
<text text-anchor="start" x="313" y="-248" font-family="Helvetica,sans-Serif" font-size="10.00">com.teragrep.cfe_16.Acknowledgements.acks</text>
<text text-anchor="middle" x="426" y="-237" font-family="Helvetica,sans-Serif" font-size="10.00">Available</text>
</a>
</g>
</g>
<!-- Node1&#45;&gt;Node2 -->
<g id="edge1_Node000001_Node000002" class="edge">
<title>Node1&#45;&gt;Node2</title>
<g id="a_edge1_Node000001_Node000002"><a xlink:title=" ">
<path fill="none" stroke="#63b8ff" d="M162.64,-150.15C195.49,-167.98 252.91,-197.49 305,-216 316.79,-220.19 329.45,-223.98 341.96,-227.33"/>
<polygon fill="#63b8ff" stroke="#63b8ff" points="341.39,-230.8 351.94,-229.92 343.15,-224.02 341.39,-230.8"/>
</a>
</g>
</g>
<!-- Node3 -->
<g id="Node000003" class="node">
<title>Node3</title>
<g id="a_Node000003"><a xlink:href="classcom_1_1teragrep_1_1cfe__16_1_1Acknowledgements_1_1State.html#ad9d95fec84a00a574b21981fc673f10a" target="_top" xlink:title=" ">
<polygon fill="white" stroke="#666666" points="802,-238 583,-238 583,-208 802,-208 802,-238"/>
<text text-anchor="start" x="591" y="-226" font-family="Helvetica,sans-Serif" font-size="10.00">com.teragrep.cfe_16.Acknowledgements.</text>
<text text-anchor="middle" x="692.5" y="-215" font-family="Helvetica,sans-Serif" font-size="10.00">State.getAckMap</text>
</a>
</g>
</g>
<!-- Node1&#45;&gt;Node3 -->
<g id="edge3_Node000001_Node000003" class="edge">
<title>Node1&#45;&gt;Node3</title>
<g id="a_edge3_Node000001_Node000003"><a xlink:title=" ">
<path fill="none" stroke="#63b8ff" d="M180.67,-150.1C214.53,-160.85 262.2,-174.79 305,-183 393.92,-200.06 495.85,-210.23 572.7,-216.04"/>
<polygon fill="#63b8ff" stroke="#63b8ff" points="572.66,-219.55 582.89,-216.8 573.18,-212.56 572.66,-219.55"/>
</a>
</g>
</g>
<!-- Node4 -->
<g id="Node000004" class="node">
<title>Node4</title>
<g id="a_Node000004"><a xlink:href="classcom_1_1teragrep_1_1cfe__16_1_1Acknowledgements_1_1State.html#a7d72966efb4505634712c4c64c96440c" target="_top" xlink:title=" ">
<polygon fill="white" stroke="#666666" points="535.5,-174 316.5,-174 316.5,-144 535.5,-144 535.5,-174"/>
<text text-anchor="start" x="324.5" y="-162" font-family="Helvetica,sans-Serif" font-size="10.00">com.teragrep.cfe_16.Acknowledgements.</text>
<text text-anchor="middle" x="426" y="-151" font-family="Helvetica,sans-Serif" font-size="10.00">State.getAckToCompare</text>
</a>
</g>
</g>
<!-- Node1&#45;&gt;Node4 -->
<g id="edge4_Node000001_Node000004" class="edge">
<title>Node1&#45;&gt;Node4</title>
<g id="a_edge4_Node000001_Node000004"><a xlink:title=" ">
<path fill="none" stroke="#63b8ff" d="M269.23,-146.09C281.5,-147.1 293.88,-148.13 306,-149.14"/>
<polygon fill="#63b8ff" stroke="#63b8ff" points="305.87,-152.64 316.12,-149.97 306.45,-145.66 305.87,-152.64"/>
</a>
</g>
</g>
<!-- Node5 -->
<g id="Node000005" class="node">
<title>Node5</title>
<g id="a_Node000005"><a xlink:href="classcom_1_1teragrep_1_1cfe__16_1_1Acknowledgements_1_1State.html#aa1809213ec400ce2fccaff6cab3e244b" target="_top" xlink:title=" ">
<polygon fill="white" stroke="#666666" points="535.5,-126 316.5,-126 316.5,-96 535.5,-96 535.5,-126"/>
<text text-anchor="start" x="324.5" y="-114" font-family="Helvetica,sans-Serif" font-size="10.00">com.teragrep.cfe_16.Acknowledgements.</text>
<text text-anchor="middle" x="426" y="-103" font-family="Helvetica,sans-Serif" font-size="10.00">State.getCurrentAckValue</text>
</a>
</g>
</g>
<!-- Node1&#45;&gt;Node5 -->
<g id="edge5_Node000001_Node000005" class="edge">
<title>Node1&#45;&gt;Node5</title>
<g id="a_edge5_Node000001_Node000005"><a xlink:title=" ">
<path fill="none" stroke="#63b8ff" d="M269.23,-123.91C281.5,-122.9 293.88,-121.87 306,-120.86"/>
<polygon fill="#63b8ff" stroke="#63b8ff" points="306.45,-124.34 316.12,-120.03 305.87,-117.36 306.45,-124.34"/>
</a>
</g>
</g>
<!-- Node6 -->
<g id="Node000006" class="node">
<title>Node6</title>
<g id="a_Node000006"><a xlink:href="classcom_1_1teragrep_1_1cfe__16_1_1Acknowledgements_1_1State.html#ab460c6226ddd97252506f01f11cf9f3d" target="_top" xlink:title=" ">
<polygon fill="white" stroke="#666666" points="535.5,-78 316.5,-78 316.5,-48 535.5,-48 535.5,-78"/>
<text text-anchor="start" x="324.5" y="-66" font-family="Helvetica,sans-Serif" font-size="10.00">com.teragrep.cfe_16.Acknowledgements.</text>
<text text-anchor="middle" x="426" y="-55" font-family="Helvetica,sans-Serif" font-size="10.00">State.setAckToCompare</text>
</a>
</g>
</g>
<!-- Node1&#45;&gt;Node6 -->
<g id="edge6_Node000001_Node000006" class="edge">
<title>Node1&#45;&gt;Node6</title>
<g id="a_edge6_Node000001_Node000006"><a xlink:title=" ">
<path fill="none" stroke="#63b8ff" d="M184.92,-119.9C218.59,-109.88 264.27,-96.82 305,-87 314.86,-84.62 325.22,-82.3 335.54,-80.09"/>
<polygon fill="#63b8ff" stroke="#63b8ff" points="336.35,-83.49 345.41,-78 334.91,-76.64 336.35,-83.49"/>
</a>
</g>
</g>
<!-- Node7 -->
<g id="Node000007" class="node">
<title>Node7</title>
<g id="a_Node000007"><a xlink:href="classcom_1_1teragrep_1_1cfe__16_1_1Acknowledgements_1_1State.html#a2ce209b2faca53446cccd40bc4de2726" target="_top" xlink:title=" ">
<polygon fill="white" stroke="#666666" points="535.5,-30 316.5,-30 316.5,0 535.5,0 535.5,-30"/>
<text text-anchor="start" x="324.5" y="-18" font-family="Helvetica,sans-Serif" font-size="10.00">com.teragrep.cfe_16.Acknowledgements.</text>
<text text-anchor="middle" x="426" y="-7" font-family="Helvetica,sans-Serif" font-size="10.00">State.setCurrentAckValue</text>
</a>
</g>
</g>
<!-- Node1&#45;&gt;Node7 -->
<g id="edge7_Node000001_Node000007" class="edge">
<title>Node1&#45;&gt;Node7</title>
<g id="a_edge7_Node000001_Node000007"><a xlink:title=" ">
<path fill="none" stroke="#63b8ff" d="M156.88,-119.9C188,-98.64 248.27,-60.12 305,-39 311.01,-36.76 317.27,-34.72 323.64,-32.85"/>
<polygon fill="#63b8ff" stroke="#63b8ff" points="325.01,-36.11 333.72,-30.07 323.15,-29.36 325.01,-36.11"/>
</a>
</g>
</g>
<!-- Node2&#45;&gt;Node3 -->
<g id="edge2_Node000002_Node000003" class="edge">
<title>Node2&#45;&gt;Node3</title>
<g id="a_edge2_Node000002_Node000003"><a xlink:title=" ">
<path fill="none" stroke="#63b8ff" d="M547.25,-235C555.69,-234.3 564.2,-233.59 572.63,-232.89"/>
<polygon fill="#63b8ff" stroke="#63b8ff" points="573.2,-236.35 582.87,-232.03 572.62,-229.38 573.2,-236.35"/>
</a>
</g>
</g>
</g>
</svg>
