<?xml version="1.0" encoding="UTF-8" standalone="no"?>
<!DOCTYPE svg PUBLIC "-//W3C//DTD SVG 1.1//EN"
 "http://www.w3.org/Graphics/SVG/1.1/DTD/svg11.dtd">
<!-- Generated by graphviz version 2.43.0 (0)
 -->
<!-- Title: com.teragrep.cfe_16.TestClient.createSocket Pages: 1 -->
<svg width="980pt" height="407pt"
 viewBox="0.00 0.00 980.00 406.67" xmlns="http://www.w3.org/2000/svg" xmlns:xlink="http://www.w3.org/1999/xlink">
<g id="graph0" class="graph" transform="scale(1 1) rotate(0) translate(4 402.67)">
<title>com.teragrep.cfe_16.TestClient.createSocket</title>
<!-- Node1 -->
<g id="Node000001" class="node">
<title>Node1</title>
<g id="a_Node000001"><a xlink:title=" ">
<polygon fill="#999999" stroke="#666666" points="972,-168.17 832,-168.17 832,-138.17 972,-138.17 972,-168.17"/>
<text text-anchor="start" x="840" y="-156.17" font-family="Helvetica,sans-Serif" font-size="10.00">com.teragrep.cfe_16.Test</text>
<text text-anchor="middle" x="902" y="-145.17" font-family="Helvetica,sans-Serif" font-size="10.00">Client.createSocket</text>
</a>
</g>
</g>
<!-- Node2 -->
<g id="Node000002" class="node">
<title>Node2</title>
<g id="a_Node000002"><a xlink:href="classcom_1_1teragrep_1_1cfe__16_1_1TestClient.html#afa2ceaba677411954a4210a8e6d5cd49" target="_top" xlink:title="Checks that the TCP connection is open, otherwis a new connection is created and returned.">
<polygon fill="white" stroke="#666666" points="796,-216.17 644,-216.17 644,-186.17 796,-186.17 796,-216.17"/>
<text text-anchor="start" x="652" y="-204.17" font-family="Helvetica,sans-Serif" font-size="10.00">com.teragrep.cfe_16.Test</text>
<text text-anchor="middle" x="720" y="-193.17" font-family="Helvetica,sans-Serif" font-size="10.00">Client.ensureTcpConnection</text>
</a>
</g>
</g>
<!-- Node1&#45;&gt;Node2 -->
<g id="edge1_Node000001_Node000002" class="edge">
<title>Node1&#45;&gt;Node2</title>
<g id="a_edge1_Node000001_Node000002"><a xlink:title=" ">
<path fill="none" stroke="#63b8ff" d="M834.81,-170.82C815.91,-175.86 795.51,-181.31 777.26,-186.17"/>
<polygon fill="#63b8ff" stroke="#63b8ff" points="835.78,-174.19 844.54,-168.23 833.98,-167.43 835.78,-174.19"/>
</a>
</g>
</g>
<!-- Node5 -->
<g id="Node000005" class="node">
<title>Node5</title>
<g id="a_Node000005"><a xlink:href="classcom_1_1teragrep_1_1cfe__16_1_1TestClient.html#a1644a9844dc9e999e117f4bcf82346a0" target="_top" xlink:title=" ">
<polygon fill="white" stroke="#666666" points="140,-216.17 0,-216.17 0,-186.17 140,-186.17 140,-216.17"/>
<text text-anchor="start" x="8" y="-204.17" font-family="Helvetica,sans-Serif" font-size="10.00">com.teragrep.cfe_16.Test</text>
<text text-anchor="middle" x="70" y="-193.17" font-family="Helvetica,sans-Serif" font-size="10.00">Client.run</text>
</a>
</g>
</g>
<!-- Node1&#45;&gt;Node5 -->
<g id="edge19_Node000001_Node000005" class="edge">
<title>Node1&#45;&gt;Node5</title>
<g id="a_edge19_Node000001_Node000005"><a xlink:title=" ">
<path fill="none" stroke="#63b8ff" d="M864.22,-133.27C753.09,-76.04 413.83,77.06 176,-48.17 119.56,-77.89 87.61,-153.17 76.04,-185.75"/>
<polygon fill="#63b8ff" stroke="#63b8ff" points="862.86,-136.51 873.35,-138.02 866.09,-130.3 862.86,-136.51"/>
</a>
</g>
</g>
<!-- Node12 -->
<g id="Node000012" class="node">
<title>Node12</title>
<g id="a_Node000012"><a xlink:href="classcom_1_1teragrep_1_1cfe__16_1_1TestClient.html#a0d90aaf874c60e700371e09e00828eaa" target="_top" xlink:title="Advances buffered reader through HTTP headers.">
<polygon fill="white" stroke="#666666" points="790,-168.17 650,-168.17 650,-138.17 790,-138.17 790,-168.17"/>
<text text-anchor="start" x="658" y="-156.17" font-family="Helvetica,sans-Serif" font-size="10.00">com.teragrep.cfe_16.Test</text>
<text text-anchor="middle" x="720" y="-145.17" font-family="Helvetica,sans-Serif" font-size="10.00">Client.readHeaders</text>
</a>
</g>
</g>
<!-- Node1&#45;&gt;Node12 -->
<g id="edge17_Node000001_Node000012" class="edge">
<title>Node1&#45;&gt;Node12</title>
<g id="a_edge17_Node000001_Node000012"><a xlink:title=" ">
<path fill="none" stroke="#63b8ff" d="M821.88,-153.17C811.32,-153.17 800.56,-153.17 790.19,-153.17"/>
<polygon fill="#63b8ff" stroke="#63b8ff" points="821.92,-156.67 831.92,-153.17 821.92,-149.67 821.92,-156.67"/>
</a>
</g>
</g>
<!-- Node3 -->
<g id="Node000003" class="node">
<title>Node3</title>
<g id="a_Node000003"><a xlink:href="classcom_1_1teragrep_1_1cfe__16_1_1TestClient.html#a9e085118b18a5952fb6c4e702b0bbc8b" target="_top" xlink:title=" ">
<polygon fill="white" stroke="#666666" points="608,-216.17 434,-216.17 434,-186.17 608,-186.17 608,-216.17"/>
<text text-anchor="start" x="442" y="-204.17" font-family="Helvetica,sans-Serif" font-size="10.00">com.teragrep.cfe_16.Test</text>
<text text-anchor="middle" x="521" y="-193.17" font-family="Helvetica,sans-Serif" font-size="10.00">Client.doRequestAndVerifyReply</text>
</a>
</g>
</g>
<!-- Node2&#45;&gt;Node3 -->
<g id="edge2_Node000002_Node000003" class="edge">
<title>Node2&#45;&gt;Node3</title>
<g id="a_edge2_Node000002_Node000003"><a xlink:title=" ">
<path fill="none" stroke="#63b8ff" d="M633.96,-201.17C625.37,-201.17 616.64,-201.17 608.04,-201.17"/>
<polygon fill="#63b8ff" stroke="#63b8ff" points="633.96,-204.67 643.96,-201.17 633.96,-197.67 633.96,-204.67"/>
</a>
</g>
</g>
<!-- Node4 -->
<g id="Node000004" class="node">
<title>Node4</title>
<g id="a_Node000004"><a xlink:href="classcom_1_1teragrep_1_1cfe__16_1_1TestClient.html#a9c2d967534908ef205ef5d27459ffb2a" target="_top" xlink:title=" ">
<polygon fill="white" stroke="#666666" points="368.5,-398.67 205.5,-398.67 205.5,-357.67 368.5,-357.67 368.5,-398.67"/>
<text text-anchor="start" x="213.5" y="-386.67" font-family="Helvetica,sans-Serif" font-size="10.00">com.teragrep.cfe_16.Test</text>
<text text-anchor="start" x="213.5" y="-375.67" font-family="Helvetica,sans-Serif" font-size="10.00">Client.testGetAcksWithInvalid</text>
<text text-anchor="middle" x="287" y="-364.67" font-family="Helvetica,sans-Serif" font-size="10.00">Channel</text>
</a>
</g>
</g>
<!-- Node3&#45;&gt;Node4 -->
<g id="edge3_Node000003_Node000004" class="edge">
<title>Node3&#45;&gt;Node4</title>
<g id="a_edge3_Node000003_Node000004"><a xlink:title=" ">
<path fill="none" stroke="#63b8ff" d="M506.58,-225.18C487,-257.97 447.49,-316.3 398,-348.17 389.01,-353.96 378.92,-358.64 368.6,-362.43"/>
<polygon fill="#63b8ff" stroke="#63b8ff" points="509.76,-226.67 511.78,-216.27 503.72,-223.14 509.76,-226.67"/>
</a>
</g>
</g>
<!-- Node6 -->
<g id="Node000006" class="node">
<title>Node6</title>
<g id="a_Node000006"><a xlink:href="classcom_1_1teragrep_1_1cfe__16_1_1TestClient.html#a69a3a4168d422752fdaaadd5c5cd790f" target="_top" xlink:title=" ">
<polygon fill="white" stroke="#666666" points="379.5,-339.17 194.5,-339.17 194.5,-309.17 379.5,-309.17 379.5,-339.17"/>
<text text-anchor="start" x="202.5" y="-327.17" font-family="Helvetica,sans-Serif" font-size="10.00">com.teragrep.cfe_16.Test</text>
<text text-anchor="middle" x="287" y="-316.17" font-family="Helvetica,sans-Serif" font-size="10.00">Client.testGetAcksWithoutChannel</text>
</a>
</g>
</g>
<!-- Node3&#45;&gt;Node6 -->
<g id="edge5_Node000003_Node000006" class="edge">
<title>Node3&#45;&gt;Node6</title>
<g id="a_edge5_Node000003_Node000006"><a xlink:title=" ">
<path fill="none" stroke="#63b8ff" d="M499.1,-223.41C476.39,-246.2 437.97,-280.95 398,-300.17 390.78,-303.65 383.05,-306.62 375.16,-309.17"/>
<polygon fill="#63b8ff" stroke="#63b8ff" points="501.68,-225.77 506.18,-216.18 496.68,-220.88 501.68,-225.77"/>
</a>
</g>
</g>
<!-- Node7 -->
<g id="Node000007" class="node">
<title>Node7</title>
<g id="a_Node000007"><a xlink:href="classcom_1_1teragrep_1_1cfe__16_1_1TestClient.html#ad130088aff54cc3f8c81520b483c5e0b" target="_top" xlink:title=" ">
<polygon fill="white" stroke="#666666" points="357,-291.17 217,-291.17 217,-261.17 357,-261.17 357,-291.17"/>
<text text-anchor="start" x="225" y="-279.17" font-family="Helvetica,sans-Serif" font-size="10.00">com.teragrep.cfe_16.Test</text>
<text text-anchor="middle" x="287" y="-268.17" font-family="Helvetica,sans-Serif" font-size="10.00">Client.testSendEvent</text>
</a>
</g>
</g>
<!-- Node3&#45;&gt;Node7 -->
<g id="edge7_Node000003_Node000007" class="edge">
<title>Node3&#45;&gt;Node7</title>
<g id="a_edge7_Node000003_Node000007"><a xlink:title=" ">
<path fill="none" stroke="#63b8ff" d="M479.22,-220.4C455.84,-230.88 425.71,-243.44 398,-252.17 384.95,-256.29 370.81,-259.95 357.16,-263.09"/>
<polygon fill="#63b8ff" stroke="#63b8ff" points="480.82,-223.53 488.48,-216.21 477.93,-217.15 480.82,-223.53"/>
</a>
</g>
</g>
<!-- Node8 -->
<g id="Node000008" class="node">
<title>Node8</title>
<g id="a_Node000008"><a xlink:href="classcom_1_1teragrep_1_1cfe__16_1_1TestClient.html#a28b7521af8099aa24e934d2d7f219305" target="_top" xlink:title=" ">
<polygon fill="white" stroke="#666666" points="372,-243.17 202,-243.17 202,-213.17 372,-213.17 372,-243.17"/>
<text text-anchor="start" x="210" y="-231.17" font-family="Helvetica,sans-Serif" font-size="10.00">com.teragrep.cfe_16.Test</text>
<text text-anchor="middle" x="287" y="-220.17" font-family="Helvetica,sans-Serif" font-size="10.00">Client.testSendEventWithAckID</text>
</a>
</g>
</g>
<!-- Node3&#45;&gt;Node8 -->
<g id="edge9_Node000003_Node000008" class="edge">
<title>Node3&#45;&gt;Node8</title>
<g id="a_edge9_Node000003_Node000008"><a xlink:title=" ">
<path fill="none" stroke="#63b8ff" d="M423.95,-212.35C406.84,-214.34 389.13,-216.41 372.38,-218.36"/>
<polygon fill="#63b8ff" stroke="#63b8ff" points="424.41,-215.82 433.94,-211.19 423.6,-208.87 424.41,-215.82"/>
</a>
</g>
</g>
<!-- Node9 -->
<g id="Node000009" class="node">
<title>Node9</title>
<g id="a_Node000009"><a xlink:href="classcom_1_1teragrep_1_1cfe__16_1_1TestClient.html#a243cd15a09a303384ac53f15266c45e7" target="_top" xlink:title=" ">
<polygon fill="white" stroke="#666666" points="371.5,-194.67 202.5,-194.67 202.5,-153.67 371.5,-153.67 371.5,-194.67"/>
<text text-anchor="start" x="210.5" y="-182.67" font-family="Helvetica,sans-Serif" font-size="10.00">com.teragrep.cfe_16.Test</text>
<text text-anchor="start" x="210.5" y="-171.67" font-family="Helvetica,sans-Serif" font-size="10.00">Client.testSendEventWithBlank</text>
<text text-anchor="middle" x="287" y="-160.67" font-family="Helvetica,sans-Serif" font-size="10.00">EventField</text>
</a>
</g>
</g>
<!-- Node3&#45;&gt;Node9 -->
<g id="edge11_Node000003_Node000009" class="edge">
<title>Node3&#45;&gt;Node9</title>
<g id="a_edge11_Node000003_Node000009"><a xlink:title=" ">
<path fill="none" stroke="#63b8ff" d="M423.82,-189.98C406.49,-187.96 388.54,-185.88 371.6,-183.9"/>
<polygon fill="#63b8ff" stroke="#63b8ff" points="423.6,-193.48 433.94,-191.16 424.41,-186.53 423.6,-193.48"/>
</a>
</g>
</g>
<!-- Node10 -->
<g id="Node000010" class="node">
<title>Node10</title>
<g id="a_Node000010"><a xlink:href="classcom_1_1teragrep_1_1cfe__16_1_1TestClient.html#ab21f9e0639df4e95228404e94a6981a8" target="_top" xlink:title=" ">
<polygon fill="white" stroke="#666666" points="398,-135.17 176,-135.17 176,-105.17 398,-105.17 398,-135.17"/>
<text text-anchor="start" x="184" y="-123.17" font-family="Helvetica,sans-Serif" font-size="10.00">com.teragrep.cfe_16.Test</text>
<text text-anchor="middle" x="287" y="-112.17" font-family="Helvetica,sans-Serif" font-size="10.00">Client.testSendEventWithoutAuthorization</text>
</a>
</g>
</g>
<!-- Node3&#45;&gt;Node10 -->
<g id="edge13_Node000003_Node000010" class="edge">
<title>Node3&#45;&gt;Node10</title>
<g id="a_edge13_Node000003_Node000010"><a xlink:title=" ">
<path fill="none" stroke="#63b8ff" d="M482.59,-181.55C458.86,-169.73 427.23,-155.08 398,-145.17 387.06,-141.46 375.32,-138.14 363.72,-135.21"/>
<polygon fill="#63b8ff" stroke="#63b8ff" points="481.1,-184.72 491.6,-186.1 484.25,-178.47 481.1,-184.72"/>
</a>
</g>
</g>
<!-- Node11 -->
<g id="Node000011" class="node">
<title>Node11</title>
<g id="a_Node000011"><a xlink:href="classcom_1_1teragrep_1_1cfe__16_1_1TestClient.html#ac04d2efab8deede690e209bd346c4aa3" target="_top" xlink:title=" ">
<polygon fill="white" stroke="#666666" points="391,-87.17 183,-87.17 183,-57.17 391,-57.17 391,-87.17"/>
<text text-anchor="start" x="191" y="-75.17" font-family="Helvetica,sans-Serif" font-size="10.00">com.teragrep.cfe_16.Test</text>
<text text-anchor="middle" x="287" y="-64.17" font-family="Helvetica,sans-Serif" font-size="10.00">Client.testSendEventWithoutEventField</text>
</a>
</g>
</g>
<!-- Node3&#45;&gt;Node11 -->
<g id="edge15_Node000003_Node000011" class="edge">
<title>Node3&#45;&gt;Node11</title>
<g id="a_edge15_Node000003_Node000011"><a xlink:title=" ">
<path fill="none" stroke="#63b8ff" d="M500.11,-178.35C477.74,-154.16 439.11,-116.68 398,-96.17 391.09,-92.73 383.7,-89.77 376.13,-87.24"/>
<polygon fill="#63b8ff" stroke="#63b8ff" points="497.75,-180.95 507.06,-186 502.93,-176.24 497.75,-180.95"/>
</a>
</g>
</g>
<!-- Node4&#45;&gt;Node5 -->
<g id="edge4_Node000004_Node000005" class="edge">
<title>Node4&#45;&gt;Node5</title>
<g id="a_edge4_Node000004_Node000005"><a xlink:title=" ">
<path fill="none" stroke="#63b8ff" d="M195.68,-359.18C188.75,-356.05 182.09,-352.41 176,-348.17 125.82,-313.22 91.16,-246.22 77.5,-216.28"/>
<polygon fill="#63b8ff" stroke="#63b8ff" points="194.71,-362.56 205.29,-363.13 197.37,-356.09 194.71,-362.56"/>
</a>
</g>
</g>
<!-- Node6&#45;&gt;Node5 -->
<g id="edge6_Node000006_Node000005" class="edge">
<title>Node6&#45;&gt;Node5</title>
<g id="a_edge6_Node000006_Node000005"><a xlink:title=" ">
<path fill="none" stroke="#63b8ff" d="M187.48,-305.56C183.54,-303.92 179.7,-302.12 176,-300.17 135.89,-279.02 100.01,-238.29 82.43,-216.24"/>
<polygon fill="#63b8ff" stroke="#63b8ff" points="186.25,-308.84 196.84,-309.14 188.76,-302.3 186.25,-308.84"/>
</a>
</g>
</g>
<!-- Node7&#45;&gt;Node5 -->
<g id="edge8_Node000007_Node000005" class="edge">
<title>Node7&#45;&gt;Node5</title>
<g id="a_edge8_Node000007_Node000005"><a xlink:title=" ">
<path fill="none" stroke="#63b8ff" d="M206.91,-261.3C196.41,-258.63 185.87,-255.59 176,-252.17 148.23,-242.56 118.24,-227.47 97.44,-216.2"/>
<polygon fill="#63b8ff" stroke="#63b8ff" points="206.4,-264.77 216.94,-263.74 208.05,-257.97 206.4,-264.77"/>
</a>
</g>
</g>
<!-- Node8&#45;&gt;Node5 -->
<g id="edge10_Node000008_Node000005" class="edge">
<title>Node8&#45;&gt;Node5</title>
<g id="a_edge10_Node000008_Node000005"><a xlink:title=" ">
<path fill="none" stroke="#63b8ff" d="M191.78,-216.34C174.4,-214.16 156.54,-211.92 140.07,-209.85"/>
<polygon fill="#63b8ff" stroke="#63b8ff" points="191.59,-219.85 201.95,-217.62 192.47,-212.9 191.59,-219.85"/>
</a>
</g>
</g>
<!-- Node9&#45;&gt;Node5 -->
<g id="edge12_Node000009_Node000005" class="edge">
<title>Node9&#45;&gt;Node5</title>
<g id="a_edge12_Node000009_Node000005"><a xlink:title=" ">
<path fill="none" stroke="#63b8ff" d="M192.08,-185.97C174.67,-188.16 156.77,-190.4 140.26,-192.48"/>
<polygon fill="#63b8ff" stroke="#63b8ff" points="192.77,-189.41 202.26,-184.69 191.9,-182.46 192.77,-189.41"/>
</a>
</g>
</g>
<!-- Node10&#45;&gt;Node5 -->
<g id="edge14_Node000010_Node000005" class="edge">
<title>Node10&#45;&gt;Node5</title>
<g id="a_edge14_Node000010_Node000005"><a xlink:title=" ">
<path fill="none" stroke="#63b8ff" d="M197.86,-137.99C190.39,-140.17 183.02,-142.56 176,-145.17 146.77,-156.07 115.49,-173.59 94.75,-186.14"/>
<polygon fill="#63b8ff" stroke="#63b8ff" points="199.02,-141.3 207.72,-135.25 197.14,-134.56 199.02,-141.3"/>
</a>
</g>
</g>
<!-- Node11&#45;&gt;Node5 -->
<g id="edge16_Node000011_Node000005" class="edge">
<title>Node11&#45;&gt;Node5</title>
<g id="a_edge16_Node000011_Node000005"><a xlink:title=" ">
<path fill="none" stroke="#63b8ff" d="M186.78,-90.92C183.08,-92.53 179.47,-94.28 176,-96.17 134.6,-118.8 98.73,-162.73 81.65,-185.95"/>
<polygon fill="#63b8ff" stroke="#63b8ff" points="188.16,-94.14 196.16,-87.2 185.58,-87.64 188.16,-94.14"/>
</a>
</g>
</g>
<!-- Node12&#45;&gt;Node3 -->
<g id="edge18_Node000012_Node000003" class="edge">
<title>Node12&#45;&gt;Node3</title>
<g id="a_edge18_Node000012_Node000003"><a xlink:title=" ">
<path fill="none" stroke="#63b8ff" d="M647.42,-170.62C626.49,-175.71 603.82,-181.24 583.57,-186.17"/>
<polygon fill="#63b8ff" stroke="#63b8ff" points="648.32,-174 657.21,-168.23 646.66,-167.2 648.32,-174"/>
</a>
</g>
</g>
</g>
</svg>
