<?xml version="1.0" encoding="UTF-8" standalone="no"?>
<!DOCTYPE svg PUBLIC "-//W3C//DTD SVG 1.1//EN"
 "http://www.w3.org/Graphics/SVG/1.1/DTD/svg11.dtd">
<!-- Generated by graphviz version 2.43.0 (0)
 -->
<!-- Title: com.teragrep.cfe_16.service.HECServiceImpl.sendEvents Pages: 1 -->
<svg width="360pt" height="182pt"
 viewBox="0.00 0.00 360.00 182.00" xmlns="http://www.w3.org/2000/svg" xmlns:xlink="http://www.w3.org/1999/xlink">
<g id="graph0" class="graph" transform="scale(1 1) rotate(0) translate(4 178)">
<title>com.teragrep.cfe_16.service.HECServiceImpl.sendEvents</title>
<!-- Node1 -->
<g id="Node000001" class="node">
<title>Node1</title>
<g id="a_Node000001"><a xlink:title="Returns the JSON object as a response of given HTTP event request.">
<polygon fill="#999999" stroke="#666666" points="158,-102 0,-102 0,-72 158,-72 158,-102"/>
<text text-anchor="start" x="8" y="-90" font-family="Helvetica,sans-Serif" font-size="10.00">com.teragrep.cfe_16.service.</text>
<text text-anchor="middle" x="79" y="-79" font-family="Helvetica,sans-Serif" font-size="10.00">HECServiceImpl.sendEvents</text>
</a>
</g>
</g>
<!-- Node2 -->
<g id="Node000002" class="node">
<title>Node2</title>
<g id="a_Node000002"><a xlink:href="classcom_1_1teragrep_1_1cfe__16_1_1SessionManager.html#a10eb9f8a23f0280db1b6662352fb5022" target="_top" xlink:title="Returns an existing Session object based on authentication token.">
<polygon fill="white" stroke="#666666" points="352,-174 194,-174 194,-144 352,-144 352,-174"/>
<text text-anchor="start" x="202" y="-162" font-family="Helvetica,sans-Serif" font-size="10.00">com.teragrep.cfe_16.Session</text>
<text text-anchor="middle" x="273" y="-151" font-family="Helvetica,sans-Serif" font-size="10.00">Manager.getOrCreateSession</text>
</a>
</g>
</g>
<!-- Node1&#45;&gt;Node2 -->
<g id="edge1_Node000001_Node000002" class="edge">
<title>Node1&#45;&gt;Node2</title>
<g id="a_edge1_Node000001_Node000002"><a xlink:title=" ">
<path fill="none" stroke="#63b8ff" d="M113.57,-102.18C136.09,-112.1 166.55,-125.03 194,-135 199.46,-136.98 205.17,-138.95 210.91,-140.85"/>
<polygon fill="#63b8ff" stroke="#63b8ff" points="209.98,-144.22 220.57,-143.98 212.13,-137.56 209.98,-144.22"/>
</a>
</g>
</g>
<!-- Node3 -->
<g id="Node000003" class="node">
<title>Node3</title>
<g id="a_Node000003"><a xlink:href="classcom_1_1teragrep_1_1cfe__16_1_1TokenManager.html#a7f77170018e53e2f570fec2880081c31" target="_top" xlink:title=" ">
<polygon fill="white" stroke="#666666" points="351,-126 195,-126 195,-96 351,-96 351,-126"/>
<text text-anchor="start" x="203" y="-114" font-family="Helvetica,sans-Serif" font-size="10.00">com.teragrep.cfe_16.Token</text>
<text text-anchor="middle" x="273" y="-103" font-family="Helvetica,sans-Serif" font-size="10.00">Manager.getTokenFromBasic</text>
</a>
</g>
</g>
<!-- Node1&#45;&gt;Node3 -->
<g id="edge2_Node000001_Node000003" class="edge">
<title>Node1&#45;&gt;Node3</title>
<g id="a_edge2_Node000001_Node000003"><a xlink:title=" ">
<path fill="none" stroke="#63b8ff" d="M158.09,-96.76C166.92,-97.86 175.95,-98.99 184.89,-100.11"/>
<polygon fill="#63b8ff" stroke="#63b8ff" points="184.55,-103.6 194.91,-101.36 185.42,-96.65 184.55,-103.6"/>
</a>
</g>
</g>
<!-- Node4 -->
<g id="Node000004" class="node">
<title>Node4</title>
<g id="a_Node000004"><a xlink:href="classcom_1_1teragrep_1_1cfe__16_1_1TokenManager.html#a687bbb785ceb8eeb5b314e44d0136279" target="_top" xlink:title=" ">
<polygon fill="white" stroke="#666666" points="347,-78 199,-78 199,-48 347,-48 347,-78"/>
<text text-anchor="start" x="207" y="-66" font-family="Helvetica,sans-Serif" font-size="10.00">com.teragrep.cfe_16.Token</text>
<text text-anchor="middle" x="273" y="-55" font-family="Helvetica,sans-Serif" font-size="10.00">Manager.isTokenInBasic</text>
</a>
</g>
</g>
<!-- Node1&#45;&gt;Node4 -->
<g id="edge3_Node000001_Node000004" class="edge">
<title>Node1&#45;&gt;Node4</title>
<g id="a_edge3_Node000001_Node000004"><a xlink:title=" ">
<path fill="none" stroke="#63b8ff" d="M158.09,-77.24C168.22,-75.97 178.61,-74.67 188.82,-73.4"/>
<polygon fill="#63b8ff" stroke="#63b8ff" points="189.45,-76.85 198.93,-72.13 188.58,-69.9 189.45,-76.85"/>
</a>
</g>
</g>
<!-- Node5 -->
<g id="Node000005" class="node">
<title>Node5</title>
<g id="a_Node000005"><a xlink:href="classcom_1_1teragrep_1_1cfe__16_1_1TokenManager.html#a5d298916fc03c198d49fbf53205f88e8" target="_top" xlink:title=" ">
<polygon fill="white" stroke="#666666" points="347,-30 199,-30 199,0 347,0 347,-30"/>
<text text-anchor="start" x="207" y="-18" font-family="Helvetica,sans-Serif" font-size="10.00">com.teragrep.cfe_16.Token</text>
<text text-anchor="middle" x="273" y="-7" font-family="Helvetica,sans-Serif" font-size="10.00">Manager.tokenIsMissing</text>
</a>
</g>
</g>
<!-- Node1&#45;&gt;Node5 -->
<g id="edge4_Node000001_Node000005" class="edge">
<title>Node1&#45;&gt;Node5</title>
<g id="a_edge4_Node000001_Node000005"><a xlink:title=" ">
<path fill="none" stroke="#63b8ff" d="M113.57,-71.82C136.09,-61.9 166.55,-48.97 194,-39 199.46,-37.02 205.17,-35.05 210.91,-33.15"/>
<polygon fill="#63b8ff" stroke="#63b8ff" points="212.13,-36.44 220.57,-30.02 209.98,-29.78 212.13,-36.44"/>
</a>
</g>
</g>
</g>
</svg>
