<?xml version="1.0" encoding="UTF-8" standalone="no"?>
<!DOCTYPE svg PUBLIC "-//W3C//DTD SVG 1.1//EN"
 "http://www.w3.org/Graphics/SVG/1.1/DTD/svg11.dtd">
<!-- Generated by graphviz version 2.43.0 (0)
 -->
<!-- Title: com.teragrep.cfe_16.Acknowledgements.State.getCurrentAckValue Pages: 1 -->
<svg width="1027pt" height="209pt"
 viewBox="0.00 0.00 1027.00 209.00" xmlns="http://www.w3.org/2000/svg" xmlns:xlink="http://www.w3.org/1999/xlink">
<g id="graph0" class="graph" transform="scale(1 1) rotate(0) translate(4 205)">
<title>com.teragrep.cfe_16.Acknowledgements.State.getCurrentAckValue</title>
<!-- Node1 -->
<g id="Node000001" class="node">
<title>Node1</title>
<g id="a_Node000001"><a xlink:title=" ">
<polygon fill="#999999" stroke="#666666" points="1019,-102 800,-102 800,-72 1019,-72 1019,-102"/>
<text text-anchor="start" x="808" y="-90" font-family="Helvetica,sans-Serif" font-size="10.00">com.teragrep.cfe_16.Acknowledgements.</text>
<text text-anchor="middle" x="909.5" y="-79" font-family="Helvetica,sans-Serif" font-size="10.00">State.getCurrentAckValue</text>
</a>
</g>
</g>
<!-- Node2 -->
<g id="Node000002" class="node">
<title>Node2</title>
<g id="a_Node000002"><a xlink:href="classcom_1_1teragrep_1_1cfe__16_1_1Acknowledgements.html#a0a81fc7b69c7638df2b4e6fff3744514" target="_top" xlink:title="Returns the current Ack value for given token and channel.">
<polygon fill="white" stroke="#666666" points="747,-126 512,-126 512,-96 747,-96 747,-126"/>
<text text-anchor="start" x="520" y="-114" font-family="Helvetica,sans-Serif" font-size="10.00">com.teragrep.cfe_16.Acknowledgements.get</text>
<text text-anchor="middle" x="629.5" y="-103" font-family="Helvetica,sans-Serif" font-size="10.00">CurrentAckValue</text>
</a>
</g>
</g>
<!-- Node1&#45;&gt;Node2 -->
<g id="edge1_Node000001_Node000002" class="edge">
<title>Node1&#45;&gt;Node2</title>
<g id="a_edge1_Node000001_Node000002"><a xlink:title=" ">
<path fill="none" stroke="#63b8ff" d="M789.67,-97.26C775.66,-98.47 761.36,-99.7 747.37,-100.91"/>
<polygon fill="#63b8ff" stroke="#63b8ff" points="790.16,-100.73 799.82,-96.38 789.56,-93.76 790.16,-100.73"/>
</a>
</g>
</g>
<!-- Node8 -->
<g id="Node000008" class="node">
<title>Node8</title>
<g id="a_Node000008"><a xlink:href="classcom_1_1teragrep_1_1cfe__16_1_1Acknowledgements.html#a5307dc12a64ca957ae24430d09b372e1" target="_top" xlink:title=" ">
<polygon fill="white" stroke="#666666" points="764,-78 495,-78 495,-48 764,-48 764,-78"/>
<text text-anchor="start" x="503" y="-66" font-family="Helvetica,sans-Serif" font-size="10.00">com.teragrep.cfe_16.Acknowledgements.increment</text>
<text text-anchor="middle" x="629.5" y="-55" font-family="Helvetica,sans-Serif" font-size="10.00">AckValue</text>
</a>
</g>
</g>
<!-- Node1&#45;&gt;Node8 -->
<g id="edge7_Node000001_Node000008" class="edge">
<title>Node1&#45;&gt;Node8</title>
<g id="a_edge7_Node000001_Node000008"><a xlink:title=" ">
<path fill="none" stroke="#63b8ff" d="M789.59,-76.73C781.15,-76.01 772.61,-75.27 764.09,-74.53"/>
<polygon fill="#63b8ff" stroke="#63b8ff" points="789.56,-80.24 799.82,-77.62 790.16,-73.27 789.56,-80.24"/>
</a>
</g>
</g>
<!-- Node3 -->
<g id="Node000003" class="node">
<title>Node3</title>
<g id="a_Node000003"><a xlink:href="classcom_1_1teragrep_1_1cfe__16_1_1EventManager.html#a7b24737679da20559ee1da24b25eed93" target="_top" xlink:title=" ">
<polygon fill="white" stroke="#666666" points="420,-174 272,-174 272,-144 420,-144 420,-174"/>
<text text-anchor="start" x="280" y="-162" font-family="Helvetica,sans-Serif" font-size="10.00">com.teragrep.cfe_16.Event</text>
<text text-anchor="middle" x="346" y="-151" font-family="Helvetica,sans-Serif" font-size="10.00">Manager.convertData</text>
</a>
</g>
</g>
<!-- Node2&#45;&gt;Node3 -->
<g id="edge2_Node000002_Node000003" class="edge">
<title>Node2&#45;&gt;Node3</title>
<g id="a_edge2_Node000002_Node000003"><a xlink:title=" ">
<path fill="none" stroke="#63b8ff" d="M530.14,-127.77C494.05,-133.93 453.86,-140.78 420.34,-146.49"/>
<polygon fill="#63b8ff" stroke="#63b8ff" points="530.93,-131.19 540.2,-126.06 529.76,-124.29 530.93,-131.19"/>
</a>
</g>
</g>
<!-- Node6 -->
<g id="Node000006" class="node">
<title>Node6</title>
<g id="a_Node000006"><a xlink:href="classcom_1_1teragrep_1_1cfe__16_1_1it_1_1AcknowledgementsIT.html#a28a8273d6b136df113665a5032aa8ca3" target="_top" xlink:title=" ">
<polygon fill="white" stroke="#666666" points="459,-126 233,-126 233,-96 459,-96 459,-126"/>
<text text-anchor="start" x="241" y="-114" font-family="Helvetica,sans-Serif" font-size="10.00">com.teragrep.cfe_16.it.Acknowledgements</text>
<text text-anchor="middle" x="346" y="-103" font-family="Helvetica,sans-Serif" font-size="10.00">IT.getCurrentAckValueAndIncrementTest</text>
</a>
</g>
</g>
<!-- Node2&#45;&gt;Node6 -->
<g id="edge5_Node000002_Node000006" class="edge">
<title>Node2&#45;&gt;Node6</title>
<g id="a_edge5_Node000002_Node000006"><a xlink:title=" ">
<path fill="none" stroke="#63b8ff" d="M501.73,-111C487.61,-111 473.29,-111 459.37,-111"/>
<polygon fill="#63b8ff" stroke="#63b8ff" points="501.97,-114.5 511.97,-111 501.97,-107.5 501.97,-114.5"/>
</a>
</g>
</g>
<!-- Node7 -->
<g id="Node000007" class="node">
<title>Node7</title>
<g id="a_Node000007"><a xlink:href="classcom_1_1teragrep_1_1cfe__16_1_1it_1_1AcknowledgementsIT.html#afc4e73cfb46d7fbc19edc8d2c177e6bf" target="_top" xlink:title=" ">
<polygon fill="white" stroke="#666666" points="459,-78 233,-78 233,-48 459,-48 459,-78"/>
<text text-anchor="start" x="241" y="-66" font-family="Helvetica,sans-Serif" font-size="10.00">com.teragrep.cfe_16.it.Acknowledgements</text>
<text text-anchor="middle" x="346" y="-55" font-family="Helvetica,sans-Serif" font-size="10.00">IT.getCurrentAckValueTest</text>
</a>
</g>
</g>
<!-- Node2&#45;&gt;Node7 -->
<g id="edge6_Node000002_Node000007" class="edge">
<title>Node2&#45;&gt;Node7</title>
<g id="a_edge6_Node000002_Node000007"><a xlink:title=" ">
<path fill="none" stroke="#63b8ff" d="M530.25,-94.25C499.25,-88.96 465.22,-83.16 434.98,-78"/>
<polygon fill="#63b8ff" stroke="#63b8ff" points="529.76,-97.71 540.2,-95.94 530.93,-90.81 529.76,-97.71"/>
</a>
</g>
</g>
<!-- Node4 -->
<g id="Node000004" class="node">
<title>Node4</title>
<g id="a_Node000004"><a xlink:href="classcom_1_1teragrep_1_1cfe__16_1_1it_1_1ServiceAndEventManagerIT.html#a181af6902da37bde7ba1e56614540437" target="_top" xlink:title=" ">
<polygon fill="white" stroke="#666666" points="197,-201 0,-201 0,-171 197,-171 197,-201"/>
<text text-anchor="start" x="8" y="-189" font-family="Helvetica,sans-Serif" font-size="10.00">com.teragrep.cfe_16.it.Service</text>
<text text-anchor="middle" x="98.5" y="-178" font-family="Helvetica,sans-Serif" font-size="10.00">AndEventManagerIT.convertDataTest</text>
</a>
</g>
</g>
<!-- Node3&#45;&gt;Node4 -->
<g id="edge3_Node000003_Node000004" class="edge">
<title>Node3&#45;&gt;Node4</title>
<g id="a_edge3_Node000003_Node000004"><a xlink:title=" ">
<path fill="none" stroke="#63b8ff" d="M261.68,-168.16C241.03,-170.43 218.71,-172.89 197.43,-175.23"/>
<polygon fill="#63b8ff" stroke="#63b8ff" points="262.12,-171.64 271.67,-167.06 261.35,-164.68 262.12,-171.64"/>
</a>
</g>
</g>
<!-- Node5 -->
<g id="Node000005" class="node">
<title>Node5</title>
<g id="a_Node000005"><a xlink:href="classcom_1_1teragrep_1_1cfe__16_1_1it_1_1ServiceAndEventManagerIT.html#a5339949b5816661f5d3adaf45fa90319" target="_top" xlink:title=" ">
<polygon fill="white" stroke="#666666" points="196,-152.5 1,-152.5 1,-111.5 196,-111.5 196,-152.5"/>
<text text-anchor="start" x="9" y="-140.5" font-family="Helvetica,sans-Serif" font-size="10.00">com.teragrep.cfe_16.it.Service</text>
<text text-anchor="start" x="9" y="-129.5" font-family="Helvetica,sans-Serif" font-size="10.00">AndEventManagerIT.sendingMultiple</text>
<text text-anchor="middle" x="98.5" y="-118.5" font-family="Helvetica,sans-Serif" font-size="10.00">EventsTest</text>
</a>
</g>
</g>
<!-- Node3&#45;&gt;Node5 -->
<g id="edge4_Node000003_Node000005" class="edge">
<title>Node3&#45;&gt;Node5</title>
<g id="a_edge4_Node000003_Node000005"><a xlink:title=" ">
<path fill="none" stroke="#63b8ff" d="M261.5,-149.82C240.46,-147.5 217.7,-145 196.08,-142.62"/>
<polygon fill="#63b8ff" stroke="#63b8ff" points="261.35,-153.32 271.67,-150.94 262.12,-146.36 261.35,-153.32"/>
</a>
</g>
</g>
<!-- Node8&#45;&gt;Node3 -->
<g id="edge9_Node000008_Node000003" class="edge">
<title>Node8&#45;&gt;Node3</title>
<g id="a_edge9_Node000008_Node000003"><a xlink:title=" ">
<path fill="none" stroke="#63b8ff" d="M503.24,-82.37C500.42,-83.81 497.67,-85.35 495,-87 472.3,-101 481.46,-120.63 459,-135 447.36,-142.45 433.78,-147.62 420.18,-151.21"/>
<polygon fill="#63b8ff" stroke="#63b8ff" points="504.86,-85.48 512.46,-78.1 501.92,-79.13 504.86,-85.48"/>
</a>
</g>
</g>
<!-- Node8&#45;&gt;Node6 -->
<g id="edge10_Node000008_Node000006" class="edge">
<title>Node8&#45;&gt;Node6</title>
<g id="a_edge10_Node000008_Node000006"><a xlink:title=" ">
<path fill="none" stroke="#63b8ff" d="M530.25,-79.75C499.25,-85.04 465.22,-90.84 434.98,-96"/>
<polygon fill="#63b8ff" stroke="#63b8ff" points="530.93,-83.19 540.2,-78.06 529.76,-76.29 530.93,-83.19"/>
</a>
</g>
</g>
<!-- Node8&#45;&gt;Node7 -->
<g id="edge11_Node000008_Node000007" class="edge">
<title>Node8&#45;&gt;Node7</title>
<g id="a_edge11_Node000008_Node000007"><a xlink:title=" ">
<path fill="none" stroke="#63b8ff" d="M484.69,-63C476.12,-63 467.57,-63 459.15,-63"/>
<polygon fill="#63b8ff" stroke="#63b8ff" points="484.76,-66.5 494.76,-63 484.76,-59.5 484.76,-66.5"/>
</a>
</g>
</g>
<!-- Node9 -->
<g id="Node000009" class="node">
<title>Node9</title>
<g id="a_Node000009"><a xlink:href="classcom_1_1teragrep_1_1cfe__16_1_1it_1_1AcknowledgementsIT.html#ad7d230669d75e6c83a2d4364e6ce1a10" target="_top" xlink:title=" ">
<polygon fill="white" stroke="#666666" points="459,-30 233,-30 233,0 459,0 459,-30"/>
<text text-anchor="start" x="241" y="-18" font-family="Helvetica,sans-Serif" font-size="10.00">com.teragrep.cfe_16.it.Acknowledgements</text>
<text text-anchor="middle" x="346" y="-7" font-family="Helvetica,sans-Serif" font-size="10.00">IT.acknowledgeTest</text>
</a>
</g>
</g>
<!-- Node8&#45;&gt;Node9 -->
<g id="edge8_Node000008_Node000009" class="edge">
<title>Node8&#45;&gt;Node9</title>
<g id="a_edge8_Node000008_Node000009"><a xlink:title=" ">
<path fill="none" stroke="#63b8ff" d="M530.25,-46.25C499.25,-40.96 465.22,-35.16 434.98,-30"/>
<polygon fill="#63b8ff" stroke="#63b8ff" points="529.76,-49.71 540.2,-47.94 530.93,-42.81 529.76,-49.71"/>
</a>
</g>
</g>
</g>
</svg>
