<?xml version="1.0" encoding="UTF-8" standalone="no"?>
<!DOCTYPE svg PUBLIC "-//W3C//DTD SVG 1.1//EN"
 "http://www.w3.org/Graphics/SVG/1.1/DTD/svg11.dtd">
<!-- Generated by graphviz version 2.43.0 (0)
 -->
<!-- Title: com.teragrep.cfe_16.TokenManager.getTokenFromBasic Pages: 1 -->
<svg width="382pt" height="146pt"
 viewBox="0.00 0.00 382.00 146.00" xmlns="http://www.w3.org/2000/svg" xmlns:xlink="http://www.w3.org/1999/xlink">
<g id="graph0" class="graph" transform="scale(1 1) rotate(0) translate(4 142)">
<title>com.teragrep.cfe_16.TokenManager.getTokenFromBasic</title>
<!-- Node1 -->
<g id="Node000001" class="node">
<title>Node1</title>
<g id="a_Node000001"><a xlink:title=" ">
<polygon fill="#999999" stroke="#666666" points="374,-84 218,-84 218,-54 374,-54 374,-84"/>
<text text-anchor="start" x="226" y="-72" font-family="Helvetica,sans-Serif" font-size="10.00">com.teragrep.cfe_16.Token</text>
<text text-anchor="middle" x="296" y="-61" font-family="Helvetica,sans-Serif" font-size="10.00">Manager.getTokenFromBasic</text>
</a>
</g>
</g>
<!-- Node2 -->
<g id="Node000002" class="node">
<title>Node2</title>
<g id="a_Node000002"><a xlink:href="classcom_1_1teragrep_1_1cfe__16_1_1service_1_1HECServiceImpl.html#ab231e6e42ecf628579fb8404b452695e" target="_top" xlink:title=" ">
<polygon fill="white" stroke="#666666" points="170,-138 12,-138 12,-108 170,-108 170,-138"/>
<text text-anchor="start" x="20" y="-126" font-family="Helvetica,sans-Serif" font-size="10.00">com.teragrep.cfe_16.service.</text>
<text text-anchor="middle" x="91" y="-115" font-family="Helvetica,sans-Serif" font-size="10.00">HECServiceImpl.getAcks</text>
</a>
</g>
</g>
<!-- Node1&#45;&gt;Node2 -->
<g id="edge1_Node000001_Node000002" class="edge">
<title>Node1&#45;&gt;Node2</title>
<g id="a_edge1_Node000001_Node000002"><a xlink:title=" ">
<path fill="none" stroke="#63b8ff" d="M228.72,-86.63C202.84,-93.52 173.46,-101.33 148.6,-107.95"/>
<polygon fill="#63b8ff" stroke="#63b8ff" points="229.69,-90 238.45,-84.04 227.89,-83.23 229.69,-90"/>
</a>
</g>
</g>
<!-- Node3 -->
<g id="Node000003" class="node">
<title>Node3</title>
<g id="a_Node000003"><a xlink:href="classcom_1_1teragrep_1_1cfe__16_1_1TokenManagerTests.html#a38dbfb901d7438891b7ed2e4d94d8445" target="_top" xlink:title=" ">
<polygon fill="white" stroke="#666666" points="182,-89.5 0,-89.5 0,-48.5 182,-48.5 182,-89.5"/>
<text text-anchor="start" x="8" y="-77.5" font-family="Helvetica,sans-Serif" font-size="10.00">com.teragrep.cfe_16.Token</text>
<text text-anchor="start" x="8" y="-66.5" font-family="Helvetica,sans-Serif" font-size="10.00">ManagerTests.getTokenFromBasic</text>
<text text-anchor="middle" x="91" y="-55.5" font-family="Helvetica,sans-Serif" font-size="10.00">AuthTest</text>
</a>
</g>
</g>
<!-- Node1&#45;&gt;Node3 -->
<g id="edge2_Node000001_Node000003" class="edge">
<title>Node1&#45;&gt;Node3</title>
<g id="a_edge2_Node000001_Node000003"><a xlink:title=" ">
<path fill="none" stroke="#63b8ff" d="M207.75,-69C199.31,-69 190.73,-69 182.26,-69"/>
<polygon fill="#63b8ff" stroke="#63b8ff" points="207.96,-72.5 217.96,-69 207.96,-65.5 207.96,-72.5"/>
</a>
</g>
</g>
<!-- Node4 -->
<g id="Node000004" class="node">
<title>Node4</title>
<g id="a_Node000004"><a xlink:href="classcom_1_1teragrep_1_1cfe__16_1_1service_1_1HECServiceImpl.html#a20ffffd4e0b55fea04396fd562ccef0c" target="_top" xlink:title="Returns the JSON object as a response of given HTTP event request.">
<polygon fill="white" stroke="#666666" points="170,-30 12,-30 12,0 170,0 170,-30"/>
<text text-anchor="start" x="20" y="-18" font-family="Helvetica,sans-Serif" font-size="10.00">com.teragrep.cfe_16.service.</text>
<text text-anchor="middle" x="91" y="-7" font-family="Helvetica,sans-Serif" font-size="10.00">HECServiceImpl.sendEvents</text>
</a>
</g>
</g>
<!-- Node1&#45;&gt;Node4 -->
<g id="edge3_Node000001_Node000004" class="edge">
<title>Node1&#45;&gt;Node4</title>
<g id="a_edge3_Node000001_Node000004"><a xlink:title=" ">
<path fill="none" stroke="#63b8ff" d="M228.72,-51.37C202.84,-44.48 173.46,-36.67 148.6,-30.05"/>
<polygon fill="#63b8ff" stroke="#63b8ff" points="227.89,-54.77 238.45,-53.96 229.69,-48 227.89,-54.77"/>
</a>
</g>
</g>
</g>
</svg>
