<?xml version="1.0" encoding="UTF-8" standalone="no"?>
<!DOCTYPE svg PUBLIC "-//W3C//DTD SVG 1.1//EN"
 "http://www.w3.org/Graphics/SVG/1.1/DTD/svg11.dtd">
<!-- Generated by graphviz version 2.43.0 (0)
 -->
<!-- Title: com.teragrep.cfe_16.Acknowledgements.addAck Pages: 1 -->
<svg width="525pt" height="182pt"
 viewBox="0.00 0.00 525.00 182.00" xmlns="http://www.w3.org/2000/svg" xmlns:xlink="http://www.w3.org/1999/xlink">
<g id="graph0" class="graph" transform="scale(1 1) rotate(0) translate(4 178)">
<title>com.teragrep.cfe_16.Acknowledgements.addAck</title>
<!-- Node1 -->
<g id="Node000001" class="node">
<title>Node1</title>
<g id="a_Node000001"><a xlink:title="Adds a new Ack object for given channel.">
<polygon fill="#999999" stroke="#666666" points="517,-96.5 262,-96.5 262,-77.5 517,-77.5 517,-96.5"/>
<text text-anchor="middle" x="389.5" y="-84.5" font-family="Helvetica,sans-Serif" font-size="10.00">com.teragrep.cfe_16.Acknowledgements.addAck</text>
</a>
</g>
</g>
<!-- Node2 -->
<g id="Node000002" class="node">
<title>Node2</title>
<g id="a_Node000002"><a xlink:href="classcom_1_1teragrep_1_1cfe__16_1_1it_1_1AcknowledgementsIT.html#ad7d230669d75e6c83a2d4364e6ce1a10" target="_top" xlink:title=" ">
<polygon fill="white" stroke="#666666" points="226,-174 0,-174 0,-144 226,-144 226,-174"/>
<text text-anchor="start" x="8" y="-162" font-family="Helvetica,sans-Serif" font-size="10.00">com.teragrep.cfe_16.it.Acknowledgements</text>
<text text-anchor="middle" x="113" y="-151" font-family="Helvetica,sans-Serif" font-size="10.00">IT.acknowledgeTest</text>
</a>
</g>
</g>
<!-- Node1&#45;&gt;Node2 -->
<g id="edge1_Node000001_Node000002" class="edge">
<title>Node1&#45;&gt;Node2</title>
<g id="a_edge1_Node000001_Node000002"><a xlink:title=" ">
<path fill="none" stroke="#63b8ff" d="M349.08,-99.56C316.32,-109.78 268.37,-124.22 226,-135 213.76,-138.11 200.7,-141.16 187.99,-143.98"/>
<polygon fill="#63b8ff" stroke="#63b8ff" points="350.24,-102.86 358.74,-96.53 348.15,-96.18 350.24,-102.86"/>
</a>
</g>
</g>
<!-- Node3 -->
<g id="Node000003" class="node">
<title>Node3</title>
<g id="a_Node000003"><a xlink:href="classcom_1_1teragrep_1_1cfe__16_1_1it_1_1AcknowledgementsIT.html#a145cd25807c91ed7c62729cf106b5bbc" target="_top" xlink:title=" ">
<polygon fill="white" stroke="#666666" points="226,-126 0,-126 0,-96 226,-96 226,-126"/>
<text text-anchor="start" x="8" y="-114" font-family="Helvetica,sans-Serif" font-size="10.00">com.teragrep.cfe_16.it.Acknowledgements</text>
<text text-anchor="middle" x="113" y="-103" font-family="Helvetica,sans-Serif" font-size="10.00">IT.deleteAckTest</text>
</a>
</g>
</g>
<!-- Node1&#45;&gt;Node3 -->
<g id="edge2_Node000001_Node000003" class="edge">
<title>Node1&#45;&gt;Node3</title>
<g id="a_edge2_Node000001_Node000003"><a xlink:title=" ">
<path fill="none" stroke="#63b8ff" d="M269.29,-97.42C255.03,-98.67 240.51,-99.94 226.35,-101.18"/>
<polygon fill="#63b8ff" stroke="#63b8ff" points="269.96,-100.88 279.62,-96.52 269.35,-93.9 269.96,-100.88"/>
</a>
</g>
</g>
<!-- Node4 -->
<g id="Node000004" class="node">
<title>Node4</title>
<g id="a_Node000004"><a xlink:href="classcom_1_1teragrep_1_1cfe__16_1_1it_1_1AcknowledgementsIT.html#adf6b572a31548b5d7c7e9780f8f79bac" target="_top" xlink:title=" ">
<polygon fill="white" stroke="#666666" points="226,-78 0,-78 0,-48 226,-48 226,-78"/>
<text text-anchor="start" x="8" y="-66" font-family="Helvetica,sans-Serif" font-size="10.00">com.teragrep.cfe_16.it.Acknowledgements</text>
<text text-anchor="middle" x="113" y="-55" font-family="Helvetica,sans-Serif" font-size="10.00">IT.getRequestedAckStatusesTest</text>
</a>
</g>
</g>
<!-- Node1&#45;&gt;Node4 -->
<g id="edge3_Node000001_Node000004" class="edge">
<title>Node1&#45;&gt;Node4</title>
<g id="a_edge3_Node000001_Node000004"><a xlink:title=" ">
<path fill="none" stroke="#63b8ff" d="M269.29,-76.58C255.03,-75.33 240.51,-74.06 226.35,-72.82"/>
<polygon fill="#63b8ff" stroke="#63b8ff" points="269.35,-80.1 279.62,-77.48 269.96,-73.12 269.35,-80.1"/>
</a>
</g>
</g>
<!-- Node5 -->
<g id="Node000005" class="node">
<title>Node5</title>
<g id="a_Node000005"><a xlink:href="classcom_1_1teragrep_1_1cfe__16_1_1service_1_1HECServiceImpl.html#a9ed9a0d5772181625f00edce5a2c611d" target="_top" xlink:title="Returns the JSON object as a response of given HTTP event request.">
<polygon fill="white" stroke="#666666" points="192,-30 34,-30 34,0 192,0 192,-30"/>
<text text-anchor="start" x="42" y="-18" font-family="Helvetica,sans-Serif" font-size="10.00">com.teragrep.cfe_16.service.</text>
<text text-anchor="middle" x="113" y="-7" font-family="Helvetica,sans-Serif" font-size="10.00">HECServiceImpl.sendEvents</text>
</a>
</g>
</g>
<!-- Node1&#45;&gt;Node5 -->
<g id="edge4_Node000001_Node000005" class="edge">
<title>Node1&#45;&gt;Node5</title>
<g id="a_edge4_Node000001_Node000005"><a xlink:title=" ">
<path fill="none" stroke="#63b8ff" d="M349.08,-74.44C316.32,-64.22 268.37,-49.78 226,-39 213.76,-35.89 200.7,-32.84 187.99,-30.02"/>
<polygon fill="#63b8ff" stroke="#63b8ff" points="348.15,-77.82 358.74,-77.47 350.24,-71.14 348.15,-77.82"/>
</a>
</g>
</g>
</g>
</svg>
