<?xml version="1.0" encoding="UTF-8" standalone="no"?>
<!DOCTYPE svg PUBLIC "-//W3C//DTD SVG 1.1//EN"
 "http://www.w3.org/Graphics/SVG/1.1/DTD/svg11.dtd">
<!-- Generated by graphviz version 2.43.0 (0)
 -->
<!-- Title: com.teragrep.cfe_16.it.AcknowledgementsIT Pages: 1 -->
<svg width="254pt" height="160pt"
 viewBox="0.00 0.00 253.50 160.00" xmlns="http://www.w3.org/2000/svg" xmlns:xlink="http://www.w3.org/1999/xlink">
<g id="graph0" class="graph" transform="scale(1 1) rotate(0) translate(4 156)">
<title>com.teragrep.cfe_16.it.AcknowledgementsIT</title>
<!-- Node1 -->
<g id="Node000001" class="node">
<title>Node1</title>
<g id="a_Node000001"><a xlink:title=" ">
<polygon fill="#999999" stroke="#666666" points="235,-19 0,-19 0,0 235,0 235,-19"/>
<text text-anchor="middle" x="117.5" y="-7" font-family="Helvetica,sans-Serif" font-size="10.00">com.teragrep.cfe_16.it.AcknowledgementsIT</text>
</a>
</g>
</g>
<!-- Node2 -->
<g id="Node000002" class="node">
<title>Node2</title>
<g id="a_Node000002"><a xlink:href="classcom_1_1teragrep_1_1cfe__16_1_1Acknowledgements.html" target="_top" xlink:title=" ">
<polygon fill="white" stroke="#666666" points="225.5,-85 9.5,-85 9.5,-66 225.5,-66 225.5,-85"/>
<text text-anchor="middle" x="117.5" y="-73" font-family="Helvetica,sans-Serif" font-size="10.00">com.teragrep.cfe_16.Acknowledgements</text>
</a>
</g>
</g>
<!-- Node2&#45;&gt;Node1 -->
<g id="edge1_Node000001_Node000002" class="edge">
<title>Node2&#45;&gt;Node1</title>
<g id="a_edge1_Node000001_Node000002"><a xlink:title=" ">
<path fill="none" stroke="#9a32cd" stroke-dasharray="5,2" d="M117.5,-55.58C117.5,-43.63 117.5,-28.72 117.5,-19.41"/>
<polygon fill="#9a32cd" stroke="#9a32cd" points="114,-55.87 117.5,-65.87 121,-55.87 114,-55.87"/>
</a>
</g>
<text text-anchor="middle" x="167" y="-40" font-family="Helvetica,sans-Serif" font-size="10.00" fill="grey"> acknowledgements</text>
</g>
<!-- Node3 -->
<g id="Node000003" class="node">
<title>Node3</title>
<g id="a_Node000003"><a xlink:title=" ">
<polygon fill="white" stroke="#666666" points="89.5,-146.5 27.5,-146.5 27.5,-127.5 89.5,-127.5 89.5,-146.5"/>
<text text-anchor="middle" x="58.5" y="-134.5" font-family="Helvetica,sans-Serif" font-size="10.00">Runnable</text>
</a>
</g>
</g>
<!-- Node3&#45;&gt;Node2 -->
<g id="edge2_Node000002_Node000003" class="edge">
<title>Node3&#45;&gt;Node2</title>
<g id="a_edge2_Node000002_Node000003"><a xlink:title=" ">
<path fill="none" stroke="#63b8ff" d="M74.04,-120.32C85.25,-109.02 99.96,-94.19 109.06,-85.01"/>
<polygon fill="#63b8ff" stroke="#63b8ff" points="71.51,-117.91 66.95,-127.48 76.48,-122.84 71.51,-117.91"/>
</a>
</g>
</g>
<!-- Node4 -->
<g id="Node000004" class="node">
<title>Node4</title>
<g id="a_Node000004"><a xlink:href="interfacecom_1_1teragrep_1_1cfe__16_1_1LifeCycle.html" target="_top" xlink:title="An interface that own resources like threads for doing graceful shutdown.">
<polygon fill="white" stroke="#666666" points="245.5,-152 107.5,-152 107.5,-122 245.5,-122 245.5,-152"/>
<text text-anchor="start" x="115.5" y="-140" font-family="Helvetica,sans-Serif" font-size="10.00">com.teragrep.cfe_16.Life</text>
<text text-anchor="middle" x="176.5" y="-129" font-family="Helvetica,sans-Serif" font-size="10.00">Cycle</text>
</a>
</g>
</g>
<!-- Node4&#45;&gt;Node2 -->
<g id="edge3_Node000002_Node000004" class="edge">
<title>Node4&#45;&gt;Node2</title>
<g id="a_edge3_Node000002_Node000004"><a xlink:title=" ">
<path fill="none" stroke="#63b8ff" d="M155.18,-114.5C145.13,-104.36 133.69,-92.83 126.09,-85.16"/>
<polygon fill="#63b8ff" stroke="#63b8ff" points="152.99,-117.26 162.52,-121.9 157.96,-112.33 152.99,-117.26"/>
</a>
</g>
</g>
</g>
</svg>
