<?xml version="1.0" encoding="UTF-8" standalone="no"?>
<!DOCTYPE svg PUBLIC "-//W3C//DTD SVG 1.1//EN"
 "http://www.w3.org/Graphics/SVG/1.1/DTD/svg11.dtd">
<!-- Generated by graphviz version 2.43.0 (0)
 -->
<!-- Title: com.teragrep.cfe_16.Acknowledgements.State.getAckMap Pages: 1 -->
<svg width="1347pt" height="383pt"
 viewBox="0.00 0.00 1347.00 382.76" xmlns="http://www.w3.org/2000/svg" xmlns:xlink="http://www.w3.org/1999/xlink">
<g id="graph0" class="graph" transform="scale(1 1) rotate(0) translate(4 378.76)">
<title>com.teragrep.cfe_16.Acknowledgements.State.getAckMap</title>
<!-- Node1 -->
<g id="Node000001" class="node">
<title>Node1</title>
<g id="a_Node000001"><a xlink:title=" ">
<polygon fill="#999999" stroke="#666666" points="1339,-206.5 1120,-206.5 1120,-176.5 1339,-176.5 1339,-206.5"/>
<text text-anchor="start" x="1128" y="-194.5" font-family="Helvetica,sans-Serif" font-size="10.00">com.teragrep.cfe_16.Acknowledgements.</text>
<text text-anchor="middle" x="1229.5" y="-183.5" font-family="Helvetica,sans-Serif" font-size="10.00">State.getAckMap</text>
</a>
</g>
</g>
<!-- Node2 -->
<g id="Node000002" class="node">
<title>Node2</title>
<g id="a_Node000002"><a xlink:href="classcom_1_1teragrep_1_1cfe__16_1_1Acknowledgements.html#a8c6f0dff735fde04e0bc670136eb57d2" target="_top" xlink:title=" ">
<polygon fill="white" stroke="#666666" points="1084,-239 800,-239 800,-220 1084,-220 1084,-239"/>
<text text-anchor="middle" x="942" y="-227" font-family="Helvetica,sans-Serif" font-size="10.00">com.teragrep.cfe_16.Acknowledgements.acknowledge</text>
</a>
</g>
</g>
<!-- Node1&#45;&gt;Node2 -->
<g id="edge1_Node000001_Node000002" class="edge">
<title>Node1&#45;&gt;Node2</title>
<g id="a_edge1_Node000001_Node000002"><a xlink:title=" ">
<path fill="none" stroke="#63b8ff" d="M1109.8,-207.3C1077.53,-211.59 1043.57,-216.11 1014.78,-219.95"/>
<polygon fill="#63b8ff" stroke="#63b8ff" points="1110.3,-210.76 1119.75,-205.97 1109.38,-203.82 1110.3,-210.76"/>
</a>
</g>
</g>
<!-- Node8 -->
<g id="Node000008" class="node">
<title>Node8</title>
<g id="a_Node000008"><a xlink:href="classcom_1_1teragrep_1_1cfe__16_1_1Acknowledgements.html#a7a9570efce9732f5f674e9ea85017439" target="_top" xlink:title=" ">
<polygon fill="white" stroke="#666666" points="1063,-335.5 821,-335.5 821,-305.5 1063,-305.5 1063,-335.5"/>
<text text-anchor="start" x="829" y="-323.5" font-family="Helvetica,sans-Serif" font-size="10.00">com.teragrep.cfe_16.Acknowledgements.acks</text>
<text text-anchor="middle" x="942" y="-312.5" font-family="Helvetica,sans-Serif" font-size="10.00">Available</text>
</a>
</g>
</g>
<!-- Node1&#45;&gt;Node8 -->
<g id="edge7_Node000001_Node000008" class="edge">
<title>Node1&#45;&gt;Node8</title>
<g id="a_edge7_Node000001_Node000008"><a xlink:title=" ">
<path fill="none" stroke="#63b8ff" d="M1205.34,-213.66C1178.43,-238.05 1131.6,-276.46 1084,-296.5 1075.76,-299.97 1067.05,-302.94 1058.17,-305.48"/>
<polygon fill="#63b8ff" stroke="#63b8ff" points="1207.72,-216.22 1212.71,-206.87 1202.98,-211.07 1207.72,-216.22"/>
</a>
</g>
</g>
<!-- Node9 -->
<g id="Node000009" class="node">
<title>Node9</title>
<g id="a_Node000009"><a xlink:href="classcom_1_1teragrep_1_1cfe__16_1_1Acknowledgements.html#a5307dc12a64ca957ae24430d09b372e1" target="_top" xlink:title=" ">
<polygon fill="white" stroke="#666666" points="764,-335.5 495,-335.5 495,-305.5 764,-305.5 764,-335.5"/>
<text text-anchor="start" x="503" y="-323.5" font-family="Helvetica,sans-Serif" font-size="10.00">com.teragrep.cfe_16.Acknowledgements.increment</text>
<text text-anchor="middle" x="629.5" y="-312.5" font-family="Helvetica,sans-Serif" font-size="10.00">AckValue</text>
</a>
</g>
</g>
<!-- Node1&#45;&gt;Node9 -->
<g id="edge21_Node000001_Node000009" class="edge">
<title>Node1&#45;&gt;Node9</title>
<g id="a_edge21_Node000001_Node000009"><a xlink:title=" ">
<path fill="none" stroke="#63b8ff" d="M1214.81,-215.46C1192.69,-251.46 1145.29,-318.08 1084,-344.5 945.17,-404.34 759.88,-361.07 675.62,-335.58"/>
<polygon fill="#63b8ff" stroke="#63b8ff" points="1217.99,-216.97 1220.13,-206.6 1211.98,-213.37 1217.99,-216.97"/>
</a>
</g>
</g>
<!-- Node12 -->
<g id="Node000012" class="node">
<title>Node12</title>
<g id="a_Node000012"><a xlink:href="classcom_1_1teragrep_1_1cfe__16_1_1Acknowledgements.html#a225a9f18c21826dc1bbc4ce0a82550ed" target="_top" xlink:title=" ">
<polygon fill="white" stroke="#666666" points="1067,-67.5 817,-67.5 817,-37.5 1067,-37.5 1067,-67.5"/>
<text text-anchor="start" x="825" y="-55.5" font-family="Helvetica,sans-Serif" font-size="10.00">com.teragrep.cfe_16.Acknowledgements.delete</text>
<text text-anchor="middle" x="942" y="-44.5" font-family="Helvetica,sans-Serif" font-size="10.00">AckFromList</text>
</a>
</g>
</g>
<!-- Node1&#45;&gt;Node12 -->
<g id="edge13_Node000001_Node000012" class="edge">
<title>Node1&#45;&gt;Node12</title>
<g id="a_edge13_Node000001_Node000012"><a xlink:title=" ">
<path fill="none" stroke="#63b8ff" d="M1207.47,-168.91C1181.26,-142.26 1133.82,-98.77 1084,-76.5 1076.29,-73.05 1068.15,-70.1 1059.81,-67.57"/>
<polygon fill="#63b8ff" stroke="#63b8ff" points="1205.13,-171.52 1214.6,-176.27 1210.16,-166.65 1205.13,-171.52"/>
</a>
</g>
</g>
<!-- Node14 -->
<g id="Node000014" class="node">
<title>Node14</title>
<g id="a_Node000014"><a xlink:href="classcom_1_1teragrep_1_1cfe__16_1_1Acknowledgements.html#a524b6158e1c70b00480d167b944f14ad" target="_top" xlink:title="Returns the unmodifiable set of Acks for a channel.">
<polygon fill="white" stroke="#666666" points="1059.5,-163.5 824.5,-163.5 824.5,-133.5 1059.5,-133.5 1059.5,-163.5"/>
<text text-anchor="start" x="832.5" y="-151.5" font-family="Helvetica,sans-Serif" font-size="10.00">com.teragrep.cfe_16.Acknowledgements.get</text>
<text text-anchor="middle" x="942" y="-140.5" font-family="Helvetica,sans-Serif" font-size="10.00">AckList</text>
</a>
</g>
</g>
<!-- Node1&#45;&gt;Node14 -->
<g id="edge15_Node000001_Node000014" class="edge">
<title>Node1&#45;&gt;Node14</title>
<g id="a_edge15_Node000001_Node000014"><a xlink:title=" ">
<path fill="none" stroke="#63b8ff" d="M1118.44,-174.92C1093.55,-171.17 1067.24,-167.21 1042.8,-163.53"/>
<polygon fill="#63b8ff" stroke="#63b8ff" points="1118.24,-178.43 1128.65,-176.46 1119.28,-171.51 1118.24,-178.43"/>
</a>
</g>
</g>
<!-- Node15 -->
<g id="Node000015" class="node">
<title>Node15</title>
<g id="a_Node000015"><a xlink:href="classcom_1_1teragrep_1_1cfe__16_1_1Acknowledgements.html#a5287a2c95003a939f0314bc423d401cf" target="_top" xlink:title="Returns the size of the Ack set of given channel.">
<polygon fill="white" stroke="#666666" points="1059.5,-115.5 824.5,-115.5 824.5,-85.5 1059.5,-85.5 1059.5,-115.5"/>
<text text-anchor="start" x="832.5" y="-103.5" font-family="Helvetica,sans-Serif" font-size="10.00">com.teragrep.cfe_16.Acknowledgements.get</text>
<text text-anchor="middle" x="942" y="-92.5" font-family="Helvetica,sans-Serif" font-size="10.00">AckListSize</text>
</a>
</g>
</g>
<!-- Node1&#45;&gt;Node15 -->
<g id="edge17_Node000001_Node000015" class="edge">
<title>Node1&#45;&gt;Node15</title>
<g id="a_edge17_Node000001_Node000015"><a xlink:title=" ">
<path fill="none" stroke="#63b8ff" d="M1192.48,-171.52C1163.87,-156.47 1122.43,-136.45 1084,-124.5 1072.97,-121.07 1061.3,-118.1 1049.58,-115.53"/>
<polygon fill="#63b8ff" stroke="#63b8ff" points="1191.19,-174.8 1201.66,-176.41 1194.48,-168.62 1191.19,-174.8"/>
</a>
</g>
</g>
<!-- Node16 -->
<g id="Node000016" class="node">
<title>Node16</title>
<g id="a_Node000016"><a xlink:href="classcom_1_1teragrep_1_1cfe__16_1_1Acknowledgements.html#a991efdd07c7cbf8d24b5da93e342b55c" target="_top" xlink:title="Returns the Ack statuses of requested Ack id:s as a JSON node.">
<polygon fill="white" stroke="#666666" points="1059.5,-287.5 824.5,-287.5 824.5,-257.5 1059.5,-257.5 1059.5,-287.5"/>
<text text-anchor="start" x="832.5" y="-275.5" font-family="Helvetica,sans-Serif" font-size="10.00">com.teragrep.cfe_16.Acknowledgements.get</text>
<text text-anchor="middle" x="942" y="-264.5" font-family="Helvetica,sans-Serif" font-size="10.00">RequestedAckStatuses</text>
</a>
</g>
</g>
<!-- Node1&#45;&gt;Node16 -->
<g id="edge19_Node000001_Node000016" class="edge">
<title>Node1&#45;&gt;Node16</title>
<g id="a_edge19_Node000001_Node000016"><a xlink:title=" ">
<path fill="none" stroke="#63b8ff" d="M1186.03,-210.47C1157.63,-222.53 1119.15,-237.67 1084,-247.5 1070.59,-251.25 1056.3,-254.55 1042.16,-257.43"/>
<polygon fill="#63b8ff" stroke="#63b8ff" points="1187.45,-213.67 1195.26,-206.51 1184.69,-207.24 1187.45,-213.67"/>
</a>
</g>
</g>
<!-- Node17 -->
<g id="Node000017" class="node">
<title>Node17</title>
<g id="a_Node000017"><a xlink:href="classcom_1_1teragrep_1_1cfe__16_1_1Acknowledgements.html#a9544ac800392336cc3fa19b72234d014" target="_top" xlink:title="Checks if the Ack with a given id is acknowledged.">
<polygon fill="white" stroke="#666666" points="743,-163.5 516,-163.5 516,-133.5 743,-133.5 743,-163.5"/>
<text text-anchor="start" x="524" y="-151.5" font-family="Helvetica,sans-Serif" font-size="10.00">com.teragrep.cfe_16.Acknowledgements.is</text>
<text text-anchor="middle" x="629.5" y="-140.5" font-family="Helvetica,sans-Serif" font-size="10.00">AckAcknowledged</text>
</a>
</g>
</g>
<!-- Node1&#45;&gt;Node17 -->
<g id="edge22_Node000001_Node000017" class="edge">
<title>Node1&#45;&gt;Node17</title>
<g id="a_edge22_Node000001_Node000017"><a xlink:title=" ">
<path fill="none" stroke="#63b8ff" d="M1109.92,-189.31C1023.78,-186.97 904.49,-182.19 800,-172.5 775.59,-170.24 749.3,-166.94 724.89,-163.51"/>
<polygon fill="#63b8ff" stroke="#63b8ff" points="1109.91,-192.81 1120,-189.58 1110.09,-185.81 1109.91,-192.81"/>
</a>
</g>
</g>
<!-- Node18 -->
<g id="Node000018" class="node">
<title>Node18</title>
<g id="a_Node000018"><a xlink:href="classcom_1_1teragrep_1_1cfe__16_1_1Acknowledgements.html#a2d2acb3e9942fdb720439eaad8fa1f5c" target="_top" xlink:title=" ">
<polygon fill="white" stroke="#666666" points="1059.5,-19 824.5,-19 824.5,0 1059.5,0 1059.5,-19"/>
<text text-anchor="middle" x="942" y="-7" font-family="Helvetica,sans-Serif" font-size="10.00">com.teragrep.cfe_16.Acknowledgements.run</text>
</a>
</g>
</g>
<!-- Node1&#45;&gt;Node18 -->
<g id="edge24_Node000001_Node000018" class="edge">
<title>Node1&#45;&gt;Node18</title>
<g id="a_edge24_Node000001_Node000018"><a xlink:title=" ">
<path fill="none" stroke="#63b8ff" d="M1214.9,-167.32C1192.74,-130.46 1145.12,-61.08 1084,-28.5 1076.37,-24.43 1068.19,-21.12 1059.76,-18.44"/>
<polygon fill="#63b8ff" stroke="#63b8ff" points="1212.13,-169.52 1220.22,-176.37 1218.17,-165.98 1212.13,-169.52"/>
</a>
</g>
</g>
<!-- Node3 -->
<g id="Node000003" class="node">
<title>Node3</title>
<g id="a_Node000003"><a xlink:href="classcom_1_1teragrep_1_1cfe__16_1_1it_1_1AcknowledgementsIT.html#ad7d230669d75e6c83a2d4364e6ce1a10" target="_top" xlink:title=" ">
<polygon fill="white" stroke="#666666" points="459,-206.5 233,-206.5 233,-176.5 459,-176.5 459,-206.5"/>
<text text-anchor="start" x="241" y="-194.5" font-family="Helvetica,sans-Serif" font-size="10.00">com.teragrep.cfe_16.it.Acknowledgements</text>
<text text-anchor="middle" x="346" y="-183.5" font-family="Helvetica,sans-Serif" font-size="10.00">IT.acknowledgeTest</text>
</a>
</g>
</g>
<!-- Node2&#45;&gt;Node3 -->
<g id="edge2_Node000002_Node000003" class="edge">
<title>Node2&#45;&gt;Node3</title>
<g id="a_edge2_Node000002_Node000003"><a xlink:title=" ">
<path fill="none" stroke="#63b8ff" d="M789.68,-219.82C686.75,-213.24 552.8,-204.67 459.32,-198.69"/>
<polygon fill="#63b8ff" stroke="#63b8ff" points="789.65,-223.32 799.85,-220.47 790.1,-216.34 789.65,-223.32"/>
</a>
</g>
</g>
<!-- Node4 -->
<g id="Node000004" class="node">
<title>Node4</title>
<g id="a_Node000004"><a xlink:href="classcom_1_1teragrep_1_1cfe__16_1_1EventManager.html#a7b24737679da20559ee1da24b25eed93" target="_top" xlink:title=" ">
<polygon fill="white" stroke="#666666" points="420,-270.5 272,-270.5 272,-240.5 420,-240.5 420,-270.5"/>
<text text-anchor="start" x="280" y="-258.5" font-family="Helvetica,sans-Serif" font-size="10.00">com.teragrep.cfe_16.Event</text>
<text text-anchor="middle" x="346" y="-247.5" font-family="Helvetica,sans-Serif" font-size="10.00">Manager.convertData</text>
</a>
</g>
</g>
<!-- Node2&#45;&gt;Node4 -->
<g id="edge3_Node000002_Node000004" class="edge">
<title>Node2&#45;&gt;Node4</title>
<g id="a_edge3_Node000002_Node000004"><a xlink:title=" ">
<path fill="none" stroke="#63b8ff" d="M789.74,-235.77C703.39,-239.39 593.12,-244.09 495,-248.5 470.59,-249.6 443.91,-250.84 420.02,-251.98"/>
<polygon fill="#63b8ff" stroke="#63b8ff" points="790.04,-239.26 799.88,-235.34 789.75,-232.26 790.04,-239.26"/>
</a>
</g>
</g>
<!-- Node7 -->
<g id="Node000007" class="node">
<title>Node7</title>
<g id="a_Node000007"><a xlink:href="classcom_1_1teragrep_1_1cfe__16_1_1it_1_1AcknowledgementsIT.html#adf6b572a31548b5d7c7e9780f8f79bac" target="_top" xlink:title=" ">
<polygon fill="white" stroke="#666666" points="742.5,-287.5 516.5,-287.5 516.5,-257.5 742.5,-257.5 742.5,-287.5"/>
<text text-anchor="start" x="524.5" y="-275.5" font-family="Helvetica,sans-Serif" font-size="10.00">com.teragrep.cfe_16.it.Acknowledgements</text>
<text text-anchor="middle" x="629.5" y="-264.5" font-family="Helvetica,sans-Serif" font-size="10.00">IT.getRequestedAckStatusesTest</text>
</a>
</g>
</g>
<!-- Node2&#45;&gt;Node7 -->
<g id="edge6_Node000002_Node000007" class="edge">
<title>Node2&#45;&gt;Node7</title>
<g id="a_edge6_Node000002_Node000007"><a xlink:title=" ">
<path fill="none" stroke="#63b8ff" d="M859.55,-240.38C840.04,-243.01 819.27,-245.84 800,-248.5 779.24,-251.37 757.07,-254.48 735.82,-257.48"/>
<polygon fill="#63b8ff" stroke="#63b8ff" points="860.18,-243.83 869.62,-239.02 859.24,-236.89 860.18,-243.83"/>
</a>
</g>
</g>
<!-- Node5 -->
<g id="Node000005" class="node">
<title>Node5</title>
<g id="a_Node000005"><a xlink:href="classcom_1_1teragrep_1_1cfe__16_1_1it_1_1ServiceAndEventManagerIT.html#a181af6902da37bde7ba1e56614540437" target="_top" xlink:title=" ">
<polygon fill="white" stroke="#666666" points="197,-297.5 0,-297.5 0,-267.5 197,-267.5 197,-297.5"/>
<text text-anchor="start" x="8" y="-285.5" font-family="Helvetica,sans-Serif" font-size="10.00">com.teragrep.cfe_16.it.Service</text>
<text text-anchor="middle" x="98.5" y="-274.5" font-family="Helvetica,sans-Serif" font-size="10.00">AndEventManagerIT.convertDataTest</text>
</a>
</g>
</g>
<!-- Node4&#45;&gt;Node5 -->
<g id="edge4_Node000004_Node000005" class="edge">
<title>Node4&#45;&gt;Node5</title>
<g id="a_edge4_Node000004_Node000005"><a xlink:title=" ">
<path fill="none" stroke="#63b8ff" d="M261.68,-264.66C241.03,-266.93 218.71,-269.39 197.43,-271.73"/>
<polygon fill="#63b8ff" stroke="#63b8ff" points="262.12,-268.14 271.67,-263.56 261.35,-261.18 262.12,-268.14"/>
</a>
</g>
</g>
<!-- Node6 -->
<g id="Node000006" class="node">
<title>Node6</title>
<g id="a_Node000006"><a xlink:href="classcom_1_1teragrep_1_1cfe__16_1_1it_1_1ServiceAndEventManagerIT.html#a5339949b5816661f5d3adaf45fa90319" target="_top" xlink:title=" ">
<polygon fill="white" stroke="#666666" points="196,-249 1,-249 1,-208 196,-208 196,-249"/>
<text text-anchor="start" x="9" y="-237" font-family="Helvetica,sans-Serif" font-size="10.00">com.teragrep.cfe_16.it.Service</text>
<text text-anchor="start" x="9" y="-226" font-family="Helvetica,sans-Serif" font-size="10.00">AndEventManagerIT.sendingMultiple</text>
<text text-anchor="middle" x="98.5" y="-215" font-family="Helvetica,sans-Serif" font-size="10.00">EventsTest</text>
</a>
</g>
</g>
<!-- Node4&#45;&gt;Node6 -->
<g id="edge5_Node000004_Node000006" class="edge">
<title>Node4&#45;&gt;Node6</title>
<g id="a_edge5_Node000004_Node000006"><a xlink:title=" ">
<path fill="none" stroke="#63b8ff" d="M261.5,-246.32C240.46,-244 217.7,-241.5 196.08,-239.12"/>
<polygon fill="#63b8ff" stroke="#63b8ff" points="261.35,-249.82 271.67,-247.44 262.12,-242.86 261.35,-249.82"/>
</a>
</g>
</g>
<!-- Node8&#45;&gt;Node9 -->
<g id="edge8_Node000008_Node000009" class="edge">
<title>Node8&#45;&gt;Node9</title>
<g id="a_edge8_Node000008_Node000009"><a xlink:title=" ">
<path fill="none" stroke="#63b8ff" d="M810.86,-320.5C795.42,-320.5 779.65,-320.5 764.16,-320.5"/>
<polygon fill="#63b8ff" stroke="#63b8ff" points="810.95,-324 820.95,-320.5 810.95,-317 810.95,-324"/>
</a>
</g>
</g>
<!-- Node9&#45;&gt;Node3 -->
<g id="edge9_Node000009_Node000003" class="edge">
<title>Node9&#45;&gt;Node3</title>
<g id="a_edge9_Node000009_Node000003"><a xlink:title=" ">
<path fill="none" stroke="#63b8ff" d="M500.87,-300.39C498.86,-299.16 496.91,-297.86 495,-296.5 468.15,-277.27 484.17,-252.88 459,-231.5 446.02,-220.47 429.77,-212.4 413.71,-206.52"/>
<polygon fill="#63b8ff" stroke="#63b8ff" points="499.49,-303.62 509.94,-305.36 502.85,-297.48 499.49,-303.62"/>
</a>
</g>
</g>
<!-- Node9&#45;&gt;Node4 -->
<g id="edge10_Node000009_Node000004" class="edge">
<title>Node9&#45;&gt;Node4</title>
<g id="a_edge10_Node000009_Node000004"><a xlink:title=" ">
<path fill="none" stroke="#63b8ff" d="M528.55,-303.57C517.21,-301.34 505.83,-298.97 495,-296.5 476.8,-292.35 434.25,-280.48 399.42,-270.57"/>
<polygon fill="#63b8ff" stroke="#63b8ff" points="528.02,-307.03 538.51,-305.49 529.35,-300.16 528.02,-307.03"/>
</a>
</g>
</g>
<!-- Node10 -->
<g id="Node000010" class="node">
<title>Node10</title>
<g id="a_Node000010"><a xlink:href="classcom_1_1teragrep_1_1cfe__16_1_1it_1_1AcknowledgementsIT.html#a28a8273d6b136df113665a5032aa8ca3" target="_top" xlink:title=" ">
<polygon fill="white" stroke="#666666" points="459,-326.5 233,-326.5 233,-296.5 459,-296.5 459,-326.5"/>
<text text-anchor="start" x="241" y="-314.5" font-family="Helvetica,sans-Serif" font-size="10.00">com.teragrep.cfe_16.it.Acknowledgements</text>
<text text-anchor="middle" x="346" y="-303.5" font-family="Helvetica,sans-Serif" font-size="10.00">IT.getCurrentAckValueAndIncrementTest</text>
</a>
</g>
</g>
<!-- Node9&#45;&gt;Node10 -->
<g id="edge11_Node000009_Node000010" class="edge">
<title>Node9&#45;&gt;Node10</title>
<g id="a_edge11_Node000009_Node000010"><a xlink:title=" ">
<path fill="none" stroke="#63b8ff" d="M484.69,-315.9C476.12,-315.63 467.57,-315.35 459.15,-315.09"/>
<polygon fill="#63b8ff" stroke="#63b8ff" points="484.65,-319.4 494.76,-316.22 484.87,-312.41 484.65,-319.4"/>
</a>
</g>
</g>
<!-- Node11 -->
<g id="Node000011" class="node">
<title>Node11</title>
<g id="a_Node000011"><a xlink:href="classcom_1_1teragrep_1_1cfe__16_1_1it_1_1AcknowledgementsIT.html#afc4e73cfb46d7fbc19edc8d2c177e6bf" target="_top" xlink:title=" ">
<polygon fill="white" stroke="#666666" points="459,-374.5 233,-374.5 233,-344.5 459,-344.5 459,-374.5"/>
<text text-anchor="start" x="241" y="-362.5" font-family="Helvetica,sans-Serif" font-size="10.00">com.teragrep.cfe_16.it.Acknowledgements</text>
<text text-anchor="middle" x="346" y="-351.5" font-family="Helvetica,sans-Serif" font-size="10.00">IT.getCurrentAckValueTest</text>
</a>
</g>
</g>
<!-- Node9&#45;&gt;Node11 -->
<g id="edge12_Node000009_Node000011" class="edge">
<title>Node9&#45;&gt;Node11</title>
<g id="a_edge12_Node000009_Node000011"><a xlink:title=" ">
<path fill="none" stroke="#63b8ff" d="M510.05,-336.91C491.92,-339.42 473.28,-342 455.38,-344.49"/>
<polygon fill="#63b8ff" stroke="#63b8ff" points="510.64,-340.36 520.07,-335.52 509.68,-333.43 510.64,-340.36"/>
</a>
</g>
</g>
<!-- Node13 -->
<g id="Node000013" class="node">
<title>Node13</title>
<g id="a_Node000013"><a xlink:href="classcom_1_1teragrep_1_1cfe__16_1_1it_1_1AcknowledgementsIT.html#a145cd25807c91ed7c62729cf106b5bbc" target="_top" xlink:title=" ">
<polygon fill="white" stroke="#666666" points="742.5,-115.5 516.5,-115.5 516.5,-85.5 742.5,-85.5 742.5,-115.5"/>
<text text-anchor="start" x="524.5" y="-103.5" font-family="Helvetica,sans-Serif" font-size="10.00">com.teragrep.cfe_16.it.Acknowledgements</text>
<text text-anchor="middle" x="629.5" y="-92.5" font-family="Helvetica,sans-Serif" font-size="10.00">IT.deleteAckTest</text>
</a>
</g>
</g>
<!-- Node12&#45;&gt;Node13 -->
<g id="edge14_Node000012_Node000013" class="edge">
<title>Node12&#45;&gt;Node13</title>
<g id="a_edge14_Node000012_Node000013"><a xlink:title=" ">
<path fill="none" stroke="#63b8ff" d="M833.52,-69.12C799.09,-74.44 761.19,-80.3 727.55,-85.5"/>
<polygon fill="#63b8ff" stroke="#63b8ff" points="834.26,-72.54 843.61,-67.56 833.19,-65.62 834.26,-72.54"/>
</a>
</g>
</g>
<!-- Node14&#45;&gt;Node13 -->
<g id="edge16_Node000014_Node000013" class="edge">
<title>Node14&#45;&gt;Node13</title>
<g id="a_edge16_Node000014_Node000013"><a xlink:title=" ">
<path fill="none" stroke="#63b8ff" d="M833.52,-131.88C799.09,-126.56 761.19,-120.7 727.55,-115.5"/>
<polygon fill="#63b8ff" stroke="#63b8ff" points="833.19,-135.38 843.61,-133.44 834.26,-128.46 833.19,-135.38"/>
</a>
</g>
</g>
<!-- Node15&#45;&gt;Node13 -->
<g id="edge18_Node000015_Node000013" class="edge">
<title>Node15&#45;&gt;Node13</title>
<g id="a_edge18_Node000015_Node000013"><a xlink:title=" ">
<path fill="none" stroke="#63b8ff" d="M814.36,-100.5C790.56,-100.5 765.83,-100.5 742.51,-100.5"/>
<polygon fill="#63b8ff" stroke="#63b8ff" points="814.5,-104 824.5,-100.5 814.5,-97 814.5,-104"/>
</a>
</g>
</g>
<!-- Node16&#45;&gt;Node7 -->
<g id="edge20_Node000016_Node000007" class="edge">
<title>Node16&#45;&gt;Node7</title>
<g id="a_edge20_Node000016_Node000007"><a xlink:title=" ">
<path fill="none" stroke="#63b8ff" d="M814.36,-272.5C790.56,-272.5 765.83,-272.5 742.51,-272.5"/>
<polygon fill="#63b8ff" stroke="#63b8ff" points="814.5,-276 824.5,-272.5 814.5,-269 814.5,-276"/>
</a>
</g>
</g>
<!-- Node17&#45;&gt;Node3 -->
<g id="edge23_Node000017_Node000003" class="edge">
<title>Node17&#45;&gt;Node3</title>
<g id="a_edge23_Node000017_Node000003"><a xlink:title=" ">
<path fill="none" stroke="#63b8ff" d="M519.99,-165.08C495.44,-168.83 469.5,-172.79 445.4,-176.47"/>
<polygon fill="#63b8ff" stroke="#63b8ff" points="520.69,-168.51 530.04,-163.54 519.63,-161.59 520.69,-168.51"/>
</a>
</g>
</g>
</g>
</svg>
