<?xml version="1.0" encoding="UTF-8" standalone="no"?>
<!DOCTYPE svg PUBLIC "-//W3C//DTD SVG 1.1//EN"
 "http://www.w3.org/Graphics/SVG/1.1/DTD/svg11.dtd">
<!-- Generated by graphviz version 2.43.0 (0)
 -->
<!-- Title: com.teragrep.cfe_16.it.ServiceAndEventManagerIT.convertDataTest Pages: 1 -->
<svg width="1242pt" height="567pt"
 viewBox="0.00 0.00 1242.00 567.26" xmlns="http://www.w3.org/2000/svg" xmlns:xlink="http://www.w3.org/1999/xlink">
<g id="graph0" class="graph" transform="scale(1 1) rotate(0) translate(4 563.26)">
<title>com.teragrep.cfe_16.it.ServiceAndEventManagerIT.convertDataTest</title>
<!-- Node1 -->
<g id="Node000001" class="node">
<title>Node1</title>
<g id="a_Node000001"><a xlink:title=" ">
<polygon fill="#999999" stroke="#666666" points="197,-272 0,-272 0,-242 197,-242 197,-272"/>
<text text-anchor="start" x="8" y="-260" font-family="Helvetica,sans-Serif" font-size="10.00">com.teragrep.cfe_16.it.Service</text>
<text text-anchor="middle" x="98.5" y="-249" font-family="Helvetica,sans-Serif" font-size="10.00">AndEventManagerIT.convertDataTest</text>
</a>
</g>
</g>
<!-- Node2 -->
<g id="Node000002" class="node">
<title>Node2</title>
<g id="a_Node000002"><a xlink:href="classcom_1_1teragrep_1_1cfe__16_1_1EventManager.html#a7b24737679da20559ee1da24b25eed93" target="_top" xlink:title=" ">
<polygon fill="white" stroke="#666666" points="381,-272 233,-272 233,-242 381,-242 381,-272"/>
<text text-anchor="start" x="241" y="-260" font-family="Helvetica,sans-Serif" font-size="10.00">com.teragrep.cfe_16.Event</text>
<text text-anchor="middle" x="307" y="-249" font-family="Helvetica,sans-Serif" font-size="10.00">Manager.convertData</text>
</a>
</g>
</g>
<!-- Node1&#45;&gt;Node2 -->
<g id="edge1_Node000001_Node000002" class="edge">
<title>Node1&#45;&gt;Node2</title>
<g id="a_edge1_Node000001_Node000002"><a xlink:title=" ">
<path fill="none" stroke="#63b8ff" d="M197.01,-257C205.62,-257 214.28,-257 222.76,-257"/>
<polygon fill="#63b8ff" stroke="#63b8ff" points="222.99,-260.5 232.99,-257 222.99,-253.5 222.99,-260.5"/>
</a>
</g>
</g>
<!-- Node3 -->
<g id="Node000003" class="node">
<title>Node3</title>
<g id="a_Node000003"><a xlink:href="classcom_1_1teragrep_1_1cfe__16_1_1Acknowledgements.html#a8c6f0dff735fde04e0bc670136eb57d2" target="_top" xlink:title=" ">
<polygon fill="white" stroke="#666666" points="701,-537.5 417,-537.5 417,-518.5 701,-518.5 701,-537.5"/>
<text text-anchor="middle" x="559" y="-525.5" font-family="Helvetica,sans-Serif" font-size="10.00">com.teragrep.cfe_16.Acknowledgements.acknowledge</text>
</a>
</g>
</g>
<!-- Node2&#45;&gt;Node3 -->
<g id="edge2_Node000002_Node000003" class="edge">
<title>Node2&#45;&gt;Node3</title>
<g id="a_edge2_Node000002_Node000003"><a xlink:title=" ">
<path fill="none" stroke="#63b8ff" d="M310.82,-272.06C319.24,-312.71 347.98,-425.63 417,-485 434.08,-499.69 456.08,-509.36 477.6,-515.73"/>
<polygon fill="#63b8ff" stroke="#63b8ff" points="476.87,-519.16 487.44,-518.43 478.72,-512.41 476.87,-519.16"/>
</a>
</g>
</g>
<!-- Node5 -->
<g id="Node000005" class="node">
<title>Node5</title>
<g id="a_Node000005"><a xlink:href="classcom_1_1teragrep_1_1cfe__16_1_1Acknowledgements.html#a954c7b6f37e4bcd616879315307d85bb" target="_top" xlink:title="Adds a new Ack object for given channel.">
<polygon fill="white" stroke="#666666" points="686.5,-288.5 431.5,-288.5 431.5,-269.5 686.5,-269.5 686.5,-288.5"/>
<text text-anchor="middle" x="559" y="-276.5" font-family="Helvetica,sans-Serif" font-size="10.00">com.teragrep.cfe_16.Acknowledgements.addAck</text>
</a>
</g>
</g>
<!-- Node2&#45;&gt;Node5 -->
<g id="edge4_Node000002_Node000005" class="edge">
<title>Node2&#45;&gt;Node5</title>
<g id="a_edge4_Node000002_Node000005"><a xlink:title=" ">
<path fill="none" stroke="#63b8ff" d="M381.32,-263.45C399.68,-265.07 419.86,-266.84 439.8,-268.6"/>
<polygon fill="#63b8ff" stroke="#63b8ff" points="439.6,-272.09 449.87,-269.48 440.22,-265.12 439.6,-272.09"/>
</a>
</g>
</g>
<!-- Node6 -->
<g id="Node000006" class="node">
<title>Node6</title>
<g id="a_Node000006"><a xlink:href="classcom_1_1teragrep_1_1cfe__16_1_1EventManager.html#a952ab8d08a4ca2207f87d1aa04abce7a" target="_top" xlink:title=" ">
<polygon fill="white" stroke="#666666" points="633,-251 485,-251 485,-221 633,-221 633,-251"/>
<text text-anchor="start" x="493" y="-239" font-family="Helvetica,sans-Serif" font-size="10.00">com.teragrep.cfe_16.Event</text>
<text text-anchor="middle" x="559" y="-228" font-family="Helvetica,sans-Serif" font-size="10.00">Manager.assignMetaData</text>
</a>
</g>
</g>
<!-- Node2&#45;&gt;Node6 -->
<g id="edge5_Node000002_Node000006" class="edge">
<title>Node2&#45;&gt;Node6</title>
<g id="a_edge5_Node000002_Node000006"><a xlink:title=" ">
<path fill="none" stroke="#63b8ff" d="M381.32,-250.84C410.57,-248.38 444.41,-245.54 474.6,-243.01"/>
<polygon fill="#63b8ff" stroke="#63b8ff" points="475.01,-246.48 484.68,-242.16 474.42,-239.51 475.01,-246.48"/>
</a>
</g>
</g>
<!-- Node7 -->
<g id="Node000007" class="node">
<title>Node7</title>
<g id="a_Node000007"><a xlink:href="classcom_1_1teragrep_1_1cfe__16_1_1Acknowledgements.html#a0a81fc7b69c7638df2b4e6fff3744514" target="_top" xlink:title="Returns the current Ack value for given token and channel.">
<polygon fill="white" stroke="#666666" points="676.5,-476 441.5,-476 441.5,-446 676.5,-446 676.5,-476"/>
<text text-anchor="start" x="449.5" y="-464" font-family="Helvetica,sans-Serif" font-size="10.00">com.teragrep.cfe_16.Acknowledgements.get</text>
<text text-anchor="middle" x="559" y="-453" font-family="Helvetica,sans-Serif" font-size="10.00">CurrentAckValue</text>
</a>
</g>
</g>
<!-- Node2&#45;&gt;Node7 -->
<g id="edge6_Node000002_Node000007" class="edge">
<title>Node2&#45;&gt;Node7</title>
<g id="a_edge6_Node000002_Node000007"><a xlink:title=" ">
<path fill="none" stroke="#63b8ff" d="M325.14,-272.24C346.43,-291.06 383.96,-323.9 417,-351 455.67,-382.72 501.51,-418.08 530.18,-439.94"/>
<polygon fill="#63b8ff" stroke="#63b8ff" points="528.06,-442.73 538.14,-446 532.3,-437.16 528.06,-442.73"/>
</a>
</g>
</g>
<!-- Node10 -->
<g id="Node000010" class="node">
<title>Node10</title>
<g id="a_Node000010"><a xlink:href="classcom_1_1teragrep_1_1cfe__16_1_1Converter.html#a602a68046d2d394249793b6d74b62050" target="_top" xlink:title=" ">
<polygon fill="white" stroke="#666666" points="654,-198 464,-198 464,-168 654,-168 654,-198"/>
<text text-anchor="start" x="472" y="-186" font-family="Helvetica,sans-Serif" font-size="10.00">com.teragrep.cfe_16.Converter.http</text>
<text text-anchor="middle" x="559" y="-175" font-family="Helvetica,sans-Serif" font-size="10.00">ToSyslog</text>
</a>
</g>
</g>
<!-- Node2&#45;&gt;Node10 -->
<g id="edge9_Node000002_Node000010" class="edge">
<title>Node2&#45;&gt;Node10</title>
<g id="a_edge9_Node000002_Node000010"><a xlink:title=" ">
<path fill="none" stroke="#63b8ff" d="M339.85,-241.98C361.28,-232.34 390.38,-220.15 417,-212 431.41,-207.59 446.85,-203.64 462.04,-200.2"/>
<polygon fill="#63b8ff" stroke="#63b8ff" points="462.96,-203.58 471.97,-198 461.45,-196.74 462.96,-203.58"/>
</a>
</g>
</g>
<!-- Node14 -->
<g id="Node000014" class="node">
<title>Node14</title>
<g id="a_Node000014"><a xlink:href="classcom_1_1teragrep_1_1cfe__16_1_1Acknowledgements.html#a5307dc12a64ca957ae24430d09b372e1" target="_top" xlink:title=" ">
<polygon fill="white" stroke="#666666" points="693.5,-342 424.5,-342 424.5,-312 693.5,-312 693.5,-342"/>
<text text-anchor="start" x="432.5" y="-330" font-family="Helvetica,sans-Serif" font-size="10.00">com.teragrep.cfe_16.Acknowledgements.increment</text>
<text text-anchor="middle" x="559" y="-319" font-family="Helvetica,sans-Serif" font-size="10.00">AckValue</text>
</a>
</g>
</g>
<!-- Node2&#45;&gt;Node14 -->
<g id="edge13_Node000002_Node000014" class="edge">
<title>Node2&#45;&gt;Node14</title>
<g id="a_edge13_Node000002_Node000014"><a xlink:title=" ">
<path fill="none" stroke="#63b8ff" d="M343.85,-272.11C364.89,-280.57 392.14,-290.82 417,-298 432.11,-302.37 448.31,-306.34 464.16,-309.85"/>
<polygon fill="#63b8ff" stroke="#63b8ff" points="463.45,-313.27 473.97,-311.97 464.93,-306.43 463.45,-313.27"/>
</a>
</g>
</g>
<!-- Node19 -->
<g id="Node000019" class="node">
<title>Node19</title>
<g id="a_Node000019"><a xlink:href="classcom_1_1teragrep_1_1cfe__16_1_1Acknowledgements.html#a06622ee4fcccb291cf0c97cb55189d83" target="_top" xlink:title="This method has to be called first before calling any other Ack related methods.">
<polygon fill="white" stroke="#666666" points="689.5,-150 428.5,-150 428.5,-120 689.5,-120 689.5,-150"/>
<text text-anchor="start" x="436.5" y="-138" font-family="Helvetica,sans-Serif" font-size="10.00">com.teragrep.cfe_16.Acknowledgements.initialize</text>
<text text-anchor="middle" x="559" y="-127" font-family="Helvetica,sans-Serif" font-size="10.00">Context</text>
</a>
</g>
</g>
<!-- Node2&#45;&gt;Node19 -->
<g id="edge21_Node000002_Node000019" class="edge">
<title>Node2&#45;&gt;Node19</title>
<g id="a_edge21_Node000002_Node000019"><a xlink:title=" ">
<path fill="none" stroke="#63b8ff" d="M319.91,-241.86C338.22,-219.74 375.53,-179.05 417,-159 421.14,-157 425.41,-155.16 429.78,-153.48"/>
<polygon fill="#63b8ff" stroke="#63b8ff" points="431.24,-156.67 439.49,-150.02 428.89,-150.08 431.24,-156.67"/>
</a>
</g>
</g>
<!-- Node20 -->
<g id="Node000020" class="node">
<title>Node20</title>
<g id="a_Node000020"><a xlink:href="classcom_1_1teragrep_1_1cfe__16_1_1EventManager.html#ab74b6ead2721cbcf49f1ffbdafd3f4b6" target="_top" xlink:title=" ">
<polygon fill="white" stroke="#666666" points="633,-78 485,-78 485,-48 633,-48 633,-78"/>
<text text-anchor="start" x="493" y="-66" font-family="Helvetica,sans-Serif" font-size="10.00">com.teragrep.cfe_16.Event</text>
<text text-anchor="middle" x="559" y="-55" font-family="Helvetica,sans-Serif" font-size="10.00">Manager.verifyJsonData</text>
</a>
</g>
</g>
<!-- Node2&#45;&gt;Node20 -->
<g id="edge22_Node000002_Node000020" class="edge">
<title>Node2&#45;&gt;Node20</title>
<g id="a_edge22_Node000002_Node000020"><a xlink:title=" ">
<path fill="none" stroke="#63b8ff" d="M315.35,-241.81C330.36,-212.33 367.37,-147.09 417,-111 434.95,-97.94 456.72,-88.24 477.73,-81.12"/>
<polygon fill="#63b8ff" stroke="#63b8ff" points="478.87,-84.43 487.31,-78.03 476.72,-77.77 478.87,-84.43"/>
</a>
</g>
</g>
<!-- Node4 -->
<g id="Node000004" class="node">
<title>Node4</title>
<g id="a_Node000004"><a xlink:href="classcom_1_1teragrep_1_1cfe__16_1_1Acknowledgements_1_1State.html#ad9d95fec84a00a574b21981fc673f10a" target="_top" xlink:title=" ">
<polygon fill="white" stroke="#666666" points="1234,-433 1015,-433 1015,-403 1234,-403 1234,-433"/>
<text text-anchor="start" x="1023" y="-421" font-family="Helvetica,sans-Serif" font-size="10.00">com.teragrep.cfe_16.Acknowledgements.</text>
<text text-anchor="middle" x="1124.5" y="-410" font-family="Helvetica,sans-Serif" font-size="10.00">State.getAckMap</text>
</a>
</g>
</g>
<!-- Node3&#45;&gt;Node4 -->
<g id="edge3_Node000003_Node000004" class="edge">
<title>Node3&#45;&gt;Node4</title>
<g id="a_edge3_Node000003_Node000004"><a xlink:title=" ">
<path fill="none" stroke="#63b8ff" d="M601.35,-537.54C678.27,-553.35 847.48,-578.95 979,-533 1031.07,-514.81 1078.41,-469.14 1103.86,-441.14"/>
<polygon fill="#63b8ff" stroke="#63b8ff" points="1106.71,-443.2 1110.74,-433.4 1101.48,-438.55 1106.71,-443.2"/>
</a>
</g>
</g>
<!-- Node8 -->
<g id="Node000008" class="node">
<title>Node8</title>
<g id="a_Node000008"><a xlink:href="classcom_1_1teragrep_1_1cfe__16_1_1Acknowledgements_1_1State.html#aa1809213ec400ce2fccaff6cab3e244b" target="_top" xlink:title=" ">
<polygon fill="white" stroke="#666666" points="967.5,-476 748.5,-476 748.5,-446 967.5,-446 967.5,-476"/>
<text text-anchor="start" x="756.5" y="-464" font-family="Helvetica,sans-Serif" font-size="10.00">com.teragrep.cfe_16.Acknowledgements.</text>
<text text-anchor="middle" x="858" y="-453" font-family="Helvetica,sans-Serif" font-size="10.00">State.getCurrentAckValue</text>
</a>
</g>
</g>
<!-- Node7&#45;&gt;Node8 -->
<g id="edge7_Node000007_Node000008" class="edge">
<title>Node7&#45;&gt;Node8</title>
<g id="a_edge7_Node000007_Node000008"><a xlink:title=" ">
<path fill="none" stroke="#63b8ff" d="M676.53,-461C696.69,-461 717.67,-461 737.9,-461"/>
<polygon fill="#63b8ff" stroke="#63b8ff" points="738.08,-464.5 748.08,-461 738.08,-457.5 738.08,-464.5"/>
</a>
</g>
</g>
<!-- Node9 -->
<g id="Node000009" class="node">
<title>Node9</title>
<g id="a_Node000009"><a xlink:href="classcom_1_1teragrep_1_1cfe__16_1_1Acknowledgements.html#a0287e001c86209cd70554675e6dbf9eb" target="_top" xlink:title="A private Accessor for the State object indexed by the given auth token and channel.">
<polygon fill="white" stroke="#666666" points="975.5,-524 740.5,-524 740.5,-494 975.5,-494 975.5,-524"/>
<text text-anchor="start" x="748.5" y="-512" font-family="Helvetica,sans-Serif" font-size="10.00">com.teragrep.cfe_16.Acknowledgements.get</text>
<text text-anchor="middle" x="858" y="-501" font-family="Helvetica,sans-Serif" font-size="10.00">OrCreateState</text>
</a>
</g>
</g>
<!-- Node7&#45;&gt;Node9 -->
<g id="edge8_Node000007_Node000009" class="edge">
<title>Node7&#45;&gt;Node9</title>
<g id="a_edge8_Node000007_Node000009"><a xlink:title=" ">
<path fill="none" stroke="#63b8ff" d="M653.16,-476.06C685.23,-481.24 721.31,-487.07 754.11,-492.37"/>
<polygon fill="#63b8ff" stroke="#63b8ff" points="753.74,-495.86 764.17,-494 754.86,-488.95 753.74,-495.86"/>
</a>
</g>
</g>
<!-- Node11 -->
<g id="Node000011" class="node">
<title>Node11</title>
<g id="a_Node000011"><a xlink:href="classcom_1_1teragrep_1_1cfe__16_1_1Converter.html#ad3945e06829eabba7dec42281559bffb" target="_top" xlink:title=" ">
<polygon fill="white" stroke="#666666" points="950.5,-198 765.5,-198 765.5,-168 950.5,-168 950.5,-198"/>
<text text-anchor="start" x="773.5" y="-186" font-family="Helvetica,sans-Serif" font-size="10.00">com.teragrep.cfe_16.Converter.set</text>
<text text-anchor="middle" x="858" y="-175" font-family="Helvetica,sans-Serif" font-size="10.00">EventFacility</text>
</a>
</g>
</g>
<!-- Node10&#45;&gt;Node11 -->
<g id="edge10_Node000010_Node000011" class="edge">
<title>Node10&#45;&gt;Node11</title>
<g id="a_edge10_Node000010_Node000011"><a xlink:title=" ">
<path fill="none" stroke="#63b8ff" d="M654.38,-183C686.55,-183 722.65,-183 755.37,-183"/>
<polygon fill="#63b8ff" stroke="#63b8ff" points="755.4,-186.5 765.4,-183 755.4,-179.5 755.4,-186.5"/>
</a>
</g>
</g>
<!-- Node12 -->
<g id="Node000012" class="node">
<title>Node12</title>
<g id="a_Node000012"><a xlink:href="classcom_1_1teragrep_1_1cfe__16_1_1Converter.html#a99439ed8fa2f982deedfa6168ecbeba8" target="_top" xlink:title=" ">
<polygon fill="white" stroke="#666666" points="950.5,-150 765.5,-150 765.5,-120 950.5,-120 950.5,-150"/>
<text text-anchor="start" x="773.5" y="-138" font-family="Helvetica,sans-Serif" font-size="10.00">com.teragrep.cfe_16.Converter.set</text>
<text text-anchor="middle" x="858" y="-127" font-family="Helvetica,sans-Serif" font-size="10.00">EventSeverity</text>
</a>
</g>
</g>
<!-- Node10&#45;&gt;Node12 -->
<g id="edge11_Node000010_Node000012" class="edge">
<title>Node10&#45;&gt;Node12</title>
<g id="a_edge11_Node000010_Node000012"><a xlink:title=" ">
<path fill="none" stroke="#63b8ff" d="M653.16,-167.94C685.61,-162.7 722.18,-156.79 755.29,-151.44"/>
<polygon fill="#63b8ff" stroke="#63b8ff" points="756.13,-154.85 765.45,-149.8 755.02,-147.94 756.13,-154.85"/>
</a>
</g>
</g>
<!-- Node13 -->
<g id="Node000013" class="node">
<title>Node13</title>
<g id="a_Node000013"><a xlink:href="classcom_1_1teragrep_1_1cfe__16_1_1Converter.html#a18a7c850c23a15fd3ab357f011ec5866" target="_top" xlink:title=" ">
<polygon fill="white" stroke="#666666" points="950.5,-102 765.5,-102 765.5,-72 950.5,-72 950.5,-102"/>
<text text-anchor="start" x="773.5" y="-90" font-family="Helvetica,sans-Serif" font-size="10.00">com.teragrep.cfe_16.Converter.set</text>
<text text-anchor="middle" x="858" y="-79" font-family="Helvetica,sans-Serif" font-size="10.00">StructuredDataParams</text>
</a>
</g>
</g>
<!-- Node10&#45;&gt;Node13 -->
<g id="edge12_Node000010_Node000013" class="edge">
<title>Node10&#45;&gt;Node13</title>
<g id="a_edge12_Node000010_Node000013"><a xlink:title=" ">
<path fill="none" stroke="#63b8ff" d="M654.23,-177.16C670.62,-173.35 686.9,-167.6 701,-159 723.76,-145.11 714.44,-125.22 737,-111 742.86,-107.31 749.17,-104.17 755.72,-101.5"/>
<polygon fill="#63b8ff" stroke="#63b8ff" points="757.29,-104.65 765.47,-97.91 754.88,-98.08 757.29,-104.65"/>
</a>
</g>
</g>
<!-- Node14&#45;&gt;Node4 -->
<g id="edge16_Node000014_Node000004" class="edge">
<title>Node14&#45;&gt;Node4</title>
<g id="a_edge16_Node000014_Node000004"><a xlink:title=" ">
<path fill="none" stroke="#63b8ff" d="M588.47,-342.1C622.66,-359.39 682.26,-386.89 737,-399 825.2,-418.51 927.38,-422.77 1004.51,-422.41"/>
<polygon fill="#63b8ff" stroke="#63b8ff" points="1004.77,-425.91 1014.75,-422.34 1004.72,-418.91 1004.77,-425.91"/>
</a>
</g>
</g>
<!-- Node14&#45;&gt;Node8 -->
<g id="edge18_Node000014_Node000008" class="edge">
<title>Node14&#45;&gt;Node8</title>
<g id="a_edge18_Node000014_Node000008"><a xlink:title=" ">
<path fill="none" stroke="#63b8ff" d="M580.72,-342.11C612.71,-364.77 676.76,-407.5 737,-432 747.44,-436.25 758.66,-439.97 769.89,-443.21"/>
<polygon fill="#63b8ff" stroke="#63b8ff" points="769.17,-446.65 779.75,-445.93 771.04,-439.9 769.17,-446.65"/>
</a>
</g>
</g>
<!-- Node15 -->
<g id="Node000015" class="node">
<title>Node15</title>
<g id="a_Node000015"><a xlink:href="classcom_1_1teragrep_1_1cfe__16_1_1Acknowledgements.html#a7a9570efce9732f5f674e9ea85017439" target="_top" xlink:title=" ">
<polygon fill="white" stroke="#666666" points="979,-390 737,-390 737,-360 979,-360 979,-390"/>
<text text-anchor="start" x="745" y="-378" font-family="Helvetica,sans-Serif" font-size="10.00">com.teragrep.cfe_16.Acknowledgements.acks</text>
<text text-anchor="middle" x="858" y="-367" font-family="Helvetica,sans-Serif" font-size="10.00">Available</text>
</a>
</g>
</g>
<!-- Node14&#45;&gt;Node15 -->
<g id="edge14_Node000014_Node000015" class="edge">
<title>Node14&#45;&gt;Node15</title>
<g id="a_edge14_Node000014_Node000015"><a xlink:title=" ">
<path fill="none" stroke="#63b8ff" d="M653.16,-342.06C685.23,-347.24 721.31,-353.07 754.11,-358.37"/>
<polygon fill="#63b8ff" stroke="#63b8ff" points="753.74,-361.86 764.17,-360 754.86,-354.95 753.74,-361.86"/>
</a>
</g>
</g>
<!-- Node16 -->
<g id="Node000016" class="node">
<title>Node16</title>
<g id="a_Node000016"><a xlink:href="classcom_1_1teragrep_1_1cfe__16_1_1Acknowledgements_1_1State.html#a7d72966efb4505634712c4c64c96440c" target="_top" xlink:title=" ">
<polygon fill="white" stroke="#666666" points="967.5,-342 748.5,-342 748.5,-312 967.5,-312 967.5,-342"/>
<text text-anchor="start" x="756.5" y="-330" font-family="Helvetica,sans-Serif" font-size="10.00">com.teragrep.cfe_16.Acknowledgements.</text>
<text text-anchor="middle" x="858" y="-319" font-family="Helvetica,sans-Serif" font-size="10.00">State.getAckToCompare</text>
</a>
</g>
</g>
<!-- Node14&#45;&gt;Node16 -->
<g id="edge17_Node000014_Node000016" class="edge">
<title>Node14&#45;&gt;Node16</title>
<g id="a_edge17_Node000014_Node000016"><a xlink:title=" ">
<path fill="none" stroke="#63b8ff" d="M693.73,-327C708.62,-327 723.7,-327 738.38,-327"/>
<polygon fill="#63b8ff" stroke="#63b8ff" points="738.47,-330.5 748.47,-327 738.47,-323.5 738.47,-330.5"/>
</a>
</g>
</g>
<!-- Node17 -->
<g id="Node000017" class="node">
<title>Node17</title>
<g id="a_Node000017"><a xlink:href="classcom_1_1teragrep_1_1cfe__16_1_1Acknowledgements_1_1State.html#ab460c6226ddd97252506f01f11cf9f3d" target="_top" xlink:title=" ">
<polygon fill="white" stroke="#666666" points="967.5,-294 748.5,-294 748.5,-264 967.5,-264 967.5,-294"/>
<text text-anchor="start" x="756.5" y="-282" font-family="Helvetica,sans-Serif" font-size="10.00">com.teragrep.cfe_16.Acknowledgements.</text>
<text text-anchor="middle" x="858" y="-271" font-family="Helvetica,sans-Serif" font-size="10.00">State.setAckToCompare</text>
</a>
</g>
</g>
<!-- Node14&#45;&gt;Node17 -->
<g id="edge19_Node000014_Node000017" class="edge">
<title>Node14&#45;&gt;Node17</title>
<g id="a_edge19_Node000014_Node000017"><a xlink:title=" ">
<path fill="none" stroke="#63b8ff" d="M653.16,-311.94C685.23,-306.76 721.31,-300.93 754.11,-295.63"/>
<polygon fill="#63b8ff" stroke="#63b8ff" points="754.86,-299.05 764.17,-294 753.74,-292.14 754.86,-299.05"/>
</a>
</g>
</g>
<!-- Node18 -->
<g id="Node000018" class="node">
<title>Node18</title>
<g id="a_Node000018"><a xlink:href="classcom_1_1teragrep_1_1cfe__16_1_1Acknowledgements_1_1State.html#a2ce209b2faca53446cccd40bc4de2726" target="_top" xlink:title=" ">
<polygon fill="white" stroke="#666666" points="967.5,-246 748.5,-246 748.5,-216 967.5,-216 967.5,-246"/>
<text text-anchor="start" x="756.5" y="-234" font-family="Helvetica,sans-Serif" font-size="10.00">com.teragrep.cfe_16.Acknowledgements.</text>
<text text-anchor="middle" x="858" y="-223" font-family="Helvetica,sans-Serif" font-size="10.00">State.setCurrentAckValue</text>
</a>
</g>
</g>
<!-- Node14&#45;&gt;Node18 -->
<g id="edge20_Node000014_Node000018" class="edge">
<title>Node14&#45;&gt;Node18</title>
<g id="a_edge20_Node000014_Node000018"><a xlink:title=" ">
<path fill="none" stroke="#63b8ff" d="M670.15,-312C680.96,-308.3 691.45,-303.7 701,-298 722.4,-285.22 715.57,-267.72 737,-255 739.88,-253.29 742.86,-251.7 745.91,-250.23"/>
<polygon fill="#63b8ff" stroke="#63b8ff" points="747.53,-253.34 755.28,-246.12 744.72,-246.93 747.53,-253.34"/>
</a>
</g>
</g>
<!-- Node15&#45;&gt;Node4 -->
<g id="edge15_Node000015_Node000004" class="edge">
<title>Node15&#45;&gt;Node4</title>
<g id="a_edge15_Node000015_Node000004"><a xlink:title=" ">
<path fill="none" stroke="#63b8ff" d="M951.51,-390.04C973.96,-393.69 998.09,-397.61 1020.98,-401.33"/>
<polygon fill="#63b8ff" stroke="#63b8ff" points="1020.61,-404.82 1031.04,-402.97 1021.73,-397.91 1020.61,-404.82"/>
</a>
</g>
</g>
<!-- Node21 -->
<g id="Node000021" class="node">
<title>Node21</title>
<g id="a_Node000021"><a xlink:href="classcom_1_1teragrep_1_1cfe__16_1_1EventManager.html#a499862d588b74185c5a5cafcdc0c407e" target="_top" xlink:title=" ">
<polygon fill="white" stroke="#666666" points="932,-54 784,-54 784,-24 932,-24 932,-54"/>
<text text-anchor="start" x="792" y="-42" font-family="Helvetica,sans-Serif" font-size="10.00">com.teragrep.cfe_16.Event</text>
<text text-anchor="middle" x="858" y="-31" font-family="Helvetica,sans-Serif" font-size="10.00">Manager.handleTime</text>
</a>
</g>
</g>
<!-- Node20&#45;&gt;Node21 -->
<g id="edge23_Node000020_Node000021" class="edge">
<title>Node20&#45;&gt;Node21</title>
<g id="a_edge23_Node000020_Node000021"><a xlink:title=" ">
<path fill="none" stroke="#63b8ff" d="M633.03,-57.1C675.66,-53.65 729.58,-49.3 773.83,-45.72"/>
<polygon fill="#63b8ff" stroke="#63b8ff" points="774.3,-49.19 783.99,-44.9 773.74,-42.22 774.3,-49.19"/>
</a>
</g>
</g>
<!-- Node22 -->
<g id="Node000022" class="node">
<title>Node22</title>
<g id="a_Node000022"><a xlink:href="classcom_1_1teragrep_1_1cfe__16_1_1EventManager.html#a74cf4d32251dd8b36aee7d8b3578f62b" target="_top" xlink:title=" ">
<polygon fill="white" stroke="#666666" points="1219,-78 1030,-78 1030,-48 1219,-48 1219,-78"/>
<text text-anchor="start" x="1038" y="-66" font-family="Helvetica,sans-Serif" font-size="10.00">com.teragrep.cfe_16.Event</text>
<text text-anchor="middle" x="1124.5" y="-55" font-family="Helvetica,sans-Serif" font-size="10.00">Manager.convertTimeToEpochMillis</text>
</a>
</g>
</g>
<!-- Node21&#45;&gt;Node22 -->
<g id="edge24_Node000021_Node000022" class="edge">
<title>Node21&#45;&gt;Node22</title>
<g id="a_edge24_Node000021_Node000022"><a xlink:title=" ">
<path fill="none" stroke="#63b8ff" d="M932.33,-45.65C959.27,-48.1 990.31,-50.91 1019.44,-53.56"/>
<polygon fill="#63b8ff" stroke="#63b8ff" points="1019.38,-57.07 1029.65,-54.48 1020.01,-50.1 1019.38,-57.07"/>
</a>
</g>
</g>
<!-- Node23 -->
<g id="Node000023" class="node">
<title>Node23</title>
<g id="a_Node000023"><a xlink:href="classcom_1_1teragrep_1_1cfe__16_1_1EventManager.html#a159ac4f3aa69ac663e34efa51c9147d6" target="_top" xlink:title=" ">
<polygon fill="white" stroke="#666666" points="1198.5,-30 1050.5,-30 1050.5,0 1198.5,0 1198.5,-30"/>
<text text-anchor="start" x="1058.5" y="-18" font-family="Helvetica,sans-Serif" font-size="10.00">com.teragrep.cfe_16.Event</text>
<text text-anchor="middle" x="1124.5" y="-7" font-family="Helvetica,sans-Serif" font-size="10.00">Manager.removeDecimal</text>
</a>
</g>
</g>
<!-- Node21&#45;&gt;Node23 -->
<g id="edge25_Node000021_Node000023" class="edge">
<title>Node21&#45;&gt;Node23</title>
<g id="a_edge25_Node000021_Node000023"><a xlink:title=" ">
<path fill="none" stroke="#63b8ff" d="M932.33,-32.35C965.86,-29.3 1005.75,-25.68 1040.39,-22.54"/>
<polygon fill="#63b8ff" stroke="#63b8ff" points="1040.85,-26.01 1050.49,-21.62 1040.21,-19.04 1040.85,-26.01"/>
</a>
</g>
</g>
</g>
</svg>
