<?xml version="1.0" encoding="UTF-8" standalone="no"?>
<!DOCTYPE svg PUBLIC "-//W3C//DTD SVG 1.1//EN"
 "http://www.w3.org/Graphics/SVG/1.1/DTD/svg11.dtd">
<!-- Generated by graphviz version 2.43.0 (0)
 -->
<!-- Title: com.teragrep.cfe_16.EventManager.convertData Pages: 1 -->
<svg width="1009pt" height="567pt"
 viewBox="0.00 0.00 1009.00 567.26" xmlns="http://www.w3.org/2000/svg" xmlns:xlink="http://www.w3.org/1999/xlink">
<g id="graph0" class="graph" transform="scale(1 1) rotate(0) translate(4 563.26)">
<title>com.teragrep.cfe_16.EventManager.convertData</title>
<!-- Node1 -->
<g id="Node000001" class="node">
<title>Node1</title>
<g id="a_Node000001"><a xlink:title=" ">
<polygon fill="#999999" stroke="#666666" points="148,-272 0,-272 0,-242 148,-242 148,-272"/>
<text text-anchor="start" x="8" y="-260" font-family="Helvetica,sans-Serif" font-size="10.00">com.teragrep.cfe_16.Event</text>
<text text-anchor="middle" x="74" y="-249" font-family="Helvetica,sans-Serif" font-size="10.00">Manager.convertData</text>
</a>
</g>
</g>
<!-- Node2 -->
<g id="Node000002" class="node">
<title>Node2</title>
<g id="a_Node000002"><a xlink:href="classcom_1_1teragrep_1_1cfe__16_1_1Acknowledgements.html#a8c6f0dff735fde04e0bc670136eb57d2" target="_top" xlink:title=" ">
<polygon fill="white" stroke="#666666" points="468,-537.5 184,-537.5 184,-518.5 468,-518.5 468,-537.5"/>
<text text-anchor="middle" x="326" y="-525.5" font-family="Helvetica,sans-Serif" font-size="10.00">com.teragrep.cfe_16.Acknowledgements.acknowledge</text>
</a>
</g>
</g>
<!-- Node1&#45;&gt;Node2 -->
<g id="edge1_Node000001_Node000002" class="edge">
<title>Node1&#45;&gt;Node2</title>
<g id="a_edge1_Node000001_Node000002"><a xlink:title=" ">
<path fill="none" stroke="#63b8ff" d="M77.82,-272.06C86.24,-312.71 114.98,-425.63 184,-485 201.08,-499.69 223.08,-509.36 244.6,-515.73"/>
<polygon fill="#63b8ff" stroke="#63b8ff" points="243.87,-519.16 254.44,-518.43 245.72,-512.41 243.87,-519.16"/>
</a>
</g>
</g>
<!-- Node4 -->
<g id="Node000004" class="node">
<title>Node4</title>
<g id="a_Node000004"><a xlink:href="classcom_1_1teragrep_1_1cfe__16_1_1Acknowledgements.html#a954c7b6f37e4bcd616879315307d85bb" target="_top" xlink:title="Adds a new Ack object for given channel.">
<polygon fill="white" stroke="#666666" points="453.5,-288.5 198.5,-288.5 198.5,-269.5 453.5,-269.5 453.5,-288.5"/>
<text text-anchor="middle" x="326" y="-276.5" font-family="Helvetica,sans-Serif" font-size="10.00">com.teragrep.cfe_16.Acknowledgements.addAck</text>
</a>
</g>
</g>
<!-- Node1&#45;&gt;Node4 -->
<g id="edge3_Node000001_Node000004" class="edge">
<title>Node1&#45;&gt;Node4</title>
<g id="a_edge3_Node000001_Node000004"><a xlink:title=" ">
<path fill="none" stroke="#63b8ff" d="M148.32,-263.45C166.68,-265.07 186.86,-266.84 206.8,-268.6"/>
<polygon fill="#63b8ff" stroke="#63b8ff" points="206.6,-272.09 216.87,-269.48 207.22,-265.12 206.6,-272.09"/>
</a>
</g>
</g>
<!-- Node5 -->
<g id="Node000005" class="node">
<title>Node5</title>
<g id="a_Node000005"><a xlink:href="classcom_1_1teragrep_1_1cfe__16_1_1EventManager.html#a952ab8d08a4ca2207f87d1aa04abce7a" target="_top" xlink:title=" ">
<polygon fill="white" stroke="#666666" points="400,-251 252,-251 252,-221 400,-221 400,-251"/>
<text text-anchor="start" x="260" y="-239" font-family="Helvetica,sans-Serif" font-size="10.00">com.teragrep.cfe_16.Event</text>
<text text-anchor="middle" x="326" y="-228" font-family="Helvetica,sans-Serif" font-size="10.00">Manager.assignMetaData</text>
</a>
</g>
</g>
<!-- Node1&#45;&gt;Node5 -->
<g id="edge4_Node000001_Node000005" class="edge">
<title>Node1&#45;&gt;Node5</title>
<g id="a_edge4_Node000001_Node000005"><a xlink:title=" ">
<path fill="none" stroke="#63b8ff" d="M148.32,-250.84C177.57,-248.38 211.41,-245.54 241.6,-243.01"/>
<polygon fill="#63b8ff" stroke="#63b8ff" points="242.01,-246.48 251.68,-242.16 241.42,-239.51 242.01,-246.48"/>
</a>
</g>
</g>
<!-- Node6 -->
<g id="Node000006" class="node">
<title>Node6</title>
<g id="a_Node000006"><a xlink:href="classcom_1_1teragrep_1_1cfe__16_1_1Acknowledgements.html#a0a81fc7b69c7638df2b4e6fff3744514" target="_top" xlink:title="Returns the current Ack value for given token and channel.">
<polygon fill="white" stroke="#666666" points="443.5,-476 208.5,-476 208.5,-446 443.5,-446 443.5,-476"/>
<text text-anchor="start" x="216.5" y="-464" font-family="Helvetica,sans-Serif" font-size="10.00">com.teragrep.cfe_16.Acknowledgements.get</text>
<text text-anchor="middle" x="326" y="-453" font-family="Helvetica,sans-Serif" font-size="10.00">CurrentAckValue</text>
</a>
</g>
</g>
<!-- Node1&#45;&gt;Node6 -->
<g id="edge5_Node000001_Node000006" class="edge">
<title>Node1&#45;&gt;Node6</title>
<g id="a_edge5_Node000001_Node000006"><a xlink:title=" ">
<path fill="none" stroke="#63b8ff" d="M92.14,-272.24C113.43,-291.06 150.96,-323.9 184,-351 222.67,-382.72 268.51,-418.08 297.18,-439.94"/>
<polygon fill="#63b8ff" stroke="#63b8ff" points="295.06,-442.73 305.14,-446 299.3,-437.16 295.06,-442.73"/>
</a>
</g>
</g>
<!-- Node9 -->
<g id="Node000009" class="node">
<title>Node9</title>
<g id="a_Node000009"><a xlink:href="classcom_1_1teragrep_1_1cfe__16_1_1Converter.html#a602a68046d2d394249793b6d74b62050" target="_top" xlink:title=" ">
<polygon fill="white" stroke="#666666" points="421,-198 231,-198 231,-168 421,-168 421,-198"/>
<text text-anchor="start" x="239" y="-186" font-family="Helvetica,sans-Serif" font-size="10.00">com.teragrep.cfe_16.Converter.http</text>
<text text-anchor="middle" x="326" y="-175" font-family="Helvetica,sans-Serif" font-size="10.00">ToSyslog</text>
</a>
</g>
</g>
<!-- Node1&#45;&gt;Node9 -->
<g id="edge8_Node000001_Node000009" class="edge">
<title>Node1&#45;&gt;Node9</title>
<g id="a_edge8_Node000001_Node000009"><a xlink:title=" ">
<path fill="none" stroke="#63b8ff" d="M106.85,-241.98C128.28,-232.34 157.38,-220.15 184,-212 198.41,-207.59 213.85,-203.64 229.04,-200.2"/>
<polygon fill="#63b8ff" stroke="#63b8ff" points="229.96,-203.58 238.97,-198 228.45,-196.74 229.96,-203.58"/>
</a>
</g>
</g>
<!-- Node13 -->
<g id="Node000013" class="node">
<title>Node13</title>
<g id="a_Node000013"><a xlink:href="classcom_1_1teragrep_1_1cfe__16_1_1Acknowledgements.html#a5307dc12a64ca957ae24430d09b372e1" target="_top" xlink:title=" ">
<polygon fill="white" stroke="#666666" points="460.5,-342 191.5,-342 191.5,-312 460.5,-312 460.5,-342"/>
<text text-anchor="start" x="199.5" y="-330" font-family="Helvetica,sans-Serif" font-size="10.00">com.teragrep.cfe_16.Acknowledgements.increment</text>
<text text-anchor="middle" x="326" y="-319" font-family="Helvetica,sans-Serif" font-size="10.00">AckValue</text>
</a>
</g>
</g>
<!-- Node1&#45;&gt;Node13 -->
<g id="edge12_Node000001_Node000013" class="edge">
<title>Node1&#45;&gt;Node13</title>
<g id="a_edge12_Node000001_Node000013"><a xlink:title=" ">
<path fill="none" stroke="#63b8ff" d="M110.85,-272.11C131.89,-280.57 159.14,-290.82 184,-298 199.11,-302.37 215.31,-306.34 231.16,-309.85"/>
<polygon fill="#63b8ff" stroke="#63b8ff" points="230.45,-313.27 240.97,-311.97 231.93,-306.43 230.45,-313.27"/>
</a>
</g>
</g>
<!-- Node18 -->
<g id="Node000018" class="node">
<title>Node18</title>
<g id="a_Node000018"><a xlink:href="classcom_1_1teragrep_1_1cfe__16_1_1Acknowledgements.html#a06622ee4fcccb291cf0c97cb55189d83" target="_top" xlink:title="This method has to be called first before calling any other Ack related methods.">
<polygon fill="white" stroke="#666666" points="456.5,-150 195.5,-150 195.5,-120 456.5,-120 456.5,-150"/>
<text text-anchor="start" x="203.5" y="-138" font-family="Helvetica,sans-Serif" font-size="10.00">com.teragrep.cfe_16.Acknowledgements.initialize</text>
<text text-anchor="middle" x="326" y="-127" font-family="Helvetica,sans-Serif" font-size="10.00">Context</text>
</a>
</g>
</g>
<!-- Node1&#45;&gt;Node18 -->
<g id="edge20_Node000001_Node000018" class="edge">
<title>Node1&#45;&gt;Node18</title>
<g id="a_edge20_Node000001_Node000018"><a xlink:title=" ">
<path fill="none" stroke="#63b8ff" d="M86.91,-241.86C105.22,-219.74 142.53,-179.05 184,-159 188.14,-157 192.41,-155.16 196.78,-153.48"/>
<polygon fill="#63b8ff" stroke="#63b8ff" points="198.24,-156.67 206.49,-150.02 195.89,-150.08 198.24,-156.67"/>
</a>
</g>
</g>
<!-- Node19 -->
<g id="Node000019" class="node">
<title>Node19</title>
<g id="a_Node000019"><a xlink:href="classcom_1_1teragrep_1_1cfe__16_1_1EventManager.html#ab74b6ead2721cbcf49f1ffbdafd3f4b6" target="_top" xlink:title=" ">
<polygon fill="white" stroke="#666666" points="400,-78 252,-78 252,-48 400,-48 400,-78"/>
<text text-anchor="start" x="260" y="-66" font-family="Helvetica,sans-Serif" font-size="10.00">com.teragrep.cfe_16.Event</text>
<text text-anchor="middle" x="326" y="-55" font-family="Helvetica,sans-Serif" font-size="10.00">Manager.verifyJsonData</text>
</a>
</g>
</g>
<!-- Node1&#45;&gt;Node19 -->
<g id="edge21_Node000001_Node000019" class="edge">
<title>Node1&#45;&gt;Node19</title>
<g id="a_edge21_Node000001_Node000019"><a xlink:title=" ">
<path fill="none" stroke="#63b8ff" d="M82.35,-241.81C97.36,-212.33 134.37,-147.09 184,-111 201.95,-97.94 223.72,-88.24 244.73,-81.12"/>
<polygon fill="#63b8ff" stroke="#63b8ff" points="245.87,-84.43 254.31,-78.03 243.72,-77.77 245.87,-84.43"/>
</a>
</g>
</g>
<!-- Node3 -->
<g id="Node000003" class="node">
<title>Node3</title>
<g id="a_Node000003"><a xlink:href="classcom_1_1teragrep_1_1cfe__16_1_1Acknowledgements_1_1State.html#ad9d95fec84a00a574b21981fc673f10a" target="_top" xlink:title=" ">
<polygon fill="white" stroke="#666666" points="1001,-433 782,-433 782,-403 1001,-403 1001,-433"/>
<text text-anchor="start" x="790" y="-421" font-family="Helvetica,sans-Serif" font-size="10.00">com.teragrep.cfe_16.Acknowledgements.</text>
<text text-anchor="middle" x="891.5" y="-410" font-family="Helvetica,sans-Serif" font-size="10.00">State.getAckMap</text>
</a>
</g>
</g>
<!-- Node2&#45;&gt;Node3 -->
<g id="edge2_Node000002_Node000003" class="edge">
<title>Node2&#45;&gt;Node3</title>
<g id="a_edge2_Node000002_Node000003"><a xlink:title=" ">
<path fill="none" stroke="#63b8ff" d="M368.35,-537.54C445.27,-553.35 614.48,-578.95 746,-533 798.07,-514.81 845.41,-469.14 870.86,-441.14"/>
<polygon fill="#63b8ff" stroke="#63b8ff" points="873.71,-443.2 877.74,-433.4 868.48,-438.55 873.71,-443.2"/>
</a>
</g>
</g>
<!-- Node7 -->
<g id="Node000007" class="node">
<title>Node7</title>
<g id="a_Node000007"><a xlink:href="classcom_1_1teragrep_1_1cfe__16_1_1Acknowledgements_1_1State.html#aa1809213ec400ce2fccaff6cab3e244b" target="_top" xlink:title=" ">
<polygon fill="white" stroke="#666666" points="734.5,-476 515.5,-476 515.5,-446 734.5,-446 734.5,-476"/>
<text text-anchor="start" x="523.5" y="-464" font-family="Helvetica,sans-Serif" font-size="10.00">com.teragrep.cfe_16.Acknowledgements.</text>
<text text-anchor="middle" x="625" y="-453" font-family="Helvetica,sans-Serif" font-size="10.00">State.getCurrentAckValue</text>
</a>
</g>
</g>
<!-- Node6&#45;&gt;Node7 -->
<g id="edge6_Node000006_Node000007" class="edge">
<title>Node6&#45;&gt;Node7</title>
<g id="a_edge6_Node000006_Node000007"><a xlink:title=" ">
<path fill="none" stroke="#63b8ff" d="M443.53,-461C463.69,-461 484.67,-461 504.9,-461"/>
<polygon fill="#63b8ff" stroke="#63b8ff" points="505.08,-464.5 515.08,-461 505.08,-457.5 505.08,-464.5"/>
</a>
</g>
</g>
<!-- Node8 -->
<g id="Node000008" class="node">
<title>Node8</title>
<g id="a_Node000008"><a xlink:href="classcom_1_1teragrep_1_1cfe__16_1_1Acknowledgements.html#a0287e001c86209cd70554675e6dbf9eb" target="_top" xlink:title="A private Accessor for the State object indexed by the given auth token and channel.">
<polygon fill="white" stroke="#666666" points="742.5,-524 507.5,-524 507.5,-494 742.5,-494 742.5,-524"/>
<text text-anchor="start" x="515.5" y="-512" font-family="Helvetica,sans-Serif" font-size="10.00">com.teragrep.cfe_16.Acknowledgements.get</text>
<text text-anchor="middle" x="625" y="-501" font-family="Helvetica,sans-Serif" font-size="10.00">OrCreateState</text>
</a>
</g>
</g>
<!-- Node6&#45;&gt;Node8 -->
<g id="edge7_Node000006_Node000008" class="edge">
<title>Node6&#45;&gt;Node8</title>
<g id="a_edge7_Node000006_Node000008"><a xlink:title=" ">
<path fill="none" stroke="#63b8ff" d="M420.16,-476.06C452.23,-481.24 488.31,-487.07 521.11,-492.37"/>
<polygon fill="#63b8ff" stroke="#63b8ff" points="520.74,-495.86 531.17,-494 521.86,-488.95 520.74,-495.86"/>
</a>
</g>
</g>
<!-- Node10 -->
<g id="Node000010" class="node">
<title>Node10</title>
<g id="a_Node000010"><a xlink:href="classcom_1_1teragrep_1_1cfe__16_1_1Converter.html#ad3945e06829eabba7dec42281559bffb" target="_top" xlink:title=" ">
<polygon fill="white" stroke="#666666" points="717.5,-198 532.5,-198 532.5,-168 717.5,-168 717.5,-198"/>
<text text-anchor="start" x="540.5" y="-186" font-family="Helvetica,sans-Serif" font-size="10.00">com.teragrep.cfe_16.Converter.set</text>
<text text-anchor="middle" x="625" y="-175" font-family="Helvetica,sans-Serif" font-size="10.00">EventFacility</text>
</a>
</g>
</g>
<!-- Node9&#45;&gt;Node10 -->
<g id="edge9_Node000009_Node000010" class="edge">
<title>Node9&#45;&gt;Node10</title>
<g id="a_edge9_Node000009_Node000010"><a xlink:title=" ">
<path fill="none" stroke="#63b8ff" d="M421.38,-183C453.55,-183 489.65,-183 522.37,-183"/>
<polygon fill="#63b8ff" stroke="#63b8ff" points="522.4,-186.5 532.4,-183 522.4,-179.5 522.4,-186.5"/>
</a>
</g>
</g>
<!-- Node11 -->
<g id="Node000011" class="node">
<title>Node11</title>
<g id="a_Node000011"><a xlink:href="classcom_1_1teragrep_1_1cfe__16_1_1Converter.html#a99439ed8fa2f982deedfa6168ecbeba8" target="_top" xlink:title=" ">
<polygon fill="white" stroke="#666666" points="717.5,-150 532.5,-150 532.5,-120 717.5,-120 717.5,-150"/>
<text text-anchor="start" x="540.5" y="-138" font-family="Helvetica,sans-Serif" font-size="10.00">com.teragrep.cfe_16.Converter.set</text>
<text text-anchor="middle" x="625" y="-127" font-family="Helvetica,sans-Serif" font-size="10.00">EventSeverity</text>
</a>
</g>
</g>
<!-- Node9&#45;&gt;Node11 -->
<g id="edge10_Node000009_Node000011" class="edge">
<title>Node9&#45;&gt;Node11</title>
<g id="a_edge10_Node000009_Node000011"><a xlink:title=" ">
<path fill="none" stroke="#63b8ff" d="M420.16,-167.94C452.61,-162.7 489.18,-156.79 522.29,-151.44"/>
<polygon fill="#63b8ff" stroke="#63b8ff" points="523.13,-154.85 532.45,-149.8 522.02,-147.94 523.13,-154.85"/>
</a>
</g>
</g>
<!-- Node12 -->
<g id="Node000012" class="node">
<title>Node12</title>
<g id="a_Node000012"><a xlink:href="classcom_1_1teragrep_1_1cfe__16_1_1Converter.html#a18a7c850c23a15fd3ab357f011ec5866" target="_top" xlink:title=" ">
<polygon fill="white" stroke="#666666" points="717.5,-102 532.5,-102 532.5,-72 717.5,-72 717.5,-102"/>
<text text-anchor="start" x="540.5" y="-90" font-family="Helvetica,sans-Serif" font-size="10.00">com.teragrep.cfe_16.Converter.set</text>
<text text-anchor="middle" x="625" y="-79" font-family="Helvetica,sans-Serif" font-size="10.00">StructuredDataParams</text>
</a>
</g>
</g>
<!-- Node9&#45;&gt;Node12 -->
<g id="edge11_Node000009_Node000012" class="edge">
<title>Node9&#45;&gt;Node12</title>
<g id="a_edge11_Node000009_Node000012"><a xlink:title=" ">
<path fill="none" stroke="#63b8ff" d="M421.23,-177.16C437.62,-173.35 453.9,-167.6 468,-159 490.76,-145.11 481.44,-125.22 504,-111 509.86,-107.31 516.17,-104.17 522.72,-101.5"/>
<polygon fill="#63b8ff" stroke="#63b8ff" points="524.29,-104.65 532.47,-97.91 521.88,-98.08 524.29,-104.65"/>
</a>
</g>
</g>
<!-- Node13&#45;&gt;Node3 -->
<g id="edge15_Node000013_Node000003" class="edge">
<title>Node13&#45;&gt;Node3</title>
<g id="a_edge15_Node000013_Node000003"><a xlink:title=" ">
<path fill="none" stroke="#63b8ff" d="M355.47,-342.1C389.66,-359.39 449.26,-386.89 504,-399 592.2,-418.51 694.38,-422.77 771.51,-422.41"/>
<polygon fill="#63b8ff" stroke="#63b8ff" points="771.77,-425.91 781.75,-422.34 771.72,-418.91 771.77,-425.91"/>
</a>
</g>
</g>
<!-- Node13&#45;&gt;Node7 -->
<g id="edge17_Node000013_Node000007" class="edge">
<title>Node13&#45;&gt;Node7</title>
<g id="a_edge17_Node000013_Node000007"><a xlink:title=" ">
<path fill="none" stroke="#63b8ff" d="M347.72,-342.11C379.71,-364.77 443.76,-407.5 504,-432 514.44,-436.25 525.66,-439.97 536.89,-443.21"/>
<polygon fill="#63b8ff" stroke="#63b8ff" points="536.17,-446.65 546.75,-445.93 538.04,-439.9 536.17,-446.65"/>
</a>
</g>
</g>
<!-- Node14 -->
<g id="Node000014" class="node">
<title>Node14</title>
<g id="a_Node000014"><a xlink:href="classcom_1_1teragrep_1_1cfe__16_1_1Acknowledgements.html#a7a9570efce9732f5f674e9ea85017439" target="_top" xlink:title=" ">
<polygon fill="white" stroke="#666666" points="746,-390 504,-390 504,-360 746,-360 746,-390"/>
<text text-anchor="start" x="512" y="-378" font-family="Helvetica,sans-Serif" font-size="10.00">com.teragrep.cfe_16.Acknowledgements.acks</text>
<text text-anchor="middle" x="625" y="-367" font-family="Helvetica,sans-Serif" font-size="10.00">Available</text>
</a>
</g>
</g>
<!-- Node13&#45;&gt;Node14 -->
<g id="edge13_Node000013_Node000014" class="edge">
<title>Node13&#45;&gt;Node14</title>
<g id="a_edge13_Node000013_Node000014"><a xlink:title=" ">
<path fill="none" stroke="#63b8ff" d="M420.16,-342.06C452.23,-347.24 488.31,-353.07 521.11,-358.37"/>
<polygon fill="#63b8ff" stroke="#63b8ff" points="520.74,-361.86 531.17,-360 521.86,-354.95 520.74,-361.86"/>
</a>
</g>
</g>
<!-- Node15 -->
<g id="Node000015" class="node">
<title>Node15</title>
<g id="a_Node000015"><a xlink:href="classcom_1_1teragrep_1_1cfe__16_1_1Acknowledgements_1_1State.html#a7d72966efb4505634712c4c64c96440c" target="_top" xlink:title=" ">
<polygon fill="white" stroke="#666666" points="734.5,-342 515.5,-342 515.5,-312 734.5,-312 734.5,-342"/>
<text text-anchor="start" x="523.5" y="-330" font-family="Helvetica,sans-Serif" font-size="10.00">com.teragrep.cfe_16.Acknowledgements.</text>
<text text-anchor="middle" x="625" y="-319" font-family="Helvetica,sans-Serif" font-size="10.00">State.getAckToCompare</text>
</a>
</g>
</g>
<!-- Node13&#45;&gt;Node15 -->
<g id="edge16_Node000013_Node000015" class="edge">
<title>Node13&#45;&gt;Node15</title>
<g id="a_edge16_Node000013_Node000015"><a xlink:title=" ">
<path fill="none" stroke="#63b8ff" d="M460.73,-327C475.62,-327 490.7,-327 505.38,-327"/>
<polygon fill="#63b8ff" stroke="#63b8ff" points="505.47,-330.5 515.47,-327 505.47,-323.5 505.47,-330.5"/>
</a>
</g>
</g>
<!-- Node16 -->
<g id="Node000016" class="node">
<title>Node16</title>
<g id="a_Node000016"><a xlink:href="classcom_1_1teragrep_1_1cfe__16_1_1Acknowledgements_1_1State.html#ab460c6226ddd97252506f01f11cf9f3d" target="_top" xlink:title=" ">
<polygon fill="white" stroke="#666666" points="734.5,-294 515.5,-294 515.5,-264 734.5,-264 734.5,-294"/>
<text text-anchor="start" x="523.5" y="-282" font-family="Helvetica,sans-Serif" font-size="10.00">com.teragrep.cfe_16.Acknowledgements.</text>
<text text-anchor="middle" x="625" y="-271" font-family="Helvetica,sans-Serif" font-size="10.00">State.setAckToCompare</text>
</a>
</g>
</g>
<!-- Node13&#45;&gt;Node16 -->
<g id="edge18_Node000013_Node000016" class="edge">
<title>Node13&#45;&gt;Node16</title>
<g id="a_edge18_Node000013_Node000016"><a xlink:title=" ">
<path fill="none" stroke="#63b8ff" d="M420.16,-311.94C452.23,-306.76 488.31,-300.93 521.11,-295.63"/>
<polygon fill="#63b8ff" stroke="#63b8ff" points="521.86,-299.05 531.17,-294 520.74,-292.14 521.86,-299.05"/>
</a>
</g>
</g>
<!-- Node17 -->
<g id="Node000017" class="node">
<title>Node17</title>
<g id="a_Node000017"><a xlink:href="classcom_1_1teragrep_1_1cfe__16_1_1Acknowledgements_1_1State.html#a2ce209b2faca53446cccd40bc4de2726" target="_top" xlink:title=" ">
<polygon fill="white" stroke="#666666" points="734.5,-246 515.5,-246 515.5,-216 734.5,-216 734.5,-246"/>
<text text-anchor="start" x="523.5" y="-234" font-family="Helvetica,sans-Serif" font-size="10.00">com.teragrep.cfe_16.Acknowledgements.</text>
<text text-anchor="middle" x="625" y="-223" font-family="Helvetica,sans-Serif" font-size="10.00">State.setCurrentAckValue</text>
</a>
</g>
</g>
<!-- Node13&#45;&gt;Node17 -->
<g id="edge19_Node000013_Node000017" class="edge">
<title>Node13&#45;&gt;Node17</title>
<g id="a_edge19_Node000013_Node000017"><a xlink:title=" ">
<path fill="none" stroke="#63b8ff" d="M437.15,-312C447.96,-308.3 458.45,-303.7 468,-298 489.4,-285.22 482.57,-267.72 504,-255 506.88,-253.29 509.86,-251.7 512.91,-250.23"/>
<polygon fill="#63b8ff" stroke="#63b8ff" points="514.53,-253.34 522.28,-246.12 511.72,-246.93 514.53,-253.34"/>
</a>
</g>
</g>
<!-- Node14&#45;&gt;Node3 -->
<g id="edge14_Node000014_Node000003" class="edge">
<title>Node14&#45;&gt;Node3</title>
<g id="a_edge14_Node000014_Node000003"><a xlink:title=" ">
<path fill="none" stroke="#63b8ff" d="M718.51,-390.04C740.96,-393.69 765.09,-397.61 787.98,-401.33"/>
<polygon fill="#63b8ff" stroke="#63b8ff" points="787.61,-404.82 798.04,-402.97 788.73,-397.91 787.61,-404.82"/>
</a>
</g>
</g>
<!-- Node20 -->
<g id="Node000020" class="node">
<title>Node20</title>
<g id="a_Node000020"><a xlink:href="classcom_1_1teragrep_1_1cfe__16_1_1EventManager.html#a499862d588b74185c5a5cafcdc0c407e" target="_top" xlink:title=" ">
<polygon fill="white" stroke="#666666" points="699,-54 551,-54 551,-24 699,-24 699,-54"/>
<text text-anchor="start" x="559" y="-42" font-family="Helvetica,sans-Serif" font-size="10.00">com.teragrep.cfe_16.Event</text>
<text text-anchor="middle" x="625" y="-31" font-family="Helvetica,sans-Serif" font-size="10.00">Manager.handleTime</text>
</a>
</g>
</g>
<!-- Node19&#45;&gt;Node20 -->
<g id="edge22_Node000019_Node000020" class="edge">
<title>Node19&#45;&gt;Node20</title>
<g id="a_edge22_Node000019_Node000020"><a xlink:title=" ">
<path fill="none" stroke="#63b8ff" d="M400.03,-57.1C442.66,-53.65 496.58,-49.3 540.83,-45.72"/>
<polygon fill="#63b8ff" stroke="#63b8ff" points="541.3,-49.19 550.99,-44.9 540.74,-42.22 541.3,-49.19"/>
</a>
</g>
</g>
<!-- Node21 -->
<g id="Node000021" class="node">
<title>Node21</title>
<g id="a_Node000021"><a xlink:href="classcom_1_1teragrep_1_1cfe__16_1_1EventManager.html#a74cf4d32251dd8b36aee7d8b3578f62b" target="_top" xlink:title=" ">
<polygon fill="white" stroke="#666666" points="986,-78 797,-78 797,-48 986,-48 986,-78"/>
<text text-anchor="start" x="805" y="-66" font-family="Helvetica,sans-Serif" font-size="10.00">com.teragrep.cfe_16.Event</text>
<text text-anchor="middle" x="891.5" y="-55" font-family="Helvetica,sans-Serif" font-size="10.00">Manager.convertTimeToEpochMillis</text>
</a>
</g>
</g>
<!-- Node20&#45;&gt;Node21 -->
<g id="edge23_Node000020_Node000021" class="edge">
<title>Node20&#45;&gt;Node21</title>
<g id="a_edge23_Node000020_Node000021"><a xlink:title=" ">
<path fill="none" stroke="#63b8ff" d="M699.33,-45.65C726.27,-48.1 757.31,-50.91 786.44,-53.56"/>
<polygon fill="#63b8ff" stroke="#63b8ff" points="786.38,-57.07 796.65,-54.48 787.01,-50.1 786.38,-57.07"/>
</a>
</g>
</g>
<!-- Node22 -->
<g id="Node000022" class="node">
<title>Node22</title>
<g id="a_Node000022"><a xlink:href="classcom_1_1teragrep_1_1cfe__16_1_1EventManager.html#a159ac4f3aa69ac663e34efa51c9147d6" target="_top" xlink:title=" ">
<polygon fill="white" stroke="#666666" points="965.5,-30 817.5,-30 817.5,0 965.5,0 965.5,-30"/>
<text text-anchor="start" x="825.5" y="-18" font-family="Helvetica,sans-Serif" font-size="10.00">com.teragrep.cfe_16.Event</text>
<text text-anchor="middle" x="891.5" y="-7" font-family="Helvetica,sans-Serif" font-size="10.00">Manager.removeDecimal</text>
</a>
</g>
</g>
<!-- Node20&#45;&gt;Node22 -->
<g id="edge24_Node000020_Node000022" class="edge">
<title>Node20&#45;&gt;Node22</title>
<g id="a_edge24_Node000020_Node000022"><a xlink:title=" ">
<path fill="none" stroke="#63b8ff" d="M699.33,-32.35C732.86,-29.3 772.75,-25.68 807.39,-22.54"/>
<polygon fill="#63b8ff" stroke="#63b8ff" points="807.85,-26.01 817.49,-21.62 807.21,-19.04 807.85,-26.01"/>
</a>
</g>
</g>
</g>
</svg>
