<?xml version="1.0" encoding="UTF-8" standalone="no"?>
<!DOCTYPE svg PUBLIC "-//W3C//DTD SVG 1.1//EN"
 "http://www.w3.org/Graphics/SVG/1.1/DTD/svg11.dtd">
<!-- Generated by graphviz version 2.43.0 (0)
 -->
<!-- Title: com.teragrep.cfe_16.RequestBodyCleaner.cleanAckRequestBody Pages: 1 -->
<svg width="454pt" height="86pt"
 viewBox="0.00 0.00 454.00 86.00" xmlns="http://www.w3.org/2000/svg" xmlns:xlink="http://www.w3.org/1999/xlink">
<g id="graph0" class="graph" transform="scale(1 1) rotate(0) translate(4 82)">
<title>com.teragrep.cfe_16.RequestBodyCleaner.cleanAckRequestBody</title>
<!-- Node1 -->
<g id="Node000001" class="node">
<title>Node1</title>
<g id="a_Node000001"><a xlink:title=" ">
<polygon fill="#999999" stroke="#666666" points="190,-54 0,-54 0,-24 190,-24 190,-54"/>
<text text-anchor="start" x="8" y="-42" font-family="Helvetica,sans-Serif" font-size="10.00">com.teragrep.cfe_16.Request</text>
<text text-anchor="middle" x="95" y="-31" font-family="Helvetica,sans-Serif" font-size="10.00">BodyCleaner.cleanAckRequestBody</text>
</a>
</g>
</g>
<!-- Node2 -->
<g id="Node000002" class="node">
<title>Node2</title>
<g id="a_Node000002"><a xlink:href="classcom_1_1teragrep_1_1cfe__16_1_1RequestBodyCleaner.html#a9b772b8ac07b66a3440a00f2b7ecf627" target="_top" xlink:title=" ">
<polygon fill="white" stroke="#666666" points="446,-78 226,-78 226,-48 446,-48 446,-78"/>
<text text-anchor="start" x="234" y="-66" font-family="Helvetica,sans-Serif" font-size="10.00">com.teragrep.cfe_16.Request</text>
<text text-anchor="middle" x="336" y="-55" font-family="Helvetica,sans-Serif" font-size="10.00">BodyCleaner.removeEqualsArrayFromEnd</text>
</a>
</g>
</g>
<!-- Node1&#45;&gt;Node2 -->
<g id="edge1_Node000001_Node000002" class="edge">
<title>Node1&#45;&gt;Node2</title>
<g id="a_edge1_Node000001_Node000002"><a xlink:title=" ">
<path fill="none" stroke="#63b8ff" d="M190.12,-48.45C198.57,-49.3 207.19,-50.17 215.82,-51.03"/>
<polygon fill="#63b8ff" stroke="#63b8ff" points="215.63,-54.53 225.93,-52.05 216.33,-47.57 215.63,-54.53"/>
</a>
</g>
</g>
<!-- Node3 -->
<g id="Node000003" class="node">
<title>Node3</title>
<g id="a_Node000003"><a xlink:href="classcom_1_1teragrep_1_1cfe__16_1_1RequestBodyCleaner.html#a9d4bd53181a791719c7da3729cc72f7f" target="_top" xlink:title=" ">
<polygon fill="white" stroke="#666666" points="416.5,-30 255.5,-30 255.5,0 416.5,0 416.5,-30"/>
<text text-anchor="start" x="263.5" y="-18" font-family="Helvetica,sans-Serif" font-size="10.00">com.teragrep.cfe_16.Request</text>
<text text-anchor="middle" x="336" y="-7" font-family="Helvetica,sans-Serif" font-size="10.00">BodyCleaner.removeLastChar</text>
</a>
</g>
</g>
<!-- Node1&#45;&gt;Node3 -->
<g id="edge2_Node000001_Node000003" class="edge">
<title>Node1&#45;&gt;Node3</title>
<g id="a_edge2_Node000001_Node000003"><a xlink:title=" ">
<path fill="none" stroke="#63b8ff" d="M190.12,-29.55C208.22,-27.73 227.13,-25.83 245.1,-24.03"/>
<polygon fill="#63b8ff" stroke="#63b8ff" points="245.66,-27.49 255.26,-23.01 244.96,-20.52 245.66,-27.49"/>
</a>
</g>
</g>
</g>
</svg>
