<?xml version="1.0" encoding="UTF-8" standalone="no"?>
<!DOCTYPE svg PUBLIC "-//W3C//DTD SVG 1.1//EN"
 "http://www.w3.org/Graphics/SVG/1.1/DTD/svg11.dtd">
<!-- Generated by graphviz version 2.43.0 (0)
 -->
<!-- Title: Graphical Class Hierarchy Pages: 1 -->
<svg width="263pt" height="86pt"
 viewBox="0.00 0.00 263.00 86.00" xmlns="http://www.w3.org/2000/svg" xmlns:xlink="http://www.w3.org/1999/xlink">
<g id="graph0" class="graph" transform="scale(1 1) rotate(0) translate(4 82)">
<title>Graphical Class Hierarchy</title>
<!-- Node0 -->
<g id="Node000000" class="node">
<title>Node0</title>
<g id="a_Node000000"><a xlink:title=" ">
<polygon fill="#e0e0e0" stroke="#999999" points="66,-48.5 0,-48.5 0,-29.5 66,-29.5 66,-48.5"/>
<text text-anchor="middle" x="33" y="-36.5" font-family="Helvetica,sans-Serif" font-size="10.00">RelpEvent</text>
</a>
</g>
</g>
<!-- Node1 -->
<g id="Node000001" class="node">
<title>Node1</title>
<g id="a_Node000001"><a xlink:href="classcom_1_1teragrep_1_1cfe__16_1_1server_1_1RelpEventCloseCounting.html" target="_top" xlink:title=" ">
<polygon fill="white" stroke="#666666" points="255,-78 102,-78 102,-48 255,-48 255,-78"/>
<text text-anchor="start" x="110" y="-66" font-family="Helvetica,sans-Serif" font-size="10.00">com.teragrep.cfe_16.server.</text>
<text text-anchor="middle" x="178.5" y="-55" font-family="Helvetica,sans-Serif" font-size="10.00">RelpEventCloseCounting</text>
</a>
</g>
</g>
<!-- Node0&#45;&gt;Node1 -->
<g id="edge38_Node000000_Node000001" class="edge">
<title>Node0&#45;&gt;Node1</title>
<g id="a_edge38_Node000000_Node000001"><a xlink:title=" ">
<path fill="none" stroke="#63b8ff" d="M76.11,-46.04C84.21,-47.4 92.93,-48.86 101.73,-50.33"/>
<polygon fill="#63b8ff" stroke="#63b8ff" points="76.64,-42.58 66.2,-44.39 75.49,-49.49 76.64,-42.58"/>
</a>
</g>
</g>
<!-- Node2 -->
<g id="Node000002" class="node">
<title>Node2</title>
<g id="a_Node000002"><a xlink:href="classcom_1_1teragrep_1_1cfe__16_1_1server_1_1RelpEventOpenCounting.html" target="_top" xlink:title=" ">
<polygon fill="white" stroke="#666666" points="255,-30 102,-30 102,0 255,0 255,-30"/>
<text text-anchor="start" x="110" y="-18" font-family="Helvetica,sans-Serif" font-size="10.00">com.teragrep.cfe_16.server.</text>
<text text-anchor="middle" x="178.5" y="-7" font-family="Helvetica,sans-Serif" font-size="10.00">RelpEventOpenCounting</text>
</a>
</g>
</g>
<!-- Node0&#45;&gt;Node2 -->
<g id="edge39_Node000000_Node000002" class="edge">
<title>Node0&#45;&gt;Node2</title>
<g id="a_edge39_Node000000_Node000002"><a xlink:title=" ">
<path fill="none" stroke="#63b8ff" d="M76.11,-31.96C84.21,-30.6 92.93,-29.14 101.73,-27.67"/>
<polygon fill="#63b8ff" stroke="#63b8ff" points="75.49,-28.51 66.2,-33.61 76.64,-35.42 75.49,-28.51"/>
</a>
</g>
</g>
</g>
</svg>
