<?xml version="1.0" encoding="UTF-8" standalone="no"?>
<!DOCTYPE svg PUBLIC "-//W3C//DTD SVG 1.1//EN"
 "http://www.w3.org/Graphics/SVG/1.1/DTD/svg11.dtd">
<!-- Generated by graphviz version 2.43.0 (0)
 -->
<!-- Title: Graphical Class Hierarchy Pages: 1 -->
<svg width="363pt" height="374pt"
 viewBox="0.00 0.00 363.00 374.00" xmlns="http://www.w3.org/2000/svg" xmlns:xlink="http://www.w3.org/1999/xlink">
<g id="graph0" class="graph" transform="scale(1 1) rotate(0) translate(4 370)">
<title>Graphical Class Hierarchy</title>
<!-- Node0 -->
<g id="Node000000" class="node">
<title>Node0</title>
<g id="a_Node000000"><a xlink:title=" ">
<polygon fill="#e0e0e0" stroke="#999999" points="106,-192.5 0,-192.5 0,-173.5 106,-173.5 106,-192.5"/>
<text text-anchor="middle" x="53" y="-180.5" font-family="Helvetica,sans-Serif" font-size="10.00">RuntimeException</text>
</a>
</g>
</g>
<!-- Node1 -->
<g id="Node000001" class="node">
<title>Node1</title>
<g id="a_Node000001"><a xlink:href="classcom_1_1teragrep_1_1cfe__16_1_1exceptionhandling_1_1AuthenticationTokenMissingException.html" target="_top" xlink:title=" ">
<polygon fill="white" stroke="#666666" points="355,-366 142,-366 142,-336 355,-336 355,-366"/>
<text text-anchor="start" x="150" y="-354" font-family="Helvetica,sans-Serif" font-size="10.00">com.teragrep.cfe_16.exceptionhandling.</text>
<text text-anchor="middle" x="248.5" y="-343" font-family="Helvetica,sans-Serif" font-size="10.00">AuthenticationTokenMissingException</text>
</a>
</g>
</g>
<!-- Node0&#45;&gt;Node1 -->
<g id="edge23_Node000000_Node000001" class="edge">
<title>Node0&#45;&gt;Node1</title>
<g id="a_edge23_Node000000_Node000001"><a xlink:title=" ">
<path fill="none" stroke="#63b8ff" d="M60.2,-202.25C71.32,-233.55 97.73,-295.19 142,-327 146.81,-330.45 152.03,-333.42 157.49,-335.97"/>
<polygon fill="#63b8ff" stroke="#63b8ff" points="63.43,-200.88 56.9,-192.54 56.81,-203.13 63.43,-200.88"/>
</a>
</g>
</g>
<!-- Node2 -->
<g id="Node000002" class="node">
<title>Node2</title>
<g id="a_Node000002"><a xlink:href="classcom_1_1teragrep_1_1cfe__16_1_1exceptionhandling_1_1ChannelNotFoundException.html" target="_top" xlink:title=" ">
<polygon fill="white" stroke="#666666" points="355,-318 142,-318 142,-288 355,-288 355,-318"/>
<text text-anchor="start" x="150" y="-306" font-family="Helvetica,sans-Serif" font-size="10.00">com.teragrep.cfe_16.exceptionhandling.</text>
<text text-anchor="middle" x="248.5" y="-295" font-family="Helvetica,sans-Serif" font-size="10.00">ChannelNotFoundException</text>
</a>
</g>
</g>
<!-- Node0&#45;&gt;Node2 -->
<g id="edge24_Node000000_Node000002" class="edge">
<title>Node0&#45;&gt;Node2</title>
<g id="a_edge24_Node000000_Node000002"><a xlink:title=" ">
<path fill="none" stroke="#63b8ff" d="M65.47,-201.11C80.37,-223.06 108.47,-259.52 142,-279 147.93,-282.44 154.31,-285.39 160.9,-287.92"/>
<polygon fill="#63b8ff" stroke="#63b8ff" points="68.35,-199.1 59.92,-192.68 62.5,-202.96 68.35,-199.1"/>
</a>
</g>
</g>
<!-- Node3 -->
<g id="Node000003" class="node">
<title>Node3</title>
<g id="a_Node000003"><a xlink:href="classcom_1_1teragrep_1_1cfe__16_1_1exceptionhandling_1_1ChannelNotProvidedException.html" target="_top" xlink:title=" ">
<polygon fill="white" stroke="#666666" points="355,-270 142,-270 142,-240 355,-240 355,-270"/>
<text text-anchor="start" x="150" y="-258" font-family="Helvetica,sans-Serif" font-size="10.00">com.teragrep.cfe_16.exceptionhandling.</text>
<text text-anchor="middle" x="248.5" y="-247" font-family="Helvetica,sans-Serif" font-size="10.00">ChannelNotProvidedException</text>
</a>
</g>
</g>
<!-- Node0&#45;&gt;Node3 -->
<g id="edge25_Node000000_Node000003" class="edge">
<title>Node0&#45;&gt;Node3</title>
<g id="a_edge25_Node000000_Node000003"><a xlink:title=" ">
<path fill="none" stroke="#63b8ff" d="M77.46,-198.12C94.72,-208.66 119.06,-222.33 142,-231 150.96,-234.39 160.54,-237.38 170.13,-240"/>
<polygon fill="#63b8ff" stroke="#63b8ff" points="79,-194.96 68.66,-192.64 75.3,-200.9 79,-194.96"/>
</a>
</g>
</g>
<!-- Node4 -->
<g id="Node000004" class="node">
<title>Node4</title>
<g id="a_Node000004"><a xlink:href="classcom_1_1teragrep_1_1cfe__16_1_1exceptionhandling_1_1EventFieldBlankException.html" target="_top" xlink:title=" ">
<polygon fill="white" stroke="#666666" points="355,-222 142,-222 142,-192 355,-192 355,-222"/>
<text text-anchor="start" x="150" y="-210" font-family="Helvetica,sans-Serif" font-size="10.00">com.teragrep.cfe_16.exceptionhandling.</text>
<text text-anchor="middle" x="248.5" y="-199" font-family="Helvetica,sans-Serif" font-size="10.00">EventFieldBlankException</text>
</a>
</g>
</g>
<!-- Node0&#45;&gt;Node4 -->
<g id="edge26_Node000000_Node000004" class="edge">
<title>Node0&#45;&gt;Node4</title>
<g id="a_edge26_Node000000_Node000004"><a xlink:title=" ">
<path fill="none" stroke="#63b8ff" d="M116.05,-190.7C124.38,-191.73 133.1,-192.81 141.93,-193.91"/>
<polygon fill="#63b8ff" stroke="#63b8ff" points="116.46,-187.22 106.11,-189.46 115.6,-194.17 116.46,-187.22"/>
</a>
</g>
</g>
<!-- Node5 -->
<g id="Node000005" class="node">
<title>Node5</title>
<g id="a_Node000005"><a xlink:href="classcom_1_1teragrep_1_1cfe__16_1_1exceptionhandling_1_1EventFieldMissingException.html" target="_top" xlink:title=" ">
<polygon fill="white" stroke="#666666" points="355,-174 142,-174 142,-144 355,-144 355,-174"/>
<text text-anchor="start" x="150" y="-162" font-family="Helvetica,sans-Serif" font-size="10.00">com.teragrep.cfe_16.exceptionhandling.</text>
<text text-anchor="middle" x="248.5" y="-151" font-family="Helvetica,sans-Serif" font-size="10.00">EventFieldMissingException</text>
</a>
</g>
</g>
<!-- Node0&#45;&gt;Node5 -->
<g id="edge27_Node000000_Node000005" class="edge">
<title>Node0&#45;&gt;Node5</title>
<g id="a_edge27_Node000000_Node000005"><a xlink:title=" ">
<path fill="none" stroke="#63b8ff" d="M116.05,-175.3C124.38,-174.27 133.1,-173.19 141.93,-172.09"/>
<polygon fill="#63b8ff" stroke="#63b8ff" points="115.6,-171.83 106.11,-176.54 116.46,-178.78 115.6,-171.83"/>
</a>
</g>
</g>
<!-- Node6 -->
<g id="Node000006" class="node">
<title>Node6</title>
<g id="a_Node000006"><a xlink:href="classcom_1_1teragrep_1_1cfe__16_1_1exceptionhandling_1_1InternalServerErrorException.html" target="_top" xlink:title=" ">
<polygon fill="white" stroke="#666666" points="355,-126 142,-126 142,-96 355,-96 355,-126"/>
<text text-anchor="start" x="150" y="-114" font-family="Helvetica,sans-Serif" font-size="10.00">com.teragrep.cfe_16.exceptionhandling.</text>
<text text-anchor="middle" x="248.5" y="-103" font-family="Helvetica,sans-Serif" font-size="10.00">InternalServerErrorException</text>
</a>
</g>
</g>
<!-- Node0&#45;&gt;Node6 -->
<g id="edge28_Node000000_Node000006" class="edge">
<title>Node0&#45;&gt;Node6</title>
<g id="a_edge28_Node000000_Node000006"><a xlink:title=" ">
<path fill="none" stroke="#63b8ff" d="M77.46,-167.88C94.72,-157.34 119.06,-143.67 142,-135 150.96,-131.61 160.54,-128.62 170.13,-126"/>
<polygon fill="#63b8ff" stroke="#63b8ff" points="75.3,-165.1 68.66,-173.36 79,-171.04 75.3,-165.1"/>
</a>
</g>
</g>
<!-- Node7 -->
<g id="Node000007" class="node">
<title>Node7</title>
<g id="a_Node000007"><a xlink:href="classcom_1_1teragrep_1_1cfe__16_1_1exceptionhandling_1_1ServerIsBusyException.html" target="_top" xlink:title=" ">
<polygon fill="white" stroke="#666666" points="355,-78 142,-78 142,-48 355,-48 355,-78"/>
<text text-anchor="start" x="150" y="-66" font-family="Helvetica,sans-Serif" font-size="10.00">com.teragrep.cfe_16.exceptionhandling.</text>
<text text-anchor="middle" x="248.5" y="-55" font-family="Helvetica,sans-Serif" font-size="10.00">ServerIsBusyException</text>
</a>
</g>
</g>
<!-- Node0&#45;&gt;Node7 -->
<g id="edge29_Node000000_Node000007" class="edge">
<title>Node0&#45;&gt;Node7</title>
<g id="a_edge29_Node000000_Node000007"><a xlink:title=" ">
<path fill="none" stroke="#63b8ff" d="M65.47,-164.89C80.37,-142.94 108.47,-106.48 142,-87 147.93,-83.56 154.31,-80.61 160.9,-78.08"/>
<polygon fill="#63b8ff" stroke="#63b8ff" points="62.5,-163.04 59.92,-173.32 68.35,-166.9 62.5,-163.04"/>
</a>
</g>
</g>
<!-- Node8 -->
<g id="Node000008" class="node">
<title>Node8</title>
<g id="a_Node000008"><a xlink:href="classcom_1_1teragrep_1_1cfe__16_1_1exceptionhandling_1_1SessionNotFoundException.html" target="_top" xlink:title=" ">
<polygon fill="white" stroke="#666666" points="355,-30 142,-30 142,0 355,0 355,-30"/>
<text text-anchor="start" x="150" y="-18" font-family="Helvetica,sans-Serif" font-size="10.00">com.teragrep.cfe_16.exceptionhandling.</text>
<text text-anchor="middle" x="248.5" y="-7" font-family="Helvetica,sans-Serif" font-size="10.00">SessionNotFoundException</text>
</a>
</g>
</g>
<!-- Node0&#45;&gt;Node8 -->
<g id="edge30_Node000000_Node000008" class="edge">
<title>Node0&#45;&gt;Node8</title>
<g id="a_edge30_Node000000_Node000008"><a xlink:title=" ">
<path fill="none" stroke="#63b8ff" d="M60.2,-163.75C71.32,-132.45 97.73,-70.81 142,-39 146.81,-35.55 152.03,-32.58 157.49,-30.03"/>
<polygon fill="#63b8ff" stroke="#63b8ff" points="56.81,-162.87 56.9,-173.46 63.43,-165.12 56.81,-162.87"/>
</a>
</g>
</g>
</g>
</svg>
