<?xml version="1.0" encoding="UTF-8" standalone="no"?>
<!DOCTYPE svg PUBLIC "-//W3C//DTD SVG 1.1//EN"
 "http://www.w3.org/Graphics/SVG/1.1/DTD/svg11.dtd">
<!-- Generated by graphviz version 2.43.0 (0)
 -->
<!-- Title: Graphical Class Hierarchy Pages: 1 -->
<svg width="378pt" height="182pt"
 viewBox="0.00 0.00 378.00 182.00" xmlns="http://www.w3.org/2000/svg" xmlns:xlink="http://www.w3.org/1999/xlink">
<g id="graph0" class="graph" transform="scale(1 1) rotate(0) translate(4 178)">
<title>Graphical Class Hierarchy</title>
<!-- Node0 -->
<g id="Node000000" class="node">
<title>Node0</title>
<g id="a_Node000000"><a xlink:href="interfacecom_1_1teragrep_1_1cfe__16_1_1response_1_1Response.html" target="_top" xlink:title=" ">
<polygon fill="white" stroke="#666666" points="167,-102 0,-102 0,-72 167,-72 167,-102"/>
<text text-anchor="start" x="8" y="-90" font-family="Helvetica,sans-Serif" font-size="10.00">com.teragrep.cfe_16.response.</text>
<text text-anchor="middle" x="83.5" y="-79" font-family="Helvetica,sans-Serif" font-size="10.00">Response</text>
</a>
</g>
</g>
<!-- Node1 -->
<g id="Node000001" class="node">
<title>Node1</title>
<g id="a_Node000001"><a xlink:href="classcom_1_1teragrep_1_1cfe__16_1_1response_1_1AcknowledgedJsonResponse.html" target="_top" xlink:title=" ">
<polygon fill="white" stroke="#666666" points="370,-174 203,-174 203,-144 370,-144 370,-174"/>
<text text-anchor="start" x="211" y="-162" font-family="Helvetica,sans-Serif" font-size="10.00">com.teragrep.cfe_16.response.</text>
<text text-anchor="middle" x="286.5" y="-151" font-family="Helvetica,sans-Serif" font-size="10.00">AcknowledgedJsonResponse</text>
</a>
</g>
</g>
<!-- Node0&#45;&gt;Node1 -->
<g id="edge15_Node000000_Node000001" class="edge">
<title>Node0&#45;&gt;Node1</title>
<g id="a_edge15_Node000000_Node000001"><a xlink:title=" ">
<path fill="none" stroke="#63b8ff" d="M128.36,-106.01C150.53,-115.3 177.97,-126.32 203,-135 211.88,-138.08 221.38,-141.1 230.67,-143.9"/>
<polygon fill="#63b8ff" stroke="#63b8ff" points="129.46,-102.68 118.89,-102.01 126.74,-109.12 129.46,-102.68"/>
</a>
</g>
</g>
<!-- Node2 -->
<g id="Node000002" class="node">
<title>Node2</title>
<g id="a_Node000002"><a xlink:href="classcom_1_1teragrep_1_1cfe__16_1_1response_1_1AcknowledgementResponse.html" target="_top" xlink:title=" ">
<polygon fill="white" stroke="#666666" points="370,-126 203,-126 203,-96 370,-96 370,-126"/>
<text text-anchor="start" x="211" y="-114" font-family="Helvetica,sans-Serif" font-size="10.00">com.teragrep.cfe_16.response.</text>
<text text-anchor="middle" x="286.5" y="-103" font-family="Helvetica,sans-Serif" font-size="10.00">AcknowledgementResponse</text>
</a>
</g>
</g>
<!-- Node0&#45;&gt;Node2 -->
<g id="edge16_Node000000_Node000002" class="edge">
<title>Node0&#45;&gt;Node2</title>
<g id="a_edge16_Node000000_Node000002"><a xlink:title=" ">
<path fill="none" stroke="#63b8ff" d="M177.15,-98.06C185.73,-99.09 194.39,-100.12 202.87,-101.13"/>
<polygon fill="#63b8ff" stroke="#63b8ff" points="177.47,-94.58 167.12,-96.87 176.64,-101.53 177.47,-94.58"/>
</a>
</g>
</g>
<!-- Node3 -->
<g id="Node000003" class="node">
<title>Node3</title>
<g id="a_Node000003"><a xlink:href="classcom_1_1teragrep_1_1cfe__16_1_1response_1_1ExceptionJsonResponse.html" target="_top" xlink:title=" ">
<polygon fill="white" stroke="#666666" points="370,-78 203,-78 203,-48 370,-48 370,-78"/>
<text text-anchor="start" x="211" y="-66" font-family="Helvetica,sans-Serif" font-size="10.00">com.teragrep.cfe_16.response.</text>
<text text-anchor="middle" x="286.5" y="-55" font-family="Helvetica,sans-Serif" font-size="10.00">ExceptionJsonResponse</text>
</a>
</g>
</g>
<!-- Node0&#45;&gt;Node3 -->
<g id="edge17_Node000000_Node000003" class="edge">
<title>Node0&#45;&gt;Node3</title>
<g id="a_edge17_Node000000_Node000003"><a xlink:title=" ">
<path fill="none" stroke="#63b8ff" d="M177.15,-75.94C185.73,-74.91 194.39,-73.88 202.87,-72.87"/>
<polygon fill="#63b8ff" stroke="#63b8ff" points="176.64,-72.47 167.12,-77.13 177.47,-79.42 176.64,-72.47"/>
</a>
</g>
</g>
<!-- Node4 -->
<g id="Node000004" class="node">
<title>Node4</title>
<g id="a_Node000004"><a xlink:href="classcom_1_1teragrep_1_1cfe__16_1_1response_1_1JsonResponse.html" target="_top" xlink:title=" ">
<polygon fill="white" stroke="#666666" points="370,-30 203,-30 203,0 370,0 370,-30"/>
<text text-anchor="start" x="211" y="-18" font-family="Helvetica,sans-Serif" font-size="10.00">com.teragrep.cfe_16.response.</text>
<text text-anchor="middle" x="286.5" y="-7" font-family="Helvetica,sans-Serif" font-size="10.00">JsonResponse</text>
</a>
</g>
</g>
<!-- Node0&#45;&gt;Node4 -->
<g id="edge18_Node000000_Node000004" class="edge">
<title>Node0&#45;&gt;Node4</title>
<g id="a_edge18_Node000000_Node000004"><a xlink:title=" ">
<path fill="none" stroke="#63b8ff" d="M128.36,-67.99C150.53,-58.7 177.97,-47.68 203,-39 211.88,-35.92 221.38,-32.9 230.67,-30.1"/>
<polygon fill="#63b8ff" stroke="#63b8ff" points="126.74,-64.88 118.89,-71.99 129.46,-71.32 126.74,-64.88"/>
</a>
</g>
</g>
</g>
</svg>
