<?xml version="1.0" encoding="UTF-8" standalone="no"?>
<!DOCTYPE svg PUBLIC "-//W3C//DTD SVG 1.1//EN"
 "http://www.w3.org/Graphics/SVG/1.1/DTD/svg11.dtd">
<!-- Generated by graphviz version 2.43.0 (0)
 -->
<!-- Title: Graphical Class Hierarchy Pages: 1 -->
<svg width="378pt" height="134pt"
 viewBox="0.00 0.00 378.00 134.00" xmlns="http://www.w3.org/2000/svg" xmlns:xlink="http://www.w3.org/1999/xlink">
<g id="graph0" class="graph" transform="scale(1 1) rotate(0) translate(4 130)">
<title>Graphical Class Hierarchy</title>
<!-- Node0 -->
<g id="Node000000" class="node">
<title>Node0</title>
<g id="a_Node000000"><a xlink:href="interfacecom_1_1teragrep_1_1cfe__16_1_1response_1_1Response.html" target="_top" xlink:title=" ">
<polygon fill="white" stroke="#666666" points="167,-78 0,-78 0,-48 167,-48 167,-78"/>
<text text-anchor="start" x="8" y="-66" font-family="Helvetica,sans-Serif" font-size="10.00">com.teragrep.cfe_16.response.</text>
<text text-anchor="middle" x="83.5" y="-55" font-family="Helvetica,sans-Serif" font-size="10.00">Response</text>
</a>
</g>
</g>
<!-- Node1 -->
<g id="Node000001" class="node">
<title>Node1</title>
<g id="a_Node000001"><a xlink:href="classcom_1_1teragrep_1_1cfe__16_1_1response_1_1AcknowledgedJsonResponse.html" target="_top" xlink:title=" ">
<polygon fill="white" stroke="#666666" points="370,-126 203,-126 203,-96 370,-96 370,-126"/>
<text text-anchor="start" x="211" y="-114" font-family="Helvetica,sans-Serif" font-size="10.00">com.teragrep.cfe_16.response.</text>
<text text-anchor="middle" x="286.5" y="-103" font-family="Helvetica,sans-Serif" font-size="10.00">AcknowledgedJsonResponse</text>
</a>
</g>
</g>
<!-- Node0&#45;&gt;Node1 -->
<g id="edge14_Node000000_Node000001" class="edge">
<title>Node0&#45;&gt;Node1</title>
<g id="a_edge14_Node000000_Node000001"><a xlink:title=" ">
<path fill="none" stroke="#63b8ff" d="M157.54,-80.44C178.88,-85.54 202.02,-91.07 222.68,-96"/>
<polygon fill="#63b8ff" stroke="#63b8ff" points="158.09,-76.97 147.55,-78.06 156.46,-83.78 158.09,-76.97"/>
</a>
</g>
</g>
<!-- Node2 -->
<g id="Node000002" class="node">
<title>Node2</title>
<g id="a_Node000002"><a xlink:href="classcom_1_1teragrep_1_1cfe__16_1_1response_1_1ExceptionJsonResponse.html" target="_top" xlink:title=" ">
<polygon fill="white" stroke="#666666" points="370,-78 203,-78 203,-48 370,-48 370,-78"/>
<text text-anchor="start" x="211" y="-66" font-family="Helvetica,sans-Serif" font-size="10.00">com.teragrep.cfe_16.response.</text>
<text text-anchor="middle" x="286.5" y="-55" font-family="Helvetica,sans-Serif" font-size="10.00">ExceptionJsonResponse</text>
</a>
</g>
</g>
<!-- Node0&#45;&gt;Node2 -->
<g id="edge15_Node000000_Node000002" class="edge">
<title>Node0&#45;&gt;Node2</title>
<g id="a_edge15_Node000000_Node000002"><a xlink:title=" ">
<path fill="none" stroke="#63b8ff" d="M177.15,-63C185.73,-63 194.39,-63 202.87,-63"/>
<polygon fill="#63b8ff" stroke="#63b8ff" points="177.12,-59.5 167.12,-63 177.12,-66.5 177.12,-59.5"/>
</a>
</g>
</g>
<!-- Node3 -->
<g id="Node000003" class="node">
<title>Node3</title>
<g id="a_Node000003"><a xlink:href="classcom_1_1teragrep_1_1cfe__16_1_1response_1_1JsonResponse.html" target="_top" xlink:title=" ">
<polygon fill="white" stroke="#666666" points="370,-30 203,-30 203,0 370,0 370,-30"/>
<text text-anchor="start" x="211" y="-18" font-family="Helvetica,sans-Serif" font-size="10.00">com.teragrep.cfe_16.response.</text>
<text text-anchor="middle" x="286.5" y="-7" font-family="Helvetica,sans-Serif" font-size="10.00">JsonResponse</text>
</a>
</g>
</g>
<!-- Node0&#45;&gt;Node3 -->
<g id="edge16_Node000000_Node000003" class="edge">
<title>Node0&#45;&gt;Node3</title>
<g id="a_edge16_Node000000_Node000003"><a xlink:title=" ">
<path fill="none" stroke="#63b8ff" d="M157.54,-45.56C178.88,-40.46 202.02,-34.93 222.68,-30"/>
<polygon fill="#63b8ff" stroke="#63b8ff" points="156.46,-42.22 147.55,-47.94 158.09,-49.03 156.46,-42.22"/>
</a>
</g>
</g>
</g>
</svg>
