<?xml version="1.0" encoding="UTF-8" standalone="no"?>
<!DOCTYPE svg PUBLIC "-//W3C//DTD SVG 1.1//EN"
 "http://www.w3.org/Graphics/SVG/1.1/DTD/svg11.dtd">
<!-- Generated by graphviz version 2.43.0 (0)
 -->
<!-- Title: Graphical Class Hierarchy Pages: 1 -->
<svg width="398pt" height="172pt"
 viewBox="0.00 0.00 398.00 171.50" xmlns="http://www.w3.org/2000/svg" xmlns:xlink="http://www.w3.org/1999/xlink">
<g id="graph0" class="graph" transform="scale(1 1) rotate(0) translate(4 167.5)">
<title>Graphical Class Hierarchy</title>
<!-- Node0 -->
<g id="Node000000" class="node">
<title>Node0</title>
<g id="a_Node000000"><a xlink:href="interfacecom_1_1teragrep_1_1cfe__16_1_1LifeCycle.html" target="_top" xlink:title="An interface that own resources like threads for doing graceful shutdown.">
<polygon fill="white" stroke="#666666" points="138,-147 0,-147 0,-117 138,-117 138,-147"/>
<text text-anchor="start" x="8" y="-135" font-family="Helvetica,sans-Serif" font-size="10.00">com.teragrep.cfe_16.Life</text>
<text text-anchor="middle" x="69" y="-124" font-family="Helvetica,sans-Serif" font-size="10.00">Cycle</text>
</a>
</g>
</g>
<!-- Node1 -->
<g id="Node000001" class="node">
<title>Node1</title>
<g id="a_Node000001"><a xlink:href="classcom_1_1teragrep_1_1cfe__16_1_1Acknowledgements.html" target="_top" xlink:title=" ">
<polygon fill="white" stroke="#666666" points="390,-163.5 174,-163.5 174,-144.5 390,-144.5 390,-163.5"/>
<text text-anchor="middle" x="282" y="-151.5" font-family="Helvetica,sans-Serif" font-size="10.00">com.teragrep.cfe_16.Acknowledgements</text>
</a>
</g>
</g>
<!-- Node0&#45;&gt;Node1 -->
<g id="edge7_Node000000_Node000001" class="edge">
<title>Node0&#45;&gt;Node1</title>
<g id="a_edge7_Node000000_Node000001"><a xlink:title=" ">
<path fill="none" stroke="#63b8ff" d="M148.35,-140.17C161.78,-141.57 175.84,-143.04 189.58,-144.47"/>
<polygon fill="#63b8ff" stroke="#63b8ff" points="148.52,-136.67 138.21,-139.11 147.8,-143.63 148.52,-136.67"/>
</a>
</g>
</g>
<!-- Node3 -->
<g id="Node000003" class="node">
<title>Node3</title>
<g id="a_Node000003"><a xlink:href="classcom_1_1teragrep_1_1cfe__16_1_1SessionManager.html" target="_top" xlink:title=" ">
<polygon fill="white" stroke="#666666" points="361,-126 203,-126 203,-96 361,-96 361,-126"/>
<text text-anchor="start" x="211" y="-114" font-family="Helvetica,sans-Serif" font-size="10.00">com.teragrep.cfe_16.Session</text>
<text text-anchor="middle" x="282" y="-103" font-family="Helvetica,sans-Serif" font-size="10.00">Manager</text>
</a>
</g>
</g>
<!-- Node0&#45;&gt;Node3 -->
<g id="edge8_Node000000_Node000003" class="edge">
<title>Node0&#45;&gt;Node3</title>
<g id="a_edge8_Node000000_Node000003"><a xlink:title=" ">
<path fill="none" stroke="#63b8ff" d="M148.51,-124.19C166.23,-122.42 185.04,-120.55 202.76,-118.79"/>
<polygon fill="#63b8ff" stroke="#63b8ff" points="147.82,-120.74 138.21,-125.21 148.51,-127.7 147.82,-120.74"/>
</a>
</g>
</g>
<!-- Node2 -->
<g id="Node000002" class="node">
<title>Node2</title>
<g id="a_Node000002"><a xlink:title=" ">
<polygon fill="#e0e0e0" stroke="#999999" points="100,-96.5 38,-96.5 38,-77.5 100,-77.5 100,-96.5"/>
<text text-anchor="middle" x="69" y="-84.5" font-family="Helvetica,sans-Serif" font-size="10.00">Runnable</text>
</a>
</g>
</g>
<!-- Node2&#45;&gt;Node1 -->
<g id="edge9_Node000002_Node000001" class="edge">
<title>Node2&#45;&gt;Node1</title>
<g id="a_edge9_Node000002_Node000001"><a xlink:title=" ">
<path fill="none" stroke="#63b8ff" d="M109.95,-96.83C119.4,-99.83 129.26,-103.54 138,-108 155.82,-117.08 155.65,-127.03 174,-135 183,-138.91 192.76,-142.01 202.59,-144.48"/>
<polygon fill="#63b8ff" stroke="#63b8ff" points="110.91,-93.46 100.32,-93.96 108.91,-100.17 110.91,-93.46"/>
</a>
</g>
</g>
<!-- Node2&#45;&gt;Node3 -->
<g id="edge10_Node000002_Node000003" class="edge">
<title>Node2&#45;&gt;Node3</title>
<g id="a_edge10_Node000002_Node000003"><a xlink:title=" ">
<path fill="none" stroke="#63b8ff" d="M110.48,-91.6C136.53,-94.57 171.26,-98.52 202.58,-102.08"/>
<polygon fill="#63b8ff" stroke="#63b8ff" points="110.56,-88.09 100.23,-90.44 109.77,-95.05 110.56,-88.09"/>
</a>
</g>
</g>
<!-- Node4 -->
<g id="Node000004" class="node">
<title>Node4</title>
<g id="a_Node000004"><a xlink:href="classcom_1_1teragrep_1_1cfe__16_1_1TestClient.html" target="_top" xlink:title="A multithreaded load test client for the cfe_16 server.">
<polygon fill="white" stroke="#666666" points="352,-78 212,-78 212,-48 352,-48 352,-78"/>
<text text-anchor="start" x="220" y="-66" font-family="Helvetica,sans-Serif" font-size="10.00">com.teragrep.cfe_16.Test</text>
<text text-anchor="middle" x="282" y="-55" font-family="Helvetica,sans-Serif" font-size="10.00">Client</text>
</a>
</g>
</g>
<!-- Node2&#45;&gt;Node4 -->
<g id="edge11_Node000002_Node000004" class="edge">
<title>Node2&#45;&gt;Node4</title>
<g id="a_edge11_Node000002_Node000004"><a xlink:title=" ">
<path fill="none" stroke="#63b8ff" d="M110.26,-82.42C138.87,-79.17 178.01,-74.71 211.6,-70.89"/>
<polygon fill="#63b8ff" stroke="#63b8ff" points="109.77,-78.95 100.23,-83.56 110.56,-85.91 109.77,-78.95"/>
</a>
</g>
</g>
<!-- Node5 -->
<g id="Node000005" class="node">
<title>Node5</title>
<g id="a_Node000005"><a xlink:href="classcom_1_1teragrep_1_1cfe__16_1_1it_1_1SendEventsIT.html" target="_top" xlink:title=" ">
<polygon fill="white" stroke="#666666" points="359,-30 205,-30 205,0 359,0 359,-30"/>
<text text-anchor="start" x="213" y="-18" font-family="Helvetica,sans-Serif" font-size="10.00">com.teragrep.cfe_16.it.Send</text>
<text text-anchor="middle" x="282" y="-7" font-family="Helvetica,sans-Serif" font-size="10.00">EventsIT</text>
</a>
</g>
</g>
<!-- Node2&#45;&gt;Node5 -->
<g id="edge12_Node000002_Node000005" class="edge">
<title>Node2&#45;&gt;Node5</title>
<g id="a_edge12_Node000002_Node000005"><a xlink:title=" ">
<path fill="none" stroke="#63b8ff" d="M96.65,-72.79C117.29,-62.26 146.85,-48.2 174,-39 183.83,-35.67 194.32,-32.67 204.75,-30.01"/>
<polygon fill="#63b8ff" stroke="#63b8ff" points="94.84,-69.79 87.56,-77.49 98.05,-76 94.84,-69.79"/>
</a>
</g>
</g>
</g>
</svg>
