<?xml version="1.0" encoding="UTF-8" standalone="no"?>
<!DOCTYPE svg PUBLIC "-//W3C//DTD SVG 1.1//EN"
 "http://www.w3.org/Graphics/SVG/1.1/DTD/svg11.dtd">
<!-- Generated by graphviz version 2.43.0 (0)
 -->
<!-- Title: Graphical Class Hierarchy Pages: 1 -->
<svg width="398pt" height="98pt"
 viewBox="0.00 0.00 398.00 97.50" xmlns="http://www.w3.org/2000/svg" xmlns:xlink="http://www.w3.org/1999/xlink">
<g id="graph0" class="graph" transform="scale(1 1) rotate(0) translate(4 93.5)">
<title>Graphical Class Hierarchy</title>
<!-- Node0 -->
<g id="Node000000" class="node">
<title>Node0</title>
<g id="a_Node000000"><a xlink:title=" ">
<polygon fill="#e0e0e0" stroke="#999999" points="167,-78.5 0,-78.5 0,-59.5 167,-59.5 167,-78.5"/>
<text text-anchor="middle" x="83.5" y="-66.5" font-family="Helvetica,sans-Serif" font-size="10.00">AbstractSyslogMessageSender</text>
</a>
</g>
</g>
<!-- Node1 -->
<g id="Node000001" class="node">
<title>Node1</title>
<g id="a_Node000001"><a xlink:href="classcom_1_1teragrep_1_1cfe__16_1_1ThirdParty_1_1SyslogMessageSender_1_1SyslogMessageSender.html" target="_top" xlink:title="See RFC 6587 &#45; Transmission of Syslog Messages over TCP">
<polygon fill="white" stroke="#666666" points="390,-89.5 203,-89.5 203,-48.5 390,-48.5 390,-89.5"/>
<text text-anchor="start" x="211" y="-77.5" font-family="Helvetica,sans-Serif" font-size="10.00">com.teragrep.cfe_16.Third</text>
<text text-anchor="start" x="211" y="-66.5" font-family="Helvetica,sans-Serif" font-size="10.00">Party.SyslogMessageSender.Syslog</text>
<text text-anchor="middle" x="296.5" y="-55.5" font-family="Helvetica,sans-Serif" font-size="10.00">MessageSender</text>
</a>
</g>
</g>
<!-- Node0&#45;&gt;Node1 -->
<g id="edge1_Node000000_Node000001" class="edge">
<title>Node0&#45;&gt;Node1</title>
<g id="a_edge1_Node000000_Node000001"><a xlink:title=" ">
<path fill="none" stroke="#63b8ff" d="M177.48,-69C185.9,-69 194.42,-69 202.83,-69"/>
<polygon fill="#63b8ff" stroke="#63b8ff" points="177.29,-65.5 167.29,-69 177.29,-72.5 177.29,-65.5"/>
</a>
</g>
</g>
<!-- Node2 -->
<g id="Node000002" class="node">
<title>Node2</title>
<g id="a_Node000002"><a xlink:title=" ">
<polygon fill="#e0e0e0" stroke="#999999" points="116,-33.5 51,-33.5 51,-14.5 116,-14.5 116,-33.5"/>
<text text-anchor="middle" x="83.5" y="-21.5" font-family="Helvetica,sans-Serif" font-size="10.00">Closeable</text>
</a>
</g>
</g>
<!-- Node2&#45;&gt;Node1 -->
<g id="edge2_Node000002_Node000001" class="edge">
<title>Node2&#45;&gt;Node1</title>
<g id="a_edge2_Node000002_Node000001"><a xlink:title=" ">
<path fill="none" stroke="#63b8ff" d="M126.07,-32.87C148.09,-37.56 176.06,-43.53 202.91,-49.25"/>
<polygon fill="#63b8ff" stroke="#63b8ff" points="126.6,-29.4 116.09,-30.74 125.14,-36.25 126.6,-29.4"/>
</a>
</g>
</g>
<!-- Node3 -->
<g id="Node000003" class="node">
<title>Node3</title>
<g id="a_Node000003"><a xlink:href="classcom_1_1teragrep_1_1cfe__16_1_1connection_1_1RelpConnection.html" target="_top" xlink:title=" ">
<polygon fill="white" stroke="#666666" points="384.5,-30 208.5,-30 208.5,0 384.5,0 384.5,-30"/>
<text text-anchor="start" x="216.5" y="-18" font-family="Helvetica,sans-Serif" font-size="10.00">com.teragrep.cfe_16.connection.</text>
<text text-anchor="middle" x="296.5" y="-7" font-family="Helvetica,sans-Serif" font-size="10.00">RelpConnection</text>
</a>
</g>
</g>
<!-- Node2&#45;&gt;Node3 -->
<g id="edge3_Node000002_Node000003" class="edge">
<title>Node2&#45;&gt;Node3</title>
<g id="a_edge3_Node000002_Node000003"><a xlink:title=" ">
<path fill="none" stroke="#63b8ff" d="M126.38,-22.21C149.87,-21.21 180.09,-19.92 208.46,-18.71"/>
<polygon fill="#63b8ff" stroke="#63b8ff" points="125.93,-18.73 116.09,-22.65 126.23,-25.72 125.93,-18.73"/>
</a>
</g>
</g>
</g>
</svg>
