<?xml version="1.0" encoding="UTF-8" standalone="no"?>
<!DOCTYPE svg PUBLIC "-//W3C//DTD SVG 1.1//EN"
 "http://www.w3.org/Graphics/SVG/1.1/DTD/svg11.dtd">
<!-- Generated by graphviz version 2.43.0 (0)
 -->
<!-- Title: com.teragrep.cfe_16.bo.XForwardedHost Pages: 1 -->
<svg width="651pt" height="86pt"
 viewBox="0.00 0.00 651.00 86.00" xmlns="http://www.w3.org/2000/svg" xmlns:xlink="http://www.w3.org/1999/xlink">
<g id="graph0" class="graph" transform="scale(1 1) rotate(0) translate(4 82)">
<title>com.teragrep.cfe_16.bo.XForwardedHost</title>
<!-- Node1 -->
<g id="Node000001" class="node">
<title>Node1</title>
<g id="a_Node000001"><a xlink:title=" ">
<polygon fill="#999999" stroke="#666666" points="414,-48.5 199,-48.5 199,-29.5 414,-29.5 414,-48.5"/>
<text text-anchor="middle" x="306.5" y="-36.5" font-family="Helvetica,sans-Serif" font-size="10.00">com.teragrep.cfe_16.bo.XForwardedHost</text>
</a>
</g>
</g>
<!-- Node3 -->
<g id="Node000003" class="node">
<title>Node3</title>
<g id="a_Node000003"><a xlink:href="classcom_1_1teragrep_1_1cfe__16_1_1bo_1_1XForwardedHostImpl.html" target="_top" xlink:title=" ">
<polygon fill="white" stroke="#666666" points="643,-78 450,-78 450,-48 643,-48 643,-78"/>
<text text-anchor="start" x="458" y="-66" font-family="Helvetica,sans-Serif" font-size="10.00">com.teragrep.cfe_16.bo.XForwarded</text>
<text text-anchor="middle" x="546.5" y="-55" font-family="Helvetica,sans-Serif" font-size="10.00">HostImpl</text>
</a>
</g>
</g>
<!-- Node1&#45;&gt;Node3 -->
<g id="edge2_Node000001_Node000003" class="edge">
<title>Node1&#45;&gt;Node3</title>
<g id="a_edge2_Node000001_Node000003"><a xlink:title=" ">
<path fill="none" stroke="#63b8ff" d="M411.91,-49.53C424.46,-50.79 437.23,-52.08 449.65,-53.33"/>
<polygon fill="#63b8ff" stroke="#63b8ff" points="412.21,-46.04 401.91,-48.52 411.5,-53.01 412.21,-46.04"/>
</a>
</g>
</g>
<!-- Node4 -->
<g id="Node000004" class="node">
<title>Node4</title>
<g id="a_Node000004"><a xlink:href="classcom_1_1teragrep_1_1cfe__16_1_1bo_1_1XForwardedHostStub.html" target="_top" xlink:title=" ">
<polygon fill="white" stroke="#666666" points="643,-30 450,-30 450,0 643,0 643,-30"/>
<text text-anchor="start" x="458" y="-18" font-family="Helvetica,sans-Serif" font-size="10.00">com.teragrep.cfe_16.bo.XForwarded</text>
<text text-anchor="middle" x="546.5" y="-7" font-family="Helvetica,sans-Serif" font-size="10.00">HostStub</text>
</a>
</g>
</g>
<!-- Node1&#45;&gt;Node4 -->
<g id="edge3_Node000001_Node000004" class="edge">
<title>Node1&#45;&gt;Node4</title>
<g id="a_edge3_Node000001_Node000004"><a xlink:title=" ">
<path fill="none" stroke="#63b8ff" d="M411.91,-28.47C424.46,-27.21 437.23,-25.92 449.65,-24.67"/>
<polygon fill="#63b8ff" stroke="#63b8ff" points="411.5,-24.99 401.91,-29.48 412.21,-31.96 411.5,-24.99"/>
</a>
</g>
</g>
<!-- Node2 -->
<g id="Node000002" class="node">
<title>Node2</title>
<g id="a_Node000002"><a xlink:href="interfacecom_1_1teragrep_1_1cfe__16_1_1Stubable.html" target="_top" xlink:title=" ">
<polygon fill="white" stroke="#666666" points="163,-48.5 0,-48.5 0,-29.5 163,-29.5 163,-48.5"/>
<text text-anchor="middle" x="81.5" y="-36.5" font-family="Helvetica,sans-Serif" font-size="10.00">com.teragrep.cfe_16.Stubable</text>
</a>
</g>
</g>
<!-- Node2&#45;&gt;Node1 -->
<g id="edge1_Node000001_Node000002" class="edge">
<title>Node2&#45;&gt;Node1</title>
<g id="a_edge1_Node000001_Node000002"><a xlink:title=" ">
<path fill="none" stroke="#63b8ff" d="M173.18,-39C181.59,-39 190.17,-39 198.71,-39"/>
<polygon fill="#63b8ff" stroke="#63b8ff" points="173.01,-35.5 163.01,-39 173.01,-42.5 173.01,-35.5"/>
</a>
</g>
</g>
</g>
</svg>
