<?xml version="1.0" encoding="UTF-8" standalone="no"?>
<!DOCTYPE svg PUBLIC "-//W3C//DTD SVG 1.1//EN"
 "http://www.w3.org/Graphics/SVG/1.1/DTD/svg11.dtd">
<!-- Generated by graphviz version 2.43.0 (0)
 -->
<!-- Title: com.teragrep.cfe_16.event.time.HECTimeImplWithFallback.isParsed Pages: 1 -->
<svg width="429pt" height="76pt"
 viewBox="0.00 0.00 429.00 75.50" xmlns="http://www.w3.org/2000/svg" xmlns:xlink="http://www.w3.org/1999/xlink">
<g id="graph0" class="graph" transform="scale(1 1) rotate(0) translate(4 71.5)">
<title>com.teragrep.cfe_16.event.time.HECTimeImplWithFallback.isParsed</title>
<!-- Node1 -->
<g id="Node000001" class="node">
<title>Node1</title>
<g id="a_Node000001"><a xlink:title=" ">
<polygon fill="#999999" stroke="#666666" points="189,-45.5 0,-45.5 0,-15.5 189,-15.5 189,-45.5"/>
<text text-anchor="start" x="8" y="-33.5" font-family="Helvetica,sans-Serif" font-size="10.00">com.teragrep.cfe_16.event.time.</text>
<text text-anchor="middle" x="94.5" y="-22.5" font-family="Helvetica,sans-Serif" font-size="10.00">HECTimeImplWithFallback.isParsed</text>
</a>
</g>
</g>
<!-- Node2 -->
<g id="Node000002" class="node">
<title>Node2</title>
<g id="a_Node000002"><a xlink:href="interfacecom_1_1teragrep_1_1cfe__16_1_1event_1_1time_1_1HECTime.html#a985d8867343a32c6732932ce02f37e94" target="_top" xlink:title=" ">
<polygon fill="white" stroke="#666666" points="411,-67.5 235,-67.5 235,-37.5 411,-37.5 411,-67.5"/>
<text text-anchor="start" x="243" y="-55.5" font-family="Helvetica,sans-Serif" font-size="10.00">com.teragrep.cfe_16.event.time.</text>
<text text-anchor="middle" x="323" y="-44.5" font-family="Helvetica,sans-Serif" font-size="10.00">HECTime.isParsed</text>
</a>
</g>
</g>
<!-- Node1&#45;&gt;Node2 -->
<g id="edge1_Node000001_Node000002" class="edge">
<title>Node1&#45;&gt;Node2</title>
<g id="a_edge1_Node000001_Node000002"><a xlink:title=" ">
<path fill="none" stroke="#63b8ff" d="M189.26,-39.61C200.93,-40.74 212.89,-41.9 224.62,-43.04"/>
<polygon fill="#63b8ff" stroke="#63b8ff" points="224.56,-46.55 234.85,-44.03 225.23,-39.58 224.56,-46.55"/>
</a>
</g>
</g>
<!-- Node3 -->
<g id="Node000003" class="node">
<title>Node3</title>
<g id="a_Node000003"><a xlink:href="interfacecom_1_1teragrep_1_1cfe__16_1_1Stubable.html#a8e854db1814eeb807cd9049776c33923" target="_top" xlink:title=" ">
<polygon fill="white" stroke="#666666" points="421,-19 225,-19 225,0 421,0 421,-19"/>
<text text-anchor="middle" x="323" y="-7" font-family="Helvetica,sans-Serif" font-size="10.00">com.teragrep.cfe_16.Stubable.isStub</text>
</a>
</g>
</g>
<!-- Node1&#45;&gt;Node3 -->
<g id="edge2_Node000001_Node000003" class="edge">
<title>Node1&#45;&gt;Node3</title>
<g id="a_edge2_Node000001_Node000003"><a xlink:title=" ">
<path fill="none" stroke="#63b8ff" d="M189.26,-21.81C197.57,-21.04 206.02,-20.25 214.43,-19.47"/>
<polygon fill="#63b8ff" stroke="#63b8ff" points="215.02,-22.93 224.65,-18.53 214.37,-15.96 215.02,-22.93"/>
</a>
</g>
</g>
</g>
</svg>
