<?xml version="1.0" encoding="UTF-8" standalone="no"?>
<!DOCTYPE svg PUBLIC "-//W3C//DTD SVG 1.1//EN"
 "http://www.w3.org/Graphics/SVG/1.1/DTD/svg11.dtd">
<!-- Generated by graphviz version 2.43.0 (0)
 -->
<!-- Title: com.teragrep.cfe_16.TestClient.getReader Pages: 1 -->
<svg width="792pt" height="350pt"
 viewBox="0.00 0.00 792.00 349.50" xmlns="http://www.w3.org/2000/svg" xmlns:xlink="http://www.w3.org/1999/xlink">
<g id="graph0" class="graph" transform="scale(1 1) rotate(0) translate(4 345.5)">
<title>com.teragrep.cfe_16.TestClient.getReader</title>
<!-- Node1 -->
<g id="Node000001" class="node">
<title>Node1</title>
<g id="a_Node000001"><a xlink:title=" ">
<polygon fill="#999999" stroke="#666666" points="784,-186 644,-186 644,-156 784,-156 784,-186"/>
<text text-anchor="start" x="652" y="-174" font-family="Helvetica,sans-Serif" font-size="10.00">com.teragrep.cfe_16.Test</text>
<text text-anchor="middle" x="714" y="-163" font-family="Helvetica,sans-Serif" font-size="10.00">Client.getReader</text>
</a>
</g>
</g>
<!-- Node2 -->
<g id="Node000002" class="node">
<title>Node2</title>
<g id="a_Node000002"><a xlink:href="classcom_1_1teragrep_1_1cfe__16_1_1TestClient.html#a9e085118b18a5952fb6c4e702b0bbc8b" target="_top" xlink:title=" ">
<polygon fill="white" stroke="#666666" points="608,-186 434,-186 434,-156 608,-156 608,-186"/>
<text text-anchor="start" x="442" y="-174" font-family="Helvetica,sans-Serif" font-size="10.00">com.teragrep.cfe_16.Test</text>
<text text-anchor="middle" x="521" y="-163" font-family="Helvetica,sans-Serif" font-size="10.00">Client.doRequestAndVerifyReply</text>
</a>
</g>
</g>
<!-- Node1&#45;&gt;Node2 -->
<g id="edge1_Node000001_Node000002" class="edge">
<title>Node1&#45;&gt;Node2</title>
<g id="a_edge1_Node000001_Node000002"><a xlink:title=" ">
<path fill="none" stroke="#63b8ff" d="M633.66,-171C625.27,-171 616.72,-171 608.27,-171"/>
<polygon fill="#63b8ff" stroke="#63b8ff" points="633.77,-174.5 643.77,-171 633.77,-167.5 633.77,-174.5"/>
</a>
</g>
</g>
<!-- Node3 -->
<g id="Node000003" class="node">
<title>Node3</title>
<g id="a_Node000003"><a xlink:href="classcom_1_1teragrep_1_1cfe__16_1_1TestClient.html#a9c2d967534908ef205ef5d27459ffb2a" target="_top" xlink:title=" ">
<polygon fill="white" stroke="#666666" points="368.5,-341.5 205.5,-341.5 205.5,-300.5 368.5,-300.5 368.5,-341.5"/>
<text text-anchor="start" x="213.5" y="-329.5" font-family="Helvetica,sans-Serif" font-size="10.00">com.teragrep.cfe_16.Test</text>
<text text-anchor="start" x="213.5" y="-318.5" font-family="Helvetica,sans-Serif" font-size="10.00">Client.testGetAcksWithInvalid</text>
<text text-anchor="middle" x="287" y="-307.5" font-family="Helvetica,sans-Serif" font-size="10.00">Channel</text>
</a>
</g>
</g>
<!-- Node2&#45;&gt;Node3 -->
<g id="edge2_Node000002_Node000003" class="edge">
<title>Node2&#45;&gt;Node3</title>
<g id="a_edge2_Node000002_Node000003"><a xlink:title=" ">
<path fill="none" stroke="#63b8ff" d="M502.63,-194.18C481.05,-221.36 441.69,-265.88 398,-291 388.9,-296.23 378.86,-300.58 368.65,-304.19"/>
<polygon fill="#63b8ff" stroke="#63b8ff" points="505.61,-196.05 509,-186.01 500.09,-191.75 505.61,-196.05"/>
</a>
</g>
</g>
<!-- Node5 -->
<g id="Node000005" class="node">
<title>Node5</title>
<g id="a_Node000005"><a xlink:href="classcom_1_1teragrep_1_1cfe__16_1_1TestClient.html#a69a3a4168d422752fdaaadd5c5cd790f" target="_top" xlink:title=" ">
<polygon fill="white" stroke="#666666" points="379.5,-282 194.5,-282 194.5,-252 379.5,-252 379.5,-282"/>
<text text-anchor="start" x="202.5" y="-270" font-family="Helvetica,sans-Serif" font-size="10.00">com.teragrep.cfe_16.Test</text>
<text text-anchor="middle" x="287" y="-259" font-family="Helvetica,sans-Serif" font-size="10.00">Client.testGetAcksWithoutChannel</text>
</a>
</g>
</g>
<!-- Node2&#45;&gt;Node5 -->
<g id="edge4_Node000002_Node000005" class="edge">
<title>Node2&#45;&gt;Node5</title>
<g id="a_edge4_Node000002_Node000005"><a xlink:title=" ">
<path fill="none" stroke="#63b8ff" d="M490.76,-191.88C466.86,-208.03 431.64,-229.8 398,-243 389.36,-246.39 380.13,-249.35 370.85,-251.92"/>
<polygon fill="#63b8ff" stroke="#63b8ff" points="492.76,-194.75 499.03,-186.21 488.81,-188.97 492.76,-194.75"/>
</a>
</g>
</g>
<!-- Node6 -->
<g id="Node000006" class="node">
<title>Node6</title>
<g id="a_Node000006"><a xlink:href="classcom_1_1teragrep_1_1cfe__16_1_1TestClient.html#ad130088aff54cc3f8c81520b483c5e0b" target="_top" xlink:title=" ">
<polygon fill="white" stroke="#666666" points="357,-234 217,-234 217,-204 357,-204 357,-234"/>
<text text-anchor="start" x="225" y="-222" font-family="Helvetica,sans-Serif" font-size="10.00">com.teragrep.cfe_16.Test</text>
<text text-anchor="middle" x="287" y="-211" font-family="Helvetica,sans-Serif" font-size="10.00">Client.testSendEvent</text>
</a>
</g>
</g>
<!-- Node2&#45;&gt;Node6 -->
<g id="edge6_Node000002_Node000006" class="edge">
<title>Node2&#45;&gt;Node6</title>
<g id="a_edge6_Node000002_Node000006"><a xlink:title=" ">
<path fill="none" stroke="#63b8ff" d="M437.33,-188.1C411.15,-193.52 382.49,-199.45 357.34,-204.65"/>
<polygon fill="#63b8ff" stroke="#63b8ff" points="438.15,-191.51 447.23,-186.06 436.73,-184.65 438.15,-191.51"/>
</a>
</g>
</g>
<!-- Node7 -->
<g id="Node000007" class="node">
<title>Node7</title>
<g id="a_Node000007"><a xlink:href="classcom_1_1teragrep_1_1cfe__16_1_1TestClient.html#a28b7521af8099aa24e934d2d7f219305" target="_top" xlink:title=" ">
<polygon fill="white" stroke="#666666" points="372,-186 202,-186 202,-156 372,-156 372,-186"/>
<text text-anchor="start" x="210" y="-174" font-family="Helvetica,sans-Serif" font-size="10.00">com.teragrep.cfe_16.Test</text>
<text text-anchor="middle" x="287" y="-163" font-family="Helvetica,sans-Serif" font-size="10.00">Client.testSendEventWithAckID</text>
</a>
</g>
</g>
<!-- Node2&#45;&gt;Node7 -->
<g id="edge8_Node000002_Node000007" class="edge">
<title>Node2&#45;&gt;Node7</title>
<g id="a_edge8_Node000002_Node000007"><a xlink:title=" ">
<path fill="none" stroke="#63b8ff" d="M423.47,-171C406.51,-171 388.97,-171 372.38,-171"/>
<polygon fill="#63b8ff" stroke="#63b8ff" points="423.94,-174.5 433.94,-171 423.94,-167.5 423.94,-174.5"/>
</a>
</g>
</g>
<!-- Node8 -->
<g id="Node000008" class="node">
<title>Node8</title>
<g id="a_Node000008"><a xlink:href="classcom_1_1teragrep_1_1cfe__16_1_1TestClient.html#a243cd15a09a303384ac53f15266c45e7" target="_top" xlink:title=" ">
<polygon fill="white" stroke="#666666" points="371.5,-137.5 202.5,-137.5 202.5,-96.5 371.5,-96.5 371.5,-137.5"/>
<text text-anchor="start" x="210.5" y="-125.5" font-family="Helvetica,sans-Serif" font-size="10.00">com.teragrep.cfe_16.Test</text>
<text text-anchor="start" x="210.5" y="-114.5" font-family="Helvetica,sans-Serif" font-size="10.00">Client.testSendEventWithBlank</text>
<text text-anchor="middle" x="287" y="-103.5" font-family="Helvetica,sans-Serif" font-size="10.00">EventField</text>
</a>
</g>
</g>
<!-- Node2&#45;&gt;Node8 -->
<g id="edge10_Node000002_Node000008" class="edge">
<title>Node2&#45;&gt;Node8</title>
<g id="a_edge10_Node000002_Node000008"><a xlink:title=" ">
<path fill="none" stroke="#63b8ff" d="M445.48,-153.66C422,-148.19 395.91,-142.12 371.82,-136.51"/>
<polygon fill="#63b8ff" stroke="#63b8ff" points="444.84,-157.1 455.38,-155.96 446.43,-150.28 444.84,-157.1"/>
</a>
</g>
</g>
<!-- Node9 -->
<g id="Node000009" class="node">
<title>Node9</title>
<g id="a_Node000009"><a xlink:href="classcom_1_1teragrep_1_1cfe__16_1_1TestClient.html#ab21f9e0639df4e95228404e94a6981a8" target="_top" xlink:title=" ">
<polygon fill="white" stroke="#666666" points="398,-78 176,-78 176,-48 398,-48 398,-78"/>
<text text-anchor="start" x="184" y="-66" font-family="Helvetica,sans-Serif" font-size="10.00">com.teragrep.cfe_16.Test</text>
<text text-anchor="middle" x="287" y="-55" font-family="Helvetica,sans-Serif" font-size="10.00">Client.testSendEventWithoutAuthorization</text>
</a>
</g>
</g>
<!-- Node2&#45;&gt;Node9 -->
<g id="edge12_Node000002_Node000009" class="edge">
<title>Node2&#45;&gt;Node9</title>
<g id="a_edge12_Node000002_Node000009"><a xlink:title=" ">
<path fill="none" stroke="#63b8ff" d="M494.49,-149.42C470.91,-130.53 434.14,-103.73 398,-88 389.11,-84.13 379.55,-80.82 369.9,-78.01"/>
<polygon fill="#63b8ff" stroke="#63b8ff" points="492.3,-152.14 502.26,-155.73 496.71,-146.71 492.3,-152.14"/>
</a>
</g>
</g>
<!-- Node10 -->
<g id="Node000010" class="node">
<title>Node10</title>
<g id="a_Node000010"><a xlink:href="classcom_1_1teragrep_1_1cfe__16_1_1TestClient.html#ac04d2efab8deede690e209bd346c4aa3" target="_top" xlink:title=" ">
<polygon fill="white" stroke="#666666" points="391,-30 183,-30 183,0 391,0 391,-30"/>
<text text-anchor="start" x="191" y="-18" font-family="Helvetica,sans-Serif" font-size="10.00">com.teragrep.cfe_16.Test</text>
<text text-anchor="middle" x="287" y="-7" font-family="Helvetica,sans-Serif" font-size="10.00">Client.testSendEventWithoutEventField</text>
</a>
</g>
</g>
<!-- Node2&#45;&gt;Node10 -->
<g id="edge14_Node000002_Node000010" class="edge">
<title>Node2&#45;&gt;Node10</title>
<g id="a_edge14_Node000002_Node000010"><a xlink:title=" ">
<path fill="none" stroke="#63b8ff" d="M504.97,-147.35C484.55,-117.26 445.13,-65.97 398,-39 391.98,-35.55 385.51,-32.6 378.84,-30.07"/>
<polygon fill="#63b8ff" stroke="#63b8ff" points="502.24,-149.56 510.69,-155.95 508.07,-145.69 502.24,-149.56"/>
</a>
</g>
</g>
<!-- Node4 -->
<g id="Node000004" class="node">
<title>Node4</title>
<g id="a_Node000004"><a xlink:href="classcom_1_1teragrep_1_1cfe__16_1_1TestClient.html#a1644a9844dc9e999e117f4bcf82346a0" target="_top" xlink:title=" ">
<polygon fill="white" stroke="#666666" points="140,-186 0,-186 0,-156 140,-156 140,-186"/>
<text text-anchor="start" x="8" y="-174" font-family="Helvetica,sans-Serif" font-size="10.00">com.teragrep.cfe_16.Test</text>
<text text-anchor="middle" x="70" y="-163" font-family="Helvetica,sans-Serif" font-size="10.00">Client.run</text>
</a>
</g>
</g>
<!-- Node3&#45;&gt;Node4 -->
<g id="edge3_Node000003_Node000004" class="edge">
<title>Node3&#45;&gt;Node4</title>
<g id="a_edge3_Node000003_Node000004"><a xlink:title=" ">
<path fill="none" stroke="#63b8ff" d="M195.74,-301.18C188.84,-298.23 182.17,-294.86 176,-291 131.88,-263.39 95.93,-211.62 79.95,-186.06"/>
<polygon fill="#63b8ff" stroke="#63b8ff" points="194.67,-304.52 205.26,-304.93 197.24,-298 194.67,-304.52"/>
</a>
</g>
</g>
<!-- Node5&#45;&gt;Node4 -->
<g id="edge5_Node000005_Node000004" class="edge">
<title>Node5&#45;&gt;Node4</title>
<g id="a_edge5_Node000005_Node000004"><a xlink:title=" ">
<path fill="none" stroke="#63b8ff" d="M191.51,-248.93C186.19,-247.13 180.99,-245.16 176,-243 142.32,-228.44 108.17,-202.49 88.32,-186.04"/>
<polygon fill="#63b8ff" stroke="#63b8ff" points="190.58,-252.31 201.17,-251.99 192.69,-245.63 190.58,-252.31"/>
</a>
</g>
</g>
<!-- Node6&#45;&gt;Node4 -->
<g id="edge7_Node000006_Node000004" class="edge">
<title>Node6&#45;&gt;Node4</title>
<g id="a_edge7_Node000006_Node000004"><a xlink:title=" ">
<path fill="none" stroke="#63b8ff" d="M206.84,-201.83C196.46,-199.55 185.97,-197.23 176,-195 163.13,-192.13 149.39,-189.01 136.23,-186.02"/>
<polygon fill="#63b8ff" stroke="#63b8ff" points="206.22,-205.27 216.74,-204 207.72,-198.44 206.22,-205.27"/>
</a>
</g>
</g>
<!-- Node7&#45;&gt;Node4 -->
<g id="edge9_Node000007_Node000004" class="edge">
<title>Node7&#45;&gt;Node4</title>
<g id="a_edge9_Node000007_Node000004"><a xlink:title=" ">
<path fill="none" stroke="#63b8ff" d="M191.78,-171C174.4,-171 156.54,-171 140.07,-171"/>
<polygon fill="#63b8ff" stroke="#63b8ff" points="191.95,-174.5 201.95,-171 191.95,-167.5 191.95,-174.5"/>
</a>
</g>
</g>
<!-- Node8&#45;&gt;Node4 -->
<g id="edge11_Node000008_Node000004" class="edge">
<title>Node8&#45;&gt;Node4</title>
<g id="a_edge11_Node000008_Node000004"><a xlink:title=" ">
<path fill="none" stroke="#63b8ff" d="M194.33,-140.03C172.88,-145.41 150.58,-151.01 130.94,-155.95"/>
<polygon fill="#63b8ff" stroke="#63b8ff" points="195.26,-143.4 204.1,-137.57 193.55,-136.61 195.26,-143.4"/>
</a>
</g>
</g>
<!-- Node9&#45;&gt;Node4 -->
<g id="edge13_Node000009_Node000004" class="edge">
<title>Node9&#45;&gt;Node4</title>
<g id="a_edge13_Node000009_Node000004"><a xlink:title=" ">
<path fill="none" stroke="#63b8ff" d="M192.27,-81.23C186.67,-83.26 181.21,-85.51 176,-88 139.74,-105.35 104.53,-137.15 85.52,-155.95"/>
<polygon fill="#63b8ff" stroke="#63b8ff" points="193.43,-84.53 201.78,-78.02 191.19,-77.9 193.43,-84.53"/>
</a>
</g>
</g>
<!-- Node10&#45;&gt;Node4 -->
<g id="edge15_Node000010_Node000004" class="edge">
<title>Node10&#45;&gt;Node4</title>
<g id="a_edge15_Node000010_Node000004"><a xlink:title=" ">
<path fill="none" stroke="#63b8ff" d="M184.63,-34.17C181.67,-35.66 178.78,-37.27 176,-39 128.27,-68.71 93.07,-128.11 78.46,-155.95"/>
<polygon fill="#63b8ff" stroke="#63b8ff" points="186.1,-37.35 193.76,-30.03 183.2,-30.98 186.1,-37.35"/>
</a>
</g>
</g>
</g>
</svg>
