<?xml version="1.0" encoding="UTF-8" standalone="no"?>
<!DOCTYPE svg PUBLIC "-//W3C//DTD SVG 1.1//EN"
 "http://www.w3.org/Graphics/SVG/1.1/DTD/svg11.dtd">
<!-- Generated by graphviz version 2.43.0 (0)
 -->
<!-- Title: com.teragrep.cfe_16.service.HECServiceImpl.sendEvents Pages: 1 -->
<svg width="1046pt" height="421pt"
 viewBox="0.00 0.00 1046.00 420.58" xmlns="http://www.w3.org/2000/svg" xmlns:xlink="http://www.w3.org/1999/xlink">
<g id="graph0" class="graph" transform="scale(1 1) rotate(0) translate(4 416.58)">
<title>com.teragrep.cfe_16.service.HECServiceImpl.sendEvents</title>
<!-- Node1 -->
<g id="Node000001" class="node">
<title>Node1</title>
<g id="a_Node000001"><a xlink:title="Returns the JSON object as a response of given HTTP event request.">
<polygon fill="#999999" stroke="#666666" points="158,-222 0,-222 0,-192 158,-192 158,-222"/>
<text text-anchor="start" x="8" y="-210" font-family="Helvetica,sans-Serif" font-size="10.00">com.teragrep.cfe_16.service.</text>
<text text-anchor="middle" x="79" y="-199" font-family="Helvetica,sans-Serif" font-size="10.00">HECServiceImpl.sendEvents</text>
</a>
</g>
</g>
<!-- Node2 -->
<g id="Node000002" class="node">
<title>Node2</title>
<g id="a_Node000002"><a xlink:href="classcom_1_1teragrep_1_1cfe__16_1_1Acknowledgements.html#a8c6f0dff735fde04e0bc670136eb57d2" target="_top" xlink:title=" ">
<polygon fill="white" stroke="#666666" points="783,-393.5 499,-393.5 499,-374.5 783,-374.5 783,-393.5"/>
<text text-anchor="middle" x="641" y="-381.5" font-family="Helvetica,sans-Serif" font-size="10.00">com.teragrep.cfe_16.Acknowledgements.acknowledge</text>
</a>
</g>
</g>
<!-- Node1&#45;&gt;Node2 -->
<g id="edge1_Node000001_Node000002" class="edge">
<title>Node1&#45;&gt;Node2</title>
<g id="a_edge1_Node000001_Node000002"><a xlink:title=" ">
<path fill="none" stroke="#63b8ff" d="M85.53,-222.01C98.54,-254.92 134.59,-332.99 194,-365 321.81,-433.86 501.39,-412.12 588.54,-395.5"/>
<polygon fill="#63b8ff" stroke="#63b8ff" points="589.3,-398.91 598.44,-393.55 587.96,-392.04 589.3,-398.91"/>
</a>
</g>
</g>
<!-- Node4 -->
<g id="Node000004" class="node">
<title>Node4</title>
<g id="a_Node000004"><a xlink:href="classcom_1_1teragrep_1_1cfe__16_1_1Acknowledgements.html#a954c7b6f37e4bcd616879315307d85bb" target="_top" xlink:title="Adds a new Ack object for given channel.">
<polygon fill="white" stroke="#666666" points="456,-355.5 201,-355.5 201,-336.5 456,-336.5 456,-355.5"/>
<text text-anchor="middle" x="328.5" y="-343.5" font-family="Helvetica,sans-Serif" font-size="10.00">com.teragrep.cfe_16.Acknowledgements.addAck</text>
</a>
</g>
</g>
<!-- Node1&#45;&gt;Node4 -->
<g id="edge3_Node000001_Node000004" class="edge">
<title>Node1&#45;&gt;Node4</title>
<g id="a_edge3_Node000001_Node000004"><a xlink:title=" ">
<path fill="none" stroke="#63b8ff" d="M89.42,-222.24C106.6,-248.56 145.73,-302.1 194,-327 198.39,-329.26 202.95,-331.28 207.65,-333.08"/>
<polygon fill="#63b8ff" stroke="#63b8ff" points="206.83,-336.5 217.43,-336.47 209.13,-329.89 206.83,-336.5"/>
</a>
</g>
</g>
<!-- Node5 -->
<g id="Node000005" class="node">
<title>Node5</title>
<g id="a_Node000005"><a xlink:href="classcom_1_1teragrep_1_1cfe__16_1_1Acknowledgements.html#a0a81fc7b69c7638df2b4e6fff3744514" target="_top" xlink:title="Returns the current Ack value for given token and channel.">
<polygon fill="white" stroke="#666666" points="446,-318 211,-318 211,-288 446,-288 446,-318"/>
<text text-anchor="start" x="219" y="-306" font-family="Helvetica,sans-Serif" font-size="10.00">com.teragrep.cfe_16.Acknowledgements.get</text>
<text text-anchor="middle" x="328.5" y="-295" font-family="Helvetica,sans-Serif" font-size="10.00">CurrentAckValue</text>
</a>
</g>
</g>
<!-- Node1&#45;&gt;Node5 -->
<g id="edge4_Node000001_Node000005" class="edge">
<title>Node1&#45;&gt;Node5</title>
<g id="a_edge4_Node000001_Node000005"><a xlink:title=" ">
<path fill="none" stroke="#63b8ff" d="M98.93,-222.22C120.6,-238.83 157.78,-264.93 194,-279 199.83,-281.27 205.9,-283.32 212.07,-285.18"/>
<polygon fill="#63b8ff" stroke="#63b8ff" points="211.29,-288.6 221.86,-287.95 213.2,-281.86 211.29,-288.6"/>
</a>
</g>
</g>
<!-- Node8 -->
<g id="Node000008" class="node">
<title>Node8</title>
<g id="a_Node000008"><a xlink:href="classcom_1_1teragrep_1_1cfe__16_1_1SessionManager.html#a10eb9f8a23f0280db1b6662352fb5022" target="_top" xlink:title="Returns an existing Session object based on authentication token.">
<polygon fill="white" stroke="#666666" points="407.5,-270 249.5,-270 249.5,-240 407.5,-240 407.5,-270"/>
<text text-anchor="start" x="257.5" y="-258" font-family="Helvetica,sans-Serif" font-size="10.00">com.teragrep.cfe_16.Session</text>
<text text-anchor="middle" x="328.5" y="-247" font-family="Helvetica,sans-Serif" font-size="10.00">Manager.getOrCreateSession</text>
</a>
</g>
</g>
<!-- Node1&#45;&gt;Node8 -->
<g id="edge7_Node000001_Node000008" class="edge">
<title>Node1&#45;&gt;Node8</title>
<g id="a_edge7_Node000001_Node000008"><a xlink:title=" ">
<path fill="none" stroke="#63b8ff" d="M149.87,-222.05C164.44,-225.09 179.71,-228.21 194,-231 208.69,-233.87 224.32,-236.79 239.52,-239.56"/>
<polygon fill="#63b8ff" stroke="#63b8ff" points="238.96,-243.02 249.42,-241.36 240.21,-236.13 238.96,-243.02"/>
</a>
</g>
</g>
<!-- Node9 -->
<g id="Node000009" class="node">
<title>Node9</title>
<g id="a_Node000009"><a xlink:href="classcom_1_1teragrep_1_1cfe__16_1_1TokenManager.html#a7f77170018e53e2f570fec2880081c31" target="_top" xlink:title=" ">
<polygon fill="white" stroke="#666666" points="406.5,-222 250.5,-222 250.5,-192 406.5,-192 406.5,-222"/>
<text text-anchor="start" x="258.5" y="-210" font-family="Helvetica,sans-Serif" font-size="10.00">com.teragrep.cfe_16.Token</text>
<text text-anchor="middle" x="328.5" y="-199" font-family="Helvetica,sans-Serif" font-size="10.00">Manager.getTokenFromBasic</text>
</a>
</g>
</g>
<!-- Node1&#45;&gt;Node9 -->
<g id="edge8_Node000001_Node000009" class="edge">
<title>Node1&#45;&gt;Node9</title>
<g id="a_edge8_Node000001_Node000009"><a xlink:title=" ">
<path fill="none" stroke="#63b8ff" d="M158.31,-207C184.31,-207 213.41,-207 240.05,-207"/>
<polygon fill="#63b8ff" stroke="#63b8ff" points="240.12,-210.5 250.12,-207 240.12,-203.5 240.12,-210.5"/>
</a>
</g>
</g>
<!-- Node10 -->
<g id="Node000010" class="node">
<title>Node10</title>
<g id="a_Node000010"><a xlink:href="classcom_1_1teragrep_1_1cfe__16_1_1Acknowledgements.html#a5307dc12a64ca957ae24430d09b372e1" target="_top" xlink:title=" ">
<polygon fill="white" stroke="#666666" points="463,-174 194,-174 194,-144 463,-144 463,-174"/>
<text text-anchor="start" x="202" y="-162" font-family="Helvetica,sans-Serif" font-size="10.00">com.teragrep.cfe_16.Acknowledgements.increment</text>
<text text-anchor="middle" x="328.5" y="-151" font-family="Helvetica,sans-Serif" font-size="10.00">AckValue</text>
</a>
</g>
</g>
<!-- Node1&#45;&gt;Node10 -->
<g id="edge9_Node000001_Node000010" class="edge">
<title>Node1&#45;&gt;Node10</title>
<g id="a_edge9_Node000001_Node000010"><a xlink:title=" ">
<path fill="none" stroke="#63b8ff" d="M149.87,-191.95C164.44,-188.91 179.71,-185.79 194,-183 206.13,-180.63 218.89,-178.23 231.52,-175.9"/>
<polygon fill="#63b8ff" stroke="#63b8ff" points="232.41,-179.3 241.61,-174.05 231.14,-172.41 232.41,-179.3"/>
</a>
</g>
</g>
<!-- Node15 -->
<g id="Node000015" class="node">
<title>Node15</title>
<g id="a_Node000015"><a xlink:href="classcom_1_1teragrep_1_1cfe__16_1_1Acknowledgements.html#a06622ee4fcccb291cf0c97cb55189d83" target="_top" xlink:title="This method has to be called first before calling any other Ack related methods.">
<polygon fill="white" stroke="#666666" points="459,-126 198,-126 198,-96 459,-96 459,-126"/>
<text text-anchor="start" x="206" y="-114" font-family="Helvetica,sans-Serif" font-size="10.00">com.teragrep.cfe_16.Acknowledgements.initialize</text>
<text text-anchor="middle" x="328.5" y="-103" font-family="Helvetica,sans-Serif" font-size="10.00">Context</text>
</a>
</g>
</g>
<!-- Node1&#45;&gt;Node15 -->
<g id="edge17_Node000001_Node000015" class="edge">
<title>Node1&#45;&gt;Node15</title>
<g id="a_edge17_Node000001_Node000015"><a xlink:title=" ">
<path fill="none" stroke="#63b8ff" d="M98.93,-191.78C120.6,-175.17 157.78,-149.07 194,-135 199.83,-132.73 205.9,-130.68 212.07,-128.82"/>
<polygon fill="#63b8ff" stroke="#63b8ff" points="213.2,-132.14 221.86,-126.05 211.29,-125.4 213.2,-132.14"/>
</a>
</g>
</g>
<!-- Node16 -->
<g id="Node000016" class="node">
<title>Node16</title>
<g id="a_Node000016"><a xlink:href="classcom_1_1teragrep_1_1cfe__16_1_1TokenManager.html#a687bbb785ceb8eeb5b314e44d0136279" target="_top" xlink:title=" ">
<polygon fill="white" stroke="#666666" points="402.5,-78 254.5,-78 254.5,-48 402.5,-48 402.5,-78"/>
<text text-anchor="start" x="262.5" y="-66" font-family="Helvetica,sans-Serif" font-size="10.00">com.teragrep.cfe_16.Token</text>
<text text-anchor="middle" x="328.5" y="-55" font-family="Helvetica,sans-Serif" font-size="10.00">Manager.isTokenInBasic</text>
</a>
</g>
</g>
<!-- Node1&#45;&gt;Node16 -->
<g id="edge18_Node000001_Node000016" class="edge">
<title>Node1&#45;&gt;Node16</title>
<g id="a_edge18_Node000001_Node000016"><a xlink:title=" ">
<path fill="none" stroke="#63b8ff" d="M89.51,-191.94C106.84,-165.9 146.19,-112.77 194,-87 209.33,-78.73 226.96,-73.24 244.26,-69.61"/>
<polygon fill="#63b8ff" stroke="#63b8ff" points="245.22,-72.99 254.39,-67.68 243.91,-66.11 245.22,-72.99"/>
</a>
</g>
</g>
<!-- Node17 -->
<g id="Node000017" class="node">
<title>Node17</title>
<g id="a_Node000017"><a xlink:href="classcom_1_1teragrep_1_1cfe__16_1_1TokenManager.html#a5d298916fc03c198d49fbf53205f88e8" target="_top" xlink:title=" ">
<polygon fill="white" stroke="#666666" points="402.5,-30 254.5,-30 254.5,0 402.5,0 402.5,-30"/>
<text text-anchor="start" x="262.5" y="-18" font-family="Helvetica,sans-Serif" font-size="10.00">com.teragrep.cfe_16.Token</text>
<text text-anchor="middle" x="328.5" y="-7" font-family="Helvetica,sans-Serif" font-size="10.00">Manager.tokenIsMissing</text>
</a>
</g>
</g>
<!-- Node1&#45;&gt;Node17 -->
<g id="edge19_Node000001_Node000017" class="edge">
<title>Node1&#45;&gt;Node17</title>
<g id="a_edge19_Node000001_Node000017"><a xlink:title=" ">
<path fill="none" stroke="#63b8ff" d="M85.49,-191.91C98.56,-158.34 134.89,-77.41 194,-39 208.86,-29.35 226.51,-23.29 244.03,-19.56"/>
<polygon fill="#63b8ff" stroke="#63b8ff" points="245.14,-22.91 254.32,-17.62 243.84,-16.04 245.14,-22.91"/>
</a>
</g>
</g>
<!-- Node3 -->
<g id="Node000003" class="node">
<title>Node3</title>
<g id="a_Node000003"><a xlink:href="classcom_1_1teragrep_1_1cfe__16_1_1Acknowledgements_1_1State.html#ad9d95fec84a00a574b21981fc673f10a" target="_top" xlink:title=" ">
<polygon fill="white" stroke="#666666" points="1038,-265 819,-265 819,-235 1038,-235 1038,-265"/>
<text text-anchor="start" x="827" y="-253" font-family="Helvetica,sans-Serif" font-size="10.00">com.teragrep.cfe_16.Acknowledgements.</text>
<text text-anchor="middle" x="928.5" y="-242" font-family="Helvetica,sans-Serif" font-size="10.00">State.getAckMap</text>
</a>
</g>
</g>
<!-- Node2&#45;&gt;Node3 -->
<g id="edge2_Node000002_Node000003" class="edge">
<title>Node2&#45;&gt;Node3</title>
<g id="a_edge2_Node000002_Node000003"><a xlink:title=" ">
<path fill="none" stroke="#63b8ff" d="M754.71,-374.43C764.46,-371.93 774.03,-368.83 783,-365 833.46,-343.48 881.02,-299.35 907.02,-272.45"/>
<polygon fill="#63b8ff" stroke="#63b8ff" points="909.72,-274.69 914.07,-265.03 904.64,-269.87 909.72,-274.69"/>
</a>
</g>
</g>
<!-- Node6 -->
<g id="Node000006" class="node">
<title>Node6</title>
<g id="a_Node000006"><a xlink:href="classcom_1_1teragrep_1_1cfe__16_1_1Acknowledgements_1_1State.html#aa1809213ec400ce2fccaff6cab3e244b" target="_top" xlink:title=" ">
<polygon fill="white" stroke="#666666" points="750.5,-308 531.5,-308 531.5,-278 750.5,-278 750.5,-308"/>
<text text-anchor="start" x="539.5" y="-296" font-family="Helvetica,sans-Serif" font-size="10.00">com.teragrep.cfe_16.Acknowledgements.</text>
<text text-anchor="middle" x="641" y="-285" font-family="Helvetica,sans-Serif" font-size="10.00">State.getCurrentAckValue</text>
</a>
</g>
</g>
<!-- Node5&#45;&gt;Node6 -->
<g id="edge5_Node000005_Node000006" class="edge">
<title>Node5&#45;&gt;Node6</title>
<g id="a_edge5_Node000005_Node000006"><a xlink:title=" ">
<path fill="none" stroke="#63b8ff" d="M446,-299.25C470.58,-298.46 496.54,-297.62 521.2,-296.83"/>
<polygon fill="#63b8ff" stroke="#63b8ff" points="521.43,-300.32 531.31,-296.5 521.21,-293.32 521.43,-300.32"/>
</a>
</g>
</g>
<!-- Node7 -->
<g id="Node000007" class="node">
<title>Node7</title>
<g id="a_Node000007"><a xlink:href="classcom_1_1teragrep_1_1cfe__16_1_1Acknowledgements.html#a0287e001c86209cd70554675e6dbf9eb" target="_top" xlink:title="A private Accessor for the State object indexed by the given auth token and channel.">
<polygon fill="white" stroke="#666666" points="758.5,-356 523.5,-356 523.5,-326 758.5,-326 758.5,-356"/>
<text text-anchor="start" x="531.5" y="-344" font-family="Helvetica,sans-Serif" font-size="10.00">com.teragrep.cfe_16.Acknowledgements.get</text>
<text text-anchor="middle" x="641" y="-333" font-family="Helvetica,sans-Serif" font-size="10.00">OrCreateState</text>
</a>
</g>
</g>
<!-- Node5&#45;&gt;Node7 -->
<g id="edge6_Node000005_Node000007" class="edge">
<title>Node5&#45;&gt;Node7</title>
<g id="a_edge6_Node000005_Node000007"><a xlink:title=" ">
<path fill="none" stroke="#63b8ff" d="M446,-317.26C467.94,-319.94 490.98,-322.76 513.21,-325.48"/>
<polygon fill="#63b8ff" stroke="#63b8ff" points="513.01,-328.98 523.36,-326.73 513.86,-322.04 513.01,-328.98"/>
</a>
</g>
</g>
<!-- Node10&#45;&gt;Node3 -->
<g id="edge12_Node000010_Node000003" class="edge">
<title>Node10&#45;&gt;Node3</title>
<g id="a_edge12_Node000010_Node000003"><a xlink:title=" ">
<path fill="none" stroke="#63b8ff" d="M445.54,-174.1C451.62,-176.66 457.49,-179.6 463,-183 485.7,-197 475.42,-218.55 499,-231 550.79,-258.35 700.72,-259.26 808.63,-255.9"/>
<polygon fill="#63b8ff" stroke="#63b8ff" points="809.05,-259.39 818.93,-255.56 808.82,-252.39 809.05,-259.39"/>
</a>
</g>
</g>
<!-- Node10&#45;&gt;Node6 -->
<g id="edge14_Node000010_Node000006" class="edge">
<title>Node10&#45;&gt;Node6</title>
<g id="a_edge14_Node000010_Node000006"><a xlink:title=" ">
<path fill="none" stroke="#63b8ff" d="M449.37,-174.15C454.17,-176.72 458.74,-179.66 463,-183 494,-207.32 468.31,-239.3 499,-264 505.93,-269.58 513.66,-274.17 521.83,-277.93"/>
<polygon fill="#63b8ff" stroke="#63b8ff" points="520.65,-281.23 531.23,-281.84 523.34,-274.77 520.65,-281.23"/>
</a>
</g>
</g>
<!-- Node11 -->
<g id="Node000011" class="node">
<title>Node11</title>
<g id="a_Node000011"><a xlink:href="classcom_1_1teragrep_1_1cfe__16_1_1Acknowledgements.html#a7a9570efce9732f5f674e9ea85017439" target="_top" xlink:title=" ">
<polygon fill="white" stroke="#666666" points="762,-222 520,-222 520,-192 762,-192 762,-222"/>
<text text-anchor="start" x="528" y="-210" font-family="Helvetica,sans-Serif" font-size="10.00">com.teragrep.cfe_16.Acknowledgements.acks</text>
<text text-anchor="middle" x="641" y="-199" font-family="Helvetica,sans-Serif" font-size="10.00">Available</text>
</a>
</g>
</g>
<!-- Node10&#45;&gt;Node11 -->
<g id="edge10_Node000010_Node000011" class="edge">
<title>Node10&#45;&gt;Node11</title>
<g id="a_edge10_Node000010_Node000011"><a xlink:title=" ">
<path fill="none" stroke="#63b8ff" d="M426.89,-174.06C460.56,-179.26 498.47,-185.12 532.87,-190.44"/>
<polygon fill="#63b8ff" stroke="#63b8ff" points="532.54,-193.93 542.95,-192 533.61,-187.01 532.54,-193.93"/>
</a>
</g>
</g>
<!-- Node12 -->
<g id="Node000012" class="node">
<title>Node12</title>
<g id="a_Node000012"><a xlink:href="classcom_1_1teragrep_1_1cfe__16_1_1Acknowledgements_1_1State.html#a7d72966efb4505634712c4c64c96440c" target="_top" xlink:title=" ">
<polygon fill="white" stroke="#666666" points="750.5,-174 531.5,-174 531.5,-144 750.5,-144 750.5,-174"/>
<text text-anchor="start" x="539.5" y="-162" font-family="Helvetica,sans-Serif" font-size="10.00">com.teragrep.cfe_16.Acknowledgements.</text>
<text text-anchor="middle" x="641" y="-151" font-family="Helvetica,sans-Serif" font-size="10.00">State.getAckToCompare</text>
</a>
</g>
</g>
<!-- Node10&#45;&gt;Node12 -->
<g id="edge13_Node000010_Node000012" class="edge">
<title>Node10&#45;&gt;Node12</title>
<g id="a_edge13_Node000010_Node000012"><a xlink:title=" ">
<path fill="none" stroke="#63b8ff" d="M463.43,-159C482.63,-159 502.28,-159 521.16,-159"/>
<polygon fill="#63b8ff" stroke="#63b8ff" points="521.26,-162.5 531.26,-159 521.26,-155.5 521.26,-162.5"/>
</a>
</g>
</g>
<!-- Node13 -->
<g id="Node000013" class="node">
<title>Node13</title>
<g id="a_Node000013"><a xlink:href="classcom_1_1teragrep_1_1cfe__16_1_1Acknowledgements_1_1State.html#ab460c6226ddd97252506f01f11cf9f3d" target="_top" xlink:title=" ">
<polygon fill="white" stroke="#666666" points="750.5,-126 531.5,-126 531.5,-96 750.5,-96 750.5,-126"/>
<text text-anchor="start" x="539.5" y="-114" font-family="Helvetica,sans-Serif" font-size="10.00">com.teragrep.cfe_16.Acknowledgements.</text>
<text text-anchor="middle" x="641" y="-103" font-family="Helvetica,sans-Serif" font-size="10.00">State.setAckToCompare</text>
</a>
</g>
</g>
<!-- Node10&#45;&gt;Node13 -->
<g id="edge15_Node000010_Node000013" class="edge">
<title>Node10&#45;&gt;Node13</title>
<g id="a_edge15_Node000010_Node000013"><a xlink:title=" ">
<path fill="none" stroke="#63b8ff" d="M426.89,-143.94C460.56,-138.74 498.47,-132.88 532.87,-127.56"/>
<polygon fill="#63b8ff" stroke="#63b8ff" points="533.61,-130.99 542.95,-126 532.54,-124.07 533.61,-130.99"/>
</a>
</g>
</g>
<!-- Node14 -->
<g id="Node000014" class="node">
<title>Node14</title>
<g id="a_Node000014"><a xlink:href="classcom_1_1teragrep_1_1cfe__16_1_1Acknowledgements_1_1State.html#a2ce209b2faca53446cccd40bc4de2726" target="_top" xlink:title=" ">
<polygon fill="white" stroke="#666666" points="750.5,-78 531.5,-78 531.5,-48 750.5,-48 750.5,-78"/>
<text text-anchor="start" x="539.5" y="-66" font-family="Helvetica,sans-Serif" font-size="10.00">com.teragrep.cfe_16.Acknowledgements.</text>
<text text-anchor="middle" x="641" y="-55" font-family="Helvetica,sans-Serif" font-size="10.00">State.setCurrentAckValue</text>
</a>
</g>
</g>
<!-- Node10&#45;&gt;Node14 -->
<g id="edge16_Node000010_Node000014" class="edge">
<title>Node10&#45;&gt;Node14</title>
<g id="a_edge16_Node000010_Node000014"><a xlink:title=" ">
<path fill="none" stroke="#63b8ff" d="M445.54,-143.9C451.62,-141.34 457.49,-138.4 463,-135 485.7,-121 476.24,-100.89 499,-87 506.16,-82.63 513.89,-79 521.9,-75.98"/>
<polygon fill="#63b8ff" stroke="#63b8ff" points="523.11,-79.27 531.43,-72.71 520.84,-72.64 523.11,-79.27"/>
</a>
</g>
</g>
<!-- Node11&#45;&gt;Node3 -->
<g id="edge11_Node000011_Node000003" class="edge">
<title>Node11&#45;&gt;Node3</title>
<g id="a_edge11_Node000011_Node000003"><a xlink:title=" ">
<path fill="none" stroke="#63b8ff" d="M741.85,-222.04C766.3,-225.72 792.6,-229.68 817.5,-233.43"/>
<polygon fill="#63b8ff" stroke="#63b8ff" points="817.29,-236.94 827.7,-234.97 818.34,-230.02 817.29,-236.94"/>
</a>
</g>
</g>
</g>
</svg>
