<?xml version="1.0" encoding="UTF-8" standalone="no"?>
<!DOCTYPE svg PUBLIC "-//W3C//DTD SVG 1.1//EN"
 "http://www.w3.org/Graphics/SVG/1.1/DTD/svg11.dtd">
<!-- Generated by graphviz version 2.43.0 (0)
 -->
<!-- Title: com.teragrep.cfe_16.ThirdParty.SyslogMessageSender.SyslogMessageSender Pages: 1 -->
<svg width="258pt" height="104pt"
 viewBox="0.00 0.00 258.00 104.00" xmlns="http://www.w3.org/2000/svg" xmlns:xlink="http://www.w3.org/1999/xlink">
<g id="graph0" class="graph" transform="scale(1 1) rotate(0) translate(4 100)">
<title>com.teragrep.cfe_16.ThirdParty.SyslogMessageSender.SyslogMessageSender</title>
<!-- Node1 -->
<g id="Node000001" class="node">
<title>Node1</title>
<g id="a_Node000001"><a xlink:title="See RFC 6587 &#45; Transmission of Syslog Messages over TCP">
<polygon fill="#999999" stroke="#666666" points="244,-41 57,-41 57,0 244,0 244,-41"/>
<text text-anchor="start" x="65" y="-29" font-family="Helvetica,sans-Serif" font-size="10.00">com.teragrep.cfe_16.Third</text>
<text text-anchor="start" x="65" y="-18" font-family="Helvetica,sans-Serif" font-size="10.00">Party.SyslogMessageSender.Syslog</text>
<text text-anchor="middle" x="150.5" y="-7" font-family="Helvetica,sans-Serif" font-size="10.00">MessageSender</text>
</a>
</g>
</g>
<!-- Node2 -->
<g id="Node000002" class="node">
<title>Node2</title>
<g id="a_Node000002"><a xlink:title=" ">
<polygon fill="white" stroke="#666666" points="167,-96 0,-96 0,-77 167,-77 167,-96"/>
<text text-anchor="middle" x="83.5" y="-84" font-family="Helvetica,sans-Serif" font-size="10.00">AbstractSyslogMessageSender</text>
</a>
</g>
</g>
<!-- Node2&#45;&gt;Node1 -->
<g id="edge1_Node000001_Node000002" class="edge">
<title>Node2&#45;&gt;Node1</title>
<g id="a_edge1_Node000001_Node000002"><a xlink:title=" ">
<path fill="none" stroke="#63b8ff" d="M99.84,-69.89C108.95,-61.19 120.38,-50.27 130.08,-41.01"/>
<polygon fill="#63b8ff" stroke="#63b8ff" points="97.35,-67.43 92.54,-76.87 102.18,-72.49 97.35,-67.43"/>
</a>
</g>
</g>
<!-- Node3 -->
<g id="Node000003" class="node">
<title>Node3</title>
<g id="a_Node000003"><a xlink:title=" ">
<polygon fill="white" stroke="#666666" points="250,-96 185,-96 185,-77 250,-77 250,-96"/>
<text text-anchor="middle" x="217.5" y="-84" font-family="Helvetica,sans-Serif" font-size="10.00">Closeable</text>
</a>
</g>
</g>
<!-- Node3&#45;&gt;Node1 -->
<g id="edge2_Node000001_Node000003" class="edge">
<title>Node3&#45;&gt;Node1</title>
<g id="a_edge2_Node000001_Node000003"><a xlink:title=" ">
<path fill="none" stroke="#63b8ff" d="M201.16,-69.89C192.05,-61.19 180.62,-50.27 170.92,-41.01"/>
<polygon fill="#63b8ff" stroke="#63b8ff" points="198.82,-72.49 208.46,-76.87 203.65,-67.43 198.82,-72.49"/>
</a>
</g>
</g>
</g>
</svg>
