<?xml version="1.0" encoding="UTF-8" standalone="no"?>
<!DOCTYPE svg PUBLIC "-//W3C//DTD SVG 1.1//EN"
 "http://www.w3.org/Graphics/SVG/1.1/DTD/svg11.dtd">
<!-- Generated by graphviz version 2.43.0 (0)
 -->
<!-- Title: com.teragrep.cfe_16.Stubable.isStub Pages: 1 -->
<svg width="654pt" height="206pt"
 viewBox="0.00 0.00 654.00 206.00" xmlns="http://www.w3.org/2000/svg" xmlns:xlink="http://www.w3.org/1999/xlink">
<g id="graph0" class="graph" transform="scale(1 1) rotate(0) translate(4 202)">
<title>com.teragrep.cfe_16.Stubable.isStub</title>
<!-- Node1 -->
<g id="Node000001" class="node">
<title>Node1</title>
<g id="a_Node000001"><a xlink:title=" ">
<polygon fill="#999999" stroke="#666666" points="646,-96.5 450,-96.5 450,-77.5 646,-77.5 646,-96.5"/>
<text text-anchor="middle" x="548" y="-84.5" font-family="Helvetica,sans-Serif" font-size="10.00">com.teragrep.cfe_16.Stubable.isStub</text>
</a>
</g>
</g>
<!-- Node2 -->
<g id="Node000002" class="node">
<title>Node2</title>
<g id="a_Node000002"><a xlink:href="classcom_1_1teragrep_1_1cfe__16_1_1bo_1_1HeaderInfo.html#a75b003348c0432bd23b5d10615237da1" target="_top" xlink:title=" ">
<polygon fill="white" stroke="#666666" points="404.5,-174 234.5,-174 234.5,-144 404.5,-144 404.5,-174"/>
<text text-anchor="start" x="242.5" y="-162" font-family="Helvetica,sans-Serif" font-size="10.00">com.teragrep.cfe_16.bo.Header</text>
<text text-anchor="middle" x="319.5" y="-151" font-family="Helvetica,sans-Serif" font-size="10.00">Info.asSDElement</text>
</a>
</g>
</g>
<!-- Node1&#45;&gt;Node2 -->
<g id="edge1_Node000001_Node000002" class="edge">
<title>Node1&#45;&gt;Node2</title>
<g id="a_edge1_Node000001_Node000002"><a xlink:title=" ">
<path fill="none" stroke="#63b8ff" d="M513.09,-100.25C486.39,-110.43 448.12,-124.49 414,-135 403.91,-138.11 393.12,-141.14 382.59,-143.94"/>
<polygon fill="#63b8ff" stroke="#63b8ff" points="514.64,-103.4 522.72,-96.55 512.13,-96.87 514.64,-103.4"/>
</a>
</g>
</g>
<!-- Node5 -->
<g id="Node000005" class="node">
<title>Node5</title>
<g id="a_Node000005"><a xlink:href="classcom_1_1teragrep_1_1cfe__16_1_1event_1_1time_1_1HECTimeImplWithFallback.html#a76ec7a4bc12c56f721599c59c4af4eb0" target="_top" xlink:title=" ">
<polygon fill="white" stroke="#666666" points="410.5,-126 228.5,-126 228.5,-96 410.5,-96 410.5,-126"/>
<text text-anchor="start" x="236.5" y="-114" font-family="Helvetica,sans-Serif" font-size="10.00">com.teragrep.cfe_16.event.time.</text>
<text text-anchor="middle" x="319.5" y="-103" font-family="Helvetica,sans-Serif" font-size="10.00">HECTimeImplWithFallback.instant</text>
</a>
</g>
</g>
<!-- Node1&#45;&gt;Node5 -->
<g id="edge4_Node000001_Node000005" class="edge">
<title>Node1&#45;&gt;Node5</title>
<g id="a_edge4_Node000001_Node000005"><a xlink:title=" ">
<path fill="none" stroke="#63b8ff" d="M447.03,-97.59C434.91,-98.88 422.58,-100.18 410.61,-101.45"/>
<polygon fill="#63b8ff" stroke="#63b8ff" points="447.58,-101.05 457.16,-96.52 446.84,-94.09 447.58,-101.05"/>
</a>
</g>
</g>
<!-- Node6 -->
<g id="Node000006" class="node">
<title>Node6</title>
<g id="a_Node000006"><a xlink:href="classcom_1_1teragrep_1_1cfe__16_1_1event_1_1time_1_1HECTimeImplWithFallback.html#aa844500a1266b852374f60ce4ea389db" target="_top" xlink:title=" ">
<polygon fill="white" stroke="#666666" points="414,-78 225,-78 225,-48 414,-48 414,-78"/>
<text text-anchor="start" x="233" y="-66" font-family="Helvetica,sans-Serif" font-size="10.00">com.teragrep.cfe_16.event.time.</text>
<text text-anchor="middle" x="319.5" y="-55" font-family="Helvetica,sans-Serif" font-size="10.00">HECTimeImplWithFallback.isParsed</text>
</a>
</g>
</g>
<!-- Node1&#45;&gt;Node6 -->
<g id="edge5_Node000001_Node000006" class="edge">
<title>Node1&#45;&gt;Node6</title>
<g id="a_edge5_Node000001_Node000006"><a xlink:title=" ">
<path fill="none" stroke="#63b8ff" d="M447.18,-76.42C436.26,-75.27 425.17,-74.09 414.32,-72.94"/>
<polygon fill="#63b8ff" stroke="#63b8ff" points="446.84,-79.91 457.16,-77.48 447.58,-72.95 446.84,-79.91"/>
</a>
</g>
</g>
<!-- Node7 -->
<g id="Node000007" class="node">
<title>Node7</title>
<g id="a_Node000007"><a xlink:href="classcom_1_1teragrep_1_1cfe__16_1_1event_1_1time_1_1HECTimeImplWithFallback.html#a03762cdc90d1fb05f74825b0c65cd358" target="_top" xlink:title=" ">
<polygon fill="white" stroke="#666666" points="410,-30 229,-30 229,0 410,0 410,-30"/>
<text text-anchor="start" x="237" y="-18" font-family="Helvetica,sans-Serif" font-size="10.00">com.teragrep.cfe_16.event.time.</text>
<text text-anchor="middle" x="319.5" y="-7" font-family="Helvetica,sans-Serif" font-size="10.00">HECTimeImplWithFallback.source</text>
</a>
</g>
</g>
<!-- Node1&#45;&gt;Node7 -->
<g id="edge6_Node000001_Node000007" class="edge">
<title>Node1&#45;&gt;Node7</title>
<g id="a_edge6_Node000001_Node000007"><a xlink:title=" ">
<path fill="none" stroke="#63b8ff" d="M513.09,-73.75C486.39,-63.57 448.12,-49.51 414,-39 403.91,-35.89 393.12,-32.86 382.59,-30.06"/>
<polygon fill="#63b8ff" stroke="#63b8ff" points="512.13,-77.13 522.72,-77.45 514.64,-70.6 512.13,-77.13"/>
</a>
</g>
</g>
<!-- Node3 -->
<g id="Node000003" class="node">
<title>Node3</title>
<g id="a_Node000003"><a xlink:href="classcom_1_1teragrep_1_1cfe__16_1_1bo_1_1HECRecordImpl.html#a2b20985bf3b6d50b0e4dfdc8fe82e494" target="_top" xlink:title=" ">
<polygon fill="white" stroke="#666666" points="189,-198 0,-198 0,-168 189,-168 189,-198"/>
<text text-anchor="start" x="8" y="-186" font-family="Helvetica,sans-Serif" font-size="10.00">com.teragrep.cfe_16.bo.HECRecord</text>
<text text-anchor="middle" x="94.5" y="-175" font-family="Helvetica,sans-Serif" font-size="10.00">Impl.toSyslogMessage</text>
</a>
</g>
</g>
<!-- Node2&#45;&gt;Node3 -->
<g id="edge2_Node000002_Node000003" class="edge">
<title>Node2&#45;&gt;Node3</title>
<g id="a_edge2_Node000002_Node000003"><a xlink:title=" ">
<path fill="none" stroke="#63b8ff" d="M224.13,-169.16C212.58,-170.4 200.79,-171.67 189.26,-172.91"/>
<polygon fill="#63b8ff" stroke="#63b8ff" points="224.63,-172.62 234.19,-168.07 223.88,-165.66 224.63,-172.62"/>
</a>
</g>
</g>
<!-- Node4 -->
<g id="Node000004" class="node">
<title>Node4</title>
<g id="a_Node000004"><a xlink:href="classcom_1_1teragrep_1_1cfe__16_1_1bo_1_1HECRecordImpl.html#a1fd269557595f8943fbc3eaf6ece40b0" target="_top" xlink:title=" ">
<polygon fill="white" stroke="#666666" points="189,-150 0,-150 0,-120 189,-120 189,-150"/>
<text text-anchor="start" x="8" y="-138" font-family="Helvetica,sans-Serif" font-size="10.00">com.teragrep.cfe_16.bo.HECRecord</text>
<text text-anchor="middle" x="94.5" y="-127" font-family="Helvetica,sans-Serif" font-size="10.00">Impl.toSyslogMessage</text>
</a>
</g>
</g>
<!-- Node2&#45;&gt;Node4 -->
<g id="edge3_Node000002_Node000004" class="edge">
<title>Node2&#45;&gt;Node4</title>
<g id="a_edge3_Node000002_Node000004"><a xlink:title=" ">
<path fill="none" stroke="#63b8ff" d="M224.13,-148.84C212.58,-147.6 200.79,-146.33 189.26,-145.09"/>
<polygon fill="#63b8ff" stroke="#63b8ff" points="223.88,-152.34 234.19,-149.93 224.63,-145.38 223.88,-152.34"/>
</a>
</g>
</g>
</g>
</svg>
