<?xml version="1.0" encoding="UTF-8" standalone="no"?>
<!DOCTYPE svg PUBLIC "-//W3C//DTD SVG 1.1//EN"
 "http://www.w3.org/Graphics/SVG/1.1/DTD/svg11.dtd">
<!-- Generated by graphviz version 2.43.0 (0)
 -->
<!-- Title: com.teragrep.cfe_16.bo.XForwardedHost.value Pages: 1 -->
<svg width="632pt" height="86pt"
 viewBox="0.00 0.00 632.00 86.00" xmlns="http://www.w3.org/2000/svg" xmlns:xlink="http://www.w3.org/1999/xlink">
<g id="graph0" class="graph" transform="scale(1 1) rotate(0) translate(4 82)">
<title>com.teragrep.cfe_16.bo.XForwardedHost.value</title>
<!-- Node1 -->
<g id="Node000001" class="node">
<title>Node1</title>
<g id="a_Node000001"><a xlink:title=" ">
<polygon fill="#999999" stroke="#666666" points="624,-54 431,-54 431,-24 624,-24 624,-54"/>
<text text-anchor="start" x="439" y="-42" font-family="Helvetica,sans-Serif" font-size="10.00">com.teragrep.cfe_16.bo.XForwarded</text>
<text text-anchor="middle" x="527.5" y="-31" font-family="Helvetica,sans-Serif" font-size="10.00">Host.value</text>
</a>
</g>
</g>
<!-- Node2 -->
<g id="Node000002" class="node">
<title>Node2</title>
<g id="a_Node000002"><a xlink:href="classcom_1_1teragrep_1_1cfe__16_1_1bo_1_1HeaderInfo.html#a75b003348c0432bd23b5d10615237da1" target="_top" xlink:title=" ">
<polygon fill="white" stroke="#666666" points="395,-54 225,-54 225,-24 395,-24 395,-54"/>
<text text-anchor="start" x="233" y="-42" font-family="Helvetica,sans-Serif" font-size="10.00">com.teragrep.cfe_16.bo.Header</text>
<text text-anchor="middle" x="310" y="-31" font-family="Helvetica,sans-Serif" font-size="10.00">Info.asSDElement</text>
</a>
</g>
</g>
<!-- Node1&#45;&gt;Node2 -->
<g id="edge1_Node000001_Node000002" class="edge">
<title>Node1&#45;&gt;Node2</title>
<g id="a_edge1_Node000001_Node000002"><a xlink:title=" ">
<path fill="none" stroke="#63b8ff" d="M420.45,-39C412.02,-39 403.57,-39 395.31,-39"/>
<polygon fill="#63b8ff" stroke="#63b8ff" points="420.72,-42.5 430.72,-39 420.72,-35.5 420.72,-42.5"/>
</a>
</g>
</g>
<!-- Node3 -->
<g id="Node000003" class="node">
<title>Node3</title>
<g id="a_Node000003"><a xlink:href="classcom_1_1teragrep_1_1cfe__16_1_1bo_1_1HECRecordImpl.html#a2b20985bf3b6d50b0e4dfdc8fe82e494" target="_top" xlink:title=" ">
<polygon fill="white" stroke="#666666" points="189,-78 0,-78 0,-48 189,-48 189,-78"/>
<text text-anchor="start" x="8" y="-66" font-family="Helvetica,sans-Serif" font-size="10.00">com.teragrep.cfe_16.bo.HECRecord</text>
<text text-anchor="middle" x="94.5" y="-55" font-family="Helvetica,sans-Serif" font-size="10.00">Impl.toSyslogMessage</text>
</a>
</g>
</g>
<!-- Node2&#45;&gt;Node3 -->
<g id="edge2_Node000002_Node000003" class="edge">
<title>Node2&#45;&gt;Node3</title>
<g id="a_edge2_Node000002_Node000003"><a xlink:title=" ">
<path fill="none" stroke="#63b8ff" d="M214.9,-49.58C206.31,-50.54 197.61,-51.52 189.02,-52.49"/>
<polygon fill="#63b8ff" stroke="#63b8ff" points="215.38,-53.05 224.93,-48.45 214.6,-46.09 215.38,-53.05"/>
</a>
</g>
</g>
<!-- Node4 -->
<g id="Node000004" class="node">
<title>Node4</title>
<g id="a_Node000004"><a xlink:href="classcom_1_1teragrep_1_1cfe__16_1_1bo_1_1HECRecordImpl.html#a1fd269557595f8943fbc3eaf6ece40b0" target="_top" xlink:title=" ">
<polygon fill="white" stroke="#666666" points="189,-30 0,-30 0,0 189,0 189,-30"/>
<text text-anchor="start" x="8" y="-18" font-family="Helvetica,sans-Serif" font-size="10.00">com.teragrep.cfe_16.bo.HECRecord</text>
<text text-anchor="middle" x="94.5" y="-7" font-family="Helvetica,sans-Serif" font-size="10.00">Impl.toSyslogMessage</text>
</a>
</g>
</g>
<!-- Node2&#45;&gt;Node4 -->
<g id="edge3_Node000002_Node000004" class="edge">
<title>Node2&#45;&gt;Node4</title>
<g id="a_edge3_Node000002_Node000004"><a xlink:title=" ">
<path fill="none" stroke="#63b8ff" d="M214.9,-28.42C206.31,-27.46 197.61,-26.48 189.02,-25.51"/>
<polygon fill="#63b8ff" stroke="#63b8ff" points="214.6,-31.91 224.93,-29.55 215.38,-24.95 214.6,-31.91"/>
</a>
</g>
</g>
</g>
</svg>
