<?xml version="1.0" encoding="UTF-8" standalone="no"?>
<!DOCTYPE svg PUBLIC "-//W3C//DTD SVG 1.1//EN"
 "http://www.w3.org/Graphics/SVG/1.1/DTD/svg11.dtd">
<!-- Generated by graphviz version 2.43.0 (0)
 -->
<!-- Title: com.teragrep.cfe_16.bo.HECRecordImpl.event Pages: 1 -->
<svg width="422pt" height="86pt"
 viewBox="0.00 0.00 422.00 86.00" xmlns="http://www.w3.org/2000/svg" xmlns:xlink="http://www.w3.org/1999/xlink">
<g id="graph0" class="graph" transform="scale(1 1) rotate(0) translate(4 82)">
<title>com.teragrep.cfe_16.bo.HECRecordImpl.event</title>
<!-- Node1 -->
<g id="Node000001" class="node">
<title>Node1</title>
<g id="a_Node000001"><a xlink:title=" ">
<polygon fill="#999999" stroke="#666666" points="414,-54 225,-54 225,-24 414,-24 414,-54"/>
<text text-anchor="start" x="233" y="-42" font-family="Helvetica,sans-Serif" font-size="10.00">com.teragrep.cfe_16.bo.HECRecord</text>
<text text-anchor="middle" x="319.5" y="-31" font-family="Helvetica,sans-Serif" font-size="10.00">Impl.event</text>
</a>
</g>
</g>
<!-- Node2 -->
<g id="Node000002" class="node">
<title>Node2</title>
<g id="a_Node000002"><a xlink:href="classcom_1_1teragrep_1_1cfe__16_1_1bo_1_1HECRecordImpl.html#a2b20985bf3b6d50b0e4dfdc8fe82e494" target="_top" xlink:title=" ">
<polygon fill="white" stroke="#666666" points="189,-78 0,-78 0,-48 189,-48 189,-78"/>
<text text-anchor="start" x="8" y="-66" font-family="Helvetica,sans-Serif" font-size="10.00">com.teragrep.cfe_16.bo.HECRecord</text>
<text text-anchor="middle" x="94.5" y="-55" font-family="Helvetica,sans-Serif" font-size="10.00">Impl.toSyslogMessage</text>
</a>
</g>
</g>
<!-- Node1&#45;&gt;Node2 -->
<g id="edge1_Node000001_Node000002" class="edge">
<title>Node1&#45;&gt;Node2</title>
<g id="a_edge1_Node000001_Node000002"><a xlink:title=" ">
<path fill="none" stroke="#63b8ff" d="M214.89,-50.15C206.33,-51.07 197.7,-52 189.22,-52.91"/>
<polygon fill="#63b8ff" stroke="#63b8ff" points="215.33,-53.62 224.9,-49.07 214.58,-46.66 215.33,-53.62"/>
</a>
</g>
</g>
<!-- Node3 -->
<g id="Node000003" class="node">
<title>Node3</title>
<g id="a_Node000003"><a xlink:href="classcom_1_1teragrep_1_1cfe__16_1_1bo_1_1HECRecordImpl.html#a1fd269557595f8943fbc3eaf6ece40b0" target="_top" xlink:title=" ">
<polygon fill="white" stroke="#666666" points="189,-30 0,-30 0,0 189,0 189,-30"/>
<text text-anchor="start" x="8" y="-18" font-family="Helvetica,sans-Serif" font-size="10.00">com.teragrep.cfe_16.bo.HECRecord</text>
<text text-anchor="middle" x="94.5" y="-7" font-family="Helvetica,sans-Serif" font-size="10.00">Impl.toSyslogMessage</text>
</a>
</g>
</g>
<!-- Node1&#45;&gt;Node3 -->
<g id="edge2_Node000001_Node000003" class="edge">
<title>Node1&#45;&gt;Node3</title>
<g id="a_edge2_Node000001_Node000003"><a xlink:title=" ">
<path fill="none" stroke="#63b8ff" d="M214.89,-27.85C206.33,-26.93 197.7,-26 189.22,-25.09"/>
<polygon fill="#63b8ff" stroke="#63b8ff" points="214.58,-31.34 224.9,-28.93 215.33,-24.38 214.58,-31.34"/>
</a>
</g>
</g>
</g>
</svg>
