<?xml version="1.0" encoding="UTF-8" standalone="no"?>
<!DOCTYPE svg PUBLIC "-//W3C//DTD SVG 1.1//EN"
 "http://www.w3.org/Graphics/SVG/1.1/DTD/svg11.dtd">
<!-- Generated by graphviz version 2.43.0 (0)
 -->
<!-- Title: com.teragrep.cfe_16.event.time.HECTimeImplWithFallback.instant Pages: 1 -->
<svg width="422pt" height="76pt"
 viewBox="0.00 0.00 422.00 75.50" xmlns="http://www.w3.org/2000/svg" xmlns:xlink="http://www.w3.org/1999/xlink">
<g id="graph0" class="graph" transform="scale(1 1) rotate(0) translate(4 71.5)">
<title>com.teragrep.cfe_16.event.time.HECTimeImplWithFallback.instant</title>
<!-- Node1 -->
<g id="Node000001" class="node">
<title>Node1</title>
<g id="a_Node000001"><a xlink:title=" ">
<polygon fill="#999999" stroke="#666666" points="182,-45.5 0,-45.5 0,-15.5 182,-15.5 182,-45.5"/>
<text text-anchor="start" x="8" y="-33.5" font-family="Helvetica,sans-Serif" font-size="10.00">com.teragrep.cfe_16.event.time.</text>
<text text-anchor="middle" x="91" y="-22.5" font-family="Helvetica,sans-Serif" font-size="10.00">HECTimeImplWithFallback.instant</text>
</a>
</g>
</g>
<!-- Node2 -->
<g id="Node000002" class="node">
<title>Node2</title>
<g id="a_Node000002"><a xlink:href="interfacecom_1_1teragrep_1_1cfe__16_1_1event_1_1time_1_1HECTime.html#a26d9d1af821f1ee6b7f90a6b33b3ac01" target="_top" xlink:title=" ">
<polygon fill="white" stroke="#666666" points="404,-67.5 228,-67.5 228,-37.5 404,-37.5 404,-67.5"/>
<text text-anchor="start" x="236" y="-55.5" font-family="Helvetica,sans-Serif" font-size="10.00">com.teragrep.cfe_16.event.time.</text>
<text text-anchor="middle" x="316" y="-44.5" font-family="Helvetica,sans-Serif" font-size="10.00">HECTime.instant</text>
</a>
</g>
</g>
<!-- Node1&#45;&gt;Node2 -->
<g id="edge1_Node000001_Node000002" class="edge">
<title>Node1&#45;&gt;Node2</title>
<g id="a_edge1_Node000001_Node000002"><a xlink:title=" ">
<path fill="none" stroke="#63b8ff" d="M182.06,-39.38C193.75,-40.54 205.76,-41.72 217.56,-42.89"/>
<polygon fill="#63b8ff" stroke="#63b8ff" points="217.57,-46.4 227.86,-43.9 218.25,-39.44 217.57,-46.4"/>
</a>
</g>
</g>
<!-- Node3 -->
<g id="Node000003" class="node">
<title>Node3</title>
<g id="a_Node000003"><a xlink:href="interfacecom_1_1teragrep_1_1cfe__16_1_1Stubable.html#a8e854db1814eeb807cd9049776c33923" target="_top" xlink:title=" ">
<polygon fill="white" stroke="#666666" points="414,-19 218,-19 218,0 414,0 414,-19"/>
<text text-anchor="middle" x="316" y="-7" font-family="Helvetica,sans-Serif" font-size="10.00">com.teragrep.cfe_16.Stubable.isStub</text>
</a>
</g>
</g>
<!-- Node1&#45;&gt;Node3 -->
<g id="edge2_Node000001_Node000003" class="edge">
<title>Node1&#45;&gt;Node3</title>
<g id="a_edge2_Node000001_Node000003"><a xlink:title=" ">
<path fill="none" stroke="#63b8ff" d="M182.06,-22.02C190.49,-21.23 199.08,-20.42 207.65,-19.61"/>
<polygon fill="#63b8ff" stroke="#63b8ff" points="208.05,-23.09 217.68,-18.66 207.39,-16.12 208.05,-23.09"/>
</a>
</g>
</g>
</g>
</svg>
