<?xml version="1.0" encoding="UTF-8" standalone="no"?>
<!DOCTYPE svg PUBLIC "-//W3C//DTD SVG 1.1//EN"
 "http://www.w3.org/Graphics/SVG/1.1/DTD/svg11.dtd">
<!-- Generated by graphviz version 2.43.0 (0)
 -->
<!-- Title: com.teragrep.cfe_16.TestClient.testSendEventWithBlankEventField Pages: 1 -->
<svg width="759pt" height="364pt"
 viewBox="0.00 0.00 759.00 364.00" xmlns="http://www.w3.org/2000/svg" xmlns:xlink="http://www.w3.org/1999/xlink">
<g id="graph0" class="graph" transform="scale(1 1) rotate(0) translate(4 360)">
<title>com.teragrep.cfe_16.TestClient.testSendEventWithBlankEventField</title>
<!-- Node1 -->
<g id="Node000001" class="node">
<title>Node1</title>
<g id="a_Node000001"><a xlink:title=" ">
<polygon fill="#999999" stroke="#666666" points="169,-203.5 0,-203.5 0,-162.5 169,-162.5 169,-203.5"/>
<text text-anchor="start" x="8" y="-191.5" font-family="Helvetica,sans-Serif" font-size="10.00">com.teragrep.cfe_16.Test</text>
<text text-anchor="start" x="8" y="-180.5" font-family="Helvetica,sans-Serif" font-size="10.00">Client.testSendEventWithBlank</text>
<text text-anchor="middle" x="84.5" y="-169.5" font-family="Helvetica,sans-Serif" font-size="10.00">EventField</text>
</a>
</g>
</g>
<!-- Node2 -->
<g id="Node000002" class="node">
<title>Node2</title>
<g id="a_Node000002"><a xlink:href="classcom_1_1teragrep_1_1cfe__16_1_1TestClient.html#a9e085118b18a5952fb6c4e702b0bbc8b" target="_top" xlink:title=" ">
<polygon fill="white" stroke="#666666" points="379,-198 205,-198 205,-168 379,-168 379,-198"/>
<text text-anchor="start" x="213" y="-186" font-family="Helvetica,sans-Serif" font-size="10.00">com.teragrep.cfe_16.Test</text>
<text text-anchor="middle" x="292" y="-175" font-family="Helvetica,sans-Serif" font-size="10.00">Client.doRequestAndVerifyReply</text>
</a>
</g>
</g>
<!-- Node1&#45;&gt;Node2 -->
<g id="edge1_Node000001_Node000002" class="edge">
<title>Node1&#45;&gt;Node2</title>
<g id="a_edge1_Node000001_Node000002"><a xlink:title=" ">
<path fill="none" stroke="#63b8ff" d="M169.08,-183C177.55,-183 186.2,-183 194.78,-183"/>
<polygon fill="#63b8ff" stroke="#63b8ff" points="194.82,-186.5 204.82,-183 194.82,-179.5 194.82,-186.5"/>
</a>
</g>
</g>
<!-- Node3 -->
<g id="Node000003" class="node">
<title>Node3</title>
<g id="a_Node000003"><a xlink:href="classcom_1_1teragrep_1_1cfe__16_1_1TestClient.html#af1e0ff46d1a0eb1865bc80ea89247cc8" target="_top" xlink:title="Verifies that the HTTP reply status code was what it was supposed to me.">
<polygon fill="white" stroke="#666666" points="571.5,-356 418.5,-356 418.5,-326 571.5,-326 571.5,-356"/>
<text text-anchor="start" x="426.5" y="-344" font-family="Helvetica,sans-Serif" font-size="10.00">com.teragrep.cfe_16.Test</text>
<text text-anchor="middle" x="495" y="-333" font-family="Helvetica,sans-Serif" font-size="10.00">Client.checkHttpStatusCode</text>
</a>
</g>
</g>
<!-- Node2&#45;&gt;Node3 -->
<g id="edge2_Node000002_Node000003" class="edge">
<title>Node2&#45;&gt;Node3</title>
<g id="a_edge2_Node000002_Node000003"><a xlink:title=" ">
<path fill="none" stroke="#63b8ff" d="M303.7,-198.3C323.04,-224.91 366.35,-279.95 415,-312 420.57,-315.67 426.67,-318.96 432.94,-321.88"/>
<polygon fill="#63b8ff" stroke="#63b8ff" points="431.62,-325.12 442.18,-325.89 434.41,-318.7 431.62,-325.12"/>
</a>
</g>
</g>
<!-- Node4 -->
<g id="Node000004" class="node">
<title>Node4</title>
<g id="a_Node000004"><a xlink:href="classcom_1_1teragrep_1_1cfe__16_1_1TestClient.html#a23f3e7e41dc4fd7b2f8a35dd386e5a6e" target="_top" xlink:title=" ">
<polygon fill="white" stroke="#666666" points="751,-291 611,-291 611,-261 751,-261 751,-291"/>
<text text-anchor="start" x="619" y="-279" font-family="Helvetica,sans-Serif" font-size="10.00">com.teragrep.cfe_16.Test</text>
<text text-anchor="middle" x="681" y="-268" font-family="Helvetica,sans-Serif" font-size="10.00">Client.cleanup</text>
</a>
</g>
</g>
<!-- Node2&#45;&gt;Node4 -->
<g id="edge3_Node000002_Node000004" class="edge">
<title>Node2&#45;&gt;Node4</title>
<g id="a_edge3_Node000002_Node000004"><a xlink:title=" ">
<path fill="none" stroke="#63b8ff" d="M305.73,-198.03C326.08,-220.74 368.39,-262.86 415,-279 474.84,-299.72 546.93,-297.29 600.8,-290.62"/>
<polygon fill="#63b8ff" stroke="#63b8ff" points="601.53,-294.06 610.99,-289.28 600.61,-287.12 601.53,-294.06"/>
</a>
</g>
</g>
<!-- Node5 -->
<g id="Node000005" class="node">
<title>Node5</title>
<g id="a_Node000005"><a xlink:href="classcom_1_1teragrep_1_1cfe__16_1_1TestClient.html#afa2ceaba677411954a4210a8e6d5cd49" target="_top" xlink:title="Checks that the TCP connection is open, otherwis a new connection is created and returned.">
<polygon fill="white" stroke="#666666" points="571,-174 419,-174 419,-144 571,-144 571,-174"/>
<text text-anchor="start" x="427" y="-162" font-family="Helvetica,sans-Serif" font-size="10.00">com.teragrep.cfe_16.Test</text>
<text text-anchor="middle" x="495" y="-151" font-family="Helvetica,sans-Serif" font-size="10.00">Client.ensureTcpConnection</text>
</a>
</g>
</g>
<!-- Node2&#45;&gt;Node5 -->
<g id="edge4_Node000002_Node000005" class="edge">
<title>Node2&#45;&gt;Node5</title>
<g id="a_edge4_Node000002_Node000005"><a xlink:title=" ">
<path fill="none" stroke="#63b8ff" d="M379.12,-172.72C388.92,-171.55 398.92,-170.35 408.71,-169.18"/>
<polygon fill="#63b8ff" stroke="#63b8ff" points="409.32,-172.64 418.83,-167.98 408.49,-165.69 409.32,-172.64"/>
</a>
</g>
</g>
<!-- Node7 -->
<g id="Node000007" class="node">
<title>Node7</title>
<g id="a_Node000007"><a xlink:href="classcom_1_1teragrep_1_1cfe__16_1_1TestClient.html#a50b2f87f7fce871bb32c52de3a19dd55" target="_top" xlink:title=" ">
<polygon fill="white" stroke="#666666" points="565,-222 425,-222 425,-192 565,-192 565,-222"/>
<text text-anchor="start" x="433" y="-210" font-family="Helvetica,sans-Serif" font-size="10.00">com.teragrep.cfe_16.Test</text>
<text text-anchor="middle" x="495" y="-199" font-family="Helvetica,sans-Serif" font-size="10.00">Client.getReader</text>
</a>
</g>
</g>
<!-- Node2&#45;&gt;Node7 -->
<g id="edge6_Node000002_Node000007" class="edge">
<title>Node2&#45;&gt;Node7</title>
<g id="a_edge6_Node000002_Node000007"><a xlink:title=" ">
<path fill="none" stroke="#63b8ff" d="M379.12,-193.28C390.9,-194.69 402.96,-196.13 414.61,-197.52"/>
<polygon fill="#63b8ff" stroke="#63b8ff" points="414.39,-201.02 424.74,-198.73 415.22,-194.07 414.39,-201.02"/>
</a>
</g>
</g>
<!-- Node8 -->
<g id="Node000008" class="node">
<title>Node8</title>
<g id="a_Node000008"><a xlink:href="classcom_1_1teragrep_1_1cfe__16_1_1TestClient.html#a0d90aaf874c60e700371e09e00828eaa" target="_top" xlink:title="Advances buffered reader through HTTP headers.">
<polygon fill="white" stroke="#666666" points="565,-270 425,-270 425,-240 565,-240 565,-270"/>
<text text-anchor="start" x="433" y="-258" font-family="Helvetica,sans-Serif" font-size="10.00">com.teragrep.cfe_16.Test</text>
<text text-anchor="middle" x="495" y="-247" font-family="Helvetica,sans-Serif" font-size="10.00">Client.readHeaders</text>
</a>
</g>
</g>
<!-- Node2&#45;&gt;Node8 -->
<g id="edge7_Node000002_Node000008" class="edge">
<title>Node2&#45;&gt;Node8</title>
<g id="a_edge7_Node000002_Node000008"><a xlink:title=" ">
<path fill="none" stroke="#63b8ff" d="M329.02,-198.05C353.16,-207.92 385.76,-220.83 415,-231 420.64,-232.96 426.53,-234.92 432.45,-236.82"/>
<polygon fill="#63b8ff" stroke="#63b8ff" points="431.8,-240.29 442.39,-239.97 433.91,-233.62 431.8,-240.29"/>
</a>
</g>
</g>
<!-- Node9 -->
<g id="Node000009" class="node">
<title>Node9</title>
<g id="a_Node000009"><a xlink:href="classcom_1_1teragrep_1_1cfe__16_1_1TestClient.html#a4bd78c601bcc5d6c6bafc899f8ffe1e6" target="_top" xlink:title="Reads the reply line from the servere.">
<polygon fill="white" stroke="#666666" points="566,-126 424,-126 424,-96 566,-96 566,-126"/>
<text text-anchor="start" x="432" y="-114" font-family="Helvetica,sans-Serif" font-size="10.00">com.teragrep.cfe_16.Test</text>
<text text-anchor="middle" x="495" y="-103" font-family="Helvetica,sans-Serif" font-size="10.00">Client.readResponseBody</text>
</a>
</g>
</g>
<!-- Node2&#45;&gt;Node9 -->
<g id="edge10_Node000002_Node000009" class="edge">
<title>Node2&#45;&gt;Node9</title>
<g id="a_edge10_Node000002_Node000009"><a xlink:title=" ">
<path fill="none" stroke="#63b8ff" d="M329.02,-167.95C353.16,-158.08 385.76,-145.17 415,-135 420.64,-133.04 426.53,-131.08 432.45,-129.18"/>
<polygon fill="#63b8ff" stroke="#63b8ff" points="433.91,-132.38 442.39,-126.03 431.8,-125.71 433.91,-132.38"/>
</a>
</g>
</g>
<!-- Node10 -->
<g id="Node000010" class="node">
<title>Node10</title>
<g id="a_Node000010"><a xlink:href="classcom_1_1teragrep_1_1cfe__16_1_1TestClient.html#af26faca7da3952332135d35bb9827e34" target="_top" xlink:title="Does a HTTP request and keeps connection open.">
<polygon fill="white" stroke="#666666" points="565,-78 425,-78 425,-48 565,-48 565,-78"/>
<text text-anchor="start" x="433" y="-66" font-family="Helvetica,sans-Serif" font-size="10.00">com.teragrep.cfe_16.Test</text>
<text text-anchor="middle" x="495" y="-55" font-family="Helvetica,sans-Serif" font-size="10.00">Client.sendRequest</text>
</a>
</g>
</g>
<!-- Node2&#45;&gt;Node10 -->
<g id="edge11_Node000002_Node000010" class="edge">
<title>Node2&#45;&gt;Node10</title>
<g id="a_edge11_Node000002_Node000010"><a xlink:title=" ">
<path fill="none" stroke="#63b8ff" d="M308.23,-167.87C330.1,-146.93 372.47,-109.19 415,-87 418.54,-85.15 422.25,-83.42 426.05,-81.8"/>
<polygon fill="#63b8ff" stroke="#63b8ff" points="427.61,-84.95 435.63,-78.02 425.04,-78.44 427.61,-84.95"/>
</a>
</g>
</g>
<!-- Node11 -->
<g id="Node000011" class="node">
<title>Node11</title>
<g id="a_Node000011"><a xlink:href="classcom_1_1teragrep_1_1cfe__16_1_1TestClient.html#a98be0c11009e1193c90cbf91576cc66a" target="_top" xlink:title="Validates the response body line against the given regural expression.">
<polygon fill="white" stroke="#666666" points="575,-30 415,-30 415,0 575,0 575,-30"/>
<text text-anchor="start" x="423" y="-18" font-family="Helvetica,sans-Serif" font-size="10.00">com.teragrep.cfe_16.Test</text>
<text text-anchor="middle" x="495" y="-7" font-family="Helvetica,sans-Serif" font-size="10.00">Client.validateResponseBody</text>
</a>
</g>
</g>
<!-- Node2&#45;&gt;Node11 -->
<g id="edge12_Node000002_Node000011" class="edge">
<title>Node2&#45;&gt;Node11</title>
<g id="a_edge12_Node000002_Node000011"><a xlink:title=" ">
<path fill="none" stroke="#63b8ff" d="M301.65,-167.9C319.21,-138.61 361.88,-73.91 415,-39 417.41,-37.41 419.94,-35.93 422.54,-34.54"/>
<polygon fill="#63b8ff" stroke="#63b8ff" points="424.14,-37.65 431.64,-30.17 421.11,-31.34 424.14,-37.65"/>
</a>
</g>
</g>
<!-- Node6 -->
<g id="Node000006" class="node">
<title>Node6</title>
<g id="a_Node000006"><a xlink:href="classcom_1_1teragrep_1_1cfe__16_1_1TestClient.html#ab44ab6c8d2bd008181c5e31a2a8dfaa3" target="_top" xlink:title=" ">
<polygon fill="white" stroke="#666666" points="751,-219 611,-219 611,-189 751,-189 751,-219"/>
<text text-anchor="start" x="619" y="-207" font-family="Helvetica,sans-Serif" font-size="10.00">com.teragrep.cfe_16.Test</text>
<text text-anchor="middle" x="681" y="-196" font-family="Helvetica,sans-Serif" font-size="10.00">Client.createSocket</text>
</a>
</g>
</g>
<!-- Node5&#45;&gt;Node6 -->
<g id="edge5_Node000005_Node000006" class="edge">
<title>Node5&#45;&gt;Node6</title>
<g id="a_edge5_Node000005_Node000006"><a xlink:title=" ">
<path fill="none" stroke="#63b8ff" d="M557.53,-174.05C573.94,-178.06 591.82,-182.43 608.72,-186.57"/>
<polygon fill="#63b8ff" stroke="#63b8ff" points="607.99,-189.99 618.53,-188.97 609.65,-183.19 607.99,-189.99"/>
</a>
</g>
</g>
<!-- Node8&#45;&gt;Node4 -->
<g id="edge8_Node000008_Node000004" class="edge">
<title>Node8&#45;&gt;Node4</title>
<g id="a_edge8_Node000008_Node000004"><a xlink:title=" ">
<path fill="none" stroke="#63b8ff" d="M565.04,-262.88C576.75,-264.22 588.99,-265.61 600.94,-266.98"/>
<polygon fill="#63b8ff" stroke="#63b8ff" points="600.55,-270.45 610.88,-268.11 601.34,-263.5 600.55,-270.45"/>
</a>
</g>
</g>
<!-- Node8&#45;&gt;Node6 -->
<g id="edge9_Node000008_Node000006" class="edge">
<title>Node8&#45;&gt;Node6</title>
<g id="a_edge9_Node000008_Node000006"><a xlink:title=" ">
<path fill="none" stroke="#63b8ff" d="M550.21,-239.97C570.89,-234.24 594.66,-227.65 616.16,-221.69"/>
<polygon fill="#63b8ff" stroke="#63b8ff" points="617.16,-225.05 625.86,-219.01 615.29,-218.3 617.16,-225.05"/>
</a>
</g>
</g>
</g>
</svg>
