<?xml version="1.0" encoding="UTF-8" standalone="no"?>
<!DOCTYPE svg PUBLIC "-//W3C//DTD SVG 1.1//EN"
 "http://www.w3.org/Graphics/SVG/1.1/DTD/svg11.dtd">
<!-- Generated by graphviz version 2.43.0 (0)
 -->
<!-- Title: com.teragrep.cfe_16.TestClient.run Pages: 1 -->
<svg width="988pt" height="436pt"
 viewBox="0.00 0.00 988.00 435.51" xmlns="http://www.w3.org/2000/svg" xmlns:xlink="http://www.w3.org/1999/xlink">
<g id="graph0" class="graph" transform="scale(1 1) rotate(0) translate(4 431.51)">
<title>com.teragrep.cfe_16.TestClient.run</title>
<!-- Node1 -->
<g id="Node000001" class="node">
<title>Node1</title>
<g id="a_Node000001"><a xlink:title=" ">
<polygon fill="#999999" stroke="#666666" points="140,-224 0,-224 0,-194 140,-194 140,-224"/>
<text text-anchor="start" x="8" y="-212" font-family="Helvetica,sans-Serif" font-size="10.00">com.teragrep.cfe_16.Test</text>
<text text-anchor="middle" x="70" y="-201" font-family="Helvetica,sans-Serif" font-size="10.00">Client.run</text>
</a>
</g>
</g>
<!-- Node2 -->
<g id="Node000002" class="node">
<title>Node2</title>
<g id="a_Node000002"><a xlink:href="classcom_1_1teragrep_1_1cfe__16_1_1TestClient.html#ab44ab6c8d2bd008181c5e31a2a8dfaa3" target="_top" xlink:title=" ">
<polygon fill="white" stroke="#666666" points="980,-356 840,-356 840,-326 980,-326 980,-356"/>
<text text-anchor="start" x="848" y="-344" font-family="Helvetica,sans-Serif" font-size="10.00">com.teragrep.cfe_16.Test</text>
<text text-anchor="middle" x="910" y="-333" font-family="Helvetica,sans-Serif" font-size="10.00">Client.createSocket</text>
</a>
</g>
</g>
<!-- Node1&#45;&gt;Node2 -->
<g id="edge1_Node000001_Node000002" class="edge">
<title>Node1&#45;&gt;Node2</title>
<g id="a_edge1_Node000001_Node000002"><a xlink:title=" ">
<path fill="none" stroke="#63b8ff" d="M75.77,-224.22C87.01,-257.14 118.65,-334.47 176,-365 404.16,-486.46 731.39,-400.2 857.1,-359.28"/>
<polygon fill="#63b8ff" stroke="#63b8ff" points="858.46,-362.51 866.86,-356.06 856.27,-355.86 858.46,-362.51"/>
</a>
</g>
</g>
<!-- Node3 -->
<g id="Node000003" class="node">
<title>Node3</title>
<g id="a_Node000003"><a xlink:href="classcom_1_1teragrep_1_1cfe__16_1_1TestClient.html#a9c2d967534908ef205ef5d27459ffb2a" target="_top" xlink:title=" ">
<polygon fill="white" stroke="#666666" points="368.5,-307.5 205.5,-307.5 205.5,-266.5 368.5,-266.5 368.5,-307.5"/>
<text text-anchor="start" x="213.5" y="-295.5" font-family="Helvetica,sans-Serif" font-size="10.00">com.teragrep.cfe_16.Test</text>
<text text-anchor="start" x="213.5" y="-284.5" font-family="Helvetica,sans-Serif" font-size="10.00">Client.testGetAcksWithInvalid</text>
<text text-anchor="middle" x="287" y="-273.5" font-family="Helvetica,sans-Serif" font-size="10.00">Channel</text>
</a>
</g>
</g>
<!-- Node1&#45;&gt;Node3 -->
<g id="edge2_Node000001_Node000003" class="edge">
<title>Node1&#45;&gt;Node3</title>
<g id="a_edge2_Node000001_Node000003"><a xlink:title=" ">
<path fill="none" stroke="#63b8ff" d="M100.78,-224.19C121.51,-234.37 149.99,-247.58 176,-257 182.31,-259.29 188.89,-261.5 195.54,-263.6"/>
<polygon fill="#63b8ff" stroke="#63b8ff" points="194.73,-267.02 205.32,-266.62 196.8,-260.33 194.73,-267.02"/>
</a>
</g>
</g>
<!-- Node13 -->
<g id="Node000013" class="node">
<title>Node13</title>
<g id="a_Node000013"><a xlink:href="classcom_1_1teragrep_1_1cfe__16_1_1TestClient.html#a69a3a4168d422752fdaaadd5c5cd790f" target="_top" xlink:title=" ">
<polygon fill="white" stroke="#666666" points="379.5,-248 194.5,-248 194.5,-218 379.5,-218 379.5,-248"/>
<text text-anchor="start" x="202.5" y="-236" font-family="Helvetica,sans-Serif" font-size="10.00">com.teragrep.cfe_16.Test</text>
<text text-anchor="middle" x="287" y="-225" font-family="Helvetica,sans-Serif" font-size="10.00">Client.testGetAcksWithoutChannel</text>
</a>
</g>
</g>
<!-- Node1&#45;&gt;Node13 -->
<g id="edge15_Node000001_Node000013" class="edge">
<title>Node1&#45;&gt;Node13</title>
<g id="a_edge15_Node000001_Node000013"><a xlink:title=" ">
<path fill="none" stroke="#63b8ff" d="M140.21,-216.73C154.17,-218.28 169.13,-219.95 183.95,-221.61"/>
<polygon fill="#63b8ff" stroke="#63b8ff" points="183.84,-225.12 194.17,-222.75 184.62,-218.16 183.84,-225.12"/>
</a>
</g>
</g>
<!-- Node14 -->
<g id="Node000014" class="node">
<title>Node14</title>
<g id="a_Node000014"><a xlink:href="classcom_1_1teragrep_1_1cfe__16_1_1TestClient.html#ad130088aff54cc3f8c81520b483c5e0b" target="_top" xlink:title=" ">
<polygon fill="white" stroke="#666666" points="357,-200 217,-200 217,-170 357,-170 357,-200"/>
<text text-anchor="start" x="225" y="-188" font-family="Helvetica,sans-Serif" font-size="10.00">com.teragrep.cfe_16.Test</text>
<text text-anchor="middle" x="287" y="-177" font-family="Helvetica,sans-Serif" font-size="10.00">Client.testSendEvent</text>
</a>
</g>
</g>
<!-- Node1&#45;&gt;Node14 -->
<g id="edge17_Node000001_Node000014" class="edge">
<title>Node1&#45;&gt;Node14</title>
<g id="a_edge17_Node000001_Node000014"><a xlink:title=" ">
<path fill="none" stroke="#63b8ff" d="M140.21,-201.27C161.41,-198.91 184.88,-196.29 206.7,-193.85"/>
<polygon fill="#63b8ff" stroke="#63b8ff" points="207.37,-197.3 216.92,-192.71 206.59,-190.34 207.37,-197.3"/>
</a>
</g>
</g>
<!-- Node15 -->
<g id="Node000015" class="node">
<title>Node15</title>
<g id="a_Node000015"><a xlink:href="classcom_1_1teragrep_1_1cfe__16_1_1TestClient.html#a28b7521af8099aa24e934d2d7f219305" target="_top" xlink:title=" ">
<polygon fill="white" stroke="#666666" points="372,-152 202,-152 202,-122 372,-122 372,-152"/>
<text text-anchor="start" x="210" y="-140" font-family="Helvetica,sans-Serif" font-size="10.00">com.teragrep.cfe_16.Test</text>
<text text-anchor="middle" x="287" y="-129" font-family="Helvetica,sans-Serif" font-size="10.00">Client.testSendEventWithAckID</text>
</a>
</g>
</g>
<!-- Node1&#45;&gt;Node15 -->
<g id="edge19_Node000001_Node000015" class="edge">
<title>Node1&#45;&gt;Node15</title>
<g id="a_edge19_Node000001_Node000015"><a xlink:title=" ">
<path fill="none" stroke="#63b8ff" d="M99.74,-193.83C120.47,-183.4 149.38,-169.87 176,-161 182.88,-158.7 190.08,-156.57 197.37,-154.6"/>
<polygon fill="#63b8ff" stroke="#63b8ff" points="198.52,-157.91 207.32,-152.01 196.76,-151.14 198.52,-157.91"/>
</a>
</g>
</g>
<!-- Node16 -->
<g id="Node000016" class="node">
<title>Node16</title>
<g id="a_Node000016"><a xlink:href="classcom_1_1teragrep_1_1cfe__16_1_1TestClient.html#a243cd15a09a303384ac53f15266c45e7" target="_top" xlink:title=" ">
<polygon fill="white" stroke="#666666" points="371.5,-103.5 202.5,-103.5 202.5,-62.5 371.5,-62.5 371.5,-103.5"/>
<text text-anchor="start" x="210.5" y="-91.5" font-family="Helvetica,sans-Serif" font-size="10.00">com.teragrep.cfe_16.Test</text>
<text text-anchor="start" x="210.5" y="-80.5" font-family="Helvetica,sans-Serif" font-size="10.00">Client.testSendEventWithBlank</text>
<text text-anchor="middle" x="287" y="-69.5" font-family="Helvetica,sans-Serif" font-size="10.00">EventField</text>
</a>
</g>
</g>
<!-- Node1&#45;&gt;Node16 -->
<g id="edge21_Node000001_Node000016" class="edge">
<title>Node1&#45;&gt;Node16</title>
<g id="a_edge21_Node000001_Node000016"><a xlink:title=" ">
<path fill="none" stroke="#63b8ff" d="M83.27,-193.96C101.37,-172.77 137.27,-134.33 176,-113 181.4,-110.02 187.12,-107.33 193,-104.89"/>
<polygon fill="#63b8ff" stroke="#63b8ff" points="194.29,-108.14 202.35,-101.26 191.76,-101.61 194.29,-108.14"/>
</a>
</g>
</g>
<!-- Node17 -->
<g id="Node000017" class="node">
<title>Node17</title>
<g id="a_Node000017"><a xlink:href="classcom_1_1teragrep_1_1cfe__16_1_1TestClient.html#ab21f9e0639df4e95228404e94a6981a8" target="_top" xlink:title=" ">
<polygon fill="white" stroke="#666666" points="398,-44 176,-44 176,-14 398,-14 398,-44"/>
<text text-anchor="start" x="184" y="-32" font-family="Helvetica,sans-Serif" font-size="10.00">com.teragrep.cfe_16.Test</text>
<text text-anchor="middle" x="287" y="-21" font-family="Helvetica,sans-Serif" font-size="10.00">Client.testSendEventWithoutAuthorization</text>
</a>
</g>
</g>
<!-- Node1&#45;&gt;Node17 -->
<g id="edge23_Node000001_Node000017" class="edge">
<title>Node1&#45;&gt;Node17</title>
<g id="a_edge23_Node000001_Node000017"><a xlink:title=" ">
<path fill="none" stroke="#63b8ff" d="M76.68,-193.72C89.3,-162.04 122.8,-89.13 176,-53 178.31,-51.43 180.7,-49.97 183.16,-48.59"/>
<polygon fill="#63b8ff" stroke="#63b8ff" points="184.95,-51.61 192.34,-44.02 181.83,-45.35 184.95,-51.61"/>
</a>
</g>
</g>
<!-- Node18 -->
<g id="Node000018" class="node">
<title>Node18</title>
<g id="a_Node000018"><a xlink:href="classcom_1_1teragrep_1_1cfe__16_1_1TestClient.html#ac04d2efab8deede690e209bd346c4aa3" target="_top" xlink:title=" ">
<polygon fill="white" stroke="#666666" points="391,-356 183,-356 183,-326 391,-326 391,-356"/>
<text text-anchor="start" x="191" y="-344" font-family="Helvetica,sans-Serif" font-size="10.00">com.teragrep.cfe_16.Test</text>
<text text-anchor="middle" x="287" y="-333" font-family="Helvetica,sans-Serif" font-size="10.00">Client.testSendEventWithoutEventField</text>
</a>
</g>
</g>
<!-- Node1&#45;&gt;Node18 -->
<g id="edge25_Node000001_Node000018" class="edge">
<title>Node1&#45;&gt;Node18</title>
<g id="a_edge25_Node000001_Node000018"><a xlink:title=" ">
<path fill="none" stroke="#63b8ff" d="M81.26,-224.28C98.1,-248.06 133.94,-293.63 176,-317 179.31,-318.84 182.76,-320.54 186.29,-322.11"/>
<polygon fill="#63b8ff" stroke="#63b8ff" points="185.24,-325.46 195.83,-325.97 187.87,-318.97 185.24,-325.46"/>
</a>
</g>
</g>
<!-- Node4 -->
<g id="Node000004" class="node">
<title>Node4</title>
<g id="a_Node000004"><a xlink:href="classcom_1_1teragrep_1_1cfe__16_1_1TestClient.html#a9e085118b18a5952fb6c4e702b0bbc8b" target="_top" xlink:title=" ">
<polygon fill="white" stroke="#666666" points="608,-200 434,-200 434,-170 608,-170 608,-200"/>
<text text-anchor="start" x="442" y="-188" font-family="Helvetica,sans-Serif" font-size="10.00">com.teragrep.cfe_16.Test</text>
<text text-anchor="middle" x="521" y="-177" font-family="Helvetica,sans-Serif" font-size="10.00">Client.doRequestAndVerifyReply</text>
</a>
</g>
</g>
<!-- Node3&#45;&gt;Node4 -->
<g id="edge3_Node000003_Node000004" class="edge">
<title>Node3&#45;&gt;Node4</title>
<g id="a_edge3_Node000003_Node000004"><a xlink:title=" ">
<path fill="none" stroke="#63b8ff" d="M368.75,-267.66C378.74,-264.48 388.7,-260.93 398,-257 431.09,-243.02 466.14,-221.55 490.13,-205.7"/>
<polygon fill="#63b8ff" stroke="#63b8ff" points="492.09,-208.6 498.45,-200.13 488.19,-202.78 492.09,-208.6"/>
</a>
</g>
</g>
<!-- Node5 -->
<g id="Node000005" class="node">
<title>Node5</title>
<g id="a_Node000005"><a xlink:href="classcom_1_1teragrep_1_1cfe__16_1_1TestClient.html#af1e0ff46d1a0eb1865bc80ea89247cc8" target="_top" xlink:title="Verifies that the HTTP reply status code was what it was supposed to me.">
<polygon fill="white" stroke="#666666" points="800.5,-260 647.5,-260 647.5,-230 800.5,-230 800.5,-260"/>
<text text-anchor="start" x="655.5" y="-248" font-family="Helvetica,sans-Serif" font-size="10.00">com.teragrep.cfe_16.Test</text>
<text text-anchor="middle" x="724" y="-237" font-family="Helvetica,sans-Serif" font-size="10.00">Client.checkHttpStatusCode</text>
</a>
</g>
</g>
<!-- Node4&#45;&gt;Node5 -->
<g id="edge4_Node000004_Node000005" class="edge">
<title>Node4&#45;&gt;Node5</title>
<g id="a_edge4_Node000004_Node000005"><a xlink:title=" ">
<path fill="none" stroke="#63b8ff" d="M572.46,-200.06C599.82,-208.23 633.82,-218.38 662.58,-226.96"/>
<polygon fill="#63b8ff" stroke="#63b8ff" points="661.93,-230.42 672.52,-229.93 663.94,-223.72 661.93,-230.42"/>
</a>
</g>
</g>
<!-- Node6 -->
<g id="Node000006" class="node">
<title>Node6</title>
<g id="a_Node000006"><a xlink:href="classcom_1_1teragrep_1_1cfe__16_1_1TestClient.html#a23f3e7e41dc4fd7b2f8a35dd386e5a6e" target="_top" xlink:title=" ">
<polygon fill="white" stroke="#666666" points="980,-167 840,-167 840,-137 980,-137 980,-167"/>
<text text-anchor="start" x="848" y="-155" font-family="Helvetica,sans-Serif" font-size="10.00">com.teragrep.cfe_16.Test</text>
<text text-anchor="middle" x="910" y="-144" font-family="Helvetica,sans-Serif" font-size="10.00">Client.cleanup</text>
</a>
</g>
</g>
<!-- Node4&#45;&gt;Node6 -->
<g id="edge5_Node000004_Node000006" class="edge">
<title>Node4&#45;&gt;Node6</title>
<g id="a_edge5_Node000004_Node000006"><a xlink:title=" ">
<path fill="none" stroke="#63b8ff" d="M544.64,-169.9C568.28,-155.12 606.99,-133.61 644,-125 713.26,-108.89 733.45,-116.07 804,-125 819.55,-126.97 836.09,-130.51 851.33,-134.4"/>
<polygon fill="#63b8ff" stroke="#63b8ff" points="850.58,-137.82 861.14,-136.99 852.37,-131.05 850.58,-137.82"/>
</a>
</g>
</g>
<!-- Node7 -->
<g id="Node000007" class="node">
<title>Node7</title>
<g id="a_Node000007"><a xlink:href="classcom_1_1teragrep_1_1cfe__16_1_1TestClient.html#afa2ceaba677411954a4210a8e6d5cd49" target="_top" xlink:title="Checks that the TCP connection is open, otherwis a new connection is created and returned.">
<polygon fill="white" stroke="#666666" points="800,-356 648,-356 648,-326 800,-326 800,-356"/>
<text text-anchor="start" x="656" y="-344" font-family="Helvetica,sans-Serif" font-size="10.00">com.teragrep.cfe_16.Test</text>
<text text-anchor="middle" x="724" y="-333" font-family="Helvetica,sans-Serif" font-size="10.00">Client.ensureTcpConnection</text>
</a>
</g>
</g>
<!-- Node4&#45;&gt;Node7 -->
<g id="edge6_Node000004_Node000007" class="edge">
<title>Node4&#45;&gt;Node7</title>
<g id="a_edge6_Node000004_Node000007"><a xlink:title=" ">
<path fill="none" stroke="#63b8ff" d="M531.83,-200.09C550.44,-227.45 593.5,-285.35 644,-317 646.65,-318.66 649.42,-320.21 652.27,-321.66"/>
<polygon fill="#63b8ff" stroke="#63b8ff" points="651.06,-324.95 661.6,-325.95 653.98,-318.59 651.06,-324.95"/>
</a>
</g>
</g>
<!-- Node8 -->
<g id="Node000008" class="node">
<title>Node8</title>
<g id="a_Node000008"><a xlink:href="classcom_1_1teragrep_1_1cfe__16_1_1TestClient.html#a50b2f87f7fce871bb32c52de3a19dd55" target="_top" xlink:title=" ">
<polygon fill="white" stroke="#666666" points="794,-164 654,-164 654,-134 794,-134 794,-164"/>
<text text-anchor="start" x="662" y="-152" font-family="Helvetica,sans-Serif" font-size="10.00">com.teragrep.cfe_16.Test</text>
<text text-anchor="middle" x="724" y="-141" font-family="Helvetica,sans-Serif" font-size="10.00">Client.getReader</text>
</a>
</g>
</g>
<!-- Node4&#45;&gt;Node8 -->
<g id="edge8_Node000004_Node000008" class="edge">
<title>Node4&#45;&gt;Node8</title>
<g id="a_edge8_Node000004_Node000008"><a xlink:title=" ">
<path fill="none" stroke="#63b8ff" d="M605.79,-169.99C618.45,-167.73 631.48,-165.39 644.04,-163.14"/>
<polygon fill="#63b8ff" stroke="#63b8ff" points="644.77,-166.57 653.99,-161.36 643.53,-159.68 644.77,-166.57"/>
</a>
</g>
</g>
<!-- Node9 -->
<g id="Node000009" class="node">
<title>Node9</title>
<g id="a_Node000009"><a xlink:href="classcom_1_1teragrep_1_1cfe__16_1_1TestClient.html#a0d90aaf874c60e700371e09e00828eaa" target="_top" xlink:title="Advances buffered reader through HTTP headers.">
<polygon fill="white" stroke="#666666" points="794,-212 654,-212 654,-182 794,-182 794,-212"/>
<text text-anchor="start" x="662" y="-200" font-family="Helvetica,sans-Serif" font-size="10.00">com.teragrep.cfe_16.Test</text>
<text text-anchor="middle" x="724" y="-189" font-family="Helvetica,sans-Serif" font-size="10.00">Client.readHeaders</text>
</a>
</g>
</g>
<!-- Node4&#45;&gt;Node9 -->
<g id="edge9_Node000004_Node000009" class="edge">
<title>Node4&#45;&gt;Node9</title>
<g id="a_edge9_Node000004_Node000009"><a xlink:title=" ">
<path fill="none" stroke="#63b8ff" d="M608.12,-190.14C619.9,-190.84 631.96,-191.56 643.61,-192.26"/>
<polygon fill="#63b8ff" stroke="#63b8ff" points="643.55,-195.76 653.74,-192.86 643.97,-188.78 643.55,-195.76"/>
</a>
</g>
</g>
<!-- Node10 -->
<g id="Node000010" class="node">
<title>Node10</title>
<g id="a_Node000010"><a xlink:href="classcom_1_1teragrep_1_1cfe__16_1_1TestClient.html#a4bd78c601bcc5d6c6bafc899f8ffe1e6" target="_top" xlink:title="Reads the reply line from the servere.">
<polygon fill="white" stroke="#666666" points="795,-78 653,-78 653,-48 795,-48 795,-78"/>
<text text-anchor="start" x="661" y="-66" font-family="Helvetica,sans-Serif" font-size="10.00">com.teragrep.cfe_16.Test</text>
<text text-anchor="middle" x="724" y="-55" font-family="Helvetica,sans-Serif" font-size="10.00">Client.readResponseBody</text>
</a>
</g>
</g>
<!-- Node4&#45;&gt;Node10 -->
<g id="edge12_Node000004_Node000010" class="edge">
<title>Node4&#45;&gt;Node10</title>
<g id="a_edge12_Node000004_Node000010"><a xlink:title=" ">
<path fill="none" stroke="#63b8ff" d="M538.64,-169.69C561.13,-149.64 603.13,-114.41 644,-92 650.76,-88.3 658.08,-84.89 665.45,-81.81"/>
<polygon fill="#63b8ff" stroke="#63b8ff" points="666.79,-85.05 674.78,-78.09 664.19,-78.54 666.79,-85.05"/>
</a>
</g>
</g>
<!-- Node11 -->
<g id="Node000011" class="node">
<title>Node11</title>
<g id="a_Node000011"><a xlink:href="classcom_1_1teragrep_1_1cfe__16_1_1TestClient.html#af26faca7da3952332135d35bb9827e34" target="_top" xlink:title="Does a HTTP request and keeps connection open.">
<polygon fill="white" stroke="#666666" points="794,-30 654,-30 654,0 794,0 794,-30"/>
<text text-anchor="start" x="662" y="-18" font-family="Helvetica,sans-Serif" font-size="10.00">com.teragrep.cfe_16.Test</text>
<text text-anchor="middle" x="724" y="-7" font-family="Helvetica,sans-Serif" font-size="10.00">Client.sendRequest</text>
</a>
</g>
</g>
<!-- Node4&#45;&gt;Node11 -->
<g id="edge13_Node000004_Node000011" class="edge">
<title>Node4&#45;&gt;Node11</title>
<g id="a_edge13_Node000004_Node000011"><a xlink:title=" ">
<path fill="none" stroke="#63b8ff" d="M530.6,-169.68C548.06,-139.98 590.57,-74.38 644,-39 646.41,-37.4 648.93,-35.91 651.53,-34.52"/>
<polygon fill="#63b8ff" stroke="#63b8ff" points="653.13,-37.63 660.61,-30.13 650.08,-31.33 653.13,-37.63"/>
</a>
</g>
</g>
<!-- Node12 -->
<g id="Node000012" class="node">
<title>Node12</title>
<g id="a_Node000012"><a xlink:href="classcom_1_1teragrep_1_1cfe__16_1_1TestClient.html#a98be0c11009e1193c90cbf91576cc66a" target="_top" xlink:title="Validates the response body line against the given regural expression.">
<polygon fill="white" stroke="#666666" points="804,-308 644,-308 644,-278 804,-278 804,-308"/>
<text text-anchor="start" x="652" y="-296" font-family="Helvetica,sans-Serif" font-size="10.00">com.teragrep.cfe_16.Test</text>
<text text-anchor="middle" x="724" y="-285" font-family="Helvetica,sans-Serif" font-size="10.00">Client.validateResponseBody</text>
</a>
</g>
</g>
<!-- Node4&#45;&gt;Node12 -->
<g id="edge14_Node000004_Node000012" class="edge">
<title>Node4&#45;&gt;Node12</title>
<g id="a_edge14_Node000004_Node000012"><a xlink:title=" ">
<path fill="none" stroke="#63b8ff" d="M540.32,-200.32C563.26,-218.85 604.38,-249.91 644,-269 647.85,-270.85 651.87,-272.6 655.98,-274.24"/>
<polygon fill="#63b8ff" stroke="#63b8ff" points="655.08,-277.64 665.67,-277.88 657.54,-271.09 655.08,-277.64"/>
</a>
</g>
</g>
<!-- Node7&#45;&gt;Node2 -->
<g id="edge7_Node000007_Node000002" class="edge">
<title>Node7&#45;&gt;Node2</title>
<g id="a_edge7_Node000007_Node000002"><a xlink:title=" ">
<path fill="none" stroke="#63b8ff" d="M800.11,-341C809.84,-341 819.84,-341 829.64,-341"/>
<polygon fill="#63b8ff" stroke="#63b8ff" points="829.76,-344.5 839.76,-341 829.76,-337.5 829.76,-344.5"/>
</a>
</g>
</g>
<!-- Node9&#45;&gt;Node2 -->
<g id="edge11_Node000009_Node000002" class="edge">
<title>Node9&#45;&gt;Node2</title>
<g id="a_edge11_Node000009_Node000002"><a xlink:title=" ">
<path fill="none" stroke="#63b8ff" d="M786.9,-212.08C792.89,-214.62 798.7,-217.58 804,-221 843.07,-246.23 876.08,-290.03 894.16,-317.16"/>
<polygon fill="#63b8ff" stroke="#63b8ff" points="891.31,-319.2 899.71,-325.67 897.18,-315.38 891.31,-319.2"/>
</a>
</g>
</g>
<!-- Node9&#45;&gt;Node6 -->
<g id="edge10_Node000009_Node000006" class="edge">
<title>Node9&#45;&gt;Node6</title>
<g id="a_edge10_Node000009_Node000006"><a xlink:title=" ">
<path fill="none" stroke="#63b8ff" d="M786.53,-181.95C802.94,-177.94 820.82,-173.57 837.72,-169.43"/>
<polygon fill="#63b8ff" stroke="#63b8ff" points="838.65,-172.81 847.53,-167.03 836.99,-166.01 838.65,-172.81"/>
</a>
</g>
</g>
<!-- Node13&#45;&gt;Node4 -->
<g id="edge16_Node000013_Node000004" class="edge">
<title>Node13&#45;&gt;Node4</title>
<g id="a_edge16_Node000013_Node000004"><a xlink:title=" ">
<path fill="none" stroke="#63b8ff" d="M360.77,-217.94C385.17,-212.9 412.55,-207.23 437.63,-202.04"/>
<polygon fill="#63b8ff" stroke="#63b8ff" points="438.41,-205.46 447.49,-200 436.99,-198.6 438.41,-205.46"/>
</a>
</g>
</g>
<!-- Node14&#45;&gt;Node4 -->
<g id="edge18_Node000014_Node000004" class="edge">
<title>Node14&#45;&gt;Node4</title>
<g id="a_edge18_Node000014_Node000004"><a xlink:title=" ">
<path fill="none" stroke="#63b8ff" d="M357.29,-185C378.14,-185 401.39,-185 423.65,-185"/>
<polygon fill="#63b8ff" stroke="#63b8ff" points="423.8,-188.5 433.8,-185 423.8,-181.5 423.8,-188.5"/>
</a>
</g>
</g>
<!-- Node15&#45;&gt;Node4 -->
<g id="edge20_Node000015_Node000004" class="edge">
<title>Node15&#45;&gt;Node4</title>
<g id="a_edge20_Node000015_Node000004"><a xlink:title=" ">
<path fill="none" stroke="#63b8ff" d="M360.77,-152.06C385.17,-157.1 412.55,-162.77 437.63,-167.96"/>
<polygon fill="#63b8ff" stroke="#63b8ff" points="436.99,-171.4 447.49,-170 438.41,-164.54 436.99,-171.4"/>
</a>
</g>
</g>
<!-- Node16&#45;&gt;Node4 -->
<g id="edge22_Node000016_Node000004" class="edge">
<title>Node16&#45;&gt;Node4</title>
<g id="a_edge22_Node000016_Node000004"><a xlink:title=" ">
<path fill="none" stroke="#63b8ff" d="M371.69,-103.29C380.69,-106.22 389.61,-109.46 398,-113 431.09,-126.98 466.14,-148.45 490.13,-164.3"/>
<polygon fill="#63b8ff" stroke="#63b8ff" points="488.19,-167.22 498.45,-169.87 492.09,-161.4 488.19,-167.22"/>
</a>
</g>
</g>
<!-- Node17&#45;&gt;Node4 -->
<g id="edge24_Node000017_Node000004" class="edge">
<title>Node17&#45;&gt;Node4</title>
<g id="a_edge24_Node000017_Node000004"><a xlink:title=" ">
<path fill="none" stroke="#63b8ff" d="M378.84,-44.07C385.51,-46.6 391.98,-49.55 398,-53 445.13,-79.97 484.55,-131.26 504.97,-161.35"/>
<polygon fill="#63b8ff" stroke="#63b8ff" points="502.24,-163.56 510.69,-169.95 508.07,-159.69 502.24,-163.56"/>
</a>
</g>
</g>
<!-- Node18&#45;&gt;Node4 -->
<g id="edge26_Node000018_Node000004" class="edge">
<title>Node18&#45;&gt;Node4</title>
<g id="a_edge26_Node000018_Node000004"><a xlink:title=" ">
<path fill="none" stroke="#63b8ff" d="M378.84,-325.93C385.51,-323.4 391.98,-320.45 398,-317 445.13,-290.03 484.55,-238.74 504.97,-208.65"/>
<polygon fill="#63b8ff" stroke="#63b8ff" points="508.07,-210.31 510.69,-200.05 502.24,-206.44 508.07,-210.31"/>
</a>
</g>
</g>
</g>
</svg>
