<?xml version="1.0" encoding="UTF-8" standalone="no"?>
<!DOCTYPE svg PUBLIC "-//W3C//DTD SVG 1.1//EN"
 "http://www.w3.org/Graphics/SVG/1.1/DTD/svg11.dtd">
<!-- Generated by graphviz version 2.43.0 (0)
 -->
<!-- Title: Graphical Class Hierarchy Pages: 1 -->
<svg width="610pt" height="146pt"
 viewBox="0.00 0.00 610.00 145.50" xmlns="http://www.w3.org/2000/svg" xmlns:xlink="http://www.w3.org/1999/xlink">
<g id="graph0" class="graph" transform="scale(1 1) rotate(0) translate(4 141.5)">
<title>Graphical Class Hierarchy</title>
<!-- Node0 -->
<g id="Node000000" class="node">
<title>Node0</title>
<g id="a_Node000000"><a xlink:title=" ">
<polygon fill="#e0e0e0" stroke="#999999" points="167,-81.5 0,-81.5 0,-62.5 167,-62.5 167,-81.5"/>
<text text-anchor="middle" x="83.5" y="-69.5" font-family="Helvetica,sans-Serif" font-size="10.00">AbstractSyslogMessageSender</text>
</a>
</g>
</g>
<!-- Node1 -->
<g id="Node000001" class="node">
<title>Node1</title>
<g id="a_Node000001"><a xlink:href="classcom_1_1teragrep_1_1cfe__16_1_1ThirdParty_1_1SyslogMessageSender_1_1SyslogMessageSender.html" target="_top" xlink:title="See RFC 6587 &#45; Transmission of Syslog Messages over TCP">
<polygon fill="white" stroke="#666666" points="390,-137.5 203,-137.5 203,-96.5 390,-96.5 390,-137.5"/>
<text text-anchor="start" x="211" y="-125.5" font-family="Helvetica,sans-Serif" font-size="10.00">com.teragrep.cfe_16.Third</text>
<text text-anchor="start" x="211" y="-114.5" font-family="Helvetica,sans-Serif" font-size="10.00">Party.SyslogMessageSender.Syslog</text>
<text text-anchor="middle" x="296.5" y="-103.5" font-family="Helvetica,sans-Serif" font-size="10.00">MessageSender</text>
</a>
</g>
</g>
<!-- Node0&#45;&gt;Node1 -->
<g id="edge1_Node000000_Node000001" class="edge">
<title>Node0&#45;&gt;Node1</title>
<g id="a_edge1_Node000000_Node000001"><a xlink:title=" ">
<path fill="none" stroke="#63b8ff" d="M139.1,-83.64C158.5,-87.78 180.92,-92.56 202.62,-97.19"/>
<polygon fill="#63b8ff" stroke="#63b8ff" points="139.76,-80.21 129.25,-81.54 138.3,-87.05 139.76,-80.21"/>
</a>
</g>
</g>
<!-- Node3 -->
<g id="Node000003" class="node">
<title>Node3</title>
<g id="a_Node000003"><a xlink:href="classcom_1_1teragrep_1_1cfe__16_1_1connection_1_1AbstractConnection.html" target="_top" xlink:title="An abstract connection class for sending batch messages.">
<polygon fill="white" stroke="#666666" points="384.5,-78 208.5,-78 208.5,-48 384.5,-48 384.5,-78"/>
<text text-anchor="start" x="216.5" y="-66" font-family="Helvetica,sans-Serif" font-size="10.00">com.teragrep.cfe_16.connection.</text>
<text text-anchor="middle" x="296.5" y="-55" font-family="Helvetica,sans-Serif" font-size="10.00">AbstractConnection</text>
</a>
</g>
</g>
<!-- Node0&#45;&gt;Node3 -->
<g id="edge2_Node000000_Node000003" class="edge">
<title>Node0&#45;&gt;Node3</title>
<g id="a_edge2_Node000000_Node000003"><a xlink:title=" ">
<path fill="none" stroke="#63b8ff" d="M177.5,-68.03C187.78,-67.59 198.23,-67.15 208.43,-66.71"/>
<polygon fill="#63b8ff" stroke="#63b8ff" points="177.13,-64.55 167.29,-68.47 177.43,-71.54 177.13,-64.55"/>
</a>
</g>
</g>
<!-- Node4 -->
<g id="Node000004" class="node">
<title>Node4</title>
<g id="a_Node000004"><a xlink:href="classcom_1_1teragrep_1_1cfe__16_1_1connection_1_1RelpConnection.html" target="_top" xlink:title=" ">
<polygon fill="white" stroke="#666666" points="602,-126 426,-126 426,-96 602,-96 602,-126"/>
<text text-anchor="start" x="434" y="-114" font-family="Helvetica,sans-Serif" font-size="10.00">com.teragrep.cfe_16.connection.</text>
<text text-anchor="middle" x="514" y="-103" font-family="Helvetica,sans-Serif" font-size="10.00">RelpConnection</text>
</a>
</g>
</g>
<!-- Node3&#45;&gt;Node4 -->
<g id="edge3_Node000003_Node000004" class="edge">
<title>Node3&#45;&gt;Node4</title>
<g id="a_edge3_Node000003_Node000004"><a xlink:title=" ">
<path fill="none" stroke="#63b8ff" d="M374.87,-80.23C398.02,-85.39 423.2,-91 445.65,-96"/>
<polygon fill="#63b8ff" stroke="#63b8ff" points="375.62,-76.81 365.09,-78.06 374.09,-83.65 375.62,-76.81"/>
</a>
</g>
</g>
<!-- Node5 -->
<g id="Node000005" class="node">
<title>Node5</title>
<g id="a_Node000005"><a xlink:href="classcom_1_1teragrep_1_1cfe__16_1_1connection_1_1TcpConnection.html" target="_top" xlink:title=" ">
<polygon fill="white" stroke="#666666" points="602,-78 426,-78 426,-48 602,-48 602,-78"/>
<text text-anchor="start" x="434" y="-66" font-family="Helvetica,sans-Serif" font-size="10.00">com.teragrep.cfe_16.connection.</text>
<text text-anchor="middle" x="514" y="-55" font-family="Helvetica,sans-Serif" font-size="10.00">TcpConnection</text>
</a>
</g>
</g>
<!-- Node3&#45;&gt;Node5 -->
<g id="edge4_Node000003_Node000005" class="edge">
<title>Node3&#45;&gt;Node5</title>
<g id="a_edge4_Node000003_Node000005"><a xlink:title=" ">
<path fill="none" stroke="#63b8ff" d="M394.85,-63C405.23,-63 415.74,-63 425.99,-63"/>
<polygon fill="#63b8ff" stroke="#63b8ff" points="394.53,-59.5 384.53,-63 394.53,-66.5 394.53,-59.5"/>
</a>
</g>
</g>
<!-- Node6 -->
<g id="Node000006" class="node">
<title>Node6</title>
<g id="a_Node000006"><a xlink:href="classcom_1_1teragrep_1_1cfe__16_1_1connection_1_1UdpConnection.html" target="_top" xlink:title=" ">
<polygon fill="white" stroke="#666666" points="602,-30 426,-30 426,0 602,0 602,-30"/>
<text text-anchor="start" x="434" y="-18" font-family="Helvetica,sans-Serif" font-size="10.00">com.teragrep.cfe_16.connection.</text>
<text text-anchor="middle" x="514" y="-7" font-family="Helvetica,sans-Serif" font-size="10.00">UdpConnection</text>
</a>
</g>
</g>
<!-- Node3&#45;&gt;Node6 -->
<g id="edge5_Node000003_Node000006" class="edge">
<title>Node3&#45;&gt;Node6</title>
<g id="a_edge5_Node000003_Node000006"><a xlink:title=" ">
<path fill="none" stroke="#63b8ff" d="M374.87,-45.77C398.02,-40.61 423.2,-35 445.65,-30"/>
<polygon fill="#63b8ff" stroke="#63b8ff" points="374.09,-42.35 365.09,-47.94 375.62,-49.19 374.09,-42.35"/>
</a>
</g>
</g>
<!-- Node2 -->
<g id="Node000002" class="node">
<title>Node2</title>
<g id="a_Node000002"><a xlink:title=" ">
<polygon fill="#e0e0e0" stroke="#999999" points="116,-126.5 51,-126.5 51,-107.5 116,-107.5 116,-126.5"/>
<text text-anchor="middle" x="83.5" y="-114.5" font-family="Helvetica,sans-Serif" font-size="10.00">Closeable</text>
</a>
</g>
</g>
<!-- Node2&#45;&gt;Node1 -->
<g id="edge6_Node000002_Node000001" class="edge">
<title>Node2&#45;&gt;Node1</title>
<g id="a_edge6_Node000002_Node000001"><a xlink:title=" ">
<path fill="none" stroke="#63b8ff" d="M126.37,-117C148.34,-117 176.18,-117 202.91,-117"/>
<polygon fill="#63b8ff" stroke="#63b8ff" points="126.09,-113.5 116.09,-117 126.09,-120.5 126.09,-113.5"/>
</a>
</g>
</g>
</g>
</svg>
