<?xml version="1.0" encoding="UTF-8" standalone="no"?>
<!DOCTYPE svg PUBLIC "-//W3C//DTD SVG 1.1//EN"
 "http://www.w3.org/Graphics/SVG/1.1/DTD/svg11.dtd">
<!-- Generated by graphviz version 2.43.0 (0)
 -->
<!-- Title: com.teragrep.cfe_16.it.ServiceAndEventManagerIT Pages: 1 -->
<svg width="390pt" height="182pt"
 viewBox="0.00 0.00 390.00 182.00" xmlns="http://www.w3.org/2000/svg" xmlns:xlink="http://www.w3.org/1999/xlink">
<g id="graph0" class="graph" transform="scale(1 1) rotate(0) translate(4 178)">
<title>com.teragrep.cfe_16.it.ServiceAndEventManagerIT</title>
<!-- Node1 -->
<g id="Node000001" class="node">
<title>Node1</title>
<g id="a_Node000001"><a xlink:title=" ">
<polygon fill="#999999" stroke="#666666" points="330,-30 164,-30 164,0 330,0 330,-30"/>
<text text-anchor="start" x="172" y="-18" font-family="Helvetica,sans-Serif" font-size="10.00">com.teragrep.cfe_16.it.Service</text>
<text text-anchor="middle" x="247" y="-7" font-family="Helvetica,sans-Serif" font-size="10.00">AndEventManagerIT</text>
</a>
</g>
</g>
<!-- Node2 -->
<g id="Node000002" class="node">
<title>Node2</title>
<g id="a_Node000002"><a xlink:href="classcom_1_1teragrep_1_1cfe__16_1_1Acknowledgements.html" target="_top" xlink:title=" ">
<polygon fill="white" stroke="#666666" points="216,-101.5 0,-101.5 0,-82.5 216,-82.5 216,-101.5"/>
<text text-anchor="middle" x="108" y="-89.5" font-family="Helvetica,sans-Serif" font-size="10.00">com.teragrep.cfe_16.Acknowledgements</text>
</a>
</g>
</g>
<!-- Node2&#45;&gt;Node1 -->
<g id="edge1_Node000001_Node000002" class="edge">
<title>Node2&#45;&gt;Node1</title>
<g id="a_edge1_Node000001_Node000002"><a xlink:title=" ">
<path fill="none" stroke="#9a32cd" stroke-dasharray="5,2" d="M127.23,-76.08C139.14,-67.24 154.98,-56.21 170,-48 182.2,-41.34 196.07,-35.17 208.65,-30.07"/>
<polygon fill="#9a32cd" stroke="#9a32cd" points="124.83,-73.5 118.96,-82.32 129.05,-79.09 124.83,-73.5"/>
</a>
</g>
<text text-anchor="middle" x="219.5" y="-51" font-family="Helvetica,sans-Serif" font-size="10.00" fill="grey"> acknowledgements</text>
</g>
<!-- Node3 -->
<g id="Node000003" class="node">
<title>Node3</title>
<g id="a_Node000003"><a xlink:title=" ">
<polygon fill="white" stroke="#666666" points="80,-168.5 18,-168.5 18,-149.5 80,-149.5 80,-168.5"/>
<text text-anchor="middle" x="49" y="-156.5" font-family="Helvetica,sans-Serif" font-size="10.00">Runnable</text>
</a>
</g>
</g>
<!-- Node3&#45;&gt;Node2 -->
<g id="edge2_Node000002_Node000003" class="edge">
<title>Node3&#45;&gt;Node2</title>
<g id="a_edge2_Node000002_Node000003"><a xlink:title=" ">
<path fill="none" stroke="#63b8ff" d="M63.85,-141.63C75.39,-128.92 90.94,-111.8 100.17,-101.63"/>
<polygon fill="#63b8ff" stroke="#63b8ff" points="61.09,-139.48 56.96,-149.23 66.27,-144.18 61.09,-139.48"/>
</a>
</g>
</g>
<!-- Node4 -->
<g id="Node000004" class="node">
<title>Node4</title>
<g id="a_Node000004"><a xlink:href="interfacecom_1_1teragrep_1_1cfe__16_1_1LifeCycle.html" target="_top" xlink:title="An interface that own resources like threads for doing graceful shutdown.">
<polygon fill="white" stroke="#666666" points="236,-174 98,-174 98,-144 236,-144 236,-174"/>
<text text-anchor="start" x="106" y="-162" font-family="Helvetica,sans-Serif" font-size="10.00">com.teragrep.cfe_16.Life</text>
<text text-anchor="middle" x="167" y="-151" font-family="Helvetica,sans-Serif" font-size="10.00">Cycle</text>
</a>
</g>
</g>
<!-- Node4&#45;&gt;Node2 -->
<g id="edge3_Node000002_Node000004" class="edge">
<title>Node4&#45;&gt;Node2</title>
<g id="a_edge3_Node000002_Node000004"><a xlink:title=" ">
<path fill="none" stroke="#63b8ff" d="M147.17,-136.16C136.47,-124.36 123.85,-110.47 115.89,-101.69"/>
<polygon fill="#63b8ff" stroke="#63b8ff" points="144.89,-138.84 154.2,-143.9 150.07,-134.14 144.89,-138.84"/>
</a>
</g>
</g>
<!-- Node5 -->
<g id="Node000005" class="node">
<title>Node5</title>
<g id="a_Node000005"><a xlink:href="classcom_1_1teragrep_1_1cfe__16_1_1EventManager.html" target="_top" xlink:title=" ">
<polygon fill="white" stroke="#666666" points="382,-107 234,-107 234,-77 382,-77 382,-107"/>
<text text-anchor="start" x="242" y="-95" font-family="Helvetica,sans-Serif" font-size="10.00">com.teragrep.cfe_16.Event</text>
<text text-anchor="middle" x="308" y="-84" font-family="Helvetica,sans-Serif" font-size="10.00">Manager</text>
</a>
</g>
</g>
<!-- Node5&#45;&gt;Node1 -->
<g id="edge4_Node000001_Node000005" class="edge">
<title>Node5&#45;&gt;Node1</title>
<g id="a_edge4_Node000001_Node000005"><a xlink:title=" ">
<path fill="none" stroke="#9a32cd" stroke-dasharray="5,2" d="M290.19,-69.1C279.93,-56.49 267.35,-41.03 258.42,-30.04"/>
<polygon fill="#9a32cd" stroke="#9a32cd" points="287.5,-71.34 296.53,-76.89 292.93,-66.93 287.5,-71.34"/>
</a>
</g>
<text text-anchor="middle" x="318" y="-51" font-family="Helvetica,sans-Serif" font-size="10.00" fill="grey"> eventManager</text>
</g>
</g>
</svg>
