<?xml version="1.0" encoding="UTF-8" standalone="no"?>
<!DOCTYPE svg PUBLIC "-//W3C//DTD SVG 1.1//EN"
 "http://www.w3.org/Graphics/SVG/1.1/DTD/svg11.dtd">
<!-- Generated by graphviz version 2.43.0 (0)
 -->
<!-- Title: Graphical Class Hierarchy Pages: 1 -->
<svg width="651pt" height="326pt"
 viewBox="0.00 0.00 651.00 326.00" xmlns="http://www.w3.org/2000/svg" xmlns:xlink="http://www.w3.org/1999/xlink">
<g id="graph0" class="graph" transform="scale(1 1) rotate(0) translate(4 322)">
<title>Graphical Class Hierarchy</title>
<!-- Node0 -->
<g id="Node000000" class="node">
<title>Node0</title>
<g id="a_Node000000"><a xlink:href="interfacecom_1_1teragrep_1_1cfe__16_1_1Stubable.html" target="_top" xlink:title=" ">
<polygon fill="white" stroke="#666666" points="163,-144.5 0,-144.5 0,-125.5 163,-125.5 163,-144.5"/>
<text text-anchor="middle" x="81.5" y="-132.5" font-family="Helvetica,sans-Serif" font-size="10.00">com.teragrep.cfe_16.Stubable</text>
</a>
</g>
</g>
<!-- Node1 -->
<g id="Node000001" class="node">
<title>Node1</title>
<g id="a_Node000001"><a xlink:href="interfacecom_1_1teragrep_1_1cfe__16_1_1bo_1_1XForwardedFor.html" target="_top" xlink:title=" ">
<polygon fill="white" stroke="#666666" points="410.5,-264.5 202.5,-264.5 202.5,-245.5 410.5,-245.5 410.5,-264.5"/>
<text text-anchor="middle" x="306.5" y="-252.5" font-family="Helvetica,sans-Serif" font-size="10.00">com.teragrep.cfe_16.bo.XForwardedFor</text>
</a>
</g>
</g>
<!-- Node0&#45;&gt;Node1 -->
<g id="edge18_Node000000_Node000001" class="edge">
<title>Node0&#45;&gt;Node1</title>
<g id="a_edge18_Node000000_Node000001"><a xlink:title=" ">
<path fill="none" stroke="#63b8ff" d="M109.18,-149.36C155.22,-174.13 248.4,-224.27 287.54,-245.34"/>
<polygon fill="#63b8ff" stroke="#63b8ff" points="110.84,-146.27 100.37,-144.62 107.52,-152.44 110.84,-146.27"/>
</a>
</g>
</g>
<!-- Node4 -->
<g id="Node000004" class="node">
<title>Node4</title>
<g id="a_Node000004"><a xlink:href="interfacecom_1_1teragrep_1_1cfe__16_1_1bo_1_1XForwardedHost.html" target="_top" xlink:title=" ">
<polygon fill="white" stroke="#666666" points="414,-168.5 199,-168.5 199,-149.5 414,-149.5 414,-168.5"/>
<text text-anchor="middle" x="306.5" y="-156.5" font-family="Helvetica,sans-Serif" font-size="10.00">com.teragrep.cfe_16.bo.XForwardedHost</text>
</a>
</g>
</g>
<!-- Node0&#45;&gt;Node4 -->
<g id="edge21_Node000000_Node000004" class="edge">
<title>Node0&#45;&gt;Node4</title>
<g id="a_edge21_Node000000_Node000004"><a xlink:title=" ">
<path fill="none" stroke="#63b8ff" d="M173.01,-144.74C187.59,-146.31 202.66,-147.93 217.18,-149.5"/>
<polygon fill="#63b8ff" stroke="#63b8ff" points="173.33,-141.25 163.01,-143.66 172.58,-148.21 173.33,-141.25"/>
</a>
</g>
</g>
<!-- Node7 -->
<g id="Node000007" class="node">
<title>Node7</title>
<g id="a_Node000007"><a xlink:href="interfacecom_1_1teragrep_1_1cfe__16_1_1bo_1_1XForwardedProto.html" target="_top" xlink:title=" ">
<polygon fill="white" stroke="#666666" points="403,-126 210,-126 210,-96 403,-96 403,-126"/>
<text text-anchor="start" x="218" y="-114" font-family="Helvetica,sans-Serif" font-size="10.00">com.teragrep.cfe_16.bo.XForwarded</text>
<text text-anchor="middle" x="306.5" y="-103" font-family="Helvetica,sans-Serif" font-size="10.00">Proto</text>
</a>
</g>
</g>
<!-- Node0&#45;&gt;Node7 -->
<g id="edge24_Node000000_Node000007" class="edge">
<title>Node0&#45;&gt;Node7</title>
<g id="a_edge24_Node000000_Node000007"><a xlink:title=" ">
<path fill="none" stroke="#63b8ff" d="M173.1,-125.25C185.23,-123.94 197.71,-122.6 209.92,-121.29"/>
<polygon fill="#63b8ff" stroke="#63b8ff" points="172.58,-121.79 163.01,-126.34 173.33,-128.75 172.58,-121.79"/>
</a>
</g>
</g>
<!-- Node10 -->
<g id="Node000010" class="node">
<title>Node10</title>
<g id="a_Node000010"><a xlink:href="interfacecom_1_1teragrep_1_1cfe__16_1_1event_1_1EventMessage.html" target="_top" xlink:title="Interface for objects that work with the Event (message)">
<polygon fill="white" stroke="#666666" points="382,-54 231,-54 231,-24 382,-24 382,-54"/>
<text text-anchor="start" x="239" y="-42" font-family="Helvetica,sans-Serif" font-size="10.00">com.teragrep.cfe_16.event.</text>
<text text-anchor="middle" x="306.5" y="-31" font-family="Helvetica,sans-Serif" font-size="10.00">EventMessage</text>
</a>
</g>
</g>
<!-- Node0&#45;&gt;Node10 -->
<g id="edge27_Node000000_Node000010" class="edge">
<title>Node0&#45;&gt;Node10</title>
<g id="a_edge27_Node000000_Node000010"><a xlink:title=" ">
<path fill="none" stroke="#63b8ff" d="M113.99,-121.44C155.22,-103.7 227.29,-72.67 270.29,-54.16"/>
<polygon fill="#63b8ff" stroke="#63b8ff" points="112.5,-118.28 104.7,-125.44 115.27,-124.7 112.5,-118.28"/>
</a>
</g>
</g>
<!-- Node2 -->
<g id="Node000002" class="node">
<title>Node2</title>
<g id="a_Node000002"><a xlink:href="classcom_1_1teragrep_1_1cfe__16_1_1bo_1_1XForwardedForImpl.html" target="_top" xlink:title=" ">
<polygon fill="white" stroke="#666666" points="643,-318 450,-318 450,-288 643,-288 643,-318"/>
<text text-anchor="start" x="458" y="-306" font-family="Helvetica,sans-Serif" font-size="10.00">com.teragrep.cfe_16.bo.XForwarded</text>
<text text-anchor="middle" x="546.5" y="-295" font-family="Helvetica,sans-Serif" font-size="10.00">ForImpl</text>
</a>
</g>
</g>
<!-- Node1&#45;&gt;Node2 -->
<g id="edge19_Node000001_Node000002" class="edge">
<title>Node1&#45;&gt;Node2</title>
<g id="a_edge19_Node000001_Node000002"><a xlink:title=" ">
<path fill="none" stroke="#63b8ff" d="M364.86,-266.57C396.76,-273 436.82,-281.08 471.11,-288"/>
<polygon fill="#63b8ff" stroke="#63b8ff" points="365.3,-263.09 354.81,-264.54 363.92,-269.95 365.3,-263.09"/>
</a>
</g>
</g>
<!-- Node3 -->
<g id="Node000003" class="node">
<title>Node3</title>
<g id="a_Node000003"><a xlink:href="classcom_1_1teragrep_1_1cfe__16_1_1bo_1_1XForwardedForStub.html" target="_top" xlink:title=" ">
<polygon fill="white" stroke="#666666" points="643,-270 450,-270 450,-240 643,-240 643,-270"/>
<text text-anchor="start" x="458" y="-258" font-family="Helvetica,sans-Serif" font-size="10.00">com.teragrep.cfe_16.bo.XForwarded</text>
<text text-anchor="middle" x="546.5" y="-247" font-family="Helvetica,sans-Serif" font-size="10.00">ForStub</text>
</a>
</g>
</g>
<!-- Node1&#45;&gt;Node3 -->
<g id="edge20_Node000001_Node000003" class="edge">
<title>Node1&#45;&gt;Node3</title>
<g id="a_edge20_Node000001_Node000003"><a xlink:title=" ">
<path fill="none" stroke="#63b8ff" d="M420.65,-255C430.42,-255 440.24,-255 449.84,-255"/>
<polygon fill="#63b8ff" stroke="#63b8ff" points="420.51,-251.5 410.51,-255 420.51,-258.5 420.51,-251.5"/>
</a>
</g>
</g>
<!-- Node5 -->
<g id="Node000005" class="node">
<title>Node5</title>
<g id="a_Node000005"><a xlink:href="classcom_1_1teragrep_1_1cfe__16_1_1bo_1_1XForwardedHostImpl.html" target="_top" xlink:title=" ">
<polygon fill="white" stroke="#666666" points="643,-222 450,-222 450,-192 643,-192 643,-222"/>
<text text-anchor="start" x="458" y="-210" font-family="Helvetica,sans-Serif" font-size="10.00">com.teragrep.cfe_16.bo.XForwarded</text>
<text text-anchor="middle" x="546.5" y="-199" font-family="Helvetica,sans-Serif" font-size="10.00">HostImpl</text>
</a>
</g>
</g>
<!-- Node4&#45;&gt;Node5 -->
<g id="edge22_Node000004_Node000005" class="edge">
<title>Node4&#45;&gt;Node5</title>
<g id="a_edge22_Node000004_Node000005"><a xlink:title=" ">
<path fill="none" stroke="#63b8ff" d="M364.86,-170.57C396.76,-177 436.82,-185.08 471.11,-192"/>
<polygon fill="#63b8ff" stroke="#63b8ff" points="365.3,-167.09 354.81,-168.54 363.92,-173.95 365.3,-167.09"/>
</a>
</g>
</g>
<!-- Node6 -->
<g id="Node000006" class="node">
<title>Node6</title>
<g id="a_Node000006"><a xlink:href="classcom_1_1teragrep_1_1cfe__16_1_1bo_1_1XForwardedHostStub.html" target="_top" xlink:title=" ">
<polygon fill="white" stroke="#666666" points="643,-174 450,-174 450,-144 643,-144 643,-174"/>
<text text-anchor="start" x="458" y="-162" font-family="Helvetica,sans-Serif" font-size="10.00">com.teragrep.cfe_16.bo.XForwarded</text>
<text text-anchor="middle" x="546.5" y="-151" font-family="Helvetica,sans-Serif" font-size="10.00">HostStub</text>
</a>
</g>
</g>
<!-- Node4&#45;&gt;Node6 -->
<g id="edge23_Node000004_Node000006" class="edge">
<title>Node4&#45;&gt;Node6</title>
<g id="a_edge23_Node000004_Node000006"><a xlink:title=" ">
<path fill="none" stroke="#63b8ff" d="M424.35,-159C432.92,-159 441.5,-159 449.92,-159"/>
<polygon fill="#63b8ff" stroke="#63b8ff" points="424.32,-155.5 414.32,-159 424.32,-162.5 424.32,-155.5"/>
</a>
</g>
</g>
<!-- Node8 -->
<g id="Node000008" class="node">
<title>Node8</title>
<g id="a_Node000008"><a xlink:href="classcom_1_1teragrep_1_1cfe__16_1_1bo_1_1XForwardedProtoImpl.html" target="_top" xlink:title=" ">
<polygon fill="white" stroke="#666666" points="643,-126 450,-126 450,-96 643,-96 643,-126"/>
<text text-anchor="start" x="458" y="-114" font-family="Helvetica,sans-Serif" font-size="10.00">com.teragrep.cfe_16.bo.XForwarded</text>
<text text-anchor="middle" x="546.5" y="-103" font-family="Helvetica,sans-Serif" font-size="10.00">ProtoImpl</text>
</a>
</g>
</g>
<!-- Node7&#45;&gt;Node8 -->
<g id="edge25_Node000007_Node000008" class="edge">
<title>Node7&#45;&gt;Node8</title>
<g id="a_edge25_Node000007_Node000008"><a xlink:title=" ">
<path fill="none" stroke="#63b8ff" d="M413.43,-111C425.58,-111 437.92,-111 449.92,-111"/>
<polygon fill="#63b8ff" stroke="#63b8ff" points="413.27,-107.5 403.27,-111 413.27,-114.5 413.27,-107.5"/>
</a>
</g>
</g>
<!-- Node9 -->
<g id="Node000009" class="node">
<title>Node9</title>
<g id="a_Node000009"><a xlink:href="classcom_1_1teragrep_1_1cfe__16_1_1bo_1_1XForwardedProtoStub.html" target="_top" xlink:title=" ">
<polygon fill="white" stroke="#666666" points="643,-78 450,-78 450,-48 643,-48 643,-78"/>
<text text-anchor="start" x="458" y="-66" font-family="Helvetica,sans-Serif" font-size="10.00">com.teragrep.cfe_16.bo.XForwarded</text>
<text text-anchor="middle" x="546.5" y="-55" font-family="Helvetica,sans-Serif" font-size="10.00">ProtoStub</text>
</a>
</g>
</g>
<!-- Node7&#45;&gt;Node9 -->
<g id="edge26_Node000007_Node000009" class="edge">
<title>Node7&#45;&gt;Node9</title>
<g id="a_edge26_Node000007_Node000009"><a xlink:title=" ">
<path fill="none" stroke="#63b8ff" d="M392.27,-93.9C418.02,-88.71 446.1,-83.05 471.11,-78"/>
<polygon fill="#63b8ff" stroke="#63b8ff" points="391.26,-90.54 382.15,-95.94 392.65,-97.4 391.26,-90.54"/>
</a>
</g>
</g>
<!-- Node11 -->
<g id="Node000011" class="node">
<title>Node11</title>
<g id="a_Node000011"><a xlink:href="classcom_1_1teragrep_1_1cfe__16_1_1event_1_1EventMessageImpl.html" target="_top" xlink:title=" ">
<polygon fill="white" stroke="#666666" points="622,-30 471,-30 471,0 622,0 622,-30"/>
<text text-anchor="start" x="479" y="-18" font-family="Helvetica,sans-Serif" font-size="10.00">com.teragrep.cfe_16.event.</text>
<text text-anchor="middle" x="546.5" y="-7" font-family="Helvetica,sans-Serif" font-size="10.00">EventMessageImpl</text>
</a>
</g>
</g>
<!-- Node10&#45;&gt;Node11 -->
<g id="edge28_Node000010_Node000011" class="edge">
<title>Node10&#45;&gt;Node11</title>
<g id="a_edge28_Node000010_Node000011"><a xlink:title=" ">
<path fill="none" stroke="#63b8ff" d="M392.22,-30.46C417.84,-27.87 445.78,-25.06 470.7,-22.54"/>
<polygon fill="#63b8ff" stroke="#63b8ff" points="391.75,-26.99 382.15,-31.47 392.45,-33.95 391.75,-26.99"/>
</a>
</g>
</g>
</g>
</svg>
