<?xml version="1.0" encoding="UTF-8" standalone="no"?>
<!DOCTYPE svg PUBLIC "-//W3C//DTD SVG 1.1//EN"
 "http://www.w3.org/Graphics/SVG/1.1/DTD/svg11.dtd">
<!-- Generated by graphviz version 2.43.0 (0)
 -->
<!-- Title: com.teragrep.cfe_16.TestClient.testSendEventWithAckID Pages: 1 -->
<svg width="760pt" height="364pt"
 viewBox="0.00 0.00 760.00 364.00" xmlns="http://www.w3.org/2000/svg" xmlns:xlink="http://www.w3.org/1999/xlink">
<g id="graph0" class="graph" transform="scale(1 1) rotate(0) translate(4 360)">
<title>com.teragrep.cfe_16.TestClient.testSendEventWithAckID</title>
<!-- Node1 -->
<g id="Node000001" class="node">
<title>Node1</title>
<g id="a_Node000001"><a xlink:title=" ">
<polygon fill="#999999" stroke="#666666" points="170,-198 0,-198 0,-168 170,-168 170,-198"/>
<text text-anchor="start" x="8" y="-186" font-family="Helvetica,sans-Serif" font-size="10.00">com.teragrep.cfe_16.Test</text>
<text text-anchor="middle" x="85" y="-175" font-family="Helvetica,sans-Serif" font-size="10.00">Client.testSendEventWithAckID</text>
</a>
</g>
</g>
<!-- Node2 -->
<g id="Node000002" class="node">
<title>Node2</title>
<g id="a_Node000002"><a xlink:href="classcom_1_1teragrep_1_1cfe__16_1_1TestClient.html#a9e085118b18a5952fb6c4e702b0bbc8b" target="_top" xlink:title=" ">
<polygon fill="white" stroke="#666666" points="380,-198 206,-198 206,-168 380,-168 380,-198"/>
<text text-anchor="start" x="214" y="-186" font-family="Helvetica,sans-Serif" font-size="10.00">com.teragrep.cfe_16.Test</text>
<text text-anchor="middle" x="293" y="-175" font-family="Helvetica,sans-Serif" font-size="10.00">Client.doRequestAndVerifyReply</text>
</a>
</g>
</g>
<!-- Node1&#45;&gt;Node2 -->
<g id="edge1_Node000001_Node000002" class="edge">
<title>Node1&#45;&gt;Node2</title>
<g id="a_edge1_Node000001_Node000002"><a xlink:title=" ">
<path fill="none" stroke="#63b8ff" d="M170.09,-183C178.56,-183 187.21,-183 195.8,-183"/>
<polygon fill="#63b8ff" stroke="#63b8ff" points="195.84,-186.5 205.84,-183 195.84,-179.5 195.84,-186.5"/>
</a>
</g>
</g>
<!-- Node3 -->
<g id="Node000003" class="node">
<title>Node3</title>
<g id="a_Node000003"><a xlink:href="classcom_1_1teragrep_1_1cfe__16_1_1TestClient.html#af1e0ff46d1a0eb1865bc80ea89247cc8" target="_top" xlink:title="Verifies that the HTTP reply status code was what it was supposed to me.">
<polygon fill="white" stroke="#666666" points="572.5,-356 419.5,-356 419.5,-326 572.5,-326 572.5,-356"/>
<text text-anchor="start" x="427.5" y="-344" font-family="Helvetica,sans-Serif" font-size="10.00">com.teragrep.cfe_16.Test</text>
<text text-anchor="middle" x="496" y="-333" font-family="Helvetica,sans-Serif" font-size="10.00">Client.checkHttpStatusCode</text>
</a>
</g>
</g>
<!-- Node2&#45;&gt;Node3 -->
<g id="edge2_Node000002_Node000003" class="edge">
<title>Node2&#45;&gt;Node3</title>
<g id="a_edge2_Node000002_Node000003"><a xlink:title=" ">
<path fill="none" stroke="#63b8ff" d="M304.7,-198.3C324.04,-224.91 367.35,-279.95 416,-312 421.57,-315.67 427.67,-318.96 433.94,-321.88"/>
<polygon fill="#63b8ff" stroke="#63b8ff" points="432.62,-325.12 443.18,-325.89 435.41,-318.7 432.62,-325.12"/>
</a>
</g>
</g>
<!-- Node4 -->
<g id="Node000004" class="node">
<title>Node4</title>
<g id="a_Node000004"><a xlink:href="classcom_1_1teragrep_1_1cfe__16_1_1TestClient.html#a23f3e7e41dc4fd7b2f8a35dd386e5a6e" target="_top" xlink:title=" ">
<polygon fill="white" stroke="#666666" points="752,-291 612,-291 612,-261 752,-261 752,-291"/>
<text text-anchor="start" x="620" y="-279" font-family="Helvetica,sans-Serif" font-size="10.00">com.teragrep.cfe_16.Test</text>
<text text-anchor="middle" x="682" y="-268" font-family="Helvetica,sans-Serif" font-size="10.00">Client.cleanup</text>
</a>
</g>
</g>
<!-- Node2&#45;&gt;Node4 -->
<g id="edge3_Node000002_Node000004" class="edge">
<title>Node2&#45;&gt;Node4</title>
<g id="a_edge3_Node000002_Node000004"><a xlink:title=" ">
<path fill="none" stroke="#63b8ff" d="M306.73,-198.03C327.08,-220.74 369.39,-262.86 416,-279 475.84,-299.72 547.93,-297.29 601.8,-290.62"/>
<polygon fill="#63b8ff" stroke="#63b8ff" points="602.53,-294.06 611.99,-289.28 601.61,-287.12 602.53,-294.06"/>
</a>
</g>
</g>
<!-- Node5 -->
<g id="Node000005" class="node">
<title>Node5</title>
<g id="a_Node000005"><a xlink:href="classcom_1_1teragrep_1_1cfe__16_1_1TestClient.html#afa2ceaba677411954a4210a8e6d5cd49" target="_top" xlink:title="Checks that the TCP connection is open, otherwis a new connection is created and returned.">
<polygon fill="white" stroke="#666666" points="572,-174 420,-174 420,-144 572,-144 572,-174"/>
<text text-anchor="start" x="428" y="-162" font-family="Helvetica,sans-Serif" font-size="10.00">com.teragrep.cfe_16.Test</text>
<text text-anchor="middle" x="496" y="-151" font-family="Helvetica,sans-Serif" font-size="10.00">Client.ensureTcpConnection</text>
</a>
</g>
</g>
<!-- Node2&#45;&gt;Node5 -->
<g id="edge4_Node000002_Node000005" class="edge">
<title>Node2&#45;&gt;Node5</title>
<g id="a_edge4_Node000002_Node000005"><a xlink:title=" ">
<path fill="none" stroke="#63b8ff" d="M380.12,-172.72C389.92,-171.55 399.92,-170.35 409.71,-169.18"/>
<polygon fill="#63b8ff" stroke="#63b8ff" points="410.32,-172.64 419.83,-167.98 409.49,-165.69 410.32,-172.64"/>
</a>
</g>
</g>
<!-- Node7 -->
<g id="Node000007" class="node">
<title>Node7</title>
<g id="a_Node000007"><a xlink:href="classcom_1_1teragrep_1_1cfe__16_1_1TestClient.html#a50b2f87f7fce871bb32c52de3a19dd55" target="_top" xlink:title=" ">
<polygon fill="white" stroke="#666666" points="566,-222 426,-222 426,-192 566,-192 566,-222"/>
<text text-anchor="start" x="434" y="-210" font-family="Helvetica,sans-Serif" font-size="10.00">com.teragrep.cfe_16.Test</text>
<text text-anchor="middle" x="496" y="-199" font-family="Helvetica,sans-Serif" font-size="10.00">Client.getReader</text>
</a>
</g>
</g>
<!-- Node2&#45;&gt;Node7 -->
<g id="edge6_Node000002_Node000007" class="edge">
<title>Node2&#45;&gt;Node7</title>
<g id="a_edge6_Node000002_Node000007"><a xlink:title=" ">
<path fill="none" stroke="#63b8ff" d="M380.12,-193.28C391.9,-194.69 403.96,-196.13 415.61,-197.52"/>
<polygon fill="#63b8ff" stroke="#63b8ff" points="415.39,-201.02 425.74,-198.73 416.22,-194.07 415.39,-201.02"/>
</a>
</g>
</g>
<!-- Node8 -->
<g id="Node000008" class="node">
<title>Node8</title>
<g id="a_Node000008"><a xlink:href="classcom_1_1teragrep_1_1cfe__16_1_1TestClient.html#a0d90aaf874c60e700371e09e00828eaa" target="_top" xlink:title="Advances buffered reader through HTTP headers.">
<polygon fill="white" stroke="#666666" points="566,-270 426,-270 426,-240 566,-240 566,-270"/>
<text text-anchor="start" x="434" y="-258" font-family="Helvetica,sans-Serif" font-size="10.00">com.teragrep.cfe_16.Test</text>
<text text-anchor="middle" x="496" y="-247" font-family="Helvetica,sans-Serif" font-size="10.00">Client.readHeaders</text>
</a>
</g>
</g>
<!-- Node2&#45;&gt;Node8 -->
<g id="edge7_Node000002_Node000008" class="edge">
<title>Node2&#45;&gt;Node8</title>
<g id="a_edge7_Node000002_Node000008"><a xlink:title=" ">
<path fill="none" stroke="#63b8ff" d="M330.02,-198.05C354.16,-207.92 386.76,-220.83 416,-231 421.64,-232.96 427.53,-234.92 433.45,-236.82"/>
<polygon fill="#63b8ff" stroke="#63b8ff" points="432.8,-240.29 443.39,-239.97 434.91,-233.62 432.8,-240.29"/>
</a>
</g>
</g>
<!-- Node9 -->
<g id="Node000009" class="node">
<title>Node9</title>
<g id="a_Node000009"><a xlink:href="classcom_1_1teragrep_1_1cfe__16_1_1TestClient.html#a4bd78c601bcc5d6c6bafc899f8ffe1e6" target="_top" xlink:title="Reads the reply line from the servere.">
<polygon fill="white" stroke="#666666" points="567,-126 425,-126 425,-96 567,-96 567,-126"/>
<text text-anchor="start" x="433" y="-114" font-family="Helvetica,sans-Serif" font-size="10.00">com.teragrep.cfe_16.Test</text>
<text text-anchor="middle" x="496" y="-103" font-family="Helvetica,sans-Serif" font-size="10.00">Client.readResponseBody</text>
</a>
</g>
</g>
<!-- Node2&#45;&gt;Node9 -->
<g id="edge10_Node000002_Node000009" class="edge">
<title>Node2&#45;&gt;Node9</title>
<g id="a_edge10_Node000002_Node000009"><a xlink:title=" ">
<path fill="none" stroke="#63b8ff" d="M330.02,-167.95C354.16,-158.08 386.76,-145.17 416,-135 421.64,-133.04 427.53,-131.08 433.45,-129.18"/>
<polygon fill="#63b8ff" stroke="#63b8ff" points="434.91,-132.38 443.39,-126.03 432.8,-125.71 434.91,-132.38"/>
</a>
</g>
</g>
<!-- Node10 -->
<g id="Node000010" class="node">
<title>Node10</title>
<g id="a_Node000010"><a xlink:href="classcom_1_1teragrep_1_1cfe__16_1_1TestClient.html#af26faca7da3952332135d35bb9827e34" target="_top" xlink:title="Does a HTTP request and keeps connection open.">
<polygon fill="white" stroke="#666666" points="566,-78 426,-78 426,-48 566,-48 566,-78"/>
<text text-anchor="start" x="434" y="-66" font-family="Helvetica,sans-Serif" font-size="10.00">com.teragrep.cfe_16.Test</text>
<text text-anchor="middle" x="496" y="-55" font-family="Helvetica,sans-Serif" font-size="10.00">Client.sendRequest</text>
</a>
</g>
</g>
<!-- Node2&#45;&gt;Node10 -->
<g id="edge11_Node000002_Node000010" class="edge">
<title>Node2&#45;&gt;Node10</title>
<g id="a_edge11_Node000002_Node000010"><a xlink:title=" ">
<path fill="none" stroke="#63b8ff" d="M309.23,-167.87C331.1,-146.93 373.47,-109.19 416,-87 419.54,-85.15 423.25,-83.42 427.05,-81.8"/>
<polygon fill="#63b8ff" stroke="#63b8ff" points="428.61,-84.95 436.63,-78.02 426.04,-78.44 428.61,-84.95"/>
</a>
</g>
</g>
<!-- Node11 -->
<g id="Node000011" class="node">
<title>Node11</title>
<g id="a_Node000011"><a xlink:href="classcom_1_1teragrep_1_1cfe__16_1_1TestClient.html#a98be0c11009e1193c90cbf91576cc66a" target="_top" xlink:title="Validates the response body line against the given regural expression.">
<polygon fill="white" stroke="#666666" points="576,-30 416,-30 416,0 576,0 576,-30"/>
<text text-anchor="start" x="424" y="-18" font-family="Helvetica,sans-Serif" font-size="10.00">com.teragrep.cfe_16.Test</text>
<text text-anchor="middle" x="496" y="-7" font-family="Helvetica,sans-Serif" font-size="10.00">Client.validateResponseBody</text>
</a>
</g>
</g>
<!-- Node2&#45;&gt;Node11 -->
<g id="edge12_Node000002_Node000011" class="edge">
<title>Node2&#45;&gt;Node11</title>
<g id="a_edge12_Node000002_Node000011"><a xlink:title=" ">
<path fill="none" stroke="#63b8ff" d="M302.65,-167.9C320.21,-138.61 362.88,-73.91 416,-39 418.41,-37.41 420.94,-35.93 423.54,-34.54"/>
<polygon fill="#63b8ff" stroke="#63b8ff" points="425.14,-37.65 432.64,-30.17 422.11,-31.34 425.14,-37.65"/>
</a>
</g>
</g>
<!-- Node6 -->
<g id="Node000006" class="node">
<title>Node6</title>
<g id="a_Node000006"><a xlink:href="classcom_1_1teragrep_1_1cfe__16_1_1TestClient.html#ab44ab6c8d2bd008181c5e31a2a8dfaa3" target="_top" xlink:title=" ">
<polygon fill="white" stroke="#666666" points="752,-219 612,-219 612,-189 752,-189 752,-219"/>
<text text-anchor="start" x="620" y="-207" font-family="Helvetica,sans-Serif" font-size="10.00">com.teragrep.cfe_16.Test</text>
<text text-anchor="middle" x="682" y="-196" font-family="Helvetica,sans-Serif" font-size="10.00">Client.createSocket</text>
</a>
</g>
</g>
<!-- Node5&#45;&gt;Node6 -->
<g id="edge5_Node000005_Node000006" class="edge">
<title>Node5&#45;&gt;Node6</title>
<g id="a_edge5_Node000005_Node000006"><a xlink:title=" ">
<path fill="none" stroke="#63b8ff" d="M558.53,-174.05C574.94,-178.06 592.82,-182.43 609.72,-186.57"/>
<polygon fill="#63b8ff" stroke="#63b8ff" points="608.99,-189.99 619.53,-188.97 610.65,-183.19 608.99,-189.99"/>
</a>
</g>
</g>
<!-- Node8&#45;&gt;Node4 -->
<g id="edge8_Node000008_Node000004" class="edge">
<title>Node8&#45;&gt;Node4</title>
<g id="a_edge8_Node000008_Node000004"><a xlink:title=" ">
<path fill="none" stroke="#63b8ff" d="M566.04,-262.88C577.75,-264.22 589.99,-265.61 601.94,-266.98"/>
<polygon fill="#63b8ff" stroke="#63b8ff" points="601.55,-270.45 611.88,-268.11 602.34,-263.5 601.55,-270.45"/>
</a>
</g>
</g>
<!-- Node8&#45;&gt;Node6 -->
<g id="edge9_Node000008_Node000006" class="edge">
<title>Node8&#45;&gt;Node6</title>
<g id="a_edge9_Node000008_Node000006"><a xlink:title=" ">
<path fill="none" stroke="#63b8ff" d="M551.21,-239.97C571.89,-234.24 595.66,-227.65 617.16,-221.69"/>
<polygon fill="#63b8ff" stroke="#63b8ff" points="618.16,-225.05 626.86,-219.01 616.29,-218.3 618.16,-225.05"/>
</a>
</g>
</g>
</g>
</svg>
