<?xml version="1.0" encoding="UTF-8" standalone="no"?>
<!DOCTYPE svg PUBLIC "-//W3C//DTD SVG 1.1//EN"
 "http://www.w3.org/Graphics/SVG/1.1/DTD/svg11.dtd">
<!-- Generated by graphviz version 2.43.0 (0)
 -->
<!-- Title: com.teragrep.cfe_16.bo.HECRecordImpl.time Pages: 1 -->
<svg width="647pt" height="95pt"
 viewBox="0.00 0.00 647.00 95.00" xmlns="http://www.w3.org/2000/svg" xmlns:xlink="http://www.w3.org/1999/xlink">
<g id="graph0" class="graph" transform="scale(1 1) rotate(0) translate(4 91)">
<title>com.teragrep.cfe_16.bo.HECRecordImpl.time</title>
<!-- Node1 -->
<g id="Node000001" class="node">
<title>Node1</title>
<g id="a_Node000001"><a xlink:title=" ">
<polygon fill="#999999" stroke="#666666" points="639,-54 450,-54 450,-24 639,-24 639,-54"/>
<text text-anchor="start" x="458" y="-42" font-family="Helvetica,sans-Serif" font-size="10.00">com.teragrep.cfe_16.bo.HECRecord</text>
<text text-anchor="middle" x="544.5" y="-31" font-family="Helvetica,sans-Serif" font-size="10.00">Impl.time</text>
</a>
</g>
</g>
<!-- Node2 -->
<g id="Node000002" class="node">
<title>Node2</title>
<g id="a_Node000002"><a xlink:href="classcom_1_1teragrep_1_1cfe__16_1_1bo_1_1HECRecordImpl.html#a3b14a495b0bfbe1c588cfcdf7f26c351" target="_top" xlink:title=" ">
<polygon fill="white" stroke="#666666" points="414,-54 225,-54 225,-24 414,-24 414,-54"/>
<text text-anchor="start" x="233" y="-42" font-family="Helvetica,sans-Serif" font-size="10.00">com.teragrep.cfe_16.bo.HECRecord</text>
<text text-anchor="middle" x="319.5" y="-31" font-family="Helvetica,sans-Serif" font-size="10.00">Impl.structuredDataParams</text>
</a>
</g>
</g>
<!-- Node1&#45;&gt;Node2 -->
<g id="edge1_Node000001_Node000002" class="edge">
<title>Node1&#45;&gt;Node2</title>
<g id="a_edge1_Node000001_Node000002"><a xlink:title=" ">
<path fill="none" stroke="#63b8ff" d="M439.89,-39C431.33,-39 422.7,-39 414.22,-39"/>
<polygon fill="#63b8ff" stroke="#63b8ff" points="439.9,-42.5 449.9,-39 439.9,-35.5 439.9,-42.5"/>
</a>
</g>
</g>
<!-- Node3 -->
<g id="Node000003" class="node">
<title>Node3</title>
<g id="a_Node000003"><a xlink:href="classcom_1_1teragrep_1_1cfe__16_1_1bo_1_1HECRecordImpl.html#a2b20985bf3b6d50b0e4dfdc8fe82e494" target="_top" xlink:title=" ">
<polygon fill="white" stroke="#666666" points="189,-87 0,-87 0,-57 189,-57 189,-87"/>
<text text-anchor="start" x="8" y="-75" font-family="Helvetica,sans-Serif" font-size="10.00">com.teragrep.cfe_16.bo.HECRecord</text>
<text text-anchor="middle" x="94.5" y="-64" font-family="Helvetica,sans-Serif" font-size="10.00">Impl.toSyslogMessage</text>
</a>
</g>
</g>
<!-- Node1&#45;&gt;Node3 -->
<g id="edge4_Node000001_Node000003" class="edge">
<title>Node1&#45;&gt;Node3</title>
<g id="a_edge4_Node000001_Node000003"><a xlink:title=" ">
<path fill="none" stroke="#63b8ff" d="M463.52,-55.82C447.2,-58.69 430.1,-61.29 414,-63 338.64,-71 252.72,-73.01 189.13,-73.16"/>
<polygon fill="#63b8ff" stroke="#63b8ff" points="464.34,-59.23 473.56,-54.01 463.09,-52.34 464.34,-59.23"/>
</a>
</g>
</g>
<!-- Node4 -->
<g id="Node000004" class="node">
<title>Node4</title>
<g id="a_Node000004"><a xlink:href="classcom_1_1teragrep_1_1cfe__16_1_1bo_1_1HECRecordImpl.html#a1fd269557595f8943fbc3eaf6ece40b0" target="_top" xlink:title=" ">
<polygon fill="white" stroke="#666666" points="189,-30 0,-30 0,0 189,0 189,-30"/>
<text text-anchor="start" x="8" y="-18" font-family="Helvetica,sans-Serif" font-size="10.00">com.teragrep.cfe_16.bo.HECRecord</text>
<text text-anchor="middle" x="94.5" y="-7" font-family="Helvetica,sans-Serif" font-size="10.00">Impl.toSyslogMessage</text>
</a>
</g>
</g>
<!-- Node1&#45;&gt;Node4 -->
<g id="edge5_Node000001_Node000004" class="edge">
<title>Node1&#45;&gt;Node4</title>
<g id="a_edge5_Node000001_Node000004"><a xlink:title=" ">
<path fill="none" stroke="#63b8ff" d="M465.74,-22.2C448.77,-19.21 430.85,-16.55 414,-15 338.56,-8.07 252.65,-8.56 189.08,-10.51"/>
<polygon fill="#63b8ff" stroke="#63b8ff" points="465.14,-25.65 475.61,-24 466.4,-18.76 465.14,-25.65"/>
</a>
</g>
</g>
<!-- Node2&#45;&gt;Node3 -->
<g id="edge2_Node000002_Node000003" class="edge">
<title>Node2&#45;&gt;Node3</title>
<g id="a_edge2_Node000002_Node000003"><a xlink:title=" ">
<path fill="none" stroke="#63b8ff" d="M214.89,-54.33C206.33,-55.6 197.7,-56.88 189.22,-58.13"/>
<polygon fill="#63b8ff" stroke="#63b8ff" points="215.52,-57.78 224.9,-52.85 214.49,-50.85 215.52,-57.78"/>
</a>
</g>
</g>
<!-- Node2&#45;&gt;Node4 -->
<g id="edge3_Node000002_Node000004" class="edge">
<title>Node2&#45;&gt;Node4</title>
<g id="a_edge3_Node000002_Node000004"><a xlink:title=" ">
<path fill="none" stroke="#63b8ff" d="M214.89,-27.85C206.33,-26.93 197.7,-26 189.22,-25.09"/>
<polygon fill="#63b8ff" stroke="#63b8ff" points="214.58,-31.34 224.9,-28.93 215.33,-24.38 214.58,-31.34"/>
</a>
</g>
</g>
</g>
</svg>
