<?xml version="1.0" encoding="UTF-8" standalone="no"?>
<!DOCTYPE svg PUBLIC "-//W3C//DTD SVG 1.1//EN"
 "http://www.w3.org/Graphics/SVG/1.1/DTD/svg11.dtd">
<!-- Generated by graphviz version 2.43.0 (0)
 -->
<!-- Title: com.teragrep.cfe_16.rest.HECRestController.sendEvents Pages: 1 -->
<svg width="655pt" height="86pt"
 viewBox="0.00 0.00 655.00 86.00" xmlns="http://www.w3.org/2000/svg" xmlns:xlink="http://www.w3.org/1999/xlink">
<g id="graph0" class="graph" transform="scale(1 1) rotate(0) translate(4 82)">
<title>com.teragrep.cfe_16.rest.HECRestController.sendEvents</title>
<!-- Node1 -->
<g id="Node000001" class="node">
<title>Node1</title>
<g id="a_Node000001"><a xlink:title=" ">
<polygon fill="#999999" stroke="#666666" points="165,-54 0,-54 0,-24 165,-24 165,-54"/>
<text text-anchor="start" x="8" y="-42" font-family="Helvetica,sans-Serif" font-size="10.00">com.teragrep.cfe_16.rest.</text>
<text text-anchor="middle" x="82.5" y="-31" font-family="Helvetica,sans-Serif" font-size="10.00">HECRestController.sendEvents</text>
</a>
</g>
</g>
<!-- Node2 -->
<g id="Node000002" class="node">
<title>Node2</title>
<g id="a_Node000002"><a xlink:href="classcom_1_1teragrep_1_1cfe__16_1_1RequestBodyCleaner.html#a8c50916e2c909c0572f6ede5759bb716" target="_top" xlink:title=" ">
<polygon fill="white" stroke="#666666" points="391,-54 201,-54 201,-24 391,-24 391,-54"/>
<text text-anchor="start" x="209" y="-42" font-family="Helvetica,sans-Serif" font-size="10.00">com.teragrep.cfe_16.Request</text>
<text text-anchor="middle" x="296" y="-31" font-family="Helvetica,sans-Serif" font-size="10.00">BodyCleaner.cleanAckRequestBody</text>
</a>
</g>
</g>
<!-- Node1&#45;&gt;Node2 -->
<g id="edge1_Node000001_Node000002" class="edge">
<title>Node1&#45;&gt;Node2</title>
<g id="a_edge1_Node000001_Node000002"><a xlink:title=" ">
<path fill="none" stroke="#63b8ff" d="M165.27,-39C173.63,-39 182.19,-39 190.74,-39"/>
<polygon fill="#63b8ff" stroke="#63b8ff" points="190.77,-42.5 200.77,-39 190.77,-35.5 190.77,-42.5"/>
</a>
</g>
</g>
<!-- Node3 -->
<g id="Node000003" class="node">
<title>Node3</title>
<g id="a_Node000003"><a xlink:href="classcom_1_1teragrep_1_1cfe__16_1_1RequestBodyCleaner.html#a9b772b8ac07b66a3440a00f2b7ecf627" target="_top" xlink:title=" ">
<polygon fill="white" stroke="#666666" points="647,-78 427,-78 427,-48 647,-48 647,-78"/>
<text text-anchor="start" x="435" y="-66" font-family="Helvetica,sans-Serif" font-size="10.00">com.teragrep.cfe_16.Request</text>
<text text-anchor="middle" x="537" y="-55" font-family="Helvetica,sans-Serif" font-size="10.00">BodyCleaner.removeEqualsArrayFromEnd</text>
</a>
</g>
</g>
<!-- Node2&#45;&gt;Node3 -->
<g id="edge2_Node000002_Node000003" class="edge">
<title>Node2&#45;&gt;Node3</title>
<g id="a_edge2_Node000002_Node000003"><a xlink:title=" ">
<path fill="none" stroke="#63b8ff" d="M391.12,-48.45C399.57,-49.3 408.19,-50.17 416.82,-51.03"/>
<polygon fill="#63b8ff" stroke="#63b8ff" points="416.63,-54.53 426.93,-52.05 417.33,-47.57 416.63,-54.53"/>
</a>
</g>
</g>
<!-- Node4 -->
<g id="Node000004" class="node">
<title>Node4</title>
<g id="a_Node000004"><a xlink:href="classcom_1_1teragrep_1_1cfe__16_1_1RequestBodyCleaner.html#a9d4bd53181a791719c7da3729cc72f7f" target="_top" xlink:title=" ">
<polygon fill="white" stroke="#666666" points="617.5,-30 456.5,-30 456.5,0 617.5,0 617.5,-30"/>
<text text-anchor="start" x="464.5" y="-18" font-family="Helvetica,sans-Serif" font-size="10.00">com.teragrep.cfe_16.Request</text>
<text text-anchor="middle" x="537" y="-7" font-family="Helvetica,sans-Serif" font-size="10.00">BodyCleaner.removeLastChar</text>
</a>
</g>
</g>
<!-- Node2&#45;&gt;Node4 -->
<g id="edge3_Node000002_Node000004" class="edge">
<title>Node2&#45;&gt;Node4</title>
<g id="a_edge3_Node000002_Node000004"><a xlink:title=" ">
<path fill="none" stroke="#63b8ff" d="M391.12,-29.55C409.22,-27.73 428.13,-25.83 446.1,-24.03"/>
<polygon fill="#63b8ff" stroke="#63b8ff" points="446.66,-27.49 456.26,-23.01 445.96,-20.52 446.66,-27.49"/>
</a>
</g>
</g>
</g>
</svg>
