<?xml version="1.0" encoding="UTF-8" standalone="no"?>
<!DOCTYPE svg PUBLIC "-//W3C//DTD SVG 1.1//EN"
 "http://www.w3.org/Graphics/SVG/1.1/DTD/svg11.dtd">
<!-- Generated by graphviz version 2.43.0 (0)
 -->
<!-- Title: com.teragrep.cfe_16.CleanRequestBodyTests.testCleanRequestBodyNormal Pages: 1 -->
<svg width="685pt" height="86pt"
 viewBox="0.00 0.00 685.00 86.00" xmlns="http://www.w3.org/2000/svg" xmlns:xlink="http://www.w3.org/1999/xlink">
<g id="graph0" class="graph" transform="scale(1 1) rotate(0) translate(4 82)">
<title>com.teragrep.cfe_16.CleanRequestBodyTests.testCleanRequestBodyNormal</title>
<!-- Node1 -->
<g id="Node000001" class="node">
<title>Node1</title>
<g id="a_Node000001"><a xlink:title=" ">
<polygon fill="#999999" stroke="#666666" points="195,-59.5 0,-59.5 0,-18.5 195,-18.5 195,-59.5"/>
<text text-anchor="start" x="8" y="-47.5" font-family="Helvetica,sans-Serif" font-size="10.00">com.teragrep.cfe_16.Clean</text>
<text text-anchor="start" x="8" y="-36.5" font-family="Helvetica,sans-Serif" font-size="10.00">RequestBodyTests.testCleanRequest</text>
<text text-anchor="middle" x="97.5" y="-25.5" font-family="Helvetica,sans-Serif" font-size="10.00">BodyNormal</text>
</a>
</g>
</g>
<!-- Node2 -->
<g id="Node000002" class="node">
<title>Node2</title>
<g id="a_Node000002"><a xlink:href="classcom_1_1teragrep_1_1cfe__16_1_1RequestBodyCleaner.html#a8c50916e2c909c0572f6ede5759bb716" target="_top" xlink:title=" ">
<polygon fill="white" stroke="#666666" points="421,-54 231,-54 231,-24 421,-24 421,-54"/>
<text text-anchor="start" x="239" y="-42" font-family="Helvetica,sans-Serif" font-size="10.00">com.teragrep.cfe_16.Request</text>
<text text-anchor="middle" x="326" y="-31" font-family="Helvetica,sans-Serif" font-size="10.00">BodyCleaner.cleanAckRequestBody</text>
</a>
</g>
</g>
<!-- Node1&#45;&gt;Node2 -->
<g id="edge1_Node000001_Node000002" class="edge">
<title>Node1&#45;&gt;Node2</title>
<g id="a_edge1_Node000001_Node000002"><a xlink:title=" ">
<path fill="none" stroke="#63b8ff" d="M195.21,-39C203.59,-39 212.09,-39 220.53,-39"/>
<polygon fill="#63b8ff" stroke="#63b8ff" points="220.77,-42.5 230.77,-39 220.77,-35.5 220.77,-42.5"/>
</a>
</g>
</g>
<!-- Node3 -->
<g id="Node000003" class="node">
<title>Node3</title>
<g id="a_Node000003"><a xlink:href="classcom_1_1teragrep_1_1cfe__16_1_1RequestBodyCleaner.html#a9b772b8ac07b66a3440a00f2b7ecf627" target="_top" xlink:title=" ">
<polygon fill="white" stroke="#666666" points="677,-78 457,-78 457,-48 677,-48 677,-78"/>
<text text-anchor="start" x="465" y="-66" font-family="Helvetica,sans-Serif" font-size="10.00">com.teragrep.cfe_16.Request</text>
<text text-anchor="middle" x="567" y="-55" font-family="Helvetica,sans-Serif" font-size="10.00">BodyCleaner.removeEqualsArrayFromEnd</text>
</a>
</g>
</g>
<!-- Node2&#45;&gt;Node3 -->
<g id="edge2_Node000002_Node000003" class="edge">
<title>Node2&#45;&gt;Node3</title>
<g id="a_edge2_Node000002_Node000003"><a xlink:title=" ">
<path fill="none" stroke="#63b8ff" d="M421.12,-48.45C429.57,-49.3 438.19,-50.17 446.82,-51.03"/>
<polygon fill="#63b8ff" stroke="#63b8ff" points="446.63,-54.53 456.93,-52.05 447.33,-47.57 446.63,-54.53"/>
</a>
</g>
</g>
<!-- Node4 -->
<g id="Node000004" class="node">
<title>Node4</title>
<g id="a_Node000004"><a xlink:href="classcom_1_1teragrep_1_1cfe__16_1_1RequestBodyCleaner.html#a9d4bd53181a791719c7da3729cc72f7f" target="_top" xlink:title=" ">
<polygon fill="white" stroke="#666666" points="647.5,-30 486.5,-30 486.5,0 647.5,0 647.5,-30"/>
<text text-anchor="start" x="494.5" y="-18" font-family="Helvetica,sans-Serif" font-size="10.00">com.teragrep.cfe_16.Request</text>
<text text-anchor="middle" x="567" y="-7" font-family="Helvetica,sans-Serif" font-size="10.00">BodyCleaner.removeLastChar</text>
</a>
</g>
</g>
<!-- Node2&#45;&gt;Node4 -->
<g id="edge3_Node000002_Node000004" class="edge">
<title>Node2&#45;&gt;Node4</title>
<g id="a_edge3_Node000002_Node000004"><a xlink:title=" ">
<path fill="none" stroke="#63b8ff" d="M421.12,-29.55C439.22,-27.73 458.13,-25.83 476.1,-24.03"/>
<polygon fill="#63b8ff" stroke="#63b8ff" points="476.66,-27.49 486.26,-23.01 475.96,-20.52 476.66,-27.49"/>
</a>
</g>
</g>
</g>
</svg>
