<?xml version="1.0" encoding="UTF-8" standalone="no"?>
<!DOCTYPE svg PUBLIC "-//W3C//DTD SVG 1.1//EN"
 "http://www.w3.org/Graphics/SVG/1.1/DTD/svg11.dtd">
<!-- Generated by graphviz version 2.43.0 (0)
 -->
<!-- Title: com.teragrep.cfe_16.TestClient.testGetAcksWithoutChannel Pages: 1 -->
<svg width="775pt" height="364pt"
 viewBox="0.00 0.00 775.00 364.00" xmlns="http://www.w3.org/2000/svg" xmlns:xlink="http://www.w3.org/1999/xlink">
<g id="graph0" class="graph" transform="scale(1 1) rotate(0) translate(4 360)">
<title>com.teragrep.cfe_16.TestClient.testGetAcksWithoutChannel</title>
<!-- Node1 -->
<g id="Node000001" class="node">
<title>Node1</title>
<g id="a_Node000001"><a xlink:title=" ">
<polygon fill="#999999" stroke="#666666" points="185,-198 0,-198 0,-168 185,-168 185,-198"/>
<text text-anchor="start" x="8" y="-186" font-family="Helvetica,sans-Serif" font-size="10.00">com.teragrep.cfe_16.Test</text>
<text text-anchor="middle" x="92.5" y="-175" font-family="Helvetica,sans-Serif" font-size="10.00">Client.testGetAcksWithoutChannel</text>
</a>
</g>
</g>
<!-- Node2 -->
<g id="Node000002" class="node">
<title>Node2</title>
<g id="a_Node000002"><a xlink:href="classcom_1_1teragrep_1_1cfe__16_1_1TestClient.html#a9e085118b18a5952fb6c4e702b0bbc8b" target="_top" xlink:title=" ">
<polygon fill="white" stroke="#666666" points="395,-198 221,-198 221,-168 395,-168 395,-198"/>
<text text-anchor="start" x="229" y="-186" font-family="Helvetica,sans-Serif" font-size="10.00">com.teragrep.cfe_16.Test</text>
<text text-anchor="middle" x="308" y="-175" font-family="Helvetica,sans-Serif" font-size="10.00">Client.doRequestAndVerifyReply</text>
</a>
</g>
</g>
<!-- Node1&#45;&gt;Node2 -->
<g id="edge1_Node000001_Node000002" class="edge">
<title>Node1&#45;&gt;Node2</title>
<g id="a_edge1_Node000001_Node000002"><a xlink:title=" ">
<path fill="none" stroke="#63b8ff" d="M185.28,-183C193.64,-183 202.12,-183 210.52,-183"/>
<polygon fill="#63b8ff" stroke="#63b8ff" points="210.7,-186.5 220.7,-183 210.7,-179.5 210.7,-186.5"/>
</a>
</g>
</g>
<!-- Node3 -->
<g id="Node000003" class="node">
<title>Node3</title>
<g id="a_Node000003"><a xlink:href="classcom_1_1teragrep_1_1cfe__16_1_1TestClient.html#af1e0ff46d1a0eb1865bc80ea89247cc8" target="_top" xlink:title="Verifies that the HTTP reply status code was what it was supposed to me.">
<polygon fill="white" stroke="#666666" points="587.5,-356 434.5,-356 434.5,-326 587.5,-326 587.5,-356"/>
<text text-anchor="start" x="442.5" y="-344" font-family="Helvetica,sans-Serif" font-size="10.00">com.teragrep.cfe_16.Test</text>
<text text-anchor="middle" x="511" y="-333" font-family="Helvetica,sans-Serif" font-size="10.00">Client.checkHttpStatusCode</text>
</a>
</g>
</g>
<!-- Node2&#45;&gt;Node3 -->
<g id="edge2_Node000002_Node000003" class="edge">
<title>Node2&#45;&gt;Node3</title>
<g id="a_edge2_Node000002_Node000003"><a xlink:title=" ">
<path fill="none" stroke="#63b8ff" d="M319.7,-198.3C339.04,-224.91 382.35,-279.95 431,-312 436.57,-315.67 442.67,-318.96 448.94,-321.88"/>
<polygon fill="#63b8ff" stroke="#63b8ff" points="447.62,-325.12 458.18,-325.89 450.41,-318.7 447.62,-325.12"/>
</a>
</g>
</g>
<!-- Node4 -->
<g id="Node000004" class="node">
<title>Node4</title>
<g id="a_Node000004"><a xlink:href="classcom_1_1teragrep_1_1cfe__16_1_1TestClient.html#a23f3e7e41dc4fd7b2f8a35dd386e5a6e" target="_top" xlink:title=" ">
<polygon fill="white" stroke="#666666" points="767,-291 627,-291 627,-261 767,-261 767,-291"/>
<text text-anchor="start" x="635" y="-279" font-family="Helvetica,sans-Serif" font-size="10.00">com.teragrep.cfe_16.Test</text>
<text text-anchor="middle" x="697" y="-268" font-family="Helvetica,sans-Serif" font-size="10.00">Client.cleanup</text>
</a>
</g>
</g>
<!-- Node2&#45;&gt;Node4 -->
<g id="edge3_Node000002_Node000004" class="edge">
<title>Node2&#45;&gt;Node4</title>
<g id="a_edge3_Node000002_Node000004"><a xlink:title=" ">
<path fill="none" stroke="#63b8ff" d="M321.73,-198.03C342.08,-220.74 384.39,-262.86 431,-279 490.84,-299.72 562.93,-297.29 616.8,-290.62"/>
<polygon fill="#63b8ff" stroke="#63b8ff" points="617.53,-294.06 626.99,-289.28 616.61,-287.12 617.53,-294.06"/>
</a>
</g>
</g>
<!-- Node5 -->
<g id="Node000005" class="node">
<title>Node5</title>
<g id="a_Node000005"><a xlink:href="classcom_1_1teragrep_1_1cfe__16_1_1TestClient.html#afa2ceaba677411954a4210a8e6d5cd49" target="_top" xlink:title="Checks that the TCP connection is open, otherwis a new connection is created and returned.">
<polygon fill="white" stroke="#666666" points="587,-174 435,-174 435,-144 587,-144 587,-174"/>
<text text-anchor="start" x="443" y="-162" font-family="Helvetica,sans-Serif" font-size="10.00">com.teragrep.cfe_16.Test</text>
<text text-anchor="middle" x="511" y="-151" font-family="Helvetica,sans-Serif" font-size="10.00">Client.ensureTcpConnection</text>
</a>
</g>
</g>
<!-- Node2&#45;&gt;Node5 -->
<g id="edge4_Node000002_Node000005" class="edge">
<title>Node2&#45;&gt;Node5</title>
<g id="a_edge4_Node000002_Node000005"><a xlink:title=" ">
<path fill="none" stroke="#63b8ff" d="M395.12,-172.72C404.92,-171.55 414.92,-170.35 424.71,-169.18"/>
<polygon fill="#63b8ff" stroke="#63b8ff" points="425.32,-172.64 434.83,-167.98 424.49,-165.69 425.32,-172.64"/>
</a>
</g>
</g>
<!-- Node7 -->
<g id="Node000007" class="node">
<title>Node7</title>
<g id="a_Node000007"><a xlink:href="classcom_1_1teragrep_1_1cfe__16_1_1TestClient.html#a50b2f87f7fce871bb32c52de3a19dd55" target="_top" xlink:title=" ">
<polygon fill="white" stroke="#666666" points="581,-222 441,-222 441,-192 581,-192 581,-222"/>
<text text-anchor="start" x="449" y="-210" font-family="Helvetica,sans-Serif" font-size="10.00">com.teragrep.cfe_16.Test</text>
<text text-anchor="middle" x="511" y="-199" font-family="Helvetica,sans-Serif" font-size="10.00">Client.getReader</text>
</a>
</g>
</g>
<!-- Node2&#45;&gt;Node7 -->
<g id="edge6_Node000002_Node000007" class="edge">
<title>Node2&#45;&gt;Node7</title>
<g id="a_edge6_Node000002_Node000007"><a xlink:title=" ">
<path fill="none" stroke="#63b8ff" d="M395.12,-193.28C406.9,-194.69 418.96,-196.13 430.61,-197.52"/>
<polygon fill="#63b8ff" stroke="#63b8ff" points="430.39,-201.02 440.74,-198.73 431.22,-194.07 430.39,-201.02"/>
</a>
</g>
</g>
<!-- Node8 -->
<g id="Node000008" class="node">
<title>Node8</title>
<g id="a_Node000008"><a xlink:href="classcom_1_1teragrep_1_1cfe__16_1_1TestClient.html#a0d90aaf874c60e700371e09e00828eaa" target="_top" xlink:title="Advances buffered reader through HTTP headers.">
<polygon fill="white" stroke="#666666" points="581,-270 441,-270 441,-240 581,-240 581,-270"/>
<text text-anchor="start" x="449" y="-258" font-family="Helvetica,sans-Serif" font-size="10.00">com.teragrep.cfe_16.Test</text>
<text text-anchor="middle" x="511" y="-247" font-family="Helvetica,sans-Serif" font-size="10.00">Client.readHeaders</text>
</a>
</g>
</g>
<!-- Node2&#45;&gt;Node8 -->
<g id="edge7_Node000002_Node000008" class="edge">
<title>Node2&#45;&gt;Node8</title>
<g id="a_edge7_Node000002_Node000008"><a xlink:title=" ">
<path fill="none" stroke="#63b8ff" d="M345.02,-198.05C369.16,-207.92 401.76,-220.83 431,-231 436.64,-232.96 442.53,-234.92 448.45,-236.82"/>
<polygon fill="#63b8ff" stroke="#63b8ff" points="447.8,-240.29 458.39,-239.97 449.91,-233.62 447.8,-240.29"/>
</a>
</g>
</g>
<!-- Node9 -->
<g id="Node000009" class="node">
<title>Node9</title>
<g id="a_Node000009"><a xlink:href="classcom_1_1teragrep_1_1cfe__16_1_1TestClient.html#a4bd78c601bcc5d6c6bafc899f8ffe1e6" target="_top" xlink:title="Reads the reply line from the servere.">
<polygon fill="white" stroke="#666666" points="582,-126 440,-126 440,-96 582,-96 582,-126"/>
<text text-anchor="start" x="448" y="-114" font-family="Helvetica,sans-Serif" font-size="10.00">com.teragrep.cfe_16.Test</text>
<text text-anchor="middle" x="511" y="-103" font-family="Helvetica,sans-Serif" font-size="10.00">Client.readResponseBody</text>
</a>
</g>
</g>
<!-- Node2&#45;&gt;Node9 -->
<g id="edge10_Node000002_Node000009" class="edge">
<title>Node2&#45;&gt;Node9</title>
<g id="a_edge10_Node000002_Node000009"><a xlink:title=" ">
<path fill="none" stroke="#63b8ff" d="M345.02,-167.95C369.16,-158.08 401.76,-145.17 431,-135 436.64,-133.04 442.53,-131.08 448.45,-129.18"/>
<polygon fill="#63b8ff" stroke="#63b8ff" points="449.91,-132.38 458.39,-126.03 447.8,-125.71 449.91,-132.38"/>
</a>
</g>
</g>
<!-- Node10 -->
<g id="Node000010" class="node">
<title>Node10</title>
<g id="a_Node000010"><a xlink:href="classcom_1_1teragrep_1_1cfe__16_1_1TestClient.html#af26faca7da3952332135d35bb9827e34" target="_top" xlink:title="Does a HTTP request and keeps connection open.">
<polygon fill="white" stroke="#666666" points="581,-78 441,-78 441,-48 581,-48 581,-78"/>
<text text-anchor="start" x="449" y="-66" font-family="Helvetica,sans-Serif" font-size="10.00">com.teragrep.cfe_16.Test</text>
<text text-anchor="middle" x="511" y="-55" font-family="Helvetica,sans-Serif" font-size="10.00">Client.sendRequest</text>
</a>
</g>
</g>
<!-- Node2&#45;&gt;Node10 -->
<g id="edge11_Node000002_Node000010" class="edge">
<title>Node2&#45;&gt;Node10</title>
<g id="a_edge11_Node000002_Node000010"><a xlink:title=" ">
<path fill="none" stroke="#63b8ff" d="M324.23,-167.87C346.1,-146.93 388.47,-109.19 431,-87 434.54,-85.15 438.25,-83.42 442.05,-81.8"/>
<polygon fill="#63b8ff" stroke="#63b8ff" points="443.61,-84.95 451.63,-78.02 441.04,-78.44 443.61,-84.95"/>
</a>
</g>
</g>
<!-- Node11 -->
<g id="Node000011" class="node">
<title>Node11</title>
<g id="a_Node000011"><a xlink:href="classcom_1_1teragrep_1_1cfe__16_1_1TestClient.html#a98be0c11009e1193c90cbf91576cc66a" target="_top" xlink:title="Validates the response body line against the given regural expression.">
<polygon fill="white" stroke="#666666" points="591,-30 431,-30 431,0 591,0 591,-30"/>
<text text-anchor="start" x="439" y="-18" font-family="Helvetica,sans-Serif" font-size="10.00">com.teragrep.cfe_16.Test</text>
<text text-anchor="middle" x="511" y="-7" font-family="Helvetica,sans-Serif" font-size="10.00">Client.validateResponseBody</text>
</a>
</g>
</g>
<!-- Node2&#45;&gt;Node11 -->
<g id="edge12_Node000002_Node000011" class="edge">
<title>Node2&#45;&gt;Node11</title>
<g id="a_edge12_Node000002_Node000011"><a xlink:title=" ">
<path fill="none" stroke="#63b8ff" d="M317.65,-167.9C335.21,-138.61 377.88,-73.91 431,-39 433.41,-37.41 435.94,-35.93 438.54,-34.54"/>
<polygon fill="#63b8ff" stroke="#63b8ff" points="440.14,-37.65 447.64,-30.17 437.11,-31.34 440.14,-37.65"/>
</a>
</g>
</g>
<!-- Node6 -->
<g id="Node000006" class="node">
<title>Node6</title>
<g id="a_Node000006"><a xlink:href="classcom_1_1teragrep_1_1cfe__16_1_1TestClient.html#ab44ab6c8d2bd008181c5e31a2a8dfaa3" target="_top" xlink:title=" ">
<polygon fill="white" stroke="#666666" points="767,-219 627,-219 627,-189 767,-189 767,-219"/>
<text text-anchor="start" x="635" y="-207" font-family="Helvetica,sans-Serif" font-size="10.00">com.teragrep.cfe_16.Test</text>
<text text-anchor="middle" x="697" y="-196" font-family="Helvetica,sans-Serif" font-size="10.00">Client.createSocket</text>
</a>
</g>
</g>
<!-- Node5&#45;&gt;Node6 -->
<g id="edge5_Node000005_Node000006" class="edge">
<title>Node5&#45;&gt;Node6</title>
<g id="a_edge5_Node000005_Node000006"><a xlink:title=" ">
<path fill="none" stroke="#63b8ff" d="M573.53,-174.05C589.94,-178.06 607.82,-182.43 624.72,-186.57"/>
<polygon fill="#63b8ff" stroke="#63b8ff" points="623.99,-189.99 634.53,-188.97 625.65,-183.19 623.99,-189.99"/>
</a>
</g>
</g>
<!-- Node8&#45;&gt;Node4 -->
<g id="edge8_Node000008_Node000004" class="edge">
<title>Node8&#45;&gt;Node4</title>
<g id="a_edge8_Node000008_Node000004"><a xlink:title=" ">
<path fill="none" stroke="#63b8ff" d="M581.04,-262.88C592.75,-264.22 604.99,-265.61 616.94,-266.98"/>
<polygon fill="#63b8ff" stroke="#63b8ff" points="616.55,-270.45 626.88,-268.11 617.34,-263.5 616.55,-270.45"/>
</a>
</g>
</g>
<!-- Node8&#45;&gt;Node6 -->
<g id="edge9_Node000008_Node000006" class="edge">
<title>Node8&#45;&gt;Node6</title>
<g id="a_edge9_Node000008_Node000006"><a xlink:title=" ">
<path fill="none" stroke="#63b8ff" d="M566.21,-239.97C586.89,-234.24 610.66,-227.65 632.16,-221.69"/>
<polygon fill="#63b8ff" stroke="#63b8ff" points="633.16,-225.05 641.86,-219.01 631.29,-218.3 633.16,-225.05"/>
</a>
</g>
</g>
</g>
</svg>
