<?xml version="1.0" encoding="UTF-8" standalone="no"?>
<!DOCTYPE svg PUBLIC "-//W3C//DTD SVG 1.1//EN"
 "http://www.w3.org/Graphics/SVG/1.1/DTD/svg11.dtd">
<!-- Generated by graphviz version 2.43.0 (0)
 -->
<!-- Title: com.teragrep.cfe_16.connection.AbstractConnection Pages: 1 -->
<svg width="599pt" height="134pt"
 viewBox="0.00 0.00 599.00 134.00" xmlns="http://www.w3.org/2000/svg" xmlns:xlink="http://www.w3.org/1999/xlink">
<g id="graph0" class="graph" transform="scale(1 1) rotate(0) translate(4 130)">
<title>com.teragrep.cfe_16.connection.AbstractConnection</title>
<!-- Node1 -->
<g id="Node000001" class="node">
<title>Node1</title>
<g id="a_Node000001"><a xlink:title="An abstract connection class for sending batch messages.">
<polygon fill="#999999" stroke="#666666" points="379,-78 203,-78 203,-48 379,-48 379,-78"/>
<text text-anchor="start" x="211" y="-66" font-family="Helvetica,sans-Serif" font-size="10.00">com.teragrep.cfe_16.connection.</text>
<text text-anchor="middle" x="291" y="-55" font-family="Helvetica,sans-Serif" font-size="10.00">AbstractConnection</text>
</a>
</g>
</g>
<!-- Node3 -->
<g id="Node000003" class="node">
<title>Node3</title>
<g id="a_Node000003"><a xlink:href="classcom_1_1teragrep_1_1cfe__16_1_1connection_1_1RelpConnection.html" target="_top" xlink:title=" ">
<polygon fill="white" stroke="#666666" points="591,-126 415,-126 415,-96 591,-96 591,-126"/>
<text text-anchor="start" x="423" y="-114" font-family="Helvetica,sans-Serif" font-size="10.00">com.teragrep.cfe_16.connection.</text>
<text text-anchor="middle" x="503" y="-103" font-family="Helvetica,sans-Serif" font-size="10.00">RelpConnection</text>
</a>
</g>
</g>
<!-- Node1&#45;&gt;Node3 -->
<g id="edge2_Node000001_Node000003" class="edge">
<title>Node1&#45;&gt;Node3</title>
<g id="a_edge2_Node000001_Node000003"><a xlink:title=" ">
<path fill="none" stroke="#63b8ff" d="M367.7,-80.3C390.17,-85.44 414.59,-91.02 436.36,-96"/>
<polygon fill="#63b8ff" stroke="#63b8ff" points="368.4,-76.87 357.87,-78.06 366.84,-83.7 368.4,-76.87"/>
</a>
</g>
</g>
<!-- Node4 -->
<g id="Node000004" class="node">
<title>Node4</title>
<g id="a_Node000004"><a xlink:href="classcom_1_1teragrep_1_1cfe__16_1_1connection_1_1TcpConnection.html" target="_top" xlink:title=" ">
<polygon fill="white" stroke="#666666" points="591,-78 415,-78 415,-48 591,-48 591,-78"/>
<text text-anchor="start" x="423" y="-66" font-family="Helvetica,sans-Serif" font-size="10.00">com.teragrep.cfe_16.connection.</text>
<text text-anchor="middle" x="503" y="-55" font-family="Helvetica,sans-Serif" font-size="10.00">TcpConnection</text>
</a>
</g>
</g>
<!-- Node1&#45;&gt;Node4 -->
<g id="edge3_Node000001_Node000004" class="edge">
<title>Node1&#45;&gt;Node4</title>
<g id="a_edge3_Node000001_Node000004"><a xlink:title=" ">
<path fill="none" stroke="#63b8ff" d="M389.46,-63C397.88,-63 406.37,-63 414.7,-63"/>
<polygon fill="#63b8ff" stroke="#63b8ff" points="389.23,-59.5 379.23,-63 389.23,-66.5 389.23,-59.5"/>
</a>
</g>
</g>
<!-- Node5 -->
<g id="Node000005" class="node">
<title>Node5</title>
<g id="a_Node000005"><a xlink:href="classcom_1_1teragrep_1_1cfe__16_1_1connection_1_1UdpConnection.html" target="_top" xlink:title=" ">
<polygon fill="white" stroke="#666666" points="591,-30 415,-30 415,0 591,0 591,-30"/>
<text text-anchor="start" x="423" y="-18" font-family="Helvetica,sans-Serif" font-size="10.00">com.teragrep.cfe_16.connection.</text>
<text text-anchor="middle" x="503" y="-7" font-family="Helvetica,sans-Serif" font-size="10.00">UdpConnection</text>
</a>
</g>
</g>
<!-- Node1&#45;&gt;Node5 -->
<g id="edge4_Node000001_Node000005" class="edge">
<title>Node1&#45;&gt;Node5</title>
<g id="a_edge4_Node000001_Node000005"><a xlink:title=" ">
<path fill="none" stroke="#63b8ff" d="M367.7,-45.7C390.17,-40.56 414.59,-34.98 436.36,-30"/>
<polygon fill="#63b8ff" stroke="#63b8ff" points="366.84,-42.3 357.87,-47.94 368.4,-49.13 366.84,-42.3"/>
</a>
</g>
</g>
<!-- Node2 -->
<g id="Node000002" class="node">
<title>Node2</title>
<g id="a_Node000002"><a xlink:title=" ">
<polygon fill="white" stroke="#666666" points="167,-72.5 0,-72.5 0,-53.5 167,-53.5 167,-72.5"/>
<text text-anchor="middle" x="83.5" y="-60.5" font-family="Helvetica,sans-Serif" font-size="10.00">AbstractSyslogMessageSender</text>
</a>
</g>
</g>
<!-- Node2&#45;&gt;Node1 -->
<g id="edge1_Node000001_Node000002" class="edge">
<title>Node2&#45;&gt;Node1</title>
<g id="a_edge1_Node000001_Node000002"><a xlink:title=" ">
<path fill="none" stroke="#63b8ff" d="M177.43,-63C185.86,-63 194.39,-63 202.77,-63"/>
<polygon fill="#63b8ff" stroke="#63b8ff" points="177.2,-59.5 167.2,-63 177.2,-66.5 177.2,-59.5"/>
</a>
</g>
</g>
</g>
</svg>
