<?xml version="1.0" encoding="UTF-8" standalone="no"?>
<!DOCTYPE svg PUBLIC "-//W3C//DTD SVG 1.1//EN"
 "http://www.w3.org/Graphics/SVG/1.1/DTD/svg11.dtd">
<!-- Generated by graphviz version 2.43.0 (0)
 -->
<!-- Title: com.teragrep.cfe_16.Acknowledgements.State.getAckMap Pages: 1 -->
<svg width="1114pt" height="383pt"
 viewBox="0.00 0.00 1114.00 382.76" xmlns="http://www.w3.org/2000/svg" xmlns:xlink="http://www.w3.org/1999/xlink">
<g id="graph0" class="graph" transform="scale(1 1) rotate(0) translate(4 378.76)">
<title>com.teragrep.cfe_16.Acknowledgements.State.getAckMap</title>
<!-- Node1 -->
<g id="Node000001" class="node">
<title>Node1</title>
<g id="a_Node000001"><a xlink:title=" ">
<polygon fill="#999999" stroke="#666666" points="1106,-206.5 887,-206.5 887,-176.5 1106,-176.5 1106,-206.5"/>
<text text-anchor="start" x="895" y="-194.5" font-family="Helvetica,sans-Serif" font-size="10.00">com.teragrep.cfe_16.Acknowledgements.</text>
<text text-anchor="middle" x="996.5" y="-183.5" font-family="Helvetica,sans-Serif" font-size="10.00">State.getAckMap</text>
</a>
</g>
</g>
<!-- Node2 -->
<g id="Node000002" class="node">
<title>Node2</title>
<g id="a_Node000002"><a xlink:href="classcom_1_1teragrep_1_1cfe__16_1_1Acknowledgements.html#a8c6f0dff735fde04e0bc670136eb57d2" target="_top" xlink:title=" ">
<polygon fill="white" stroke="#666666" points="851,-239 567,-239 567,-220 851,-220 851,-239"/>
<text text-anchor="middle" x="709" y="-227" font-family="Helvetica,sans-Serif" font-size="10.00">com.teragrep.cfe_16.Acknowledgements.acknowledge</text>
</a>
</g>
</g>
<!-- Node1&#45;&gt;Node2 -->
<g id="edge1_Node000001_Node000002" class="edge">
<title>Node1&#45;&gt;Node2</title>
<g id="a_edge1_Node000001_Node000002"><a xlink:title=" ">
<path fill="none" stroke="#63b8ff" d="M876.8,-207.3C844.53,-211.59 810.57,-216.11 781.78,-219.95"/>
<polygon fill="#63b8ff" stroke="#63b8ff" points="877.3,-210.76 886.75,-205.97 876.38,-203.82 877.3,-210.76"/>
</a>
</g>
</g>
<!-- Node6 -->
<g id="Node000006" class="node">
<title>Node6</title>
<g id="a_Node000006"><a xlink:href="classcom_1_1teragrep_1_1cfe__16_1_1Acknowledgements.html#a7a9570efce9732f5f674e9ea85017439" target="_top" xlink:title=" ">
<polygon fill="white" stroke="#666666" points="830,-335.5 588,-335.5 588,-305.5 830,-305.5 830,-335.5"/>
<text text-anchor="start" x="596" y="-323.5" font-family="Helvetica,sans-Serif" font-size="10.00">com.teragrep.cfe_16.Acknowledgements.acks</text>
<text text-anchor="middle" x="709" y="-312.5" font-family="Helvetica,sans-Serif" font-size="10.00">Available</text>
</a>
</g>
</g>
<!-- Node1&#45;&gt;Node6 -->
<g id="edge5_Node000001_Node000006" class="edge">
<title>Node1&#45;&gt;Node6</title>
<g id="a_edge5_Node000001_Node000006"><a xlink:title=" ">
<path fill="none" stroke="#63b8ff" d="M972.34,-213.66C945.43,-238.05 898.6,-276.46 851,-296.5 842.76,-299.97 834.05,-302.94 825.17,-305.48"/>
<polygon fill="#63b8ff" stroke="#63b8ff" points="974.72,-216.22 979.71,-206.87 969.98,-211.07 974.72,-216.22"/>
</a>
</g>
</g>
<!-- Node7 -->
<g id="Node000007" class="node">
<title>Node7</title>
<g id="a_Node000007"><a xlink:href="classcom_1_1teragrep_1_1cfe__16_1_1Acknowledgements.html#a5307dc12a64ca957ae24430d09b372e1" target="_top" xlink:title=" ">
<polygon fill="white" stroke="#666666" points="531,-335.5 262,-335.5 262,-305.5 531,-305.5 531,-335.5"/>
<text text-anchor="start" x="270" y="-323.5" font-family="Helvetica,sans-Serif" font-size="10.00">com.teragrep.cfe_16.Acknowledgements.increment</text>
<text text-anchor="middle" x="396.5" y="-312.5" font-family="Helvetica,sans-Serif" font-size="10.00">AckValue</text>
</a>
</g>
</g>
<!-- Node1&#45;&gt;Node7 -->
<g id="edge19_Node000001_Node000007" class="edge">
<title>Node1&#45;&gt;Node7</title>
<g id="a_edge19_Node000001_Node000007"><a xlink:title=" ">
<path fill="none" stroke="#63b8ff" d="M981.81,-215.46C959.69,-251.46 912.29,-318.08 851,-344.5 712.17,-404.34 526.88,-361.07 442.62,-335.58"/>
<polygon fill="#63b8ff" stroke="#63b8ff" points="984.99,-216.97 987.13,-206.6 978.98,-213.37 984.99,-216.97"/>
</a>
</g>
</g>
<!-- Node10 -->
<g id="Node000010" class="node">
<title>Node10</title>
<g id="a_Node000010"><a xlink:href="classcom_1_1teragrep_1_1cfe__16_1_1Acknowledgements.html#a225a9f18c21826dc1bbc4ce0a82550ed" target="_top" xlink:title=" ">
<polygon fill="white" stroke="#666666" points="834,-67.5 584,-67.5 584,-37.5 834,-37.5 834,-67.5"/>
<text text-anchor="start" x="592" y="-55.5" font-family="Helvetica,sans-Serif" font-size="10.00">com.teragrep.cfe_16.Acknowledgements.delete</text>
<text text-anchor="middle" x="709" y="-44.5" font-family="Helvetica,sans-Serif" font-size="10.00">AckFromList</text>
</a>
</g>
</g>
<!-- Node1&#45;&gt;Node10 -->
<g id="edge11_Node000001_Node000010" class="edge">
<title>Node1&#45;&gt;Node10</title>
<g id="a_edge11_Node000001_Node000010"><a xlink:title=" ">
<path fill="none" stroke="#63b8ff" d="M974.47,-168.91C948.26,-142.26 900.82,-98.77 851,-76.5 843.29,-73.05 835.15,-70.1 826.81,-67.57"/>
<polygon fill="#63b8ff" stroke="#63b8ff" points="972.13,-171.52 981.6,-176.27 977.16,-166.65 972.13,-171.52"/>
</a>
</g>
</g>
<!-- Node12 -->
<g id="Node000012" class="node">
<title>Node12</title>
<g id="a_Node000012"><a xlink:href="classcom_1_1teragrep_1_1cfe__16_1_1Acknowledgements.html#a524b6158e1c70b00480d167b944f14ad" target="_top" xlink:title="Returns the unmodifiable set of Acks for a channel.">
<polygon fill="white" stroke="#666666" points="826.5,-163.5 591.5,-163.5 591.5,-133.5 826.5,-133.5 826.5,-163.5"/>
<text text-anchor="start" x="599.5" y="-151.5" font-family="Helvetica,sans-Serif" font-size="10.00">com.teragrep.cfe_16.Acknowledgements.get</text>
<text text-anchor="middle" x="709" y="-140.5" font-family="Helvetica,sans-Serif" font-size="10.00">AckList</text>
</a>
</g>
</g>
<!-- Node1&#45;&gt;Node12 -->
<g id="edge13_Node000001_Node000012" class="edge">
<title>Node1&#45;&gt;Node12</title>
<g id="a_edge13_Node000001_Node000012"><a xlink:title=" ">
<path fill="none" stroke="#63b8ff" d="M885.44,-174.92C860.55,-171.17 834.24,-167.21 809.8,-163.53"/>
<polygon fill="#63b8ff" stroke="#63b8ff" points="885.24,-178.43 895.65,-176.46 886.28,-171.51 885.24,-178.43"/>
</a>
</g>
</g>
<!-- Node13 -->
<g id="Node000013" class="node">
<title>Node13</title>
<g id="a_Node000013"><a xlink:href="classcom_1_1teragrep_1_1cfe__16_1_1Acknowledgements.html#a5287a2c95003a939f0314bc423d401cf" target="_top" xlink:title="Returns the size of the Ack set of given channel.">
<polygon fill="white" stroke="#666666" points="826.5,-115.5 591.5,-115.5 591.5,-85.5 826.5,-85.5 826.5,-115.5"/>
<text text-anchor="start" x="599.5" y="-103.5" font-family="Helvetica,sans-Serif" font-size="10.00">com.teragrep.cfe_16.Acknowledgements.get</text>
<text text-anchor="middle" x="709" y="-92.5" font-family="Helvetica,sans-Serif" font-size="10.00">AckListSize</text>
</a>
</g>
</g>
<!-- Node1&#45;&gt;Node13 -->
<g id="edge15_Node000001_Node000013" class="edge">
<title>Node1&#45;&gt;Node13</title>
<g id="a_edge15_Node000001_Node000013"><a xlink:title=" ">
<path fill="none" stroke="#63b8ff" d="M959.48,-171.52C930.87,-156.47 889.43,-136.45 851,-124.5 839.97,-121.07 828.3,-118.1 816.58,-115.53"/>
<polygon fill="#63b8ff" stroke="#63b8ff" points="958.19,-174.8 968.66,-176.41 961.48,-168.62 958.19,-174.8"/>
</a>
</g>
</g>
<!-- Node14 -->
<g id="Node000014" class="node">
<title>Node14</title>
<g id="a_Node000014"><a xlink:href="classcom_1_1teragrep_1_1cfe__16_1_1Acknowledgements.html#a991efdd07c7cbf8d24b5da93e342b55c" target="_top" xlink:title="Returns the Ack statuses of requested Ack id:s as a JSON node.">
<polygon fill="white" stroke="#666666" points="826.5,-287.5 591.5,-287.5 591.5,-257.5 826.5,-257.5 826.5,-287.5"/>
<text text-anchor="start" x="599.5" y="-275.5" font-family="Helvetica,sans-Serif" font-size="10.00">com.teragrep.cfe_16.Acknowledgements.get</text>
<text text-anchor="middle" x="709" y="-264.5" font-family="Helvetica,sans-Serif" font-size="10.00">RequestedAckStatuses</text>
</a>
</g>
</g>
<!-- Node1&#45;&gt;Node14 -->
<g id="edge17_Node000001_Node000014" class="edge">
<title>Node1&#45;&gt;Node14</title>
<g id="a_edge17_Node000001_Node000014"><a xlink:title=" ">
<path fill="none" stroke="#63b8ff" d="M953.03,-210.47C924.63,-222.53 886.15,-237.67 851,-247.5 837.59,-251.25 823.3,-254.55 809.16,-257.43"/>
<polygon fill="#63b8ff" stroke="#63b8ff" points="954.45,-213.67 962.26,-206.51 951.69,-207.24 954.45,-213.67"/>
</a>
</g>
</g>
<!-- Node15 -->
<g id="Node000015" class="node">
<title>Node15</title>
<g id="a_Node000015"><a xlink:href="classcom_1_1teragrep_1_1cfe__16_1_1Acknowledgements.html#a9544ac800392336cc3fa19b72234d014" target="_top" xlink:title="Checks if the Ack with a given id is acknowledged.">
<polygon fill="white" stroke="#666666" points="510,-163.5 283,-163.5 283,-133.5 510,-133.5 510,-163.5"/>
<text text-anchor="start" x="291" y="-151.5" font-family="Helvetica,sans-Serif" font-size="10.00">com.teragrep.cfe_16.Acknowledgements.is</text>
<text text-anchor="middle" x="396.5" y="-140.5" font-family="Helvetica,sans-Serif" font-size="10.00">AckAcknowledged</text>
</a>
</g>
</g>
<!-- Node1&#45;&gt;Node15 -->
<g id="edge20_Node000001_Node000015" class="edge">
<title>Node1&#45;&gt;Node15</title>
<g id="a_edge20_Node000001_Node000015"><a xlink:title=" ">
<path fill="none" stroke="#63b8ff" d="M876.92,-189.31C790.78,-186.97 671.49,-182.19 567,-172.5 542.59,-170.24 516.3,-166.94 491.89,-163.51"/>
<polygon fill="#63b8ff" stroke="#63b8ff" points="876.91,-192.81 887,-189.58 877.09,-185.81 876.91,-192.81"/>
</a>
</g>
</g>
<!-- Node16 -->
<g id="Node000016" class="node">
<title>Node16</title>
<g id="a_Node000016"><a xlink:href="classcom_1_1teragrep_1_1cfe__16_1_1Acknowledgements.html#a2d2acb3e9942fdb720439eaad8fa1f5c" target="_top" xlink:title=" ">
<polygon fill="white" stroke="#666666" points="826.5,-19 591.5,-19 591.5,0 826.5,0 826.5,-19"/>
<text text-anchor="middle" x="709" y="-7" font-family="Helvetica,sans-Serif" font-size="10.00">com.teragrep.cfe_16.Acknowledgements.run</text>
</a>
</g>
</g>
<!-- Node1&#45;&gt;Node16 -->
<g id="edge22_Node000001_Node000016" class="edge">
<title>Node1&#45;&gt;Node16</title>
<g id="a_edge22_Node000001_Node000016"><a xlink:title=" ">
<path fill="none" stroke="#63b8ff" d="M981.9,-167.32C959.74,-130.46 912.12,-61.08 851,-28.5 843.37,-24.43 835.19,-21.12 826.76,-18.44"/>
<polygon fill="#63b8ff" stroke="#63b8ff" points="979.13,-169.52 987.22,-176.37 985.17,-165.98 979.13,-169.52"/>
</a>
</g>
</g>
<!-- Node3 -->
<g id="Node000003" class="node">
<title>Node3</title>
<g id="a_Node000003"><a xlink:href="classcom_1_1teragrep_1_1cfe__16_1_1it_1_1AcknowledgementsIT.html#ad7d230669d75e6c83a2d4364e6ce1a10" target="_top" xlink:title=" ">
<polygon fill="white" stroke="#666666" points="226,-206.5 0,-206.5 0,-176.5 226,-176.5 226,-206.5"/>
<text text-anchor="start" x="8" y="-194.5" font-family="Helvetica,sans-Serif" font-size="10.00">com.teragrep.cfe_16.it.Acknowledgements</text>
<text text-anchor="middle" x="113" y="-183.5" font-family="Helvetica,sans-Serif" font-size="10.00">IT.acknowledgeTest</text>
</a>
</g>
</g>
<!-- Node2&#45;&gt;Node3 -->
<g id="edge2_Node000002_Node000003" class="edge">
<title>Node2&#45;&gt;Node3</title>
<g id="a_edge2_Node000002_Node000003"><a xlink:title=" ">
<path fill="none" stroke="#63b8ff" d="M556.68,-219.82C453.75,-213.24 319.8,-204.67 226.32,-198.69"/>
<polygon fill="#63b8ff" stroke="#63b8ff" points="556.65,-223.32 566.85,-220.47 557.1,-216.34 556.65,-223.32"/>
</a>
</g>
</g>
<!-- Node4 -->
<g id="Node000004" class="node">
<title>Node4</title>
<g id="a_Node000004"><a xlink:href="classcom_1_1teragrep_1_1cfe__16_1_1it_1_1AcknowledgementsIT.html#adf6b572a31548b5d7c7e9780f8f79bac" target="_top" xlink:title=" ">
<polygon fill="white" stroke="#666666" points="509.5,-287.5 283.5,-287.5 283.5,-257.5 509.5,-257.5 509.5,-287.5"/>
<text text-anchor="start" x="291.5" y="-275.5" font-family="Helvetica,sans-Serif" font-size="10.00">com.teragrep.cfe_16.it.Acknowledgements</text>
<text text-anchor="middle" x="396.5" y="-264.5" font-family="Helvetica,sans-Serif" font-size="10.00">IT.getRequestedAckStatusesTest</text>
</a>
</g>
</g>
<!-- Node2&#45;&gt;Node4 -->
<g id="edge3_Node000002_Node000004" class="edge">
<title>Node2&#45;&gt;Node4</title>
<g id="a_edge3_Node000002_Node000004"><a xlink:title=" ">
<path fill="none" stroke="#63b8ff" d="M626.55,-240.38C607.04,-243.01 586.27,-245.84 567,-248.5 546.24,-251.37 524.07,-254.48 502.82,-257.48"/>
<polygon fill="#63b8ff" stroke="#63b8ff" points="627.18,-243.83 636.62,-239.02 626.24,-236.89 627.18,-243.83"/>
</a>
</g>
</g>
<!-- Node5 -->
<g id="Node000005" class="node">
<title>Node5</title>
<g id="a_Node000005"><a xlink:href="classcom_1_1teragrep_1_1cfe__16_1_1service_1_1HECServiceImpl.html#a9ed9a0d5772181625f00edce5a2c611d" target="_top" xlink:title="Returns the JSON object as a response of given HTTP event request.">
<polygon fill="white" stroke="#666666" points="192,-270.5 34,-270.5 34,-240.5 192,-240.5 192,-270.5"/>
<text text-anchor="start" x="42" y="-258.5" font-family="Helvetica,sans-Serif" font-size="10.00">com.teragrep.cfe_16.service.</text>
<text text-anchor="middle" x="113" y="-247.5" font-family="Helvetica,sans-Serif" font-size="10.00">HECServiceImpl.sendEvents</text>
</a>
</g>
</g>
<!-- Node2&#45;&gt;Node5 -->
<g id="edge4_Node000002_Node000005" class="edge">
<title>Node2&#45;&gt;Node5</title>
<g id="a_edge4_Node000002_Node000005"><a xlink:title=" ">
<path fill="none" stroke="#63b8ff" d="M556.74,-235.77C470.39,-239.39 360.12,-244.09 262,-248.5 239.39,-249.52 214.83,-250.66 192.34,-251.73"/>
<polygon fill="#63b8ff" stroke="#63b8ff" points="557.04,-239.26 566.88,-235.34 556.75,-232.26 557.04,-239.26"/>
</a>
</g>
</g>
<!-- Node6&#45;&gt;Node7 -->
<g id="edge6_Node000006_Node000007" class="edge">
<title>Node6&#45;&gt;Node7</title>
<g id="a_edge6_Node000006_Node000007"><a xlink:title=" ">
<path fill="none" stroke="#63b8ff" d="M577.86,-320.5C562.42,-320.5 546.65,-320.5 531.16,-320.5"/>
<polygon fill="#63b8ff" stroke="#63b8ff" points="577.95,-324 587.95,-320.5 577.95,-317 577.95,-324"/>
</a>
</g>
</g>
<!-- Node7&#45;&gt;Node3 -->
<g id="edge7_Node000007_Node000003" class="edge">
<title>Node7&#45;&gt;Node3</title>
<g id="a_edge7_Node000007_Node000003"><a xlink:title=" ">
<path fill="none" stroke="#63b8ff" d="M267.87,-300.39C265.86,-299.16 263.91,-297.86 262,-296.5 235.15,-277.27 251.17,-252.88 226,-231.5 213.02,-220.47 196.77,-212.4 180.71,-206.52"/>
<polygon fill="#63b8ff" stroke="#63b8ff" points="266.49,-303.62 276.94,-305.36 269.85,-297.48 266.49,-303.62"/>
</a>
</g>
</g>
<!-- Node7&#45;&gt;Node5 -->
<g id="edge10_Node000007_Node000005" class="edge">
<title>Node7&#45;&gt;Node5</title>
<g id="a_edge10_Node000007_Node000005"><a xlink:title=" ">
<path fill="none" stroke="#63b8ff" d="M295.55,-303.57C284.21,-301.34 272.83,-298.97 262,-296.5 243.8,-292.35 201.25,-280.48 166.42,-270.57"/>
<polygon fill="#63b8ff" stroke="#63b8ff" points="295.02,-307.03 305.51,-305.49 296.35,-300.16 295.02,-307.03"/>
</a>
</g>
</g>
<!-- Node8 -->
<g id="Node000008" class="node">
<title>Node8</title>
<g id="a_Node000008"><a xlink:href="classcom_1_1teragrep_1_1cfe__16_1_1it_1_1AcknowledgementsIT.html#a28a8273d6b136df113665a5032aa8ca3" target="_top" xlink:title=" ">
<polygon fill="white" stroke="#666666" points="226,-326.5 0,-326.5 0,-296.5 226,-296.5 226,-326.5"/>
<text text-anchor="start" x="8" y="-314.5" font-family="Helvetica,sans-Serif" font-size="10.00">com.teragrep.cfe_16.it.Acknowledgements</text>
<text text-anchor="middle" x="113" y="-303.5" font-family="Helvetica,sans-Serif" font-size="10.00">IT.getCurrentAckValueAndIncrementTest</text>
</a>
</g>
</g>
<!-- Node7&#45;&gt;Node8 -->
<g id="edge8_Node000007_Node000008" class="edge">
<title>Node7&#45;&gt;Node8</title>
<g id="a_edge8_Node000007_Node000008"><a xlink:title=" ">
<path fill="none" stroke="#63b8ff" d="M251.69,-315.9C243.12,-315.63 234.57,-315.35 226.15,-315.09"/>
<polygon fill="#63b8ff" stroke="#63b8ff" points="251.65,-319.4 261.76,-316.22 251.87,-312.41 251.65,-319.4"/>
</a>
</g>
</g>
<!-- Node9 -->
<g id="Node000009" class="node">
<title>Node9</title>
<g id="a_Node000009"><a xlink:href="classcom_1_1teragrep_1_1cfe__16_1_1it_1_1AcknowledgementsIT.html#afc4e73cfb46d7fbc19edc8d2c177e6bf" target="_top" xlink:title=" ">
<polygon fill="white" stroke="#666666" points="226,-374.5 0,-374.5 0,-344.5 226,-344.5 226,-374.5"/>
<text text-anchor="start" x="8" y="-362.5" font-family="Helvetica,sans-Serif" font-size="10.00">com.teragrep.cfe_16.it.Acknowledgements</text>
<text text-anchor="middle" x="113" y="-351.5" font-family="Helvetica,sans-Serif" font-size="10.00">IT.getCurrentAckValueTest</text>
</a>
</g>
</g>
<!-- Node7&#45;&gt;Node9 -->
<g id="edge9_Node000007_Node000009" class="edge">
<title>Node7&#45;&gt;Node9</title>
<g id="a_edge9_Node000007_Node000009"><a xlink:title=" ">
<path fill="none" stroke="#63b8ff" d="M277.05,-336.91C258.92,-339.42 240.28,-342 222.38,-344.49"/>
<polygon fill="#63b8ff" stroke="#63b8ff" points="277.64,-340.36 287.07,-335.52 276.68,-333.43 277.64,-340.36"/>
</a>
</g>
</g>
<!-- Node11 -->
<g id="Node000011" class="node">
<title>Node11</title>
<g id="a_Node000011"><a xlink:href="classcom_1_1teragrep_1_1cfe__16_1_1it_1_1AcknowledgementsIT.html#a145cd25807c91ed7c62729cf106b5bbc" target="_top" xlink:title=" ">
<polygon fill="white" stroke="#666666" points="509.5,-115.5 283.5,-115.5 283.5,-85.5 509.5,-85.5 509.5,-115.5"/>
<text text-anchor="start" x="291.5" y="-103.5" font-family="Helvetica,sans-Serif" font-size="10.00">com.teragrep.cfe_16.it.Acknowledgements</text>
<text text-anchor="middle" x="396.5" y="-92.5" font-family="Helvetica,sans-Serif" font-size="10.00">IT.deleteAckTest</text>
</a>
</g>
</g>
<!-- Node10&#45;&gt;Node11 -->
<g id="edge12_Node000010_Node000011" class="edge">
<title>Node10&#45;&gt;Node11</title>
<g id="a_edge12_Node000010_Node000011"><a xlink:title=" ">
<path fill="none" stroke="#63b8ff" d="M600.52,-69.12C566.09,-74.44 528.19,-80.3 494.55,-85.5"/>
<polygon fill="#63b8ff" stroke="#63b8ff" points="601.26,-72.54 610.61,-67.56 600.19,-65.62 601.26,-72.54"/>
</a>
</g>
</g>
<!-- Node12&#45;&gt;Node11 -->
<g id="edge14_Node000012_Node000011" class="edge">
<title>Node12&#45;&gt;Node11</title>
<g id="a_edge14_Node000012_Node000011"><a xlink:title=" ">
<path fill="none" stroke="#63b8ff" d="M600.52,-131.88C566.09,-126.56 528.19,-120.7 494.55,-115.5"/>
<polygon fill="#63b8ff" stroke="#63b8ff" points="600.19,-135.38 610.61,-133.44 601.26,-128.46 600.19,-135.38"/>
</a>
</g>
</g>
<!-- Node13&#45;&gt;Node11 -->
<g id="edge16_Node000013_Node000011" class="edge">
<title>Node13&#45;&gt;Node11</title>
<g id="a_edge16_Node000013_Node000011"><a xlink:title=" ">
<path fill="none" stroke="#63b8ff" d="M581.36,-100.5C557.56,-100.5 532.83,-100.5 509.51,-100.5"/>
<polygon fill="#63b8ff" stroke="#63b8ff" points="581.5,-104 591.5,-100.5 581.5,-97 581.5,-104"/>
</a>
</g>
</g>
<!-- Node14&#45;&gt;Node4 -->
<g id="edge18_Node000014_Node000004" class="edge">
<title>Node14&#45;&gt;Node4</title>
<g id="a_edge18_Node000014_Node000004"><a xlink:title=" ">
<path fill="none" stroke="#63b8ff" d="M581.36,-272.5C557.56,-272.5 532.83,-272.5 509.51,-272.5"/>
<polygon fill="#63b8ff" stroke="#63b8ff" points="581.5,-276 591.5,-272.5 581.5,-269 581.5,-276"/>
</a>
</g>
</g>
<!-- Node15&#45;&gt;Node3 -->
<g id="edge21_Node000015_Node000003" class="edge">
<title>Node15&#45;&gt;Node3</title>
<g id="a_edge21_Node000015_Node000003"><a xlink:title=" ">
<path fill="none" stroke="#63b8ff" d="M286.99,-165.08C262.44,-168.83 236.5,-172.79 212.4,-176.47"/>
<polygon fill="#63b8ff" stroke="#63b8ff" points="287.69,-168.51 297.04,-163.54 286.63,-161.59 287.69,-168.51"/>
</a>
</g>
</g>
</g>
</svg>
