<?xml version="1.0" encoding="UTF-8" standalone="no"?>
<!DOCTYPE svg PUBLIC "-//W3C//DTD SVG 1.1//EN"
 "http://www.w3.org/Graphics/SVG/1.1/DTD/svg11.dtd">
<!-- Generated by graphviz version 2.43.0 (0)
 -->
<!-- Title: com.teragrep.cfe_16.bo.XForwardedHostStub Pages: 1 -->
<svg width="223pt" height="148pt"
 viewBox="0.00 0.00 223.00 148.00" xmlns="http://www.w3.org/2000/svg" xmlns:xlink="http://www.w3.org/1999/xlink">
<g id="graph0" class="graph" transform="scale(1 1) rotate(0) translate(4 144)">
<title>com.teragrep.cfe_16.bo.XForwardedHostStub</title>
<!-- Node1 -->
<g id="Node000001" class="node">
<title>Node1</title>
<g id="a_Node000001"><a xlink:title=" ">
<polygon fill="#999999" stroke="#666666" points="204,-30 11,-30 11,0 204,0 204,-30"/>
<text text-anchor="start" x="19" y="-18" font-family="Helvetica,sans-Serif" font-size="10.00">com.teragrep.cfe_16.bo.XForwarded</text>
<text text-anchor="middle" x="107.5" y="-7" font-family="Helvetica,sans-Serif" font-size="10.00">HostStub</text>
</a>
</g>
</g>
<!-- Node2 -->
<g id="Node000002" class="node">
<title>Node2</title>
<g id="a_Node000002"><a xlink:href="interfacecom_1_1teragrep_1_1cfe__16_1_1bo_1_1XForwardedHost.html" target="_top" xlink:title=" ">
<polygon fill="white" stroke="#666666" points="215,-85 0,-85 0,-66 215,-66 215,-85"/>
<text text-anchor="middle" x="107.5" y="-73" font-family="Helvetica,sans-Serif" font-size="10.00">com.teragrep.cfe_16.bo.XForwardedHost</text>
</a>
</g>
</g>
<!-- Node2&#45;&gt;Node1 -->
<g id="edge1_Node000001_Node000002" class="edge">
<title>Node2&#45;&gt;Node1</title>
<g id="a_edge1_Node000001_Node000002"><a xlink:title=" ">
<path fill="none" stroke="#63b8ff" d="M107.5,-55.65C107.5,-47.36 107.5,-37.78 107.5,-30.11"/>
<polygon fill="#63b8ff" stroke="#63b8ff" points="104,-55.87 107.5,-65.87 111,-55.87 104,-55.87"/>
</a>
</g>
</g>
<!-- Node3 -->
<g id="Node000003" class="node">
<title>Node3</title>
<g id="a_Node000003"><a xlink:href="interfacecom_1_1teragrep_1_1cfe__16_1_1Stubable.html" target="_top" xlink:title=" ">
<polygon fill="white" stroke="#666666" points="189,-140 26,-140 26,-121 189,-121 189,-140"/>
<text text-anchor="middle" x="107.5" y="-128" font-family="Helvetica,sans-Serif" font-size="10.00">com.teragrep.cfe_16.Stubable</text>
</a>
</g>
</g>
<!-- Node3&#45;&gt;Node2 -->
<g id="edge2_Node000002_Node000003" class="edge">
<title>Node3&#45;&gt;Node2</title>
<g id="a_edge2_Node000002_Node000003"><a xlink:title=" ">
<path fill="none" stroke="#63b8ff" d="M107.5,-110.66C107.5,-101.93 107.5,-91.99 107.5,-85.09"/>
<polygon fill="#63b8ff" stroke="#63b8ff" points="104,-110.75 107.5,-120.75 111,-110.75 104,-110.75"/>
</a>
</g>
</g>
</g>
</svg>
