<?xml version="1.0" encoding="UTF-8" standalone="no"?>
<!DOCTYPE svg PUBLIC "-//W3C//DTD SVG 1.1//EN"
 "http://www.w3.org/Graphics/SVG/1.1/DTD/svg11.dtd">
<!-- Generated by graphviz version 2.43.0 (0)
 -->
<!-- Title: com.teragrep.cfe_16.TestClient.testSendEvent Pages: 1 -->
<svg width="730pt" height="364pt"
 viewBox="0.00 0.00 730.00 364.00" xmlns="http://www.w3.org/2000/svg" xmlns:xlink="http://www.w3.org/1999/xlink">
<g id="graph0" class="graph" transform="scale(1 1) rotate(0) translate(4 360)">
<title>com.teragrep.cfe_16.TestClient.testSendEvent</title>
<!-- Node1 -->
<g id="Node000001" class="node">
<title>Node1</title>
<g id="a_Node000001"><a xlink:title=" ">
<polygon fill="#999999" stroke="#666666" points="140,-198 0,-198 0,-168 140,-168 140,-198"/>
<text text-anchor="start" x="8" y="-186" font-family="Helvetica,sans-Serif" font-size="10.00">com.teragrep.cfe_16.Test</text>
<text text-anchor="middle" x="70" y="-175" font-family="Helvetica,sans-Serif" font-size="10.00">Client.testSendEvent</text>
</a>
</g>
</g>
<!-- Node2 -->
<g id="Node000002" class="node">
<title>Node2</title>
<g id="a_Node000002"><a xlink:href="classcom_1_1teragrep_1_1cfe__16_1_1TestClient.html#a9e085118b18a5952fb6c4e702b0bbc8b" target="_top" xlink:title=" ">
<polygon fill="white" stroke="#666666" points="350,-198 176,-198 176,-168 350,-168 350,-198"/>
<text text-anchor="start" x="184" y="-186" font-family="Helvetica,sans-Serif" font-size="10.00">com.teragrep.cfe_16.Test</text>
<text text-anchor="middle" x="263" y="-175" font-family="Helvetica,sans-Serif" font-size="10.00">Client.doRequestAndVerifyReply</text>
</a>
</g>
</g>
<!-- Node1&#45;&gt;Node2 -->
<g id="edge1_Node000001_Node000002" class="edge">
<title>Node1&#45;&gt;Node2</title>
<g id="a_edge1_Node000001_Node000002"><a xlink:title=" ">
<path fill="none" stroke="#63b8ff" d="M140.23,-183C148.51,-183 157.09,-183 165.67,-183"/>
<polygon fill="#63b8ff" stroke="#63b8ff" points="165.73,-186.5 175.73,-183 165.73,-179.5 165.73,-186.5"/>
</a>
</g>
</g>
<!-- Node3 -->
<g id="Node000003" class="node">
<title>Node3</title>
<g id="a_Node000003"><a xlink:href="classcom_1_1teragrep_1_1cfe__16_1_1TestClient.html#af1e0ff46d1a0eb1865bc80ea89247cc8" target="_top" xlink:title="Verifies that the HTTP reply status code was what it was supposed to me.">
<polygon fill="white" stroke="#666666" points="542.5,-356 389.5,-356 389.5,-326 542.5,-326 542.5,-356"/>
<text text-anchor="start" x="397.5" y="-344" font-family="Helvetica,sans-Serif" font-size="10.00">com.teragrep.cfe_16.Test</text>
<text text-anchor="middle" x="466" y="-333" font-family="Helvetica,sans-Serif" font-size="10.00">Client.checkHttpStatusCode</text>
</a>
</g>
</g>
<!-- Node2&#45;&gt;Node3 -->
<g id="edge2_Node000002_Node000003" class="edge">
<title>Node2&#45;&gt;Node3</title>
<g id="a_edge2_Node000002_Node000003"><a xlink:title=" ">
<path fill="none" stroke="#63b8ff" d="M274.7,-198.3C294.04,-224.91 337.35,-279.95 386,-312 391.57,-315.67 397.67,-318.96 403.94,-321.88"/>
<polygon fill="#63b8ff" stroke="#63b8ff" points="402.62,-325.12 413.18,-325.89 405.41,-318.7 402.62,-325.12"/>
</a>
</g>
</g>
<!-- Node4 -->
<g id="Node000004" class="node">
<title>Node4</title>
<g id="a_Node000004"><a xlink:href="classcom_1_1teragrep_1_1cfe__16_1_1TestClient.html#a23f3e7e41dc4fd7b2f8a35dd386e5a6e" target="_top" xlink:title=" ">
<polygon fill="white" stroke="#666666" points="722,-291 582,-291 582,-261 722,-261 722,-291"/>
<text text-anchor="start" x="590" y="-279" font-family="Helvetica,sans-Serif" font-size="10.00">com.teragrep.cfe_16.Test</text>
<text text-anchor="middle" x="652" y="-268" font-family="Helvetica,sans-Serif" font-size="10.00">Client.cleanup</text>
</a>
</g>
</g>
<!-- Node2&#45;&gt;Node4 -->
<g id="edge3_Node000002_Node000004" class="edge">
<title>Node2&#45;&gt;Node4</title>
<g id="a_edge3_Node000002_Node000004"><a xlink:title=" ">
<path fill="none" stroke="#63b8ff" d="M276.73,-198.03C297.08,-220.74 339.39,-262.86 386,-279 445.84,-299.72 517.93,-297.29 571.8,-290.62"/>
<polygon fill="#63b8ff" stroke="#63b8ff" points="572.53,-294.06 581.99,-289.28 571.61,-287.12 572.53,-294.06"/>
</a>
</g>
</g>
<!-- Node5 -->
<g id="Node000005" class="node">
<title>Node5</title>
<g id="a_Node000005"><a xlink:href="classcom_1_1teragrep_1_1cfe__16_1_1TestClient.html#afa2ceaba677411954a4210a8e6d5cd49" target="_top" xlink:title="Checks that the TCP connection is open, otherwis a new connection is created and returned.">
<polygon fill="white" stroke="#666666" points="542,-174 390,-174 390,-144 542,-144 542,-174"/>
<text text-anchor="start" x="398" y="-162" font-family="Helvetica,sans-Serif" font-size="10.00">com.teragrep.cfe_16.Test</text>
<text text-anchor="middle" x="466" y="-151" font-family="Helvetica,sans-Serif" font-size="10.00">Client.ensureTcpConnection</text>
</a>
</g>
</g>
<!-- Node2&#45;&gt;Node5 -->
<g id="edge4_Node000002_Node000005" class="edge">
<title>Node2&#45;&gt;Node5</title>
<g id="a_edge4_Node000002_Node000005"><a xlink:title=" ">
<path fill="none" stroke="#63b8ff" d="M350.12,-172.72C359.92,-171.55 369.92,-170.35 379.71,-169.18"/>
<polygon fill="#63b8ff" stroke="#63b8ff" points="380.32,-172.64 389.83,-167.98 379.49,-165.69 380.32,-172.64"/>
</a>
</g>
</g>
<!-- Node7 -->
<g id="Node000007" class="node">
<title>Node7</title>
<g id="a_Node000007"><a xlink:href="classcom_1_1teragrep_1_1cfe__16_1_1TestClient.html#a50b2f87f7fce871bb32c52de3a19dd55" target="_top" xlink:title=" ">
<polygon fill="white" stroke="#666666" points="536,-222 396,-222 396,-192 536,-192 536,-222"/>
<text text-anchor="start" x="404" y="-210" font-family="Helvetica,sans-Serif" font-size="10.00">com.teragrep.cfe_16.Test</text>
<text text-anchor="middle" x="466" y="-199" font-family="Helvetica,sans-Serif" font-size="10.00">Client.getReader</text>
</a>
</g>
</g>
<!-- Node2&#45;&gt;Node7 -->
<g id="edge6_Node000002_Node000007" class="edge">
<title>Node2&#45;&gt;Node7</title>
<g id="a_edge6_Node000002_Node000007"><a xlink:title=" ">
<path fill="none" stroke="#63b8ff" d="M350.12,-193.28C361.9,-194.69 373.96,-196.13 385.61,-197.52"/>
<polygon fill="#63b8ff" stroke="#63b8ff" points="385.39,-201.02 395.74,-198.73 386.22,-194.07 385.39,-201.02"/>
</a>
</g>
</g>
<!-- Node8 -->
<g id="Node000008" class="node">
<title>Node8</title>
<g id="a_Node000008"><a xlink:href="classcom_1_1teragrep_1_1cfe__16_1_1TestClient.html#a0d90aaf874c60e700371e09e00828eaa" target="_top" xlink:title="Advances buffered reader through HTTP headers.">
<polygon fill="white" stroke="#666666" points="536,-270 396,-270 396,-240 536,-240 536,-270"/>
<text text-anchor="start" x="404" y="-258" font-family="Helvetica,sans-Serif" font-size="10.00">com.teragrep.cfe_16.Test</text>
<text text-anchor="middle" x="466" y="-247" font-family="Helvetica,sans-Serif" font-size="10.00">Client.readHeaders</text>
</a>
</g>
</g>
<!-- Node2&#45;&gt;Node8 -->
<g id="edge7_Node000002_Node000008" class="edge">
<title>Node2&#45;&gt;Node8</title>
<g id="a_edge7_Node000002_Node000008"><a xlink:title=" ">
<path fill="none" stroke="#63b8ff" d="M300.02,-198.05C324.16,-207.92 356.76,-220.83 386,-231 391.64,-232.96 397.53,-234.92 403.45,-236.82"/>
<polygon fill="#63b8ff" stroke="#63b8ff" points="402.8,-240.29 413.39,-239.97 404.91,-233.62 402.8,-240.29"/>
</a>
</g>
</g>
<!-- Node9 -->
<g id="Node000009" class="node">
<title>Node9</title>
<g id="a_Node000009"><a xlink:href="classcom_1_1teragrep_1_1cfe__16_1_1TestClient.html#a4bd78c601bcc5d6c6bafc899f8ffe1e6" target="_top" xlink:title="Reads the reply line from the servere.">
<polygon fill="white" stroke="#666666" points="537,-126 395,-126 395,-96 537,-96 537,-126"/>
<text text-anchor="start" x="403" y="-114" font-family="Helvetica,sans-Serif" font-size="10.00">com.teragrep.cfe_16.Test</text>
<text text-anchor="middle" x="466" y="-103" font-family="Helvetica,sans-Serif" font-size="10.00">Client.readResponseBody</text>
</a>
</g>
</g>
<!-- Node2&#45;&gt;Node9 -->
<g id="edge10_Node000002_Node000009" class="edge">
<title>Node2&#45;&gt;Node9</title>
<g id="a_edge10_Node000002_Node000009"><a xlink:title=" ">
<path fill="none" stroke="#63b8ff" d="M300.02,-167.95C324.16,-158.08 356.76,-145.17 386,-135 391.64,-133.04 397.53,-131.08 403.45,-129.18"/>
<polygon fill="#63b8ff" stroke="#63b8ff" points="404.91,-132.38 413.39,-126.03 402.8,-125.71 404.91,-132.38"/>
</a>
</g>
</g>
<!-- Node10 -->
<g id="Node000010" class="node">
<title>Node10</title>
<g id="a_Node000010"><a xlink:href="classcom_1_1teragrep_1_1cfe__16_1_1TestClient.html#af26faca7da3952332135d35bb9827e34" target="_top" xlink:title="Does a HTTP request and keeps connection open.">
<polygon fill="white" stroke="#666666" points="536,-78 396,-78 396,-48 536,-48 536,-78"/>
<text text-anchor="start" x="404" y="-66" font-family="Helvetica,sans-Serif" font-size="10.00">com.teragrep.cfe_16.Test</text>
<text text-anchor="middle" x="466" y="-55" font-family="Helvetica,sans-Serif" font-size="10.00">Client.sendRequest</text>
</a>
</g>
</g>
<!-- Node2&#45;&gt;Node10 -->
<g id="edge11_Node000002_Node000010" class="edge">
<title>Node2&#45;&gt;Node10</title>
<g id="a_edge11_Node000002_Node000010"><a xlink:title=" ">
<path fill="none" stroke="#63b8ff" d="M279.23,-167.87C301.1,-146.93 343.47,-109.19 386,-87 389.54,-85.15 393.25,-83.42 397.05,-81.8"/>
<polygon fill="#63b8ff" stroke="#63b8ff" points="398.61,-84.95 406.63,-78.02 396.04,-78.44 398.61,-84.95"/>
</a>
</g>
</g>
<!-- Node11 -->
<g id="Node000011" class="node">
<title>Node11</title>
<g id="a_Node000011"><a xlink:href="classcom_1_1teragrep_1_1cfe__16_1_1TestClient.html#a98be0c11009e1193c90cbf91576cc66a" target="_top" xlink:title="Validates the response body line against the given regural expression.">
<polygon fill="white" stroke="#666666" points="546,-30 386,-30 386,0 546,0 546,-30"/>
<text text-anchor="start" x="394" y="-18" font-family="Helvetica,sans-Serif" font-size="10.00">com.teragrep.cfe_16.Test</text>
<text text-anchor="middle" x="466" y="-7" font-family="Helvetica,sans-Serif" font-size="10.00">Client.validateResponseBody</text>
</a>
</g>
</g>
<!-- Node2&#45;&gt;Node11 -->
<g id="edge12_Node000002_Node000011" class="edge">
<title>Node2&#45;&gt;Node11</title>
<g id="a_edge12_Node000002_Node000011"><a xlink:title=" ">
<path fill="none" stroke="#63b8ff" d="M272.65,-167.9C290.21,-138.61 332.88,-73.91 386,-39 388.41,-37.41 390.94,-35.93 393.54,-34.54"/>
<polygon fill="#63b8ff" stroke="#63b8ff" points="395.14,-37.65 402.64,-30.17 392.11,-31.34 395.14,-37.65"/>
</a>
</g>
</g>
<!-- Node6 -->
<g id="Node000006" class="node">
<title>Node6</title>
<g id="a_Node000006"><a xlink:href="classcom_1_1teragrep_1_1cfe__16_1_1TestClient.html#ab44ab6c8d2bd008181c5e31a2a8dfaa3" target="_top" xlink:title=" ">
<polygon fill="white" stroke="#666666" points="722,-219 582,-219 582,-189 722,-189 722,-219"/>
<text text-anchor="start" x="590" y="-207" font-family="Helvetica,sans-Serif" font-size="10.00">com.teragrep.cfe_16.Test</text>
<text text-anchor="middle" x="652" y="-196" font-family="Helvetica,sans-Serif" font-size="10.00">Client.createSocket</text>
</a>
</g>
</g>
<!-- Node5&#45;&gt;Node6 -->
<g id="edge5_Node000005_Node000006" class="edge">
<title>Node5&#45;&gt;Node6</title>
<g id="a_edge5_Node000005_Node000006"><a xlink:title=" ">
<path fill="none" stroke="#63b8ff" d="M528.53,-174.05C544.94,-178.06 562.82,-182.43 579.72,-186.57"/>
<polygon fill="#63b8ff" stroke="#63b8ff" points="578.99,-189.99 589.53,-188.97 580.65,-183.19 578.99,-189.99"/>
</a>
</g>
</g>
<!-- Node8&#45;&gt;Node4 -->
<g id="edge8_Node000008_Node000004" class="edge">
<title>Node8&#45;&gt;Node4</title>
<g id="a_edge8_Node000008_Node000004"><a xlink:title=" ">
<path fill="none" stroke="#63b8ff" d="M536.04,-262.88C547.75,-264.22 559.99,-265.61 571.94,-266.98"/>
<polygon fill="#63b8ff" stroke="#63b8ff" points="571.55,-270.45 581.88,-268.11 572.34,-263.5 571.55,-270.45"/>
</a>
</g>
</g>
<!-- Node8&#45;&gt;Node6 -->
<g id="edge9_Node000008_Node000006" class="edge">
<title>Node8&#45;&gt;Node6</title>
<g id="a_edge9_Node000008_Node000006"><a xlink:title=" ">
<path fill="none" stroke="#63b8ff" d="M521.21,-239.97C541.89,-234.24 565.66,-227.65 587.16,-221.69"/>
<polygon fill="#63b8ff" stroke="#63b8ff" points="588.16,-225.05 596.86,-219.01 586.29,-218.3 588.16,-225.05"/>
</a>
</g>
</g>
</g>
</svg>
