<?xml version="1.0" encoding="UTF-8" standalone="no"?>
<!DOCTYPE svg PUBLIC "-//W3C//DTD SVG 1.1//EN"
 "http://www.w3.org/Graphics/SVG/1.1/DTD/svg11.dtd">
<!-- Generated by graphviz version 2.43.0 (0)
 -->
<!-- Title: com.teragrep.cfe_16.response.ExceptionJsonResponse Pages: 1 -->
<svg width="395pt" height="192pt"
 viewBox="0.00 0.00 394.50 192.00" xmlns="http://www.w3.org/2000/svg" xmlns:xlink="http://www.w3.org/1999/xlink">
<g id="graph0" class="graph" transform="scale(1 1) rotate(0) translate(4 188)">
<title>com.teragrep.cfe_16.response.ExceptionJsonResponse</title>
<!-- Node1 -->
<g id="Node000001" class="node">
<title>Node1</title>
<g id="a_Node000001"><a xlink:title=" ">
<polygon fill="#999999" stroke="#666666" points="183,-30 16,-30 16,0 183,0 183,-30"/>
<text text-anchor="start" x="24" y="-18" font-family="Helvetica,sans-Serif" font-size="10.00">com.teragrep.cfe_16.response.</text>
<text text-anchor="middle" x="99.5" y="-7" font-family="Helvetica,sans-Serif" font-size="10.00">ExceptionJsonResponse</text>
</a>
</g>
</g>
<!-- Node2 -->
<g id="Node000002" class="node">
<title>Node2</title>
<g id="a_Node000002"><a xlink:href="interfacecom_1_1teragrep_1_1cfe__16_1_1response_1_1Response.html" target="_top" xlink:title=" ">
<polygon fill="white" stroke="#666666" points="167,-107 0,-107 0,-77 167,-77 167,-107"/>
<text text-anchor="start" x="8" y="-95" font-family="Helvetica,sans-Serif" font-size="10.00">com.teragrep.cfe_16.response.</text>
<text text-anchor="middle" x="83.5" y="-84" font-family="Helvetica,sans-Serif" font-size="10.00">Response</text>
</a>
</g>
</g>
<!-- Node2&#45;&gt;Node1 -->
<g id="edge1_Node000001_Node000002" class="edge">
<title>Node2&#45;&gt;Node1</title>
<g id="a_edge1_Node000001_Node000002"><a xlink:title=" ">
<path fill="none" stroke="#63b8ff" d="M88.64,-66.91C91.24,-54.74 94.3,-40.4 96.5,-30.04"/>
<polygon fill="#63b8ff" stroke="#63b8ff" points="85.17,-66.38 86.51,-76.89 92.02,-67.84 85.17,-66.38"/>
</a>
</g>
</g>
<!-- Node3 -->
<g id="Node000003" class="node">
<title>Node3</title>
<g id="a_Node000003"><a xlink:href="classcom_1_1teragrep_1_1cfe__16_1_1response_1_1ExceptionEvent.html" target="_top" xlink:title=" ">
<polygon fill="white" stroke="#666666" points="352,-107 185,-107 185,-77 352,-77 352,-107"/>
<text text-anchor="start" x="193" y="-95" font-family="Helvetica,sans-Serif" font-size="10.00">com.teragrep.cfe_16.response.</text>
<text text-anchor="middle" x="268.5" y="-84" font-family="Helvetica,sans-Serif" font-size="10.00">ExceptionEvent</text>
</a>
</g>
</g>
<!-- Node3&#45;&gt;Node1 -->
<g id="edge2_Node000001_Node000003" class="edge">
<title>Node3&#45;&gt;Node1</title>
<g id="a_edge2_Node000001_Node000003"><a xlink:title=" ">
<path fill="none" stroke="#9a32cd" stroke-dasharray="5,2" d="M227.46,-72.79C197.82,-59.63 158.37,-42.12 131.15,-30.04"/>
<polygon fill="#9a32cd" stroke="#9a32cd" points="226.15,-76.04 236.71,-76.89 228.99,-69.64 226.15,-76.04"/>
</a>
</g>
<text text-anchor="middle" x="233" y="-51" font-family="Helvetica,sans-Serif" font-size="10.00" fill="grey"> exceptionEvent</text>
</g>
<!-- Node4 -->
<g id="Node000004" class="node">
<title>Node4</title>
<g id="a_Node000004"><a xlink:href="classcom_1_1teragrep_1_1cfe__16_1_1response_1_1ExceptionEventContext.html" target="_top" xlink:title=" ">
<polygon fill="white" stroke="#666666" points="352,-184 185,-184 185,-154 352,-154 352,-184"/>
<text text-anchor="start" x="193" y="-172" font-family="Helvetica,sans-Serif" font-size="10.00">com.teragrep.cfe_16.response.</text>
<text text-anchor="middle" x="268.5" y="-161" font-family="Helvetica,sans-Serif" font-size="10.00">ExceptionEventContext</text>
</a>
</g>
</g>
<!-- Node4&#45;&gt;Node3 -->
<g id="edge3_Node000003_Node000004" class="edge">
<title>Node4&#45;&gt;Node3</title>
<g id="a_edge3_Node000003_Node000004"><a xlink:title=" ">
<path fill="none" stroke="#9a32cd" stroke-dasharray="5,2" d="M268.5,-143.54C268.5,-131.45 268.5,-117.29 268.5,-107.04"/>
<polygon fill="#9a32cd" stroke="#9a32cd" points="265,-143.89 268.5,-153.89 272,-143.89 265,-143.89"/>
</a>
</g>
<text text-anchor="middle" x="327.5" y="-128" font-family="Helvetica,sans-Serif" font-size="10.00" fill="grey"> exceptionEventContext</text>
</g>
</g>
</svg>
