<?xml version="1.0" encoding="UTF-8" standalone="no"?>
<!DOCTYPE svg PUBLIC "-//W3C//DTD SVG 1.1//EN"
 "http://www.w3.org/Graphics/SVG/1.1/DTD/svg11.dtd">
<!-- Generated by graphviz version 2.43.0 (0)
 -->
<!-- Title: com.teragrep.cfe_16.Acknowledgements.getCurrentAckValue Pages: 1 -->
<svg width="505pt" height="134pt"
 viewBox="0.00 0.00 505.00 134.00" xmlns="http://www.w3.org/2000/svg" xmlns:xlink="http://www.w3.org/1999/xlink">
<g id="graph0" class="graph" transform="scale(1 1) rotate(0) translate(4 130)">
<title>com.teragrep.cfe_16.Acknowledgements.getCurrentAckValue</title>
<!-- Node1 -->
<g id="Node000001" class="node">
<title>Node1</title>
<g id="a_Node000001"><a xlink:title="Returns the current Ack value for given token and channel.">
<polygon fill="#999999" stroke="#666666" points="497,-78 262,-78 262,-48 497,-48 497,-78"/>
<text text-anchor="start" x="270" y="-66" font-family="Helvetica,sans-Serif" font-size="10.00">com.teragrep.cfe_16.Acknowledgements.get</text>
<text text-anchor="middle" x="379.5" y="-55" font-family="Helvetica,sans-Serif" font-size="10.00">CurrentAckValue</text>
</a>
</g>
</g>
<!-- Node2 -->
<g id="Node000002" class="node">
<title>Node2</title>
<g id="a_Node000002"><a xlink:href="classcom_1_1teragrep_1_1cfe__16_1_1it_1_1AcknowledgementsIT.html#a28a8273d6b136df113665a5032aa8ca3" target="_top" xlink:title=" ">
<polygon fill="white" stroke="#666666" points="226,-126 0,-126 0,-96 226,-96 226,-126"/>
<text text-anchor="start" x="8" y="-114" font-family="Helvetica,sans-Serif" font-size="10.00">com.teragrep.cfe_16.it.Acknowledgements</text>
<text text-anchor="middle" x="113" y="-103" font-family="Helvetica,sans-Serif" font-size="10.00">IT.getCurrentAckValueAndIncrementTest</text>
</a>
</g>
</g>
<!-- Node1&#45;&gt;Node2 -->
<g id="edge1_Node000001_Node000002" class="edge">
<title>Node1&#45;&gt;Node2</title>
<g id="a_edge1_Node000001_Node000002"><a xlink:title=" ">
<path fill="none" stroke="#63b8ff" d="M285.43,-79.89C256.51,-85.14 224.83,-90.89 196.67,-96"/>
<polygon fill="#63b8ff" stroke="#63b8ff" points="286.32,-83.29 295.54,-78.06 285.07,-76.4 286.32,-83.29"/>
</a>
</g>
</g>
<!-- Node3 -->
<g id="Node000003" class="node">
<title>Node3</title>
<g id="a_Node000003"><a xlink:href="classcom_1_1teragrep_1_1cfe__16_1_1it_1_1AcknowledgementsIT.html#afc4e73cfb46d7fbc19edc8d2c177e6bf" target="_top" xlink:title=" ">
<polygon fill="white" stroke="#666666" points="226,-78 0,-78 0,-48 226,-48 226,-78"/>
<text text-anchor="start" x="8" y="-66" font-family="Helvetica,sans-Serif" font-size="10.00">com.teragrep.cfe_16.it.Acknowledgements</text>
<text text-anchor="middle" x="113" y="-55" font-family="Helvetica,sans-Serif" font-size="10.00">IT.getCurrentAckValueTest</text>
</a>
</g>
</g>
<!-- Node1&#45;&gt;Node3 -->
<g id="edge2_Node000001_Node000003" class="edge">
<title>Node1&#45;&gt;Node3</title>
<g id="a_edge2_Node000001_Node000003"><a xlink:title=" ">
<path fill="none" stroke="#63b8ff" d="M251.48,-63C243.07,-63 234.64,-63 226.31,-63"/>
<polygon fill="#63b8ff" stroke="#63b8ff" points="251.72,-66.5 261.72,-63 251.72,-59.5 251.72,-66.5"/>
</a>
</g>
</g>
<!-- Node4 -->
<g id="Node000004" class="node">
<title>Node4</title>
<g id="a_Node000004"><a xlink:href="classcom_1_1teragrep_1_1cfe__16_1_1service_1_1HECServiceImpl.html#a9ed9a0d5772181625f00edce5a2c611d" target="_top" xlink:title="Returns the JSON object as a response of given HTTP event request.">
<polygon fill="white" stroke="#666666" points="192,-30 34,-30 34,0 192,0 192,-30"/>
<text text-anchor="start" x="42" y="-18" font-family="Helvetica,sans-Serif" font-size="10.00">com.teragrep.cfe_16.service.</text>
<text text-anchor="middle" x="113" y="-7" font-family="Helvetica,sans-Serif" font-size="10.00">HECServiceImpl.sendEvents</text>
</a>
</g>
</g>
<!-- Node1&#45;&gt;Node4 -->
<g id="edge3_Node000001_Node000004" class="edge">
<title>Node1&#45;&gt;Node4</title>
<g id="a_edge3_Node000001_Node000004"><a xlink:title=" ">
<path fill="none" stroke="#63b8ff" d="M285.34,-46.09C254.88,-40.57 221.39,-34.49 192.16,-29.18"/>
<polygon fill="#63b8ff" stroke="#63b8ff" points="285.07,-49.6 295.54,-47.94 286.32,-42.71 285.07,-49.6"/>
</a>
</g>
</g>
</g>
</svg>
